<svg xmlns="http://www.w3.org/2000/svg" viewBox="0 0 132.8 28.6"><defs><style>.cls-1{fill:#f77f00;}.cls-2{fill:#006435;}.cls-3{fill:#1d1902;}</style></defs><g id="Layer_2" data-name="Layer 2"><g id="Layer_1-2" data-name="Layer 1"><path class="cls-1" d="M88.91,9.14,94.38.31a.16.16,0,0,0-.06-.25.2.2,0,0,0-.25,0l-9,5.1c-.18.12-.31.25-.43.31a2.81,2.81,0,1,0,3.91,4,1,1,0,0,0,.38-.37Z"/><path class="cls-2" d="M116.32,16.1l-5.9,4.42c0-.19-.06-.38-.06-.62a4.16,4.16,0,0,1,4.16-4.17,3.47,3.47,0,0,1,1.8.37m5.29.81a1.87,1.87,0,0,0-.31-1.49,8.37,8.37,0,0,0-1.56-1.93,8.2,8.2,0,0,0-5.16-2.17h0A8.57,8.57,0,0,0,106,19.9a8.68,8.68,0,0,0,8.65,8.64,8.77,8.77,0,0,0,6.46-3,2.26,2.26,0,0,0,.56-1.43A2.2,2.2,0,0,0,119.5,22a2.38,2.38,0,0,0-1.75.87,3.84,3.84,0,0,1-3,1.3,5,5,0,0,1-1.43-.25l7.4-5.47a2.63,2.63,0,0,0,.93-1.49"/><path class="cls-2" d="M132.8,16.41v-5a5.73,5.73,0,0,0-4.41,2V11.5a8.81,8.81,0,0,0-1.25-.12,5.78,5.78,0,0,0-4.29,1.92V25.8h0a2.8,2.8,0,1,0,5.6,0h0v-7a2.32,2.32,0,0,1,1.37-2.18,4.24,4.24,0,0,1,2-.43,9.34,9.34,0,0,1,1,.18"/><path class="cls-2" d="M89.34,25.8h0V11.32H83.81V25.74a2.77,2.77,0,1,0,5.53.06"/><path class="cls-2" d="M100.91,17.72a2,2,0,0,1-2,2h-3v-4h3a2,2,0,0,1,2,2m4.41,0a6.32,6.32,0,0,0-2.61-5.16A5.81,5.81,0,0,0,99,11.32H90.59V25.74a2.8,2.8,0,1,0,5.59,0V24.12H99a6.38,6.38,0,0,0,6.34-6.4"/><path class="cls-2" d="M82.56,25.8h0V1.87H77V25.74a2.8,2.8,0,0,0,5.59.06"/><path class="cls-2" d="M66.15,1.87,52,28.54h6.71L70.25,7v9.39H66.77l-3,5.78h6.52v3.61a2.8,2.8,0,1,0,5.6,0V1.87Z"/><path class="cls-1" d="M36.87,9.14,42.28.31a.16.16,0,0,0-.07-.25C42.21,0,42.15,0,42,0L33,5.16c-.18.12-.31.25-.43.31a2.81,2.81,0,0,0,3.92,4,1.07,1.07,0,0,0,.37-.37Z"/><path class="cls-3" d="M37.3,25.8h0V11.32H31.77V25.74a2.77,2.77,0,1,0,5.53.06"/><path class="cls-3" d="M30.53,25.8h0V1.87H25V25.74a2.77,2.77,0,0,0,5.54.06"/><path class="cls-3" d="M14.11,1.87,0,28.54H6.71L18.22,7v9.39H14.73l-3,5.85h6.53v3.6a2.8,2.8,0,1,0,5.59,0V1.87Z"/><path class="cls-1" d="M46.32,27.36a4,4,0,0,1-2.8,1.18,2.69,2.69,0,0,1-3-2.61h0a2.67,2.67,0,0,1,1.92-2.55,3.21,3.21,0,0,1-.74-1.93h0a2.38,2.38,0,0,1,2.61-2.3,2.26,2.26,0,0,1,2.42,2.18h0a2.55,2.55,0,0,1-2,2.36l1.56,1.61a11,11,0,0,0,1-1.74l1.25.63a12.06,12.06,0,0,1-1.25,2l1.43,1.49-1.24.87Zm-.93-.94-2.06-2.05c-.87.37-1.24.93-1.24,1.49h0a1.38,1.38,0,0,0,1.55,1.31,2.24,2.24,0,0,0,1.75-.75m-.07-5h0a1,1,0,0,0-1-1.06,1.08,1.08,0,0,0-1.12,1.12h0a2,2,0,0,0,.68,1.37c1-.37,1.49-.81,1.49-1.43"/></g></g></svg>