<svg xmlns="http://www.w3.org/2000/svg" viewBox="0 0 136 15.42"><defs><style>.cls-1{fill:#479b35;}.cls-2{fill:#294634;}.cls-3{fill:#f4b000;}</style></defs><g id="Layer_2" data-name="Layer 2"><g id="Layer_1-2" data-name="Layer 1"><g id="Livello_2" data-name="Livello 2"><g id="Livello_1-2" data-name="Livello 1-2"><path class="cls-1" d="M58.37,1.1a3.58,3.58,0,0,0-1.12,2.77V5.12H55.56V7.41h1.69v7.76h3.09V7.41h2.3V5.11h-2.3V4c0-1.08.5-1.62,1.49-1.62A3,3,0,0,1,63,2.65V.24A5.2,5.2,0,0,0,61.41.05,4.24,4.24,0,0,0,58.37,1.1Z"/><path class="cls-1" d="M68.2,4.87a9.43,9.43,0,0,0-2,.26,7.81,7.81,0,0,0-1.77.58V8.05A6.15,6.15,0,0,1,67.8,7c1.19,0,1.78.55,1.78,1.65L66.85,9q-3.46.45-3.46,3.37a3,3,0,0,0,.83,2.22,3.19,3.19,0,0,0,2.3.83,3.29,3.29,0,0,0,3-1.69h0v1.44h2.93v-6Q72.51,4.88,68.2,4.87Zm1.38,6.22A2.16,2.16,0,0,1,69,12.62a1.86,1.86,0,0,1-1.42.61,1.42,1.42,0,0,1-1-.34,1.12,1.12,0,0,1-.38-.87c0-.77.5-1.23,1.51-1.37l1.83-.23Z"/><path class="cls-1" d="M78.1,7h0V5.12H75V15.17h3.11v-4.8a3.22,3.22,0,0,1,.57-2,1.87,1.87,0,0,1,1.58-.74,2.67,2.67,0,0,1,1.3.3V5.06a2,2,0,0,0-.76-.12A2.69,2.69,0,0,0,78.1,7Z"/><path class="cls-1" d="M95.71,4.87a3.71,3.71,0,0,0-3.38,1.88,2.9,2.9,0,0,0-2.92-1.88,3.83,3.83,0,0,0-3.26,1.82h0V5.12H83V15.17h3.1V9.59a2.73,2.73,0,0,1,.48-1.71,1.5,1.5,0,0,1,1.28-.61c1,0,1.58.71,1.58,2.13v5.77h3.12V9.56a2.61,2.61,0,0,1,.48-1.64,1.45,1.45,0,0,1,1.23-.65q1.62,0,1.62,2.19v5.73H99V8.92Q99,4.87,95.71,4.87Z"/><path class="cls-1" d="M105.51,4.87a9.43,9.43,0,0,0-2.05.26,7.81,7.81,0,0,0-1.77.58V8.05A6.15,6.15,0,0,1,105.11,7c1.19,0,1.78.55,1.79,1.65L104.16,9q-3.47.45-3.46,3.37a3,3,0,0,0,.84,2.22,3.17,3.17,0,0,0,2.29.83,3.29,3.29,0,0,0,3-1.69h0v1.44h2.93v-6Q109.82,4.88,105.51,4.87Zm1.39,6.22a2.24,2.24,0,0,1-.56,1.53,1.9,1.9,0,0,1-1.43.61,1.38,1.38,0,0,1-1-.34,1.16,1.16,0,0,1-.39-.87c0-.77.51-1.23,1.51-1.37l1.83-.23Z"/><path class="cls-1" d="M113.22,6.35a5.34,5.34,0,0,0-1.53,4A4.82,4.82,0,0,0,113.13,14a5.12,5.12,0,0,0,3.75,1.41,6.08,6.08,0,0,0,3-.61V12.32a4,4,0,0,1-2.27.72,2.7,2.7,0,0,1-2-.76,2.9,2.9,0,0,1-.75-2.1A2.93,2.93,0,0,1,115.61,8a2.86,2.86,0,0,1,2.12-.76A3.51,3.51,0,0,1,119.9,8V5.35a5.34,5.34,0,0,0-2.58-.47A5.59,5.59,0,0,0,113.22,6.35Z"/><rect class="cls-1" x="121.92" y="5.12" width="3.1" height="10.06"/><path class="cls-1" d="M131.7,4.87a9.42,9.42,0,0,0-2,.26,8.06,8.06,0,0,0-1.78.58V8.05A6.15,6.15,0,0,1,131.3,7c1.2,0,1.79.55,1.79,1.65L130.36,9q-3.47.45-3.47,3.37a3,3,0,0,0,.84,2.22,3.19,3.19,0,0,0,2.3.83,3.26,3.26,0,0,0,3-1.69h0v1.44H136v-6C136,6.31,134.57,4.87,131.7,4.87Zm1.39,6.22a2.2,2.2,0,0,1-.55,1.53,1.86,1.86,0,0,1-1.42.61,1.45,1.45,0,0,1-1-.34,1.12,1.12,0,0,1-.38-.87c0-.77.5-1.23,1.53-1.37l1.82-.23Z"/><path class="cls-2" d="M4.82,4.87a9.43,9.43,0,0,0-2.05.26A8.06,8.06,0,0,0,1,5.71V8.05A6.15,6.15,0,0,1,4.41,7c1.2,0,1.79.55,1.79,1.65L3.47,9C1.16,9.3,0,10.43,0,12.37a3,3,0,0,0,.85,2.22,3.16,3.16,0,0,0,2.29.83,3.26,3.26,0,0,0,3-1.69h0v1.44H9.11v-6C9.12,6.31,7.68,4.87,4.82,4.87ZM6.2,11.09a2.2,2.2,0,0,1-.55,1.53,1.86,1.86,0,0,1-1.44.6,1.38,1.38,0,0,1-1-.34A1.16,1.16,0,0,1,2.83,12c0-.76.51-1.23,1.53-1.37l1.83-.23Z"/><path class="cls-2" d="M24.27,4.87a3.75,3.75,0,0,0-3.39,1.88A2.88,2.88,0,0,0,18,4.87a3.83,3.83,0,0,0-3.25,1.82h0V5.12H11.57V15.17h3.11V9.59a2.72,2.72,0,0,1,.47-1.71,1.52,1.52,0,0,1,1.27-.61Q18,7.27,18,9.4v5.77h3.1V9.56a2.74,2.74,0,0,1,.48-1.64,1.48,1.48,0,0,1,1.25-.65c1.07,0,1.61.73,1.61,2.19v5.73h3.09V8.92Q27.54,4.87,24.27,4.87Z"/><rect class="cls-2" x="30.12" y="5.12" width="3.1" height="10.06"/><path class="cls-2" d="M36.77,6.35a5.34,5.34,0,0,0-1.53,4A4.82,4.82,0,0,0,36.68,14a5.12,5.12,0,0,0,3.75,1.41,6.08,6.08,0,0,0,3-.61V12.32a4,4,0,0,1-2.27.72,2.7,2.7,0,0,1-2-.76,2.85,2.85,0,0,1-.76-2.1A2.92,2.92,0,0,1,39.14,8a2.86,2.86,0,0,1,2.12-.76A3.49,3.49,0,0,1,43.43,8V5.35a5.33,5.33,0,0,0-2.57-.47A5.6,5.6,0,0,0,36.77,6.35Z"/><path class="cls-2" d="M49.56,4.87a9.43,9.43,0,0,0-2.05.26,8.06,8.06,0,0,0-1.78.58V8.05A6.15,6.15,0,0,1,49.15,7c1.2,0,1.79.55,1.79,1.65L48.21,9c-2.3.3-3.45,1.43-3.45,3.37a3,3,0,0,0,.83,2.22,3.18,3.18,0,0,0,2.3.83,3.3,3.3,0,0,0,3-1.69h0v1.44h2.94v-6C53.86,6.31,52.42,4.87,49.56,4.87Zm1.38,6.22a2.2,2.2,0,0,1-.55,1.53,1.85,1.85,0,0,1-1.43.6,1.42,1.42,0,0,1-1-.34,1.19,1.19,0,0,1-.38-.87c0-.76.51-1.23,1.51-1.37l1.83-.23Z"/><ellipse class="cls-3" cx="31.69" cy="1.85" rx="1.99" ry="1.85"/><ellipse class="cls-3" cx="123.68" cy="1.88" rx="2.02" ry="1.88"/></g></g></g></g></svg>