<svg xmlns="http://www.w3.org/2000/svg" viewBox="0 0 110.54 32.03"><defs><style>.cls-1{fill:#0b0b0a;fill-rule:evenodd;}</style></defs><g id="Layer_2" data-name="Layer 2"><g id="Layer_1-2" data-name="Layer 1"><path class="cls-1" d="M76.41,23.47a8.82,8.82,0,0,1-12.66,0A11,11,0,0,1,61.26,16a10.77,10.77,0,0,1,2.52-7.33,8.72,8.72,0,0,1,12.6,0A10.77,10.77,0,0,1,78.9,16a11,11,0,0,1-2.49,7.43ZM54.16,16c0,.14,0,.27,0,.41-2.54-2.32-6.22-3.18-8.47-3.63-4.15-.87-7.33-1.68-7.33-4.63,0-2.09,1.87-3.61,5.46-3.35A5.06,5.06,0,0,1,48.88,9c0,.32.2.55.56.55l5.9,0h.08A16.06,16.06,0,0,0,54.16,16Zm-10,10.86c-2.85,0-6-1-6.72-4.94-.06-.38-.24-.53-.53-.54l-5.7-.07V11.26c.75,3,3.23,5,8.6,6.21,3.6.86,9.83,1.41,9.83,5.1,0,2.57-1.89,4.39-5.48,4.33Zm-28.41-.74c-4.61,0-8.82-3.62-8.82-10.11,0-5.1,3.16-10,8.85-10,2.46,0,8.71.84,8.71,10s-6.52,10.11-8.74,10.11ZM85.83,13.57c1.31,1.75,3.67,3,7.51,3.9,3.6.86,9.83,1.41,9.83,5.1,0,2.57-1.89,4.39-5.48,4.33-2.85,0-6-1-6.72-4.94-.06-.37-.24-.53-.53-.54l-5.28-.07A16.37,16.37,0,0,0,86,16a18.64,18.64,0,0,0-.17-2.47ZM97.3,32c6.33,0,13.79-2.35,13.21-10-.65-6.78-7.71-8.5-11.24-9.21-4.15-.87-7.33-1.67-7.33-4.63,0-2.09,1.87-3.61,5.46-3.35a5.07,5.07,0,0,1,5,4.18c0,.32.2.55.56.55l5.9,0c.45,0,.59-.23.53-.55C108.29,2,102.38,0,96.94,0S85,1.53,84.5,8.28c0,.26,0,.52,0,.77A16.16,16.16,0,0,0,70.07,0h-.13a15.34,15.34,0,0,0-5.6,1.06,16.2,16.2,0,0,0-5,3.08,16.41,16.41,0,0,0-3.58,4.62C54.54,2,48.72,0,43.37,0c-5,0-10.91,1.29-12.2,6.73V1.33a.52.52,0,0,0-.52-.52H25.09a.52.52,0,0,0-.52.52V2.79c0,.24-.17.33-.37.19a14.45,14.45,0,0,0-8.42-3,15.23,15.23,0,0,0-5.61,1A16.13,16.13,0,0,0,5.23,4.15,15.89,15.89,0,0,0,1.31,9.5,16.08,16.08,0,0,0,0,16a16.18,16.18,0,0,0,1.16,6.17,15.81,15.81,0,0,0,3.47,5.16,15.92,15.92,0,0,0,5.11,3.5A15.74,15.74,0,0,0,15.81,32a13.43,13.43,0,0,0,8.39-3c.2-.16.37-.07.37.18V30.7a.52.52,0,0,0,.52.52h5.56a.52.52,0,0,0,.52-.52V25.55C33.79,31.71,40.46,32,43.73,32c5.47,0,11.77-1.76,13-7.15a17.32,17.32,0,0,0,2,2.49A15.8,15.8,0,0,0,70.08,32h.19a15.48,15.48,0,0,0,6-1.19,16,16,0,0,0,5.1-3.46,16.81,16.81,0,0,0,2.76-3.67c2,8,9.61,8.33,13.17,8.33Z"/></g></g></svg>