<svg xmlns="http://www.w3.org/2000/svg" viewBox="0 0 175.84 70.07"><defs><style>.cls-1{fill:#222;}.cls-2{fill:#222;}.cls-3{fill:#e96105;}</style></defs><title>bbet-logo</title><g id="Layer_2" data-name="Layer 2"><g id="Layer_1-2" data-name="Layer 1"><path class="cls-1" d="M169.37,57.66a5.87,5.87,0,1,1-5.86,5.86,5.87,5.87,0,0,1,5.86-5.86m0-.6a6.47,6.47,0,1,0,6.47,6.46,6.46,6.46,0,0,0-6.47-6.46Z"/><path class="cls-1" d="M166.64,66.62v-6.2h2.75a3.7,3.7,0,0,1,1.26.17,1.36,1.36,0,0,1,.69.59,1.77,1.77,0,0,1,.26.94,1.55,1.55,0,0,1-.43,1.11,2.13,2.13,0,0,1-1.32.57,2.58,2.58,0,0,1,.5.31,4.51,4.51,0,0,1,.68.83l1.08,1.68h-1l-.82-1.29c-.24-.37-.43-.65-.59-.85a1.44,1.44,0,0,0-.42-.41,1.12,1.12,0,0,0-.37-.17,2.46,2.46,0,0,0-.46,0h-.95v2.75Zm.82-3.46h1.77a2.63,2.63,0,0,0,.88-.12.9.9,0,0,0,.48-.37,1,1,0,0,0,.16-.55.91.91,0,0,0-.32-.73,1.49,1.49,0,0,0-1-.28h-2Z"/><path class="cls-2" d="M79.89,0H61.65L46.45,63.21S51,70.37,62.44,70C79.2,69.4,95,58.94,95.25,36h0c0-6.33-3.65-13.42-9.21-14.47a14.11,14.11,0,0,0-12.23,3.74ZM66.5,55.68,71.88,33.3s8.05-4.54,7.22,5c-.48,5.43-4.39,17.1-11.28,18.78C66.14,57.47,66.5,55.68,66.5,55.68Z"/><path class="cls-3" d="M33.45,0H15.21L0,63.21S4.52,70.37,16,70c16.77-.57,32.55-11,32.81-34h0c0-6.33-3.64-13.42-9.2-14.47a14.1,14.1,0,0,0-12.23,3.74ZM20.05,55.68,25.44,33.3s8-4.54,7.21,5c-.47,5.43-4.39,17.1-11.27,18.78C19.69,57.47,20.05,55.68,20.05,55.68Z"/><path class="cls-2" d="M124.62,37.11a5.13,5.13,0,0,0,0-2.41c-1.18-4.54-8.15-4.54-9.31.3l-1.82,7.43S123.15,44.39,124.62,37.11ZM121.31,50.2a28.12,28.12,0,0,1-9.94.93l-.72,3a2.37,2.37,0,0,0,2.29,2.9h17.49l-3.13,13h-20c-12.32,0-13.57-9.18-12.26-16.16A84,84,0,0,1,100,37.05c4.41-10.15,12.61-15.85,22.56-15.85,11.7,0,13.43,8.36,12,15.43C133.69,40.87,131.92,47.05,121.31,50.2Z"/><path class="cls-1" d="M158.52,32.93h9.12l2.83-11.63H161.4l3.43-13.89h-8.72a9.53,9.53,0,0,0-9.35,7.16l-1.68,6.71h-6l-2.78,11.64h5.91l-4.87,19.76c-2.65,11.34.33,17.3,12,17.3h9.61l3-12.93h-6.34a2.36,2.36,0,0,1-2.29-2.92Z"/></g></g></svg>