<svg xmlns="http://www.w3.org/2000/svg" viewBox="0 0 107.53 82.64"><defs><style>.cls-1{fill:#c92329;}.cls-1,.cls-2,.cls-3{fill-rule:evenodd;}.cls-2{fill:#fff;}</style></defs><g id="Layer_2" data-name="Layer 2"><g id="Layer_1-2" data-name="Layer 1"><path class="cls-1" d="M0,0H107.53V82.64H0Z"/><path class="cls-2" d="M1.46,1.42H106.12V81.23H1.46Z"/><path class="cls-1" d="M7,5.58H21.53V33.71c7.79-6.86,20.35-11.3,35.37-11.3,20.58,0,43.95,11.83,43.95,28.54S77.48,79.5,53.93,79.5c-13,0-24.84-4.4-32.4-11.2v8.23H7Zm46,22.1c15.41,0,32.91,9.65,32.91,23.27S68.37,74.21,50.74,74.21C34.09,74.21,20.05,63.76,20.05,51S33.85,27.68,53,27.68Z"/><path class="cls-3" d="M9.14,44.15h4v5.28c2-2.12,10.23-1,10.36,3.35,0,4.47-8.48,5.68-10.36,3.31l0,.84H9.14Zm22.43,3.9c4.12,0,7.47,2.18,7.47,4.75v-.06l-10.9.06a3.36,3.36,0,0,0,3.34,3.41,3.42,3.42,0,0,0,3.21-2.28h4.1c-.85,2-3.77,3.47-7.22,3.47-4.11,0-7.46-2.1-7.46-4.68s3.35-4.67,7.46-4.67Zm8.36.33h4v1.26a4.85,4.85,0,0,1,4-1.59c3.24,0,5.41.76,5.41,2.81V57h-4v-6.1c0-1.07-1.59-1.45-2.6-1.45s-2.82.84-2.82,1.77v5.75h-4V48.38Zm14.4,0h4v1.26a4.86,4.86,0,0,1,4-1.59c3.25,0,5.42.76,5.42,2.81V57h-4v-6.1c0-1.07-1.58-1.45-2.59-1.45s-2.82.84-2.82,1.77v5.75h-4V48.38Zm21.9-.33c4.11,0,7.47,2.18,7.47,4.75v-.06l-10.9.06a3.36,3.36,0,0,0,3.33,3.41,3.42,3.42,0,0,0,3.22-2.28h4.1c-.86,2-3.77,3.47-7.22,3.47-4.11,0-7.47-2.1-7.47-4.68s3.36-4.67,7.47-4.67Zm8.26-3.9h4.12v3.9h5v1.36h-5v4.73c0,2.79,6.24,2.79,6.28,0h3.89c0,1.51-2.23,3.26-7.74,3.26-.78,0-6.55,0-6.55-4.6V49.41H82.25V48.05h2.24v-3.9Zm-5.18,7.53a3.39,3.39,0,0,0-6.38,0Zm-44.65,0a3.45,3.45,0,0,0-3.19-2.25,3.41,3.41,0,0,0-3.2,2.25ZM16.34,49.43a3.41,3.41,0,1,1-.22,6.81,3.41,3.41,0,0,1,.22-6.81Z"/></g></g></svg>