<?xml version="1.0" encoding="utf-8"?>
<!-- Generator: Adobe Illustrator 25.0.0, SVG Export Plug-In . SVG Version: 6.00 Build 0)  -->
<svg version="1.1" id="Livello_1" xmlns="http://www.w3.org/2000/svg" xmlns:xlink="http://www.w3.org/1999/xlink" x="0px" y="0px"
	 viewBox="0 0 277.8 82.2" style="enable-background:new 0 0 277.8 82.2;" xml:space="preserve">
<style type="text/css">
	.st0{fill:#485C69;}
	.st1{fill:#00753F;}
</style>
<g>
	<g>
		<path class="st0" d="M21.42,28.04c2-1.55,3.41-3.15,4.23-4.81c0.82-1.65,1.24-3.8,1.24-6.44s-0.64-5.16-1.93-7.56
			c-1.29-2.4-2.98-4.21-5.07-5.43c-2.05-1.06-4.71-1.59-7.98-1.59H1.09V55.2h10.75c4.82,0,8.67-1.34,11.55-4.01
			c2.88-2.68,4.32-6.26,4.32-10.76c0.02-3.23-0.79-6.17-2.43-8.8C24.35,30.24,23.07,29.05,21.42,28.04z M11.7,10.53
			c2.94,0,4.42,2.25,4.42,6.74c0,4.49-1.47,6.9-4.42,7.24V10.53z M15.22,44.9c-0.82,1.17-1.99,1.78-3.52,1.83V33.05
			c3.16,0.15,4.74,2.46,4.74,6.94C16.45,42.09,16.04,43.73,15.22,44.9z"/>
		<polygon class="st0" points="45.47,32.38 56.58,32.38 56.58,23.51 45.47,23.51 45.47,10.91 57.29,10.91 57.29,2.21 34.96,2.21 
			34.96,55.2 57.92,55.2 57.92,46.5 45.47,46.5 		"/>
		<path class="st0" d="M72.71,12.22c2.25-3.83,9.93-1.54,12.77,0.69V3.96c-3.08-1.76-7.51-2.64-10.64-2.64
			c-4.08,0-7.41,1.45-9.97,4.34c-2.56,2.9-3.84,5.95-3.84,10.6c0,11.65,15.94,17.8,15.94,25c0,9.88-11.14,4.01-13.96,2.1v10.01
			c2.64,1.81,5.67,2.72,9.11,2.72c4.52,0,8.17-1.51,10.95-4.54c2.78-3.03,4.13-5.6,4.13-10.36c0-9.07-9.87-17.25-11.78-19.48
			C72.99,18.87,70.63,15.75,72.71,12.22z"/>
		<polygon class="st0" points="90.55,10.68 98.73,10.68 98.73,55.2 109.2,55.2 109.2,10.68 118.3,10.68 118.3,2.21 90.55,2.21 		"/>
		<path class="st0" d="M144.94,9.45c-3.34,5.94-4.68,11.63-4.68,19.26c0,7.63,0.27,15.66,4.72,20.87c4.45,5.21,10.91,7.88,21.6,4.68
			v-9.9c-1.55,0.52-8.56,3.56-12.17-1.24c-2.52-3.34-2.61-10.03-2.61-14.94c0-4.91,0.42-10.74,2.85-13.81
			c2.43-3.08,3.84-3.91,7.77-3.91c1.09,0,3.02,0.89,4.17,1.77V2.6c-1.96-0.65-3.79-0.84-5.47-0.93
			C154.64,1.32,149.01,2.21,144.94,9.45z"/>
		<path class="st0" d="M183.89,2.21L171.56,55.2h11.13l1.86-9.7h9.05l1.9,9.7h11.21L194.06,2.21H183.89z M186.66,36.9l2.44-14.01
			l2.71,14.01H186.66z"/>
		<path class="st0" d="M238.55,17.61c0-2.74-0.51-5.27-1.52-7.58c-1.01-2.31-2.52-4.19-4.52-5.64c-2-1.45-5.4-2.17-10.18-2.17
			h-10.36V55.2h11.17V39.26L230,55.2h11.26l-10.1-24.7C236.04,28.51,238.55,23.48,238.55,17.61z M226.68,21.86
			c-0.63,1.15-1.5,1.73-2.62,1.73c-0.11,0-0.42-0.05-0.92-0.14V10.68c1.45,0,2.37,0.16,2.76,0.48c1.15,0.89,1.72,2.87,1.72,5.95
			C227.62,19.12,227.31,20.7,226.68,21.86z"/>
		<path class="st0" d="M269.68,7.53c-1.96-1.96-4.06-3.34-6.32-4.13c-2.26-0.79-5.2-1.18-8.84-1.18h-8.57V55.2h9.97
			c6.72,0,11.86-2.24,15.44-6.71c3.57-4.47,5.36-11.29,5.36-20.44C276.71,18.89,274.36,12.05,269.68,7.53z M262.17,44.49
			c-1.29,1.81-3.44,2.36-5.72,2.36V10.17c2.75,0,5.28,2.08,6.03,3.22c2.3,3.43,2.84,8.62,2.84,15.58
			C265.33,35.92,264.51,41.34,262.17,44.49z"/>
	</g>
	<g>
		<g>
			<path class="st0" d="M141.64,73.52c0.39-0.07,0.93-0.12,1.65-0.12c0.79,0,1.36,0.16,1.73,0.46c0.35,0.27,0.58,0.72,0.58,1.24
				c0,0.53-0.17,0.97-0.5,1.27c-0.44,0.41-1.1,0.61-1.86,0.61c-0.2,0-0.38-0.01-0.53-0.04v2.12h-1.07V73.52z M142.71,76.12
				c0.14,0.04,0.31,0.05,0.53,0.05c0.81,0,1.3-0.38,1.3-1.03c0-0.62-0.46-0.95-1.2-0.95c-0.3,0-0.51,0.02-0.62,0.05V76.12z"/>
			<path class="st0" d="M150.33,76.99c0,1.49-1.1,2.16-2.19,2.16c-1.2,0-2.14-0.78-2.14-2.09c0-1.33,0.92-2.15,2.21-2.15
				C149.48,74.91,150.33,75.76,150.33,76.99z M147.11,77.03c0,0.78,0.41,1.37,1.06,1.37c0.61,0,1.04-0.57,1.04-1.39
				c0-0.63-0.3-1.36-1.03-1.36C147.42,75.65,147.11,76.36,147.11,77.03z"/>
			<path class="st0" d="M151.79,75l0.44,1.84c0.1,0.43,0.2,0.87,0.28,1.32h0.02c0.09-0.44,0.23-0.89,0.34-1.31l0.56-1.85h0.88
				l0.53,1.8c0.13,0.47,0.25,0.92,0.34,1.36h0.02c0.06-0.44,0.17-0.88,0.28-1.36l0.47-1.8h1.06l-1.34,4.05h-1l-0.51-1.65
				c-0.13-0.42-0.23-0.81-0.32-1.3h-0.02c-0.1,0.5-0.2,0.9-0.32,1.3l-0.54,1.65h-1.01L150.69,75H151.79z"/>
			<path class="st0" d="M158.35,77.31c0.03,0.73,0.62,1.05,1.31,1.05c0.5,0,0.85-0.07,1.18-0.18l0.16,0.7
				c-0.37,0.15-0.88,0.26-1.49,0.26c-1.38,0-2.2-0.81-2.2-2.05c0-1.12,0.72-2.18,2.08-2.18c1.38,0,1.84,1.08,1.84,1.97
				c0,0.19-0.02,0.34-0.04,0.43H158.35z M160.22,76.6c0.01-0.37-0.17-0.99-0.88-0.99c-0.67,0-0.95,0.57-0.99,0.99H160.22z"/>
			<path class="st0" d="M162.1,76.31c0-0.55-0.01-0.95-0.03-1.31h0.93l0.04,0.77h0.03c0.21-0.57,0.71-0.86,1.17-0.86
				c0.1,0,0.17,0.01,0.25,0.02v0.96c-0.1-0.02-0.19-0.02-0.32-0.02c-0.51,0-0.87,0.31-0.96,0.77c-0.02,0.09-0.03,0.2-0.03,0.31v2.11
				h-1.08V76.31z"/>
			<path class="st0" d="M165.9,77.31c0.03,0.73,0.62,1.05,1.31,1.05c0.5,0,0.85-0.07,1.18-0.18l0.16,0.7
				c-0.37,0.15-0.88,0.26-1.49,0.26c-1.38,0-2.2-0.81-2.2-2.05c0-1.12,0.72-2.18,2.08-2.18c1.38,0,1.84,1.08,1.84,1.97
				c0,0.19-0.02,0.34-0.04,0.43H165.9z M167.77,76.6c0.01-0.37-0.17-0.99-0.88-0.99c-0.67,0-0.95,0.57-0.99,0.99H167.77z"/>
			<path class="st0" d="M173.59,73.15v4.77c0,0.42,0.02,0.87,0.04,1.14h-0.95l-0.05-0.64h-0.02c-0.25,0.45-0.77,0.73-1.38,0.73
				c-1.02,0-1.83-0.82-1.83-2.07c-0.01-1.36,0.88-2.16,1.91-2.16c0.59,0,1.01,0.22,1.2,0.52h0.02v-2.29H173.59z M172.51,76.69
				c0-0.08-0.01-0.19-0.03-0.27c-0.1-0.39-0.44-0.72-0.93-0.72c-0.69,0-1.08,0.58-1.08,1.33c0,0.75,0.39,1.29,1.07,1.29
				c0.44,0,0.82-0.28,0.93-0.72c0.03-0.09,0.04-0.19,0.04-0.3V76.69z"/>
			<path class="st0" d="M176.55,73.15h1.08v2.41h0.02c0.26-0.39,0.73-0.65,1.37-0.65c1.04,0,1.79,0.82,1.78,2.06
				c0,1.46-0.97,2.18-1.93,2.18c-0.55,0-1.04-0.2-1.35-0.7h-0.02l-0.05,0.61h-0.92c0.02-0.27,0.03-0.72,0.03-1.14V73.15z
				 M177.63,77.38c0,0.08,0.01,0.17,0.03,0.24c0.11,0.42,0.49,0.72,0.95,0.72c0.67,0,1.09-0.51,1.09-1.33c0-0.72-0.36-1.3-1.08-1.3
				c-0.44,0-0.84,0.3-0.95,0.75c-0.02,0.07-0.04,0.17-0.04,0.27V77.38z"/>
			<path class="st0" d="M182.29,75l0.76,2.17c0.09,0.25,0.18,0.56,0.25,0.78h0.03c0.06-0.22,0.14-0.53,0.23-0.79l0.67-2.16h1.15
				l-1.07,2.76c-0.59,1.51-0.98,2.19-1.48,2.61c-0.43,0.35-0.87,0.48-1.13,0.52l-0.25-0.86c0.18-0.04,0.4-0.13,0.62-0.28
				c0.21-0.13,0.45-0.37,0.6-0.64c0.04-0.07,0.06-0.13,0.06-0.18c0-0.04-0.01-0.1-0.05-0.2L181.1,75H182.29z"/>
		</g>
		<g>
			<path class="st1" d="M206.02,71.36c1.51-0.64,2.47-1.76,2.82-3.36c0.2-0.91,0.16-1.84-0.07-2.75c-0.23-0.92-0.66-1.73-1.34-2.4
				c-1.15-1.12-2.58-1.57-4.14-1.6c-1.71-0.04-3.42-0.01-5.13-0.01c-0.59,0-0.83,0.24-0.83,0.83c0,5.44,0,10.88,0,16.33
				c0,0.07,0,0.14,0,0.21c0.04,0.45,0.4,0.72,0.81,0.62c0.31-0.08,0.46-0.3,0.46-0.71c0-1.7,0-3.4,0-5.1c0-0.27-0.01-0.53,0-0.8
				c0.02-0.46,0.26-0.69,0.72-0.69c0.87,0,1.75,0,2.62,0c0.28,0,0.5,0.11,0.67,0.33c0.41,0.53,0.82,1.05,1.23,1.58
				c1.32,1.71,2.65,3.42,3.97,5.14c0.23,0.3,0.6,0.35,0.87,0.13c0.26-0.2,0.28-0.57,0.06-0.87c-0.44-0.57-0.89-1.14-1.33-1.71
				c-1.08-1.39-2.16-2.79-3.24-4.18c-0.1-0.13-0.2-0.28-0.31-0.44c0.08-0.02,0.12-0.04,0.16-0.05
				C204.71,71.78,205.38,71.63,206.02,71.36z M202.73,70.76c-1.08-0.01-2.17,0-3.25,0c-0.09,0-0.18,0-0.27,0
				c-0.35-0.02-0.54-0.21-0.54-0.56c0-1.2,0-2.4,0-3.61c0,0,0,0,0,0c0-1.17,0-2.35,0-3.52c0-0.47,0.17-0.64,0.63-0.64
				c1.41,0,2.82-0.03,4.22,0.03c1.32,0.05,2.49,0.52,3.34,1.6c0.76,0.96,0.97,2.07,0.87,3.26c-0.07,0.73-0.29,1.4-0.76,1.98
				c-0.57,0.71-1.34,1.09-2.21,1.29C204.08,70.73,203.41,70.76,202.73,70.76z"/>
			<path class="st1" d="M229.64,65.43c-0.4-1.37-1.16-2.47-2.4-3.21c-1-0.6-2.1-0.83-3.24-0.86c-0.91-0.02-1.83-0.01-2.74-0.01
				c-0.94,0-1.89,0-2.83,0c-0.47,0-0.72,0.26-0.72,0.73c0,2.75,0,5.5,0,8.25c0,2.76,0.01,5.51-0.01,8.27c0,0.4,0.27,0.75,0.74,0.75
				c1.66-0.02,3.32,0,4.98-0.01c0.44,0,0.88-0.03,1.33-0.06c0.62-0.04,1.22-0.2,1.79-0.44c1.26-0.52,2.19-1.4,2.78-2.63
				c0.46-0.97,0.61-1.99,0.61-3.05c0.01-1.86,0.01-3.73,0-5.59C229.91,66.85,229.84,66.13,229.64,65.43z M228.67,73.42
				c0,0.85-0.17,1.66-0.56,2.42c-0.61,1.19-1.61,1.88-2.89,2.14c-0.55,0.11-1.13,0.15-1.7,0.16c-1.28,0.02-2.56,0.01-3.84,0.01
				c-0.58,0-0.72-0.14-0.72-0.73c0-2.36,0-4.73,0-7.09c0-2.36,0-4.73,0-7.09c0-0.56,0.17-0.73,0.73-0.73c1.34,0,2.67-0.01,4.01,0
				c0.9,0,1.78,0.13,2.6,0.55c1.09,0.57,1.8,1.46,2.12,2.63c0.14,0.54,0.24,1.1,0.25,1.66C228.69,69.39,228.68,71.41,228.67,73.42z"
				/>
			<path class="st1" d="M260.39,65.7c-0.22-0.86-0.61-1.63-1.2-2.29c-1.09-1.22-2.5-1.8-4.09-1.98c-0.73-0.08-1.46-0.06-2.19,0.04
				c-1.01,0.14-1.95,0.46-2.8,1.04c-1.54,1.05-2.34,2.54-2.43,4.38c-0.06,1.2-0.01,2.4-0.01,3.61c-0.01,0-0.02,0-0.02,0c0,1,0,2,0,3
				c0,0.76,0.08,1.5,0.35,2.21c0.74,1.9,2.18,3.01,4.1,3.52c1.12,0.3,2.26,0.32,3.41,0.14c1.24-0.2,2.36-0.67,3.3-1.52
				c1.11-1.01,1.73-2.29,1.76-3.79c0.05-2.21,0.02-4.43,0.02-6.65C260.6,66.82,260.53,66.26,260.39,65.7z M259.41,73.47
				c0,1.01-0.22,1.95-0.81,2.78c-0.62,0.87-1.47,1.43-2.48,1.73c-1.39,0.41-2.78,0.39-4.15-0.06c-1.95-0.65-3.08-2.25-3.1-4.35
				c-0.01-1.03,0-2.05,0-3.08c0.01,0,0.02,0,0.02,0c0-1.17-0.05-2.35,0.01-3.52c0.1-1.85,1.02-3.22,2.74-3.94
				c1.67-0.7,3.38-0.69,5.05,0.02c1.47,0.62,2.33,1.77,2.61,3.34c0.07,0.39,0.1,0.8,0.1,1.19
				C259.42,69.55,259.41,71.51,259.41,73.47z"/>
			<path class="st1" d="M274.98,73.12c-0.41-0.95-1.12-1.61-1.99-2.14c-0.97-0.59-2.07-0.8-3.15-1.07
				c-0.81-0.21-1.64-0.39-2.43-0.66c-1.01-0.35-1.89-0.92-2.52-1.83c-0.86-1.25-0.66-2.83,0.49-3.81c0.79-0.67,1.74-0.94,2.73-1.03
				c0.73-0.07,1.46-0.01,2.18,0.12c1.08,0.2,2.11,0.52,3.05,1.11c0.17,0.11,0.37,0.13,0.56,0.04c0.43-0.2,0.48-0.8,0.06-1.03
				c-0.55-0.3-1.12-0.59-1.71-0.81c-1.11-0.41-2.26-0.59-3.45-0.67c-0.45,0.04-0.91,0.05-1.36,0.12c-1.03,0.14-1.96,0.54-2.77,1.2
				c-1.5,1.23-2.02,3.4-0.9,5.22c0.69,1.12,1.7,1.83,2.88,2.34c1.11,0.48,2.3,0.67,3.46,0.96c0.78,0.19,1.56,0.37,2.27,0.75
				c1.35,0.73,1.94,1.93,1.63,3.39c-0.19,0.9-0.72,1.62-1.47,2.17c-0.63,0.46-1.35,0.69-2.12,0.82c-0.88,0.14-1.75,0.13-2.62-0.03
				c-1.39-0.26-2.62-0.87-3.63-1.88c-0.27-0.27-0.66-0.28-0.89-0.05c-0.25,0.25-0.23,0.59,0.05,0.88c0.58,0.59,1.23,1.07,1.97,1.44
				c0.98,0.49,2,0.79,3.1,0.88c1.2,0.1,2.38,0.03,3.51-0.4c1.8-0.69,2.99-1.92,3.29-3.87C275.35,74.54,275.28,73.81,274.98,73.12z"
				/>
			<path class="st1" d="M213.4,61.77c-0.05-0.24-0.28-0.41-0.52-0.42c-0.44-0.01-0.72,0.27-0.72,0.74c0,2.75,0,5.5,0,8.25
				c0,2.72,0,5.44,0,8.16c0,0.11,0,0.23,0.02,0.34c0.06,0.39,0.49,0.61,0.86,0.46c0.33-0.14,0.4-0.42,0.4-0.74
				c0-5.48,0-10.95,0-16.43C213.44,62.01,213.43,61.88,213.4,61.77z"/>
			<path class="st1" d="M193.8,61.82c-0.03-0.29-0.27-0.52-0.56-0.53c-0.4-0.01-0.65,0.25-0.65,0.68c0,2.77,0,5.54,0,8.31
				c0,2.75,0,5.5,0,8.25c0,0.07-0.01,0.14,0,0.21c0.02,0.22,0.12,0.41,0.34,0.49c0.21,0.08,0.41,0.07,0.6-0.06
				c0.2-0.14,0.28-0.33,0.28-0.58c0-5.54,0-11.08,0-16.62C193.81,61.92,193.81,61.87,193.8,61.82z"/>
			<path class="st1" d="M242.38,69.14c-0.16,0.02-0.38,0.04-0.61,0.06c-0.39,0.04-0.78,0.08-1.17,0.13
				c-0.63,0.08-1.27,0.16-1.9,0.24c-0.57,0.07-1.14,0.12-1.71,0.19c-0.77,0.09-1.54,0.19-2.32,0.28c-0.54,0.06-1.07,0.12-1.61,0.18
				c-0.13,0.02-0.22,0.09-0.21,0.24c0,0.14,0.08,0.19,0.21,0.2c0.43,0.04,0.87,0.08,1.3,0.13c0.73,0.08,1.46,0.16,2.2,0.23
				c0.68,0.07,1.36,0.13,2.03,0.19c0.53,0.05,1.06,0.11,1.59,0.16c0.49,0.05,0.98,0.11,1.47,0.14c0.41,0.03,0.83,0.06,1.24,0.04
				c0.48-0.03,0.82-0.32,0.96-0.76c0.15-0.47,0.09-0.92-0.29-1.28C243.24,69.21,242.86,69.15,242.38,69.14z"/>
			<path class="st1" d="M233.07,64c0.06,0.03,0.14,0.01,0.21,0.01c1.53,0,3.07,0,4.6,0c0,0,0,0,0,0c1.48,0,2.97,0.01,4.45,0
				c0.27,0,0.55-0.03,0.81-0.12c0.21-0.07,0.45-0.21,0.57-0.39c0.43-0.62,0.15-1.48-0.54-1.78c-0.45-0.2-0.91-0.12-1.37-0.03
				c-0.63,0.12-1.25,0.26-1.87,0.39c-0.87,0.18-1.74,0.36-2.61,0.54c-1.19,0.26-2.38,0.52-3.57,0.78c-0.25,0.05-0.5,0.1-0.73,0.18
				c-0.07,0.02-0.14,0.16-0.14,0.24C232.88,63.88,232.99,63.96,233.07,64z"/>
			<path class="st1" d="M243.24,77.17c-0.35-0.19-0.74-0.22-1.12-0.22c-1.46,0-2.93,0-4.39,0c-1.48,0-2.97,0-4.45,0
				c-0.08,0-0.16-0.02-0.23,0.01c-0.08,0.04-0.15,0.11-0.23,0.17c0.07,0.08,0.13,0.2,0.21,0.22c0.36,0.1,0.72,0.17,1.08,0.25
				c0.76,0.17,1.52,0.34,2.27,0.51c0.75,0.17,1.5,0.34,2.25,0.51c0.79,0.17,1.59,0.34,2.38,0.51c0.57,0.13,1.14,0.25,1.73,0.21
				c0.52-0.03,1.01-0.43,1.1-0.97C243.92,77.87,243.82,77.48,243.24,77.17z"/>
		</g>
	</g>
</g>
</svg>
