<?xml version="1.0" encoding="UTF-8"?>
<!DOCTYPE svg PUBLIC "-//W3C//DTD SVG 1.1//EN" "http://www.w3.org/Graphics/SVG/1.1/DTD/svg11.dtd">
<!-- Creator: CorelDRAW 2017 -->
<svg xmlns="http://www.w3.org/2000/svg" xml:space="preserve" width="120.945mm" height="66.1284mm" version="1.1" style="shape-rendering:geometricPrecision; text-rendering:geometricPrecision; image-rendering:optimizeQuality; fill-rule:evenodd; clip-rule:evenodd"
viewBox="0 0 10847 5931"
 xmlns:xlink="http://www.w3.org/1999/xlink">
 <defs>
  <style type="text/css">
   <![CDATA[
    .str0 {stroke:#2B2A29;stroke-width:17.9368}
    .fil2 {fill:#FEFEFE}
    .fil1 {fill:black}
    .fil0 {fill:#DC6831}
   ]]>
  </style>
 </defs>
 <g id="Livello_x0020_1">
  <metadata id="CorelCorpID_0Corel-Layer"/>
  <g id="_2571181658416">
   <path class="fil0" d="M769 0l-769 4603c0,0 721,721 2234,301 -32,-44 -61,-92 -85,-142 -141,-293 -142,-690 122,-1091 370,-564 925,-667 1353,-645 115,-939 -101,-1897 -1683,-1236l285 -1775 -1457 -14zm2202 4473c170,-157 340,-368 460,-642 10,-48 18,-88 24,-121 -135,-1 -360,55 -491,402 -65,172 -48,294 7,361zm-1400 -463l233 -1319c0,0 24,-394 285,-351 261,43 47,607 47,607l-346 1054 -218 9z"/>
   <path class="fil1" d="M4200 3275c0,0 -1201,-470 -1818,470 -617,940 384,1822 1001,1087 0,0 5,982 -1092,574l-128 394c0,0 399,199 933,107 534,-93 721,-550 769,-835 47,-285 335,-1796 335,-1796zm-593 323c0,0 -527,-171 -769,467 -242,638 460,831 610,266 149,-565 159,-733 159,-733z"/>
   <path class="fil1 str0" d="M6084 3275c0,0 -1201,-470 -1818,470 -617,940 384,1822 1001,1087 0,0 1,135 -55,285l528 0c3,-15 6,-30 8,-45 47,-285 335,-1796 335,-1796zm-603 323c0,0 -527,-171 -769,467 -242,638 460,831 610,266 149,-565 159,-733 159,-733z"/>
   <path class="fil1 str0" d="M6264 3184l-332 1913 551 5c0,0 133,-1239 446,-1443 313,-204 394,66 323,460 -71,394 -185,992 -185,992l536 5 223 -1111c0,0 119,-384 380,-408 261,-24 180,361 133,660 -47,299 -147,854 -147,854l560 9 228 -1395c0,0 57,-546 -389,-584 -446,-38 -750,384 -750,384 0,0 -19,-470 -536,-394 -517,76 -569,356 -569,356l24 -299 -494 -5z"/>
   <path class="fil1 str0" d="M9549 4364c0,0 71,603 971,237l1 428c0,0 -638,331 -1241,-34 -603,-365 -183,-1910 904,-1848 1087,62 783,1433 -635,1217z"/>
   <path class="fil2" d="M9597 3951c0,0 55,-240 301,-361 247,-121 370,45 370,147 0,102 0,225 -672,214z"/>
  </g>
 </g>
</svg>
