<?xml version="1.0" encoding="utf-8"?>
<!-- Generator: Adobe Illustrator 22.0.0, SVG Export Plug-In . SVG Version: 6.00 Build 0)  -->
<svg version="1.1" id="Capa_1" xmlns="http://www.w3.org/2000/svg" xmlns:xlink="http://www.w3.org/1999/xlink" x="0px" y="0px"
	 viewBox="0 0 235 55" style="enable-background:new 0 0 235 55;" xml:space="preserve">
<style type="text/css">
	.st0{fill:#222;}
	.st1{fill:#FF9300;}
</style>
<g>
	<g>
		<path class="st0" d="M74.3,25.1c1.9-1.8,4.3-2.7,7.2-2.7c2.9,0,5.3,1,7.1,3c2.1,2.2,3.1,5.2,3.1,9.1c0,4.2-1.2,7.6-3.7,10.2
			c-2.5,2.6-5.7,3.9-9.7,3.9c-3.3,0-6.5-0.5-9.5-1.4c-0.7-0.2-1.2-0.4-1.4-0.5V10.9h7v9.9L74.3,25.1z M79.4,27.6
			c-1.9,0-3.6,0.5-4.8,1.6v13.5c0.6,0.6,1.9,0.9,4,0.9c1.7,0,3.1-0.8,4.2-2.3c1.1-1.6,1.7-3.8,1.7-6.6c0-3.8-1-6-2.9-6.8
			C80.8,27.7,80.1,27.6,79.4,27.6z"/>
		<path class="st0" d="M100.2,19c-0.6,0-1.1-0.1-1.6-0.3c-0.5-0.2-0.9-0.5-1.3-0.8c-0.8-0.7-1.2-1.7-1.2-2.8c0-1.1,0.5-2.1,1.4-3
			c0.9-0.8,1.9-1.2,3.1-1.2c1.2,0,2.2,0.4,3,1.1c0.7,0.7,1.1,1.6,1.1,2.7c0,1.2-0.4,2.2-1.3,3C102.4,18.6,101.4,19,100.2,19z
			 M96.7,22.3h7v26.1h-7V22.3z"/>
		<path class="st0" d="M111.3,27.2h-3.1v-3.8c1.4-0.4,2.3-0.7,2.7-0.9c0.7-0.4,1.2-0.8,1.4-1.4c0.5-1.3,1.1-2.8,1.7-4.6h4.3v5.8h7
			v4.9h-7v10.3c0,2.4,0.2,4,0.7,4.7c0.2,0.4,0.5,0.6,0.9,0.7c0.4,0.1,0.8,0.1,1.2,0.1c0.4,0,0.8,0,1.2-0.1c0.4-0.1,0.8-0.1,1.1-0.2
			c0.8-0.2,1.4-0.5,1.8-0.7l0.9,4c-1.2,1.1-3,1.8-5.2,2.2c-0.8,0.2-1.8,0.2-2.8,0.2s-2.1-0.1-3-0.4c-0.9-0.3-1.6-0.8-2.2-1.4
			c-1.1-1.2-1.6-3.3-1.6-6.2V27.2z"/>
		<path class="st0" d="M129.8,22.3h6.4l0.1,3c1.7-1.2,3.7-2.1,6-2.7c0.9-0.2,1.9-0.3,3-0.3c1.1,0,2.1,0.2,3,0.5
			c0.9,0.3,1.8,0.9,2.4,1.6c1.3,1.6,2,4.2,2,7.9v16.1h-7V33.9c0-2.1-0.3-3.6-0.8-4.4c-0.5-0.8-1.5-1.2-2.8-1.2
			c-1.3,0-2.6,0.4-3.9,1.2c-0.5,0.3-0.9,0.6-1.3,1v18h-7V22.3z"/>
		<path class="st0" d="M159,44.4c-1-1.2-1.7-2.7-2.1-4.3c-0.4-1.6-0.6-3.3-0.6-5.3c0-1.9,0.3-3.7,1-5.3c0.7-1.6,1.6-2.9,2.7-4
			c2.3-2.1,5.3-3.2,9.1-3.2c4.3,0,7.5,1.4,9.6,4.1c1.8,2.3,2.7,5.4,2.7,9.1c0,4.2-1.2,7.4-3.7,9.7c-2.3,2.1-5.3,3.2-9.1,3.2
			C164.3,48.4,161.1,47.1,159,44.4z M168.9,27.4c-3.5,0-5.3,2.6-5.3,7.7c0,3.8,0.9,6.4,2.8,7.7c0.7,0.5,1.5,0.7,2.5,0.7
			c3.5,0,5.2-2.6,5.2-7.9c0-3.7-0.9-6.2-2.8-7.5C170.6,27.6,169.8,27.4,168.9,27.4z"/>
		<path class="st0" d="M181.5,22.3h7.6l3.9,12.6l1.6,6.3l1.6-6.3l3.9-12.6h7.4l-9.8,26.1h-6.5L181.5,22.3z"/>
		<path class="st0" d="M210.6,44.4c-1-1.2-1.7-2.7-2.1-4.3c-0.4-1.6-0.6-3.3-0.6-5.3c0-1.9,0.3-3.7,1-5.3c0.7-1.6,1.6-2.9,2.7-4
			c2.3-2.1,5.3-3.2,9.1-3.2c4.3,0,7.5,1.4,9.6,4.1c1.8,2.3,2.7,5.4,2.7,9.1c0,4.2-1.2,7.4-3.7,9.7c-2.3,2.1-5.3,3.2-9.1,3.2
			C215.9,48.4,212.7,47.1,210.6,44.4z M220.5,27.4c-3.5,0-5.3,2.6-5.3,7.7c0,3.8,0.9,6.4,2.8,7.7c0.7,0.5,1.5,0.7,2.5,0.7
			c3.5,0,5.2-2.6,5.2-7.9c0-3.7-0.9-6.2-2.8-7.5C222.2,27.6,221.4,27.4,220.5,27.4z"/>
	</g>
	<g>
		<path class="st1" d="M50.6,34.1c-3.3,13.4-16.9,21.6-30.4,18.2C6.8,49-1.3,35.4,2,22C5.3,8.6,18.9,0.4,32.4,3.7
			C45.8,7.1,53.9,20.7,50.6,34.1L50.6,34.1z"/>
		<path class="st0" d="M37.3,24.5c0.5-3.3-2-5.1-5.5-6.3l1.1-4.5L30.2,13l-1.1,4.4c-0.7-0.2-1.5-0.3-2.2-0.5l1.1-4.4l-2.7-0.7
			l-1.1,4.5c-0.6-0.1-1.2-0.3-1.8-0.4v0l-3.8-0.9l-0.7,2.9c0,0,2,0.5,2,0.5c1.1,0.3,1.3,1,1.3,1.6L19.9,25c0.1,0,0.2,0,0.3,0.1
			c-0.1,0-0.2,0-0.3-0.1l-1.8,7.2c-0.1,0.3-0.5,0.8-1.3,0.7c0,0-2-0.5-2-0.5l-1.4,3.1l3.6,0.9c0.7,0.2,1.3,0.3,2,0.5l-1.1,4.6
			l2.7,0.7l1.1-4.5c0.8,0.2,1.5,0.4,2.2,0.6l-1.1,4.5l2.7,0.7l1.1-4.6c4.7,0.9,8.2,0.5,9.7-3.7c1.2-3.4-0.1-5.4-2.5-6.7
			C35.6,28.1,37,26.9,37.3,24.5L37.3,24.5z M31.1,33.3c-0.8,3.4-6.6,1.6-8.5,1.1l1.5-6.1C26,28.8,32,29.7,31.1,33.3L31.1,33.3z
			 M31.9,24.4c-0.8,3.1-5.6,1.5-7.1,1.1l1.4-5.5C27.7,20.5,32.7,21.2,31.9,24.4z"/>
	</g>
</g>
</svg>
