<svg xmlns="http://www.w3.org/2000/svg" width="49.182" height="31.146" viewBox="0 0 49.182 31.146">
  <g id="Group_1746" data-name="Group 1746" transform="translate(0 0)">
    <path id="Path_139" data-name="Path 139" d="M7.738,24.476h2.857l6.972-9.759A4.106,4.106,0,0,1,20.9,13H41.408a5.738,5.738,0,0,1,5.257,3.438l3.349,7.655a13.846,13.846,0,0,1,1.168,5.585v7.093a2.459,2.459,0,0,1-2.459,2.459H46.2a5.731,5.731,0,0,1-11.345,0H18.329a5.731,5.731,0,0,1-11.345,0H4.459A2.459,2.459,0,0,1,2,36.771V30.214a5.744,5.744,0,0,1,5.738-5.738Zm-4.1,5.738v.82H6.918V29.394h-3.2a4.1,4.1,0,0,0-.082.82Zm19.673-12.3H17.294l-4.685,6.558h10.7Zm1.639,6.558H43.625l-1.312-6.558H24.952Zm24.591,12.3v-.82H47.084V34.312h2.459V29.679a12.233,12.233,0,0,0-1.03-4.929L45.163,17.1a4.1,4.1,0,0,0-3.755-2.459H20.9a2.463,2.463,0,0,0-2,1.03l-.436.61H42.313A1.639,1.639,0,0,1,43.921,17.6l1.312,6.558a1.639,1.639,0,0,1-1.607,1.962H24.952V37.591h9.9a5.731,5.731,0,0,1,11.345,0h2.525a.82.82,0,0,0,.82-.82Zm-9.017,5.738a4.1,4.1,0,1,0-4.1-4.1,4.1,4.1,0,0,0,4.1,4.1Zm-27.87,0a4.1,4.1,0,1,0-4.1-4.1,4.1,4.1,0,0,0,4.1,4.1Zm-8.2-4.918H6.984a5.731,5.731,0,0,1,11.345,0h4.984V26.115H7.738A4.08,4.08,0,0,0,4.48,27.755H6.918a1.639,1.639,0,0,1,1.639,1.639v1.639a1.639,1.639,0,0,1-1.639,1.639H3.639v1.639H6.1v1.639H3.639v.82A.82.82,0,0,0,4.459,37.591Z" transform="translate(-2 -13)"/>
    <path id="Path_140" data-name="Path 140" d="M41.279,31H38v1.639h3.279Z" transform="translate(-21.606 -16.245)"/>
    <path id="Path_141" data-name="Path 141" d="M15.279,31H12v1.639h3.279Z" transform="translate(25.707 -16.245)"/>
    <path id="Path_142" data-name="Path 142" d="M15.639,43H14v1.639h1.639Z" transform="translate(23.707 -18.409)"/>
    <path id="Path_143" data-name="Path 143" d="M49.639,43H48v1.639h1.639Z" transform="translate(-38.164 -18.409)"/>
  </g>
</svg>
