<svg xmlns="http://www.w3.org/2000/svg" width="60" height="37.997" viewBox="0 0 60 37.997">
  <g id="Group_1763" data-name="Group 1763" transform="translate(0 0)">
    <path id="Path_139" data-name="Path 139" d="M9,27h3.485l8.5-11.906A5.009,5.009,0,0,1,25.059,13H50.076a7,7,0,0,1,6.413,4.194l4.086,9.339A16.891,16.891,0,0,1,62,33.347V42a3,3,0,0,1-3,3H55.92a6.991,6.991,0,0,1-13.84,0H21.92A6.991,6.991,0,0,1,8.08,45H5a3,3,0,0,1-3-3V34a7.008,7.008,0,0,1,7-7ZM4,34v1H8V33H4.1A5,5,0,0,0,4,34ZM28,19H20.658l-5.715,8H28Zm2,8H52.78l-1.6-8H30ZM60,42V41H57V39h3V33.347a14.924,14.924,0,0,0-1.257-6.013L54.657,18a5,5,0,0,0-4.581-3H25.059a3,3,0,0,0-2.441,1.256L22.086,17H51.18a2,2,0,0,1,1.961,1.607l1.6,8A2,2,0,0,1,52.78,29H30V43H42.08a6.991,6.991,0,0,1,13.84,0H59a1,1,0,0,0,1-1ZM49,49a5,5,0,1,0-5-5,5,5,0,0,0,5,5ZM15,49a5,5,0,1,0-5-5,5,5,0,0,0,5,5ZM5,43H8.08a6.991,6.991,0,0,1,13.84,0H28V29H9a4.977,4.977,0,0,0-3.974,2H8a2,2,0,0,1,2,2v2a2,2,0,0,1-2,2H4v2H7v2H4v1A1,1,0,0,0,5,43Z" transform="translate(-2 -13)"/>
    <path id="Path_140" data-name="Path 140" d="M42,31H38v2h4Z" transform="translate(-18 -13)"/>
    <path id="Path_141" data-name="Path 141" d="M16,31H12v2h4Z" transform="translate(34 -13)"/>
    <path id="Path_142" data-name="Path 142" d="M16,43H14v2h2Z" transform="translate(32 -13)"/>
    <path id="Path_143" data-name="Path 143" d="M50,43H48v2h2Z" transform="translate(-36 -13)"/>
  </g>
</svg>
