<svg xmlns="http://www.w3.org/2000/svg" viewBox="0 0 160 160"><defs><style>.cls-1{fill:none;}.cls-2{fill:#002856;fill-rule:evenodd;}</style></defs><g id="Layer_2" data-name="Layer 2"><g id="Layer_1-2" data-name="Layer 1"><rect class="cls-1" width="160" height="160"/><path class="cls-2" d="M126.23,74.86c0,.71,0,1.41-.11,2.11s0,1.34-.11,2c0,.27,0,.54,0,.81,0,.75,0,1.5-.07,2.25,0,1.09-.09,2.17-.14,3.26,0,.83,0,1.67-.07,2.5s0,2-.08,2.95,0,1.88-.07,2.81c0,.54,0,1.08,0,1.62,0,.13,0,.2-.18.19a1.7,1.7,0,0,0-.39,0A1,1,0,0,1,124,95c-.94-1-1.89-2.09-2.84-3.12s-1.76-2-2.66-2.91c-.63-.69-1.29-1.36-1.93-2Q114.81,85,113,83.12c-.18-.18-.34-.39-.54-.56-.08,0-.06.09-.06.15,0,1.47-.06,3,0,4.43s0,3.27,0,4.9c0,.7,0,1.4,0,2.11,0,.22,0,.44,0,.66s0,.26-.27.24-.77,0-1.16-.07L109,94.84l-.56,0a.11.11,0,0,1-.11-.14c0-.22,0-.44,0-.66.07-.82.1-1.64.14-2.46s.1-1.84.15-2.77.09-1.84.14-2.77.09-2,.14-3,.09-1.8.14-2.7.09-1.94.15-2.91c0-.64,0-1.29.1-1.93,0-.17,0-.25.23-.24a2.88,2.88,0,0,0,.59-.06.46.46,0,0,1,.44.16c1.13,1.19,2.29,2.36,3.44,3.53,1,1,2,2,2.93,3s2.19,2.32,3.28,3.49c.64.68,1.27,1.38,1.9,2.07a.11.11,0,0,0,.14,0c0-.08,0-.17,0-.26q0-3.13,0-6.27c0-.78,0-1.56,0-2.33.06-1.14,0-2.27.07-3.41,0-.24,0-.24.25-.25l2.85-.1a3.41,3.41,0,0,1,.72,0"/><path class="cls-2" d="M70,92.94l-3,2.68c-2.6-3.22-5.15-6.48-7.57-9.87l1.21-.63a7.61,7.61,0,0,0,1.83-1.25,3,3,0,0,0,1-1.85,1.44,1.44,0,0,0-.65-1.45,5.15,5.15,0,0,0-1.71-.72c-.5-.13-1-.19-1.52-.28-.14,0-.22,0-.21.18a2.08,2.08,0,0,1,0,.25v6.55c0,1.41,0,2.82,0,4.23,0,1,0,1.9.06,2.85,0,.26.06.53.09.8,0,.12,0,.25,0,.39H55.55c0-.11,0-.23,0-.34a10.39,10.39,0,0,0,.09-1.58c.09-3.28.05-6.57,0-9.86,0-1.63,0-3.26-.07-4.89a7.68,7.68,0,0,0-.17-1.85c-.07-.27,0-.31.26-.29l2.1.17a33.6,33.6,0,0,1,4,.49A10.23,10.23,0,0,1,65.36,78a4.6,4.6,0,0,1,1.92,2.19,3.7,3.7,0,0,1,.24,1.44,5.56,5.56,0,0,1-2.26,4.19c-.23.2-.48.37-.73.55s-.21.15,0,.34c.67.8,1.33,1.61,2,2.4.86,1,1.74,2,2.62,2.94.29.32.61.61.93.94"/><path class="cls-2" d="M135,82.68c1-.08,2.08-.2,3.12-.34.56-.07,1.11-.17,1.67-.25.25,0,.26,0,.26.23,0,.88.05,1.75.08,2.63,0,.27.06.54,0,.81s-.06.2-.21.2l-.81,0-3.8.07h-.14c-.25,0-.26,0-.26.31v4.68c0,.25,0,.25.26.25,1.12,0,2.25,0,3.37-.06.75,0,1.5-.08,2.24-.14.3,0,.32,0,.33.29,0,1.12.11,2.24.09,3.37,0,.29,0,.3-.28.29-1.12,0-2.23,0-3.34-.08-.67,0-1.34,0-2-.06s-1.48,0-2.22-.08-1.38,0-2.07-.06c-.26,0-.28,0-.26-.28.06-1,.06-2,.09-3.06v-.31c0-3.35,0-6.7,0-10.05,0-1.34,0-2.7,0-4,0-.79,0-1.57-.05-2.36,0-.31,0-.31.3-.35a52.29,52.29,0,0,0,5.43-1c1.28-.31,2.55-.84,3.72-1.15.17,0,.23,0,.24.18,0,.73,0,2.09.06,2.83,0,.39.05.77.07,1.16s0,.26-.26.29c-1.06.09-2.12.21-3.17.34-.72.09-1.44.16-2.16.24-.35,0-.35,0-.35.37V82.4a.4.4,0,0,0,0,.28"/><path class="cls-2" d="M52.14,83.34a10,10,0,0,0-1.51-4.49,9.12,9.12,0,0,0-4-3.47,10.65,10.65,0,0,0-5.48-.92,8.39,8.39,0,0,0-5.61,2.68A10,10,0,0,0,33.37,81a13.07,13.07,0,0,0-.65,4.4,10.35,10.35,0,0,0,.23,2.5,9.64,9.64,0,0,0,2.27,4.61,8.3,8.3,0,0,0,5.66,2.71,12.29,12.29,0,0,0,2.35,0,10.26,10.26,0,0,0,3.17-.89,9.39,9.39,0,0,0,4.3-4.06,11.32,11.32,0,0,0,1.44-6.86m-4.6,4.87a5.77,5.77,0,0,1-4.86,3.55,5.06,5.06,0,0,1-3.51-.85,5.22,5.22,0,0,1-1.78-2.17,8.13,8.13,0,0,1-.79-3.56A9.76,9.76,0,0,1,37.4,81a5.12,5.12,0,0,1,3-2.91,5.47,5.47,0,0,1,1.44-.27,5.78,5.78,0,0,1,2.7.43,5.71,5.71,0,0,1,3.3,3.53A8.1,8.1,0,0,1,48.26,84a8.48,8.48,0,0,1-.72,4.17"/><path class="cls-2" d="M30.31,85.69a5.71,5.71,0,0,0-2.38-2.6l-.37-.22.12-.11a6.16,6.16,0,0,0,1.44-1.53,4.71,4.71,0,0,0-1.32-6.57,9.51,9.51,0,0,0-3.37-1.44A40.85,40.85,0,0,0,19,72.07c-.22,0-.25,0-.25.22a1.27,1.27,0,0,0,0,.28,17.14,17.14,0,0,1,.1,2C19,76,19,77.41,19,78.82c0,2.23,0,4.46,0,6.69s0,4.55,0,6.83c0,.5,0,1,0,1.51a4.64,4.64,0,0,0-.05,1,4.55,4.55,0,0,0,1,.08l1,0a15.51,15.51,0,0,0,2.72-.3,11.37,11.37,0,0,0,3.73-1.39A7.31,7.31,0,0,0,30,90.46a5.75,5.75,0,0,0,.73-2.82,4.81,4.81,0,0,0-.38-2m-7.63-9.43a6.69,6.69,0,0,1,2.41.78,2.07,2.07,0,0,1,.45,3.26,4.3,4.3,0,0,1-2.7,1.37c-.2,0-.19-.08-.19-.22v-5a.44.44,0,0,1,0-.22m3.7,12.94a3.42,3.42,0,0,1-1.51,1.33,7.64,7.64,0,0,1-2,.65c-.18,0-.19-.05-.19-.19V85.25c0-.29,0-.3.26-.28a6.14,6.14,0,0,1,2.73.81,2.12,2.12,0,0,1,1.09,1.48,3,3,0,0,1-.35,1.94"/><path class="cls-2" d="M105.72,84.11a9.15,9.15,0,0,0-.67-2.82,7.25,7.25,0,0,0-2.9-3.43,8.86,8.86,0,0,0-4.51-1.28,12.33,12.33,0,0,0-3.58.38,10.06,10.06,0,0,0-5.49,3.36,9.93,9.93,0,0,0-2.19,8.15,7.71,7.71,0,0,0,2,4,8.11,8.11,0,0,0,4,2.41,11.09,11.09,0,0,0,3.72.36,13.3,13.3,0,0,0,2.18-.3,9.12,9.12,0,0,0,5-3,10.7,10.7,0,0,0,2.5-6.85c0-.31,0-.61,0-.92m-3.89,1a7.61,7.61,0,0,1-.91,3.89,5.82,5.82,0,0,1-4.79,3,5.62,5.62,0,0,1-3.43-.68,4.79,4.79,0,0,1-2.27-2.93A6.9,6.9,0,0,1,91.65,82a5.78,5.78,0,0,1,3.66-2.11,6.63,6.63,0,0,1,1.54-.13,4.79,4.79,0,0,1,4.89,4.29,5.67,5.67,0,0,1,.09,1.05"/><path class="cls-2" d="M83.9,87.39a4.53,4.53,0,0,0-1.8-1.88c-.24-.15-.49-.27-.75-.41a.35.35,0,0,1,.18-.18,5.08,5.08,0,0,0,1.66-2,3.29,3.29,0,0,0-.66-3.67,5.43,5.43,0,0,0-2.11-1.29,16.48,16.48,0,0,0-4.67-.77l-2-.1c-.4,0-.8,0-1.19,0-.24,0-.27,0-.23.26s.08.49.11.73c0,.66,0,1.31.06,2s0,1.55,0,2.33q0,3.92,0,7.85c0,.53,0,1.06,0,1.58,0,1,0,2-.1,3,0,.16,0,.24.2.24.89,0,1.78,0,2.67-.07A19.42,19.42,0,0,0,78,94.56a10.67,10.67,0,0,0,4-1.66,5.69,5.69,0,0,0,1.81-2.06,4.17,4.17,0,0,0,.46-1.79,3.47,3.47,0,0,0-.32-1.66m-7.73-7.13a.29.29,0,0,1,0-.1,7.81,7.81,0,0,1,1.8.25,3,3,0,0,1,1.29.61,1.07,1.07,0,0,1,.26,1.37,2.43,2.43,0,0,1-1,1,5.4,5.4,0,0,1-2.17.78c-.22,0-.25,0-.25-.21v-3.7m4.11,9.07a2.06,2.06,0,0,1-.76,1.26,5.44,5.44,0,0,1-2.09,1c-.34.09-.69.15-1,.21-.16,0-.23,0-.23-.2,0-.7,0-1.41,0-2.11V87.36c0-.27,0-.28.27-.27a7.54,7.54,0,0,1,2.7.52,2.71,2.71,0,0,1,.76.5,1.23,1.23,0,0,1,.38,1.22"/><path class="cls-2" d="M89.4,71.68v2.45c0,.11,0,.15.15.14h1.9l.74,0c.16,0,.2.08.2.22s0,.51,0,.78a.43.43,0,0,1-.28,0l-3.77-.09c-.14,0-.19,0-.19-.2,0-2.36,0-4.72,0-7.08,0-.17-.09-.38,0-.51s.31,0,.47,0l1.64-.1L92,67.14c.15,0,.21,0,.2.18s.06.37.06.56,0,.25-.24.25c-.4,0-.8,0-1.2,0s-.81.06-1.22.06c-.12,0-.17,0-.17.16v2.29c0,.13,0,.18.18.17.46,0,.92,0,1.37,0a5.37,5.37,0,0,0,.7,0c.12,0,.15,0,.18.16a2.56,2.56,0,0,1,0,.73c0,.1,0,.12-.13.11-.76,0-1.53,0-2.33,0"/><path class="cls-2" d="M65.06,74.21a6.43,6.43,0,0,1,.14.92c0,.1,0,.12-.11.13-.26,0-.51.06-.77.07a9.36,9.36,0,0,1-2.69-.22,4.74,4.74,0,0,1-1.85-.89,2.88,2.88,0,0,1-.69-3.92A5.77,5.77,0,0,1,61.69,68a9.32,9.32,0,0,1,2.54-.82c.28,0,.28-.06.34.23s.06.37.1.55,0,.23-.19.25a7.64,7.64,0,0,0-1.63.41A5.5,5.5,0,0,0,60.72,70a2.71,2.71,0,0,0-.82,1.78,2,2,0,0,0,.82,1.78,4.06,4.06,0,0,0,2,.76,6.52,6.52,0,0,0,2.33-.06"/><path class="cls-2" d="M86,70.77a7,7,0,0,0,.06.83.1.1,0,0,1-.11.14h-.25l-2,0c-.29,0-.29,0-.29.3v2.6a2.29,2.29,0,0,0,0,.25c0,.3,0,.3-.24.3h-.88c-.16,0-.21-.06-.2-.22.14-1.7.1-3.42.09-5.13,0-.78,0-1.57-.05-2.35,0-.12.05-.14.14-.14l.77,0c1,0,2-.08,3-.14.11,0,.16,0,.16.13s0,.23,0,.35c0,.54,0,.54-.55.54l-2,0c-.18,0-.25.05-.24.24v2.18c0,.19.08.24.25.23l1.54,0,.8,0"/><path class="cls-2" d="M80,70.78a6.56,6.56,0,0,0,.07.9c-.09.09-.19.06-.28.06l-2,0c-.34,0-.34,0-.34.32v2.71c0,.13.12.27,0,.37s-.29,0-.44,0-.42,0-.63,0-.26,0-.24-.23c.13-1.71.09-3.42.08-5.13,0-.68,0-1.37,0-2,0-.13-.14-.29,0-.39s.27,0,.41,0l2.91-.14H80c.25,0,.25,0,.26.22l0,.52c0,.22,0,.25-.23.26s-.52,0-.78,0l-1.58,0c-.16,0-.24,0-.23.21v2.22c0,.18.07.22.23.22.51,0,1,0,1.54-.05l.82,0"/><path class="cls-2" d="M89.3,64.38l1.14,1a4.83,4.83,0,0,0,.42.37c.18.11.13.2,0,.34s-.19.29-.49.13l-1.56-.79c-.14-.07-.18-.13-.08-.26s.31-.52.53-.78"/><path class="cls-2" d="M74.94,74.52l-.79-1.33-3.41-5.77a1.52,1.52,0,0,0-.35-.5l-4.3,7.88,1.06.61,0-.09c.37-.77.73-1.54,1.09-2.32.09-.18.18-.29.41-.28a6,6,0,0,0,1,0c.81-.08,1.62,0,2.42-.12a.45.45,0,0,1,.49.28c.45.84.92,1.66,1.4,2.53l.89-.53c.22-.13.22-.14.09-.34m-6-2.67a19.52,19.52,0,0,1,1.44-2.92c.51.92,1,1.84,1.54,2.79l-3,.13"/><path class="cls-2" d="M106,76.06l-.63-.66h0l-.07-.07a.24.24,0,0,0-.08-.06.11.11,0,0,0-.09-.07l-.82-.56-.07,0a.26.26,0,0,0-.09,0l-.29-.11c-.19-.07-.23,0-.24.15s0,.42,0,.63a.35.35,0,0,0,.22.39,3.76,3.76,0,0,1,.77.53,4.34,4.34,0,0,1,.91.74l.07.06h0l.07.06h0c.11,0,.15.18.29.18h0a.32.32,0,0,0-.11-.45l-.31-.24-.19-.16a.08.08,0,0,1,0-.12.08.08,0,0,1,.12,0c.12.09.22.18.34.26s.16.18.27.11.06-.22.07-.33-.09-.17-.15-.23"/><path class="cls-2" d="M101.25,73.22l-.07,0a.18.18,0,0,0-.1,0,8.7,8.7,0,0,1-1-.29l-1.49-.28-.49,0a.6.6,0,0,0-.43.11.29.29,0,0,0-.16.29c0,.1.16.07.24.1l.41.1c.07,0,.16,0,.17.15h-.14a1.11,1.11,0,0,1-.44-.08h-.41s-.1,0-.15,0,0,0-.06,0,0,0-.08.06l-.08.08c0,.13.13.12.21.11s.13,0,.17,0h0l0,0a2.25,2.25,0,0,0,1.2.15,2.56,2.56,0,0,1,.78.14c.07,0,.16,0,.22.06h0l0,0c.07,0,.16,0,.24,0h0c.35,0,.69.13,1,.19l.58-.77c-.08-.13-.21-.11-.28-.19"/><path class="cls-2" d="M112.1,71.13a1.91,1.91,0,0,0-1.37-.17,1.81,1.81,0,0,0-.86.63c-.11.14-.19.17-.35.09a1,1,0,0,0-.59-.08,1.55,1.55,0,0,0-1.21,1.93c0,.13.2.24.11.37s-.22.17-.33.25a3,3,0,0,0-.29.2.22.22,0,0,1-.34,0,8.27,8.27,0,0,0-2.24-1.56.19.19,0,0,1-.12-.24,12,12,0,0,1,.49-1.9c0-.12.09-.16.23-.12a1.2,1.2,0,0,0,1-.19,1.72,1.72,0,0,0,.53-1.83c-.1-.24-.37-.37-.42-.59s.06-.5,0-.75a1.41,1.41,0,0,0-1.1-1,1.13,1.13,0,0,0-1.19.34,1,1,0,0,1-.78.44,1.51,1.51,0,0,0-.9,2.21,1.49,1.49,0,0,0,.41.38.2.2,0,0,1,.09.26,5.83,5.83,0,0,1-.83,1.81.21.21,0,0,1-.26.1,8.15,8.15,0,0,0-.83-.17c-.71-.11-1.41-.21-2.12-.3-.16,0-.26-.06-.28-.24s-.09-.43-.13-.65,0-.25.18-.28a.64.64,0,0,0,.33-.1,1.55,1.55,0,0,0,0-2.59.23.23,0,0,1-.14-.3,1.31,1.31,0,0,0-.32-1.18A4.24,4.24,0,0,0,96.76,65a4.16,4.16,0,0,0-.09.66c-.09,1.2-.18,2.4-.28,3.6,0,.61-.11,1.21-.16,1.82a.72.72,0,0,1-.2.5,1.55,1.55,0,0,0-.37.6,1,1,0,0,0,.27,1.17.24.24,0,0,1,0,.07l-.08.1c-.32.33-.64.65-.95,1a.65.65,0,0,0-.13.83c.19.35.51.33.83.28a18.22,18.22,0,0,1,2.09-.18c.46,0,.92,0,1.37,0a7.75,7.75,0,0,1,4.52,1.83A14.49,14.49,0,0,1,106,79.84a.6.6,0,0,0,.63.27,1,1,0,0,0,.76-.5.74.74,0,0,0,.1-.82,1.35,1.35,0,0,1-.11-.72c0-.11.05-.16.16-.2a1.17,1.17,0,0,0,.87-1.42.35.35,0,0,1,.09-.35c.29-.33.57-.69.88-1s.88-.94,1.35-1.39c.72-.67,1.41-1.37,2.14-2.08a3.73,3.73,0,0,0-.77-.5m-.41.64-4,4.16a.31.31,0,0,0-.11.2.87.87,0,0,0,0,.3.74.74,0,0,1,0,.46c-.13.44-.49.32-.49.32a1.42,1.42,0,0,1-.35-.25c-.16-.17-.2.06-.2.06s0,.65,0,1.18a2.46,2.46,0,0,0,.11.69.53.53,0,0,1,0,.41c0,.07-.1.1-.14.1h0a.2.2,0,0,1-.14-.08l-.8-1c-.21-.26-1-1.07-1-1.07a10.33,10.33,0,0,0-2.92-1.9c-2-1-5.56-.52-5.56-.52a2.8,2.8,0,0,1-.66,0,8.5,8.5,0,0,1,1-1.09c.21-.2.12-.84.12-.84l-.23-.1a.32.32,0,0,1-.18-.24.68.68,0,0,1,.26-.6c.43-.34.36-.44.38-.62C97,70,97.31,66,97.31,66c1.46.28.56,1.86.56,1.86,1.71,0,.91,1.39.91,1.39s-.11.33-.57.09a2,2,0,0,0-.56-.24,5.7,5.7,0,0,0,.5,2.74,33.69,33.69,0,0,1,3.65.6c.45.2.48,0,.48,0a8.05,8.05,0,0,0,1.35-2.81c.17-.41,0-.45,0-.45-.61-.2-.73-.53-.73-.53a.92.92,0,0,1,.38-1c.25-.19.53,0,.72.18s.22,0,.22,0a1.65,1.65,0,0,1,.42-1s.18-.29.82.09-.07,1.34-.07,1.34a.35.35,0,0,0,.24.09c.53.08.6.35.58.55-.12,1.15-.82.86-.82.86a1.32,1.32,0,0,1-.44-.3c-.2-.21-.29-.09-.29-.09-.14.33-.63,2-.63,2-.4,1.68-.15,1.67-.15,1.67A9.68,9.68,0,0,1,106.62,75c.37.37.46.23.46.23A8.72,8.72,0,0,0,108.77,74c.06-.13-.28-.45-.28-.45a.79.79,0,0,1,.08-1c.44-.45.81-.17.81-.17a.64.64,0,0,1,.27.4c.09.31.21.21.21.21a3.21,3.21,0,0,1,.88-1.27A.85.85,0,0,1,111.69,71.77Z"/></g></g></svg>