<svg xmlns="http://www.w3.org/2000/svg" viewBox="0 0 122.47 31.23"><defs><style>.cls-1{fill:#002856;fill-rule:evenodd;}</style></defs><g id="Layer_2" data-name="Layer 2"><g id="Layer_1-2" data-name="Layer 1"><path class="cls-1" d="M107.47,10.47c0,.72-.06,1.42-.11,2.12s0,1.33-.11,2c0,.26,0,.54,0,.81,0,.75,0,1.5-.07,2.24-.05,1.09-.1,2.18-.14,3.27,0,.83-.05,1.66-.07,2.49,0,1,0,2-.08,3s0,1.87-.07,2.81c0,.54-.05,1.08,0,1.62,0,.12,0,.2-.17.19a1.27,1.27,0,0,0-.39,0,1,1,0,0,1-.94-.41c-.93-1.05-1.88-2.09-2.83-3.13s-1.77-1.94-2.66-2.9c-.64-.69-1.29-1.36-1.94-2.05-1.19-1.26-2.38-2.52-3.61-3.75-.18-.18-.34-.39-.53-.56-.08,0-.07.09-.06.14,0,1.48-.06,3-.06,4.44s0,3.26,0,4.89c0,.71,0,1.41,0,2.11,0,.23.06.44.05.67s0,.26-.26.23c-.39,0-.78-.05-1.16-.07-.62,0-1.24-.09-1.85-.13l-.56-.05c-.1,0-.12-.06-.12-.14s0-.45,0-.67c.07-.81.1-1.63.14-2.45s.1-1.85.14-2.77.1-1.85.14-2.77l.15-3c0-.9.09-1.8.13-2.7L90.47,13c0-.64,0-1.29.1-1.93,0-.17,0-.25.24-.25a2.94,2.94,0,0,0,.59-.05.42.42,0,0,1,.43.16c1.13,1.19,2.29,2.36,3.45,3.53,1,1,2,2,2.93,3s2.19,2.33,3.28,3.49l1.9,2.07a.09.09,0,0,0,.13,0c.06-.07,0-.16,0-.25l0-6.28c0-.77,0-1.55,0-2.32,0-1.14,0-2.28.06-3.41,0-.25,0-.24.26-.25l2.84-.11a3.53,3.53,0,0,1,.73,0"/><path class="cls-1" d="M51.28,28.55l-3,2.68c-2.6-3.22-5.14-6.47-7.57-9.86L42,20.74a8.41,8.41,0,0,0,1.82-1.25,3,3,0,0,0,1-1.85,1.46,1.46,0,0,0-.66-1.46,5,5,0,0,0-1.7-.71c-.5-.14-1-.19-1.52-.28-.14,0-.23,0-.21.18v.24c0,2.19,0,4.37,0,6.56,0,1.41,0,2.82,0,4.23,0,.94,0,1.89.06,2.84,0,.27.06.54.09.8l.06.4H36.78c0-.12,0-.23,0-.34a9.25,9.25,0,0,0,.08-1.58c.09-3.28,0-6.57,0-9.86,0-1.63,0-3.26-.07-4.89a7.63,7.63,0,0,0-.16-1.85c-.08-.27,0-.31.25-.29.7,0,1.4.12,2.1.16a36,36,0,0,1,4,.5,10,10,0,0,1,3.55,1.28,4.63,4.63,0,0,1,1.92,2.18,3.75,3.75,0,0,1,.23,1.44,5.54,5.54,0,0,1-2.26,4.19c-.22.2-.48.38-.72.56s-.21.15-.05.34c.66.8,1.32,1.61,2,2.39q1.29,1.48,2.61,2.94c.29.32.61.62.94.94"/><path class="cls-1" d="M116.21,18.3c1-.09,2.09-.21,3.13-.34.56-.07,1.11-.17,1.67-.25.25,0,.25,0,.26.22,0,.88,0,1.76.07,2.64,0,.27.06.53,0,.8s-.06.21-.21.21-.53,0-.8,0l-3.8.07h-.14c-.26,0-.27,0-.27.31v4.69c0,.24,0,.25.26.25,1.13,0,2.25,0,3.38-.06.75,0,1.49-.08,2.24-.15.29,0,.32,0,.33.29,0,1.13.1,2.25.09,3.38,0,.28,0,.29-.29.29-1.11,0-2.23,0-3.34-.08-.66,0-1.33,0-2-.07s-1.47,0-2.21-.07-1.38,0-2.07-.06c-.26,0-.28,0-.27-.28.07-1,.06-2,.09-3.06,0-.11,0-.21,0-.32,0-3.34,0-6.69,0-10,0-1.35,0-2.7,0-4.05,0-.78,0-1.57-.06-2.35,0-.32,0-.32.31-.36A49.57,49.57,0,0,0,118,9c1.28-.31,2.56-.85,3.73-1.15.17-.05.23,0,.23.17,0,.74,0,2.1.07,2.84,0,.38,0,.77.07,1.15s0,.27-.27.29c-1.06.09-2.11.21-3.17.35-.71.09-1.44.16-2.16.23-.34,0-.34,0-.34.37q0,2.4,0,4.8a.4.4,0,0,0,0,.28"/><path class="cls-1" d="M33.38,19a10.21,10.21,0,0,0-1.51-4.48,9.15,9.15,0,0,0-4-3.48,10.68,10.68,0,0,0-5.49-.91,8.4,8.4,0,0,0-5.6,2.67,10.25,10.25,0,0,0-2.22,3.83A13.36,13.36,0,0,0,14,21a10,10,0,0,0,.23,2.51,9.68,9.68,0,0,0,2.27,4.61,8.23,8.23,0,0,0,5.66,2.7,11.54,11.54,0,0,0,2.35,0,10.19,10.19,0,0,0,3.16-.88,9.5,9.5,0,0,0,4.3-4.06A11.42,11.42,0,0,0,33.38,19m-4.6,4.88a5.77,5.77,0,0,1-4.87,3.54,5,5,0,0,1-3.5-.84,5.18,5.18,0,0,1-1.78-2.18,8.06,8.06,0,0,1-.79-3.55,9.85,9.85,0,0,1,.79-4.15,5.11,5.11,0,0,1,3-2.91,5.33,5.33,0,0,1,1.44-.28,5.89,5.89,0,0,1,6,4,8,8,0,0,1,.44,2.23,8.52,8.52,0,0,1-.72,4.17"/><path class="cls-1" d="M11.55,21.31a5.71,5.71,0,0,0-2.38-2.6l-.37-.23.12-.11a5.79,5.79,0,0,0,1.43-1.53,4.69,4.69,0,0,0,.77-3.27A4.76,4.76,0,0,0,9,10.28,9.51,9.51,0,0,0,5.67,8.84,40.66,40.66,0,0,0,.24,7.69c-.22,0-.24,0-.24.22a1.32,1.32,0,0,0,0,.28,15.2,15.2,0,0,1,.11,2c0,1.41.06,2.82.07,4.22,0,2.23,0,4.46,0,6.69s0,4.56,0,6.84c0,.5-.05,1-.06,1.51a6.5,6.5,0,0,0,0,1,4.62,4.62,0,0,0,1,.07c.35,0,.7,0,1,0a15.51,15.51,0,0,0,2.72-.3A11.93,11.93,0,0,0,8.5,28.79a7.46,7.46,0,0,0,2.7-2.71,5.68,5.68,0,0,0,.72-2.83,4.79,4.79,0,0,0-.37-1.94M3.92,11.88a6.4,6.4,0,0,1,2.4.78,2.07,2.07,0,0,1,.46,3.26,4.35,4.35,0,0,1-2.7,1.37c-.21,0-.2-.09-.2-.23v-5a.36.36,0,0,1,0-.22M7.61,24.81a3.47,3.47,0,0,1-1.5,1.34,7.57,7.57,0,0,1-2,.64c-.18,0-.19-.05-.19-.18,0-.91,0-1.81,0-2.72v-3c0-.28,0-.29.26-.27a6.13,6.13,0,0,1,2.74.8A2.12,2.12,0,0,1,8,22.88a2.9,2.9,0,0,1-.35,1.93"/><path class="cls-1" d="M87,19.73a9.07,9.07,0,0,0-.66-2.82,7.34,7.34,0,0,0-2.9-3.44,9,9,0,0,0-4.51-1.28,12.79,12.79,0,0,0-3.59.38,10.15,10.15,0,0,0-5.48,3.36,9.91,9.91,0,0,0-2.19,8.15,7.63,7.63,0,0,0,1.95,4,8.14,8.14,0,0,0,4,2.41,11.06,11.06,0,0,0,3.71.36,14.6,14.6,0,0,0,2.19-.3,9.15,9.15,0,0,0,5-3.05A10.71,10.71,0,0,0,87,20.64c0-.3,0-.61,0-.91m-3.89,1a7.55,7.55,0,0,1-.9,3.88,5.82,5.82,0,0,1-4.8,3A5.58,5.58,0,0,1,73.93,27,4.76,4.76,0,0,1,71.67,24a6.87,6.87,0,0,1,1.22-6.4,5.78,5.78,0,0,1,3.66-2.12,7.19,7.19,0,0,1,1.53-.13,4.83,4.83,0,0,1,4.9,4.3,5.4,5.4,0,0,1,.08,1"/><path class="cls-1" d="M65.14,23a4.66,4.66,0,0,0-1.8-1.88c-.24-.15-.5-.27-.76-.4,0-.11.13-.14.19-.19a5.07,5.07,0,0,0,1.66-2,3.29,3.29,0,0,0-.67-3.67,5.43,5.43,0,0,0-2.11-1.29A16.43,16.43,0,0,0,57,12.78l-2-.09c-.4,0-.8,0-1.2,0-.24,0-.26,0-.23.26s.09.49.11.73c.06.65,0,1.31.06,2s0,1.54,0,2.32l0,7.86c0,.53,0,1.05,0,1.58,0,1,0,2-.11,3,0,.15,0,.24.21.23.89,0,1.78,0,2.67-.06a19.42,19.42,0,0,0,2.74-.38,10.42,10.42,0,0,0,4-1.67A5.47,5.47,0,0,0,65,26.45a4.08,4.08,0,0,0,.45-1.78A3.53,3.53,0,0,0,65.14,23m-7.73-7.13s0-.06,0-.09a7.82,7.82,0,0,1,1.81.25,3,3,0,0,1,1.29.61A1.06,1.06,0,0,1,60.79,18a2.52,2.52,0,0,1-1,1,5.56,5.56,0,0,1-2.16.78c-.22,0-.25,0-.25-.21V15.87m4.11,9.07a2,2,0,0,1-.77,1.26,5.25,5.25,0,0,1-2.09,1c-.34.09-.68.14-1,.21-.15,0-.23,0-.23-.2,0-.71,0-1.41,0-2.12V23c0-.27,0-.28.27-.28a7.81,7.81,0,0,1,2.7.53,2.71,2.71,0,0,1,.76.5,1.22,1.22,0,0,1,.38,1.21"/><path class="cls-1" d="M70.64,7.3V9.75c0,.11,0,.14.14.14l1.9,0h.74c.16,0,.21.07.2.22v.78a.68.68,0,0,1-.29,0l-3.76-.09c-.14,0-.2,0-.2-.2,0-2.36,0-4.72,0-7.08,0-.17-.09-.38,0-.51s.31,0,.47,0l1.65-.11c.56,0,1.12,0,1.68-.09.16,0,.21,0,.21.19s0,.36,0,.55,0,.26-.24.25c-.39,0-.79,0-1.19,0s-.82.06-1.23.05c-.11,0-.17,0-.16.16,0,.77,0,1.53,0,2.29,0,.14.06.19.19.18.46,0,.92,0,1.37-.05a5.48,5.48,0,0,0,.7,0c.12,0,.15.05.18.15a3.67,3.67,0,0,1,0,.74c0,.09-.06.12-.14.11-.76,0-1.52,0-2.32,0"/><path class="cls-1" d="M46.29,9.83a7.65,7.65,0,0,1,.15.92c0,.1,0,.12-.12.13-.25,0-.51.06-.76.07a9.33,9.33,0,0,1-2.69-.22A4.79,4.79,0,0,1,41,9.84a2.89,2.89,0,0,1-.68-3.93,5.89,5.89,0,0,1,2.6-2.29,9.35,9.35,0,0,1,2.53-.81c.29-.06.29-.06.35.22s.06.37.1.56,0,.22-.19.25a7.47,7.47,0,0,0-1.63.4A5.54,5.54,0,0,0,42,5.56a2.62,2.62,0,0,0-.82,1.78A2.07,2.07,0,0,0,42,9.13a4.13,4.13,0,0,0,2,.76,6.7,6.7,0,0,0,2.32-.06"/><path class="cls-1" d="M67.19,6.39a7.2,7.2,0,0,0,.06.83c0,.08,0,.13-.12.13h-.24l-2,0c-.28,0-.28,0-.28.29v2.61a1.94,1.94,0,0,0,0,.24c0,.3,0,.31-.25.31h-.88c-.15,0-.2-.06-.19-.21.14-1.71.1-3.42.08-5.13a20.48,20.48,0,0,0-.05-2.35c0-.13.06-.14.15-.14l.77,0c1,0,2-.08,3-.13.11,0,.15,0,.16.12v.36c0,.54,0,.54-.55.54l-2,0c-.18,0-.25,0-.25.23q0,1.1,0,2.19c0,.19.08.24.26.23l1.54-.06.8,0"/><path class="cls-1" d="M61.26,6.39a6.71,6.71,0,0,0,.07.91.36.36,0,0,1-.28.06l-2,0c-.33,0-.33,0-.33.31,0,.87,0,1.74,0,2.61v.11c0,.12.11.27,0,.37s-.28,0-.44,0-.42,0-.63,0-.25,0-.23-.23c.12-1.71.08-3.43.08-5.14,0-.68,0-1.36,0-2,0-.13-.13-.29,0-.39s.27,0,.41,0l2.91-.14h.42c.26,0,.26,0,.27.22s0,.35,0,.53,0,.25-.23.25h-.77l-1.59,0c-.15,0-.23,0-.23.22q0,1.11,0,2.22c0,.17.08.22.23.21l1.55-.05.81,0"/><path class="cls-1" d="M70.53,0l1.15,1c.14.12.27.26.42.37s.13.2,0,.33c-.19.29-.19.29-.49.14-.52-.27-1-.54-1.56-.8C69.94,1,69.91.9,70,.77s.31-.52.53-.77"/><path class="cls-1" d="M56.18,10.13c-.27-.44-.53-.88-.79-1.32L52,3a1.49,1.49,0,0,0-.35-.49l-4.31,7.88,1.06.6.06-.08c.36-.77.73-1.54,1.09-2.32a.38.38,0,0,1,.41-.28,7.49,7.49,0,0,0,1,0c.8-.09,1.61,0,2.41-.12a.44.44,0,0,1,.5.28c.45.84.91,1.66,1.4,2.53l.89-.53c.21-.14.21-.14.09-.35m-6-2.67a19.64,19.64,0,0,1,1.45-2.92l1.53,2.8-3,.12"/><path class="cls-1" d="M87.27,11.68c-.2-.22-.42-.44-.63-.66h0L86.57,11a.23.23,0,0,0-.07-.07.13.13,0,0,0-.09-.07l-.83-.55-.06,0-.09-.05-.29-.12c-.19-.06-.23,0-.24.15s0,.42,0,.63a.4.4,0,0,0,.22.4,3.7,3.7,0,0,1,.78.53,4.61,4.61,0,0,1,.91.74.17.17,0,0,1,.06.06h0s0,0,.06.07h0c.11,0,.15.19.28.19h0a.33.33,0,0,0-.12-.46l-.31-.23L86.64,12s0-.08,0-.12.08,0,.12,0l.33.26c.08.06.17.17.27.1s.07-.21.07-.32-.08-.17-.15-.23"/><path class="cls-1" d="M82.49,8.83h-.08a.19.19,0,0,0-.1-.05,9.27,9.27,0,0,1-1-.29L79.8,8.2c-.17,0-.33,0-.49,0a.6.6,0,0,0-.43.11.27.27,0,0,0-.16.28c0,.1.15.08.24.11s.27.06.4.09.17,0,.18.15h-.15A1.06,1.06,0,0,1,79,8.84h-.41a1.31,1.31,0,0,1-.15.05.07.07,0,0,1-.06,0L78.25,9l-.07.08c0,.13.12.12.21.11s.12,0,.16,0h.06a2.06,2.06,0,0,0,1.2.15,3,3,0,0,1,.78.15c.06,0,.15,0,.22,0h.06c.07.05.16,0,.23.06h0l0,0a8.89,8.89,0,0,1,1,.19L82.77,9c-.08-.13-.22-.1-.28-.19"/><path class="cls-1" d="M93.33,6.75A1.79,1.79,0,0,0,92,6.58a1.84,1.84,0,0,0-.87.63c-.11.14-.19.16-.34.09a1,1,0,0,0-.59-.08A1.54,1.54,0,0,0,89,9.14c0,.13.19.25.11.38a1.11,1.11,0,0,1-.34.25,2.51,2.51,0,0,0-.29.2c-.12.11-.22.07-.33,0a8.29,8.29,0,0,0-2.25-1.55.2.2,0,0,1-.12-.25,12.62,12.62,0,0,1,.49-1.9c0-.12.09-.15.23-.12a1.24,1.24,0,0,0,1-.18A1.75,1.75,0,0,0,88,4.1c-.1-.23-.37-.37-.42-.58s0-.51,0-.76a1.43,1.43,0,0,0-1.1-1,1.15,1.15,0,0,0-1.2.34,1,1,0,0,1-.78.43,1.52,1.52,0,0,0-.9,2.22,1.85,1.85,0,0,0,.41.38.19.19,0,0,1,.1.25,5.8,5.8,0,0,1-.84,1.82.21.21,0,0,1-.26.1,8,8,0,0,0-.82-.17l-2.13-.31c-.16,0-.25,0-.28-.23s-.08-.44-.13-.66,0-.25.19-.27a.84.84,0,0,0,.33-.1,1.56,1.56,0,0,0,0-2.6.22.22,0,0,1-.14-.3,1.27,1.27,0,0,0-.33-1.17A4,4,0,0,0,78,.59a4.08,4.08,0,0,0-.08.66c-.09,1.2-.19,2.4-.29,3.6,0,.6-.1,1.21-.15,1.82a.82.82,0,0,1-.21.5,1.64,1.64,0,0,0-.37.59,1,1,0,0,0,.27,1.17s0,0,0,.07a.81.81,0,0,1-.09.1l-1,1a.68.68,0,0,0-.12.84c.19.35.5.32.83.27A18.21,18.21,0,0,1,79,11a12.54,12.54,0,0,1,1.37,0,7.78,7.78,0,0,1,4.51,1.82,14.61,14.61,0,0,1,2.4,2.57.61.61,0,0,0,.62.27,1,1,0,0,0,.77-.5.74.74,0,0,0,.1-.82,1.3,1.3,0,0,1-.11-.73c0-.1,0-.15.15-.19a1.15,1.15,0,0,0,.87-1.42.4.4,0,0,1,.09-.35c.3-.33.57-.69.88-1,.46-.46.88-1,1.36-1.39.71-.68,1.41-1.37,2.14-2.08a3.41,3.41,0,0,0-.78-.5m-.41.63-4,4.16a.41.41,0,0,0-.1.21.68.68,0,0,0,0,.3.73.73,0,0,1,0,.46.39.39,0,0,1-.5.32,1.31,1.31,0,0,1-.35-.26c-.16-.16-.19.07-.19.07s0,.65,0,1.17a2.09,2.09,0,0,0,.11.69.49.49,0,0,1,0,.41c0,.08-.09.11-.13.11h0a.24.24,0,0,1-.15-.08l-.79-1c-.21-.26-1-1.06-1-1.06A10.23,10.23,0,0,0,83,11c-2-.94-5.57-.51-5.57-.51a2.72,2.72,0,0,1-.65,0,8.5,8.5,0,0,1,1-1.09c.21-.2.11-.84.11-.84l-.22-.1a.31.31,0,0,1-.18-.25.64.64,0,0,1,.26-.6c.43-.33.36-.43.37-.61.11-1.35.42-5.42.42-5.42,1.47.28.57,1.86.57,1.86,1.7,0,.9,1.4.9,1.4s-.1.33-.57.09a1.88,1.88,0,0,0-.56-.24,5.8,5.8,0,0,0,.51,2.74A36,36,0,0,1,83,8c.44.21.47,0,.47,0a8,8,0,0,0,1.36-2.81c.17-.41,0-.45,0-.45-.61-.2-.73-.53-.73-.53a.92.92,0,0,1,.38-1c.25-.19.52.06.72.19s.21,0,.21,0a1.65,1.65,0,0,1,.42-1s.19-.29.83.08S86.61,4,86.61,4a.34.34,0,0,0,.24.09c.53.08.59.35.57.54-.12,1.16-.81.87-.81.87a1.32,1.32,0,0,1-.44-.3c-.21-.22-.29-.09-.29-.09-.14.32-.63,2-.63,2-.4,1.68-.15,1.67-.15,1.67a9.82,9.82,0,0,1,2.75,1.87c.38.37.46.24.46.24A9.14,9.14,0,0,0,90,9.58c.06-.14-.29-.46-.29-.46a.77.77,0,0,1,.09-1c.44-.45.8-.17.8-.17a.59.59,0,0,1,.27.39c.09.32.21.21.21.21A3.19,3.19,0,0,1,92,7.33.84.84,0,0,1,92.92,7.38Z"/></g></g></svg>