<svg xmlns="http://www.w3.org/2000/svg" viewBox="0 0 130.01 37.08"><defs><style>.cls-1{fill:#f3f3f3;}.cls-1,.cls-2,.cls-3,.cls-4{fill-rule:evenodd;}.cls-2{fill:#1d1d1b;}.cls-3{fill:#e53328;}.cls-4{fill:#fff;}</style></defs><g id="Layer_2" data-name="Layer 2"><g id="Layer_1-2" data-name="Layer 1"><path class="cls-1" d="M129.91,0,130,2.78a9.94,9.94,0,0,1-2.9,7.06,10,10,0,0,1-7.1,3H105.8c0,3.15-.08,9.24-.08,14.29a10,10,0,0,1-3,7.09,9.87,9.87,0,0,1-7.05,2.9L0,37V0Z"/><path class="cls-2" d="M2.17,2.15H127.83l0,.66a7.75,7.75,0,0,1-2.27,5.51A7.86,7.86,0,0,1,120,10.64H103.67s-.11,9.27-.11,16.45a7.86,7.86,0,0,1-2.32,5.57,7.75,7.75,0,0,1-5.52,2.27L2.16,34.87Z"/><path class="cls-3" d="M103.07,33.86a10,10,0,0,0,2.65-6.77c0-5.61.06-11.85.08-14.29H120a10,10,0,0,0,6.78-2.64l-23.71,23.7"/><path class="cls-3" d="M82,20.83v0a7.51,7.51,0,0,1,7.76-7.44,7.43,7.43,0,0,1,7.7,7.39v.05a7.74,7.74,0,0,1-15.46,0m11.38,0v0a3.72,3.72,0,0,0-3.68-3.86,3.58,3.58,0,0,0-3.62,3.81v.05a3.71,3.71,0,0,0,3.68,3.86,3.58,3.58,0,0,0,3.62-3.81M76.53,8.56h4.13v3.68H76.53Zm0,17.12V13.61h4.13V27.9H78.77a2.23,2.23,0,0,1-2.24-2.22"/><path class="cls-4" d="M15.12,24.27V20.2h4.71c2.09,0,3,.77,3,2v.05c0,1.38-1.08,2-2.88,2Zm0-7.46V12.9h4c1.72,0,2.67.68,2.67,1.9v.06c0,1.37-1.14,1.95-2.94,1.95Zm-4,8.88a2.17,2.17,0,0,0,2.18,2.16H20c4.18,0,6.93-1.7,6.93-5.08v-.06c0-2.48-1.32-3.73-3.47-4.55a4.29,4.29,0,0,0,2.44-4v-.06A4.28,4.28,0,0,0,24.59,11a6.73,6.73,0,0,0-4.84-1.64h-8.6Zm29.55,2.16h1.84V13.66h-4v12a2.17,2.17,0,0,0,2.18,2.17M38.51,12.19h4V8.62h-4Zm12.67,16A7.12,7.12,0,0,0,57,25.57l-2.35-2.38a4.49,4.49,0,0,1-3.26,1.51,3.64,3.64,0,0,1-3.6-3.92v-.05a3.62,3.62,0,0,1,3.44-3.86,4.12,4.12,0,0,1,3.23,1.56l2.46-2.65a7,7,0,0,0-5.66-2.38,7.27,7.27,0,0,0-7.43,7.38v.06a7.23,7.23,0,0,0,7.38,7.32M28.46,25.69a2.17,2.17,0,0,0,2.17,2.16h1.85V22.61c0-3.39,1.64-5,4.31-5H37V13.4c-2.38-.11-3.7,1.16-4.53,3.12V13.66h-4Zm36.13,2.47a7.44,7.44,0,0,0,7.7-7.38v-.05a7.68,7.68,0,0,0-15.35.05v0a7.37,7.37,0,0,0,7.65,7.33m0-3.46a3.77,3.77,0,0,1-3.73-3.92v-.05a3.63,3.63,0,0,1,3.68-3.86,3.76,3.76,0,0,1,3.73,3.91v0a3.64,3.64,0,0,1-3.68,3.87"/></g></g></svg>