<svg xmlns="http://www.w3.org/2000/svg" viewBox="0 0 375.18 125.16"><defs><style>.cls-1{fill:#010101;}.cls-2{fill:#fec80b;}</style></defs><g id="Layer_2" data-name="Layer 2"><g id="Layer_1-2" data-name="Layer 1"><polygon class="cls-1" points="248.24 42.03 228.31 123.05 260.64 123.05 281.37 38.64 248.24 42.03"/><path class="cls-1" d="M354.83,38.48c-9.64-.95-24.68,2-32.11,7.68a37.74,37.74,0,0,0-1.4-8l-28.62,3.5c1.14,8,0,16.86-2.79,28.8l-12.82,52.61h32.33l13.23-53.68c3.25-4.65,8.4-7.77,12.75-7.77,5.39,0,6.7,3.95,5,10.42l-12.43,51h32.34l13.88-55.42c3.31-15-1.57-27.4-19.39-29.15"/><path class="cls-2" d="M286.68,15.77c0-8.69-7.59-15.77-17.3-15.77-9.88,0-18,7.08-18,15.77s7.94,15.77,17.47,15.77c9.88,0,17.83-7.08,17.83-15.77"/><path class="cls-1" d="M209.13,39.51,198.91,63.15c-3.78,8.88-7.1,17.25-10,25.45l-.4-49.09H159.32L135.15,89l2.61-50.63-32.14,4,6.5,80.66h28.43s21.57-43.52,23.5-48.55l.29,48.55h29.18l48.13-83.54H209.13"/><path class="cls-1" d="M70.8,37.41a38.28,38.28,0,0,0-18.38,4.26,154.34,154.34,0,0,0,6.47-31.53h0a64.76,64.76,0,0,0,.21-7.31L25.21,7c.39,5.43-.41,14-4.77,32.4L4.09,107c-.75,3.23-2.6,9.39-4.09,11.65,10.22,3.4,21.93,6.48,41.25,6.48,10.6,0,19-2,27.51-7,14.68-8.58,23.75-24,27.49-39,7-28-4.45-41.77-25.45-41.77M62.25,80.64c-3.71,15.54-8.55,22.5-16.72,22.5-3.34,0-6.13-.81-7.62-1.94l8.92-37.08a13.87,13.87,0,0,1,9.48-4.05c7.25,0,9.85,4.05,5.94,20.57"/></g></g></svg>