<svg xmlns="http://www.w3.org/2000/svg" viewBox="0 0 126 27.64"><defs><style>.cls-1{fill:#271d67;}.cls-2{fill:#3d88c8;}</style></defs><g id="Layer_2" data-name="Layer 2"><g id="Layer_1-2" data-name="Layer 1"><path class="cls-1" d="M.65,20A3.68,3.68,0,0,0,1.5,21.1a4.2,4.2,0,0,0,1.34.72,5.23,5.23,0,0,0,1.67.24,6,6,0,0,0,2.4-.48,3.8,3.8,0,0,0,1.26-1v1.2h6.4V19.36h-1a.85.85,0,0,1-.54-.17.7.7,0,0,1-.17-.55V0H6.4V2.43h1a.61.61,0,0,1,.51.2.72.72,0,0,1,.21.55V7.05A5.21,5.21,0,0,0,6.7,6.36a7.23,7.23,0,0,0-1.95-.27A4.23,4.23,0,0,0,.82,8,9,9,0,0,0,0,12.59v3.66A11.64,11.64,0,0,0,.31,19a3,3,0,0,0,.34,1m4-9.64A4.53,4.53,0,0,1,4.82,9a1.58,1.58,0,0,1,.58-.75A1.92,1.92,0,0,1,6.4,8a1.42,1.42,0,0,1,1.19.52,2.78,2.78,0,0,1,.55,1.88v7.28A4,4,0,0,1,7.93,19a1.58,1.58,0,0,1-.61.89,1.78,1.78,0,0,1-1,.27,1.56,1.56,0,0,1-.93-.3A2,2,0,0,1,4.79,19a4,4,0,0,1-.14-1.27Z"/><path class="cls-1" d="M16.79,21.62a5,5,0,0,0,2.36.44,5.72,5.72,0,0,0,2.12-.34,5.18,5.18,0,0,0,1.54-.93v1h6.4V19.39h-1a.72.72,0,0,1-.54-.2.71.71,0,0,1-.18-.55V10.91a8.78,8.78,0,0,0-.17-2.05,3.5,3.5,0,0,0-.82-1.51,3.45,3.45,0,0,0-1.64-.92,11.81,11.81,0,0,0-3.15-.34,11.13,11.13,0,0,0-4.41.55,2.46,2.46,0,0,0-1.4,2.42,2.12,2.12,0,0,0,.27,1.13,1.66,1.66,0,0,0,.79.58,5.94,5.94,0,0,0,1.68.17,2.63,2.63,0,0,0,1.6-.34,1,1,0,0,0,.31-.85,2.6,2.6,0,0,1,.21-1.23A.88.88,0,0,1,21.55,8a.93.93,0,0,1,.85.44,4.11,4.11,0,0,1,.41,2.23V11.8a.84.84,0,0,1-.31.75,2.37,2.37,0,0,1-1.4.31h-.78a10.43,10.43,0,0,0-2.4.24,3.35,3.35,0,0,0-1.16.44,2.7,2.7,0,0,0-.89.89,4.25,4.25,0,0,0-.48,1.51,14.15,14.15,0,0,0-.14,2.12,5.79,5.79,0,0,0,.35,2.32,3,3,0,0,0,1.19,1.24m3.35-5.89a1.09,1.09,0,0,1,.59-.68A2.84,2.84,0,0,1,22,14.84h.86v4.07a3.36,3.36,0,0,1-.65,1,1.09,1.09,0,0,1-.79.27,1.34,1.34,0,0,1-1-.58,3.73,3.73,0,0,1-.44-2,5.52,5.52,0,0,1,.2-1.78"/><path class="cls-2" d="M45.28,20a3.56,3.56,0,0,0,.86,1.06,4.05,4.05,0,0,0,1.33.72,5.29,5.29,0,0,0,1.68.24,5.93,5.93,0,0,0,2.39-.48,3.93,3.93,0,0,0,1.27-1v1.2h6.36V19.36h-1a.85.85,0,0,1-.54-.17.72.72,0,0,1-.21-.55V0H51V2.43h1a.61.61,0,0,1,.51.2.72.72,0,0,1,.21.55V7.05a5.21,5.21,0,0,0-1.44-.69,7.23,7.23,0,0,0-1.95-.27A4.23,4.23,0,0,0,45.42,8a9.18,9.18,0,0,0-.82,4.58v3.66a11.58,11.58,0,0,0,.31,2.77,6.19,6.19,0,0,0,.37,1m4-9.64A4.23,4.23,0,0,1,49.46,9,1.47,1.47,0,0,1,50,8.28,1.86,1.86,0,0,1,51,8a1.46,1.46,0,0,1,1.2.52,2.83,2.83,0,0,1,.54,1.88v7.28a4,4,0,0,1-.2,1.3,1.59,1.59,0,0,1-.62.89,1.78,1.78,0,0,1-1,.27,1.51,1.51,0,0,1-.92-.3,1.94,1.94,0,0,1-.62-.89,4.08,4.08,0,0,1-.13-1.27Z"/><path class="cls-2" d="M75.62,21.68a13,13,0,0,0,3.87.38,11.57,11.57,0,0,0,3.79-.44A3.66,3.66,0,0,0,85.13,20,6.11,6.11,0,0,0,85.78,17V15.73H81.13v2a2.93,2.93,0,0,1-.55,1.91,1.37,1.37,0,0,1-1.13.51,1.8,1.8,0,0,1-1-.3,1.76,1.76,0,0,1-.65-.79,3.75,3.75,0,0,1-.14-1.33V14.06h8.14V10.67A5.44,5.44,0,0,0,85.57,9a3.36,3.36,0,0,0-.65-1.3,3,3,0,0,0-1-.83,6.21,6.21,0,0,0-2-.61,18.66,18.66,0,0,0-2.5-.17c-2.32,0-4,.34-5,1S73,9.06,73,10.94v5.82a6.89,6.89,0,0,0,.82,3.59,3.67,3.67,0,0,0,1.85,1.33m2-11.62a2.22,2.22,0,0,1,.48-1.54,1.8,1.8,0,0,1,2.53,0,2.18,2.18,0,0,1,.48,1.5v2.05H77.67Z"/><path class="cls-2" d="M88.55,21.62a5,5,0,0,0,2.36.44A5.75,5.75,0,0,0,93,21.72a5.3,5.3,0,0,0,1.54-.93v1H101V19.39h-1a.76.76,0,0,1-.55-.2.7.7,0,0,1-.17-.55V10.91a9.37,9.37,0,0,0-.17-2.05,3.61,3.61,0,0,0-.82-1.51,3.55,3.55,0,0,0-1.64-.92,11.81,11.81,0,0,0-3.15-.34A11.13,11.13,0,0,0,89,6.64a2.46,2.46,0,0,0-1.4,2.42,2.12,2.12,0,0,0,.27,1.13,1.57,1.57,0,0,0,.79.58,5.86,5.86,0,0,0,1.67.17A2.67,2.67,0,0,0,92,10.6a1,1,0,0,0,.31-.85,2.77,2.77,0,0,1,.2-1.23A.89.89,0,0,1,93.3,8a1,1,0,0,1,.86.44,4.21,4.21,0,0,1,.41,2.23V11.8a.84.84,0,0,1-.31.75,2.37,2.37,0,0,1-1.4.31h-.79a10.34,10.34,0,0,0-2.39.24,3.82,3.82,0,0,0-1.17.44,2.76,2.76,0,0,0-.88.89,4.25,4.25,0,0,0-.48,1.51A12.94,12.94,0,0,0,87,18.06a5.81,5.81,0,0,0,.34,2.32,2.76,2.76,0,0,0,1.2,1.24m3.35-5.89a1.07,1.07,0,0,1,.58-.68,2.91,2.91,0,0,1,1.27-.21h.85v4.07a3,3,0,0,1-.65,1,1.08,1.08,0,0,1-.78.27,1.34,1.34,0,0,1-1-.58,3.73,3.73,0,0,1-.44-2,4.4,4.4,0,0,1,.2-1.78"/><path class="cls-1" d="M38.68,6.29V8.72H40.5l-2.67,6.64L35.3,8.72h1.64V6.29H28.8V8.72h1.54l5,12.9-.82,2c-.07.21-.18.38-.24.55a3.9,3.9,0,0,1-.79,1.16.64.64,0,0,1-.21.14.86.86,0,0,1-.58.17.78.78,0,0,1-.54-.2L32,25.31a1.83,1.83,0,0,1-.27-1.13V24a1.54,1.54,0,0,0-.31-1.16A2.06,2.06,0,0,0,30,22.5a2.31,2.31,0,0,0-1.61.48,2,2,0,0,0-.48,1.27v.24a2.65,2.65,0,0,0,.14.92,2.86,2.86,0,0,0,.85,1.3,3.71,3.71,0,0,0,2.67.93,4.09,4.09,0,0,0,2-.45,5,5,0,0,0,1.58-1.4c.07-.07.1-.17.17-.24a9.63,9.63,0,0,0,.79-1.37c0-.1.1-.24.13-.34L42.41,8.72H44V6.29Z"/><path class="cls-2" d="M68.34,19.39H67a.76.76,0,0,1-.55-.2.72.72,0,0,1-.21-.55V10.19a4.21,4.21,0,0,1,.52-1.47.88.88,0,0,1,.71-.48.42.42,0,0,1,.42.31A4.18,4.18,0,0,1,68,9.68a2.89,2.89,0,0,0,.2,1.26,1,1,0,0,0,.55.52,3.65,3.65,0,0,0,1.27.17,2.62,2.62,0,0,0,1.77-.51,2.29,2.29,0,0,0,.59-1.75,3.31,3.31,0,0,0-.86-2.43,3,3,0,0,0-2.22-.89,3.18,3.18,0,0,0-1.54.35,5.82,5.82,0,0,0-1.51,1.26V6.29H59.89V8.72h1a.72.72,0,0,1,.55.21.69.69,0,0,1,.21.54v9.2a.75.75,0,0,1-.17.52.83.83,0,0,1-.55.2h-1v2.43h8.45V19.39Z"/><path class="cls-2" d="M109.17,19.39h-.68a.53.53,0,0,1-.34-.24.63.63,0,0,1-.14-.48V9.47a3.11,3.11,0,0,1,.82-1.16,1.67,1.67,0,0,1,1-.31,1.64,1.64,0,0,1,1.23.48,2.28,2.28,0,0,1,.45,1.58v8.61a.75.75,0,0,1-.17.52.81.81,0,0,1-.55.2h-.44v2.43h7V19.39h-.68a.53.53,0,0,1-.34-.24.63.63,0,0,1-.14-.48V9.47a3.09,3.09,0,0,1,.75-1.16,1.72,1.72,0,0,1,1-.31,1.66,1.66,0,0,1,1.26.48,2.26,2.26,0,0,1,.45,1.54v8.62a.72.72,0,0,1-.21.55.71.71,0,0,1-.54.17h-.45v2.43H126V19.36h-1a.85.85,0,0,1-.54-.17.7.7,0,0,1-.17-.55V10A4.51,4.51,0,0,0,124,8.21a3,3,0,0,0-.79-1.16,3.56,3.56,0,0,0-1.26-.65,8.42,8.42,0,0,0-2.36-.31,8.93,8.93,0,0,0-2,.2,5.4,5.4,0,0,0-1.47.52,5.22,5.22,0,0,0-.83.75,3.44,3.44,0,0,0-1.29-1,6,6,0,0,0-2.33-.44,6.57,6.57,0,0,0-2.12.31,6.44,6.44,0,0,0-1.57.89v-1h-6.4V8.72h1a.72.72,0,0,1,.75.75v9.2a.9.9,0,0,1-.17.55.77.77,0,0,1-.55.21h-1v2.43h7.56Z"/></g></g></svg>