<svg xmlns="http://www.w3.org/2000/svg" viewBox="0 0 349.35 133.8"><defs><style>.cls-1{fill:#0398cc;}.cls-2{fill:#0198cd;}</style></defs><g id="Layer_2" data-name="Layer 2"><g id="Layer_1-2" data-name="Layer 1"><g id="gVRbFd"><path class="cls-1" d="M307.71,33c0-2.8-.88-3.88-3.74-3.85-8.7.14-17.37.14-26.06,0-2.83,0-3.85,1-3.81,3.85.1,7.19-.07,14.42.1,21.62.07,2.76-.8,3.56-3.53,3.53-11.45-.1-22.88,0-34.34-.07-14.28-.1-25-10.83-25-24.91,0-13.73,11-24.49,25.08-24.52,11.25,0,22.5-.14,33.75.07,3.49.07,5.65-.91,7.12-4.23s1.08-4.4-2.44-4.4c-21.8,0-43.64-.21-65.44.1a30.43,30.43,0,0,0-24.66,12.61c-8.21,10.94-9.68,23.06-3.53,35.39s16.67,18.38,30.39,18.52c15,.14,30,0,45,0v.07H280q11.83,0,23.68-.07c3.64,0,4-.35,4-3.8C307.71,52.92,307.6,42.93,307.71,33Z"/><path class="cls-1" d="M169.82,33.43h-.14c0-9.85-.07-19.74,0-29.59C169.75,1,168.66,0,165.87,0c-8.7.11-17.36.11-26.06,0-2.69,0-3.7,1.05-3.7,3.71q.15,29.76.14,59.49c0,2.73,1.18,3.6,3.77,3.56,8.59-.1,17.15,0,25.75-.07,3.35,0,4-.66,4-3.94C169.82,53,169.82,43.21,169.82,33.43Z"/><path class="cls-1" d="M202.24,106c-.11-4.09-1.09-8.07-3.81-11.32-5.35-6.4-15.65-6.22-22,.45-1.22,1.29-1.78,1.68-3,0-3.15-4.44-7.65-5.56-12.83-4.89-4,.52-7.09,2.65-10.06,5.86-.9-4.89-.9-4.89-5.41-4.89-1.47,0-3,0-4.44,0s-2,.52-2,1.88c.1,2.28.21,4.55.24,6.78,0,10,.14,19.91,0,29.87,0,2.38.55,3.46,3.1,3.22a39.83,39.83,0,0,1,6.82,0c2.2.17,2.93-.56,2.9-2.8-.14-6.32-.07-12.61,0-18.93a29.54,29.54,0,0,1,.28-5,7,7,0,0,1,6.15-5.52c2.79,0,5,2,5.59,5.45a29.79,29.79,0,0,1,.45,5c0,6.42.07,12.82,0,19.25,0,1.85.46,2.69,2.48,2.58a56.39,56.39,0,0,1,7.69,0c2.34.17,2.83-.8,2.79-2.93-.1-7-.07-14,0-21a15.7,15.7,0,0,1,.38-3.81,6.09,6.09,0,0,1,5.94-4.47,5.45,5.45,0,0,1,5.28,4.37,17.06,17.06,0,0,1,.63,5c0,6.81,0,13.62,0,20.4,0,1.75.49,2.52,2.34,2.45,2.76-.11,5.52-.07,8.28,0,1.54,0,2.34-.32,2.31-2.1C202.31,122.51,202.45,114.24,202.24,106Z"/><path class="cls-1" d="M303.13,101.59c-3.29-9.43-12.54-13.77-21.94-10.45-2.27.81-3.95,2.45-6,3.64-.84-1-.49-2-.53-2.94,0-5.52-.1-11,0-16.56.07-2.23-.49-3.28-2.93-3.07a44.17,44.17,0,0,1-7.09,0c-2.28-.18-3.08.52-3.08,2.93-.1,18.45.49,36.89-.31,55.34-.07,1.71.38,2.58,2.27,2.45a36.32,36.32,0,0,1,5.9,0c2.2.17,3.36-.53,3.32-2.83,0-.53-.21-1.3.52-1.54s1,.45,1.44.84c8.24,7.51,21.73,5,26.86-5.14A27.8,27.8,0,0,0,303.13,101.59Zm-13.42,17.57c-1.6,3.32-4.78,4.61-8.45,4.09-3-.46-5.38-2.9-6.25-6.32a24.71,24.71,0,0,1-.32-4.86c0-2.8-.1-5.14,1.05-7.37,2.86-5.52,10.31-6.12,13.55-.81C292.3,108.79,292.19,114.06,289.71,119.16Z"/><path class="cls-1" d="M232.67,90c-13.73,0-22.61,8.7-22.61,22.18,0,13.21,8.63,21.66,22,21.63,12.89,0,21.66-9,21.73-22.18C253.84,98.9,245.14,90,232.67,90Zm5.51,30.53a6.61,6.61,0,0,1-6.84,3.74,7.36,7.36,0,0,1-6.29-4.71,15.71,15.71,0,0,1-1.43-7.48c.07-3.28.38-6.5,2.34-9.29,3.14-4.51,9.29-4.51,12,.24C241.26,108.72,241.12,114.72,238.18,120.52Z"/><path class="cls-1" d="M349.24,74.55c0-1.85-.7-2.41-2.48-2.34a63.48,63.48,0,0,1-7.68,0c-2.45-.17-3.25.67-3.22,3.15.14,9.08,0,18.16,0,27.25h0c0,9.08,0,18.16,0,27.25,0,2.2.49,3.31,3,3.14a66.72,66.72,0,0,1,8,0c1.78.07,2.44-.6,2.44-2.42Q349.19,102.54,349.24,74.55Z"/><path class="cls-1" d="M349.35,3.91c0-2.76-1-3.91-3.81-3.88C336.77.14,328,.14,319.2,0c-2.48,0-3.63.77-3.56,3.39.1,6.78.07,13.59.07,20.4,0,13.14,0,26.24,0,39.38,0,1.88.38,3.49,2.65,3.49,6.39,0,12.79.42,19.18-.25h1c2.24.6,4.51.21,6.74.25,3.6,0,4.06-.46,4.06-4.16Q349.29,33.24,349.35,3.91Z"/><path class="cls-2" d="M95.06.07H50.66C35.07.07,19.46.1,3.88,0,1.15,0,0,.87,0,3.77.07,23.4,0,43.07,0,62.71c0,3.35.67,4,4,4,30.57,0,61.17.14,91.74-.07,13-.1,23.12-6.11,29.17-17.57C136.91,26.37,120.7.1,95.06.07Zm-61.94,56c-.07.1-.14.24-.25.38A2.07,2.07,0,0,0,33.12,56.07Zm41.26,1.78c-3.39.49-6.89.21-10.34.21-9.19,0-18.35,0-27.53,0-1.85,0-3.11-.32-3.18-2.45h0a2.35,2.35,0,0,0,0-1.89c.14-14.77.39-29.59-.14-44.36C32.66,15.47,33,21.59,33,27.7c0-6.11-.32-12.19.24-18.27V9.36a4.25,4.25,0,0,1,3.08-.7c11.53,0,23.09-.07,34.62,0C83.46,8.8,94.29,18.86,95.16,31,96.21,44.4,87.37,55.93,74.38,57.85Z"/><path class="cls-2" d="M318.92,86.11c4.19.14,7.2-2.51,7.3-6.46.11-3.77-2.79-6.6-6.78-6.67s-7.09,2.69-7.19,6.63A6.52,6.52,0,0,0,318.92,86.11Z"/><path class="cls-2" d="M323.25,91.14c-2.65.11-5.31.11-8,0-2-.1-2.73.6-2.69,2.69.14,6,0,12,0,18,0,6.22,0,12.4,0,18.62,0,1.75.52,2.52,2.37,2.48,2.87-.1,5.73-.14,8.56,0,1.85.07,2.34-.63,2.34-2.38-.07-12.29-.07-24.62,0-36.92C325.87,91.56,325.1,91.07,323.25,91.14Zm-9.54,21c0-4.19,0-8.42,0-12.61,0,4.19,0,8.39,0,12.61v0Z"/></g></g></g></svg>