<svg xmlns="http://www.w3.org/2000/svg" viewBox="0 0 127.69 17.39"><defs><style>.cls-1{fill:#e40523;}.cls-2{fill:#fff;}.cls-3{fill:#008031;}</style></defs><g id="Layer_2" data-name="Layer 2"><g id="Layer_1-2" data-name="Layer 1"><rect class="cls-1" width="107.93" height="17.39"/><path class="cls-2" d="M79.81,6c-.15-.21-.2-.23-.35-.23s-.25.08-.36.24S76.72,9.5,76.69,9.5h5.53L79.81,6m-.33-2.88c.79,0,1.28.29,2,1.23l5.45,7.78a1.09,1.09,0,0,1-.24,1.48,1.16,1.16,0,0,1-1.65-.16l-1.31-1.8H75.16l-1.31,1.84A1.14,1.14,0,0,1,72,12.22l5.5-7.83a2.26,2.26,0,0,1,2-1.24"/><path class="cls-2" d="M42.27,3.16h7.86c1.95,0,2.13,2.24,2.13,2.24H42.59a.93.93,0,0,0-.92,1,1,1,0,0,0,.89,1.05h6.83a3.31,3.31,0,0,1,3.28,3.06,3.39,3.39,0,0,1-3,3.42h-8a2.12,2.12,0,0,1-2.25-2.26h9.91a1,1,0,0,0,1-1,1,1,0,0,0-.89-1H42.73A3.27,3.27,0,0,1,39.36,6.4a3.18,3.18,0,0,1,2.91-3.24"/><path class="cls-2" d="M92.64,3.14h8.12a3.25,3.25,0,0,1,3.13,3.4v.15A3.32,3.32,0,0,1,102,9.63s.08.13,1.83,2.48a1.23,1.23,0,0,1-1.91,1.5c-.55-.65-1.19-1.48-2.94-3.71H95.77a2.18,2.18,0,0,1-2.13-2.29h6.85a1.08,1.08,0,0,0,1-1.07,1.11,1.11,0,0,0-1-1.09H92.93V12.6a1.24,1.24,0,1,1-2.47,0V5.35a2.39,2.39,0,0,1,2.17-2.21"/><path class="cls-2" d="M59.2,3.16h8.12a3.25,3.25,0,0,1,3.13,3.4v.15a3.33,3.33,0,0,1-1.93,2.94,7.79,7.79,0,0,1-1.12.25H62.3a2.14,2.14,0,0,1-2.06-2.3H67a1.06,1.06,0,0,0,1-1,1.11,1.11,0,0,0-1-1.09H59.48v7.14a1.24,1.24,0,1,1-2.47,0V5.37A2.4,2.4,0,0,1,59.2,3.16"/><path class="cls-2" d="M13.35,11.47H6.79c-.27,0-.21-.29-.21-.29V6a.28.28,0,0,1,.28-.29h6.49a2.89,2.89,0,1,1,0,5.77m0-6.68H6.74a1.1,1.1,0,0,0-1.1,1.1V11.3a1.11,1.11,0,0,0,1.1,1.12h6.61a3.81,3.81,0,1,0,0-7.62m0,8.34H6.74a1.82,1.82,0,0,1-1.81-1.82V5.9A1.81,1.81,0,0,1,6.74,4.09h6.61a4.53,4.53,0,0,1,0,9.05m0-10H6.59A2.58,2.58,0,0,0,4,5.74v5.71A2.6,2.6,0,0,0,6.6,14h6.78a5.44,5.44,0,1,0,0-10.87"/><path class="cls-2" d="M33.14,13.13H24.73a1.83,1.83,0,0,1-1.82-1.82V5.9a1.82,1.82,0,0,1,1.82-1.81H33.1a1.27,1.27,0,0,1,1.17.7H24.73A1.11,1.11,0,0,0,23.62,5.9V8.25H34.43a.34.34,0,0,1,.35.35.35.35,0,0,1-.35.35H23.62v2.37a1.12,1.12,0,0,0,1.11,1.12h9.63a1.37,1.37,0,0,1-1.22.7m-8.58-1.94V9.91h9.88a1.28,1.28,0,0,0,1.32-1.32,1.23,1.23,0,0,0-1.32-1.23H24.56V5.87a.18.18,0,0,1,.18-.17H35.63v0a3.25,3.25,0,0,0-1-2,3.24,3.24,0,0,0-1.85-.54H24.57A2.59,2.59,0,0,0,22,5.76v5.71a2.58,2.58,0,0,0,2.6,2.58h8.74c2.19,0,2.36-2.58,2.36-2.58H24.78c-.26,0-.22-.28-.22-.28"/><path class="cls-3" d="M124.81,12.69a4.32,4.32,0,0,1-3.61,2.15,1.49,1.49,0,0,1-1.53-1.53V12h4.7a29.73,29.73,0,0,1-5.58-9.68A31.29,31.29,0,0,1,113.27,12h4.62v1.32a1.52,1.52,0,0,1-1.48,1.52,4.24,4.24,0,0,1-3.62-2.12,6.45,6.45,0,0,1-1.15-3.8,7.12,7.12,0,0,1,7.13-7.13,7.21,7.21,0,0,1,7.13,7.13,7.74,7.74,0,0,1-1.1,3.78M118.78,0a8.85,8.85,0,0,0-8.91,8.92,8.13,8.13,0,0,0,4.45,7.48,10.54,10.54,0,0,0,8.92,0,8.39,8.39,0,0,0,4.45-7.48A8.88,8.88,0,0,0,118.78,0"/></g></g></svg>