<svg xmlns="http://www.w3.org/2000/svg" viewBox="0 0 454.66 108.43"><defs><style>.cls-1{fill:#414142;}.cls-1,.cls-2{fill-rule:evenodd;}.cls-2{fill:#f8ac32;}.cls-3{fill:none;}</style></defs><g id="Layer_2" data-name="Layer 2"><g id="Layer_1-2" data-name="Layer 1"><path class="cls-1" d="M0,94.06c.78-1.23,1.92-2.36,2.27-3.69,2.16-8.31,6.16-15.44,13-20.79,2.13-1.68,1.71-3.07-.14-4.52C5.69,57.63,2.76,47.5,3.06,36c.08-3.15,1.59-4.71,4.93-4.49a54.3,54.3,0,0,0,8.46,0c3.17-.29,4.3.94,4.06,4C20,42,21,48.19,26,52.73c6.54,6,14.79,6.89,23.14,6.29a42,42,0,0,0,11.53-2.78c8.09-3,11.12-9.56,11.28-17.77,0-1.29-.08-2.58-.11-3.88,0-2,.8-3.07,2.94-3,3.64,0,7.28,0,10.93,0,2.14,0,3.67.82,3.77,3.23.4,9.57-1.62,18.46-7.67,26.1a31.46,31.46,0,0,1-4.63,4.28c-1.86,1.57-2,2.84,0,4.53,10.89,9.13,14.89,21.22,14.78,35,0,2-1,3-3,3-4.71,0-9.41,0-14.12,0-2.27,0-3-1.07-3.24-3.2-.5-4.54-1.05-9.09-1.91-13.56-1.86-9.65-10.4-16.85-20.25-17.69-9.46-.81-17.59,1.52-23.2,9.58-4,5.76-5.07,12.55-5.45,19.41-.3,5.44-.21,5.46-5.65,5.4L0,107.48Z"/><path class="cls-1" d="M0,7.89c4.21-.18,8.41-.46,12.62-.54,5.24-.1,10.49,0,15.79,0-1,4-6.38,8.32-10,8.3-3.18,0-6.35-.12-9.52,0s-5.51-.55-6.63-3.88C2,11,.77,10.59,0,10Z"/><path class="cls-2" d="M435.23,11.74c1.95-4.65,1.95-4.65,6.74-4.65,3.18,0,6.36.06,9.53,0,2.25-.05,3.16.88,3.16,3.15q-.06,29.13,0,58.25c0,2.58-1.26,3.69-3.63,3.73-3.87.06-7.82.44-11.6-.17-1.68-.28-3-2.65-4.84-4.38-3,1.5-6.7,3.41-10.47,5.24a7.44,7.44,0,0,1-2.95.84,135.49,135.49,0,0,1-14.11-.08,17.59,17.59,0,0,1-7.69-2.56c-5.56-3.57-11.31-6.47-15.48-12.42-6.35-9-5.43-18.71-5.33-28.52,0-1.42,1.54-2.76,2.13-4.23,2.95-7.44,8.11-12.52,14.87-17,8.89-5.82,18.25-4.54,27.59-3.91,3.36.23,6.55,3,9.77,4.67A13.93,13.93,0,0,1,435.23,11.74Zm-1.09,26.8c-.34-2.53.12-5.62-1.17-7.49-4.15-6-8.78-11.88-17.57-10.2a8.27,8.27,0,0,1-2.11,0c-4-.29-7.23,1.71-9.91,4.1-6.76,6-7.6,11.4-4.39,20.37a18,18,0,0,0,7.06,9.36c7.58,5.17,16.41,3.74,22.53-2.1A16.73,16.73,0,0,0,434.14,38.54Z"/><path class="cls-2" d="M255.47,43.88c-7.3,0-14.59-.05-21.89.06-1.13,0-2.25.79-3.37,1.22a17.08,17.08,0,0,0,1.68,3.27c1.26,1.53,2.83,2.81,4.17,4.29,1.65,1.82,3.41,3.07,6.09,2.75.93-.11,1.95.58,2.92.94s2,1.21,2.52.93c4.16-2.35,9.72-.83,13.23-5.28,3.13-4,3.34-3.63,7.27-.09,2.25,2,4.85,3.68,7.29,5.49,2.08,1.53,2.14,3,.31,4.95A38.3,38.3,0,0,1,260.89,72c-7.51,2.84-15,2.26-22.13,1.3S225.54,68,220.22,62.61c-4.48-4.53-7.42-9.82-9.93-15.41-.88-2-.14-4.63-.32-7-.92-11.75,4.7-20.41,13.44-27.22a49.44,49.44,0,0,1,13.64-7.76C240.64,4,245,5.15,249,4.73c4.74-.5,8.25,2.07,12.26,3.73,5.23,2.18,8.4,6.46,12.25,10.11,3.12,2.95,4.24,6.89,6.09,10.55s1.87,7.38,2,11.22c.1,2.56-.89,3.6-3.5,3.57C270.53,43.81,263,43.87,255.47,43.88Zm4.81-14.08c-4.45-6.73-10.37-10.24-18-8.78-4.75.91-8.65,3.91-11.77,8.78Z"/><path class="cls-2" d="M182.33,38.29c7.14,2.27,9.17,8.26,11.49,13.54,2.18,5,3.28,10.39,4.59,15.68.79,3.16-1.11,4.61-4.09,4.66q-6.87.1-13.75,0c-2.12,0-3.53-1-3.79-3.34-.39-3.59-.38-7.34-1.51-10.7-1.05-3.06-2.78-6.53-5.29-8.33-4.79-3.42-10-6.62-16.52-6-2.79.26-3.63,1.19-3.57,3.87.15,6.82,0,13.64.13,20.46.06,2.88-1.17,4.13-4,4.11-3.88,0-7.76,0-11.64-.08s-5-1.34-5-5.15c0-18.47.08-36.93,0-55.4,0-3.42,1.25-4.7,4.5-4.66,4.12,0,8.23-.05,12.35-.13,2.61,0,3.84,1,3.75,3.77-.17,5.29,0,10.59-.14,15.88-.06,2.51.76,3.53,3.4,3.68,6.92.41,13.23-.72,17.91-6.33,2.93-3.52,4.64-7.47,4.24-12.31-.37-4.4.27-4.74,4.77-4.61,3.06.09,6.12.11,9.17,0,2.5-.07,5.29.21,6,2.68s.21,5.43-.07,8.13a16,16,0,0,1-1.47,4.82,44,44,0,0,1-4.19,8.06C187.59,33.34,184.92,35.61,182.33,38.29Z"/><path class="cls-2" d="M364.61,48.68c0,6.47-.1,12.94,0,19.41.06,3.11-1.35,4.22-4.26,4.15-3.28-.07-6.58-.11-9.86,0-3.07.1-4.51-1-4.46-4.31.14-10.58.43-21.18-.11-31.74a23.43,23.43,0,0,0-4.09-11.11c-3-4.54-12.55-5.32-17.49-2.89-6.32,3.09-8.65,7.69-8.35,14.64.45,10.33,0,20.69.2,31,0,3.16-1.48,4.29-4.2,4.34-4.23.09-8.46.06-12.69,0-2.61,0-4.06-1.12-4-4.09.1-12.35-.16-24.7.19-37,.08-2.75,1.64-5.78,3.32-8.1A83.72,83.72,0,0,1,309.43,10.6c2.09-1.94,5.69-2.14,8.29-3.66,6-3.54,12.57-1.85,18.89-2.06,5.28-.18,9.77,2.79,13.81,5.59A45.59,45.59,0,0,1,361.2,21.25c1.83,2.56,3.78,5.56,3.5,9.45-.44,6-.12,12-.12,18Z"/><path class="cls-1" d="M57.35,31.64c.78,6.37-6.73,11.44-11.07,11.49C40.51,43.2,34.91,37.38,35,31.42A11.3,11.3,0,0,1,46.14,20.58,11,11,0,0,1,57.35,31.64Z"/><path class="cls-1" d="M62.63,7.23c2.87,0,5.75,0,8.63,0,4.46,0,8.93-.05,13.39.07,2.91.07,4.08-1.12,3.78-4A11.87,11.87,0,0,1,89,0a15.41,15.41,0,0,1,3.27,1.48q7,5.32,13.83,10.86a10.8,10.8,0,0,1,1.71,2.43,9,9,0,0,1-2.73,1c-10.45,0-20.91-.16-31.36-.06-3.16,0-5.61-.42-7.51-3.33-1-1.55-3-2.45-4.57-3.64Z"/><path class="cls-1" d="M274.64,85.59c2.12,0,4.23,0,6.35,0,5.58.14,7.81,3.68,5.65,8.7a3.4,3.4,0,0,0,.39,2.8c3.44,4.83,1.53,10.07-4.4,10.63-5.23.49-10.55.12-15.83,0-2.24,0-3.35-1.49-3.36-3.72,0-4.93,0-9.86,0-14.79,0-2.31,1.17-3.49,3.46-3.52,2.58,0,5.16,0,7.74,0Zm1.43,12.69v0c-2.1,0-4.27-.3-6.28.12a4.09,4.09,0,0,0-2.47,2.71c-.17.89,1,2.93,1.6,3a134.52,134.52,0,0,0,14.62-.32c.83-.07,2.18-2.08,2.06-3s-1.77-2.1-2.9-2.29A39.56,39.56,0,0,0,276.07,98.28Zm-.61-3.42v0c1.88,0,3.85.34,5.61-.12,1.18-.3,2.06-1.71,3.08-2.63-.93-1-1.79-2.83-2.81-2.93a63.2,63.2,0,0,0-11.59-.09c-.95.08-2.25,2-2.4,3.14-.09.77,1.46,2.29,2.5,2.54C271.63,95.17,273.58,94.86,275.46,94.86Z"/><path class="cls-1" d="M442.64,107.88c-2.82,0-5.64.06-8.46,0s-4.51-1.52-4.45-4.65c.09-4.46,0-8.92,0-13.38,0-2.78,1.31-4.16,4-4.18,5.64,0,11.28-.12,16.92,0,.89,0,1.77,1,2.65,1.57-.92.58-1.81,1.61-2.75,1.65-4.34.15-8.69.08-13,0-2.34-.06-4,.53-4,3.19s2,2.78,3.95,2.76c4,0,8-.11,12,0,.84,0,1.65.88,2.48,1.35-.84.62-1.65,1.73-2.51,1.76-4,.13-8,0-12-.11-2.42-.09-3.86.76-3.93,3.32-.07,2.74,1.62,3.29,3.93,3.24,3.88-.1,7.76-.25,11.63,0,1.62.09,4.57,1.13,4.55,1.66-.1,2.84-2.64,1.79-4.32,1.9-2.22.15-4.46,0-6.69,0Z"/><path class="cls-1" d="M207.64,108.43c-2.63-.43-5.5-.33-7.84-1.4-4.16-1.9-6.1-5.51-6.17-10.25s1.86-8.76,6-10.31c3.55-1.34,7.83-.72,11.78-1.06,3.22-.28,5.62,1,7.74,3.34,3.55,3.94,3.27,8.43,1.86,12.93-1.13,3.62-5.82,6.34-10.1,6.37-1.06,0-2.12,0-3.18,0C207.69,108.18,207.67,108.31,207.64,108.43Zm0-4.09h2.81c5.39,0,8.22-2.7,8.2-7.8s-2.71-7.8-8.22-7.83c-1.87,0-3.75,0-5.62,0-5.3.15-7.74,2.65-7.74,7.9s2.39,7.67,7.76,7.7Z"/><path class="cls-1" d="M159,96.83a55.18,55.18,0,0,1-.09,7c-.16,1.23-1.21,2.34-1.85,3.51-.62-1.24-1.69-2.45-1.78-3.72-.19-2.92.16-5.87.15-8.81a9.94,9.94,0,0,0-.69-2.53,8.81,8.81,0,0,0-2.67,1.13,43.2,43.2,0,0,0-4.37,4.6c-1.81,2.17-3.47,2-5.27,0a58.78,58.78,0,0,0-4.67-4.8A9.06,9.06,0,0,0,135,92.13a11.69,11.69,0,0,0-.69,2.83c0,3.05.41,6.1.31,9.15,0,1.06-1,2.09-1.62,3.13-.58-1-1.64-2-1.66-3-.12-5.17,0-10.35.12-15.53,0-.92.65-2.5,1.18-2.58a4.25,4.25,0,0,1,3,1,80.8,80.8,0,0,1,6.82,6.65c1.78,2,3.29,1.88,5.05.11,2.32-2.33,4.64-4.68,7.1-6.86.77-.67,2.31-1.36,3-1s1.13,1.91,1.19,3c.17,2.58.06,5.17.06,7.76Z"/><path class="cls-1" d="M382.82,107.92c-2.58,0-5.16,0-7.74,0-3.07,0-4.54-1.52-4.56-4.53,0-4.81-.19-9.62,0-14.43,0-1,1.18-1.91,1.81-2.86.52.9,1.47,1.79,1.5,2.72.15,3.86.17,7.75-.05,11.61-.18,3,1,4,3.87,4,4.46-.13,8.93-.22,13.38,0,1.08,0,2.11,1.18,3.17,1.82-1.08.6-2.12,1.62-3.25,1.72-2.67.26-5.39.09-8.09.09Z"/><path class="cls-1" d="M332,96.61c0,2.81.12,5.63-.08,8.42-.05.82-1,1.58-1.57,2.37-.72-.76-2-1.49-2.07-2.27-.18-5.61-.19-11.24,0-16.85,0-.81,1.29-1.58,2-2.37.59.87,1.61,1.71,1.69,2.62.23,2.68.08,5.38.08,8.08Z"/><path class="cls-3" d="M434.14,38.54a16.73,16.73,0,0,1-5.56,14.05c-6.12,5.84-14.95,7.27-22.53,2.1A18,18,0,0,1,399,45.33c-3.22-9-2.37-14.35,4.39-20.37,2.68-2.39,5.92-4.39,9.91-4.1a8.27,8.27,0,0,0,2.11,0c8.79-1.68,13.42,4.18,17.57,10.2C434.26,32.92,433.8,36,434.14,38.54Z"/><path class="cls-3" d="M260.28,29.8H230.54c3.12-4.87,7-7.87,11.77-8.78C249.91,19.56,255.83,23.07,260.28,29.8Z"/><path class="cls-3" d="M276.07,98.28a39.56,39.56,0,0,1,6.63.11c1.13.19,2.78,1.38,2.9,2.29s-1.23,3-2.06,3a134.52,134.52,0,0,1-14.62.32c-.61,0-1.77-2.06-1.6-3a4.09,4.09,0,0,1,2.47-2.71c2-.42,4.18-.12,6.28-.12Z"/><path class="cls-3" d="M275.46,94.86c-1.88,0-3.83.31-5.61-.12-1-.25-2.59-1.77-2.5-2.54.15-1.18,1.45-3.06,2.4-3.14a63.2,63.2,0,0,1,11.59.09c1,.1,1.88,1.9,2.81,2.93-1,.92-1.91,2.33-3.08,2.63-1.76.46-3.73.12-5.61.12Z"/><path class="cls-3" d="M207.63,104.34h-2.81c-5.37,0-7.77-2.4-7.76-7.7s2.44-7.75,7.74-7.9c1.87,0,3.75,0,5.62,0,5.51,0,8.2,2.6,8.22,7.83s-2.81,7.79-8.2,7.8Z"/></g></g></svg>