<?xml version="1.0" encoding="utf-8"?>
<!-- Generator: Adobe Illustrator 24.2.0, SVG Export Plug-In . SVG Version: 6.00 Build 0)  -->
<svg version="1.1" id="Layer_1" xmlns="http://www.w3.org/2000/svg" xmlns:xlink="http://www.w3.org/1999/xlink" x="0px" y="0px"
	 viewBox="0 0 2928.1 382.1" style="enable-background:new 0 0 2928.1 382.1;" xml:space="preserve">
<style type="text/css">
	.st0{fill:#20194D;}
</style>
<g>
	<polygon class="st0" points="311.4,353.1 203,281.6 36.1,353.1 135,237.5 25.4,165.9 195.8,165.9 311.4,30.1 311.4,165.9 
		475.9,165.9 311.4,236.3 	"/>
	<path class="st0" d="M516.4,96.8c6,0,10.7-4.8,10.7-10.7V40.8c0-6-4.8-10.7-10.7-10.7H338.9v66.7H516.4z"/>
	<path class="st0" d="M516.4,353.1c6,0,10.7-4.8,10.7-10.7v-45.3c0-6-4.8-10.7-10.7-10.7H338.9v66.8H516.4z"/>
	<path class="st0" d="M2890.7,30.1h-220.5c-6,0-10.7,4.8-10.7,10.7v45.3c0,6,4.8,10.7,10.7,10.7h77.5v246.7c0,6,4.8,10.7,10.7,10.7
		h45.3c6,0,10.7-4.8,10.7-10.7V96.8h77.5c6,0,10.7-4.8,10.7-10.7V40.8C2901.5,34.8,2896.7,30.1,2890.7,30.1"/>
	<path class="st0" d="M2009.9,102.8c-4.8-14.3-13.1-27.4-23.8-38.1c-10.7-10.7-22.6-19.1-37-25c-14.3-6-31-9.5-48.9-9.5h-120.4
		c-6,0-10.7,4.8-10.7,10.7v302.7c0,6,4.8,10.7,10.7,10.7h45.3c6,0,10.7-4.8,10.7-10.7v-77.5h64.4c17.9,0,34.6-3.6,48.9-9.5
		c14.3-6,26.2-14.3,37-25c10.7-10.7,17.9-22.6,23.8-36.9c4.8-14.3,8.4-31,8.4-46.5C2017.1,131.4,2014.7,117.1,2009.9,102.8
		 M1946.7,168.3c-2.4,6-6,11.9-9.5,16.7c-4.8,4.8-9.5,7.2-14.3,9.5c-6,2.4-15.5,3.6-35.7,3.6h-51.3V96.8h66.8
		c7.1,0,14.3,1.2,19.1,3.6c6,2.4,10.7,5.9,15.5,10.7c3.6,4.8,7.2,9.5,9.5,15.5c2.4,6,3.6,13.1,3.6,21.5
		C1950.3,155.2,1949.1,162.4,1946.7,168.3"/>
	<path class="st0" d="M1557,123c0,7.2,1.2,10.7,3.6,14.3c2.4,3.6,7.2,7.2,11.9,10.7c5.9,2.4,11.9,4.8,20.2,7.2
		c8.4,2.4,16.7,3.6,25,4.8c15.5,2.4,31,6,45.3,9.5c15.5,3.6,28.6,9.5,40.5,16.7c11.9,7.1,21.5,17.9,27.4,29.8
		c7.1,13.1,9.5,28.6,9.5,47.7c-1.2,17.9-6,34.6-14.3,46.5c-8.3,11.9-19.1,22.6-32.2,29.8c-13.1,7.2-25,13.1-40.5,15.5
		c-15.5,2.4-32.2,3.6-46.5,3.6c-36.9-1.2-90.6-22.6-118-59.6c-2.4-3.6-4.8-8.4,1.2-14.3c6-6,33.4-34.6,33.4-34.6
		c6-6,10.7-1.2,13.1,1.2c15.5,23.8,47.7,40.5,72.7,41.7c13.1,0,14.3,0,22.6-1.2c7.2-1.2,14.3-2.4,20.3-6c6-2.4,10.7-6,14.3-10.7
		s6-10.7,6-17.9c0-7.2-1.2-13.1-4.7-16.7c-3.6-4.7-8.4-8.3-14.3-11.9c-6-3.6-14.3-6-22.6-7.2c-8.4-1.2-17.9-3.6-26.2-4.8
		c-14.3-2.4-28.6-4.8-41.7-8.4c-14.3-3.6-26.2-9.5-37-16.7c-10.7-7.2-20.3-16.7-26.2-28.6c-7.1-11.9-9.5-25-9.5-42.9
		c1.2-16.7,4.8-32.2,13.1-45.3c7.1-11.9,17.9-22.7,29.8-31c11.9-7.1,25-13.1,40.5-16.7c28.6-7.2,58.4-6,87,3.6
		c31,9.5,56,33.4,67.9,50.1c2.4,3.6,4.8,8.3,0,13.1l-32.2,32.2c-6,6-11.9,4.8-15.5-1.2c-16.7-25-38.1-35.7-63.2-36.9
		C1589.2,88.5,1558.2,94.4,1557,123"/>
	<path class="st0" d="M1418.7,69.4c-15.5-14.3-32.2-25-52.4-32.2c-20.3-7.1-40.5-10.7-63.2-10.7c-21.5,0-42.9,3.6-62,10.7
		c-20.3,7.2-38.1,17.9-52.5,32.2c-15.5,14.3-27.4,32.2-35.8,52.5c-8.3,20.3-13.1,44.1-13.1,70.3c0,26.2,4.8,50.1,13.1,70.3
		c8.4,20.2,20.3,38.1,35.8,52.4s32.2,25,52.5,32.2c20.3,7.1,40.5,10.7,63.2,10.7c23.8,0,46.5-3.6,66.7-11.9
		c20.3-8.3,38.1-19.1,52.4-34.6c14.3-14.3,26.2-32.2,34.6-52.4c8.3-20.3,11.9-42.9,11.9-67.9c0-26.2-4.8-50.1-13.1-70.3
		C1446.1,101.6,1433,83.7,1418.7,69.4 M1392.5,237.5c-4.8,11.9-11.9,22.7-20.3,31c-8.3,8.3-19.1,14.3-31,19.1
		c-11.9,4.8-23.8,6-38.1,6c-13.1,0-26.2-2.4-38.1-6c-11.9-4.8-21.4-10.7-29.8-19.1c-8.3-8.3-15.5-19.1-20.3-31
		c-4.8-13.1-8.4-27.4-8.4-44.1c0-16.7,2.4-32.2,8.4-44.1c4.8-13.1,11.9-22.6,20.3-31c8.3-8.3,19.1-14.3,31-19.1
		c11.9-4.8,25-7.2,38.1-7.2c13.1,0,26.2,2.4,38.1,7.2c11.9,4.8,21.5,10.7,29.8,19.1c8.3,8.4,15.5,19.1,20.3,32.2
		c4.8,13.1,8.3,27.4,8.3,44.1C1399.6,208.9,1397.3,224.4,1392.5,237.5"/>
	<path class="st0" d="M2319.8,69.4c-15.5-14.3-32.2-25-52.4-32.2c-20.3-7.1-40.5-10.7-63.2-10.7c-21.5,0-42.9,3.6-62,10.7
		c-20.3,7.2-38.1,17.9-52.4,32.2c-15.5,14.3-27.4,32.2-35.8,52.5c-8.3,20.3-13.1,44.1-13.1,70.3c0,26.2,4.8,50.1,13.1,70.3
		c8.3,20.2,20.3,38.1,35.8,52.4c15.5,14.3,32.2,25,52.4,32.2c20.3,7.1,40.5,10.7,63.2,10.7c23.8,0,46.5-3.6,66.8-11.9
		c20.3-8.3,38.1-19.1,52.4-34.6c14.3-14.3,26.2-32.2,34.6-52.4c8.3-20.3,11.9-42.9,11.9-67.9c0-26.2-4.8-50.1-13.1-70.3
		C2347.2,101.6,2335.3,83.7,2319.8,69.4 M2293.6,237.5c-4.8,11.9-11.9,22.7-20.3,31c-8.4,8.3-19.1,14.3-31,19.1
		c-11.9,4.8-23.8,6-38.1,6c-13.1,0-26.2-2.4-38.1-6c-11.9-4.8-21.5-10.7-29.8-19.1c-8.4-8.3-15.5-19.1-20.3-31
		c-4.8-13.1-8.3-27.4-8.3-44.1c0-16.7,2.4-32.2,8.3-44.1c4.8-13.1,11.9-22.6,20.3-31c8.3-8.3,19.1-14.3,31-19.1
		c11.9-4.8,25-7.2,38.1-7.2s26.2,2.4,38.1,7.2c11.9,4.8,21.4,10.7,29.8,19.1c8.3,8.4,15.5,19.1,20.3,32.2
		c4.8,13.1,8.3,27.4,8.3,44.1C2301.9,208.9,2298.4,224.4,2293.6,237.5"/>
	<path class="st0" d="M807.3,30.1H762c-6,0-10.7,4.8-10.7,10.7V241c0,8.4-1.2,15.5-4.8,22.7c-2.4,6-7.1,11.9-11.9,15.5
		c-4.8,4.8-10.7,7.1-17.9,9.5c-7.1,2.4-19.1,3.6-27.4,3.6c-8.3,0-21.4-1.2-28.6-3.6c-7.1-2.4-13.1-6-17.9-9.5
		c-4.8-3.6-8.4-9.5-11.9-15.5c-2.4-6-4.8-14.3-4.8-22.7V40.8c0-6-4.8-10.7-10.7-10.7h-45.3c-6,0-10.7,4.8-10.7,10.7v201.4
		c0,19.1,3.6,35.8,10.7,50.1c7.1,14.3,16.7,26.2,28.6,36.9c11.9,9.5,26.2,17.9,41.7,22.7s32.2,7.1,48.9,7.1
		c16.7,0,33.4-2.4,48.9-7.1c15.5-4.8,29.8-13.1,40.5-22.7c11.9-9.5,21.4-22.6,27.4-36.9c7.2-14.3,10.7-31,10.7-50.1V40.8
		C818,34.8,813.2,30.1,807.3,30.1"/>
	<path class="st0" d="M1126.7,336.4l-73.9-91.8c0,0,59.6-21.5,59.6-97.7c0-15.5-2.4-31-8.3-45.3c-4.8-14.3-13.1-27.4-23.8-38.1
		c-10.7-10.7-22.7-19.1-36.9-25c-14.3-5.9-31-9.5-48.9-9.5H875.2c-6,0-10.7,4.8-10.7,10.7v302.8c0,6,4.8,10.7,10.7,10.7h45.3
		c6,0,10.7-4.8,10.7-10.7V96.8H998c7.2,0,14.3,1.2,19.1,3.6c6,2.4,10.7,5.9,15.5,10.7c3.6,4.8,7.2,9.5,9.5,15.5
		c2.4,6,3.6,13.1,3.6,21.5c0,7.1-1.2,14.3-3.6,20.2c-2.4,6-6,11.9-9.5,16.7c-4.8,4.8-9.5,7.2-14.3,9.5c-6,2.4-15.5,3.6-35.8,3.6
		h-28.6c0,0-9.5,4.8-5.9,11.9l104.9,138.3c2.4,2.4,4.8,4.8,8.3,4.8h58.4C1129.1,354.3,1135.1,345.9,1126.7,336.4"/>
	<path class="st0" d="M2663.1,336.4l-73.9-91.8c0,0,59.6-21.5,59.6-97.7c0-15.5-2.4-31-8.3-45.3c-4.8-14.3-13.1-27.4-23.8-38.1
		c-10.7-10.7-22.6-19.1-36.9-25c-14.3-5.9-31-9.5-48.9-9.5h-120.4c-6,0-10.7,4.8-10.7,10.7v302.8c0,6,4.8,10.7,10.7,10.7h45.3
		c6,0,10.7-4.8,10.7-10.7V95.6h66.7c7.2,0,14.3,1.2,19.1,3.6c6,2.4,10.7,6,15.5,10.7c3.6,4.8,7.1,9.5,9.5,15.5
		c2.4,6,3.6,13.1,3.6,21.5c0,7.1-1.2,14.3-3.6,20.3c-2.4,6-6,11.9-9.5,16.7c-4.8,4.8-9.5,7.2-14.3,9.5c-6,2.4-15.5,3.6-35.8,3.6
		h-28.6c-6,0-9.5,4.8-6,11.9L2588,347.1c2.4,2.4,4.8,4.8,8.3,4.8h58.4C2665.5,354.3,2670.2,345.9,2663.1,336.4"/>
</g>
</svg>
