<svg xmlns="http://www.w3.org/2000/svg" xmlns:xlink="http://www.w3.org/1999/xlink" width="66.441" height="39.985" viewBox="0 0 66.441 39.985">
  <defs>
    <clipPath id="clip-path">
      <rect id="Rectangle_4583" data-name="Rectangle 4583" width="2.464" height="1.628" fill="#272c31"/>
    </clipPath>
    <clipPath id="clip-path-2">
      <rect id="Rectangle_4584" data-name="Rectangle 4584" width="2.504" height="1.53" fill="#272c31"/>
    </clipPath>
    <clipPath id="clip-path-3">
      <rect id="Rectangle_4588" data-name="Rectangle 4588" width="5.365" height="6.122" fill="#272c31"/>
    </clipPath>
    <clipPath id="clip-path-4">
      <rect id="Rectangle_4589" data-name="Rectangle 4589" width="2.034" height="1.745" fill="#272c31"/>
    </clipPath>
    <clipPath id="clip-path-5">
      <rect id="Rectangle_4590" data-name="Rectangle 4590" width="1.917" height="2.273" fill="#272c31"/>
    </clipPath>
    <clipPath id="clip-path-6">
      <rect id="Rectangle_4591" data-name="Rectangle 4591" width="1.917" height="1.745" fill="#272c31"/>
    </clipPath>
    <clipPath id="clip-path-7">
      <rect id="Rectangle_4592" data-name="Rectangle 4592" width="1.975" height="1.745" fill="#272c31"/>
    </clipPath>
    <clipPath id="clip-path-10">
      <rect id="Rectangle_4595" data-name="Rectangle 4595" width="4.753" height="4.362" fill="#272c31"/>
    </clipPath>
    <clipPath id="clip-path-11">
      <path id="Path_5042" data-name="Path 5042" d="M57.657,84.125a1.485,1.485,0,0,1,.57-.594,1.469,1.469,0,0,1,.416-.155l.461-.971.474,1a1.44,1.44,0,0,1,.307.127,1.459,1.459,0,0,1,.565.594H57.657m2.74-1.378a3.393,3.393,0,0,0-.316-.151,2.682,2.682,0,0,0-1.05-.2,2.517,2.517,0,0,0-1.163.273L56.719,85.29a2.082,2.082,0,0,0,.576.9,2.247,2.247,0,0,0,1.013.545.427.427,0,0,0,.1-.064.52.52,0,0,0,0-.745.807.807,0,0,0-.541-.143h-.249l.252-.6h3.579L60.4,82.747" transform="translate(-56.719 -82.395)" fill="#272c31"/>
    </clipPath>
  </defs>
  <g id="Group_1746" data-name="Group 1746" transform="translate(-30.272 -587.137)">
    <path id="Path_4979" data-name="Path 4979" d="M73.894,147.11a3.679,3.679,0,0,1-3.066,4.136l-52.786,6.512a3.546,3.546,0,0,1-3.867-3.277L12.306,137.2a3.68,3.68,0,0,1,3.065-4.134l52.79-6.513a3.548,3.548,0,0,1,3.865,3.276Z" transform="translate(38.039 460.78) rotate(7)" fill="none" stroke="#272c31" stroke-miterlimit="10" stroke-width="1.3"/>
    <g id="Group_1745" data-name="Group 1745">
      <g id="surface1" transform="translate(38 600)">
        <g id="Group_1601" data-name="Group 1601" transform="translate(1.141 0.015)">
          <path id="Path_4980" data-name="Path 4980" d="M61.665,2.306a3.361,3.361,0,0,1,.316.151L61.25.758H59.036A.808.808,0,0,0,58.493.9a.479.479,0,0,0-.157.372.479.479,0,0,0,.157.372.807.807,0,0,0,.543.143h.675l-.258.59a2.522,2.522,0,0,1,1.163-.273,2.685,2.685,0,0,1,1.05.2" transform="translate(-58.336 -0.758)" fill="#272c31"/>
        </g>
        <g id="Group_1605" data-name="Group 1605" transform="translate(4.538 4.499)">
          <g id="Group_1604" data-name="Group 1604" clip-path="url(#clip-path)">
            <g id="Group_1603" data-name="Group 1603" transform="translate(0.016 0.001)">
              <g id="Group_1602" data-name="Group 1602">
                <path id="Path_4981" data-name="Path 4981" d="M235.036,230.763a.813.813,0,0,0-.485-.093l-.257-.6h-1.106l.2.476.008,0a2.4,2.4,0,0,1,.494-.092.421.421,0,0,1,.316.133.463.463,0,0,1,.128.335.411.411,0,0,1-.137.312,2.187,2.187,0,0,1-.892.323q-.25.054-.494.089a1.173,1.173,0,0,0,.379.052h1.36a.8.8,0,0,0,.538-.143.479.479,0,0,0,.157-.372.565.565,0,0,0-.21-.422" transform="translate(-232.812 -230.074)" fill="#272c31"/>
              </g>
            </g>
          </g>
        </g>
        <g id="Group_1609" data-name="Group 1609" transform="translate(0 4.596)">
          <g id="Group_1608" data-name="Group 1608" clip-path="url(#clip-path-2)">
            <g id="Group_1607" data-name="Group 1607" transform="translate(0 0.01)">
              <g id="Group_1606" data-name="Group 1606">
                <path id="Path_4982" data-name="Path 4982" d="M.91,235.5l-.214.49a.8.8,0,0,0-.538.143.519.519,0,0,0,0,.745.8.8,0,0,0,.538.143H2.054a1.027,1.027,0,0,0,.445-.079,2.252,2.252,0,0,1-1.013-.545,2.087,2.087,0,0,1-.576-.9" transform="translate(0 -235.496)" fill="#272c31"/>
              </g>
            </g>
          </g>
        </g>
        <g id="Group_1610" data-name="Group 1610" transform="translate(4.787 1.964)">
          <path id="Path_4983" data-name="Path 4983" d="M245.817,102.827l0-.514a2.053,2.053,0,0,0-.147-.8,2.735,2.735,0,0,0-.544-.835,1.738,1.738,0,0,0-.395-.283l1.049,2.436h.041" transform="translate(-244.727 -100.391)" fill="#272c31"/>
        </g>
        <g id="Group_1611" data-name="Group 1611" transform="translate(1.01 1.884)">
          <path id="Path_4984" data-name="Path 4984" d="M52.378,96.691a2.011,2.011,0,0,0-.73,1.608,2.2,2.2,0,0,0,.1.667L52.9,96.344a2.679,2.679,0,0,0-.518.347" transform="translate(-51.648 -96.344)" fill="#272c31"/>
        </g>
        <g id="Group_1612" data-name="Group 1612" transform="translate(3.032 1.622)">
          <path id="Path_4985" data-name="Path 4985" d="M155.974,83.921l-.474-1-.461.971a1.928,1.928,0,0,1,.411-.042,1.87,1.87,0,0,1,.524.07" transform="translate(-155.039 -82.922)" fill="#272c31"/>
        </g>
        <g id="Group_1613" data-name="Group 1613" transform="translate(2.005 4.619)">
          <path id="Path_4986" data-name="Path 4986" d="M106.244,236.434a.421.421,0,0,0-.316-.133,2.411,2.411,0,0,0-.494.092l-.008,0a5.782,5.782,0,0,1-1.378.223,2,2,0,0,1-1.388-.481l-.16.378h.249a.807.807,0,0,1,.541.143.519.519,0,0,1,0,.745.427.427,0,0,1-.1.064,3.207,3.207,0,0,0,.787.091,6.078,6.078,0,0,0,.869-.065c.162-.023.327-.053.494-.089a2.185,2.185,0,0,0,.892-.323.411.411,0,0,0,.137-.312.462.462,0,0,0-.128-.335" transform="translate(-102.5 -236.137)" fill="#272c31"/>
        </g>
        <g id="Group_1614" data-name="Group 1614" transform="translate(2.005 4.619)">
          <path id="Path_4987" data-name="Path 4987" d="M106.244,236.434a.421.421,0,0,0-.316-.133,2.411,2.411,0,0,0-.494.092l-.008,0a5.782,5.782,0,0,1-1.378.223,2,2,0,0,1-1.388-.481l-.16.378h.249a.807.807,0,0,1,.541.143.519.519,0,0,1,0,.745.427.427,0,0,1-.1.064,3.207,3.207,0,0,0,.787.091,6.078,6.078,0,0,0,.869-.065c.162-.023.327-.053.494-.089a2.185,2.185,0,0,0,.892-.323.411.411,0,0,0,.137-.312.462.462,0,0,0-.128-.335" transform="translate(-102.5 -236.137)" fill="#272c31"/>
        </g>
        <g id="Group_1636" data-name="Group 1636" transform="translate(23.711 0.065)">
          <path id="Path_4992" data-name="Path 4992" d="M1212.374,3.336a.464.464,0,0,0,.052.108.482.482,0,0,1-.137-.017c.042.022.1.012.132.049s-.043.07-.089.077a1.014,1.014,0,0,0,.131-.025.344.344,0,0,1,.136.008c.027.009.08.037.059.073s-.094.046-.12.059c0,0,0,0,0,0a.281.281,0,0,1,.272-.027.176.176,0,0,1,.063.109.11.11,0,0,1-.012.118c.017-.011.04-.011.048-.028s-.007-.047-.016-.065c-.019-.038-.048-.076-.013-.115s.063-.012.1,0,.085.01.077-.047a.5.5,0,0,0-.137,0c-.043.008-.076.038-.124,0a.287.287,0,0,0-.05-.034.157.157,0,0,1-.051-.032.312.312,0,0,1-.071-.119c.008.03.045.074,0,.089-.022.007-.083-.02-.1-.029a.291.291,0,0,1-.143-.147" transform="translate(-1212.289 -3.336)" fill="#272c31"/>
        </g>
        <g id="Group_1637" data-name="Group 1637" transform="translate(24.376 0.357)">
          <path id="Path_4993" data-name="Path 4993" d="M1246.274,18.373c.015.047.082.074.115.1.014.013.045.047.023.064s-.089-.02-.1.017c.017.014.04.009.06.011,0,.04-.044.05-.026.094a.289.289,0,0,0,.075.091c.022.019.092.028.073.064s-.1.029-.093.081c.036,0,.042-.008.07-.023s.068-.012.09-.028c.072-.048-.041-.084-.076-.1-.053-.024-.154-.059-.095-.136.016-.021.044-.018.06-.044s0-.055-.013-.087a.231.231,0,0,1,0-.138c.008-.023.021-.044.047-.047s.066.026.067,0c0-.052-.108-.007-.128.008-.043.032-.026.089-.028.137-.047.008-.085-.05-.128-.064" transform="translate(-1246.27 -18.268)" fill="#272c31"/>
        </g>
        <g id="Group_1638" data-name="Group 1638" transform="translate(24.633 0.502)">
          <path id="Path_4994" data-name="Path 4994" d="M1259.992,26.656a.135.135,0,0,0-.012-.1c-.014-.033-.011-.071-.027-.1-.008-.016-.028-.025-.035-.041a.166.166,0,0,1,0-.068c0-.024.013-.025.032-.039a.059.059,0,0,0,.029-.05.261.261,0,0,0,0-.068c0-.02.009-.057,0-.074s0-.007-.011-.009c-.021.043,0,.106-.006.153,0,.018-.013.04-.036.034s-.023-.041-.033-.058a.211.211,0,0,1-.043-.108c0-.031,0-.062,0-.093a.9.9,0,0,0,0-.114v-.006a.7.7,0,0,1-.022.122c0,.018,0,.053-.025.043s-.037-.045-.05-.06c-.033-.04-.077-.06-.1-.11a.187.187,0,0,1-.021-.066c0-.027,0-.054,0-.082a.368.368,0,0,0-.011-.118c-.014.025,0,.071,0,.1a.187.187,0,0,1-.014.093c-.043-.005-.073-.06-.1-.089a.49.49,0,0,1-.04-.041.143.143,0,0,0-.027-.036l0,0c-.011.073.112.153.151.2.023.029.065.074.005.077a1.035,1.035,0,0,1-.156-.036c.027.032.116.04.156.055a.419.419,0,0,1,.134.091c.021.021.1.1.053.125-.016.01-.079-.007-.1-.008a.159.159,0,0,0-.094.017l0,.007a.269.269,0,0,1,.262.061.152.152,0,0,1,.036.113.073.073,0,0,1-.016.064c-.015.015-.04.009-.051.029,0-.075-.073-.11-.125-.145-.02-.013-.046-.042-.071-.044a.051.051,0,0,0-.051.059.131.131,0,0,1,.15.039.179.179,0,0,1,.047.067c.011.027,0,.073.015.1.029.045.052-.08.094-.082.12-.008.046.266.06.315.027-.028.041-.073.082-.089.063-.026.075.029.075.078a1.349,1.349,0,0,1-.012.135.579.579,0,0,1-.043.124,1.1,1.1,0,0,1,.11-.016c.024,0,.078.021.091-.011s-.07-.089-.091-.11c-.051-.052-.009-.113-.023-.181s-.1-.059-.135-.039" transform="translate(-1259.43 -25.641)" fill="#272c31"/>
        </g>
        <g id="Group_1639" data-name="Group 1639" transform="translate(25.232 1.008)">
          <path id="Path_4995" data-name="Path 4995" d="M1290.112,51.562a.475.475,0,0,0,.063.246c.016.035.052.109-.02.081-.034-.013-.065-.043-.1-.054,0,.022.091.066.111.08a.314.314,0,0,1,.1.118c.024.041.073.126.058.175s-.087-.017-.114-.033c-.006.025.077.072.1.088a.321.321,0,0,1,.088.123c.012.031.047.146.02.162s-.117-.042-.147-.054c0,.02.074.05.094.064a.167.167,0,0,1,.083.091c.036.1.021.215.055.315.024-.029.013-.1.013-.14a.382.382,0,0,0-.024-.152.157.157,0,0,1,.006-.141.283.283,0,0,0,.045-.134c-.006.033-.031.1-.065.119s-.052-.09-.059-.124c-.01-.054-.036-.109-.045-.164s.025-.108.04-.168a.121.121,0,0,0,.006-.05c-.028.038-.028.105-.071.141-.03-.008-.033-.069-.043-.095a.267.267,0,0,1-.025-.118c0-.07.029-.177-.01-.237a.572.572,0,0,1,0,.146c-.016.064-.045.048-.064,0-.034-.087-.109-.181-.094-.281" transform="translate(-1290.059 -51.562)" fill="#272c31"/>
        </g>
        <g id="Group_1640" data-name="Group 1640" transform="translate(24.771 1.278)">
          <path id="Path_4996" data-name="Path 4996" d="M1266.8,66.113a.443.443,0,0,1-.035-.057c-.014-.045.015-.1.028-.139a.476.476,0,0,1,.108-.185c-.044.012-.083.087-.1.124s-.017.092-.048.121-.057-.087-.069-.118a.285.285,0,0,1-.017-.175,1.6,1.6,0,0,1,.077-.188c-.031.029-.073.189-.111.184a.7.7,0,0,1-.065-.172.666.666,0,0,1-.053-.171l-.007-.014a1.025,1.025,0,0,0,.044.175.574.574,0,0,1,.043.2c-.051-.029-.09-.092-.151-.1.017.023.053.034.075.052a.733.733,0,0,1,.077.079c.027.032.09.147.056.185-.06-.031-.1-.075-.174-.074.024.026.076.023.1.046a.335.335,0,0,1,.07.079.6.6,0,0,0,.028.063.7.7,0,0,0,.058.057.468.468,0,0,1,.137.219.723.723,0,0,1,0-.128.867.867,0,0,1,.036-.11c-.046.018-.024.1-.057.124-.034-.019-.033-.05-.05-.078" transform="translate(-1266.441 -65.324)" fill="#272c31"/>
        </g>
        <g id="Group_1641" data-name="Group 1641" transform="translate(25.269 1.861)">
          <path id="Path_4997" data-name="Path 4997" d="M1291.95,95.133c0,.009,0,.025-.008.036s-.02.016-.019.034c.041.006.038.125.021.153s-.033.031-.031.074c0,.011,0,.04.011.046s.021-.012.033-.016c.036-.01.043.011.051.046a.216.216,0,0,1,.006.107c-.007.026-.024.051-.006.075s.033,0,.064,0c.081,0,.028.108.031.157,0,.025.018.062.047.068.051.009,0-.022-.006-.036-.026-.047.024-.114,0-.168-.011-.028-.035-.037-.052-.058s-.017-.06-.028-.09a.449.449,0,0,1-.037-.1.7.7,0,0,1-.013-.141c.057-.026.077.118.08.154a.552.552,0,0,0,.019.1c.015.051.033.037.071.049a.073.073,0,0,1,.035.022c.015.026,0,.023-.012.043s-.014.011-.012.031a.061.061,0,0,0,.033.045c.051.012.044-.12.038-.152a.233.233,0,0,0-.03-.078c-.017-.025-.049-.037-.062-.064s.006-.041.017-.067-.007-.043-.035-.056a.346.346,0,0,1-.135-.095c-.026-.031-.054-.093-.072-.111" transform="translate(-1291.913 -95.133)" fill="#272c31"/>
        </g>
        <g id="Group_1642" data-name="Group 1642" transform="translate(25.566 2.676)">
          <path id="Path_4998" data-name="Path 4998" d="M1307.379,136.83a.258.258,0,0,0-.081.111c-.016.033-.031.112-.064.129-.02-.015-.01-.044-.021-.064-.016.017,0,.044,0,.064a.184.184,0,0,1-.007.074.07.07,0,0,1-.034.05c-.018.01-.068,0-.062.034a.2.2,0,0,0,.1-.036c.04-.026.061-.04.07.019.006.037.031.067.034.1,0,.019-.011.044.007.06s.043-.007.066,0c.008-.028-.015-.021-.023-.035a.115.115,0,0,1-.009-.039.184.184,0,0,0-.031-.07.078.078,0,0,1,.07-.118c-.049-.02-.076.044-.123.04a.343.343,0,0,1-.026-.037c-.008-.023,0-.024.012-.047s.022-.063.035-.094c.024-.055.064-.1.09-.152-.006,0-.007,0-.013.01" transform="translate(-1307.113 -136.824)" fill="#272c31"/>
        </g>
        <g id="Group_1643" data-name="Group 1643" transform="translate(24.79 2.875)">
          <path id="Path_4999" data-name="Path 4999" d="M1267.466,147.017c-.036.084.083.022.1.03s.019.128.016.156a.663.663,0,0,0-.017.084c0,.026.025.039.03.064a.155.155,0,0,1,0,.052c0,.021-.01.02-.016.036a.226.226,0,0,0-.007.087h.013a.163.163,0,0,1,.008-.07c.015-.025.027-.03.036-.058a.115.115,0,0,0,.008-.06c0-.019-.02-.039-.021-.057s.024-.04.028-.061-.008-.051-.007-.078a.151.151,0,0,0,0-.075c-.008-.02-.029-.033-.038-.052-.028-.019-.043.007-.069.016s-.036,0-.065-.01" transform="translate(-1267.459 -147.008)" fill="#272c31"/>
        </g>
        <g id="Group_1644" data-name="Group 1644" transform="translate(24.841 3.269)">
          <path id="Path_5000" data-name="Path 5000" d="M1270.186,167.173a1.624,1.624,0,0,1,.036.259.472.472,0,0,1-.094-.064c-.023-.015-.083-.064-.109-.053.009.021.043.031.064.041a.39.39,0,0,1,.072.057.239.239,0,0,1,.092.151c.021-.005.081-.094.023-.085a.345.345,0,0,1,0-.147c0-.03.047-.113.028-.134-.011.02-.034.141-.074.084-.022-.033.014-.142-.045-.147,0,0,.007.007.007.013v.027" transform="translate(-1270.02 -167.133)" fill="#272c31"/>
        </g>
        <g id="Group_1645" data-name="Group 1645" transform="translate(25.269 3.127)">
          <path id="Path_5001" data-name="Path 5001" d="M1292.355,159.871c-.037.029-.022.073-.038.111-.024,0-.042-.024-.043.014,0,.008.012.018.014.027a.162.162,0,0,1,0,.04c0,.052-.013.106-.017.159,0,.076-.046.033-.07-.008a.3.3,0,0,1-.052-.12c-.024.034.011.1.034.125a.167.167,0,0,1,.045.148.66.66,0,0,1-.04.148c-.016.035-.046.129-.084.14-.021-.026,0-.076-.021-.1-.022.019,0,.1,0,.126a.189.189,0,0,1-.031.121c-.02.03-.038.06-.057.092a.533.533,0,0,0-.057.09c.081.008.148-.184.176-.241a.391.391,0,0,1,.094-.128c.026-.021.117-.059.117-.085-.023.011-.128.071-.118.023,0-.009.017-.02.021-.029a.279.279,0,0,0,.014-.06c.006-.026.013-.053.019-.079a.331.331,0,0,1,.067-.141c.032-.039.087-.074.109-.121,0-.011.009-.012.006-.022-.05.032-.077.1-.128.123-.02-.016,0-.065,0-.088a.984.984,0,0,1,.011-.106c.005-.026.012-.049.016-.078s.019-.059.01-.074" transform="translate(-1291.941 -159.871)" fill="#272c31"/>
        </g>
        <g id="Group_1646" data-name="Group 1646" transform="translate(21.738 2.747)">
          <path id="Path_5002" data-name="Path 5002" d="M1111.548,140.6c-.021.012-.036.039-.051.02s0-.054,0-.071a.1.1,0,0,0-.01-.067s-.022-.013-.027-.018-.009-.02-.016-.027c-.03.037,0,.145,0,.192,0,.076.031.143.027.221-.007.161-.041.329-.054.491a.084.084,0,0,1,0,.03l0,.006c.042-.007.044-.074.054-.105s0-.033.006-.069c0-.069.007-.171.014-.239,0-.034.023-.045.036-.075s.006-.04-.012-.067a.079.079,0,0,1-.015-.071c.01-.028.039-.03.054-.051s.029-.081.014-.1h-.017" transform="translate(-1111.41 -140.441)" fill="#272c31"/>
        </g>
        <g id="Group_1647" data-name="Group 1647" transform="translate(21.62 2.814)">
          <path id="Path_5003" data-name="Path 5003" d="M1105.451,143.855a1.126,1.126,0,0,0-.024.148c0,.071-.016.156-.023.226a4.157,4.157,0,0,0-.02.467c0,.046.01.09.01.137a.506.506,0,0,0,.01.117c.039,0,.011-.343.013-.39,0-.071,0-.127,0-.2s.013-.151.023-.219.012-.1.018-.156c0-.024.026-.132-.008-.131" transform="translate(-1105.384 -143.855)" fill="#272c31"/>
        </g>
        <g id="Group_1648" data-name="Group 1648" transform="translate(21.252 2.849)">
          <path id="Path_5004" data-name="Path 5004" d="M1086.808,146.921c.018.03.032.088.068.1s.052,0,.043-.033c0-.014-.025-.025-.034-.037-.02-.027-.031-.089-.073-.089-.044-.029-.04,0,0,.058m-.023-.566c0,.044-.046.053-.047.1a.064.064,0,0,0,.023.053c.008.007.022.01.031.017s.012.018.017.024c.026-.023.021-.093.012-.125a.459.459,0,0,1-.016-.054c0-.022.006-.048-.007-.067C1086.776,146.31,1086.777,146.334,1086.784,146.355Zm.433,1.011c-.028-.014-.057,0-.083.006-.06,0-.1-.05-.13-.094s-.063-.081-.09-.124-.007-.049,0-.075-.022-.019-.056-.036c-.062-.031-.063-.1-.1-.152-.014-.021-.034-.034-.036,0s.021.043.033.065a.364.364,0,0,0,.038.076c.023.027.027.033,0,.063-.059.063-.089-.028-.117-.073s-.121-.147-.074-.218a.4.4,0,0,1,.055.129.4.4,0,0,0,.08.126c.031-.037-.032-.1-.05-.128-.028-.051-.029-.124.05-.091.021-.015.006-.048-.013-.058-.037-.019-.064.009-.074-.047a.255.255,0,0,1,.01-.083.932.932,0,0,1,.011-.095c.017-.061.048-.112.063-.174a.507.507,0,0,1,.026-.116.419.419,0,0,1,.041-.056c.023-.032.065-.167.023-.2-.037.021,0,.048-.012.07s-.036.015-.052.045-.022.042-.031.063a1.29,1.29,0,0,0-.066.2c-.007.024-.022.181-.057.168-.019-.007.019-.12.024-.144s.019-.05-.007-.061a.1.1,0,0,0-.035.054c-.021,0-.048-.049-.04-.066s.026,0,.034-.007a.052.052,0,0,0,.02-.028c.018.008.026.027.036.041a.45.45,0,0,0,.058-.154.818.818,0,0,1,.08-.169c.025-.05.089-.089.09-.148,0-.035-.022-.058-.009-.091s.027-.051.037-.074.006-.046.027-.063c.009.032-.015.067-.02.1s0,.073-.01.108a1.717,1.717,0,0,0-.035.2c0,.064-.006.127-.009.191s0,.137,0,.2a.234.234,0,0,0,.029.148c.019.031.066.081.057.12-.037.016-.092-.1-.113-.115s-.095-.119-.115-.046.043.111.08.162.1.125.14.191a.553.553,0,0,1,.043.084.27.27,0,0,0,.05.073.87.87,0,0,1,.07.173.126.126,0,0,0,.105.084.125.125,0,0,1,.061.036c.012.013.032.032.023.049-.022-.009-.036-.033-.058-.044" transform="translate(-1086.543 -145.648)" fill="#272c31"/>
        </g>
        <g id="Group_1652" data-name="Group 1652" transform="translate(20.635 0)">
          <g id="Group_1651" data-name="Group 1651" transform="translate(0 0)" clip-path="url(#clip-path-3)">
            <g id="Group_1650" data-name="Group 1650" transform="translate(0.003 -0.001)">
              <g id="Group_1649" data-name="Group 1649">
                <path id="Path_5005" data-name="Path 5005" d="M1056.019,1.074a1.324,1.324,0,0,1-.162.268.468.468,0,0,0-.115.239c.063-.022.1-.137.138-.189s.149-.21.2-.3c-.007,0,.018-.032-.009-.058s-.05.036-.05.036m-.345,1.119a.609.609,0,0,0-.041.117.607.607,0,0,0-.027.2,1.623,1.623,0,0,0,.068-.2c.012-.04.049-.091.03-.134a.06.06,0,0,0-.034.026Zm-.171-.014c-.028.027-.015.074-.018.113a.417.417,0,0,1-.024.1.494.494,0,0,0-.026.162c0,.038.031.04.045.072a1.718,1.718,0,0,0,.014-.175c0-.033.017-.066.022-.1s.048-.172.015-.2c-.01.013-.019.011-.033.017Zm.22-.166c-.012.027.02,0,.044.025a.62.62,0,0,0,.1-.245c-.085.006-.121.119-.139.179Zm-.095-.3a.594.594,0,0,1-.041.168c-.006.019-.013.038-.018.058s-.013.043-.009.055.029.049.041.04c.031-.025.033-.1.039-.129a.235.235,0,0,1,.018-.069c.016-.031.053-.093.011-.121a.027.027,0,0,0-.041.006Zm1.047-1.175a.035.035,0,0,0-.008.053c.066.01.125-.055.175-.088s.093-.065.141-.092.1-.063.156-.09.114-.079.168-.079c-.047.037-.114.07-.167.1s-.124.079-.185.115-.119.072-.172.11c-.022.015-.152.107-.082.12.026,0,.06-.036.079-.051a.418.418,0,0,1,.078-.043c.061-.028.113-.06.17-.092a3.278,3.278,0,0,0,.329-.2c.049-.037.121-.141.018-.143a.546.546,0,0,0-.229.072,2.58,2.58,0,0,0-.365.21A.364.364,0,0,0,1056.675.534Zm-.321.2c.05.027.174-.193.209-.232a1.561,1.561,0,0,1,.31-.253,1.2,1.2,0,0,1,.391-.183c.023-.005-.138.068-.2.1s-.139.085-.209.128a1.131,1.131,0,0,0-.164.134c-.012.01-.076.058-.072.076.007.04.072-.021.085-.032a1.775,1.775,0,0,1,.392-.241c.049-.023.369-.143.257-.244-.078-.025-.157.026-.226.045a.945.945,0,0,0-.217.1,1.344,1.344,0,0,0-.3.267,1.339,1.339,0,0,0-.134.156,1.374,1.374,0,0,1-.109.153C1056.363.707,1056.35.721,1056.353.732Zm-.2.162c-.052.038-.042.049-.072.1.014-.007.009.1.027.09a1.428,1.428,0,0,0,.1-.134.348.348,0,0,0,.072-.161.131.131,0,0,0-.081.045Zm2.409,4.1c0-.011.008-.017.031-.03s.051-.026.075-.041.028-.021.034-.066.031-.064.013-.1c-.026-.055-.1-.019-.136.021-.045.056.014.1.035.147-.045.03-.057-.072-.119-.011-.024.023-.02.057-.05.06-.009,0-.091-.042-.132-.025-.048-.061.119-.021.156-.052a.246.246,0,0,0,.058-.057c.019-.032.012-.075.044-.1.057-.039.2-.035.239.019.021.03,0,.07.037.091s.051-.014.074-.034c.047-.039.107-.075.159-.11.014-.01.054-.031.062-.047.015-.032-.011-.047.018-.078a.156.156,0,0,0,.112.03c-.008-.019-.04-.054-.029-.077s.073-.022.1-.045.034-.082.061-.116.07-.071.1-.108.03-.038.063-.044.04.015.077.014c.073,0,.1-.071.164-.092s.134,0,.175-.054c.024-.033-.01-.052,0-.09a.145.145,0,0,1,.048-.061.682.682,0,0,0,.147-.125.215.215,0,0,0,.037-.08c0-.036-.036-.06-.034-.095a.417.417,0,0,1,.051-.1c.022-.038.056-.065.075-.1a.557.557,0,0,0,.034-.12.237.237,0,0,0,.008-.1c-.006-.024-.029-.039-.029-.064.047-.022.123-.076.078-.122s-.056-.02-.017-.055.051-.037.06-.075-.013-.057-.035-.088-.006-.034.009-.076c.029-.077-.019-.116-.041-.182-.027,0-.065.011-.094.018s-.041.031-.065.056-.061,0-.093.037a.167.167,0,0,0-.034.079,2.219,2.219,0,0,0-.009.229.382.382,0,0,1-.017.1.932.932,0,0,1-.028.093c-.031.061-.093.013-.106-.029.077.032.069-.068.077-.126a1.8,1.8,0,0,0,.039-.209.226.226,0,0,0,0-.055c0-.009-.013-.028-.013-.035,0-.032.023-.033.038-.061s0-.06,0-.094,0-.037.037-.053a.12.12,0,0,0,.062-.163.067.067,0,0,1,.056-.02c.013-.035,0-.074.005-.111a.27.27,0,0,1,.049-.1c.008-.015.034-.077.023-.091s-.063,0-.072-.036.052-.077.063-.1a.158.158,0,0,0,.012-.123c-.007-.033,0-.117-.055-.095-.026.011-.044.073-.083.055-.01-.028,0-.042.005-.068s.014-.057.017-.083-.011-.041-.022-.067c-.021-.052.023-.149-.023-.191-.029-.027-.039.005-.063.017-.057.029-.042-.029-.046-.066s0-.07,0-.1-.04-.138-.067-.137-.035.042-.06.032-.026-.051-.028-.069a.072.072,0,0,0-.024-.05c-.021-.026-.056-.093-.1-.083s-.033.08-.07.1c-.04-.01-.05-.089-.063-.124a1.225,1.225,0,0,1-.034-.163c0-.026-.018-.087-.05-.092s-.02.081-.072.073-.043-.144-.064-.181-.031-.044-.043-.069-.024-.047-.049-.044-.031.035-.052.036a.3.3,0,0,1-.07-.036.359.359,0,0,1-.082-.045c-.025-.02-.031-.036-.063-.033s-.1.071-.133.013a.051.051,0,0,0-.008-.06c-.027-.027-.034,0-.052.011-.051.044-.088-.021-.107-.07a.169.169,0,0,0-.08-.092c-.031-.021-.1-.081-.138-.07s-.044.045-.079.029-.035-.005-.061-.015a.265.265,0,0,0-.15-.037c-.023,0,0,.023-.02.039s-.066.01-.089.011-.06-.01-.076.019c-.027.045.037.083.07.1s.037.013.04.04-.016.047,0,.07c.022.043.121.03.158.031s.045.008.047.049-.015.054.02.07c.018.008.044,0,.062.01s.025.018.037.023a.24.24,0,0,0,.1,0c.022,0,.077-.031.095-.01s-.013.048-.006.072c.013.041.036.032.066.03.054,0,.038.027.046.063a.1.1,0,0,0,.06.076c.036.017.085,0,.119.02s.065.064.058.1-.051.053-.072.078c-.053.064.076.044.107.073a.64.64,0,0,1,.05.07c.019.023.016.045.031.067.035.051.117.03.162.059a.251.251,0,0,0-.04.1.3.3,0,0,0-.012.06.334.334,0,0,0,.012.069c.006.054-.051.064-.055.111,0,.03.015.047.031.07a.364.364,0,0,1,.044.092c-.016.019-.047.014-.061.031s0,.078.017.1a.362.362,0,0,0,.092.057c.05.032.112.033.158.073a1.71,1.71,0,0,1,.112.134.345.345,0,0,1,.072.083c.011.025.012.051.024.076a.992.992,0,0,0,.158.241.313.313,0,0,1,.086.106c.019.05.037.117.1.106,0,.021-.024.029-.032.048a.388.388,0,0,0-.01.066c-.009.044,0,.089-.007.134a1.316,1.316,0,0,1-.03.132.557.557,0,0,1-.025.126c-.017.018-.039-.007-.059,0s-.018.043-.017.062a.3.3,0,0,0,.014.089.1.1,0,0,1,.006.082c-.015.03-.037.029-.063.024s-.035-.006-.026-.039c.014-.05,0-.12.022-.169-.023.012-.054,0-.066.019a.3.3,0,0,0-.009.047.218.218,0,0,1-.018.048c-.045.01-.016-.1-.022-.128-.021-.076-.074,0-.112-.027s-.02-.135-.02-.168c0-.059.016-.113.016-.171,0-.043-.008-.157-.07-.152-.03,0-.038.036-.066.01s-.021-.049-.059-.036-.045.088-.065.125-.027.024-.06.036c-.1.037.038.146.057.184a.453.453,0,0,1,.022.179.189.189,0,0,1-.016.1c-.021.026-.064.005-.083.023s0,.048.01.066.006.058.013.086c.017.067.081.084.136.118a.178.178,0,0,1,.062.058c.026.048.023.1.082.05a1.138,1.138,0,0,0,.092-.109c.048-.053.1-.1.146-.153a.157.157,0,0,1,.042.079.674.674,0,0,0,.023.1c.012.015.037,0,.05.021s0,.033,0,.052c-.011.048-.029.042-.077.044a.736.736,0,0,1,.023.075c0,.042-.009.028-.036.046a.089.089,0,0,0-.035.09.479.479,0,0,1-.012.14.27.27,0,0,1-.027.075c-.023.037-.09.08-.128.037s.047-.084.068-.114a.471.471,0,0,0,.05-.159.232.232,0,0,1,.041-.1c.014-.016.026-.011.026-.038a.068.068,0,0,0-.027-.05c-.018.023-.028.05-.046.073a.205.205,0,0,0-.045.1.243.243,0,0,1-.039.079c-.026.043-.03.021-.061,0a.084.084,0,0,0-.007.07c.007.02.036.037.031.057s-.053.022-.072.036-.032.051-.047.071a1.371,1.371,0,0,1-.128.142.538.538,0,0,0-.045.064c-.019.024-.041.025-.063.04s-.032.047-.051.051c-.038.007-.013-.041,0-.056a.157.157,0,0,1,.067-.045c.031-.013.036-.021.049-.055a1.987,1.987,0,0,1,.167-.363c.035-.055.062-.109.1-.161s.094-.091.137-.139a.538.538,0,0,0,.086-.12c.023-.049-.013-.119-.061-.06-.063.077-.128.154-.193.231-.035.041-.069.082-.1.125a1,1,0,0,0-.079.146c-.012.024-.013.069-.038.074s-.061-.019-.081-.023a.834.834,0,0,1-.014.178.5.5,0,0,1-.086.17c-.015.022-.031.043-.045.065a.175.175,0,0,0-.023.092c-.009.063-.067.09-.119.117a.388.388,0,0,1-.073.039c-.007.007-.053.05-.066.037s.019-.05.026-.061c.02-.035.031-.089-.02-.1s-.132.036-.18.061a.825.825,0,0,1-.17.078.407.407,0,0,0-.161.066.844.844,0,0,0-.113.135c-.062.081-.206-.034-.3-.035-.238,0-.194.106-.3.074-.057-.018-.116.017-.153-.035-.015-.021-.021-.046-.038-.066a.354.354,0,0,0-.055-.049.586.586,0,0,0-.122-.083c-.057-.028-.121-.046-.182-.07a.337.337,0,0,0-.15-.043c-.035,0-.095.02-.11.055a.039.039,0,0,0,.017.057c.038.021.043-.006.063-.028a.108.108,0,0,1,.065-.032.1.1,0,0,1,.128.07.266.266,0,0,0,.077.149c.069.061.056.03.08.083-.015,0-.025.017-.078-.031-.021-.019-.046-.038-.065-.059s-.029-.066-.053-.092c-.017.015-.041.01-.063.011a.265.265,0,0,1-.018.08.106.106,0,0,1-.077-.057.2.2,0,0,0-.066-.061,3.648,3.648,0,0,1-.294-.258.439.439,0,0,1-.094-.112.886.886,0,0,0-.069-.134c-.011.012-.033.021-.039,0,.044-.007.035-.165.013-.192a.108.108,0,0,1-.066-.011.688.688,0,0,1-.063-.1c-.02-.029-.062-.071-.061-.108.048,0,.063.008.08-.037s.015-.08.026-.117a.88.88,0,0,1,.068-.212.8.8,0,0,0,.109-.2,1.36,1.36,0,0,0,.043-.249c0-.029-.011-.041-.031-.062s-.035,0-.047-.038.034-.146.008-.2-.041.026-.077.019-.031-.063-.048-.086c-.06-.082-.1.073-.113.113a.517.517,0,0,1-.045.087.554.554,0,0,0-.035.072.752.752,0,0,1-.071.119.739.739,0,0,0-.056.113,2.422,2.422,0,0,0-.128.3.328.328,0,0,1-.075-.144.551.551,0,0,1-.063-.161.214.214,0,0,0-.017-.082.331.331,0,0,1-.042-.08c-.015-.069-.073-.254,0-.305.034-.025.035-.032.049-.077a1.1,1.1,0,0,1,.1-.2c.034-.061.06-.126.1-.185a1.258,1.258,0,0,0,.137-.216,1.4,1.4,0,0,0,.041-.156,1.837,1.837,0,0,1,.079-.189c.022-.046.044-.088.063-.134a.62.62,0,0,1,.073-.138c-.025.083-.054.148-.08.217a1.491,1.491,0,0,0-.138.414,1.365,1.365,0,0,0,.142-.17.774.774,0,0,0,.109-.24,1.871,1.871,0,0,0,.051-.223c0-.029.031-.125.006-.147s-.158.105-.182.132c-.046.053-.078.121-.12.177a1.632,1.632,0,0,0-.207.436c-.04.117-.1.229-.14.354-.017.06-.044.118-.056.181-.008.039-.008.145-.077.125,0-.017.015-.03.018-.048a.455.455,0,0,0,0-.069c0-.043.016-.087.018-.134a.653.653,0,0,1,.032-.13c.01-.039.011-.081.023-.121.034-.012.16-.054.088-.107-.026.023-.05.065-.053,0a.294.294,0,0,1,.035-.105c.022-.061.027-.16.095-.183a.225.225,0,0,0,.136-.116,1.635,1.635,0,0,0,.1-.2,2.085,2.085,0,0,1,.241-.445c.075-.093.152-.193.225-.288-.032.051-.081.127-.116.177s-.07.082-.1.136-.066.108-.1.162-.086.192.009.117c.047-.038.1-.071.145-.111a.709.709,0,0,0,.129-.2c.04-.09.161-.289.081-.38-.029.016-.053.048-.081.067a.492.492,0,0,0-.095.066,1.9,1.9,0,0,0-.135.21c-.093.135-.14.284-.22.422-.039.067-.066.136-.1.2a.414.414,0,0,1-.057.1c-.029.028-.05.029-.042-.014a.517.517,0,0,1,.051-.092.693.693,0,0,1,.055-.1.914.914,0,0,0,.129-.208.461.461,0,0,0,.052-.155c-.028.029-.073.05-.093.082s-.025.074-.04.106a1.331,1.331,0,0,1-.121.184c-.028.041-.085.2-.138.163s.034-.189.054-.235a1.155,1.155,0,0,1,.152-.239c.051-.067.084-.139.129-.209s.113-.154.159-.23.038-.15.076-.226c.017-.034.09-.193.02-.178a.454.454,0,0,0-.156.123.938.938,0,0,0-.127.18.583.583,0,0,0-.075.2c0,.01-.046.134-.046.146a1.349,1.349,0,0,0,.174-.3c.029-.05.1-.173.162-.183a4.3,4.3,0,0,0-.412.685,1.024,1.024,0,0,0-.153.33c-.007.042-.017.087-.022.126s.026.071.071.086c.009.041-.022.063-.039.094a.83.83,0,0,0-.032.129c-.011.036-.023.108-.049.126s-.046-.011-.042.027c0,.02.064.068.006.078a1.627,1.627,0,0,0-.041.246,1.373,1.373,0,0,0-.031.268c-.049-.058-.089-.077-.108-.156a.958.958,0,0,1-.027-.224,1.677,1.677,0,0,1,.008-.309c.025-.138.034-.229.057-.367a.833.833,0,0,1,.154-.387.608.608,0,0,0-.07.166c-.015.071-.036.17-.05.243a2.663,2.663,0,0,0-.076.525,1.2,1.2,0,0,0,.014.139c.005,0,0,.088.008.09a.154.154,0,0,0,.041-.076c.01-.045.019-.163.028-.209.019-.092.047-.186.071-.276.045-.168.107-.4.141-.566a1.5,1.5,0,0,0,.027-.229c0-.022-.009-.072-.031-.085s-.066.038-.079.053a1.33,1.33,0,0,0-.2.377,1.472,1.472,0,0,0-.1.925,1.44,1.44,0,0,0,.06.287.283.283,0,0,0,.046.075c.028.029.056.024.086.04.049.028.019.044.013.083a.326.326,0,0,0,.018.107.563.563,0,0,0,.062.243c.014.019.024.014.031.041s0,.081.016.121a.506.506,0,0,0,.075.121.281.281,0,0,1,.059.122c.007.038-.009.108.017.138,0,0-.017.032-.012.029.019.068,0,.1.026.169s.084.064.141.087a.1.1,0,0,1,.005.025c-.026.016-.09,0-.12-.008a.087.087,0,0,1-.076-.051,2.1,2.1,0,0,1-.085-.21,5.446,5.446,0,0,0-.221-.535,2.163,2.163,0,0,1-.122-.269c-.016-.041-.106-.228-.161-.172-.038.039-.02.179-.018.219a.959.959,0,0,0,.028.221.876.876,0,0,0,.062.193c.038.082.08.191.127.269a.773.773,0,0,0,.138.167c.034.033.111.167.143.148.015-.045-.077-.179-.11-.241-.044-.08-.088-.16-.126-.24s-.145-.3-.178-.385,0-.067-.021-.162c0-.018-.006-.034-.009-.051a1.509,1.509,0,0,0,.156.439c.08.144.138.3.227.444.047.075.094.144.142.216a1.387,1.387,0,0,0,.128.224.256.256,0,0,0,.1.069c.039.013.081-.006.112.018a.623.623,0,0,1,.073.1c.03.038.058.08.085.12a.231.231,0,0,0,.067.078c.041.021.084.005.127.008.09.005.141.086.2.14a2.22,2.22,0,0,0,.286.2.831.831,0,0,0,.1.053l-.1.023a1.674,1.674,0,0,1-.243-.166.859.859,0,0,0-.129-.11,1.808,1.808,0,0,0-.17-.076.548.548,0,0,1-.194-.124c-.054-.057-.078-.134-.14-.186-.042-.036-.1-.01-.138-.047s-.076-.1-.122-.143-.1-.087-.149-.135a2.43,2.43,0,0,1-.168-.2,1.758,1.758,0,0,1-.145-.222,1.347,1.347,0,0,1-.162-.445,2.169,2.169,0,0,1-.021-.239c0-.055-.013-.167.028-.2s.107.011.133.047a1.112,1.112,0,0,1,.108.194c.067.139.117.275.185.412.03.061.057.124.082.185s.029.186.073.219a.459.459,0,0,0-.014-.263,1.376,1.376,0,0,1-.165-.306c-.017-.065-.04-.131-.061-.2-.029-.088,0-.2-.075-.265a.276.276,0,0,1-.066-.089,1.092,1.092,0,0,1-.055-.22,2.015,2.015,0,0,1-.046-.231,1.335,1.335,0,0,1-.007-.265,2.476,2.476,0,0,1,.029-.251,1.512,1.512,0,0,1,.13-.411c.029-.052.061-.126.09-.177a1.564,1.564,0,0,1,.136-.2c.032-.04.092-.1.115-.018a.528.528,0,0,1,.007.171.775.775,0,0,1-.012.149c.035-.073.055-.129.092-.2a5.234,5.234,0,0,1,.239-.513.623.623,0,0,1,.186-.19c.034-.021.132-.1.138-.011a.605.605,0,0,1-.038.181,1.283,1.283,0,0,1-.052.162c-.02.049-.058.1-.072.148,0,0,0,0,0,0,.016-.017.032-.036.047-.054.092-.109.175-.232.267-.343a2.019,2.019,0,0,1,.3-.28.979.979,0,0,1,.327-.15c.048-.015.134-.054.2.009.045.042,0,.074.007.12s.054.008.088.032.011.065,0,.086a.4.4,0,0,1-.132.145,4.249,4.249,0,0,1-.388.236,1.827,1.827,0,0,0-.187.1.644.644,0,0,1-.081.05c-.022.011-.056.018-.071.038a.227.227,0,0,0-.021.079.641.641,0,0,1-.072.176.765.765,0,0,1-.078.112c-.012.014-.049.023-.057.038s.005.046,0,.061a1.25,1.25,0,0,1-.044.268,1.422,1.422,0,0,1-.244.484c-.052.067-.11.119-.161.186a1.859,1.859,0,0,0-.136.18,2.654,2.654,0,0,0-.147.252.514.514,0,0,0-.035.277.687.687,0,0,0,0,.092.3.3,0,0,0,.047.08c.021.033.011.047.01.081a.168.168,0,0,0,.028.084.91.91,0,0,0,.07.14c.03-.051.036-.107.069-.157.056-.087.095-.184.15-.276a1.374,1.374,0,0,0,.117-.236c.015-.041.032-.167.1-.141a.088.088,0,0,1,.043.044c.008.016,0,.042.015.053s.066,0,.088.014.038.034.04.07a.3.3,0,0,1-.01.085.186.186,0,0,0-.007.04c0,.025,0,.012.016.024s.038.023.047.053a.356.356,0,0,1,0,.094,1.038,1.038,0,0,1-.02.195.954.954,0,0,1-.076.217c-.014.029-.032.051-.044.08s-.017.06-.029.091a1.966,1.966,0,0,0-.063.188c-.008.032-.008.063-.014.095-.012.06,0,.08.057.088.037.005.066.008.078.05a.62.62,0,0,1,.006.1.623.623,0,0,0,.017.1.389.389,0,0,0,.07.152,1.2,1.2,0,0,0,.1.1c.036.036.157.2.217.144.037-.034.069-.081.125-.082a.362.362,0,0,1,.132.036,1.574,1.574,0,0,1,.352.185.765.765,0,0,1,.1.117c.063.067.176-.01.242-.029a.4.4,0,0,1,.084,0c.049,0,.1-.042.142-.041.063,0,.07.065.114.085a.151.151,0,0,0,.071.007c.027-.005.021,0,.038-.03a.405.405,0,0,1,.113-.122.519.519,0,0,1,.07-.045c.031-.014.069-.017.1-.029.078-.032.15-.078.226-.115.044-.022.16-.093.207-.047.019.018.006.05.025.065s.106-.019.125-.045.007-.044.014-.066a.224.224,0,0,1,.038-.06.629.629,0,0,0,.111-.23.616.616,0,0,0,.006-.127c0-.049-.013-.07.03-.1a.085.085,0,0,1,.095-.014c.012-.023.011-.047.022-.07s.028-.033.035-.054c.014-.04-.02-.073,0-.112.01-.02.027-.022.024-.05a.1.1,0,0,0-.03-.052c-.036-.037-.088-.053-.125-.089s-.03-.109-.042-.167-.009-.084.05-.119.034-.084.037-.144a.237.237,0,0,0-.061-.164c-.033-.051-.065-.094-.014-.147a.4.4,0,0,0,.1-.115c.013-.029.019-.045.055-.053s.051.015.078.017.039-.01.061-.006c.04.008.072.056.083.092a.58.58,0,0,1,.013.174,1.006,1.006,0,0,1,0,.1c0,.02-.016.069-.007.088s.05.013.074.024a.139.139,0,0,1,.047.044c.042.057.049.008.1-.014.022-.01.051-.01.073-.02s.028-.032.034-.061a1.819,1.819,0,0,0,.04-.29.175.175,0,0,0-.021-.11c-.018-.028-.047-.048-.057-.081a.33.33,0,0,0-.059-.129c-.036-.043-.075-.085-.106-.13s-.05-.068-.073-.1a.45.45,0,0,1-.034-.08.539.539,0,0,0-.153-.193.3.3,0,0,0-.088-.037.231.231,0,0,1-.069-.052c-.049-.043-.127-.043-.131-.121a.113.113,0,0,1,.02-.084c.018-.024.037-.031.024-.065-.019-.052-.077-.084-.047-.151.01-.023.033-.033.041-.057s-.01-.058,0-.091.02-.047.024-.072a.094.094,0,0,1,.032-.066c-.047-.017-.095,0-.141-.027-.069-.04-.055-.129-.133-.16-.036-.014-.124-.024-.11-.08s.116-.051.079-.108-.1-.054-.146-.077c-.06-.032-.041-.107-.115-.122-.035-.007-.066,0-.071-.044,0-.016.012-.036,0-.047s-.04,0-.054.007a.2.2,0,0,1-.1,0c-.031-.013-.041-.039-.073-.044s-.076,0-.078-.046c0-.032.023-.057-.019-.075s-.061.01-.091.008-.04-.027-.058-.046-.034-.028-.034-.056,0-.042-.021-.061-.056-.016-.066-.044-.012-.1.024-.119.077.007.113-.005c.054-.018,0-.061.087-.053.027,0,.054-.005.077.009s.039.011.072.017.048.03.074.027.038-.027.071-.018a.439.439,0,0,1,.121.065.462.462,0,0,1,.1.095c.01.014.022.048.036.058s.025,0,.046-.011c.066-.027.073.027.1.07.006.009.1-.011.116-.009a.2.2,0,0,1,.1.046.112.112,0,0,0,.059.036c.031,0,.05-.024.077-.026.051,0,.092.055.1.1a.5.5,0,0,0,.029.078c.01.022.01.054.027.07.046-.024.1-.074.123,0a.5.5,0,0,0,.028.082.334.334,0,0,1,.036.083.4.4,0,0,1,.01.092c0,.036,0,.052.036.039s.035-.037.063-.04a.09.09,0,0,1,.062.031c.029.029.042.038.071.065s.02.063.038.072.062,0,.079.027a.685.685,0,0,1,.06.109c.018.047,0,.1,0,.145.043-.006.1-.017.121.037a.356.356,0,0,1,.01.084c0,.054.041.116.027.169,0,.016-.019.042-.01.06s.03.008.051.008a.069.069,0,0,1,.063.046.348.348,0,0,1,.015.189c-.006.039-.028.052-.042.087s.013.04.038.066c.052.053-.022.11-.048.159a.192.192,0,0,0-.027.088c0,.026.02.07,0,.1s-.023.008-.034.019,0,.015-.01.03c-.012.038-.01.086-.042.113s-.054.015-.052.055c0,.059.079.022.108,0s.041-.011.077-.019.044-.039.082-.023.068.114.069.155-.03.052-.027.08.016.014.03.029a.107.107,0,0,1,.023.052c.01.061-.046.111-.069.162.023.023.041.03.031.067s-.039.044-.056.07-.008.12-.013.168a.4.4,0,0,1-.056.165c-.016.025-.029.052-.045.077a.5.5,0,0,0-.048.067c-.013.036.034.068.027.108a.3.3,0,0,1-.076.118c-.022.026-.048.052-.073.076a.884.884,0,0,1-.071.055c-.036.03,0,.049-.008.094a.1.1,0,0,1-.052.066c-.052.036-.12.031-.172.058-.026.013-.046.036-.07.05-.053.032-.116.013-.171.034a.147.147,0,0,0-.058.055c-.02.027-.034.057-.056.083a.416.416,0,0,0-.059.07.869.869,0,0,1-.117.184.1.1,0,0,1-.075.037c-.038,0-.04.017-.069.041-.06.049-.128.085-.186.139a.13.13,0,0,1-.09.048c-.026,0-.071,0-.073.031,0,.043.079.069.092.092Zm.018.559a.954.954,0,0,0,.145.127.661.661,0,0,0,.217.119c.022.005.056.011.066.034.027.061-.056.069-.091.092a.577.577,0,0,1-.074.039.237.237,0,0,1-.2.036.169.169,0,0,1-.073-.056c-.022-.035-.017-.048-.062-.06-.061-.015-.089-.082-.134-.125s-.1-.081-.147-.125a.849.849,0,0,1-.151-.15c-.016-.026-.03-.051-.045-.074l.2.064a.843.843,0,0,0,.057.1.808.808,0,0,0,.179.163.725.725,0,0,0,.126.1c.032.015.133.022.142-.029,0-.021-.05-.073-.064-.09-.049-.062-.12-.089-.177-.145l-.038-.038Zm-.872-.08a.817.817,0,0,0-.153.108c-.012.01-.023.02-.036.03s-.019.007-.027.036-.005.028-.03.05c-.009.008-.015.02-.026.026s-.017-.006-.023,0-.027.031-.043.042-.034.014-.049.023a.1.1,0,0,0-.047.056c-.011.03-.01.058-.033.081a.538.538,0,0,1-.089.054c-.024.017-.027.045-.045.063a.205.205,0,0,1-.1.03.209.209,0,0,1-.16-.055c-.017-.018-.026-.049-.052-.06s-.057,0-.07-.04a.11.11,0,0,1,.01-.08c.015-.02.061-.017.09-.028a.686.686,0,0,0,.141-.1,1.05,1.05,0,0,1,.086-.06.545.545,0,0,0,.1-.052.224.224,0,0,0,.029-.033l.113-.019c-.019.037-.076.043-.115.062-.022.011-.042.032-.065.044s-.062.024-.094.036a.058.058,0,0,0,.017.046c-.033.025-.077.02-.112.044s-.065.064-.1.07c0,.039.081.033.109.034.059,0,.082-.024.129-.052a1,1,0,0,1,.236-.156c.108.052-.137.111-.184.191,0,.005-.044.017-.039.021.026-.016.048-.044.074-.064s.1-.046.123-.063a.439.439,0,0,0,.115-.115.617.617,0,0,1,.116-.134l.055-.042.152.008" transform="translate(-1055.131 0.053)" fill="#272c31"/>
              </g>
            </g>
          </g>
        </g>
        <g id="Group_1653" data-name="Group 1653" transform="translate(20.815 4.341)">
          <path id="Path_5006" data-name="Path 5006" d="M1067.2,222.878a.146.146,0,0,1-.013.09.636.636,0,0,1-.112.068c-.018.013-.018.031,0,.045a4.915,4.915,0,0,0,.553.125c.157.022.408.04.5.045a.9.9,0,0,0,.31-.027c.044-.027.26-.171.323-.216s.337-.229.369-.261a.654.654,0,0,0,.09-.134.175.175,0,0,0,.013-.081c0-.022-.081-.27-.1-.314s0-.086-.017-.1-.018.032-.032.05-.054.027-.076.045-.184.112-.211.135-.422.328-.471.368a.284.284,0,0,1-.167.04c-.049,0-.337-.04-.422-.049s-.413-.094-.449-.1a1.83,1.83,0,0,0-.22-.014.053.053,0,0,0-.045.023c.036.049.17.265.17.265m-2.852-.454a1.158,1.158,0,0,1-.077.2c-.009.027.023.081.031.094a.652.652,0,0,0,.126.139c.045.027.256.162.323.2a.888.888,0,0,0,1.078.193c.108-.022.382-.094.481-.117s.4-.117.422-.126.059,0,.067-.058a2.1,2.1,0,0,0-.058-.314c0-.018-.027-.026-.027-.026l-.495,0a.417.417,0,0,0-.125.013c-.063.018-.337.094-.4.108s-.377.049-.4.054a.182.182,0,0,1-.126-.014c-.032-.027-.382-.278-.449-.328s-.337-.2-.337-.2C1064.361,222.24,1064.352,222.37,1064.348,222.424Zm.148-.139s.243.135.337.193.314.256.359.274a1.773,1.773,0,0,0,.391-.027c.081-.014.261-.054.328-.072a1.273,1.273,0,0,0,.188-.072c.014-.009.593-.018.62-.009s.036.018.04.032.045.175.049.193a.714.714,0,0,1,.045.175.425.425,0,0,1-.1.117c-.027.018-.018-.036-.018-.036a.114.114,0,0,0-.054.027c-.013.018-.023.031-.013.045a.218.218,0,0,0,.126.054,1.077,1.077,0,0,0,.184-.162c.014-.018.045-.068.045-.068l.023.041a.138.138,0,0,0,.067-.036c.023-.027.041-.063.023-.09a2.742,2.742,0,0,0-.207-.3.42.42,0,0,0-.117-.023.37.37,0,0,0-.121,0l-.059.063-.072-.014.044-.049a.077.077,0,0,1,.036-.018,1.6,1.6,0,0,0,.166-.018c.049-.013.063-.031.081-.018a.779.779,0,0,0,.108.081c.031.013.107-.009.143,0s.171.013.2.022a1.991,1.991,0,0,0,.2.049,2.574,2.574,0,0,0,.4.068c.126,0,.31.013.324.013s.328-.238.35-.247.386-.279.386-.279a.151.151,0,0,0-.023-.054c-.013-.014,0-.018-.036-.023s-.224-.009-.224-.009l-.036-.036,0-.031h.05s.018-.027.008-.04a.042.042,0,0,0-.063,0c-.022.022-.04.063-.027.076s.068,0,.068,0-.049.009-.049.027v.341l-.054.04s.027-.341.023-.364-.041-.049-.023-.09c0,0,.023-.063.054-.076s.094-.031.1-.018-.009.094.014.112a.105.105,0,0,0,.076.027,1.824,1.824,0,0,1,.225,0c.023.009.085.013.094.04s-.009.045,0,.072a2.87,2.87,0,0,0,.108.319c.018.027.04.045.036.063s-.085.135-.1.158a.384.384,0,0,1-.058.081c-.018.014-.674.458-.692.463s-.4.023-.462.018-.4-.049-.413-.045a2.878,2.878,0,0,1-.6-.162c-.094-.063-.036.009-.054.023s-.108.1-.122.112-.058-.009-.058-.009l-.148-.072a1.031,1.031,0,0,0-.305.036c-.072.022-.323.09-.413.112s-.472.072-.521.076a1.416,1.416,0,0,1-.234,0c-.018-.009-.305-.211-.355-.247s-.274-.166-.328-.2a1.173,1.173,0,0,1-.171-.17s-.063-.068-.059-.108.027-.044.054-.117a1.063,1.063,0,0,0,.045-.251c0-.036,0-.072.018-.081a.448.448,0,0,1,.126-.018,2.277,2.277,0,0,0,.252-.009c.031-.009.022-.081.018-.1s0-.058.023-.054a.438.438,0,0,1,.13.094.128.128,0,0,1,0,.095.588.588,0,0,0-.009.171c0,.022.013.107.013.121v.045l-.068-.04s.009-.278.014-.292a.134.134,0,0,0,.013-.068c0-.027-.031-.013-.04.014s-.027.045-.086.045-.229-.013-.237.009-.018.063,0,.076" transform="translate(-1064.226 -221.934)" fill="#272c31"/>
        </g>
        <g id="Group_1654" data-name="Group 1654" transform="translate(21.819 1.102)">
          <path id="Path_5007" data-name="Path 5007" d="M1117.838,59.1l-.883-.605-.883.605.324-1.058-.88-.642h1.08l.36-1.041.36,1.041h1.079l-.88.642Zm-2.06-1.615.718.523-.27.883.73-.5.729.5-.27-.883.717-.523h-.878l-.3-.865-.3.865Z" transform="translate(-1115.516 -56.353)" fill="#272c31"/>
        </g>
        <g id="Group_1655" data-name="Group 1655" transform="translate(21.127 0.509)">
          <path id="Path_5008" data-name="Path 5008" d="M1082.435,30.278h-.126l-.124,0h0a.058.058,0,0,1-.041-.017.054.054,0,0,1-.016-.041l0-.138v0c-.01,0-.039-.009-.116-.022h-.005c-.056-.009-.1-.014-.109-.015v0l-.044.131a.056.056,0,0,1-.073.037l-.117-.037-.119-.038a.057.057,0,0,1-.034-.028.056.056,0,0,1,0-.044l.044-.132v0c-.009-.006-.036-.02-.1-.054l-.026-.013c-.021-.011-.069-.035-.087-.042l0,0-.083.112a.056.056,0,0,1-.041.023.061.061,0,0,1-.039-.012l-.1-.071-.1-.072a.055.055,0,0,1-.013-.081l.083-.112v0L1081,29.57l-.043-.039-.031-.031c-.017-.017-.044-.045-.055-.055l0,0-.114.084-.033-.044.114-.084a.059.059,0,0,1,.058-.009.4.4,0,0,1,.072.067l.03.03.041.037a.27.27,0,0,1,.055.054.059.059,0,0,1-.008.057l-.083.112,0,0h0l.1.073.1.072h0v0l.084-.111a.06.06,0,0,1,.052-.025.611.611,0,0,1,.106.049l.026.013a.7.7,0,0,1,.121.066.057.057,0,0,1,.01.057s-.04.12-.044.132v0h0l.118.038.118.038h0v0l.044-.131a.057.057,0,0,1,.042-.04.55.55,0,0,1,.13.015h.005a.628.628,0,0,1,.136.028.056.056,0,0,1,.026.051l0,.139a.008.008,0,0,0,0,0h0l.124,0h.127v0c0-.013,0-.139,0-.139a.057.057,0,0,1,.028-.051.609.609,0,0,1,.106-.021l.045-.008.022,0a.55.55,0,0,1,.1-.016.054.054,0,0,1,.044.039h0l.052.127v0h0l.137-.049.094-.04,0,0v0l-.051-.129a.056.056,0,0,1,.006-.057.285.285,0,0,1,.08-.041c.022-.01.045-.02.057-.027l.033-.019a.25.25,0,0,1,.066-.032.059.059,0,0,1,.052.026l.082.113,0,0,0,0,.146-.087.082-.064h0l0,0h0l-.081-.113a.057.057,0,0,1-.008-.058,1.115,1.115,0,0,1,.116-.1.866.866,0,0,0,.067-.069.263.263,0,0,1,.045-.045.059.059,0,0,1,.058.005l.1.065-.03.046-.1-.065h0l-.03.032a.9.9,0,0,1-.073.075c-.02.016-.081.067-.1.086v0h0l.081.113a.056.056,0,0,1,.01.047.061.061,0,0,1-.023.033l0,0-.08.062,0,0-.145.086a.056.056,0,0,1-.08-.013l-.082-.113,0,0-.044.024-.035.019c-.014.007-.036.018-.061.028l-.058.027h0l.051.13a.056.056,0,0,1,0,.045.058.058,0,0,1-.034.03l-.093.04-.137.049a.056.056,0,0,1-.075-.032l-.052-.129v0c-.016,0-.059.011-.08.015l-.023,0-.046.008c-.028,0-.072.012-.088.016v0h0s0,.126,0,.139a.054.054,0,0,1-.016.04A.058.058,0,0,1,1082.435,30.278Zm-2.119-1.316s0,0-.043-.117l-.041-.114a.058.058,0,0,1,0-.046.056.056,0,0,1,.034-.029l.135-.046,0,0c0-.009,0-.035-.017-.1l0-.023c0-.023-.016-.08-.022-.1h0l-.143,0a.056.056,0,0,1-.061-.055l0-.122.055,0c0,.035,0,.118,0,.122v0h0l.143,0a.058.058,0,0,1,.052.025.584.584,0,0,1,.029.118l0,.023a.627.627,0,0,1,.018.124.058.058,0,0,1-.041.043l-.135.046h0v0l.041.115.041.113Zm4.045-.192-.052-.018.034-.1a0,0,0,0,0,0,0h0l-.133-.047a.058.058,0,0,1-.039-.043.838.838,0,0,1,.021-.152V28.4l.006-.043a.6.6,0,0,1,.018-.107.059.059,0,0,1,.05-.029l.141-.007h0s0,0,0,0,0-.056,0-.09l.055,0s0,.086,0,.091a.055.055,0,0,1-.055.059l-.141.007h0c0,.014-.009.061-.013.088s0,.035-.006.044v.008c-.014.086-.019.12-.02.133h0l.133.047a.057.057,0,0,1,.034.028.059.059,0,0,1,0,.045v0Zm-.109-.8a.056.056,0,0,1-.05-.025,1.037,1.037,0,0,1-.033-.138c0-.005,0-.016-.005-.028l.054-.009,0,.024c.01.047.022.1.027.119h0l.058,0,0,.055-.059,0Zm-.519-1.055a.043.043,0,0,1-.018,0,.25.25,0,0,1-.054-.049c-.015-.015-.03-.031-.042-.041l-.034-.031a.376.376,0,0,1-.069-.068.058.058,0,0,1,.008-.058h0l.062-.087.045.031-.062.087,0,0c.009.009.037.034.055.05l.035.031.044.044.036.035,0,0,.033.044A.069.069,0,0,1,1083.733,26.92Zm-2.8-.022-.036-.041c.021-.018.081-.079.1-.1l0,0h0l-.034-.047.044-.032.035.048a.058.058,0,0,1,.008.058A1.122,1.122,0,0,1,1080.933,26.9Zm.354-.3a.062.062,0,0,1-.044-.026h0l-.083-.113,0,0,0,0,0,0-.015.011-.025.018-.032-.045.025-.018.018-.013a.055.055,0,0,1,.08.013l.083.113,0,0c.014-.006.049-.027.069-.039l.032-.019.033-.018c.021-.011.054-.029.067-.037v0l-.053-.131a.055.055,0,0,1,0-.044.058.058,0,0,1,.033-.031l.114-.047.116-.047a.058.058,0,0,1,.045,0,.056.056,0,0,1,.03.032l.053.13,0,0c.011,0,.045-.007.132-.026l.009,0,.048-.009.087-.017s0,0,0,0,0-.128,0-.141a.056.056,0,0,1,.058-.058h.247a.056.056,0,0,1,.059.058c0,.013,0,.141,0,.141v0l.112.019.01,0c.048.008.094.013.109.014v0l.042-.134a.055.055,0,0,1,.028-.034.058.058,0,0,1,.045,0l.118.036.118.037a.056.056,0,0,1,.039.073c0,.012-.04.13-.042.135v0c.01.006.037.02.112.057l.029.014c.021.01.062.031.078.037l0,0,.082-.114a.056.056,0,0,1,.037-.024.059.059,0,0,1,.044.011l0,0,.016.011.04.028-.032.044-.039-.028-.018-.013h0l0,0v0l-.082.115a.058.058,0,0,1-.051.026.5.5,0,0,1-.1-.044l-.027-.013a.735.735,0,0,1-.13-.069.06.06,0,0,1-.011-.057l.042-.134v0h0l-.119-.037-.117-.036h0v0l-.042.135a.057.057,0,0,1-.042.041.535.535,0,0,1-.13-.014l-.009,0a.733.733,0,0,1-.131-.025.059.059,0,0,1-.027-.052h0s0-.128,0-.141a.009.009,0,0,0,0,0h-.254s0,0,0,0,0,.141,0,.141a.058.058,0,0,1-.028.051.628.628,0,0,1-.1.023l-.046.009-.009,0a.8.8,0,0,1-.152.027.058.058,0,0,1-.044-.037l-.053-.13v0h0l-.115.047-.112.046h0v0l.053.131a.057.057,0,0,1-.006.058.391.391,0,0,1-.085.051l-.032.017-.031.018a.388.388,0,0,1-.092.047Z" transform="translate(-1080.151 -26.037)" fill="#272c31"/>
        </g>
        <g id="Group_1656" data-name="Group 1656" transform="translate(21.265 2.274)">
          <path id="Path_5009" data-name="Path 5009" d="M1087.212,116.522l0-.055.057,0h0c0-.014.011-.062.015-.089s.005-.033.007-.043.01-.057.016-.092l.054.009c-.006.036-.013.077-.016.093s0,.024-.007.041a.637.637,0,0,1-.02.108.06.06,0,0,1-.051.028Z" transform="translate(-1087.21 -116.241)" fill="#272c31"/>
        </g>
        <g id="Group_1657" data-name="Group 1657" transform="translate(21.72 1.109)">
          <path id="Path_5010" data-name="Path 5010" d="M1111.977,59.8a1.387,1.387,0,0,1-.64-.148l-.031-.016.71-.879.741.868-.036.015A1.914,1.914,0,0,1,1111.977,59.8Zm-.583-.183a1.58,1.58,0,0,0,1.269-.014l-.646-.756Zm-.522-.31-.024-.029a1.811,1.811,0,0,1-.2-.31l.051-.026a1.815,1.815,0,0,0,.173.27l.562-.838-.887-.288c0,.027,0,.045-.005.059a.467.467,0,0,0,0,.113l-.057,0a.514.514,0,0,1,0-.123c0-.019,0-.046.008-.093l0-.037,1.028.334Zm2.3-.062-.656-.894,1.043-.4,0,.036a1.587,1.587,0,0,1-.368,1.233Zm-.566-.868.569.775a1.532,1.532,0,0,0,.336-1.125Zm-.246-.576-.058-1.117.036.007a1.586,1.586,0,0,1,1.057.734l.019.031Zm0-1.047.051.969.914-.3A1.528,1.528,0,0,0,1112.36,56.751Zm-.685,1.047-1.054-.346.019-.031a1.586,1.586,0,0,1,1.057-.734l.036-.007Zm-.967-.377.914.3.05-.969A1.529,1.529,0,0,0,1110.707,57.421Z" transform="translate(-1110.477 -56.681)" fill="#272c31"/>
        </g>
        <g id="Group_1658" data-name="Group 1658" transform="translate(20.868 4.804)">
          <path id="Path_5011" data-name="Path 5011" d="M1067.13,246.027a.053.053,0,0,1-.017-.041v-.147a.076.076,0,0,0,.106-.009c.041-.054-.008-.108-.038-.133l-.093-.077,0,.007c.021.022.024.029,0,.056l-.115.153c-.02.026-.027.033-.055.012l-.005.007.092.077.005-.006c-.026-.024-.024-.034-.006-.057l.052-.07.02.015,0,.175.054.045,0-.007m0-.328c.008-.01.013-.01.03,0a.067.067,0,0,1,.021.1c-.038.05-.089.009-.117-.013l.066-.087" transform="translate(-1066.91 -245.621)" fill="#272c31"/>
        </g>
        <g id="Group_1659" data-name="Group 1659" transform="translate(21.101 4.943)">
          <path id="Path_5012" data-name="Path 5012" d="M1079,253.129l-.188-.14,0-.007c.024.016.033.018.053-.01l.11-.163c.02-.029.013-.037-.008-.056l0-.007.185.137-.034.053-.009-.006c.017-.037.012-.049-.027-.078l-.047-.035c-.008-.005-.012-.009-.02,0l-.055.081.054.04c.031.023.04.017.062-.007l.008.006-.058.086-.008-.006c.016-.033.014-.041-.015-.063l-.053-.041-.061.091c-.01.015-.01.016.042.054a.079.079,0,0,0,.109.008l.01.008-.058.051" transform="translate(-1078.809 -252.746)" fill="#272c31"/>
        </g>
        <g id="Group_1660" data-name="Group 1660" transform="translate(21.305 5.079)">
          <path id="Path_5013" data-name="Path 5013" d="M1089.438,259.7c.024.022.025.029.007.055l-.106.16c-.018.027-.023.035-.054.016l0,.007.1.071,0-.007c-.026-.02-.029-.03-.011-.057l.044-.067.023.018a.122.122,0,0,0,.089.032.075.075,0,0,0,.054-.035c.031-.047,0-.1-.048-.133l-.093-.067,0,.007m.052.067c.008-.012.012-.01.023,0s.066.049.031.1a.061.061,0,0,1-.1.013l-.02-.017.063-.1" transform="translate(-1089.281 -259.691)" fill="#272c31"/>
        </g>
        <g id="Group_1661" data-name="Group 1661" transform="translate(21.626 5.19)">
          <path id="Path_5014" data-name="Path 5014" d="M1105.93,265.517c-.019-.009-.027-.006-.053.017l-.2.174-.005,0,.021-.27c0-.045,0-.053-.018-.064l0-.008.1.057,0,.008c-.022-.011-.029-.015-.036,0a.212.212,0,0,0-.007.051l-.013.166.131-.113a.127.127,0,0,0,.022-.023c.008-.016,0-.025-.018-.034l0-.008.077.044,0,.007" transform="translate(-1105.672 -265.363)" fill="#272c31"/>
        </g>
        <g id="Group_1662" data-name="Group 1662" transform="translate(21.863 5.297)">
          <path id="Path_5015" data-name="Path 5015" d="M1117.865,270.866c0-.007,0-.013.01-.013h.02c.031,0,.074.012.072.065a.055.055,0,0,1-.065.052h-.041l0-.1m-.084-.025c.035,0,.041.009.039.042l-.007.2c0,.032-.007.039-.042.039v.009l.143.005c.1,0,.106-.058.107-.076a.079.079,0,0,0-.069-.079h0a.063.063,0,0,0,.059-.063c0-.07-.072-.079-.109-.08l-.12-.005Zm.08.146a.2.2,0,0,1,.069.009.056.056,0,0,1,.041.061c0,.06-.054.062-.083.061s-.032,0-.031-.02l0-.112" transform="translate(-1117.77 -270.832)" fill="#272c31"/>
        </g>
        <g id="Group_1663" data-name="Group 1663" transform="translate(22.11 5.281)">
          <path id="Path_5016" data-name="Path 5016" d="M1130.507,270.021c0-.007,0-.013.01-.013h.019c.031,0,.075.007.076.06a.055.055,0,0,1-.061.056h-.041l0-.1m-.085-.019c.035,0,.042.006.042.039l.005.2c0,.032,0,.04-.04.042v.008l.143,0c.095,0,.1-.064.1-.082a.079.079,0,0,0-.073-.075h0a.063.063,0,0,0,.055-.066c0-.07-.077-.074-.114-.073l-.12,0Zm.088.14a.213.213,0,0,1,.07,0,.056.056,0,0,1,.045.058c0,.06-.05.066-.078.067s-.032,0-.033-.018l0-.111" transform="translate(-1130.422 -269.99)" fill="#272c31"/>
        </g>
        <g id="Group_1664" data-name="Group 1664" transform="translate(22.341 5.24)">
          <path id="Path_5017" data-name="Path 5017" d="M1142.361,267.9c-.026,0-.035.009-.03.044l.033.209c0,.018.01.017.043.014.059-.007.084-.011.1-.072h.009l-.006.079-.21.023,0-.008c.025,0,.033-.009.028-.044l-.031-.2c-.006-.035-.016-.036-.04-.036v-.008l.11-.012v.008" transform="translate(-1142.25 -267.895)" fill="#272c31"/>
        </g>
        <g id="Group_1665" data-name="Group 1665" transform="translate(22.572 5.189)">
          <path id="Path_5018" data-name="Path 5018" d="M1154.088,265.589c.036-.005.04-.014.035-.044l-.033-.193c-.006-.032-.013-.037-.049-.034v-.008l.128-.016,0,.008c-.031.005-.042.01-.036.045l.034.193c.006.034.017.037.049.034l0,.008-.129.016v-.008" transform="translate(-1154.039 -265.293)" fill="#272c31"/>
        </g>
        <g id="Group_1666" data-name="Group 1666" transform="translate(22.732 5.112)">
          <path id="Path_5019" data-name="Path 5019" d="M1162.448,261.453a.1.1,0,0,0-.111-.065.09.09,0,0,0-.059.036.132.132,0,0,0-.014.112c.019.092.078.121.133.113a.13.13,0,0,0,.088-.059l.01.007a.139.139,0,0,1-.105.073.147.147,0,0,1-.175-.126.137.137,0,0,1,.115-.172.356.356,0,0,1,.079,0,.017.017,0,0,0,.017-.017h.009l.024.1-.01,0" transform="translate(-1162.21 -261.355)" fill="#272c31"/>
        </g>
        <g id="Group_1667" data-name="Group 1667" transform="translate(23.024 5.079)">
          <path id="Path_5020" data-name="Path 5020" d="M1177.47,259.963c-.019,0-.026,0-.046-.033l-.154-.232h-.008l-.05.226a.275.275,0,0,1-.02.066.027.027,0,0,1-.02.013l0,.008.086-.012v-.008c-.009,0-.03,0-.033-.014a.043.043,0,0,1,0-.017l.01-.054.113-.016.025.039a.111.111,0,0,1,.014.026c0,.016-.011.019-.027.021v.008l.11-.015,0-.008m-.231-.074.027-.126.073.112-.1.013" transform="translate(-1177.172 -259.699)" fill="#272c31"/>
        </g>
        <g id="Group_1668" data-name="Group 1668" transform="translate(23.772 5.104)">
          <path id="Path_5021" data-name="Path 5021" d="M1215.381,261.222c.035.011.042.005.05-.025l.054-.189c.009-.031.005-.038-.029-.051l0-.008.123.041,0,.008c-.031-.009-.042-.009-.051.025l-.053.189c-.01.033,0,.041.029.052l0,.008-.123-.042,0-.008" transform="translate(-1215.379 -260.949)" fill="#272c31"/>
        </g>
        <g id="Group_1669" data-name="Group 1669" transform="translate(23.962 5.14)">
          <path id="Path_5022" data-name="Path 5022" d="M1225.256,263.111l-.125-.025v-.008c.039.006.042,0,.047-.036l.032-.219-.023,0c-.047-.009-.06,0-.076.042l-.01,0,.013-.074.242.048-.008.075-.01,0c0-.05-.013-.06-.06-.07l-.023,0-.033.223c0,.03,0,.039.036.048v.008" transform="translate(-1225.102 -262.785)" fill="#272c31"/>
        </g>
        <g id="Group_1670" data-name="Group 1670" transform="translate(24.145 5.224)">
          <path id="Path_5023" data-name="Path 5023" d="M1234.747,267.428c-.019,0-.024-.011-.033-.046l-.074-.268-.009,0-.118.2a.314.314,0,0,1-.04.057.028.028,0,0,1-.023.005v.008l.085.016v-.009c-.009,0-.029-.005-.027-.024a.043.043,0,0,1,.006-.016l.026-.048.112.021.012.046a.1.1,0,0,1,0,.029c0,.016-.017.014-.032.011l0,.008.11.02v-.008m-.2-.143.065-.111.034.129-.1-.018" transform="translate(-1234.449 -267.113)" fill="#272c31"/>
        </g>
        <g id="Group_1671" data-name="Group 1671" transform="translate(24.472 5.249)">
          <path id="Path_5024" data-name="Path 5024" d="M1251.3,268.373c-.028,0-.037,0-.039.036l-.007.209c0,.018.006.019.04.021.061.005.087.006.112-.05h.01l-.022.075-.219-.018v-.008c.026,0,.035,0,.037-.037l.006-.2c0-.035-.008-.039-.034-.043v-.008l.114.01v.009" transform="translate(-1251.172 -268.355)" fill="#272c31"/>
        </g>
        <g id="Group_1672" data-name="Group 1672" transform="translate(24.744 5.255)">
          <path id="Path_5025" data-name="Path 5025" d="M1265.07,268.968c.037,0,.042-.006.042-.037l0-.2c0-.033-.006-.038-.042-.042v-.008l.13.008v.008c-.032,0-.043,0-.043.037l0,.2c0,.034.01.039.042.042v.008l-.129-.007v-.008" transform="translate(-1265.07 -268.684)" fill="#272c31"/>
        </g>
        <g id="Group_1673" data-name="Group 1673" transform="translate(24.927 5.203)">
          <path id="Path_5026" data-name="Path 5026" d="M1274.757,266.148c-.018.01-.025.01-.057-.009l-.244-.143-.008,0,.053.229a.278.278,0,0,1,.01.069.028.028,0,0,1-.013.02l0,.007.074-.049,0-.007c-.008.005-.025.017-.037,0a.068.068,0,0,1-.007-.016l-.014-.054.1-.065.041.024a.129.129,0,0,1,.024.018c.01.013,0,.022-.016.031l0,.007.1-.063-.005-.007m-.246.036-.03-.128.117.07-.086.057" transform="translate(-1274.449 -265.996)" fill="#272c31"/>
        </g>
        <g id="Group_1674" data-name="Group 1674" transform="translate(25.087 4.94)">
          <path id="Path_5027" data-name="Path 5027" d="M1282.847,252.588c-.02.019-.03.029,0,.068l.15.177-.006,0-.309-.067h0l.111.131c.03.035.043.036.07.017l0,.007-.081.062-.005-.006c.025-.022.028-.033,0-.069l-.126-.148c-.028-.006-.035,0-.049.007l-.005-.006.059-.046.271.06h0l-.1-.113c-.033-.039-.044-.034-.069-.017l-.005-.006.081-.062.005.006" transform="translate(-1282.602 -252.582)" fill="#272c31"/>
        </g>
        <g id="Group_1675" data-name="Group 1675" transform="translate(25.436 4.853)">
          <path id="Path_5028" data-name="Path 5028" d="M1300.76,248.276c-.016.011-.024.011-.056-.005l-.249-.125-.007.006.068.22a.273.273,0,0,1,.015.067.028.028,0,0,1-.011.021l.006.007.068-.053-.005-.006c-.007.006-.024.018-.035,0a.056.056,0,0,1-.008-.015l-.018-.052.09-.07.042.022a.121.121,0,0,1,.025.016c.01.013,0,.022-.013.031l.005.006.088-.068-.005-.007m-.238.05-.039-.123.119.061-.08.061" transform="translate(-1300.449 -248.145)" fill="#272c31"/>
        </g>
        <g id="Group_1676" data-name="Group 1676" transform="translate(6.035 1.584)">
          <path id="Path_5029" data-name="Path 5029" d="M309.7,81.7a.406.406,0,0,0-.126-.3.428.428,0,0,0-.607,0,.415.415,0,0,0,0,.6.429.429,0,0,0,.607,0,.4.4,0,0,0,.126-.3m0-.6v-.093h.363a.252.252,0,0,1,.166.043.157.157,0,0,1,0,.225.252.252,0,0,1-.166.043h-.053v1.131a.566.566,0,0,1-.069.286.589.589,0,0,1-.211.21.6.6,0,0,1-.322.088h-.352a.237.237,0,0,1-.16-.043.155.155,0,0,1,0-.224.237.237,0,0,1,.16-.043h.344a.3.3,0,0,0,.221-.077.262.262,0,0,0,.078-.2V82.3a.872.872,0,0,1-.209.1.735.735,0,0,1-.218.033.722.722,0,0,1-.529-.211.748.748,0,0,1,0-1.046.721.721,0,0,1,.529-.211.739.739,0,0,1,.224.034.724.724,0,0,1,.2.1" transform="translate(-308.531 -80.961)" fill="#272c31"/>
        </g>
        <g id="Group_1677" data-name="Group 1677" transform="translate(7.894 1.588)">
          <path id="Path_5030" data-name="Path 5030" d="M404.861,81.745a.487.487,0,0,0-.187-.2.609.609,0,0,0-.549,0,.5.5,0,0,0-.189.2h.924m.343.311h-1.275a.4.4,0,0,0,.172.2.644.644,0,0,0,.334.074,1.924,1.924,0,0,0,.459-.074.789.789,0,0,1,.163-.031.14.14,0,0,1,.1.044.154.154,0,0,1,.042.111.137.137,0,0,1-.045.1.728.728,0,0,1-.3.107,2.119,2.119,0,0,1-.451.051.833.833,0,0,1-.6-.21.682.682,0,0,1-.223-.517.665.665,0,0,1,.241-.532.834.834,0,0,1,.556-.2.888.888,0,0,1,.347.066.733.733,0,0,1,.235.144.9.9,0,0,1,.18.276.679.679,0,0,1,.048.266l0,.132" transform="translate(-403.594 -81.172)" fill="#272c31"/>
        </g>
        <g id="Group_1678" data-name="Group 1678" transform="translate(9.749 1.588)">
          <path id="Path_5031" data-name="Path 5031" d="M498.982,81.212v.1a.588.588,0,0,1,.186-.106.672.672,0,0,1,.221-.035.566.566,0,0,1,.434.171.5.5,0,0,1,.126.358v.577a.252.252,0,0,1,.166.043.157.157,0,0,1,0,.225.251.251,0,0,1-.166.043h-.311a.243.243,0,0,1-.162-.043.157.157,0,0,1,0-.225.244.244,0,0,1,.162-.043v-.586a.187.187,0,0,0-.054-.148.319.319,0,0,0-.212-.061.413.413,0,0,0-.188.041.84.84,0,0,0-.2.173v.581a.248.248,0,0,1,.149.029.168.168,0,0,1,.065.127.145.145,0,0,1-.048.112.251.251,0,0,1-.166.043h-.311a.242.242,0,0,1-.162-.043.144.144,0,0,1-.048-.112.171.171,0,0,1,.063-.128.247.247,0,0,1,.146-.028v-.754a.243.243,0,0,1-.162-.043.157.157,0,0,1,0-.225.243.243,0,0,1,.162-.043h.311" transform="translate(-498.461 -81.172)" fill="#272c31"/>
        </g>
        <g id="Group_1679" data-name="Group 1679" transform="translate(11.778 1.628)">
          <path id="Path_5032" data-name="Path 5032" d="M602.681,84.284h.543a.249.249,0,0,1,.043-.166.157.157,0,0,1,.225,0,.249.249,0,0,1,.043.166v.311h-1.348v-.258l.818-.808h-.475v.032a.242.242,0,0,1-.043.162.156.156,0,0,1-.225,0,.24.24,0,0,1-.043-.162l0-.343H603.5v.254l-.821.811" transform="translate(-602.187 -83.219)" fill="#272c31"/>
        </g>
        <g id="Group_1680" data-name="Group 1680" transform="translate(13.565 1.043)">
          <path id="Path_5033" data-name="Path 5033" d="M694,53.312h.371v.327H694Zm.415.585v1.065h.371a.253.253,0,0,1,.166.043.157.157,0,0,1,0,.225.252.252,0,0,1-.166.043h-1.053a.244.244,0,0,1-.162-.043.157.157,0,0,1,0-.225.245.245,0,0,1,.162-.043h.371v-.754h-.25a.244.244,0,0,1-.162-.043.157.157,0,0,1,0-.225.243.243,0,0,1,.162-.043h.561" transform="translate(-693.523 -53.312)" fill="#272c31"/>
        </g>
        <g id="Group_1681" data-name="Group 1681" transform="translate(15.364 1.588)">
          <path id="Path_5034" data-name="Path 5034" d="M786.585,82.031a1.807,1.807,0,0,0-.344-.036.568.568,0,0,0-.326.092c-.057.039-.085.079-.085.119a.082.082,0,0,0,.041.071.375.375,0,0,0,.207.05.863.863,0,0,0,.254-.044.937.937,0,0,0,.252-.119v-.132m0,.557v-.073a1.011,1.011,0,0,1-.258.091,1.223,1.223,0,0,1-.257.03.611.611,0,0,1-.406-.132.381.381,0,0,1-.156-.292.474.474,0,0,1,.2-.362.837.837,0,0,1,.551-.167,2.055,2.055,0,0,1,.326.03V81.64a.135.135,0,0,0-.06-.114.412.412,0,0,0-.228-.044,1.573,1.573,0,0,0-.357.053.609.609,0,0,1-.127.019.14.14,0,0,1-.1-.045.157.157,0,0,1-.043-.114.145.145,0,0,1,.015-.068.121.121,0,0,1,.043-.046.457.457,0,0,1,.113-.042,2.161,2.161,0,0,1,.235-.051,1.4,1.4,0,0,1,.216-.019.713.713,0,0,1,.449.125.411.411,0,0,1,.16.342v.639h.052a.253.253,0,0,1,.166.043.158.158,0,0,1,0,.225.251.251,0,0,1-.166.043h-.363" transform="translate(-785.508 -81.172)" fill="#272c31"/>
        </g>
        <g id="Group_1685" data-name="Group 1685" transform="translate(7.393 4.381)">
          <g id="Group_1684" data-name="Group 1684" clip-path="url(#clip-path-4)">
            <g id="Group_1683" data-name="Group 1683" transform="translate(0.013 0.018)">
              <g id="Group_1682" data-name="Group 1682">
                <path id="Path_5035" data-name="Path 5035" d="M379.261,224.967v.123a.7.7,0,0,1,.219-.129.759.759,0,0,1,.26-.043.655.655,0,0,1,.511.208.629.629,0,0,1,.149.436v.7a.286.286,0,0,1,.2.052.2.2,0,0,1,0,.274.285.285,0,0,1-.2.052h-.366a.276.276,0,0,1-.191-.052.2.2,0,0,1,0-.274.278.278,0,0,1,.191-.052v-.715a.231.231,0,0,0-.064-.181.367.367,0,0,0-.25-.074.469.469,0,0,0-.221.049.99.99,0,0,0-.24.211v.708a.278.278,0,0,1,.175.035.205.205,0,0,1,.076.154.179.179,0,0,1-.056.137.285.285,0,0,1-.2.052H378.9a.276.276,0,0,1-.191-.052.179.179,0,0,1-.056-.137.211.211,0,0,1,.075-.156.285.285,0,0,1,.172-.034v-.92a.277.277,0,0,1-.191-.052.2.2,0,0,1,0-.274.276.276,0,0,1,.191-.052h.366" transform="translate(-378.648 -224.918)" fill="#272c31"/>
              </g>
            </g>
          </g>
        </g>
        <g id="Group_1689" data-name="Group 1689" transform="translate(9.623 3.853)">
          <g id="Group_1688" data-name="Group 1688" clip-path="url(#clip-path-5)">
            <g id="Group_1687" data-name="Group 1687" transform="translate(0.016 0.019)">
              <g id="Group_1686" data-name="Group 1686">
                <path id="Path_5036" data-name="Path 5036" d="M493.561,198.89v.732a.191.191,0,0,0,.048.155.448.448,0,0,0,.267.059,1.119,1.119,0,0,0,.516-.12.345.345,0,0,1,.142-.046.168.168,0,0,1,.123.053.179.179,0,0,1,.053.131.16.16,0,0,1-.057.123.85.85,0,0,1-.345.154,1.7,1.7,0,0,1-.434.071.764.764,0,0,1-.51-.147.459.459,0,0,1-.17-.361v-.8h-.132a.278.278,0,0,1-.188-.051.171.171,0,0,1-.056-.133.169.169,0,0,1,.056-.131.279.279,0,0,1,.188-.051h.132v-.33a.279.279,0,0,1,.051-.188.171.171,0,0,1,.133-.057.169.169,0,0,1,.131.057.28.28,0,0,1,.051.188v.33h.673a.279.279,0,0,1,.188.051.184.184,0,0,1,0,.264.278.278,0,0,1-.188.051h-.673" transform="translate(-492.82 -197.949)" fill="#272c31"/>
              </g>
            </g>
          </g>
        </g>
        <g id="Group_1693" data-name="Group 1693" transform="translate(11.853 4.381)">
          <g id="Group_1692" data-name="Group 1692" clip-path="url(#clip-path-6)">
            <g id="Group_1691" data-name="Group 1691" transform="translate(0.007 0.018)">
              <g id="Group_1690" data-name="Group 1690">
                <path id="Path_5037" data-name="Path 5037" d="M607.214,224.967v.237a1.987,1.987,0,0,1,.362-.229.625.625,0,0,1,.248-.057.543.543,0,0,1,.345.136.251.251,0,0,1,.114.187.192.192,0,0,1-.054.137.175.175,0,0,1-.131.056.217.217,0,0,1-.142-.069.208.208,0,0,0-.133-.069.492.492,0,0,0-.229.1,3.584,3.584,0,0,0-.38.3v.57h.523a.286.286,0,0,1,.2.052.2.2,0,0,1,0,.274.285.285,0,0,1-.2.052H606.63a.276.276,0,0,1-.191-.052.2.2,0,0,1,0-.274.277.277,0,0,1,.191-.052h.218v-.92h-.133a.276.276,0,0,1-.191-.052.2.2,0,0,1,0-.274.276.276,0,0,1,.191-.052h.5" transform="translate(-606.383 -224.918)" fill="#272c31"/>
              </g>
            </g>
          </g>
        </g>
        <g id="Group_1697" data-name="Group 1697" transform="translate(14.004 4.381)">
          <g id="Group_1696" data-name="Group 1696" clip-path="url(#clip-path-7)">
            <g id="Group_1695" data-name="Group 1695" transform="translate(0.012 0.018)">
              <g id="Group_1694" data-name="Group 1694">
                <path id="Path_5038" data-name="Path 5038" d="M717.87,225.93a2.128,2.128,0,0,0-.4-.043.672.672,0,0,0-.384.108c-.067.046-.1.093-.1.14a.1.1,0,0,0,.049.084.445.445,0,0,0,.244.058,1.042,1.042,0,0,0,.3-.051,1.1,1.1,0,0,0,.3-.14v-.156m0,.656V226.5a1.2,1.2,0,0,1-.3.107,1.447,1.447,0,0,1-.3.036.715.715,0,0,1-.479-.155.446.446,0,0,1-.184-.344.556.556,0,0,1,.235-.425.98.98,0,0,1,.649-.2,2.418,2.418,0,0,1,.384.036v-.088a.159.159,0,0,0-.07-.134.489.489,0,0,0-.268-.052,1.873,1.873,0,0,0-.421.063.708.708,0,0,1-.149.023.164.164,0,0,1-.123-.052.184.184,0,0,1-.05-.134.169.169,0,0,1,.018-.08.141.141,0,0,1,.05-.054.6.6,0,0,1,.134-.049,2.518,2.518,0,0,1,.276-.06,1.682,1.682,0,0,1,.255-.022.84.84,0,0,1,.528.147.483.483,0,0,1,.188.4v.752h.062a.294.294,0,0,1,.2.05.185.185,0,0,1,0,.265.294.294,0,0,1-.2.05h-.428" transform="translate(-716.602 -224.918)" fill="#272c31"/>
              </g>
            </g>
          </g>
        </g>
        <g id="Group_1701" data-name="Group 1701" transform="translate(16.195 3.853)">
          <g id="Group_1700" data-name="Group 1700" clip-path="url(#clip-path-5)">
            <g id="Group_1699" data-name="Group 1699" transform="translate(0.011 0.019)">
              <g id="Group_1698" data-name="Group 1698">
                <path id="Path_5039" data-name="Path 5039" d="M829.327,198.89v.732a.19.19,0,0,0,.048.155.447.447,0,0,0,.267.059,1.119,1.119,0,0,0,.516-.12.344.344,0,0,1,.142-.046.168.168,0,0,1,.123.053.179.179,0,0,1,.053.131.161.161,0,0,1-.057.123.849.849,0,0,1-.344.154,1.706,1.706,0,0,1-.434.071.764.764,0,0,1-.51-.147.459.459,0,0,1-.17-.361v-.8h-.132a.278.278,0,0,1-.187-.051.171.171,0,0,1-.056-.133.169.169,0,0,1,.056-.131.278.278,0,0,1,.188-.051h.132v-.33a.277.277,0,0,1,.051-.188.17.17,0,0,1,.133-.057.169.169,0,0,1,.131.057.279.279,0,0,1,.051.188v.33H830a.277.277,0,0,1,.188.051.183.183,0,0,1,0,.264.276.276,0,0,1-.188.051h-.673" transform="translate(-828.586 -197.949)" fill="#272c31"/>
              </g>
            </g>
          </g>
        </g>
        <g id="Group_1705" data-name="Group 1705" transform="translate(18.346 4.381)">
          <g id="Group_1704" data-name="Group 1704" clip-path="url(#clip-path-6)">
            <g id="Group_1703" data-name="Group 1703" transform="translate(0.01 0.018)">
              <g id="Group_1702" data-name="Group 1702">
                <path id="Path_5040" data-name="Path 5040" d="M939.991,225.592a.573.573,0,0,0-.22-.232.718.718,0,0,0-.645,0,.58.58,0,0,0-.222.232h1.088m.4.366h-1.5a.468.468,0,0,0,.2.231.758.758,0,0,0,.393.088,2.251,2.251,0,0,0,.54-.088.944.944,0,0,1,.193-.035.163.163,0,0,1,.123.052.18.18,0,0,1,.05.13.159.159,0,0,1-.053.121.846.846,0,0,1-.347.126,2.51,2.51,0,0,1-.531.06.978.978,0,0,1-.7-.248.8.8,0,0,1-.263-.609.783.783,0,0,1,.284-.626.981.981,0,0,1,.655-.241,1.041,1.041,0,0,1,.409.078.877.877,0,0,1,.277.169,1.08,1.08,0,0,1,.212.325.809.809,0,0,1,.057.313v.155" transform="translate(-938.5 -224.918)" fill="#272c31"/>
              </g>
            </g>
          </g>
        </g>
        <g id="Group_1711" data-name="Group 1711" transform="translate(1.095 1.604)" opacity="0.5" clip-path="url(#clip-path-10)">
          <g id="Group_1710" data-name="Group 1710" transform="translate(0.014 0.008)">
            <g id="Group_1709" data-name="Group 1709">
              <g id="Group_1708" data-name="Group 1708" clip-path="url(#clip-path-11)">
                <g id="Group_1707" data-name="Group 1707">
                  <g id="Group_1706" data-name="Group 1706">
                    <path id="Path_5041" data-name="Path 5041" d="M57.657,84.125a1.485,1.485,0,0,1,.57-.594,1.469,1.469,0,0,1,.416-.155l.461-.971.474,1a1.44,1.44,0,0,1,.307.127,1.459,1.459,0,0,1,.565.594H57.657m2.74-1.378a3.393,3.393,0,0,0-.316-.151,2.682,2.682,0,0,0-1.05-.2,2.517,2.517,0,0,0-1.163.273L56.719,85.29a2.082,2.082,0,0,0,.576.9,2.247,2.247,0,0,0,1.013.545.427.427,0,0,0,.1-.064.52.52,0,0,0,0-.745.807.807,0,0,0-.541-.143h-.249l.252-.6h3.579L60.4,82.747" transform="translate(-56.719 -82.395)" fill="#272c31"/>
                  </g>
                </g>
              </g>
            </g>
          </g>
        </g>
      </g>
      <g id="Group_1744" data-name="Group 1744">
        <path id="Path_5043" data-name="Path 5043" d="M-5.389-4.6H-8.033v2.731H-9.41V-8.557h4.351v1.115H-8.033v1.726h2.644ZM.178-1.874H-4.4v-.909l2.162-2.3a5.333,5.333,0,0,0,.659-.849,1.364,1.364,0,0,0,.213-.688,1.021,1.021,0,0,0-.225-.7.812.812,0,0,0-.643-.255.876.876,0,0,0-.709.31,1.227,1.227,0,0,0-.259.815H-4.536A2.191,2.191,0,0,1-4.244-7.57a2.054,2.054,0,0,1,.824-.792,2.5,2.5,0,0,1,1.207-.287,2.371,2.371,0,0,1,1.6.5,1.754,1.754,0,0,1,.571,1.4,2.247,2.247,0,0,1-.257,1.01,5.611,5.611,0,0,1-.881,1.2L-2.7-2.943H.178ZM4.915-4.389h.757V-3.32H4.915v1.446H3.588V-3.32H.848l-.06-.835,2.786-4.4h1.34Zm-2.8,0H3.588V-6.748L3.5-6.6Z" transform="translate(83.172 608)" fill="#272c31"/>
        <g id="Group_1716" data-name="Group 1716">
          <g id="Group_1713" data-name="Group 1713" transform="translate(0 5)">
            <rect id="Rectangle_4596" data-name="Rectangle 4596" width="21" height="1" transform="translate(38 610)" fill="#272c31"/>
            <rect id="Rectangle_4597" data-name="Rectangle 4597" width="4" height="1" transform="translate(61 610)" fill="#272c31"/>
            <rect id="Rectangle_4598" data-name="Rectangle 4598" width="4" height="1" transform="translate(67 610)" fill="#272c31"/>
            <rect id="Rectangle_4599" data-name="Rectangle 4599" width="4" height="1" transform="translate(73 610)" fill="#272c31"/>
            <rect id="Rectangle_4600" data-name="Rectangle 4600" width="4" height="1" transform="translate(79 610)" fill="#272c31"/>
            <rect id="Rectangle_4601" data-name="Rectangle 4601" width="4" height="1" transform="translate(85 610)" fill="#272c31"/>
          </g>
          <g id="Group_1714" data-name="Group 1714" transform="translate(0 2.5)">
            <rect id="Rectangle_4596-2" data-name="Rectangle 4596" width="21" height="1" transform="translate(38 610)" fill="#272c31"/>
            <rect id="Rectangle_4597-2" data-name="Rectangle 4597" width="4" height="1" transform="translate(61 610)" fill="#272c31"/>
            <rect id="Rectangle_4598-2" data-name="Rectangle 4598" width="4" height="1" transform="translate(67 610)" fill="#272c31"/>
            <rect id="Rectangle_4599-2" data-name="Rectangle 4599" width="4" height="1" transform="translate(73 610)" fill="#272c31"/>
            <rect id="Rectangle_4600-2" data-name="Rectangle 4600" width="4" height="1" transform="translate(79 610)" fill="#272c31"/>
            <rect id="Rectangle_4601-2" data-name="Rectangle 4601" width="4" height="1" transform="translate(85 610)" fill="#272c31"/>
          </g>
          <g id="Group_1715" data-name="Group 1715">
            <rect id="Rectangle_4596-3" data-name="Rectangle 4596" width="21" height="1" transform="translate(38 610)" fill="#272c31"/>
            <rect id="Rectangle_4597-3" data-name="Rectangle 4597" width="4" height="1" transform="translate(61 610)" fill="#272c31"/>
            <rect id="Rectangle_4598-3" data-name="Rectangle 4598" width="4" height="1" transform="translate(67 610)" fill="#272c31"/>
            <rect id="Rectangle_4599-3" data-name="Rectangle 4599" width="4" height="1" transform="translate(73 610)" fill="#272c31"/>
            <rect id="Rectangle_4600-3" data-name="Rectangle 4600" width="4" height="1" transform="translate(79 610)" fill="#272c31"/>
            <rect id="Rectangle_4601-3" data-name="Rectangle 4601" width="4" height="1" transform="translate(85 610)" fill="#272c31"/>
          </g>
        </g>
      </g>
    </g>
  </g>
</svg>
