<svg xmlns="http://www.w3.org/2000/svg" viewBox="0 0 139.37 28.39"><defs><style>.cls-1{fill:#fff;}</style></defs><g id="Layer_2" data-name="Layer 2"><g id="Layer_1-2" data-name="Layer 1"><path class="cls-1" d="M139.37,0H0V28.39H139.37Z"/><path d="M99.2,14.09V5.28c0-.2,0-.24.23-.24h4.35c.17,0,.21,0,.21.22v8.41a.21.21,0,0,1,0,.11l.12-.06.33-.42c.6-.74,1.18-1.47,1.78-2.2a.34.34,0,0,1,.33-.16h4.77a.11.11,0,0,1,.1.06s0,.08,0,.09c-.29.37-.6.72-.89,1.09l-2.68,3.26c-.21.27-.42.53-.66.8-.08.09-.08.15,0,.25.64.75,1.28,1.52,1.92,2.28.8.94,1.57,1.87,2.35,2.82l1.13,1.33a.28.28,0,0,1,0,.12.28.28,0,0,1-.12,0h-5.2a.27.27,0,0,1-.23-.12c-.8-.94-1.58-1.91-2.37-2.86-.18-.21-.35-.4-.51-.62,0,0-.09-.05-.13-.09a.37.37,0,0,0,0,.15V22.9c0,.16,0,.18-.21.18H99.47c-.25,0-.25,0-.25-.25,0-2.9,0-5.82,0-8.74ZM78,23.31a5.7,5.7,0,0,1-1.79-.25,6.49,6.49,0,0,1-1.67-.77,7.92,7.92,0,0,1-1.64-1.47,6.78,6.78,0,0,1-1-1.53,6.93,6.93,0,0,1-.48-3.3,6.41,6.41,0,0,1,.37-1.67,6.57,6.57,0,0,1,1.53-2.39,7,7,0,0,1,1.92-1.36,6.78,6.78,0,0,1,1.13-.36A7.25,7.25,0,0,1,78.63,10a6.82,6.82,0,0,1,1.43.27,5.52,5.52,0,0,1,1.36.6A6.64,6.64,0,0,1,83,12.22,6.35,6.35,0,0,1,84,13.72a5.75,5.75,0,0,1,.49,1.41,7.85,7.85,0,0,1,.08,2.65,6.25,6.25,0,0,1-.49,1.63,7.3,7.3,0,0,1-2.74,3,5.92,5.92,0,0,1-1.7.72A11.14,11.14,0,0,1,78,23.31Zm.19-8.62a2.14,2.14,0,0,0-1.08.27,1.89,1.89,0,0,0-.92,1.31,2.61,2.61,0,0,0,.1,1.24,1.39,1.39,0,0,0,1,.93,2.92,2.92,0,0,0,1.38,0,1.39,1.39,0,0,0,1.16-1,2.54,2.54,0,0,0-.08-1.8,1.24,1.24,0,0,0-.81-.74,6.82,6.82,0,0,0-.78-.19Zm-50,2.15a5.41,5.41,0,0,1-.26,1.64,6.4,6.4,0,0,1-1.1,2.14,7.39,7.39,0,0,1-1.61,1.55,7,7,0,0,1-1.34.73,6.55,6.55,0,0,1-2.93.41,6.11,6.11,0,0,1-1.69-.39,7.41,7.41,0,0,1-3.14-2.41,5.47,5.47,0,0,1-.82-1.45,6.57,6.57,0,0,1-.37-1.45,8,8,0,0,1-.05-1.47,6.15,6.15,0,0,1,.46-2,7.12,7.12,0,0,1,2-2.67,6.33,6.33,0,0,1,1.55-.95,6.82,6.82,0,0,1,3.34-.48,5.73,5.73,0,0,1,1.53.33,6.64,6.64,0,0,1,2.14,1.27,7,7,0,0,1,1.49,1.84,8.46,8.46,0,0,1,.49,1.12A6.13,6.13,0,0,1,28.14,16.84Zm-8.62-.18c0,.08,0,.23,0,.39A1.49,1.49,0,0,0,20.7,18.4a2.81,2.81,0,0,0,1.79-.06,1.35,1.35,0,0,0,.85-1,2.81,2.81,0,0,0,0-1.41,1.48,1.48,0,0,0-1.3-1.2,3.1,3.1,0,0,0-1.51.09,1.58,1.58,0,0,0-.8.64A2.06,2.06,0,0,0,19.52,16.66Zm16.24,6.65A5.84,5.84,0,0,1,34,23.06a6.33,6.33,0,0,1-1.71-.79,7.56,7.56,0,0,1-2.16-2.13,6.19,6.19,0,0,1-.71-1.49,6.92,6.92,0,0,1-.29-2.59,6.67,6.67,0,0,1,.36-1.72,6.9,6.9,0,0,1,1.6-2.43A6,6,0,0,1,33,10.57a7.09,7.09,0,0,1,1.69-.48A6,6,0,0,1,36.27,10a6.29,6.29,0,0,1,1,.18,4.76,4.76,0,0,1,.82.23,6.45,6.45,0,0,1,1,.48,6.51,6.51,0,0,1,1.82,1.61,5.89,5.89,0,0,1,1,1.7,6.61,6.61,0,0,1,.43,3.05,6.53,6.53,0,0,1-.54,2.07,7.2,7.2,0,0,1-1.79,2.34,6.62,6.62,0,0,1-1.88,1.2,6.41,6.41,0,0,1-2.41.42Zm.16-4.79.25,0a1.84,1.84,0,0,0,.95-.33,1.54,1.54,0,0,0,.58-1,2.89,2.89,0,0,0-.09-1.46,1.38,1.38,0,0,0-1.15-.93,3.1,3.1,0,0,0-1.57.07,1.48,1.48,0,0,0-1,1.09,2.58,2.58,0,0,0,0,1.35,1.35,1.35,0,0,0,.51.81,2.31,2.31,0,0,0,1.51.43Z"/><path d="M118,23.29a6.31,6.31,0,0,1-1.78-.23,5.92,5.92,0,0,1-1.71-.79,8,8,0,0,1-2.18-2.15,5,5,0,0,1-.69-1.47,6.52,6.52,0,0,1,.64-5.47,7,7,0,0,1,1.57-1.83,5.94,5.94,0,0,1,1.61-.95,7.62,7.62,0,0,1,3.06-.45,7.39,7.39,0,0,1,1.63.26,5.87,5.87,0,0,1,2.1,1.1,6.45,6.45,0,0,1,1.59,1.93c.21.41.43.83.6,1.26a3.72,3.72,0,0,1,.27,1.41c0,.15,0,.19-.19.21l-1.36.29-1.2.25-1.22.27-1.21.27-1.3.29c-.38.08-.77.18-1.16.25l-.58.12a.09.09,0,0,0-.08.06.23.23,0,0,0,.08.11c.19.16.4.31.6.47a1.57,1.57,0,0,0,1.2.27,1.94,1.94,0,0,0,1.38-.81c.17-.24.17-.24.43-.06l1.45.93,1.94,1.23c.22.14.22.14,0,.33-.43.45-.81.91-1.26,1.34a3.64,3.64,0,0,1-.83.63,6.25,6.25,0,0,1-3.07.89.78.78,0,0,1-.37,0Zm.12-8.93a3.65,3.65,0,0,0-.66.12,2,2,0,0,0-1.09.79,4.13,4.13,0,0,0-.33.58s0,.1,0,.14h.08l1.32-.29,1.28-.29a7.55,7.55,0,0,0,.79-.19c.12,0,.14-.08.06-.15a2.06,2.06,0,0,0-1.45-.72ZM6.4,15c0-2.57,0-5.12,0-7.69a2.09,2.09,0,0,1,1-1.78A2.61,2.61,0,0,1,9,5.1h6.5c.36,0,.33,0,.33.35V9.09c0,.21,0,.25-.26.25H12.34a1.64,1.64,0,0,0-.6.09.87.87,0,0,0-.54.85c0,.58,0,1.16,0,1.72v.33c0,.12.06.16.15.16h2.1c.27,0,.27,0,.27.27v3.69c0,.23,0,.25-.25.25H11.33c-.15,0-.17,0-.17.17v6.07c0,.12,0,.16-.16.16H6.5c-.12,0-.14-.06-.14-.16,0-2.64,0-5.27,0-7.92Zm38.77,3V14.92c0-.17,0-.21-.21-.21H43.41c-.16,0-.18,0-.18-.17V10.65c0-.14,0-.17.18-.17h1.53c.2,0,.22,0,.22-.22V6.4c0-.18,0-.2.19-.2h4.31c.19,0,.21,0,.21.22,0,.71,0,1.45,0,2.16s0,1.1,0,1.66c0,.22,0,.24.25.24h1.38c.15,0,.19,0,.19.19v3.85c0,.15,0,.19-.19.19h-1.4c-.19,0-.21,0-.21.21v2.79a1.38,1.38,0,0,0,.13.71.77.77,0,0,0,.63.44,2.17,2.17,0,0,0,.36,0h1.32c.22,0,.24,0,.24.24v3.75c0,.17,0,.21-.2.21H47.6A2.54,2.54,0,0,1,46,22.5a2.08,2.08,0,0,1-.79-1.68C45.17,19.89,45.17,18.94,45.17,18Zm47.39,5.31a6.09,6.09,0,0,1-1.86-.23A6.33,6.33,0,0,1,89,22.27a7.92,7.92,0,0,1-2.06-2,5.34,5.34,0,0,1-.81-1.66A6.79,6.79,0,0,1,85.85,16a5.83,5.83,0,0,1,.81-2.58,7.52,7.52,0,0,1,2-2.22,5.61,5.61,0,0,1,1.59-.83,6.94,6.94,0,0,1,3.26-.27,7.76,7.76,0,0,1,1.2.27,5.67,5.67,0,0,1,1.56.77A7.61,7.61,0,0,1,98.05,13c.06.08.06.14,0,.19-.85.55-1.72,1.09-2.58,1.63-.37.23-.73.48-1.12.71-.2.12-.2.12-.35-.06a3.72,3.72,0,0,0-.51-.46,1.38,1.38,0,0,0-1-.23,3,3,0,0,0-.89.13,1.48,1.48,0,0,0-.91.85,2.47,2.47,0,0,0-.08,1.61,1.38,1.38,0,0,0,.93,1,2.6,2.6,0,0,0,1.63.08,1.65,1.65,0,0,0,.8-.58s.06-.06.08-.1.09-.05.15,0l3,1.92.81.52c.1.06.1.11,0,.19a7.34,7.34,0,0,1-2.19,2.11,5.49,5.49,0,0,1-2.13.75c-.37.06-.76.08-1.13.12,0,0,0,0,0-.06ZM61.49,13.14V5.3c0-.22,0-.24.24-.24H66c.19,0,.21,0,.21.24V17.63a4.55,4.55,0,0,0,0,.52.89.89,0,0,0,.74.73,3.7,3.7,0,0,0,.48,0h3.16c.16,0,.18,0,.18.22v3.8c0,.12,0,.18-.18.18h-7a2.49,2.49,0,0,1-1.28-.33,1.55,1.55,0,0,1-.7-.85,3.28,3.28,0,0,1-.19-1.24C61.49,18.17,61.49,15.66,61.49,13.14ZM126,17.57V12.64a5.08,5.08,0,0,1,.08-1,1.74,1.74,0,0,1,1.24-1.39,3.44,3.44,0,0,1,1.05-.13h5.69c.19,0,.23,0,.23.23v3.75c0,.21,0,.23-.23.23-.72,0-1.42,0-2.14,0a2,2,0,0,0-.68.12.77.77,0,0,0-.48.73,2,2,0,0,0,0,.35v7.34c0,.12,0,.16-.16.16h-4.38c-.16,0-.2,0-.2-.18,0-1.77,0-3.55,0-5.33Z"/></g></g></svg>