<svg xmlns="http://www.w3.org/2000/svg" viewBox="0 0 471.97 91.76"><defs><style>.cls-1{fill:#fdc72a;}</style></defs><g id="Layer_2" data-name="Layer 2"><g id="Layer_1-2" data-name="Layer 1"><path class="cls-1" d="M9.12.31H58.81L57.23,9.43H18.87L16.35,23.88H41.82l-1.57,9.75H14.78L11.32,54.05H0L9.12.31M67,32.37,81.76,10.05l7.55,22.32ZM39.93,54.05h12l8.17-11.63H92.77l4.09,11.63h13.52L89.94.31H78L39.93,54.05ZM129.25,9.74l-1.89,11.31h31.45c9.74,0,12.26,2.52,10.37,12.89l-1.25,7.54c-1.58,10.05-5,12.57-14.79,12.57H124.53c-9.75,0-12.27-2.83-11-10.06h43.4l1.89-12.25H127.67c-9.43,0-12.26-2.52-10.69-12.89l.94-6C119.81,2.83,123.27.31,132.7.31h28.62c9.12,0,12.58,2.83,11.32,9.43H129.25m75.47,44.31H192.77L200,9.74H176.42L178,.31h59.43l-1.57,9.43H212l-7.23,44.31M451.26,30.48c4.09,0,5.66.94,5,5l-.62,4.08c-.63,3.77-2.52,4.72-6.61,4.72H423.9l2.52-13.83ZM454.72,8.8c3.77,0,5.34.63,4.72,4.08l-.63,5c-.63,3.14-2.52,3.77-6,3.77H427.68l2.2-12.88ZM411,54.05h38.36c11.95,0,16-3.46,17-10.69l1.26-6.91c.95-5.34-1.57-9.11-6.91-10.05,5.34-1.26,9.12-4.4,9.74-9.43l1.26-6.29C473,2.83,469.82.31,461.64.31H419.82L411,54.05ZM408.49,9.74,410.07.31H360.38l-9.12,53.74h50.32L403.15,44H364.47l2.2-13.19H404.4L406,21.37H368.24l1.89-11.63h38.36M242.45.31h22.33a120.72,120.72,0,0,1-9.43,53.74h-17.3c4.72-17.6,5-41.17,4.4-53.74m65.1,0c0,6.92-.63,31.43-17,53.74H267.92C278,37.08,282.39,17,282.39.31h25.16M325.16,0h27.67c-.31,12.57-2.51,33-25.47,54.05H304.09c12.89-14.46,20.44-33,21.07-54M252.52,60c-.63,1.57-1.58,2.83-2.2,4.09-13.21,23.56-33.65,26.08-38.68,27.65,8.17-3.46,16.35-7.54,24.53-31.43l.31-.31h16"/><path class="cls-1" d="M285.85,60a15.94,15.94,0,0,0-2.2,2.51c-23.9,24.83-68.55,29.23-72,29.23,6-1.89,22-2.2,39.31-17.29A72.06,72.06,0,0,0,264.15,60h21.7"/><path class="cls-1" d="M320.44,60l-.62.63C277.36,93,216,91.76,211.64,91.76a174.87,174.87,0,0,0,48.42-9.43c15.1-5.34,28-12.88,38.06-22.31h22.32"/></g></g></svg>