<svg xmlns="http://www.w3.org/2000/svg" viewBox="0 0 134 57.31"><defs><style>.cls-1{fill:#96d0ce;}.cls-2{fill:#80c6c6;}</style></defs><g id="Layer_2" data-name="Layer 2"><g id="Layer_1-2" data-name="Layer 1"><path class="cls-1" d="M27.23,0C12.19,0,0,11.36,0,25.37,0,35.88,6.86,44.9,16.64,48.75c1.14,3,2.4,5.89,5.29,8.56-.18-2.26.7-4.52,1.82-6.78a28.53,28.53,0,0,0,3.48.21A29.08,29.08,0,0,0,35,49.69l1,7,5.07-6c18.89,5.13,39.3-3.88,45.67-13.43,0-.07.07-.14.11-.2,5,4.36,12.83,7,21.44,6.6A35.25,35.25,0,0,0,120,41.2,17.78,17.78,0,0,1,125.06,46a27.51,27.51,0,0,0,1.31-8.35c4.9-3.7,7.85-8.73,7.62-14.16-.4-9.37-10.15-16.75-22.61-17.81a26.36,26.36,0,0,1-1.17,6.16,55.2,55.2,0,0,1-2.88,7.62,37.34,37.34,0,0,1-3.62,6.34,8.73,8.73,0,0,0,.46,2.71c.23.53.52.79.85.77a3.24,3.24,0,0,0,1.82-.93A20.54,20.54,0,0,0,109.12,26h0c.21-.57.42-1.11.65-1.62.44-1,.8-1.69,1.06-2.21l.15-.36a.69.69,0,0,0,.06-.25c0-.12-.07-.18-.21-.17l-.2,0-.2,0a.78.78,0,0,1-.41-.1.37.37,0,0,1-.2-.33c0-.49.53-1,1.44-1.58a6.28,6.28,0,0,1,3.09-.91,1,1,0,0,1,.67.18.6.6,0,0,1,.21.48,3.12,3.12,0,0,1-.3,1.08c-.19.44-.4.92-.65,1.45-.43.9-.88,1.91-1.35,3s-.88,2.25-1.24,3.44c0,.16-.07.31-.11.47a2.27,2.27,0,0,0,0,.41.63.63,0,0,0,.1.41.37.37,0,0,0,.33.15,3.58,3.58,0,0,0,1.69-.87,14.16,14.16,0,0,0,1.6-1.46,9.56,9.56,0,0,1,2.65-5.68,9.08,9.08,0,0,1,6.54-3.07,5.22,5.22,0,0,1,2.76.66,2.21,2.21,0,0,1,1.12,2,2.4,2.4,0,0,1-1,2.13,3,3,0,0,1-1.58.49,3.32,3.32,0,0,1-1-.16c-.34-.11-.54-.31-.56-.58s.28-.43.67-.54.63-.49.68-1.13a1,1,0,0,0-.54-.91,2.59,2.59,0,0,0-1.2-.27,5,5,0,0,0-3.88,2.52,8.79,8.79,0,0,0-1.53,4.56,3.5,3.5,0,0,0,.38,1.68,1.38,1.38,0,0,0,1.24.76,2.62,2.62,0,0,0,1.63-.9,6.76,6.76,0,0,0,1.51-2.32,3.4,3.4,0,0,1,1.21-1.59,2.73,2.73,0,0,1,1.54-.6.84.84,0,0,1,.57.17.64.64,0,0,1,.21.53,2.06,2.06,0,0,1-.13.65c-.12.38-.32,1-.61,1.86a12.75,12.75,0,0,0-.48,1.73.45.45,0,0,0,.07.27.31.31,0,0,0,.28.11,3.52,3.52,0,0,0,1.68-.87A19.41,19.41,0,0,0,130.22,26a.94.94,0,0,1,.34-.25,1,1,0,0,1,.4-.09.55.55,0,0,1,.34.1.43.43,0,0,1,.14.33,1.2,1.2,0,0,1-.14.53,3.53,3.53,0,0,1-.47.69,17,17,0,0,1-3.49,3.21,5.6,5.6,0,0,1-2.84,1.07,2.12,2.12,0,0,1-1.48-.48,1.94,1.94,0,0,1-.61-1.26,5.76,5.76,0,0,1-1.64,1.3,4,4,0,0,1-1.81.44,3.57,3.57,0,0,1-2.61-1.13,3.84,3.84,0,0,1-.88-1.5,13.43,13.43,0,0,1-1.92,1.56,5.57,5.57,0,0,1-2.84,1.07,2.31,2.31,0,0,1-1.78-.66,2.57,2.57,0,0,1-.57-1.78c0-.11,0-.22,0-.34a14.17,14.17,0,0,1-2.07,1.81,4.67,4.67,0,0,1-2.59,1,2.59,2.59,0,0,1-2.35-1.65,7.24,7.24,0,0,1-.56-1.74,15.46,15.46,0,0,1-2.7,2.32,5.57,5.57,0,0,1-2.83,1.07,2.18,2.18,0,0,1-1.5-.48,1.92,1.92,0,0,1-.59-1.26,5.66,5.66,0,0,1-1.65,1.3,3.93,3.93,0,0,1-1.81.44,3.57,3.57,0,0,1-2.6-1.13,3.92,3.92,0,0,1-1-1.67l-.26.14a3.84,3.84,0,0,1-1.81.43,3.75,3.75,0,0,1-.82-.09,5.54,5.54,0,0,1-.8-.21,6.49,6.49,0,0,1-2.65,2,5.92,5.92,0,0,1-2.32.5A2.56,2.56,0,0,1,76,31.13a1.54,1.54,0,0,1-.63-1.3A3,3,0,0,1,76,28q.76-1.07,3.09-1.17a10.08,10.08,0,0,1,1.05.07c.38,0,.8.11,1.26.2A9.81,9.81,0,0,0,82,25.19a9.41,9.41,0,0,0,.19-1.83,3.66,3.66,0,0,0-.4-1.86,1.46,1.46,0,0,0-1.34-.76,4.51,4.51,0,0,0-2.88,2A14.45,14.45,0,0,0,75.24,27L69.39,43.92a3.59,3.59,0,0,1-1.23,1.62,2.86,2.86,0,0,1-1.55.61.81.81,0,0,1-.55-.17.7.7,0,0,1-.2-.53A2.12,2.12,0,0,1,66,44.8l5.38-15.68a12.9,12.9,0,0,1-1.76,1.38,5.63,5.63,0,0,1-2.85,1.07A2.14,2.14,0,0,1,65.16,31a2.17,2.17,0,0,1-.48-1.52,5.49,5.49,0,0,1,.06-.8,8.68,8.68,0,0,1,.2-.86,11.94,11.94,0,0,1-2.75,2.82,4.43,4.43,0,0,1-2.44.93,1.91,1.91,0,0,1-1.55-.71,3.24,3.24,0,0,1-.59-2.08c0-.13,0-.26,0-.39a5.59,5.59,0,0,1-3.23,1.09,6.32,6.32,0,0,1-.74-.06,6.11,6.11,0,0,1-.74-.17A8.66,8.66,0,0,1,50.31,31a6.83,6.83,0,0,1-2.67.59,3.94,3.94,0,0,1-3.08-1.31,4.52,4.52,0,0,1-.82-1.47,12.52,12.52,0,0,1-2.26,1.84,5.41,5.41,0,0,1-2.81.94,2.72,2.72,0,0,1-2.1-.91,2.86,2.86,0,0,1-.74-1.88,4.06,4.06,0,0,1,.55-1.89,8.5,8.5,0,0,1,1.94-2.34,9.56,9.56,0,0,1-1.3-.23,11,11,0,0,1-1.23-.38c-.47.62-.93,1.22-1.4,1.81s-.89,1.09-1.26,1.54a1,1,0,0,1-.37.28,1.08,1.08,0,0,1-.38.08.48.48,0,0,1-.33-.12.43.43,0,0,1-.14-.36,1,1,0,0,1,.14-.5,3.53,3.53,0,0,1,.47-.69c.31-.36.65-.77,1-1.24l1.07-1.42A4,4,0,0,1,33.28,22a3.34,3.34,0,0,1-.41-1.72,4.65,4.65,0,0,1,1.4-3.3A4.05,4.05,0,0,1,37,15.73a1.83,1.83,0,0,1,1.41.59,2,2,0,0,1,.51,1.37,5,5,0,0,1-.33,1.78,8.6,8.6,0,0,1-.9,1.72,9.67,9.67,0,0,0,1.86.24l1.68.06a1.21,1.21,0,0,1,.81.35,1.26,1.26,0,0,1,.32.91,1.17,1.17,0,0,1-.09.48,1,1,0,0,1-.29.4,19.92,19.92,0,0,0-1.78,1.94,5.24,5.24,0,0,0-1.32,2.86,1.16,1.16,0,0,0,.21.77.7.7,0,0,0,.57.23,4.38,4.38,0,0,0,2.2-.95,13.71,13.71,0,0,0,1.66-1.4A8,8,0,0,1,44,24.29a9.79,9.79,0,0,1,1.63-2.76,11.82,11.82,0,0,1,1.44-1.42,2.26,2.26,0,0,1,1-.54.54.54,0,0,1,.44.22.9.9,0,0,1,.17.52,1,1,0,0,1,0,.23.52.52,0,0,1-.14.2,6.88,6.88,0,0,0-1.34,2.15,7.75,7.75,0,0,0-.59,2.88,5.13,5.13,0,0,0,.72,2.76,2.2,2.2,0,0,0,1.87,1.12,2.6,2.6,0,0,0,1.14-.29,3.93,3.93,0,0,0,1.12-.8,6.29,6.29,0,0,1-2.16-2.16,6,6,0,0,1-.85-3.08,6.17,6.17,0,0,1,.91-3.19,3.4,3.4,0,0,1,2.89-1.65,2.93,2.93,0,0,1,1.18.24,3.33,3.33,0,0,1,1.12.76,4.21,4.21,0,0,1,1,1.56A5.65,5.65,0,0,1,55.88,23a7.3,7.3,0,0,1-.37,2.25,8.35,8.35,0,0,1-1.11,2.24,2,2,0,0,0,.35,0h.35a3.61,3.61,0,0,0,1.6-.35,4.7,4.7,0,0,0,1.43-1.1c.07-.21.13-.43.21-.64a34.09,34.09,0,0,1,1.49-3.37c.05-.09.09-.19.14-.29a.72.72,0,0,0,.08-.27.14.14,0,0,0-.06-.12.21.21,0,0,0-.16-.06l-.18,0a1.52,1.52,0,0,1-.21,0,.82.82,0,0,1-.42-.1.4.4,0,0,1-.19-.34c.05-.44.49-1,1.35-1.52a5.81,5.81,0,0,1,3-.92,1.35,1.35,0,0,1,.75.19.71.71,0,0,1,.31.6,1.27,1.27,0,0,1-.18.66L61.85,24.2a10,10,0,0,0-1.23,4.1,1.94,1.94,0,0,0,.15.87.44.44,0,0,0,.41.26c.66-.07,1.61-.91,2.81-2.54a36.05,36.05,0,0,0,3.48-6,4.74,4.74,0,0,1,1.45-1.75,2.85,2.85,0,0,1,1.56-.6,1,1,0,0,1,.6.16.65.65,0,0,1,.23.53,1.48,1.48,0,0,1,0,.28c0,.14-.1.3-.18.5-.32.72-.74,1.71-1.28,2.94s-1,2.42-1.46,3.57a10,10,0,0,0-.7,2.44.84.84,0,0,0,.1.44.37.37,0,0,0,.33.17,3.51,3.51,0,0,0,1.67-.87,20.37,20.37,0,0,0,2.66-2.58l1.39-4.06c0-.13.08-.25.12-.35a1.05,1.05,0,0,0,0-.26.27.27,0,0,0,0-.12.18.18,0,0,0-.14,0l-.19,0a1.25,1.25,0,0,1-.29.05.67.67,0,0,1-.35-.1.38.38,0,0,1-.17-.34c0-.42.47-.92,1.28-1.49a5.48,5.48,0,0,1,3-.95.86.86,0,0,1,.56.19.69.69,0,0,1,.23.55,2.06,2.06,0,0,1-.13.66l-.52,1.48a9.27,9.27,0,0,1,2.47-2.16,4.86,4.86,0,0,1,2.41-.72,3,3,0,0,1,2.53,1.29,4.61,4.61,0,0,1,.83,2.64,8.09,8.09,0,0,1-.51,2.66,11.93,11.93,0,0,1-1.19,2.4l.2,0,.41,0A3.1,3.1,0,0,0,86,27.09h0a9.59,9.59,0,0,1,2.64-5.53,9.06,9.06,0,0,1,6.54-3.07,5.23,5.23,0,0,1,2.75.66,2.24,2.24,0,0,1,1.13,2,2.43,2.43,0,0,1-1,2.13,3,3,0,0,1-1.57.49,3.38,3.38,0,0,1-1-.16.68.68,0,0,1-.55-.58c0-.25.28-.43.67-.54s.62-.49.68-1.13a1,1,0,0,0-.54-.91,2.59,2.59,0,0,0-1.2-.27,5,5,0,0,0-3.88,2.52,8.9,8.9,0,0,0-1.54,4.56,3.5,3.5,0,0,0,.38,1.68,1.39,1.39,0,0,0,1.24.76,2.62,2.62,0,0,0,1.64-.9,6.61,6.61,0,0,0,1.5-2.32,3.53,3.53,0,0,1,1.21-1.59,2.78,2.78,0,0,1,1.54-.6.83.83,0,0,1,.57.17.64.64,0,0,1,.21.53,2,2,0,0,1-.12.65c-.12.38-.33,1-.61,1.86a11.83,11.83,0,0,0-.49,1.73.46.46,0,0,0,.08.27.31.31,0,0,0,.28.11,3.52,3.52,0,0,0,1.68-.87,18.08,18.08,0,0,0,2.4-2.3c0-.11,0-.21,0-.32a33.8,33.8,0,0,1,2-10.68,39.86,39.86,0,0,1,4.13-8.69c.29-.44.56-.83.83-1.19l-.89,0C96.28,6,87.5,10.65,83.39,17.06c-9.15-5.41-22.55-7.45-34-6.39A27.84,27.84,0,0,0,27.23,0Zm1.6,3.16a2.67,2.67,0,0,1,2.31,1A3.16,3.16,0,0,1,31.67,6,9.57,9.57,0,0,1,29,11.9a28.22,28.22,0,0,1-6.56,5.43A33.2,33.2,0,0,1,14.34,21a16.28,16.28,0,0,0-.47,1.92,10.11,10.11,0,0,0-.18,1.87,3.92,3.92,0,0,0,1,2.84,2.87,2.87,0,0,0,2,.88,6.16,6.16,0,0,0,3.11-1.34,22.18,22.18,0,0,0,3.48-3.2,35.76,35.76,0,0,0,3.07-3.83,14.56,14.56,0,0,0,1.82-3.29l.25-.7.14-.43a3.4,3.4,0,0,1,1.14-1.45,3.17,3.17,0,0,1,1.83-.69.93.93,0,0,1,.64.2.73.73,0,0,1,.24.58,2.44,2.44,0,0,1,0,.27,1.35,1.35,0,0,1-.08.3l-1,3C30.7,19.73,29.91,22,29,24.58l-2.53,7.34a7.47,7.47,0,0,1,3.58,1,2.41,2.41,0,0,1,1.26,2,3.94,3.94,0,0,1-.49,1.56,1.72,1.72,0,0,1-1.34,1.06.7.7,0,0,1-.44-.13.54.54,0,0,1-.17-.43,3,3,0,0,1,0-.42,3.19,3.19,0,0,0,0-.42,2.24,2.24,0,0,0-.86-1.83A4.28,4.28,0,0,0,26,33.54l-.12.38q-1.63,4.41-4.13,6.14a7.86,7.86,0,0,1-4.65,1.64,4.27,4.27,0,0,1-2.75-.89,2.64,2.64,0,0,1-1-2.08q.21-2.53,3.25-4.22a20.54,20.54,0,0,1,6.39-2.28L26,23.11A30.7,30.7,0,0,1,20.29,29a10.56,10.56,0,0,1-5.81,2.56,4.31,4.31,0,0,1-3.55-1.65A6.06,6.06,0,0,1,9.76,26.2a15.13,15.13,0,0,1,.75-4.53l-.64,0H9.24a4.28,4.28,0,0,1-2.55-.86,2.9,2.9,0,0,1-1.2-2.28A5.47,5.47,0,0,1,7,14.87a4.09,4.09,0,0,1,2.25-1.41.37.37,0,0,1,.31.14.51.51,0,0,1,.07.3A4,4,0,0,1,9.4,15a3.89,3.89,0,0,0-.29,1.27,2.41,2.41,0,0,0,.64,1.84,3.09,3.09,0,0,0,1.89.74A32.7,32.7,0,0,1,17,11a34.73,34.73,0,0,1,6.48-5.68A11.13,11.13,0,0,1,28.83,3.16ZM26.53,5.6a3,3,0,0,0-1.1.27,11.68,11.68,0,0,0-2.77,2.2,38.15,38.15,0,0,0-3.92,4.54,31.68,31.68,0,0,0-3.52,6,16.45,16.45,0,0,0,6.33-2.85,17.48,17.48,0,0,0,4.35-4.53,8.66,8.66,0,0,0,1.62-4.45A1.32,1.32,0,0,0,27.31,6,.87.87,0,0,0,26.53,5.6Zm81.41,2.28c-.29,0-.68.69-1.19,1.93a43.73,43.73,0,0,0-1.52,4.64c-.5,1.86-.91,3.72-1.22,5.6-.09.59-.16,1.17-.22,1.74s-.07,1.09-.08,1.57a33.7,33.7,0,0,0,2.52-6c.67-2.14,1.16-4,1.49-5.59a25.81,25.81,0,0,0,.49-2.86,3.25,3.25,0,0,0-.07-.75C108.1,8,108,7.87,107.94,7.88Zm7.22,4a1.86,1.86,0,0,1,1.23.41,1.57,1.57,0,0,1,.53,1.2,2.55,2.55,0,0,1-.8,1.69,2.75,2.75,0,0,1-1.87.81,1.89,1.89,0,0,1-1.27-.47,1.5,1.5,0,0,1-.52-1.15,2.37,2.37,0,0,1,.85-1.72A2.84,2.84,0,0,1,115.16,11.89ZM36.4,17.35a.76.76,0,0,0-.61.42,1.79,1.79,0,0,0-.26.92,2.46,2.46,0,0,0,.27,1.07,2.89,2.89,0,0,0,.55.78,4.7,4.7,0,0,0,.4-1,3.61,3.61,0,0,0,.18-1.09,2,2,0,0,0-.15-.87A.43.43,0,0,0,36.4,17.35Zm15,3.27a1.28,1.28,0,0,0-1.13.65,2.69,2.69,0,0,0-.36,1.39A4.38,4.38,0,0,0,50.71,25a6,6,0,0,0,1.9,1.8A7,7,0,0,0,53,25.44,7.76,7.76,0,0,0,53.14,24a6.23,6.23,0,0,0-.41-2.32A1.5,1.5,0,0,0,51.43,20.62Zm27.66,7.46a1.47,1.47,0,0,0-1.09.41,1.29,1.29,0,0,0-.36.9.81.81,0,0,0,.2.55.83.83,0,0,0,.64.23,2,2,0,0,0,1.13-.44,4.65,4.65,0,0,0,1.13-1.25l-.84-.27A3,3,0,0,0,79.09,28.08ZM22.33,33.8a10.8,10.8,0,0,0-3.73,1.6A3.36,3.36,0,0,0,17,38a1.52,1.52,0,0,0,.48,1.09,1.53,1.53,0,0,0,1,.45.35.35,0,0,0,.11,0l.11,0a3.09,3.09,0,0,0,1.16-.55,4.44,4.44,0,0,0,1.5-2.2Z"/><path class="cls-2" d="M49.42,10.67c-6.43.6-12.24,2.18-16.29,4.71q-.66.46-1.26,1l-.52,1.51C30.7,19.73,29.91,22,29,24.58l-2.53,7.34a7.47,7.47,0,0,1,3.58,1,2.41,2.41,0,0,1,1.26,2,3.94,3.94,0,0,1-.49,1.56,1.72,1.72,0,0,1-1.34,1.06.7.7,0,0,1-.44-.13.54.54,0,0,1-.17-.43,3,3,0,0,1,0-.42,3.19,3.19,0,0,0,0-.42,2.24,2.24,0,0,0-.86-1.83A4.28,4.28,0,0,0,26,33.54l-.12.38-.15.38a21.78,21.78,0,0,0,9.09,13.76L35,49.69C44.89,47,52.43,39.13,54.11,29.47l-.45,0a6.11,6.11,0,0,1-.74-.17A8.66,8.66,0,0,1,50.31,31a6.83,6.83,0,0,1-2.67.59,3.94,3.94,0,0,1-3.08-1.31,4.52,4.52,0,0,1-.82-1.47,12.52,12.52,0,0,1-2.26,1.84,5.41,5.41,0,0,1-2.81.94,2.72,2.72,0,0,1-2.1-.91,2.86,2.86,0,0,1-.74-1.88,4.06,4.06,0,0,1,.55-1.89,8.5,8.5,0,0,1,1.94-2.34,9.56,9.56,0,0,1-1.3-.23,11,11,0,0,1-1.23-.38c-.47.62-.93,1.22-1.4,1.81s-.89,1.09-1.26,1.54a1,1,0,0,1-.37.28,1.08,1.08,0,0,1-.38.08.48.48,0,0,1-.33-.12.43.43,0,0,1-.14-.36,1,1,0,0,1,.14-.5,3.53,3.53,0,0,1,.47-.69c.31-.36.65-.77,1-1.24l1.07-1.42A4,4,0,0,1,33.28,22a3.34,3.34,0,0,1-.41-1.72,4.65,4.65,0,0,1,1.4-3.3A4.05,4.05,0,0,1,37,15.73a1.83,1.83,0,0,1,1.41.59,2,2,0,0,1,.51,1.37,5,5,0,0,1-.33,1.78,8.6,8.6,0,0,1-.9,1.72,9.67,9.67,0,0,0,1.86.24l1.68.06a1.21,1.21,0,0,1,.81.35,1.26,1.26,0,0,1,.32.91,1.17,1.17,0,0,1-.09.48,1,1,0,0,1-.29.4,19.92,19.92,0,0,0-1.78,1.94,5.24,5.24,0,0,0-1.32,2.86,1.16,1.16,0,0,0,.21.77.7.7,0,0,0,.57.23,4.38,4.38,0,0,0,2.2-.95,13.71,13.71,0,0,0,1.66-1.4A8,8,0,0,1,44,24.29a9.79,9.79,0,0,1,1.63-2.76,11.82,11.82,0,0,1,1.44-1.42,2.26,2.26,0,0,1,1-.54.54.54,0,0,1,.44.22.9.9,0,0,1,.17.52,1,1,0,0,1,0,.23.52.52,0,0,1-.14.2,6.88,6.88,0,0,0-1.34,2.15,7.75,7.75,0,0,0-.59,2.88,5.13,5.13,0,0,0,.72,2.76,2.2,2.2,0,0,0,1.87,1.12,2.6,2.6,0,0,0,1.14-.29,3.93,3.93,0,0,0,1.12-.8,6.29,6.29,0,0,1-2.16-2.16,6,6,0,0,1-.85-3.08,6.17,6.17,0,0,1,.91-3.19,3.4,3.4,0,0,1,2.89-1.65,2.93,2.93,0,0,1,1.18.24l.13.05A24.8,24.8,0,0,0,49.42,10.67Zm34,6.39a15.57,15.57,0,0,0-.84,1.48,2.88,2.88,0,0,1,2,1.23,4.61,4.61,0,0,1,.83,2.64,8.09,8.09,0,0,1-.51,2.66,11.93,11.93,0,0,1-1.19,2.4l.2,0,.41,0A3.1,3.1,0,0,0,86,27.09h0a9.38,9.38,0,0,1,2.22-5,15.65,15.65,0,0,0-4.7-4.88Zm-47,.29a.76.76,0,0,0-.61.42,1.79,1.79,0,0,0-.26.92,2.46,2.46,0,0,0,.27,1.07,2.89,2.89,0,0,0,.55.78,4.7,4.7,0,0,0,.4-1,3.61,3.61,0,0,0,.18-1.09,2,2,0,0,0-.15-.87A.43.43,0,0,0,36.4,17.35Zm15,3.27a1.28,1.28,0,0,0-1.13.65,2.69,2.69,0,0,0-.36,1.39A4.38,4.38,0,0,0,50.71,25a6,6,0,0,0,1.9,1.8A7,7,0,0,0,53,25.44,7.76,7.76,0,0,0,53.14,24a6.23,6.23,0,0,0-.41-2.32A1.5,1.5,0,0,0,51.43,20.62Zm30.07.51a14.36,14.36,0,0,0-.6,4.66A12.09,12.09,0,0,0,81,27l.42.08A9.81,9.81,0,0,0,82,25.19a9.41,9.41,0,0,0,.19-1.83,3.66,3.66,0,0,0-.4-1.86A1.72,1.72,0,0,0,81.5,21.13Zm8,3.93a7.83,7.83,0,0,0-.37,2.15,3.5,3.5,0,0,0,.38,1.68,1.69,1.69,0,0,0,.21.31A11.81,11.81,0,0,0,89.48,25.06Zm-3.31,3.71-.26.14a3.84,3.84,0,0,1-1.81.43,3.75,3.75,0,0,1-.82-.09,5.54,5.54,0,0,1-.8-.21,7.7,7.7,0,0,1-.78.82,17.3,17.3,0,0,0,5.12,7.25,24.25,24.25,0,0,0,2.43-5.58,3.55,3.55,0,0,1-2.13-1.09A3.92,3.92,0,0,1,86.17,28.77Z"/></g></g></svg>