<?xml version="1.0" encoding="utf-8"?>
<!-- Generator: Adobe Illustrator 25.0.0, SVG Export Plug-In . SVG Version: 6.00 Build 0)  -->
<svg version="1.1" id="Livello_1" xmlns="http://www.w3.org/2000/svg" xmlns:xlink="http://www.w3.org/1999/xlink" x="0px" y="0px"
	 viewBox="0 0 213.01 328.82" style="enable-background:new 0 0 213.01 328.82;" xml:space="preserve">
<style type="text/css">
	.st0{fill:#3A3A3A;}
	.st1{fill:#FFCC03;}
</style>
<g>
	<g>
		<path class="st0" d="M20.87,232.97v92.22H4.06v-92.22H20.87z"/>
		<path class="st0" d="M77.64,232.97c15.38,0,27.21,3.62,35.51,10.85c8.29,7.23,12.44,18.26,12.44,33.06c0,7.75-0.93,14.62-2.8,20.6
			c-1.87,5.99-4.75,11.02-8.67,15.11c-3.91,4.09-8.9,7.21-14.96,9.36c-6.06,2.15-13.23,3.23-21.53,3.23H43.4v-92.22H77.64z
			 M78.14,313.74c1.44,0,3.25-0.1,5.42-0.31c2.17-0.21,4.47-0.71,6.91-1.5c2.44-0.79,4.85-1.94,7.25-3.44
			c2.39-1.5,4.54-3.54,6.43-6.13c1.9-2.59,3.45-5.82,4.67-9.7c1.22-3.88,1.83-8.57,1.83-14.08c0-5.34-0.56-10.12-1.69-14.33
			c-1.13-4.21-2.98-7.8-5.55-10.76c-2.57-2.96-5.89-5.21-9.96-6.76c-4.06-1.54-9.08-2.32-15.03-2.32H58.69v69.33H78.14z"/>
		<path class="st0" d="M129.86,246.02v-13.05h79.1v13.05h-31.93v79.17h-15.85v-79.17H129.86z"/>
	</g>
	<g>
		<path class="st1" d="M3.99,208.67h87c-41.89-41.61-69.01-89.82-87-129.08V208.67z"/>
		<path class="st1" d="M75.84,3.63c31.66,16.13,64.18,37.16,89.02,58.2c16.52,13.99,31.33,28.66,44.17,43.4V3.63H75.84z"/>
		<path class="st1" d="M68.21,74.72c-21.16,21.16-1.12,75.51,44.76,121.39c4.43,4.43,8.95,8.62,13.5,12.56h1.69l23.37-86.8
			l27.82,86.8h29.67v-67.39c-5.82-7.37-12.31-14.69-19.42-21.8C143.72,73.6,89.37,53.56,68.21,74.72z"/>
		<path class="st1" d="M29.49,36.08c-27.63,27.63-0.68,99.38,60.2,160.26c4.28,4.28,8.62,8.4,12.99,12.33h14.76
			c-3.91-3.62-7.79-7.38-11.63-11.29C50.45,140.93,24.69,76.41,48.28,53.27s87.61,3.86,142.98,60.31
			c6.32,6.44,12.25,12.99,17.77,19.57v-15.92c-5.97-7.07-12.41-14.07-19.27-20.94C128.87,35.4,57.12,8.45,29.49,36.08z"/>
	</g>
</g>
</svg>
