<svg xmlns="http://www.w3.org/2000/svg" viewBox="0 0 360.66 148.68"><defs><style>.cls-1{fill:#cb1c1d;}</style></defs><g id="Layer_2" data-name="Layer 2"><g id="Layer_1-2" data-name="Layer 1"><path class="cls-1" d="M1.3,31.16H19.15V148H1.3Zm83.75,0h17.87V148H85.05ZM43.18.33H61.36V148H43.16ZM359.69,0H341.84V50.32c-8.44-11.68-22.09-18.51-40.25-19.81-17.21,0-31.49,5.86-42.2,17.55a59.58,59.58,0,0,0-16.24,41.22,58.24,58.24,0,0,0,15.59,40.58c11.36,12.66,26,18.82,43.17,18.82s31.81-6.16,43.17-18.82a58.3,58.3,0,0,0,15.58-40.59ZM300.94,131.48c-22.07,0-40.24-18.83-40.24-41.56s17.85-41.87,40.24-41.87c22.09,0,40.26,18.83,40.26,41.55S323,131.48,301,131.48ZM17.21,4.22A9.61,9.61,0,0,0,10.06,1.3,9.59,9.59,0,0,0,2.92,4.22,9.49,9.49,0,0,0,0,11.36,9.56,9.56,0,0,0,2.92,18.5a10.09,10.09,0,0,0,7.14,2.93,9.55,9.55,0,0,0,7.15-2.93,10.05,10.05,0,0,0,2.92-7.14A7.67,7.67,0,0,0,17.21,4.22Zm84.07,0A10.07,10.07,0,0,0,94.14,1.3,9.57,9.57,0,0,0,87,4.22a9.52,9.52,0,0,0-2.92,7.14A9.56,9.56,0,0,0,87,18.5a10.09,10.09,0,0,0,7.14,2.93,9.51,9.51,0,0,0,7.14-2.93,10.1,10.1,0,0,0,2.92-7.14A9.51,9.51,0,0,0,101.28,4.22Zm75.33,26.31c-32.47,0-58.77,26.61-58.77,59.07s26.3,59.08,58.77,59.08a58,58,0,0,0,40.57-16.56V147.7H235V89.62c0-32.79-26.29-59.09-58.42-59.09Zm-.34,100.62c-22.39,0-40.24-18.5-40.24-41.55s18.17-41.55,40.24-41.55c22.41,0,40.26,18.5,40.26,41.55s-18.18,41.55-40.24,41.55Z"/></g></g></svg>