<?xml version="1.0" encoding="utf-8"?>
<!-- Generator: Adobe Illustrator 23.0.4, SVG Export Plug-In . SVG Version: 6.00 Build 0)  -->
<svg version="1.1" id="Layer_1" xmlns="http://www.w3.org/2000/svg" xmlns:xlink="http://www.w3.org/1999/xlink" x="0px" y="0px"
	 viewBox="0 0 1606.762085 358.3317871" style="enable-background:new 0 0 1606.762085 358.3317871;" xml:space="preserve">
<style type="text/css">
	.st0{fill:#0094F6;}
</style>
<g>
	<g>
		<path class="st0" d="M214.4833832,344.7304077h-98.5942535c-37.2058411,0-64.1071167-7.2086487-80.6893005-21.6259766
			c-16.5897579-14.4172974-24.881485-37.9028625-24.881485-70.4578857V13.6013708h64.6445465v239.0451813
			c0,13.0220032,2.9432678,22.0183105,8.8360977,26.9738159c5.886528,4.9630432,16.5828171,7.4420471,32.0901413,7.4420471
			h98.5942535V344.7304077z"/>
		<path class="st0" d="M458.6392212,344.7304077H341.4417114c-37.2052002,0-63.3293457-6.4315186-78.3641968-19.3008728
			c-15.0418091-12.8617859-22.5557709-35.5777893-22.5557709-68.1315613V13.6013708h218.1174774v57.669281H305.1662903v77.6665573
			h107.4309692l-4.6507874,57.6680145H305.1662903v46.0413208c0,13.0220032,2.9432678,22.0183105,8.8360901,26.9738159
			c5.8865356,4.9630432,16.5828247,7.4420471,32.0901489,7.4420471h112.5466919V344.7304077z"/>
		<path class="st0" d="M731.6315918,249.3916626c0,30.6942139-8.2987061,54.260498-24.8808594,70.690033
			c-16.5897827,16.4371033-39.7649536,24.6487122-69.5281372,24.6487122h-44.6466064
			c-36.5877075,0-62.5516357-6.350769-77.8987427-19.0674744c-15.3477173-12.7091675-23.0212708-34.7211914-23.0212708-66.039856
			V13.6013708h139.9853821c31.6252441,0,55.4161377,7.9063139,71.3876953,23.7189369
			c15.9665527,15.8126259,23.9523315,38.1349983,23.9523315,66.969635c0,16.7424088-4.2666626,31.0070801-12.789856,42.786438
			c-8.5308228,11.7869263-17.9043579,20.1575012-28.1357422,25.1142426
			C716.4371338,186.4540405,731.6315918,212.1864471,731.6315918,249.3916626z M626.5269165,142.8904724
			c23.8690796,0,35.8086548-11.9320221,35.8086548-35.8099136c0-23.8715897-11.9395752-35.809906-35.8086548-35.809906h-70.2263794
			v71.6198196H626.5269165z M666.9857788,246.1355286c0-14.8815765-2.6367188-26.1159363-7.9050903-33.7169495
			c-5.2758789-7.5934296-14.7301636-11.394577-28.3703613-11.394577h-74.40979v52.0880585
			c0,12.7167053,3.175415,21.5527954,9.5337524,26.5083008c6.3513794,4.9630432,16.8155518,7.4420471,31.3924561,7.4420471
			h33.4835815C654.8947754,287.0624084,666.9857788,273.4222107,666.9857788,246.1355286z"/>
		<path class="st0" d="M1018.5750732,344.7304077h-67.4351196l-18.6032715-57.2037354H821.3853149l-18.1376953,57.2037354
			h-67.4338989L841.8493652,41.5062294c4.6502075-10.5367069,9.8390503-17.826107,15.5792236-21.8581123
			c5.7338867-4.0256968,12.789917-6.0467463,21.1604614-6.0467463c8.3718262,0,15.1149902,1.8608284,20.2307129,5.5812235
			c5.1156616,3.720396,9.6864014,11.1611862,13.7196655,22.3236351L1018.5750732,344.7304077z M917.6550903,233.1135254
			l-39.06604-131.1486664l-40.9255981,131.1486664H917.6550903z"/>
		<path class="st0" d="M1293.8880615,344.7304077h-74.8758545l-64.6445312-122.7780762h-46.5068359v122.7780762h-64.6446533
			V84.7569275c0-24.8013763,5.7338867-42.8583488,17.2080078-54.1797562
			c11.4664307-11.3150997,30.6942139-16.9758034,57.6679688-16.9758034h54.8786621
			c32.8591309,0,58.9838867,9.9992723,78.3642578,29.9978142c19.3728027,19.9972839,29.0667725,45.3436546,29.0667725,76.0378571
			c0,22.3236313-5.8133545,41.6245193-17.4400635,57.9014053s-25.972168,27.5188141-43.0198975,33.7169495L1293.8880615,344.7304077
			z M1202.5018311,153.819519c8.8361816-9.4530029,13.2554932-21.2323608,13.2554932-35.3443832
			c0-14.1057129-4.2667236-25.4990234-12.789917-34.1824722c-8.5307617-8.6771393-19.925415-13.0220108-34.1824951-13.0220108
			h-32.0894775c-19.2277832,0-28.8345947,9.7658768-28.8345947,29.2988968v67.4351654h60.9240723
			C1182.4238281,168.004715,1193.6657715,163.2813568,1202.5018311,153.819519z"/>
		<path class="st0" d="M1596.2720947,344.7304077h-67.4351807l-18.6032715-57.2037354h-111.1513672l-18.1376953,57.2037354
			h-67.4338379l106.0356445-303.2241821c4.6501465-10.5367069,9.8391113-17.826107,15.5792236-21.8581123
			c5.7338867-4.0256968,12.789917-6.0467463,21.1605225-6.0467463c8.3718262,0,15.1148682,1.8608284,20.2305908,5.5812235
			s9.6864014,11.1611862,13.7197266,22.3236351L1596.2720947,344.7304077z M1495.3521729,233.1135254l-39.06604-131.1486664
			l-40.9256592,131.1486664H1495.3521729z"/>
	</g>
</g>
</svg>
