<svg xmlns="http://www.w3.org/2000/svg" width="187.953" height="54.737" viewBox="0 0 187.953 54.737">
  <g id="logoFooter" transform="translate(-396.723 -6039.27)">
    <g id="Group_326" data-name="Group 326" transform="translate(-225.836 5965.048)">
      <g id="Group_23" data-name="Group 23" transform="translate(622.559 74.222)">
        <g id="Group_22" data-name="Group 22" transform="translate(27.029 38.731)">
          <path id="Path_51" data-name="Path 51" d="M658.087,109.614c-.658-1.484-2.7-2.1-4.312-2.124-2.326,0-5.43.685-5.524,3.408-.059,1.683,1.94,2.17,4.271,2.634,2.859.576,5.847,1.307,5.154,4.65-.764,3.5-4.33,4.139-6.922,4.139-2.415,0-5.081-.995-5.775-3.365l1.081-.53c.574,1.948,2.872,2.768,4.8,2.768,1.9,0,5.045-.487,5.628-3.233.5-2.257-1.958-2.9-4.4-3.386-2.463-.51-4.86-1.02-4.983-3.21-.2-3.1,2.787-4.96,6.708-4.96,2.3,0,4.445.886,5.179,2.657Z" transform="translate(-644.979 -106.338)" fill="#fff"/>
          <path id="Path_52" data-name="Path 52" d="M671.688,107.614h-5.6l.236-1.063h12.405l-.237,1.063h-5.6l-3.03,14.433h-1.2Z" transform="translate(-640.641 -106.307)" fill="#fff"/>
          <path id="Path_53" data-name="Path 53" d="M699.492,114.364A9.546,9.546,0,0,1,690,122.355c-4.785,0-6.446-3.189-6.324-6.685a9.547,9.547,0,0,1,9.7-9.321C698.6,106.349,700.215,110.157,699.492,114.364ZM684.935,117c.339,2.346,1.867,4.252,5.279,4.252a8.414,8.414,0,0,0,8.3-8.1c.164-3.432-1.53-5.69-5.384-5.69A8.324,8.324,0,0,0,684.935,117Z" transform="translate(-637.026 -106.349)" fill="#fff"/>
          <path id="Path_54" data-name="Path 54" d="M718.445,122.047h-1.507l-4.07-5.866h-4.342l-1.245,5.866h-1.2l3.266-15.5h6.822c3.168,0,4.33,2.215,4.03,4.471-.36,2.723-2.127,5.069-5.981,5.092Zm-9.681-6.995h5.494a4.476,4.476,0,0,0,4.737-3.7c.4-1.814-.335-3.718-3.038-3.718H710.33Z" transform="translate(-632.419 -106.307)" fill="#fff"/>
          <path id="Path_55" data-name="Path 55" d="M729.661,113.7h9.081l-.215,1.086h-9.083l-1.3,6.11h9.791l-.24,1.15H726.733l3.266-15.5h10.7l-.239,1.108h-9.525Z" transform="translate(-628.174 -106.307)" fill="#fff"/>
        </g>
        <path id="Path_56" data-name="Path 56" d="M646.593,90.8a6.8,6.8,0,0,0,4.287-2.938A8.864,8.864,0,0,0,652.42,82.9a6.994,6.994,0,0,0-2.311-5.394,8.354,8.354,0,0,0-5.972-2.168H629.4l-1.511,7.417h0L635.8,88.73l1.2-5.972h3.9a2.518,2.518,0,0,1,2.745,2.6,3.412,3.412,0,0,1-3.371,3.372H626.671l-1.277,6.262-1.3,6.406-1.531,7.513h18.4a10.134,10.134,0,0,0,7.9-3.275,11.406,11.406,0,0,0,2.986-7.851A6.715,6.715,0,0,0,646.593,90.8Zm-7.225,10.6h-6.116l1.3-6.406h5.395a2.775,2.775,0,0,1,3.034,2.793A3.608,3.608,0,0,1,639.368,101.4Z" transform="translate(-622.559 -73.992)" fill="#fff"/>
        <path id="Path_57" data-name="Path 57" d="M689.276,94.1a4.9,4.9,0,0,0,3.485,1.269,5.865,5.865,0,0,0,5.782-5.647,4.438,4.438,0,0,0-1.351-3.324,4.685,4.685,0,0,0-3.458-1.324,5.544,5.544,0,0,0-4.053,1.73,5.472,5.472,0,0,0-1.729,4A4.316,4.316,0,0,0,689.276,94.1Z" transform="translate(-609.117 -71.991)" fill="#f26521"/>
        <path id="Path_58" data-name="Path 58" d="M648.329,108.911l6.839-33.57H669.28a11.088,11.088,0,0,1,8.092,3.034,9.991,9.991,0,0,1,3.179,7.658,13.406,13.406,0,0,1-13.39,13.149h-7.706l-1.975,9.729ZM661.14,90.9h6.31a4.17,4.17,0,0,0,3.949-4.142,3.1,3.1,0,0,0-3.275-3.131h-5.49Z" transform="translate(-617.262 -73.992)" fill="#040505"/>
        <path id="Path_59" data-name="Path 59" d="M679.333,84.718a20,20,0,0,1,7.37-7.079,20.388,20.388,0,0,1,10.258-2.7,18.086,18.086,0,0,1,12.522,4.432,14.347,14.347,0,0,1,4.962,11.27,18.268,18.268,0,0,1-5.781,13.294,19.748,19.748,0,0,1-14.448,5.731c-5.106,0-9.3-1.444-12.62-4.382a14.465,14.465,0,0,1-4.913-11.271A17.582,17.582,0,0,1,679.333,84.718Zm9.15,14.5a8.727,8.727,0,0,0,6.213,2.264A10.456,10.456,0,0,0,705,91.414,7.907,7.907,0,0,0,702.6,85.49a8.347,8.347,0,0,0-6.165-2.36,9.884,9.884,0,0,0-7.225,3.083,9.754,9.754,0,0,0-3.081,7.128A7.7,7.7,0,0,0,688.483,99.216Z" transform="translate(-611.434 -74.074)" fill="#040505"/>
        <path id="Path_60" data-name="Path 60" d="M708.9,108.911l6.839-33.57h9.151l-6.839,33.57Z" transform="translate(-604.812 -73.992)" fill="#040505"/>
        <path id="Path_61" data-name="Path 61" d="M722.319,109.141l7.128-34.919,17.3,24.2,4.658-22.854h8.766l-8.77,42.964L733.937,95.222l-2.852,13.919Z" transform="translate(-602.053 -74.222)" fill="#040505"/>
        <path id="Path_62" data-name="Path 62" d="M759.637,95.91l-1.788,8.773H767l1.788-8.773Z" transform="translate(-594.75 -69.764)" fill="#fff"/>
        <path id="Path_63" data-name="Path 63" d="M756.3,75.341l-1.685,8.284h9.055l-3.153,15.47h9.152l3.153-15.47h8.862l1.686-8.284Z" transform="translate(-595.415 -73.992)" fill="#040505"/>
        <g id="Path_64" data-name="Path 64" transform="translate(-608.209 -71.145)" fill="#f26521" stroke-miterlimit="10">
          <path d="M 693.9041137695313 107.0823822021484 C 693.318603515625 107.0823822021484 692.8321533203125 106.6259841918945 692.7967529296875 106.043342590332 L 692.3264770507813 98.08820343017578 L 691.8381958007813 89.82896423339844 C 691.8200073242188 89.52178192138672 691.92529296875 89.23026275634766 692.1346435546875 89.00815582275391 C 692.3441772460938 88.78580474853516 692.638427734375 88.65827178955078 692.94189453125 88.65827178955078 C 693.15283203125 88.65827178955078 693.3594360351563 88.71984100341797 693.5394287109375 88.83633422851563 L 700.4923706054688 93.32049560546875 L 707.1890258789063 97.63751983642578 C 707.5712280273438 97.88483428955078 707.7612915039063 98.33235931396484 707.6740112304688 98.77816009521484 C 707.5868530273438 99.22370147705078 707.2423706054688 99.56634521484375 706.7964477539063 99.65106964111328 L 700.2555541992188 100.8844909667969 C 699.7794799804688 100.9745559692383 699.344482421875 101.2285232543945 699.0310668945313 101.5995712280273 L 694.743408203125 106.6888961791992 C 694.5330810546875 106.9388809204102 694.22705078125 107.0823822021484 693.9041137695313 107.0823822021484 Z" stroke="none"/>
          <path d="M 693.9041137695313 106.5505218505859 C 694.0599975585938 106.5505218505859 694.2181396484375 106.4870681762695 694.336669921875 106.3462142944336 L 698.624755859375 101.2563629150391 C 699.017822265625 100.7910232543945 699.557861328125 100.4751739501953 700.156982421875 100.3618392944336 L 706.6971435546875 99.12855529785156 C 707.2047119140625 99.03211212158203 707.3349609375 98.36545562744141 706.90087890625 98.08454895019531 L 700.2041015625 93.76746368408203 L 693.2503662109375 89.28280639648438 C 693.1517944335938 89.21897125244141 693.0454711914063 89.19013977050781 692.94189453125 89.19013977050781 C 692.6327514648438 89.19013977050781 692.348388671875 89.44718933105469 692.369140625 89.79756927490234 L 692.857421875 98.05681610107422 L 693.32763671875 106.0110626220703 C 693.3478393554688 106.3432540893555 693.622314453125 106.5505218505859 693.9041137695313 106.5505218505859 M 693.9041137695313 107.6142501831055 C 693.0379028320313 107.6142501831055 692.318359375 106.9384002685547 692.265869140625 106.0756225585938 L 691.7955322265625 98.11958312988281 L 691.3072509765625 89.8603515625 C 691.2803344726563 89.40546417236328 691.4367065429688 88.97321319580078 691.74755859375 88.64337158203125 C 692.0571899414063 88.31483459472656 692.4924926757813 88.12641143798828 692.94189453125 88.12641143798828 C 693.2556762695313 88.12641143798828 693.562255859375 88.21752166748047 693.8284912109375 88.38988494873047 L 700.7806396484375 92.87351989746094 L 707.4772338867188 97.19050598144531 C 708.043701171875 97.55707550048828 708.3252563476563 98.21998596191406 708.1959838867188 98.88032531738281 C 708.0668334960938 99.54041290283203 707.556396484375 100.0480499267578 706.8956909179688 100.173583984375 L 700.3541259765625 101.4071426391602 C 699.9979858398438 101.4745101928711 699.6721801757813 101.6647720336914 699.4373779296875 101.9427795410156 L 695.150146484375 107.0315704345703 C 694.8386840820313 107.4017105102539 694.3843994140625 107.6142501831055 693.9041137695313 107.6142501831055 Z" stroke="none" fill="#fff"/>
        </g>
        <path id="Path_65" data-name="Path 65" d="M638.651,81.493h-3.9l-1.2,5.972h4.48a3.412,3.412,0,0,0,3.371-3.372A2.518,2.518,0,0,0,638.651,81.493Z" transform="translate(-620.301 -72.727)" fill="none"/>
        <path id="Path_66" data-name="Path 66" d="M706.85,98.084l-6.7-4.318L693.2,89.283a.561.561,0,0,0-.586-.018l6.606,11.442a2.648,2.648,0,0,1,.886-.345l6.54-1.233A.573.573,0,0,0,706.85,98.084Z" transform="translate(-608.159 -71.145)" fill="#bb3d10"/>
        <path id="Path_67" data-name="Path 67" d="M638.123,91.641h-5.395l-1.3,6.406h6.116a3.608,3.608,0,0,0,3.613-3.613A2.775,2.775,0,0,0,638.123,91.641Z" transform="translate(-620.736 -70.641)" fill="none"/>
        <path id="Path_68" data-name="Path 68" d="M636.1,81.493h-9.121l7.917,5.972Z" transform="translate(-621.65 -72.727)" fill="#c1c1c1"/>
      </g>
      <path id="Path_69" data-name="Path 69" d="M689.276,94.1a4.9,4.9,0,0,0,3.485,1.269,5.865,5.865,0,0,0,5.782-5.647,4.438,4.438,0,0,0-1.351-3.324,4.685,4.685,0,0,0-3.458-1.324,5.544,5.544,0,0,0-4.053,1.73,5.472,5.472,0,0,0-1.729,4A4.316,4.316,0,0,0,689.276,94.1Z" transform="translate(13.442 2.231)" fill="#fff"/>
      <path id="Path_70" data-name="Path 70" d="M679.333,84.718a20,20,0,0,1,7.37-7.079,20.388,20.388,0,0,1,10.258-2.7,18.086,18.086,0,0,1,12.522,4.432,14.347,14.347,0,0,1,4.962,11.27,18.268,18.268,0,0,1-5.781,13.294,19.748,19.748,0,0,1-14.448,5.731c-5.106,0-9.3-1.444-12.62-4.382a14.465,14.465,0,0,1-4.913-11.271A17.582,17.582,0,0,1,679.333,84.718Zm9.15,14.5a8.727,8.727,0,0,0,6.213,2.264A10.456,10.456,0,0,0,705,91.414,7.907,7.907,0,0,0,702.6,85.49a8.347,8.347,0,0,0-6.165-2.36,9.884,9.884,0,0,0-7.225,3.083,9.754,9.754,0,0,0-3.081,7.128A7.7,7.7,0,0,0,688.483,99.216Z" transform="translate(11.125 0.148)" fill="#040505"/>
      <g id="Path_71" data-name="Path 71" transform="translate(14.35 3.077)" fill="#f26521" stroke-miterlimit="10">
        <path d="M 693.9041137695313 107.0823822021484 C 693.318603515625 107.0823822021484 692.8321533203125 106.6259841918945 692.7967529296875 106.043342590332 L 692.3264770507813 98.08820343017578 L 691.8381958007813 89.82896423339844 C 691.8200073242188 89.52178192138672 691.92529296875 89.23026275634766 692.1346435546875 89.00815582275391 C 692.3441772460938 88.78580474853516 692.638427734375 88.65827178955078 692.94189453125 88.65827178955078 C 693.15283203125 88.65827178955078 693.3594360351563 88.71984100341797 693.5394287109375 88.83633422851563 L 700.4923706054688 93.32049560546875 L 707.1890258789063 97.63751983642578 C 707.5712280273438 97.88483428955078 707.7612915039063 98.33235931396484 707.6740112304688 98.77816009521484 C 707.5868530273438 99.22370147705078 707.2423706054688 99.56634521484375 706.7964477539063 99.65106964111328 L 700.2555541992188 100.8844909667969 C 699.7794799804688 100.9745559692383 699.344482421875 101.2285232543945 699.0310668945313 101.5995712280273 L 694.743408203125 106.6888961791992 C 694.5330810546875 106.9388809204102 694.22705078125 107.0823822021484 693.9041137695313 107.0823822021484 Z" stroke="none"/>
        <path d="M 693.9041137695313 106.5505218505859 C 694.0599975585938 106.5505218505859 694.2181396484375 106.4870681762695 694.336669921875 106.3462142944336 L 698.624755859375 101.2563629150391 C 699.017822265625 100.7910232543945 699.557861328125 100.4751739501953 700.156982421875 100.3618392944336 L 706.6971435546875 99.12855529785156 C 707.2047119140625 99.03211212158203 707.3349609375 98.36545562744141 706.90087890625 98.08454895019531 L 700.2041015625 93.76746368408203 L 693.2503662109375 89.28280639648438 C 693.1517944335938 89.21897125244141 693.0454711914063 89.19013977050781 692.94189453125 89.19013977050781 C 692.6327514648438 89.19013977050781 692.348388671875 89.44718933105469 692.369140625 89.79756927490234 L 692.857421875 98.05681610107422 L 693.32763671875 106.0110626220703 C 693.3478393554688 106.3432540893555 693.622314453125 106.5505218505859 693.9041137695313 106.5505218505859 M 693.9041137695313 107.6142501831055 C 693.0379028320313 107.6142501831055 692.318359375 106.9384002685547 692.265869140625 106.0756225585938 L 691.7955322265625 98.11958312988281 L 691.3072509765625 89.8603515625 C 691.2803344726563 89.40546417236328 691.4367065429688 88.97321319580078 691.74755859375 88.64337158203125 C 692.0571899414063 88.31483459472656 692.4924926757813 88.12641143798828 692.94189453125 88.12641143798828 C 693.2556762695313 88.12641143798828 693.562255859375 88.21752166748047 693.8284912109375 88.38988494873047 L 700.7806396484375 92.87351989746094 L 707.4772338867188 97.19050598144531 C 708.043701171875 97.55707550048828 708.3252563476563 98.21998596191406 708.1959838867188 98.88032531738281 C 708.0668334960938 99.54041290283203 707.556396484375 100.0480499267578 706.8956909179688 100.173583984375 L 700.3541259765625 101.4071426391602 C 699.9979858398438 101.4745101928711 699.6721801757813 101.6647720336914 699.4373779296875 101.9427795410156 L 695.150146484375 107.0315704345703 C 694.8386840820313 107.4017105102539 694.3843994140625 107.6142501831055 693.9041137695313 107.6142501831055 Z" stroke="none" fill="#fff"/>
      </g>
      <path id="Path_72" data-name="Path 72" d="M706.85,98.084l-6.7-4.318L693.2,89.283a.561.561,0,0,0-.586-.018l6.606,11.442a2.648,2.648,0,0,1,.886-.345l6.54-1.233A.573.573,0,0,0,706.85,98.084Z" transform="translate(14.4 3.077)" fill="#bb3d10"/>
    </g>
  </g>
</svg>
