<svg xmlns="http://www.w3.org/2000/svg" viewBox="0 0 142.97 19.23"><defs><style>.cls-1{fill:#e30513;}</style></defs><g id="Layer_2" data-name="Layer 2"><g id="Layer_1-2" data-name="Layer 1"><path class="cls-1" d="M0,18.78H4l8.66-11.3-1.93,11.3h2.4l8.66-11.3-2,11.3H23L26.22,0H23.38l-8,10.43L17.08,0H14.25"/><path class="cls-1" d="M112.83,0h-4l-8.66,11.3L102.12,0h-2.4L91.06,11.3,93,0H89.87L86.61,18.78h2.83l8-10.43L95.74,18.78h2.83"/><path class="cls-1" d="M28.58,10.14a3.62,3.62,0,0,1,3-1.7,2,2,0,0,1,2.21,1.7ZM31.45,5s-5.76,0-6.81,7.24c-1.09,7.55,8.55,9.57,11.77,2.09H32.7a3.08,3.08,0,0,1-2.76,1.26c-2,0-2.15-2.2-2.15-2.2h9S38.62,5,31.45,5"/><path class="cls-1" d="M46.67,12a4,4,0,0,1-4.23,3.52c-1.64-.12-2.63-2.12-1.46-4.76a3.39,3.39,0,0,1,3.49-2.27c.91,0,2.75.71,2.2,3.51M48.32,1.72,47.5,6a6,6,0,0,0-3.07-1A7,7,0,0,0,38,9.65c-1.65,3.91-.42,8.24,3.07,9.13a5.43,5.43,0,0,0,4.12-.47l.05.47h3.26l3-17.06"/><path class="cls-1" d="M138.15,12.23a4,4,0,0,1-4.23,3.52c-1.64-.12-2.63-2.12-1.46-4.76A3.39,3.39,0,0,1,136,8.72c.91,0,2.75.71,2.2,3.51M139.8,2,139,6.24a6,6,0,0,0-3.07-1,7,7,0,0,0-6.4,4.69c-1.65,3.91-.42,8.24,3.07,9.13a5.43,5.43,0,0,0,4.12-.47l.05.47H140L143,2"/><path class="cls-1" d="M63.31,12a4,4,0,0,1-4.24,3.52c-1.63-.12-2.62-2.12-1.45-4.76a3.38,3.38,0,0,1,3.49-2.27c.91,0,2.75.71,2.2,3.51m1-6.5L64.14,6a6,6,0,0,0-3.07-1,7,7,0,0,0-6.41,4.69c-1.65,3.91-.42,8.24,3.07,9.13a5.43,5.43,0,0,0,4.12-.47l.06.47h3.25L67.47,5.52"/><path class="cls-1" d="M49,18.78h3.23l2.4-13.27H51.49Z"/><path class="cls-1" d="M52.12,1.72l-.63,2.53h3.15l.51-2.53Z"/><path class="cls-1" d="M127,1.64h3.2l-3,17.32h-3.33Z"/><path class="cls-1" d="M111.12,15.75c-2.4,0-2.82-3.09-1.59-5.2a3.63,3.63,0,0,1,3.34-1.88,2.52,2.52,0,0,1,2.27,2.8,4.13,4.13,0,0,1-4,4.28m2.65-10.46a7.12,7.12,0,0,0-6.85,3.49c-2.41,4.12-1.44,10.08,3.42,10.37s7.81-3.84,7.87-8.38-3.44-5.48-4.44-5.48"/><path class="cls-1" d="M119.75,5.68H123v.19a4.78,4.78,0,0,1,2.79-.38l-.52,3.17a2.77,2.77,0,0,0-3.15,2.28c-.44,2.64-1.44,8-1.44,8h-3.31"/><path class="cls-1" d="M87,8.15c0-.05-5.61-7-10.89-1.84,0,0,2.86-5.25,10.44,0a9.34,9.34,0,0,0-1.39-2.56S76.32.37,74.72,7.36c0,0-.42-6.2,9.29-4.86A9.69,9.69,0,0,0,81.59.9C71.73,1.8,74.09,9,74.09,9,71.24,2.81,79.46.25,79.56.22A10.1,10.1,0,0,0,77.49,0a10.39,10.39,0,0,0-1.26.08c-7,5.56-2,10.35-2,10.35-5.32-4.41.23-9.89.29-10a9.52,9.52,0,0,0-3.17,1.74C68.58,10.11,75.22,12,75.22,12,69,10.72,70,3.61,70,3.51a9.56,9.56,0,0,0-1.38,2.3c1,7.92,8,6.88,8,6.88C71.51,14.21,68.57,9.12,68,8a9.09,9.09,0,0,0-.11,1.39A8.66,8.66,0,0,0,68,10.64a7.8,7.8,0,0,0,10.1,2.08s-4.27,4-9.75-.52a9.25,9.25,0,0,0,1.33,2.62s7.53,2.8,10.23-3c0,0-.28,5-8.82,4.55a9.48,9.48,0,0,0,2.22,1.46c8.55-.94,7.54-7.5,7.54-7.5,1.46,4.78-3.59,7.14-6.21,8a9.73,9.73,0,0,0,2.87.43l.59,0c.08-.06,7.37-5.05,2.73-10.4,0,0,5.3,3.3-1,10.14a9.88,9.88,0,0,0,3-1.3s4.34-7.82-3.3-10.57c0,0,6.8.5,4.78,9.37a9.43,9.43,0,0,0,1.88-2.63c0-.11-.54-9.07-8.39-7.31,0,0,5.55-3.24,9.06,5.4a9.45,9.45,0,0,0,.23-2.07A10.06,10.06,0,0,0,87,8.15"/></g></g></svg>