<svg xmlns="http://www.w3.org/2000/svg" viewBox="0 0 135.5 46"><defs><style>.cls-1{fill:#fc6c4f;}.cls-2{fill:#bac5c3;}</style></defs><g id="Layer_2" data-name="Layer 2"><g id="Layer_1-2" data-name="Layer 1"><path class="cls-1" d="M79.92,6a5.63,5.63,0,0,0-1.67-4.3,5.73,5.73,0,0,0-8.13,0L67.75,4.05,65.38,1.69A5.75,5.75,0,0,0,55.57,6a5.69,5.69,0,0,0,1.67,3.83L67.78,20.36,78.26,9.82A5.75,5.75,0,0,0,79.92,6"/><path class="cls-2" d="M21,33.05a3.89,3.89,0,0,0-1.53-1.3,5.36,5.36,0,0,0-2.39-.48,5.37,5.37,0,0,0-2.62.58,4.64,4.64,0,0,0-1.83,1.93,3.8,3.8,0,0,0-1.71-1.9,5.45,5.45,0,0,0-2.62-.61,5.06,5.06,0,0,0-1.44.2A5.41,5.41,0,0,0,5.69,32a4.59,4.59,0,0,0-.89.72,3.4,3.4,0,0,0-.58.81H4.16v-1.9H0v14H4.33v-7a9.37,9.37,0,0,1,.09-1.33,3.32,3.32,0,0,1,.36-1.14,2.08,2.08,0,0,1,.8-.81,2.57,2.57,0,0,1,1.35-.31,1.7,1.7,0,0,1,1.15.35,2.11,2.11,0,0,1,.56.84,3.55,3.55,0,0,1,.2,1c0,.36,0,.67,0,.92v7.43H13.2V38.23A5.9,5.9,0,0,1,13.33,37a2.72,2.72,0,0,1,.44-1,2,2,0,0,1,.81-.68,2.87,2.87,0,0,1,1.25-.25,1.6,1.6,0,0,1,1.49.71,3.26,3.26,0,0,1,.42,1.69v8.18h4.33V37.37A11.32,11.32,0,0,0,21.83,35,5.7,5.7,0,0,0,21,33.05"/><path class="cls-2" d="M33.75,38.61a9.58,9.58,0,0,1-.09,1.33,3.46,3.46,0,0,1-.36,1.14,2.08,2.08,0,0,1-.8.81,2.69,2.69,0,0,1-1.36.3,2,2,0,0,1-1.28-.35,2.07,2.07,0,0,1-.67-.89,4.2,4.2,0,0,1-.26-1.2c0-.43,0-.85,0-1.26V31.62H24.56v7.74A18,18,0,0,0,24.74,42a5.52,5.52,0,0,0,.76,2.11,3.85,3.85,0,0,0,1.58,1.4,6.22,6.22,0,0,0,2.68.5,4.73,4.73,0,0,0,1.44-.2,5,5,0,0,0,1.19-.52,3.94,3.94,0,0,0,.88-.72,5.18,5.18,0,0,0,.59-.81h.06v1.91h4.16v-14H33.75Z"/><path class="cls-2" d="M49.82,38a6.83,6.83,0,0,0-1.76-.68l-1.76-.4a6.8,6.8,0,0,1-1.36-.44.79.79,0,0,1-.54-.76,1,1,0,0,1,.52-.9A2.44,2.44,0,0,1,46,34.56a3.06,3.06,0,0,1,2.51,1.19l2.66-2.63a5.13,5.13,0,0,0-2.39-1.45,10.2,10.2,0,0,0-2.81-.4,8.76,8.76,0,0,0-2.16.27,5.64,5.64,0,0,0-1.89.86A4.15,4.15,0,0,0,40.07,36a3.72,3.72,0,0,0,.54,2.12A3.62,3.62,0,0,0,42,39.36a7.48,7.48,0,0,0,1.77.65l1.76.4a5.79,5.79,0,0,1,1.36.47.87.87,0,0,1,.53.82.78.78,0,0,1-.61.79,3.82,3.82,0,0,1-1.35.22,3.61,3.61,0,0,1-1.72-.39,4.47,4.47,0,0,1-1.35-1.14L39.72,44.1a5.61,5.61,0,0,0,2.55,1.49,11.37,11.37,0,0,0,3,.41,12.73,12.73,0,0,0,2.28-.21A6.76,6.76,0,0,0,49.6,45a4.5,4.5,0,0,0,1.52-1.42,4,4,0,0,0,.59-2.24,3.72,3.72,0,0,0-.53-2.12A4,4,0,0,0,49.82,38"/><path class="cls-2" d="M90.38,33.05a3.76,3.76,0,0,0-1.53-1.3,5.31,5.31,0,0,0-2.38-.48,5.41,5.41,0,0,0-2.63.58A4.62,4.62,0,0,0,82,33.78a3.86,3.86,0,0,0-1.72-1.9,5.42,5.42,0,0,0-2.62-.61,5.06,5.06,0,0,0-1.44.2,5.62,5.62,0,0,0-1.19.52,4.59,4.59,0,0,0-.89.72,3.71,3.71,0,0,0-.58.81h-.06v-1.9H69.36v14H73.7v-7a11.19,11.19,0,0,1,.08-1.33,3.12,3.12,0,0,1,.37-1.14,2,2,0,0,1,.79-.81,2.58,2.58,0,0,1,1.36-.31,1.67,1.67,0,0,1,1.14.35,1.92,1.92,0,0,1,.56.84,3.55,3.55,0,0,1,.2,1c0,.36,0,.67,0,.92v7.43h4.34V38.23A5.28,5.28,0,0,1,82.7,37a2.71,2.71,0,0,1,.43-1,2,2,0,0,1,.81-.68,2.9,2.9,0,0,1,1.25-.25,1.59,1.59,0,0,1,1.49.71,3.26,3.26,0,0,1,.42,1.69v8.18h4.34V37.37A11.31,11.31,0,0,0,91.19,35a5.33,5.33,0,0,0-.81-1.93"/><path class="cls-2" d="M122.48,33.18a3.91,3.91,0,0,0-1.57-1.41,6.13,6.13,0,0,0-2.66-.5,5.18,5.18,0,0,0-1.45.2,5.32,5.32,0,0,0-1.18.52,4.07,4.07,0,0,0-.9.72,3.71,3.71,0,0,0-.58.81h0v-1.9h-4.16v14h4.33v-7a9.37,9.37,0,0,1,.09-1.33,3,3,0,0,1,.36-1.15,2,2,0,0,1,.79-.8,2.61,2.61,0,0,1,1.36-.31,2.09,2.09,0,0,1,1.29.35,2.16,2.16,0,0,1,.66.9,4.06,4.06,0,0,1,.26,1.19c0,.44,0,.86,0,1.26v6.88h4.34V37.91a15.28,15.28,0,0,0-.21-2.62,5.63,5.63,0,0,0-.76-2.11"/><path class="cls-2" d="M135.5,35.08V31.62h-3.82V27.46h-4.33v4.16h-2.78v3.46h2.78v6.68a4.48,4.48,0,0,0,.39,2A3.5,3.5,0,0,0,128.82,45a4.62,4.62,0,0,0,1.62.73,8,8,0,0,0,2,.23c.5,0,1,0,1.53-.08a7.05,7.05,0,0,0,1.51-.35V42a1.62,1.62,0,0,1-.86.33,7,7,0,0,1-.91.07,2.86,2.86,0,0,1-1.11-.18,1.33,1.33,0,0,1-.62-.54,2,2,0,0,1-.26-.82,8.55,8.55,0,0,1-.06-1.06V35.08Z"/><path class="cls-2" d="M67.3,38.15a7.19,7.19,0,0,0-14.37.32v.15h0a7.42,7.42,0,0,0,.6,3A7,7,0,0,0,55.2,44a7.28,7.28,0,0,0,2.48,1.48,8.76,8.76,0,0,0,3,.52A7.9,7.9,0,0,0,64,45.28a6.83,6.83,0,0,0,2.63-2.05L66,42.76,63.62,41a5,5,0,0,1-1.29,1.22A3.53,3.53,0,0,1,58.39,42a3.45,3.45,0,0,1-1.13-2H67.31V38.64h0c0-.16,0-.32,0-.47m-10-1.1a2.68,2.68,0,0,1,.25-1,2.49,2.49,0,0,1,.6-.84,3.42,3.42,0,0,1,.94-.59,3.34,3.34,0,0,1,1.27-.23,2.58,2.58,0,0,1,1.94.78A2.51,2.51,0,0,1,63,37.05Z"/><path class="cls-2" d="M107.86,38.15a7.19,7.19,0,0,0-14.37.32v.15h0a7.26,7.26,0,0,0,.61,3A6.84,6.84,0,0,0,95.76,44a7.28,7.28,0,0,0,2.48,1.48,8.76,8.76,0,0,0,3.05.52,7.87,7.87,0,0,0,3.29-.72,6.83,6.83,0,0,0,2.63-2.05l-.64-.47L104.18,41a5,5,0,0,1-1.29,1.22A3.53,3.53,0,0,1,99,42a3.45,3.45,0,0,1-1.13-2h10.06V38.64h0c0-.16,0-.32,0-.47m-10-1.1a2.68,2.68,0,0,1,.25-1,2.39,2.39,0,0,1,.61-.84,3.22,3.22,0,0,1,.93-.59,3.34,3.34,0,0,1,1.27-.23,2.58,2.58,0,0,1,1.94.78,2.51,2.51,0,0,1,.72,1.88Z"/><path class="cls-2" d="M69.17,21.53l1,1.06A5.76,5.76,0,0,0,80,18.49V10.6Z"/><path class="cls-2" d="M55.68,10.6v7.89a5.76,5.76,0,0,0,9.81,4.1l1.05-1.06Z"/></g></g></svg>