<svg xmlns="http://www.w3.org/2000/svg" viewBox="0 0 139.02 24.64"><g id="Layer_2" data-name="Layer 2"><g id="Layer_1-2" data-name="Layer 1"><path d="M59.37,4.17h-8.2v16.4h4.15v-6s5.93.31,7.61-1.88c1.25-1.43,1.31-3.72.81-5.46A4.2,4.2,0,0,0,59.37,4.17Zm.48,7.38c-1,1.16-3.13,1.14-4.55,1l0-6.57S59,5.51,60,7.18A4.79,4.79,0,0,1,59.85,11.55ZM24.56,23.22a13.29,13.29,0,0,1-4.85-3.72c-1.59-1.81-5.39-6.95-5.39-6.95-2-2.54-4.58-6.73-7.18-8.83v16.8H9.45V12c1.63,2.08,3.53,4.73,5,6.41.63.75,2.26,2.51,2.72,2.9a13.28,13.28,0,0,0,13,2.6v-.15A9.71,9.71,0,0,1,24.56,23.22ZM10.44,5.14c1.59,1.81,5.39,7,5.39,7,2,2.53,4.58,6.72,7.19,8.83V4.15H20.7v8.47c-1.63-2.09-3.53-4.74-5-6.41-.63-.75-2.26-2.52-2.71-2.9A13.36,13.36,0,0,0,0,.68V.84a9.87,9.87,0,0,1,5.6.59A14.06,14.06,0,0,1,10.44,5.14ZM36.56,6l0-1.83H25.37v16.4H36.58l0-1.84a66.26,66.26,0,0,1-7.07.19V13a42.14,42.14,0,0,1,5.64.09V11.17a34,34,0,0,1-5.64.09V5.84A59.27,59.27,0,0,1,36.56,6Zm11.6,6.6C46.26,11,44,10.44,42.34,9.33A1.7,1.7,0,0,1,42,6.71c1.36-1.52,4.22-.8,4.87-.66a17.31,17.31,0,0,1,2.09.86V4.85c-3.4-1-8.84-1.93-11,1.49a4,4,0,0,0,1.27,5.44c2.29,1.81,6.05,2.7,6.5,4.17a2,2,0,0,1-.59,2.1c-2,1.88-5.28.71-7.38-.22v2a12.75,12.75,0,0,0,7.72.72,5.29,5.29,0,0,0,4-3.85A3.91,3.91,0,0,0,48.16,12.6Zm31,7.09-.5-1c-1.09-2-2-3.74-2.92-5.93.09-.07.06,0,.36-.18a4.3,4.3,0,0,0,2.49-4.31C78.49,5.51,76,4.12,73.73,4.15H65.42v16.4h4.17V13.77H72c.79,1.32,2.4,5.08,2.65,5.67l.5,1.11h4.46l-.41-.77A.15.15,0,0,1,79.13,19.69ZM74,10.9C73,12.07,71,12,69.54,12V6s3.58-.54,4.56,1.18A4,4,0,0,1,74,10.9Zm53-7c-1.09,0-8.11.11-8.13,8.38s6.93,8.54,8.13,8.54,8.16-.32,8.13-8.54S128.1,3.9,127,3.92ZM127,18.53H127c-.45,0-3.81.14-3.78-6.57,0-6.21,3.28-6.05,3.82-6.05s3.81-.18,3.83,6.05C130.84,18.69,127.49,18.53,127,18.53Zm10.6.14h0a.52.52,0,0,0,.34-.52c0-.34-.23-.55-.66-.55h-1v2.06h.37V18.8h.52c.34,0,.41.18.41.55a.73.73,0,0,0,0,.29h.39a.77.77,0,0,1-.12-.54C137.93,18.78,137.75,18.69,137.64,18.67Zm-.39-.14h-.59V17.9h.59c.18,0,.37,0,.37.31S137.5,18.53,137.25,18.53Zm-.18-1.86a1.95,1.95,0,1,0,2,1.95A1.93,1.93,0,0,0,137.07,16.67Zm0,3.72a1.77,1.77,0,0,1-1.77-1.77,1.76,1.76,0,1,1,1.77,1.77ZM103.82,12.6C101.91,11,99.63,10.44,98,9.33a1.69,1.69,0,0,1-.39-2.62c1.36-1.52,4.21-.8,4.87-.66a16.53,16.53,0,0,1,2.08.86V4.85c-3.39-1-8.83-1.93-11,1.49a4,4,0,0,0,1.27,5.44c2.28,1.81,6.05,2.7,6.5,4.17a2,2,0,0,1-.59,2.1c-2,1.88-5.28.71-7.39-.22v2a12.79,12.79,0,0,0,7.73.72,5.32,5.32,0,0,0,4-3.85A3.93,3.93,0,0,0,103.82,12.6Zm12.73,0c-1.88-1.64-4.19-2.16-5.8-3.27a1.7,1.7,0,0,1-.41-2.62c1.36-1.52,4.21-.8,4.87-.66a19.06,19.06,0,0,1,2.11.86V4.85c-3.4-1-8.84-1.93-11,1.49a4,4,0,0,0,1.27,5.44c2.29,1.81,6.05,2.7,6.5,4.17a1.93,1.93,0,0,1-.61,2.1c-2,1.88-5.28.71-7.38-.22l0,2a12.79,12.79,0,0,0,7.73.72,5.35,5.35,0,0,0,4-3.85A3.93,3.93,0,0,0,116.55,12.6Zm-35.61,8H92.15V18.71a63.76,63.76,0,0,1-7.07.18V13a43.88,43.88,0,0,1,5.64.09V11.15a34,34,0,0,1-5.64.09V5.82A69.33,69.33,0,0,1,92.15,6V4.15H80.94Z"/></g></g></svg>