<svg xmlns="http://www.w3.org/2000/svg" viewBox="0 0 123.1 30.23"><defs><style>.cls-1{fill:#a51c30;}</style></defs><g id="Layer_2" data-name="Layer 2"><g id="Layer_1-2" data-name="Layer 1"><path class="cls-1" d="M22,29.65V0H15.7l.14,17.73L6.25,0H0V29.65H6.25L6.1,11.92l9.6,17.73ZM24.49,4.14a3.78,3.78,0,1,0,7.56,0A3.76,3.76,0,0,0,28.27.36a3.71,3.71,0,0,0-3.78,3.78Zm6.9,25.51V9.88H25.14V29.65Zm20.35-7.78c.51-6.17-.07-12.57-8.58-12.57-6.1,0-9.23,3.34-9.23,10.47s3.2,10.46,9.67,10.46A20.08,20.08,0,0,0,51,28.85V23.91a14.93,14.93,0,0,1-6.61,1.31c-3,0-4.43-.73-4.29-3.35Zm-8.5-7.77c2.39,0,2.9,1.74,2.54,3.92h-5.6c0-2.54,1-3.92,3.06-3.92ZM82.62,29.65V16c0-3.56-1.45-6.62-6.61-6.62a12,12,0,0,0-6.4,1.6c-.65-.94-2-1.6-4.57-1.6a10.4,10.4,0,0,0-6.18,2l-.8-1.46H54.28V29.65H60.6V15.48a5,5,0,0,1,2.91-1c1.24,0,1.82.58,1.82,1.6V29.65h6.32V15.48a4.93,4.93,0,0,1,2.91-1c1.23,0,1.81.58,1.81,1.6V29.65ZM95.7,17.08l-3.63.36c-3.56.36-7.49,1.16-7.49,6.47,0,3,1.67,6.32,6.76,6.32a8.76,8.76,0,0,0,5.81-2L98,29.72h3.77V16.86c0-4.43-1.38-7.49-8.5-7.49a20.4,20.4,0,0,0-7.12,1.31V16a20.54,20.54,0,0,1,7.12-1.53c1.67,0,2.33.51,2.33,1.38l.07,1.24Zm0,3.41v4.36a3.9,3.9,0,0,1-2.83.95,2.18,2.18,0,0,1-2.33-2.33c0-1.52.73-2.4,2.47-2.61l2.69-.37Zm9-10.61V29.65H111V15.48a7.05,7.05,0,0,1,3.49-1c1.67,0,2.25,1,2.25,2.47V29.65h6.33V16c0-3.78-1.53-6.62-6.91-6.62a14,14,0,0,0-6.9,2l-.8-1.46Z"/></g></g></svg>