<svg xmlns="http://www.w3.org/2000/svg" viewBox="0 0 120.98 63.2"><defs><style>.cls-1{fill-rule:evenodd;}</style></defs><g id="Layer_2" data-name="Layer 2"><g id="Layer_1-2" data-name="Layer 1"><path class="cls-1" d="M20.28,38.69A1.66,1.66,0,1,0,22,40.35,1.64,1.64,0,0,0,20.28,38.69Zm0,2.83a1.18,1.18,0,1,1,0-2.36,1.18,1.18,0,1,1,0,2.36ZM37,32.9H28.62l.95-14.51L24.14,32.9H16.39L28.69.1h8.25L36,14.81,41.52.1h7.75Zm1,0L50.28.1H58L45.73,32.9Z"/><path class="cls-1" d="M15.5,21.6C4.66,34.32-5.56,51.25,3.47,59.05c8.75,7.55,19.68,3.08,27.14.09s89.86-38.76,89.86-38.76c.79-.4.64-.9-.35-.65L30.41,44C19.08,47.22,6.15,40.28,15.5,21.6Z"/><path class="cls-1" d="M20.57,40.46A.41.41,0,0,0,21,40c0-.43-.28-.53-.75-.53h-.67v1.78H20v-.76h.08l.41.76H21Zm-.29-.29H20v-.41h.21c.13,0,.29,0,.29.19S20.44,40.17,20.28,40.17ZM98.22,0A1.64,1.64,0,0,0,96.5,1.66a1.72,1.72,0,0,0,3.43,0A1.63,1.63,0,0,0,98.22,0Zm0,2.83A1.15,1.15,0,0,1,97,1.66a1.2,1.2,0,0,1,2.39,0A1.16,1.16,0,0,1,98.22,2.83Z"/><path class="cls-1" d="M98.51,1.77a.41.41,0,0,0,.43-.47c0-.43-.28-.53-.75-.53h-.67V2.54H98V1.79H98l.41.75H99Zm-.29-.29H98V1.07h.22c.13,0,.29,0,.29.19s-.09.22-.25.22ZM93.11,5.57,95.19.1H71.53L63.41,9.94,67.16.1H59.31L47.11,32.9h7.75l5.21-13.71.36,13.71,23.79,0,2.26-6.31h-9l3-7.95h7.45l2.3-6.11H82.7l2.56-6.91Zm-25,25.15-.5-17.1L79.34.75l-11.22,30Z"/></g></g></svg>