<?xml version="1.0" encoding="utf-8"?>
<!-- Generator: Adobe Illustrator 25.0.0, SVG Export Plug-In . SVG Version: 6.00 Build 0)  -->
<svg version="1.1" id="Livello_1" xmlns="http://www.w3.org/2000/svg" xmlns:xlink="http://www.w3.org/1999/xlink" x="0px" y="0px"
	 viewBox="0 0 59.53 51.02" style="enable-background:new 0 0 59.53 51.02;" xml:space="preserve">
<style type="text/css">
	.st0{fill:#FE7E00;}
	.st1{fill:#A4F236;}
</style>
<g>
	<g>
		<path class="st0" d="M25.95,0.67H5.3c-2.4,0-4.34,1.94-4.34,4.34v18.36c0,2.4,1.94,4.34,4.34,4.34h20.65
			c2.4,0,4.34-1.94,4.34-4.34V5.01C30.29,2.61,28.35,0.67,25.95,0.67z M16.64,20.96c0,0.58-0.47,1.05-1.05,1.05
			c-0.58,0-1.05-0.47-1.05-1.05V7.42c0-0.58,0.47-1.05,1.05-1.05c0.58,0,1.05,0.47,1.05,1.05V20.96z"/>
		<path class="st0" d="M54.31,0.67H31.83v27.04h12.88V7.42c0-0.58,0.47-1.05,1.05-1.05c0.58,0,1.05,0.47,1.05,1.05v20.29h11.76V4.93
			C58.56,2.58,56.66,0.67,54.31,0.67z"/>
	</g>
	<g>
		<polygon class="st1" points="13.84,40.49 11.55,30.57 0.96,30.57 0.96,50.35 7.94,50.35 7.94,41.02 10.1,50.35 20.82,50.35 
			20.82,30.57 13.84,30.57 		"/>
		<polygon class="st1" points="40.53,30.57 40.53,36.08 45.44,36.08 45.44,50.35 53.65,50.35 53.65,36.08 58.56,36.08 58.56,30.57 
					"/>
		<path class="st1" d="M36.88,30.57H24.7c-1.41,0-2.55,1.14-2.55,2.55v4.78c0,1.41,1.14,2.55,2.55,2.55c-1.41,0-2.55,1.14-2.55,2.55
			v4.78c0,1.41,1.14,2.55,2.55,2.55h12.18c1.41,0,2.55-1.14,2.55-2.55v-4.78c0-0.05-0.01-0.1-0.02-0.15h-3.58h-4h-0.47v4.16h-1.07
			v-4.95h0.59h0.48h0.47v-1.6v-1.6h-0.47h-0.48h-0.59V33.9h1.07v4.16h0.47h4h3.58c0-0.05,0.02-0.1,0.02-0.15v-4.78
			C39.43,31.72,38.29,30.57,36.88,30.57z"/>
	</g>
</g>
</svg>
