<svg xmlns="http://www.w3.org/2000/svg" width="47.548" height="31.449" viewBox="0 0 47.548 31.449">
  <g id="PagoPA-Portale-del-Cittadino" transform="translate(-7 -6.4)">
    <path id="Path_4895" data-name="Path 4895" d="M193.824,15.7h2.542l1.1-.083.8-.266.465-.432.166-.6V7.779l-.166-.6-.5-.449-.814-.249-1.13-.083H190.9V19.757h2.907Zm-.017-7.758h2.176v6.2h-2.176Z" transform="translate(-153.348)" fill="#272c31"/>
    <path id="Path_4896" data-name="Path 4896" d="M114.953,8.045V7.879l-.15-.6-.482-.449-.8-.249-1.1-.083H109.52l-1.113.083-.8.249-.482.449-.166.6V19.857h2.907V15.77h2.193v3.422L112,20.555,111.83,21.9l-.282,1.3-.382,1.263-.482,1.213-.565,1.146-.681,1.1-.748,1.047-.831.98-.9.9-.98.831-1.047.748-1.1.681-1.146.565-1.213.5-1.263.365-1.3.282-1.346.183-1.362.05-1.362-.05-1.346-.183-1.312-.282-1.279-.382-1.229-.482-1.163-.581-1.113-.665-1.063-.764-1-.831-.116-.116-.781-.781-.831-1,1.462-1.1L79.5,24.077V32.2l1.861-1.5.9,1.063.98,1,1.047.93,1.13.847,1.163.748,1.246.681,1.3.581,1.346.482,1.4.382,1.412.282,1.462.183,1.5.05,1.346-.05,1.312-.15,1.279-.233,1.263-.3,1.213-.415,1.2-.465,1.13-.548,1.1-.631.15-.083.9-.6,1-.764.947-.814.881-.881.814-.947.764-1,.7-1.047.631-1.1.548-1.13.465-1.2.415-1.213.3-1.263.233-1.279.15-1.312.05-1.329V14.225Zm-2.874,6.18h-2.193V8.045h2.193Z" transform="translate(-60.455 -0.083)" fill="#272c31"/>
    <path id="Path_4897" data-name="Path 4897" d="M99.332,43.875l.681.249.93.083h2.426l.947-.083.665-.249.415-.449.116-.6V30.8h-4.486l-.964.083-.681.266-.432.432-.15.6v6.546l.15.615.382.432.665.266.947.083h2.127v2.525h-1.827V41.4H98.8v1.4l.15.6Zm1.911-5.316v-6.2h1.827v6.213h-1.827Z" transform="translate(-76.549 -20.346)" fill="#272c31"/>
    <path id="Path_4898" data-name="Path 4898" d="M58.962,38.475V36.083l.017-3.821v-.183l-.15-.6-.415-.432-.665-.266-.93-.083h-.3l-2.093.017-.93.083-.631.282-.415.432-.116.581v1.412l2.376-.017.017-1.229h1.827v2.259H54.427l-.93.083-.681.266-.382.432-.116.6L52.3,38.625l.116.6.382.449.631.266.881.083h4.635V38.475Zm-2.409,0H54.726V36.083h1.827Z" transform="translate(-37.774 -20.263)" fill="#272c31"/>
    <path id="Path_4899" data-name="Path 4899" d="M13.147,31.149l-.7-.266L11.5,30.8H7V44.207H9.426l.017-3.971v-.1h2.127l.93-.083.665-.266.382-.432.15-.615V32.179l-.15-.6Zm-1.894,7.41H9.426v-6.2h1.827Z" transform="translate(0 -20.346)" fill="#272c31"/>
    <path id="Path_4900" data-name="Path 4900" d="M144.548,39.771l.681.266.947.083h2.359l.947-.083.7-.266.415-.432.15-.615V32.179l-.15-.6-.382-.432-.665-.266-.93-.083H146.16l-.947.083-.681.266-.382.432-.15.6v6.546l.15.615Zm1.911-7.41H148.3l-.017,6.213h-1.827Z" transform="translate(-114.24 -20.346)" fill="#272c31"/>
  </g>
</svg>
