<svg xmlns="http://www.w3.org/2000/svg" xmlns:xlink="http://www.w3.org/1999/xlink" viewBox="0 0 151.39 82.37"><defs><style>.cls-1{fill:none;}.cls-2{fill:#e40520;}.cls-3{fill:#005faa;}.cls-4{clip-path:url(#clip-path);}.cls-5{fill:#02914a;}.cls-15,.cls-6{fill:#fff;}.cls-7{fill:#c6c6c6;}.cls-8{clip-path:url(#clip-path-14);}.cls-9{fill:#dadada;}.cls-10{clip-path:url(#clip-path-15);}.cls-11{fill:#00904a;}.cls-12{fill:#e30613;}.cls-13{clip-path:url(#clip-path-18);}.cls-14{fill:url(#linear-gradient);}.cls-15{fill-rule:evenodd;}.cls-16{clip-path:url(#clip-path-19);}.cls-17{fill:url(#linear-gradient-2);}.cls-18{fill:#706f6f;}</style><clipPath id="clip-path" transform="translate(8.44 18.93)"><rect class="cls-1" y="39.31" width="142.95" height="13.72"/></clipPath><clipPath id="clip-path-14" transform="translate(8.44 18.93)"><rect class="cls-1" x="51.64" y="10.54" width="43.92" height="22.03"/></clipPath><clipPath id="clip-path-15" transform="translate(8.44 18.93)"><path class="cls-1" d="M72.36.07a25.65,25.65,0,0,0-8,1.2C49,5.83,47.39,22.94,47.39,22.94,60.29,33,71,29.49,72.07,29.2c14.46-3.77,19-19.59,19.65-22.32V6.43A34,34,0,0,0,72.36.07Z"/></clipPath><clipPath id="clip-path-18" transform="translate(8.44 18.93)"><path class="cls-1" d="M54,7.74A60.33,60.33,0,0,0,50,14c-.62,1-2,5.09,4.3,3.42a30.49,30.49,0,0,0,22.08,9.65c.12,0,1.13-.12,1.27-.12l0,0a.39.39,0,0,1,.19-.1,25.39,25.39,0,0,0,9.94-10.42c3.51-6.43,3.9-9.94,3.9-9.94A33.42,33.42,0,0,0,72.24,0C60.7,0,55.39,6.09,54,7.74"/></clipPath><linearGradient id="linear-gradient" x1="-1051.4" y1="493.16" x2="-1051.29" y2="493.16" gradientTransform="matrix(143.59, -248.71, -248.71, -143.59, 273696.59, -190634.45)" gradientUnits="userSpaceOnUse"><stop offset="0" stop-color="#003611"/><stop offset="0.04" stop-color="#00491d"/><stop offset="0.09" stop-color="#005c29"/><stop offset="0.14" stop-color="#006b32"/><stop offset="0.21" stop-color="#007739"/><stop offset="0.28" stop-color="#008140"/><stop offset="0.36" stop-color="#084"/><stop offset="0.46" stop-color="#008d48"/><stop offset="0.6" stop-color="#00904a"/><stop offset="1" stop-color="#00904a"/></linearGradient><clipPath id="clip-path-19" transform="translate(8.44 18.93)"><path class="cls-1" d="M49.87,17.25c4,4.07,5.71,4.9,11,7.12a31.59,31.59,0,0,0,16.87,2.54c-13.24.43-21.24-7.63-23.42-9.51C51.12,18.19,50.57,17.64,49.87,17.25Z"/></clipPath><linearGradient id="linear-gradient-2" x1="-1047.37" y1="484.86" x2="-1047.27" y2="484.86" gradientTransform="matrix(43.67, -64.74, -64.74, -43.67, 77193.04, -46587.44)" gradientUnits="userSpaceOnUse"><stop offset="0" stop-color="#858584"/><stop offset="0" stop-color="#868686"/><stop offset="0.05" stop-color="#a5a5a5"/><stop offset="0.11" stop-color="#bfbebe"/><stop offset="0.18" stop-color="#d4d4d3"/><stop offset="0.25" stop-color="#e4e4e4"/><stop offset="0.33" stop-color="#f0f0f0"/><stop offset="0.44" stop-color="#f9f9f9"/><stop offset="0.59" stop-color="#fefefe"/><stop offset="1" stop-color="#fff"/></linearGradient></defs><g id="Layer_2" data-name="Layer 2"><g id="Layer_1-2" data-name="Layer 1"><rect class="cls-2" x="24.49" y="61.58" width="126.89" height="2.7"/><rect class="cls-3" x="65" y="58.31" width="3.13" height="3.25"/><g class="cls-4"><path class="cls-3" d="M108,45.36v7.36h-3.25V45.36Z" transform="translate(8.44 18.93)"/></g><g class="cls-4"><path class="cls-3" d="M111.36,45.33l4.13-5.95h2.61V52.69h-3.3V45.14l-3.44,5.21-3.3-5Z" transform="translate(8.44 18.93)"/></g><g class="cls-4"><path class="cls-3" d="M130.24,45.36c1.24,3.49,2.55,7.21,2.6,7.36h-3.58c0-.17-.72-2-.77-2.2h-4.3c-.07.21-.71,1.91-.81,2.2h-3.61c.12-.31,4.85-13.1,4.92-13.31h3.42c0,.07.5,1.43,1.12,3.25h-2.39c-.5,1.53-1.62,4.78-1.62,4.78h2.37s-.41-1.27-.67-2.11Z" transform="translate(8.44 18.93)"/></g><g class="cls-4"><polygon class="cls-3" points="57.26 58.31 57.26 71.64 60.41 71.64 60.41 64.43 60.51 64.43 66.15 71.64 68.11 71.64 68.11 64.26 64.64 64.26 59.31 58.31 57.26 58.31"/></g><g class="cls-4"><path class="cls-3" d="M107.3,39.38l2.22,3.25h-4.8V39.38Z" transform="translate(8.44 18.93)"/></g><g class="cls-4"><path class="cls-3" d="M23.2,42.66h6.72A1.32,1.32,0,0,1,31.21,44a1.35,1.35,0,0,1-1.29,1.34H23.2v7.38h3.37V48.58h3.35a4.58,4.58,0,0,0,0-9.15H23.2Z" transform="translate(8.44 18.93)"/></g><g class="cls-4"><path class="cls-3" d="M36.66,45.36l-2.61,7.36h3.59c0-.17.71-2,.76-2.2h4.3c.08.21.72,1.91.82,2.2h3.6c-.11-.31-4.85-13.1-4.92-13.31H38.78c0,.07-.5,1.43-1.12,3.25h2.42l1.62,4.78H39.33s.41-1.27.67-2.11Z" transform="translate(8.44 18.93)"/></g><g class="cls-4"><path class="cls-3" d="M68.46,42.63a3.46,3.46,0,0,1,3.47,3.54,3.46,3.46,0,1,1-6.91,0,3.33,3.33,0,0,1,.1-.84H61.68a7.89,7.89,0,0,0,0,.84,6.85,6.85,0,1,0,1-3.54Z" transform="translate(8.44 18.93)"/></g><g class="cls-4"><path class="cls-3" d="M82.56,48.56c.6,1.1,2,3.82,2.25,4.16h3.92c-.24-.39-2-3.59-2.65-4.69A4.58,4.58,0,0,0,84,39.41H77.23v3.25H84A1.32,1.32,0,0,1,85.24,44,1.35,1.35,0,0,1,84,45.36H77.23v7.38H80.6V48.58Z" transform="translate(8.44 18.93)"/></g><g class="cls-4"><path class="cls-3" d="M100.49,45.36c1.24,3.49,2.55,7.21,2.6,7.36H99.53c0-.17-.72-2-.76-2.2H94.46c-.07.21-.71,1.91-.81,2.2H90c.12-.31,4.85-13.1,4.93-13.31h3.41c0,.07.51,1.43,1.13,3.25H97.09l-1.62,4.78h2.36s-.4-1.27-.67-2.11Z" transform="translate(8.44 18.93)"/></g><g class="cls-4"><rect class="cls-5" y="61.58" width="16.46" height="2.7"/></g><g class="cls-4"><rect class="cls-6" x="16.46" y="61.58" width="8.01" height="2.65"/></g><g class="cls-4"><path class="cls-7" d="M16,45.26H8.1V42.73H16Zm.1-2.6H8v2.7h8Z" transform="translate(8.44 18.93)"/></g><g class="cls-8"><path class="cls-9" d="M71.57,32.43h-.09a25.44,25.44,0,0,1-14.06-4A15.18,15.18,0,0,1,53,24.69L89.57,11.76s2.39,2,3,2.53,1.82,1.79,2.11,2,.09.58,0,.74a32.5,32.5,0,0,1-4.4,6.48c-2.46,2.82-9.58,8.89-18.69,8.89" transform="translate(8.44 18.93)"/></g><g class="cls-10"><rect class="cls-11" x="54.84" y="32.64" width="10.85" height="21.87"/></g><g class="cls-10"><rect class="cls-6" x="65.62" y="34.1" width="9.68" height="20.41"/></g><g class="cls-10"><rect class="cls-12" x="75.32" y="34.1" width="10.97" height="20.41"/></g><rect class="cls-1" x="55.82" y="18.95" width="44.33" height="31.3"/><g class="cls-13"><polygon class="cls-14" points="89.21 64.93 111.86 25.71 67.34 0 44.69 39.24 89.21 64.93"/></g><path class="cls-6" d="M74.08,11.37H72v8.27h2.08v-5.4a1.28,1.28,0,0,1,2.56,0v5.38h2.08V14.24c0-1.65,2.53-1.5,2.53,0v5.38h2.08V14c0-3.52-4.06-3.28-5.28-2.11a3,3,0,0,0-4,.05v-.53" transform="translate(8.44 18.93)"/><path class="cls-15" d="M68.75,17.83V15.68H67.13s-1.65-.12-1.65,1.07,1.62,1.1,1.62,1.1Zm2.08,1.81H68.75v-.57c-.31.69-1.31.55-1.34.55h-.79c-2.89,0-3.22-1.86-3.22-2.8,0-1.67.67-3,3.15-3h2.23c0-.48-.46-1-1.37-1H64.9V11H68c2.59,0,2.8,2.29,2.8,3.15Z" transform="translate(8.44 18.93)"/><path class="cls-15" d="M57.73,13.86h1.92c1.1-.1,2-.5,2-1.72,0-.36-.17-1.53-2-1.67H57.73v3.39m-2,5.78V8.72h3.46c3,0,4,1.46,4.16,1.91a3.32,3.32,0,0,1-2.1,4.78,10.08,10.08,0,0,1-3.47.19v4Z" transform="translate(8.44 18.93)"/><g class="cls-16"><polygon class="cls-17" points="77.45 59.5 91 39.43 67.03 23.28 53.48 43.35 77.45 59.5"/></g><polygon class="cls-18" points="9.54 81.32 11.23 81.32 11.11 82.25 8.44 82.25 8.44 78.17 9.54 78.17 9.54 81.32"/><path class="cls-18" d="M5.64,62.44H4.13l-.35.91H2.72l1.77-4.09h1l1.72,4.09H6Zm-.72-2L4.4,61.75h1Z" transform="translate(8.44 18.93)"/><polygon class="cls-18" points="19.74 78.09 20.79 78.26 19.09 82.25 18.23 82.25 16.54 78.26 17.68 78.09 18.71 80.65 19.74 78.09"/><rect class="cls-18" x="20.98" y="78.17" width="1.1" height="4.09"/><polygon class="cls-18" points="24.61 82.25 23.52 82.25 23.52 79.08 22.34 79.08 22.34 78.17 25.79 78.17 25.79 79.08 24.61 79.08 24.61 82.25"/><path class="cls-18" d="M19.31,62.44H17.8l-.36.91H16.39l1.77-4.09h1l1.72,4.09H19.67Zm-.72-2-.52,1.27h1Z" transform="translate(8.44 18.93)"/><path class="cls-18" d="M24.47,60.34a1.61,1.61,0,0,0-.88-.33.39.39,0,0,0-.41.33c0,.19.07.29.45.48a4.56,4.56,0,0,1,.82.5,1.11,1.11,0,0,1,.38.84,1.38,1.38,0,0,1-1.55,1.29A2.74,2.74,0,0,1,21.79,63l.12-1a2.06,2.06,0,0,0,1.13.55.4.4,0,0,0,.5-.4c0-.17-.1-.29-.43-.46l-.46-.24a1.21,1.21,0,0,1-.74-1.12,1.16,1.16,0,0,1,.55-1,1.85,1.85,0,0,1,.86-.24,2.52,2.52,0,0,1,1.37.36Z" transform="translate(8.44 18.93)"/><path class="cls-18" d="M25.12,59.26a2.66,2.66,0,0,1,.35,0l.89-.05a2.27,2.27,0,0,1,1.5.38,1.39,1.39,0,0,1,.46,1.08,1.4,1.4,0,0,1-.72,1.24,2.13,2.13,0,0,1-1.05.22,1.45,1.45,0,0,1-.31,0v1.25h-1.1V59.26Zm1.09,2h.27c.45,0,.74-.22.74-.58s-.26-.59-.72-.59a1.57,1.57,0,0,0-.29,0Z" transform="translate(8.44 18.93)"/><polygon class="cls-18" points="38.09 79.74 39.45 79.74 39.45 80.56 38.09 80.56 38.09 81.39 39.86 81.39 39.76 82.25 36.99 82.25 36.99 78.17 39.6 78.17 39.6 79 38.09 79 38.09 79.74"/><path class="cls-18" d="M34.12,60.34a1.61,1.61,0,0,0-.88-.33.4.4,0,0,0-.41.33c0,.19.08.29.46.48a4.78,4.78,0,0,1,.81.5,1.11,1.11,0,0,1,.38.84,1.38,1.38,0,0,1-1.55,1.29A2.68,2.68,0,0,1,31.45,63l.12-1a2,2,0,0,0,1.12.55.4.4,0,0,0,.5-.4c0-.17-.09-.29-.43-.46l-.45-.24a1.21,1.21,0,0,1-.74-1.12,1.14,1.14,0,0,1,.55-1,1.82,1.82,0,0,1,.86-.24,2.51,2.51,0,0,1,1.36.36Z" transform="translate(8.44 18.93)"/><path class="cls-18" d="M37.3,62.44H35.8l-.36.91h-1l1.77-4.09h1l1.72,4.09H37.66Zm-.74-2L36,61.75h1Z" transform="translate(8.44 18.93)"/><path class="cls-18" d="M42.61,62.44H41.1l-.36.91H39.69l1.77-4.09h1l1.72,4.09H43Zm-.74-2-.53,1.27h1Z" transform="translate(8.44 18.93)"/><polygon class="cls-18" points="53.82 81.32 55.51 81.32 55.39 82.25 52.69 82.25 52.69 78.17 53.82 78.17 53.82 81.32"/><polygon class="cls-18" points="61.7 82.25 60.6 82.25 60.34 80.08 59.38 82.25 58.69 82.25 57.73 80.08 57.47 82.25 56.54 82.25 57.16 78.17 58.05 78.17 59.12 80.7 60.22 78.17 61.1 78.17 61.7 82.25"/><polygon class="cls-18" points="62.99 79.74 64.38 79.74 64.38 80.56 62.99 80.56 62.99 81.39 64.78 81.39 64.69 82.25 61.92 82.25 61.92 78.17 64.52 78.17 64.52 79 62.99 79 62.99 79.74"/><path class="cls-18" d="M59.36,60.48a1.22,1.22,0,0,0-.88-.36,1.08,1.08,0,0,0-1.08,1.2,1.17,1.17,0,0,0,1.12,1.19,1.11,1.11,0,0,0,.48-.09v-.6h-.67L58.4,61h1.68v1.91a2.91,2.91,0,0,1-1.72.51,2.23,2.23,0,0,1-1.65-.7,2.08,2.08,0,0,1-.5-1.45,2.16,2.16,0,0,1,2.22-2.16,2.12,2.12,0,0,1,1.58.58Z" transform="translate(8.44 18.93)"/><polygon class="cls-18" points="70.02 81.32 71.72 81.32 71.59 82.25 68.92 82.25 68.92 78.17 70.02 78.17 70.02 81.32"/><rect class="cls-18" x="71.93" y="78.17" width="1.1" height="4.09"/><path class="cls-18" d="M68.7,59.79a2.14,2.14,0,0,1,.58,1.46,2.18,2.18,0,0,1-4.35.07,2.12,2.12,0,0,1,2.15-2.18,2.17,2.17,0,0,1,1.62.65m-2.6,1.46a1.48,1.48,0,0,0,.33.91,1,1,0,0,0,.65.31c.6,0,1-.41,1-1.13a1.13,1.13,0,0,0-1-1.24c-.55,0-.91.45-.91,1.15" transform="translate(8.44 18.93)"/></g></g></svg>