<svg xmlns="http://www.w3.org/2000/svg" viewBox="0 0 126.99 24.5"><defs><style>.cls-1{fill:#cd2f73;}.cls-2{fill:#779651;}</style></defs><g id="Layer_2" data-name="Layer 2"><g id="Layer_1-2" data-name="Layer 1"><path class="cls-1" d="M5.48,12.34H9a2.31,2.31,0,0,0,1.77-.58,1.85,1.85,0,0,0,.54-1.35C11.26,9,9.6,8.21,9,8.83c.57-.58-.16-2.27-1.59-2.27a2,2,0,0,0-1.35.54,2.34,2.34,0,0,0-.57,1.77"/><path class="cls-2" d="M44.31,4.82a1,1,0,1,0-1,1,1,1,0,0,0,1-1M9,0a9.07,9.07,0,0,0-6.4,2.62C.54,4.59,0,6.75,0,9.6V24.45a4.5,4.5,0,0,0,3.32-1.2,5,5,0,0,0,1.19-3.74v-10c0-1.82.23-2.86,1.24-3.86A4.52,4.52,0,0,1,9,4.4a4.69,4.69,0,0,1,3.24,1.27,4.39,4.39,0,0,1,1.23,3.16A4.41,4.41,0,0,1,12.15,12a4.77,4.77,0,0,1-3.7,1.28h-3C5.63,16,8.21,17.2,10,17.2a7,7,0,0,0,5.2-2,8.25,8.25,0,0,0,2.7-6.36A8.65,8.65,0,0,0,9,0"/><path class="cls-1" d="M78.25,6.59a9.27,9.27,0,0,1,6.47,2.55c2,2,2.47,4.16,2.47,7.06v8.21a4.51,4.51,0,0,1-3.31-1.19,5,5,0,0,1-1.2-3.75V16.2c0-1.85-.27-2.93-1.27-3.94a4.51,4.51,0,0,0-6.4,0,4.63,4.63,0,0,0-1.28,3.24A5,5,0,0,0,75,18.9a4.8,4.8,0,0,0,3.74,1.31h3a3.7,3.7,0,0,1-4,4.05,8.38,8.38,0,0,1-5.91-2.12,8.75,8.75,0,0,1-2.58-6.56,8.91,8.91,0,0,1,9-9"/><path class="cls-2" d="M44.73,18.59c-1.69,1.54-2.66,1.81-4.08,1.73A4.89,4.89,0,0,1,39.33,20c2.7-2.43,9.41-8.48,9.61-8.63a9,9,0,0,0-7.52-4.71A9.31,9.31,0,0,0,35.05,9a8.77,8.77,0,0,0-2.93,6.13,8.65,8.65,0,0,0,8.37,9.41,8.46,8.46,0,0,0,6.4-2.59,4.17,4.17,0,0,0,.31-5.51l-2.47,2.2m-8.21-3.16a4.8,4.8,0,0,1,1.54-3.51,4.2,4.2,0,0,1,4.71-.81c-.66.61-4.21,3.89-6.13,5.7a8,8,0,0,1-.12-1.38"/><path class="cls-1" d="M54.49,19.51a5,5,0,0,1-1.2,3.74A4.41,4.41,0,0,1,50,24.45V15.93c0-2.82.69-5,2.54-6.71a9.32,9.32,0,0,1,12.77,0c1.81,1.73,2.5,4,2.5,6.79v8H63.32V16c0-1.82-.27-2.74-1.19-3.67a4.68,4.68,0,0,0-6.41,0A4.6,4.6,0,0,0,54.53,16l0,3.54"/><path class="cls-2" d="M27.38,6.59a9.27,9.27,0,0,0-6.44,2.63c-2,2-2.55,4.2-2.55,7.17v8.06a4.5,4.5,0,0,0,3.32-1.2,5,5,0,0,0,1.2-3.74V15.66A4.65,4.65,0,0,1,24.1,12.3,4.61,4.61,0,0,1,27.38,11a4.4,4.4,0,0,1,2.82,1l3.2-3.2a9,9,0,0,0-6-2.2"/><path class="cls-1" d="M97.72,11.18V6.86H93.28V6.75A5,5,0,0,0,92.09,3a4.44,4.44,0,0,0-3.32-1.2v13c0,3.43.93,5.36,2.59,7a8.9,8.9,0,0,0,6.32,2.54V20a4.75,4.75,0,0,1-3.2-1.23,4.45,4.45,0,0,1-1.23-3.55V11.18h4.47m9.87-4.59a9.3,9.3,0,0,1,6.48,2.55c2,2,2.47,4.16,2.47,7.06v8.21a4.53,4.53,0,0,1-3.32-1.19A5,5,0,0,1,112,19.47V16.2c0-1.85-.27-2.93-1.28-3.94a4.51,4.51,0,0,0-6.4,0,4.62,4.62,0,0,0-1.27,3.24,5,5,0,0,0,1.23,3.36,4.83,4.83,0,0,0,3.74,1.31h3a3.69,3.69,0,0,1-4,4.05,8.3,8.3,0,0,1-5.9-2.12,8.71,8.71,0,0,1-2.58-6.56,8.91,8.91,0,0,1,9-9m16.24,12.19a4.46,4.46,0,0,1-1.24-3.55V6.79a5,5,0,0,0-1.19-3.74,4.44,4.44,0,0,0-3.32-1.2v13c0,3.43.93,5.36,2.58,7A8.94,8.94,0,0,0,127,24.45V20a4.73,4.73,0,0,1-3.16-1.23"/></g></g></svg>