<svg xmlns="http://www.w3.org/2000/svg" viewBox="0 0 130.62 59.07"><defs><style>.cls-1{fill:#26358c;}.cls-2{fill:#fbb907;}.cls-3{fill:#fff;}.cls-4{fill:#e40520;}</style></defs><g id="Layer_2" data-name="Layer 2"><g id="Layer_1-2" data-name="Layer 1"><path class="cls-1" d="M53.71,40s-.09.17-.52.17a1.07,1.07,0,0,1,.52.18,8.13,8.13,0,0,1,3.81,7.54C57,54.52,51.71,58.42,45.3,58.42s-11.18-3.9-10.66-10.57a9.63,9.63,0,0,1,4.94-7.54,1.07,1.07,0,0,1,.52-.18c-.44,0-.52-.17-.52-.17a7,7,0,0,1-2.52-6.41c.44-5.2,5.2-9,10.75-9s9.8,3.82,9.36,9A8.45,8.45,0,0,1,53.71,40m-6.85-2.77A3.55,3.55,0,0,0,50.58,34a2.91,2.91,0,0,0-3.2-3.21A3.56,3.56,0,0,0,43.65,34c-.17,1.82,1,3.21,3.21,3.21M45.73,51.75a4.54,4.54,0,0,0,4.59-4.16,3.64,3.64,0,0,0-3.81-4.16A4.41,4.41,0,0,0,42,47.59a3.48,3.48,0,0,0,3.73,4.16"/><path class="cls-1" d="M30,51.58h0l-.78-.87a18.64,18.64,0,0,0,3.47-9.36c.69-9.28-6.07-16.91-15.08-16.91S.74,32.07.05,41.43,6.12,58.34,15.13,58.34a17,17,0,0,0,9.36-2.86l.35.43c.43.52,1.65,1.65,2.17,2.17C29.78,60.85,34.9,57,34.9,57ZM6.9,41.43A10.49,10.49,0,0,1,17,31.73a8.71,8.71,0,0,1,8.67,9.7,9.08,9.08,0,0,1-1.3,4.25L21.29,42.3l-4.77,4.51,3.12,3.38a9,9,0,0,1-4.07,1A8.7,8.7,0,0,1,6.9,41.43Z"/><path class="cls-2" d="M129.73,17.16A37,37,0,0,0,121.14.61L120.62,0l-.78.17A47.65,47.65,0,0,0,108.49,5,31.86,31.86,0,0,0,105,.52L104.41,0l-.78.17A52.06,52.06,0,0,0,85,10.06,84.74,84.74,0,0,0,71,24.44,111.31,111.31,0,0,0,59.17,43.08l-.35.78.61.69c9.79,12,21.58,14.39,29.73,14.39a37.92,37.92,0,0,0,8.06-.86,41.28,41.28,0,0,0,8.15.86,32.57,32.57,0,0,0,9.45-1.21l.34-.09.26-.26c6.94-7.19,11.53-14.65,13.79-22.1A36.88,36.88,0,0,0,129.73,17.16Z"/><path class="cls-3" d="M96.53,16.12H80.32c-1.74,1.65-3.3,3.47-4.86,5.2H91.67C93.15,19.59,94.79,17.86,96.53,16.12Z"/><path class="cls-3" d="M87.42,26.52H71.22c-1.39,1.83-2.61,3.56-3.73,5.21H83.7C84.82,30,86.12,28.26,87.42,26.52Z"/><path class="cls-3" d="M80.4,36.84H64.19c-1.3,2.17-2.34,4-2.94,5.2H77.46C78.15,40.83,79.1,39,80.4,36.84Z"/><path class="cls-3" d="M79.8,47.16H63.67a39.9,39.9,0,0,0,6.68,5.2H86.56A39.38,39.38,0,0,1,79.8,47.16Z"/><path class="cls-2" d="M97.83,56.86c.43-.52,1.64-1.73,4-4.42H70.35a35.86,35.86,0,0,0,18.81,5.2h0A64,64,0,0,0,97.83,56.86Z"/><path class="cls-3" d="M108.06,6.93H91.85A53.6,53.6,0,0,0,86.12,11h16.21A53.6,53.6,0,0,1,108.06,6.93Z"/><path class="cls-2" d="M104,1.56A43.6,43.6,0,0,0,91.85,6.93H108A30.3,30.3,0,0,0,104,1.56Z"/><path class="cls-1" d="M126.26,10.92H110.05a37.09,37.09,0,0,1,1.82,5.2h16.21A37.09,37.09,0,0,0,126.26,10.92Z"/><path class="cls-1" d="M113,26.52h16.21a34,34,0,0,0-.18-5.2H112.82A34,34,0,0,1,113,26.52Z"/><path class="cls-1" d="M110.92,36.84h16.21a29.42,29.42,0,0,0,1.38-5.2H112.3A23.29,23.29,0,0,1,110.92,36.84Z"/><path class="cls-1" d="M105.71,47.16h16.21A40.16,40.16,0,0,0,125,42H108.75A54,54,0,0,1,105.71,47.16Z"/><path class="cls-1" d="M101.81,52.36c-1.12,1.38-2.34,2.68-3.64,4.07l-.34.35a32.19,32.19,0,0,0,16.55-.35c1.3-1.39,2.52-2.77,3.64-4.07Z"/><path class="cls-1" d="M120.19,1.56a43.6,43.6,0,0,0-12.13,5.37h16.12A30.3,30.3,0,0,0,120.19,1.56Z"/><path class="cls-2" d="M111.87,16.12a37.09,37.09,0,0,0-1.82-5.2H86.12a67.44,67.44,0,0,0-5.8,5.2Z"/><path class="cls-4" d="M129,21.32a32.57,32.57,0,0,0-.95-5.2H96.53a69.08,69.08,0,0,0-4.86,5.2Z"/><path class="cls-2" d="M112.82,21.32H75.46c-1.47,1.74-2.94,3.47-4.16,5.2h41.78A48,48,0,0,0,112.82,21.32Z"/><path class="cls-4" d="M129.21,26.52H87.42c-1.38,1.83-2.6,3.56-3.72,5.21h44.81A28.44,28.44,0,0,0,129.21,26.52Z"/><path class="cls-2" d="M67.49,31.64c-1.3,1.91-2.34,3.64-3.3,5.2h46.73a29.42,29.42,0,0,0,1.38-5.2Z"/><path class="cls-4" d="M127.13,36.84H80.4c-1.3,2.17-2.34,4-2.94,5.2h47.41A42.3,42.3,0,0,0,127.13,36.84Z"/><path class="cls-2" d="M61.25,42a12.61,12.61,0,0,0-.87,1.73,42.18,42.18,0,0,0,3.21,3.47h42a40,40,0,0,0,3-5.2Z"/><path class="cls-4" d="M121.92,47.16h-42a42.64,42.64,0,0,0,6.68,5.2H118C119.5,50.62,120.71,48.89,121.92,47.16Z"/><path class="cls-4" d="M126.26,10.92c-.69-1.47-1.39-2.86-2.08-4.07H108a63.46,63.46,0,0,0-5.64,4Z"/></g></g></svg>