<svg xmlns="http://www.w3.org/2000/svg" width="54" height="59" viewBox="0 0 54 59">
  <g id="redCancek" transform="translate(-933 -623)">
    <text id="Overview" transform="translate(933 679)" fill="#32424e" font-size="12" font-family="Roboto-Regular, Roboto"><tspan x="0" y="0">ANNULLA</tspan></text>
    <g id="Group_300" data-name="Group 300">
      <g id="Rectangle_44" data-name="Rectangle 44" transform="translate(941 623)" fill="#fff" stroke="#ed4c14" stroke-width="1">
        <rect width="38" height="38" rx="12" stroke="none"/>
        <rect x="0.5" y="0.5" width="37" height="37" rx="11.5" fill="none"/>
      </g>
      <g id="close" transform="translate(954 636)">
        <path id="Path_133" data-name="Path 133" d="M6.639,5.642l4.436-4.436a.705.705,0,0,0-1-1L5.641,4.644,1.2.208a.705.705,0,1,0-1,1L4.643,5.642.207,10.078a.705.705,0,1,0,1,1L5.641,6.639l4.436,4.436a.705.705,0,0,0,1-1Z" transform="translate(0 -0.001)" fill="#ff3400"/>
      </g>
    </g>
  </g>
</svg>
