<svg xmlns="http://www.w3.org/2000/svg" viewBox="0 0 147.96 72.21"><defs><style>.cls-1{fill:#9fa5a9;}.cls-2{fill:#f8aa00;}</style></defs><g id="Layer_2" data-name="Layer 2"><g id="Layer_1-2" data-name="Layer 1"><path class="cls-1" d="M144.79,65.24h-.48l-3.17,6.85h.53l.86-1.91h4l.87,1.91H148Zm-2,4.49,1.8-3.94,1.79,3.94Z"/><path class="cls-1" d="M122.32,71l-.34-.33a3.11,3.11,0,0,1-2.34,1.06,3.07,3.07,0,0,1,0-6.12,3.12,3.12,0,0,1,2.3,1l.35-.37a3.58,3.58,0,0,0-2.64-1.09,3.52,3.52,0,0,0,0,7A3.58,3.58,0,0,0,122.32,71Z"/><rect class="cls-1" x="95.94" y="65.29" width="0.51" height="6.8"/><polygon class="cls-1" points="75.84 72.09 75.84 65.29 75.35 65.29 75.35 71.2 70.66 65.29 70.18 65.29 70.18 72.09 70.67 72.09 70.67 66.05 75.46 72.09 75.84 72.09"/><rect class="cls-1" x="49.58" y="65.29" width="0.51" height="6.8"/><polygon class="cls-1" points="29.98 72.09 29.98 71.62 25.99 71.62 25.99 65.29 25.48 65.29 25.48 72.09 29.98 72.09"/><path class="cls-1" d="M6.08,71l-.34-.33A3.11,3.11,0,0,1,3.4,71.75a3.07,3.07,0,0,1,0-6.12,3.08,3.08,0,0,1,2.29,1L6,66.26A3.56,3.56,0,0,0,3.4,65.17a3.52,3.52,0,0,0,0,7A3.56,3.56,0,0,0,6.08,71Z"/><path class="cls-1" d="M9.65,55.37v0c0-2.26-2.16-3-4.21-3.59-1.83-.52-3.56-1-3.56-2.48v0C1.88,47.93,3,47,4.79,47a7.32,7.32,0,0,1,3.93,1.28l.65-1a8.65,8.65,0,0,0-4.53-1.4C2.36,45.82.63,47.3.63,49.35v0c0,2.28,2.3,2.91,4.38,3.51,1.78.5,3.38,1.05,3.38,2.56v.05C8.39,57,7,58,5.31,58A7.46,7.46,0,0,1,.73,56.27l-.73,1A8.75,8.75,0,0,0,5.24,59.1C7.69,59.1,9.65,57.65,9.65,55.37Z"/><path class="cls-1" d="M15.1,42.74V41.06H13.58v1.68ZM15,58.85V46.07H13.73V58.85Z"/><path class="cls-1" d="M31.66,56.87V46.07H30.43v2.56a6.36,6.36,0,0,0-5.34-2.86A6.08,6.08,0,0,0,19,51.84v0a6.06,6.06,0,0,0,6.14,6,6.36,6.36,0,0,0,5.34-3V56.8c0,3.28-2.08,5-5,5A8.34,8.34,0,0,1,20.26,60l-.73,1a9.67,9.67,0,0,0,5.86,1.95C29,62.91,31.66,60.76,31.66,56.87Zm-1.16-5a5.1,5.1,0,0,1-5.28,4.86,4.85,4.85,0,0,1-4.94-4.88v-.05A4.73,4.73,0,0,1,25.22,47a5.07,5.07,0,0,1,5.28,4.86Z"/><path class="cls-1" d="M55.63,58.85V51.11c0-3.21-1.88-5.34-4.91-5.34a5.08,5.08,0,0,0-4.61,2.76,4.59,4.59,0,0,0-4.31-2.76,4.72,4.72,0,0,0-4.26,2.58V46.07H36.31V58.85h1.23V51.48a4.31,4.31,0,0,1,4.09-4.58c2.28,0,3.73,1.63,3.73,4.28v7.67h1.23V51.41c0-2.86,1.88-4.51,4-4.51,2.36,0,3.78,1.6,3.78,4.36v7.59Z"/><path class="cls-1" d="M70.11,58.85v-8c0-3.3-2-5-5.33-5A10.15,10.15,0,0,0,60.24,47l.45,1.07a8.6,8.6,0,0,1,4-1c2.63,0,4.21,1.32,4.21,3.9v.55a15.63,15.63,0,0,0-4.23-.55c-3.31,0-5.59,1.51-5.59,4.16v0c0,2.66,2.55,4,4.94,4a5.8,5.8,0,0,0,4.88-2.43v2.13Zm-1.18-4.78C68.93,56.4,66.7,58,64.1,58c-1.95,0-3.71-1.08-3.71-2.93v0c0-1.78,1.5-3,4.21-3a17.14,17.14,0,0,1,4.33.57v1.46Z"/><path class="cls-2" d="M86.67,58.85V40.56H84.74v7.82a5.84,5.84,0,0,0-5-2.76c-3.1,0-6.19,2.51-6.19,6.77s3.09,6.74,6.19,6.74a5.83,5.83,0,0,0,5-2.88v2.6Zm-1.85-6.49a4.83,4.83,0,0,1-4.69,5c-2.45,0-4.56-2-4.56-5s2.06-5,4.56-5A4.82,4.82,0,0,1,84.82,52.36Z"/><path class="cls-2" d="M92.13,53.09H102.4a4.44,4.44,0,0,0,0-.6c0-3.81-2.21-6.87-6-6.87-3.58,0-6.21,3-6.21,6.77a6.44,6.44,0,0,0,6.46,6.76A6.66,6.66,0,0,0,102,56.72l-1.2-1.08a5.32,5.32,0,0,1-4.08,1.83A4.54,4.54,0,0,1,92.13,53.09Zm0-1.43c.25-2.53,2-4.41,4.21-4.41,2.58,0,3.93,2.06,4.13,4.41Z"/><path class="cls-2" d="M107.73,51.43a3.81,3.81,0,0,1,3.89-4c2.28,0,3.58,1.5,3.58,3.9v7.57h1.93v-8c0-3.08-1.83-5.19-5-5.19a4.93,4.93,0,0,0-4.44,2.53V45.9h-1.92v13h1.92V51.43Z"/><path class="cls-2" d="M123.84,47.6H128V45.9h-4.11V42h-1.93V45.9h-1.8v1.7h1.8v7.82c0,2.63,1.58,3.66,3.66,3.66a4.83,4.83,0,0,0,2.33-.55V56.87a4,4,0,0,1-1.88.45,1.91,1.91,0,0,1-2.18-2.15V47.6Z"/><path class="cls-2" d="M136,47.43c2.43,0,3.86,1.2,3.86,3.53v.45a13.59,13.59,0,0,0-4-.55c-3.29,0-5.54,1.45-5.54,4.21s2.43,4.06,4.83,4.06a5.7,5.7,0,0,0,4.69-2.23v2h1.85V50.93c0-3.4-2-5.21-5.51-5.21a10.72,10.72,0,0,0-4.71,1.08l.58,1.58A9,9,0,0,1,136,47.43Zm.08,4.86a13.41,13.41,0,0,1,3.81.55v1.25c0,2-2,3.51-4.34,3.51-1.75,0-3.26-1-3.26-2.61S133.69,52.29,136.12,52.29Z"/><rect class="cls-2" x="146.03" y="40.56" width="1.93" height="18.29"/><path class="cls-2" d="M55.39,17.1c18.49,4.09,32.38-5,42.85-17.1C91.2,13.09,76.28,29.29,55.39,17.1Z"/><path class="cls-1" d="M92.43,26.16c-18.49-4.09-32.37,5-42.85,17.1C56.62,30.17,71.54,14,92.43,26.16Z"/></g></g></svg>