<svg xmlns="http://www.w3.org/2000/svg" viewBox="0 0 137.41 31.84"><defs><style>.cls-1{fill:#099aaa;}.cls-2{fill:#d30d49;}</style></defs><g id="Layer_2" data-name="Layer 2"><g id="Layer_1-2" data-name="Layer 1"><path class="cls-1" d="M105.61,6.9h4.69a2.74,2.74,0,0,0,2.32-1,3.13,3.13,0,0,0,.41-.71,1.71,1.71,0,0,0,.09-.3L114,1.76H94.42a2.91,2.91,0,0,0-2.34,1,3,3,0,0,0-.42.65c0,.09-.07.19-.1.28L90.65,6.9h7.93V28.23c0,1.93,1.41,3.05,5,3.05h2.07Z"/><path class="cls-1" d="M85.39,22.37a8,8,0,0,1-11.29.22l-.22-.22h0a9.7,9.7,0,0,1-2.76-6.85,10.38,10.38,0,0,1,.34-2.61h0a8.33,8.33,0,0,1,16.34,0h0a10,10,0,0,1,.35,2.61,9.68,9.68,0,0,1-2.76,6.85Zm7.33-5.75a15.45,15.45,0,0,0-.46-3.71h0a15.22,15.22,0,0,0-29.52,0h0a15.32,15.32,0,0,0,.67,9.46h0a15.27,15.27,0,0,0,3.06,4.73h0A15.22,15.22,0,0,0,92.72,16.62"/><path class="cls-1" d="M55.67,13.17H54.35a5.54,5.54,0,0,0-3.47,1.22,5.84,5.84,0,0,0-1.5,3.08c1.83,0,2,0,3.43,0s3.29.73,2.58,3.3a4.54,4.54,0,0,1-.85,1.63h0c-1.4,1.69-3.95,2.33-5.87,2.33a9.11,9.11,0,0,1-6-2.33h0a8.73,8.73,0,0,1-2.94-6.56,8.91,8.91,0,0,1,.48-2.9,9.12,9.12,0,0,1,8.5-6.2h3.87a2.65,2.65,0,0,0,2.29-1.08,3.12,3.12,0,0,0,.4-.74c.07-.19,1-3.08,1-3.08l-9.64,0A15,15,0,0,0,31.75,12.91a15,15,0,0,0-.44,3.59,15.21,15.21,0,0,0,1.18,5.88h0a15.29,15.29,0,0,0,3.13,4.73h0a15.16,15.16,0,0,0,10.91,4.6c4.47,0,8.48-1.52,11.16-4.6h0a13.59,13.59,0,0,0,2.64-4.74h0c.06-.18.11-.37.17-.56A9.6,9.6,0,0,0,61,18.89c.08-3-1.62-5.72-5.31-5.72"/><path class="cls-1" d="M135.63,27.1l-10-23.63a4.05,4.05,0,0,0-3.74-2.2c-1.47,0-3.54.39-4.21,2.2l-10.2,27.79H111c2.51,0,3.84,0,4.59-2.28l.64-1.88,1.36-4a4.42,4.42,0,0,0,3.65,1.47c2.16,0,3.1-1,3.49-2.2h0a6.47,6.47,0,0,0,.09-3.09s-.52,1.17-2.85,1.17c-1.93,0-3.16-1.33-2.66-2.87l1.39-4.67,1.13-3.79,6.42,18,.68,1.88c.77,2.24,2.28,2.28,4.65,2.28h3.82Z"/><path class="cls-1" d="M132.33,10c1,0,1.43-.75,1.43-2.92V2.63a2.81,2.81,0,0,0-3-2.63c-1.78,0-3,.68-3,2,0,2.61,3,8,4.54,8"/><path class="cls-1" d="M27.27,7.85c-3.55,0-4.95,1.13-4.95,3v20.4h2.12c3.49,0,4.9-1.12,4.9-3.05V7.85Z"/><path class="cls-1" d="M22.46,4.89l.84-3.13H3.78a2.88,2.88,0,0,0-2.33,1A2.34,2.34,0,0,0,1,3.37a1.36,1.36,0,0,0-.11.28L0,6.9H7.93V28.22c0,1.93,1.41,3.06,5,3.06H15V6.9h4.7a2.7,2.7,0,0,0,2.31-1,2.93,2.93,0,0,0,.39-.69,1.81,1.81,0,0,0,.09-.31"/><path class="cls-2" d="M24.94,3.21a2.83,2.83,0,0,1,2.63-3h4.49C34.23.22,35,.64,35,1.65c0,1.57-5.42,4.54-8,4.54-1.34,0-2-1.21-2-3"/></g></g></svg>