<svg xmlns="http://www.w3.org/2000/svg" width="123" height="147.243" viewBox="0 0 123 147.243">
  <g id="transactionModal" transform="translate(-138 -182.493)">
    <path id="Path_5141" data-name="Path 5141" d="M1376.419,110.366H1264.29a5.435,5.435,0,1,1,0-10.87h112.129a5.435,5.435,0,1,1,0,10.87Zm-112.129-8.19a2.753,2.753,0,0,0-2.436,1.466,2.725,2.725,0,0,0-.319,1.289,2.754,2.754,0,0,0,2.755,2.755h112.129a2.756,2.756,0,0,0,2.755-2.755,2.72,2.72,0,0,0-.32-1.289,2.752,2.752,0,0,0-2.436-1.466H1264.29Z" transform="translate(-1120.855 82.997)" fill="#272c31"/>
    <path id="Path_5143" data-name="Path 5143" d="M1358.023,133.009l2.712-2.712,2.712,2.712,2.711-2.712,2.712,2.712,2.711-2.712,2.712,2.712L1377,130.3l2.711,2.712,2.712-2.712,2.712,2.712,2.711-2.712,2.712,2.712,2.711-2.712,2.712,2.712,2.711-2.712,2.712,2.712,2.711-2.712,2.711,2.712,2.712-2.712,2.711,2.712,2.711-2.712,2.712,2.712,2.712-2.712,2.711,2.712,2.712-2.712,2.711,2.712,2.712-2.712,2.711,2.712,2.712-2.712,2.712,2.712,2.711-2.712,2.711,2.712,2.629-2.629V116.205h-92.026V130.38Z" transform="translate(-1201.908 68.968)" fill="#fff"/>
    <rect id="Rectangle_4904" data-name="Rectangle 4904" width="92.026" height="3.538" transform="translate(153.487 185.173)" fill="#fff"/>
    <path id="Path_5145" data-name="Path 5145" d="M1444.792,241.937l-2.712-2.8-2.711,2.8-2.711-2.8-2.712,2.8-2.711-2.8-2.711,2.8-2.712-2.8-2.711,2.8-2.712-2.8-2.712,2.8-2.711-2.8-2.712,2.8-2.711-2.8-2.711,2.8-2.712-2.8-2.711,2.8-2.712-2.8-2.711,2.8-2.712-2.8-2.712,2.8-2.711-2.8-2.712,2.8-2.712-2.8-2.712,2.8-2.711-2.8-2.711,2.8-2.712-2.8-2.711,2.8-2.712-2.8-2.711,2.8-2.711-2.8-2.712,2.8-2.629-2.881V361.282l2.629,2.629,2.712-2.712,2.712,2.712,2.711-2.712,2.712,2.712,2.711-2.712,2.712,2.712L1377,361.2l2.711,2.712,2.712-2.712,2.712,2.712,2.711-2.712,2.712,2.712,2.712-2.712,2.712,2.712,2.711-2.712,2.712,2.712,2.711-2.712,2.712,2.712,2.711-2.712,2.711,2.712,2.712-2.712,2.711,2.712,2.712-2.712,2.712,2.712,2.711-2.712,2.711,2.712,2.712-2.712,2.711,2.712,2.712-2.712,2.711,2.712,2.711-2.712,2.712,2.712,2.629-2.629V239.056Z" transform="translate(-1202.415 -34.175)" fill="#fff"/>
    <rect id="Rectangle_4905" data-name="Rectangle 4905" width="1.266" height="12.806" transform="translate(159.81 297.588)" fill="#272c31"/>
    <rect id="Rectangle_4906" data-name="Rectangle 4906" width="4.01" height="12.806" transform="translate(161.826 297.588)" fill="#272c31"/>
    <rect id="Rectangle_4907" data-name="Rectangle 4907" width="1.266" height="12.806" transform="translate(166.586 297.588)" fill="#272c31"/>
    <rect id="Rectangle_4908" data-name="Rectangle 4908" width="1.266" height="12.806" transform="translate(173.361 297.588)" fill="#272c31"/>
    <rect id="Rectangle_4909" data-name="Rectangle 4909" width="0.633" height="12.806" transform="translate(177.394 297.588)" fill="#272c31"/>
    <rect id="Rectangle_4910" data-name="Rectangle 4910" width="0.633" height="12.806" transform="translate(178.776 297.588)" fill="#272c31"/>
    <rect id="Rectangle_4911" data-name="Rectangle 4911" width="0.633" height="12.806" transform="translate(180.159 297.588)" fill="#272c31"/>
    <rect id="Rectangle_4912" data-name="Rectangle 4912" width="0.633" height="12.806" transform="translate(184.93 297.588)" fill="#272c31"/>
    <rect id="Rectangle_4913" data-name="Rectangle 4913" width="1.266" height="12.806" transform="translate(175.377 297.588)" fill="#272c31"/>
    <rect id="Rectangle_4914" data-name="Rectangle 4914" width="1.266" height="12.806" transform="translate(186.312 297.588)" fill="#272c31"/>
    <rect id="Rectangle_4915" data-name="Rectangle 4915" width="2.638" height="12.806" transform="translate(181.542 297.588)" fill="#272c31"/>
    <rect id="Rectangle_4916" data-name="Rectangle 4916" width="4.01" height="12.806" transform="translate(168.602 297.588)" fill="#272c31"/>
    <rect id="Rectangle_4917" data-name="Rectangle 4917" width="4.01" height="12.806" transform="translate(188.329 297.588)" fill="#272c31"/>
    <rect id="Rectangle_4918" data-name="Rectangle 4918" width="1.267" height="12.806" transform="translate(224.35 297.588)" fill="#272c31"/>
    <rect id="Rectangle_4919" data-name="Rectangle 4919" width="4.01" height="12.806" transform="translate(219.591 297.588)" fill="#272c31"/>
    <rect id="Rectangle_4920" data-name="Rectangle 4920" width="4.01" height="12.806" transform="translate(235.18 297.588)" fill="#272c31"/>
    <rect id="Rectangle_4921" data-name="Rectangle 4921" width="1.266" height="12.806" transform="translate(217.575 297.588)" fill="#272c31"/>
    <rect id="Rectangle_4922" data-name="Rectangle 4922" width="1.266" height="12.806" transform="translate(228.383 297.588)" fill="#272c31"/>
    <rect id="Rectangle_4923" data-name="Rectangle 4923" width="1.266" height="12.806" transform="translate(210.799 297.588)" fill="#272c31"/>
    <rect id="Rectangle_4924" data-name="Rectangle 4924" width="1.266" height="12.806" transform="translate(230.399 297.588)" fill="#272c31"/>
    <rect id="Rectangle_4925" data-name="Rectangle 4925" width="0.633" height="12.806" transform="translate(207.401 297.588)" fill="#272c31"/>
    <rect id="Rectangle_4926" data-name="Rectangle 4926" width="0.633" height="12.806" transform="translate(232.414 297.588)" fill="#272c31"/>
    <rect id="Rectangle_4927" data-name="Rectangle 4927" width="0.633" height="12.806" transform="translate(206.017 297.588)" fill="#272c31"/>
    <rect id="Rectangle_4928" data-name="Rectangle 4928" width="0.633" height="12.806" transform="translate(233.797 297.588)" fill="#272c31"/>
    <rect id="Rectangle_4929" data-name="Rectangle 4929" width="0.633" height="12.806" transform="translate(204.635 297.588)" fill="#272c31"/>
    <rect id="Rectangle_4930" data-name="Rectangle 4930" width="0.633" height="12.806" transform="translate(199.863 297.588)" fill="#272c31"/>
    <rect id="Rectangle_4931" data-name="Rectangle 4931" width="1.267" height="12.806" transform="translate(208.783 297.588)" fill="#272c31"/>
    <rect id="Rectangle_4932" data-name="Rectangle 4932" width="1.266" height="12.806" transform="translate(226.367 297.588)" fill="#272c31"/>
    <rect id="Rectangle_4933" data-name="Rectangle 4933" width="1.266" height="12.806" transform="translate(197.848 297.588)" fill="#272c31"/>
    <rect id="Rectangle_4934" data-name="Rectangle 4934" width="2.638" height="12.806" transform="translate(201.247 297.588)" fill="#272c31"/>
    <rect id="Rectangle_4935" data-name="Rectangle 4935" width="4.01" height="12.806" transform="translate(212.815 297.588)" fill="#272c31"/>
    <rect id="Rectangle_4936" data-name="Rectangle 4936" width="4.01" height="12.806" transform="translate(193.088 297.588)" fill="#272c31"/>
    <path id="Path_5155" data-name="Path 5155" d="M-7.634-1.748v.331h.69V.436h.368V-1.417h.693v-.331Zm2.066,0V.436H-5.2V-.469h1.158V.436h.368V-1.748h-.368V-.8H-5.2v-.949ZM-1.48.436h.393l-.955-2.185h-.378L-3.383.436H-3l.209-.493h1.1ZM-2.653-.384l.412-.971.412.971ZM-.8-1.748V.436h.368V-1.13L.736.436H1.1V-1.748H.736v1.57l-1.17-1.57ZM3.576.436l-.9-1.251.846-.933H3.086L2.044-.618v-1.13H1.676V.436h.368V-.119l.371-.409.718.964ZM6.55-1.748H6.176L5.564-.684,4.94-1.748H4.568l.815,1.47V.436h.365V-.291ZM7.8-1.757a1.111,1.111,0,0,0-1.158,1.1A1.118,1.118,0,0,0,7.8.452,1.118,1.118,0,0,0,8.963-.656,1.113,1.113,0,0,0,7.8-1.757Zm0,.331a.77.77,0,0,1,.777.771.775.775,0,0,1-.777.777.783.783,0,0,1-.786-.777A.776.776,0,0,1,7.808-1.427ZM9.68-.469v-1.28H9.312v1.28a.866.866,0,0,0,.952.921.864.864,0,0,0,.949-.921v-1.28h-.368v1.28a.538.538,0,0,1-.577.59A.545.545,0,0,1,9.68-.469Z" transform="translate(197.272 318.947)" fill="#272c31"/>
    <path id="Path_5153" data-name="Path 5153" d="M-12.156-2.809a1.778,1.778,0,0,0-1.852,1.763A1.789,1.789,0,0,0-12.156.726,1.789,1.789,0,0,0-10.3-1.046,1.781,1.781,0,0,0-12.156-2.809Zm0,.529a1.232,1.232,0,0,1,1.243,1.233A1.24,1.24,0,0,1-12.151.2a1.253,1.253,0,0,1-1.258-1.243A1.241,1.241,0,0,1-12.151-2.28ZM-6.788.7-7.572-.467A1.123,1.123,0,0,0-6.848-1.6c0-.759-.514-1.193-1.408-1.193H-9.674V.7h.589V-.352h.829c.055,0,.11,0,.16,0L-7.457.7Zm-2.3-1.583V-2.265h.829c.539,0,.849.22.849.679s-.31.7-.849.7Zm4.454-1.912H-6.064V.7h1.418A1.728,1.728,0,0,0-2.823-1.046,1.719,1.719,0,0,0-4.631-2.794ZM-4.616.172h-.859V-2.265h.834A1.192,1.192,0,0,1-3.417-1.041,1.172,1.172,0,0,1-4.616.172Zm2.422-2.966V.7H.363V.172H-1.6V-.792H.1v-.524H-1.6v-.949H.3v-.529ZM3.968.7,3.184-.467A1.123,1.123,0,0,0,3.908-1.6c0-.759-.514-1.193-1.408-1.193H1.082V.7h.589V-.352H2.5c.055,0,.11,0,.16,0L3.3.7ZM1.671-.882V-2.265H2.5c.539,0,.849.22.849.679s-.31.7-.849.7ZM6.26-2.8v.529h.754V.7H7.6V-2.8ZM9.8-1.511V-2.27h1.673V-2.8H9.26V-.947C9.51-.977,10-1,10.224-1,10.7-1,11-.777,11-.417c0,.389-.295.629-.784.629a1.642,1.642,0,0,1-.989-.369l-.24.479a2.493,2.493,0,0,0,1.293.4A1.192,1.192,0,0,0,11.627-.457c0-.609-.509-1.059-1.3-1.059C10.189-1.516,9.96-1.516,9.8-1.511Zm3.68.4L12.152.267V.7h2.562V.172H12.926L13.884-.8a1.91,1.91,0,0,0,.659-1.143c0-.539-.464-.884-1.148-.884a2.125,2.125,0,0,0-1.3.5l.24.454a1.566,1.566,0,0,1,.984-.434c.384,0,.614.165.614.449A1.294,1.294,0,0,1,13.485-1.111Zm3.031-1.7c-.849,0-1.318.629-1.318,1.763S15.667.716,16.516.716s1.313-.629,1.313-1.768S17.359-2.814,16.516-2.814Zm0,.459c.484,0,.729.414.729,1.3S17,.257,16.516.257s-.734-.419-.734-1.308S16.026-2.355,16.516-2.355Zm3.076-.469c-.709,0-1.158.34-1.158.884a.839.839,0,0,0,.539.769.945.945,0,0,0-.709.9c0,.619.514,1,1.333,1S20.93.342,20.93-.282a.932.932,0,0,0-.684-.889.8.8,0,0,0,.509-.744C20.755-2.479,20.31-2.824,19.591-2.824Zm0,.424c.419,0,.659.19.659.514s-.24.514-.659.514-.664-.19-.664-.514S19.177-2.4,19.6-2.4Zm0,1.488c.494,0,.784.215.784.579s-.29.594-.779.594-.779-.215-.779-.6C18.818-.7,19.1-.912,19.591-.912Z" transform="translate(195.689 222.624)" fill="#f26521"/>
    <rect id="Rectangle_4937" data-name="Rectangle 4937" width="81.975" height="0.67" transform="translate(158.513 293.866)" fill="#eaeaea"/>
    <rect id="Rectangle_4938" data-name="Rectangle 4938" width="81.975" height="0.67" transform="translate(158.513 278.565)" fill="#eaeaea"/>
    <path id="Path_5154" data-name="Path 5154" d="M.027-2.1v.4H.855V.524H1.3V-1.7h.831v-.4Zm3.494-.011A1.333,1.333,0,0,0,2.132-.787,1.342,1.342,0,0,0,3.521.542,1.342,1.342,0,0,0,4.91-.787,1.336,1.336,0,0,0,3.521-2.109Zm0,.4a.924.924,0,0,1,.932.925.93.93,0,0,1-.932.932.94.94,0,0,1-.944-.932A.931.931,0,0,1,3.525-1.712ZM5.019-2.1v.4h.828V.524h.442V-1.7H7.12v-.4ZM9.183.524h.472L8.509-2.1H8.056L6.9.524H7.36L7.61-.068H8.932ZM7.775-.461,8.27-1.626,8.764-.461ZM10-2.1V.524H11.58v-.4H10.445V-2.1Z" transform="translate(158.517 287.596)" fill="#272c31"/>
    <path id="Path_5152" data-name="Path 5152" d="M6-.421A2.567,2.567,0,0,1,4.287.3,2.178,2.178,0,0,1,2.356-.832H4.549v-.559H2.155A2.034,2.034,0,0,1,2.1-1.854a2.584,2.584,0,0,1,.044-.454h2.4v-.559H2.356A2.178,2.178,0,0,1,4.287-4,2.408,2.408,0,0,1,6-3.226l.594-.751a3.339,3.339,0,0,0-2.316-.944,3.156,3.156,0,0,0-3.05,2.053H.259v.559h.83a2.688,2.688,0,0,0-.035.463,2.587,2.587,0,0,0,.035.454H.259v.559H1.22a3.12,3.12,0,0,0,3.015,2.1A3.439,3.439,0,0,0,6.6.261Z" transform="translate(201.405 287.912)" fill="#f26521"/>
    <rect id="Rectangle_4939" data-name="Rectangle 4939" width="29.968" height="12.134" transform="translate(210.52 280.494)" fill="#f26521" opacity="0.156"/>
    <path id="Path_5151" data-name="Path 5151" d="M3.429-.24A1.467,1.467,0,0,1,2.45.174a1.245,1.245,0,0,1-1.1-.649H2.6v-.32H1.232a1.162,1.162,0,0,1-.03-.265,1.477,1.477,0,0,1,.025-.26H2.6v-.32H1.346a1.245,1.245,0,0,1,1.1-.649,1.376,1.376,0,0,1,.979.444l.34-.429a1.908,1.908,0,0,0-1.323-.539A1.8,1.8,0,0,0,.7-1.639H.148v.32H.622a1.536,1.536,0,0,0-.02.265,1.478,1.478,0,0,0,.02.26H.148v.32H.7A1.783,1.783,0,0,0,2.42.723,1.965,1.965,0,0,0,3.773.149Z" transform="translate(217.774 273.042)" fill="#272c31"/>
    <path id="Path_5150" data-name="Path 5150" d="M3.429-.24A1.467,1.467,0,0,1,2.45.174a1.245,1.245,0,0,1-1.1-.649H2.6v-.32H1.232a1.162,1.162,0,0,1-.03-.265,1.477,1.477,0,0,1,.025-.26H2.6v-.32H1.346a1.245,1.245,0,0,1,1.1-.649,1.376,1.376,0,0,1,.979.444l.34-.429a1.908,1.908,0,0,0-1.323-.539A1.8,1.8,0,0,0,.7-1.639H.148v.32H.622a1.536,1.536,0,0,0-.02.265,1.478,1.478,0,0,0,.02.26H.148v.32H.7A1.783,1.783,0,0,0,2.42.723,1.965,1.965,0,0,0,3.773.149Z" transform="translate(217.774 265.006)" fill="#272c31"/>
    <rect id="Rectangle_4940" data-name="Rectangle 4940" width="14.656" height="1.928" transform="translate(225.782 263.285)" fill="#272c31"/>
    <rect id="Rectangle_4941" data-name="Rectangle 4941" width="14.656" height="1.928" transform="translate(225.672 271.321)" fill="#272c31"/>
    <rect id="Rectangle_4942" data-name="Rectangle 4942" width="29.82" height="1.928" transform="translate(158.563 271.321)" fill="#272c31"/>
    <path id="Path_5149" data-name="Path 5149" d="M3.429-.24A1.467,1.467,0,0,1,2.45.174a1.245,1.245,0,0,1-1.1-.649H2.6v-.32H1.232a1.162,1.162,0,0,1-.03-.265,1.477,1.477,0,0,1,.025-.26H2.6v-.32H1.346a1.245,1.245,0,0,1,1.1-.649,1.376,1.376,0,0,1,.979.444l.34-.429a1.908,1.908,0,0,0-1.323-.539A1.8,1.8,0,0,0,.7-1.639H.148v.32H.622a1.536,1.536,0,0,0-.02.265,1.478,1.478,0,0,0,.02.26H.148v.32H.7A1.783,1.783,0,0,0,2.42.723,1.965,1.965,0,0,0,3.773.149Z" transform="translate(217.774 256.97)" fill="#272c31"/>
    <rect id="Rectangle_4943" data-name="Rectangle 4943" width="14.656" height="1.928" transform="translate(225.782 255.25)" fill="#272c31"/>
    <path id="Path_5148" data-name="Path 5148" d="M3.429-.24A1.467,1.467,0,0,1,2.45.174a1.245,1.245,0,0,1-1.1-.649H2.6v-.32H1.232a1.162,1.162,0,0,1-.03-.265,1.477,1.477,0,0,1,.025-.26H2.6v-.32H1.346a1.245,1.245,0,0,1,1.1-.649,1.376,1.376,0,0,1,.979.444l.34-.429a1.908,1.908,0,0,0-1.323-.539A1.8,1.8,0,0,0,.7-1.639H.148v.32H.622a1.536,1.536,0,0,0-.02.265,1.478,1.478,0,0,0,.02.26H.148v.32H.7A1.783,1.783,0,0,0,2.42.723,1.965,1.965,0,0,0,3.773.149Z" transform="translate(217.774 248.935)" fill="#272c31"/>
    <rect id="Rectangle_4944" data-name="Rectangle 4944" width="14.656" height="1.928" transform="translate(225.782 247.214)" fill="#272c31"/>
    <path id="Path_5147" data-name="Path 5147" d="M3.429-.24A1.467,1.467,0,0,1,2.45.174a1.245,1.245,0,0,1-1.1-.649H2.6v-.32H1.232a1.162,1.162,0,0,1-.03-.265,1.477,1.477,0,0,1,.025-.26H2.6v-.32H1.346a1.245,1.245,0,0,1,1.1-.649,1.376,1.376,0,0,1,.979.444l.34-.429a1.908,1.908,0,0,0-1.323-.539A1.8,1.8,0,0,0,.7-1.639H.148v.32H.622a1.536,1.536,0,0,0-.02.265,1.478,1.478,0,0,0,.02.26H.148v.32H.7A1.783,1.783,0,0,0,2.42.723,1.965,1.965,0,0,0,3.773.149Z" transform="translate(217.774 240.899)" fill="#272c31"/>
    <rect id="Rectangle_4945" data-name="Rectangle 4945" width="14.656" height="1.928" transform="translate(225.782 239.179)" fill="#272c31"/>
    <path id="Path_5146" data-name="Path 5146" d="M3.429-.24A1.467,1.467,0,0,1,2.45.174a1.245,1.245,0,0,1-1.1-.649H2.6v-.32H1.232a1.162,1.162,0,0,1-.03-.265,1.477,1.477,0,0,1,.025-.26H2.6v-.32H1.346a1.245,1.245,0,0,1,1.1-.649,1.376,1.376,0,0,1,.979.444l.34-.429a1.908,1.908,0,0,0-1.323-.539A1.8,1.8,0,0,0,.7-1.639H.148v.32H.622a1.536,1.536,0,0,0-.02.265,1.478,1.478,0,0,0,.02.26H.148v.32H.7A1.783,1.783,0,0,0,2.42.723,1.965,1.965,0,0,0,3.773.149Z" transform="translate(217.774 232.864)" fill="#272c31"/>
    <text id="_....................." data-name="....................." transform="translate(190.496 270.747)" fill="#253d7a" font-size="2" font-family="Montserrat-Regular, Montserrat"><tspan x="0" y="0">.....................</tspan></text>
    <text id="_.....................-2" data-name="....................." transform="translate(190.496 262.711)" fill="#253d7a" font-size="2" font-family="Montserrat-Regular, Montserrat"><tspan x="0" y="0">.....................</tspan></text>
    <text id="_.....................-3" data-name="....................." transform="translate(190.496 254.675)" fill="#253d7a" font-size="2" font-family="Montserrat-Regular, Montserrat"><tspan x="0" y="0">.....................</tspan></text>
    <text id="_.....................-4" data-name="....................." transform="translate(190.496 246.64)" fill="#253d7a" font-size="2" font-family="Montserrat-Regular, Montserrat"><tspan x="0" y="0">.....................</tspan></text>
    <text id="_.....................-5" data-name="....................." transform="translate(190.496 238.604)" fill="#253d7a" font-size="2" font-family="Montserrat-Regular, Montserrat"><tspan x="0" y="0">.....................</tspan></text>
    <text id="_.....................-6" data-name="....................." transform="translate(190.496 230.569)" fill="#253d7a" font-size="2" font-family="Montserrat-Regular, Montserrat"><tspan x="0" y="0">.....................</tspan></text>
    <rect id="Rectangle_4946" data-name="Rectangle 4946" width="14.656" height="1.928" transform="translate(225.782 231.143)" fill="#272c31"/>
    <rect id="Rectangle_4947" data-name="Rectangle 4947" width="29.82" height="1.928" transform="translate(158.673 263.285)" fill="#272c31"/>
    <rect id="Rectangle_4948" data-name="Rectangle 4948" width="29.82" height="1.928" transform="translate(158.673 255.25)" fill="#272c31"/>
    <rect id="Rectangle_4949" data-name="Rectangle 4949" width="29.82" height="1.928" transform="translate(158.673 247.214)" fill="#272c31"/>
    <rect id="Rectangle_4950" data-name="Rectangle 4950" width="29.82" height="1.928" transform="translate(158.673 239.179)" fill="#272c31"/>
    <rect id="Rectangle_4951" data-name="Rectangle 4951" width="29.82" height="1.928" transform="translate(158.673 231.143)" fill="#272c31"/>
  </g>
</svg>
