<svg xmlns="http://www.w3.org/2000/svg" viewBox="0 0 437.97 140.29"><defs><style>.cls-1{fill:#7357a0;}.cls-2{fill:#0d95d0;}</style></defs><g id="Layer_2" data-name="Layer 2"><g id="Layer_1-2" data-name="Layer 1"><path class="cls-1" d="M80.65.18c1.25,5.7-3,10.15-4.27,15.13-.89,3.74-2.67,7.12-3.92,10.68-3,7.84-6.23,15.67-9.08,23.5-2.31,6.06-4.45,11.93-6.59,18-2.31,6-4.45,12.28-6.76,18.33,0,.18-.18.36-.36.72-3.2,5-8.19,2.49-12.46,2.84-2.85.36-3.92-2-4.81-4.27C29,75.84,25.28,66.76,21.72,57.68,18.34,48.78,15,40.06,11.57,31.16,8.72,23.32,5.7,15.49,2.67,7.83,2.31,6.94.89,6.59,0,5.88V.18H17.09l1.6,4.27c1.61,4.1,3.39,8,5,12.11C26.17,23,28.49,29.38,30.8,35.79c2.67,7.29,5.16,14.42,7.83,21.72a11.11,11.11,0,0,0,2.14,2.84c.89-.89,2.14-1.42,2.67-2.49,2.67-6.76,5-13.53,7.48-20.29,2.49-6.41,5-12.82,7.65-19.23,2.5-6.06,4.81-12.29,7.3-18.34C70.68.18,75.67.18,80.65.18Z"/><path class="cls-1" d="M437.61,60.89c-2.31.18-4.45.53-6.76.53-11.57,0-23.32-.18-34.9-.18-.89,0-2.49.54-2.67,1.25a3.46,3.46,0,0,0,.54,3.21c4.8,5.16,11.21,9.79,20.83,4.09a17.17,17.17,0,0,1,7.47-2,94.83,94.83,0,0,1,10-.18c2.85,0,3.92,1.78,2.5,4.28C427.64,84.39,411.44,91.87,399,87.77c-10.33-3.38-18.16-9.43-21.9-19.76-5.16-14.78-1.07-29,11.75-37.92,16-11,34.9-5,44.69,9.61,1.24,2,2.67,3.74,3.92,5.52C437.61,50.38,437.61,55.55,437.61,60.89ZM407.7,50.56v-.35c2.85.17,5.7.35,8.55.35,1.07,0,2.14-.89,3.38-1.24-.53-1.07-.71-2.67-1.42-3.39-6.95-6.41-16.74-6.41-23.33.18a4.56,4.56,0,0,0-1.06,3.38c0,.54,1.95,1.07,3,1.07Z"/><path class="cls-1" d="M217.74.18c0,6.59-.18,13.35-.18,19.94,0,2.85,1.25,4.09,4.1,4.09,5.16,0,10.14,0,15.31-.18,3,0,4.45,1.25,4.27,4.28,0,2.67,0,5.52-.18,8.19-.18,3-1.42,4.63-4.63,4.45-4.8-.18-9.43-.18-14.24-.18-4.1,0-4.81.89-4.63,4.81.18,3.56,0,7.12.18,10.68.18,9.44,6.23,15.49,15.67,15.67,7.83.17,7.83.17,7.65,8,0,9.08,0,9.26-9.08,8.72-12.46-.71-21.36-7.12-27.06-18-3.74-7.12-3.38-14.6-3.2-22.25.17-14.07-.18-28.31-.36-42.38a37.9,37.9,0,0,1,.71-6C207.23.18,212.58.18,217.74.18Z"/><path class="cls-2" d="M273.46,140.11c0-5.16,0-10.5.18-15.66a13.23,13.23,0,0,1,11.4-13,10.49,10.49,0,0,1,6,1.43,6.77,6.77,0,0,0,7.3.17,12,12,0,0,1,17.8,10.33c.18,5.52.18,11.22.18,16.73h-7.12c0-5,.18-10,.18-15,0-3.38-2.67-6.23-5.52-6.23s-5.52,2.85-5.52,6.23c0,5,.18,10,.18,15h-7.12c0-5.16.17-10.5.17-15.66a4.88,4.88,0,0,0-4.09-5.17,4.48,4.48,0,0,0-5.7,3,14.55,14.55,0,0,0-.89,4.81c-.18,4.45-.18,8.72-.18,13.17C278.27,140.11,275.78,140.11,273.46,140.11Z"/><path class="cls-2" d="M360.52,140.11a9.44,9.44,0,0,0-1.24-2.31c-3.92-2.85-5.34-6.59-5.17-11.39,0-7-.35-13.71-.53-20.66-.18-3.56,1.25-5.34,3.92-5.16,3.56.18,3.74,2.67,3.38,5.52a19.15,19.15,0,0,0-.18,3.2c0,2.5,1.25,3.39,3.74,2.85,7.12-1.24,13,1.43,16,7.48,2.5,5,.54,13.71-3.91,18a13.16,13.16,0,0,0-1.61,2.67C370.14,140.11,365.33,140.11,360.52,140.11Zm7-6.58c3,0,7.3-4.1,7.47-7.12.18-3.21-3.73-7.13-7.12-7.3-3-.18-6.94,3.56-7.12,6.76C360.35,128.9,364.44,133.35,367.47,133.53Z"/><path class="cls-2" d="M416.25,140.11c-.71-1.06-1.43-2.13-2.14-3-4.09-4.27-5.69-9.08-4.09-15,1.78-6.58,6.23-9.79,12.46-10.68,4.63-.71,8.72,1.43,12.11,5a15.93,15.93,0,0,0,3.38,2.31V128c-5,0-10,0-15,.35-1.6.18-3,1.07-4.62,1.78,1.6,1.25,3,2.85,4.8,3.57,1.07.35,2.67-.36,4.1-.89,1.42-.36,2.85-1.25,4.45-1.43,1.42,0,2.85.71,4.27,1.07a30.34,30.34,0,0,1-1.78,4.27,23.92,23.92,0,0,1-2.67,3.38ZM423,124.27c.18-.18.36-.53.54-.71.71,0,1.6.35,2.13,0a16.52,16.52,0,0,0,2.85-2,32.48,32.48,0,0,0-2.49-2.49,1.93,1.93,0,0,0-2-.18,45.57,45.57,0,0,0-5.16,2.49C420.17,122.31,421.59,123.38,423,124.27Z"/><path class="cls-2" d="M327.76,140.11c-.53-.89-.89-2.13-1.78-2.84-7.65-6.41-6.05-21.72,5.35-25.46,7.3-2.32,16.55,3.74,17.27,11.39.53,6,0,11.4-5.7,15.13-.54.36-.54,1.25-.89,2C337.2,140.11,332.57,140.11,327.76,140.11Zm-.17-14.24c0,3.74,3.74,7.66,7.12,7.48,3.2,0,7.48-4.27,7.48-7.48s-3.92-6.94-7.3-6.94A7.26,7.26,0,0,0,327.59,125.87Z"/><path class="cls-2" d="M398.45,140.11V104.86c0-2.31.53-4.27,3.56-4.27,2.84,0,3,2.14,3,4.27,0,2.32,0,4.45-.18,6.77v28.48Z"/><path class="cls-2" d="M386.34,140.11c-.18-2-.54-3.91-.54-6.05,0-5.52-.17-11,0-16.56,0-1.6.18-3.56,1.07-4.62a4.27,4.27,0,0,1,4.1-.9c1.07.36,2,2.32,2.13,3.57.18,8.19,0,16.37-.17,24.56Z"/><path class="cls-1" d="M107.18,61.24H89.37c-1.06,0-2.84.54-3.2,1.25a4.12,4.12,0,0,0,.89,3.38c5.16,6.59,13.53,7.84,20.83,3.56a15,15,0,0,1,6.41-2A105.73,105.73,0,0,1,125,67.3a3.45,3.45,0,0,1,2.85,1.42c.36.54,0,2.14-.36,2.85-5,7.48-11.21,12.82-19.94,15.85C94.89,91.87,75.67,83.14,71,69.79c-2.14-6.41-3.56-12.64-2.32-19.05,3.56-19.23,21.54-31.69,41-24.57,10.68,3.92,17.09,11.75,20.47,22.26.89,2.84.72,6,.89,9.25,0,2.85-2.13,3.74-4.62,3.74-6.77,0-13,0-19.23-.18Zm-8-10.68h0c3-.18,6.23,0,9.25-.18,1.25,0,2.5-.89,3.74-1.24-.53-1.25-.89-2.67-2-3.56-7.12-6.59-15.48-5.52-22.78.35a4.55,4.55,0,0,0-1.07,3.39c.18.53,1.78,1.24,2.85,1.24Z"/><path class="cls-1" d="M303.55,56.08c.89,17.09-14.06,33.12-31.33,32.94-16.74-.18-31.34-15.31-31.34-32.94-.17-14.78,14.25-31.87,31.69-31.87C289.31,24,304.8,40.59,303.55,56.08Zm-15.13,0c0-7.83-7.48-15.13-15.85-15.13-8.54-.18-16.2,7.12-16.2,15.13,0,8.37,7.48,16,15.85,16C280.76,72.28,288.42,64.63,288.42,56.08Z"/><path class="cls-1" d="M308.36,68c0-5.16-.18-10.15,0-15.31.89-17.27,21.19-33.83,41.13-26.88,11.92,4.09,21.36,17.44,21,30.44-.17,9.08.36,18.34.72,27.42.17,3.56-1.07,5.16-4.63,5.16-12.64,0-11.75.89-11.4-10.68q.27-10.68,0-21.37c0-7.47-4.8-13.71-11.39-15.13-8.19-1.78-15,1.25-18.34,8.55a13.24,13.24,0,0,0-1.07,5.87c0,9.08,0,18.34.18,27.42,0,4.27-.89,5.34-5,5.34H312.1c-3,0-4.45-1.78-4.45-4.81V68Z"/><path class="cls-1" d="M135,56.26c-.53-17.09,15.49-34.9,36-31.69,10.15,1.6,17.1,7.65,22.44,16,.89,1.43,1.6,2.85,2.49,4.28,1.6,3.2.18,5.34-3.38,5.34a23.5,23.5,0,0,0-3.56,0c-4.63.53-8-.89-11.4-4.28-8.9-8.9-23.32-5.16-26.7,6.59-2,6.94,1.78,14.6,8.9,18.34,5.52,2.85,14.24,1.24,18.16-4.1,2.49-3.56,5.52-5,9.61-4.45a52.84,52.84,0,0,0,5.34,0c3.21,0,4.45,1.78,3.21,4.63-8,19.76-29.2,29.2-48.07,15.67A29.74,29.74,0,0,1,135,56.26Z"/><path class="cls-2" d="M391,100.41c.71,1.43,2,2.67,2,4.1.17,2.31-2,3.2-3.74,2.49-1.25-.53-3.21-2.31-3-3.2.18-1.43,2.14-2.5,3.21-3.74A2.66,2.66,0,0,0,391,100.41Z"/></g></g></svg>