<svg xmlns="http://www.w3.org/2000/svg" viewBox="0 0 128.08 41.16"><defs><style>.cls-1{fill:#fefefe;}.cls-2{fill:#424c50;}.cls-3{fill:#bc7852;}</style></defs><g id="Layer_2" data-name="Layer 2"><g id="Layer_1-2" data-name="Layer 1"><path class="cls-1" d="M91.45,36c-.19.42.36,1-.27,1.41a2.74,2.74,0,0,1-3.08-.78,4.65,4.65,0,0,1,.11-4.35c.92-1.17,2.15-1,3.35-.61.47.16.6,0,.7-.36s.19-.64-.32-.76A6.27,6.27,0,0,0,89,30.49c-2.1.5-2.84,2.41-2.76,4.45.06,1.5.52,2.84,2.12,3.41a5.9,5.9,0,0,0,3.69-.07.61.61,0,0,0,.51-.63c0-.86,0-1.73.07-2.59,0-.28,0-.65-.4-.48s-1-.2-.88.56C91.4,35.41,91.42,35.68,91.45,36Z"/><path class="cls-1" d="M14.59,37c-.13-.43-.2-.69-.28-.94-.49-1.68-1-3.35-1.47-5-.15-.52-.48-.55-.88-.41s-.69.24-.47.75a58.72,58.72,0,0,1,2.26,6.83c.13.45.35.49.71.43a1.22,1.22,0,0,0,.9-.78,57.9,57.9,0,0,0,2.58-6.33c.2-.58.14-.86-.47-1s-.67.29-.77.66A39.68,39.68,0,0,1,14.59,37Z"/><path class="cls-1" d="M117.14,38.66a11.39,11.39,0,0,0,1.56-.35,1.4,1.4,0,0,0,.6-2.5c-.29-.31-.61-.57-.9-.87s-1-.74-.67-1.32.92-.29,1.37-.13.49-.06.6-.37,0-.53-.36-.61a3.38,3.38,0,0,0-1.67-.06,1.4,1.4,0,0,0-.85,2.38c.31.39.72.7,1.07,1.07s.92.62.66,1.23-.8.39-1.26.44h-.18c-.28,0-.72-.17-.71.39S116.63,38.69,117.14,38.66Z"/><path class="cls-1" d="M63.73,30.8c-1.13.28-1.15.28-1.22,1.28,0,.41-.09.69-.6.63-.36,0-.33.28-.37.5a.27.27,0,0,0,.29.35c.9-.09.68.55.63,1a9.28,9.28,0,0,0,0,3.11,1.17,1.17,0,0,0,1.15.94c.42,0,.55-.29.64-.61,0-.14.16-.43-.11-.42-.84,0-.58-.6-.6-1,0-.6,0-1.19,0-1.79s-.12-1.44,1-1.34c.36,0,.29-.3.33-.52s-.16-.39-.38-.33c-.79.21-.84-.21-.75-.81A6,6,0,0,0,63.73,30.8Z"/><path class="cls-1" d="M105,29.55c-.57.24-1.35,0-1.28.89.16,2,0,4,.08,6.06,0,.51,0,1,0,1.52s.24.61.71.45.71,0,.6-.67a22.48,22.48,0,0,1-.19-5.5A11.92,11.92,0,0,0,105,29.55Z"/><path class="cls-1" d="M77.22,34.53c0-.61,0-1,0-1.42s.17-.74-.42-.63c-.4.08-.94,0-.79.76a16.07,16.07,0,0,1,.08,4.54c0,.59.07.69.62.68s.52-.42.52-.78c0-1.58.09-3.11,1.83-3.94a.86.86,0,0,0,.25-1.19c-.32-.42-.66.08-.93.3A6,6,0,0,0,77.22,34.53Z"/><path class="cls-1" d="M21,35.25h.1c0,.89,0,1.78,0,2.67,0,.32,0,.8.57.64.41-.12.93-.16.69-.85a2.54,2.54,0,0,1-.11-.87c0-1.28,0-2.56,0-3.83,0-.2.17-.5-.19-.58a.91.91,0,0,0-1.07,1C21,34,21,34.63,21,35.25Z"/><path class="cls-1" d="M50.26,32.3c-.43.42-1.26-.08-1.26.79,0,1.58,0,3.16.13,4.74,0,.31-.11.88.58.73.52-.12.92-.27.65-1a2.36,2.36,0,0,1-.09-.88C50.26,35.3,50.26,33.87,50.26,32.3Z"/><path class="cls-1" d="M3.47,35.27h.07V38c0,.27,0,.56.41.52s.55-.08.5-.53a30.77,30.77,0,0,1,0-5.08c0-.21.17-.57-.33-.54s-.67.12-.64.63C3.5,33.73,3.47,34.5,3.47,35.27Z"/><path class="cls-1" d="M1,34.81c0-.19.12-.56-.4-.5-.34,0-.67.07-.57.57a20.15,20.15,0,0,1,.11,3c0,.28-.11.65.38.63s.58-.27.52-.71A12,12,0,0,1,1,34.81Z"/><path class="cls-1" d="M49,30.61c.08.32,0,.84.55.8s.89-.49.94-1.08c0-.39-.16-.5-.53-.5S49,29.94,49,30.61Z"/><path class="cls-1" d="M21,30.7c.11.21-.06.77.53.71a1,1,0,0,0,1-1.08c0-.38-.17-.51-.54-.5S21,29.93,21,30.7Z"/><path class="cls-1" d="M.12,32.94c0,.32-.06.66.35.63s.59-.37.67-.72-.2-.4-.44-.39S0,32.53.12,32.94Z"/><path class="cls-2" d="M128.08,36.29c-.43,1.19-1,2.22-2.46,2.32a2.32,2.32,0,0,1-2.49-1.21,3.86,3.86,0,0,1,.22-4.06,2.58,2.58,0,0,1,2.79-.94,2.26,2.26,0,0,1,1.77,1.91c0,.14,0,.3.17.37Zm-4.14-.69a2.6,2.6,0,0,0,.17,1,1.34,1.34,0,0,0,1.35,1.07c.73,0,1.09-.47,1.26-1.16a3.76,3.76,0,0,0-.1-2.18,1.35,1.35,0,0,0-1.37-1c-.7,0-1,.52-1.2,1.13A4.74,4.74,0,0,0,123.94,35.6Z"/><path class="cls-2" d="M35,36.35c-1.19-.21-1.81-.93-1.73-1.94a2.08,2.08,0,0,1,2.18-2,7.11,7.11,0,0,0,2.56,0c.17-.05.4-.05.4.2s0,.67-.4.69c-.69,0-.61.34-.49.86.24,1-.19,1.69-1.32,2.37-.24.15-.65.19-.64.55s.43.43.71.56l.32.16c.78.37,1.51.82,1.46,1.82,0,.76-.73,1.32-1.87,1.51A4.58,4.58,0,0,1,33.75,41a1.18,1.18,0,0,1-.38-2.12.5.5,0,0,1,.64-.14c.27.15.22.33.1.58-.28.59.11.81.6.93a1.19,1.19,0,0,0,.53,0c.53-.11,1.27,0,1.43-.68s-.55-.85-1-1.12l-.47-.25C34.07,37.57,34,37.32,35,36.35Zm-.53-1.73a.88.88,0,0,0,1,1c.77,0,1-.59,1-1.22s-.23-1.2-1-1.17S34.43,33.83,34.42,34.62Z"/><path class="cls-2" d="M42.7,36.35c-1.24-.2-1.84-.93-1.72-2a2,2,0,0,1,2.21-2,6.62,6.62,0,0,0,2.47,0c.16-.05.4-.08.42.17s0,.68-.38.7c-.66.05-.63.31-.5.85.25,1-.19,1.72-1.31,2.39-.26.16-.7.21-.64.63s.42.37.69.48l.33.16c.78.37,1.51.81,1.46,1.81,0,.76-.71,1.32-1.86,1.52a4.52,4.52,0,0,1-2.47-.14,1.1,1.1,0,0,1-.8-1,1.47,1.47,0,0,1,.57-1.16.45.45,0,0,1,.57-.09c.27.15.24.33.12.58-.3.6.1.82.58.93a1.75,1.75,0,0,0,.72,0c.5-.12,1.19-.1,1.3-.75s-.56-.75-1-1l-.55-.29C41.77,37.52,41.74,37.36,42.7,36.35Zm-.55-1.73c-.06.58.29,1,1,1s1-.58,1-1.22-.24-1.2-1-1.17S42.16,33.82,42.15,34.62Z"/><path class="cls-2" d="M91.45,36c0-.32,0-.59-.08-.86-.09-.76.57-.43.88-.56s.41.2.4.48c0,.86-.05,1.73-.07,2.59a.61.61,0,0,1-.51.63,5.9,5.9,0,0,1-3.69.07c-1.6-.57-2.06-1.91-2.12-3.41-.08-2,.66-3.95,2.76-4.45a6.27,6.27,0,0,1,2.92.06c.51.12.4.45.32.76s-.23.52-.7.36c-1.2-.42-2.43-.56-3.35.61a4.65,4.65,0,0,0-.11,4.35,2.74,2.74,0,0,0,3.08.78C91.81,37,91.26,36.42,91.45,36Z"/><path class="cls-2" d="M14.59,37A39.68,39.68,0,0,0,16.7,31.1c.1-.37.09-.87.77-.66s.67.47.47,1a57.9,57.9,0,0,1-2.58,6.33,1.22,1.22,0,0,1-.9.78c-.36.06-.58,0-.71-.43a58.72,58.72,0,0,0-2.26-6.83c-.22-.51.14-.63.47-.75s.73-.11.88.41c.47,1.68,1,3.35,1.47,5C14.39,36.28,14.46,36.54,14.59,37Z"/><path class="cls-2" d="M95.55,35.5c0-2.44,1.78-3.82,3.82-3l.16.07c1.24.63,1.75,2.86,1,4.48a2.7,2.7,0,0,1-3.47,1.34C96.05,38.05,95.55,37.09,95.55,35.5Zm1.24-.08A3.55,3.55,0,0,0,97,36.68a1.35,1.35,0,0,0,1.45,1,1.21,1.21,0,0,0,1.12-1.19,6.53,6.53,0,0,0,.08-1.16c-.07-1.31-.68-2.09-1.54-2S96.79,34,96.79,35.42Z"/><path class="cls-2" d="M73.09,35.45c0,2.35-1.66,3.69-3.68,3-1.18-.39-1.48-1.36-1.66-2.41a3.28,3.28,0,0,1,1.59-3.49C71.37,31.68,73.09,33,73.09,35.45Zm-1.26,0a2.61,2.61,0,0,0-.19-1.23,1.38,1.38,0,0,0-1.33-1c-.69,0-1,.48-1.21,1.11A3.61,3.61,0,0,0,69,35.58c0,1.31.67,2.12,1.59,2.07S71.83,36.91,71.83,35.48Z"/><path class="cls-2" d="M108.14,35.57c0-2.11,1-3.28,2.91-3.22a2.28,2.28,0,0,1,2.23,1.71,4.67,4.67,0,0,1,0,2.72,2.59,2.59,0,0,1-2.91,1.82,2.51,2.51,0,0,1-2.23-2.49A4.86,4.86,0,0,1,108.14,35.57Zm1.25-.15c0,.18,0,.36,0,.54a1.62,1.62,0,0,0,1.39,1.69c.76.05,1.21-.42,1.42-1.5a3.51,3.51,0,0,0,.06-.79c-.07-1.31-.72-2.16-1.58-2.12S109.36,34,109.39,35.42Z"/><path class="cls-2" d="M28.69,37.65a5.72,5.72,0,0,1-.49.44,1.7,1.7,0,0,1-2.06.27,2,2,0,0,1-.81-2,1,1,0,0,1,.82-.94c.6-.17,1.2-.34,1.79-.54.36-.11.64-.31.6-.76s-.36-.65-.79-.68L27,33.33c-.23,0-.53,0-.49-.34s.08-.56.47-.65a2,2,0,0,1,2.63,2.32c0,.56,0,1.13,0,1.69a1.17,1.17,0,0,0,.53,1.07c.29.18.59.29.28.71a.6.6,0,0,1-1,.13Zm-.22-2.13c-.5.15-1,.28-1.45.44-.66.21-.65.71-.45,1.22s.69.52,1.12.32C28.54,37.11,28.67,36.4,28.47,35.52Z"/><path class="cls-2" d="M56.81,37.61c-.47.27-.8.71-1.35.88a1.49,1.49,0,0,1-2-1.07c-.4-1.13-.11-1.79.92-2.12.56-.17,1.14-.32,1.7-.52a.63.63,0,0,0,.48-.75.7.7,0,0,0-.65-.62l-.8-.08c-.25,0-.59.07-.54-.38s.13-.55.52-.61a2,2,0,0,1,2.56,2.12c0,.63,0,1.25,0,1.88a1.13,1.13,0,0,0,.58,1.13c.28.15.45.28.24.6s-.42.5-.81.33A2.94,2.94,0,0,1,56.81,37.61Zm-.3-2.14c-.52.17-1,.33-1.42.46s-.62.28-.65.64a1,1,0,0,0,.4.94.93.93,0,0,0,1-.09A1.69,1.69,0,0,0,56.51,35.47Z"/><path class="cls-2" d="M117.14,38.66c-.51,0-.73-.23-.74-.7s.43-.34.71-.39h.18c.46,0,1,.09,1.26-.44s-.33-.88-.66-1.23-.76-.68-1.07-1.07a1.4,1.4,0,0,1,.85-2.38,3.38,3.38,0,0,1,1.67.06c.38.08.51.23.36.61s-.15.53-.6.37-1.09-.4-1.37.13.31,1,.67,1.32.61.56.9.87a1.4,1.4,0,0,1-.6,2.5A11.39,11.39,0,0,1,117.14,38.66Z"/><path class="cls-2" d="M63.73,30.8a6,6,0,0,1,0,1c-.09.6,0,1,.75.81.22-.06.43,0,.38.33s0,.55-.33.52c-1.1-.1-1,.65-1,1.34s0,1.19,0,1.79c0,.42-.24,1,.6,1,.27,0,.15.28.11.42-.09.32-.22.66-.64.61a1.17,1.17,0,0,1-1.15-.94,9.28,9.28,0,0,1,0-3.11c0-.44.27-1.08-.63-1a.27.27,0,0,1-.29-.35c0-.22,0-.54.37-.5.51.06.58-.22.6-.63C62.58,31.08,62.6,31.08,63.73,30.8Z"/><path class="cls-2" d="M105,29.55A11.92,11.92,0,0,1,105,32.3a22.48,22.48,0,0,0,.19,5.5c.11.68-.26.55-.6.67s-.69,0-.71-.45,0-1,0-1.52c0-2,.08-4-.08-6.06C103.67,29.51,104.45,29.79,105,29.55Z"/><path class="cls-2" d="M77.22,34.53a6,6,0,0,1,1.15-1.68c.27-.22.61-.72.93-.3a.86.86,0,0,1-.25,1.19c-1.74.83-1.8,2.36-1.83,3.94,0,.36.15.77-.52.78s-.67-.09-.62-.68A16.07,16.07,0,0,0,76,33.24c-.15-.73.39-.68.79-.76.59-.11.39.38.42.63S77.22,33.92,77.22,34.53Z"/><path class="cls-2" d="M21,35.25c0-.62,0-1.24,0-1.87a.91.91,0,0,1,1.07-1c.36.08.19.38.19.58,0,1.27,0,2.55,0,3.83a2.54,2.54,0,0,0,.11.87c.24.69-.28.73-.69.85-.59.16-.56-.32-.57-.64,0-.89,0-1.78,0-2.67Z"/><path class="cls-2" d="M50.26,32.3c0,1.57,0,3,0,4.43a2.36,2.36,0,0,0,.09.88c.27.68-.13.83-.65,1-.69.15-.57-.42-.58-.73-.08-1.58-.12-3.16-.13-4.74C49,32.22,49.83,32.72,50.26,32.3Z"/><path class="cls-2" d="M3.47,35.27c0-.77,0-1.54,0-2.31,0-.51.23-.6.64-.63s.34.33.33.54a30.77,30.77,0,0,0,0,5.08c0,.45-.17.5-.5.53s-.41-.25-.41-.52V35.27Z"/><path class="cls-2" d="M1,34.81a12,12,0,0,0,0,3c.06.44-.06.69-.52.71s-.37-.35-.38-.63a20.15,20.15,0,0,0-.11-3c-.1-.5.23-.53.57-.57C1.11,34.25,1,34.62,1,34.81Z"/><path class="cls-2" d="M49,30.61c0-.67.44-.77,1-.78s.57.11.53.5c0,.59-.33,1-.94,1.08S49.1,30.93,49,30.61Z"/><path class="cls-2" d="M21,30.7c0-.77.44-.85,1-.87s.55.12.54.5a1,1,0,0,1-1,1.08C20.91,31.47,21.08,30.91,21,30.7Z"/><path class="cls-2" d="M.12,32.94c-.09-.41.25-.47.58-.48s.51,0,.44.39-.26.68-.67.72S.14,33.26.12,32.94Z"/><path class="cls-3" d="M74.52,0c0,.87.06,1.73.06,2.6,0,5.81,0,11.63,0,17.45,0,.79-.21,1-1,1-6.43,0-12.87,0-19.3,0-.27,0-.53,0-.8-.06,0-6.76,0-13.53,0-20.29,0-.56.13-.69.69-.69C61,0,67.74,0,74.52,0Zm-7.07,7.1c.69,0,1.31-.36,2-.29a12.1,12.1,0,0,1,2,.51c.61.16.69-.45.81-.85s.28-1-.36-1.21c-2-.62-4.89-.64-6.48,1.3a6.77,6.77,0,0,0-1.17,5.77,4.11,4.11,0,0,0,3.86,3.74,9.06,9.06,0,0,0,3.73-.36,1.07,1.07,0,0,0,.87-1.17c0-1.11,0-2.21,0-3.32,0-.46.06-.9-.66-.87-1.24.05-1.57.23-1.52,1s.1,1.43.17,2.14c0,.29,0,.51-.3.65a2.86,2.86,0,0,1-3.83-1.92,9.54,9.54,0,0,1-.18-1.41,7.18,7.18,0,0,1,.52-3,4.7,4.7,0,0,0-.79,4c.32,2.27,2,3.31,4.26,2.72.46-.12.74-.35.69-.88-.07-.68-.08-1.37-.19-2-.13-.84.44-.73.94-.81.66-.1.54.34.54.72,0,.54,0,1.08,0,1.62,0,2.39,0,2.42-2.43,2.69-3.17.34-5.09-1-5.44-3.91a10.13,10.13,0,0,1,0-2.06c.24-2.31,1.4-3.81,3.3-4.33a7.6,7.6,0,0,1,3.64,0c.66.14.61.48.49,1s-.41.58-.91.38A3.51,3.51,0,0,0,67.45,7.11ZM59.3,12.55c-.08-.28-.16-.56-.25-.84q-.88-3-1.78-6c-.25-.84-.86-.6-1.38-.38s-1.16.25-.83,1.07a76.79,76.79,0,0,1,2.92,9,.85.85,0,0,0,1.05.71,1.63,1.63,0,0,0,1.4-1,64.81,64.81,0,0,0,3.48-8.71c.24-.8,0-1.11-.9-1.35-.71-.19-1.08,0-1.27.78A29.2,29.2,0,0,1,59.3,12.55Z"/><path class="cls-1" d="M66.35,8.73c1-2.67,3.45-2.38,4.66-1.9.5.2.76.2.91-.38s.17-.83-.49-1a7.6,7.6,0,0,0-3.64,0c-1.9.52-3.06,2-3.3,4.33a10.13,10.13,0,0,0,0,2.06c.35,2.89,2.27,4.25,5.44,3.91,2.4-.27,2.43-.3,2.43-2.69,0-.54,0-1.08,0-1.62,0-.38.12-.82-.54-.72-.5.08-1.07,0-.94.81.11.67.12,1.36.19,2,0,.53-.23.76-.69.88-2.23.59-3.94-.45-4.26-2.72A4.87,4.87,0,0,1,66.75,8c.06-.07.11-.15.18-.22,0,.11.5-.2.43-.11a4.68,4.68,0,0,0-1,3.11,9.54,9.54,0,0,0,.18,1.41,2.86,2.86,0,0,0,3.83,1.92c.34-.14.33-.36.3-.65-.07-.71-.13-1.42-.17-2.14s.28-.92,1.52-1c.72,0,.66.41.66.87,0,1.11,0,2.21,0,3.32a1.07,1.07,0,0,1-.87,1.17,9.06,9.06,0,0,1-3.73.36,4.11,4.11,0,0,1-3.86-3.74,6.77,6.77,0,0,1,1.17-5.77C67,4.63,69.93,4.65,71.9,5.27c.64.2.49.75.36,1.21s-.2,1-.81.85a12.1,12.1,0,0,0-2-.51,2.88,2.88,0,0,0-2.52,1.32C66.88,8.23,66.17,8.94,66.35,8.73Z"/><path class="cls-1" d="M59.3,12.55a29.2,29.2,0,0,0,2.44-6.66c.19-.8.56-1,1.27-.78.93.24,1.14.55.9,1.35a64.81,64.81,0,0,1-3.48,8.71,1.63,1.63,0,0,1-1.4,1A.85.85,0,0,1,58,15.41a76.79,76.79,0,0,0-2.92-9c-.33-.82.38-.89.83-1.07s1.13-.46,1.38.38q.9,3,1.78,6C59.14,12,59.22,12.27,59.3,12.55Zm.09,1.06c-.41-.35-.38-.8-.5-1.18Q57.94,9.27,57,6.08c-.19-.69-.59-.61-1.09-.43s-.71.37-.46,1a74,74,0,0,1,2.71,8.23c.1.35,0,.92.63.92a1.3,1.3,0,0,0,1.3-.77,72.25,72.25,0,0,0,3.46-8.63c.22-.68-.16-.78-.59-.92s-.78-.16-.91.47a29.55,29.55,0,0,1-.85,2.92A39.64,39.64,0,0,1,59.39,13.61Z"/><path class="cls-3" d="M59.39,13.61a39.64,39.64,0,0,0,1.85-4.76,29.55,29.55,0,0,0,.85-2.92c.13-.63.48-.6.91-.47s.81.24.59.92A72.25,72.25,0,0,1,60.13,15a1.3,1.3,0,0,1-1.3.77c-.64,0-.53-.57-.63-.92a74,74,0,0,0-2.71-8.23c-.25-.61,0-.81.46-1s.9-.26,1.09.43q.9,3.18,1.85,6.35C59,12.81,59,13.26,59.39,13.61Z"/></g></g></svg>