<svg xmlns="http://www.w3.org/2000/svg" viewBox="0 0 465.07 95.52"><defs><style>.cls-1{fill:#fab415;}.cls-2{fill:#231f20;}</style></defs><g id="Layer_2" data-name="Layer 2"><g id="Layer_1-2" data-name="Layer 1"><path class="cls-1" d="M188.19,26.59a3.13,3.13,0,0,0,1.52.51,7.76,7.76,0,0,0,4.06-1.45,11.45,11.45,0,0,0,1.36-1.1A7.49,7.49,0,0,0,197,21.93a4.9,4.9,0,0,0,.35-3.56,3.1,3.1,0,0,0-.45-.89c-1-1.28-2.62-1.15-3.88-.77a10.37,10.37,0,0,0-2.48,1.22,8.53,8.53,0,0,0-3.32,4.13,5.45,5.45,0,0,0-.23,1.28c.07,1.17-.22,2.17,1.18,3.25"/><path class="cls-1" d="M177.57,76.48a8.13,8.13,0,0,1,.25-1.11c.11-.37.24-.72.53-1.45s.76-1.81,1.27-2.88a40,40,0,0,1,2-3.66c.93-1.54,2.25-3.56,3.65-5.53s2.88-3.88,4.12-5.43,2.26-2.74,3.27-3.92,2-2.36,3-3.4,1.74-1.89,2.59-2.73,1.73-1.66,2.46-2.29a27,27,0,0,1,3.7-2.81c.63-.4,1.27-.76,1.74-1a7.27,7.27,0,0,1,2.05-.8c1-.18,1.77-.45,2.71.51.88,1.28.49,2.24.17,3.52a24.78,24.78,0,0,1-2.56,5.07c-.31.51-.61,1-1.17,1.88a70.54,70.54,0,0,1-4.89,6.78l-8.62,11.46c-.26.36-.54.7-.82,1s-.58.66-1.08,1.18-1.19,1.24-1.89,2a29.89,29.89,0,0,1-5.54,4.81c-2.07,1.21-4.12,2.56-6.33,1.9-.83-.55-.64-1.29-.68-2a8.49,8.49,0,0,1,.12-1.13M133,71.86c-.72.86-1.46,1.7-2.08,2.38a28,28,0,0,1-3.21,3.14A17.19,17.19,0,0,1,125,79.26a6.2,6.2,0,0,1-4.16.86,1.86,1.86,0,0,1-1-.88c-.62-1.24,0-2.59.41-3.89a37.49,37.49,0,0,1,1.88-3.54Q144,44.42,165.83,17.07l-10.42.05L116.15,68.9c-.65.86-1.33,1.71-2,2.54s-1.41,1.64-2,2.32a36.56,36.56,0,0,1-3.44,3.29,18.24,18.24,0,0,1-3,2.14c-1.48.66-2.89,1.2-4.61.47a2.94,2.94,0,0,1-.78-3.43,18.13,18.13,0,0,1,3.45-5.73l26.1-33.07-9.77,0L99.87,65.14c-2.7,3.87-4.49,7.6-4.17,11.51a10.09,10.09,0,0,0,.35,1.72,5.87,5.87,0,0,0,4.4,3.89c4.28.74,8.55-1.26,13.08-6.4.6-.7,1.21-1.39,1.83-2.08-.35,2.15-1,4.2.42,6.54a5.6,5.6,0,0,0,3.6,2.2c2.74.66,5.71-.3,8.61-2.66a46.61,46.61,0,0,0,6.93-6.62,12,12,0,0,0-.29,2.86c0,.47.05,1,.09,1.29a7.91,7.91,0,0,0,.31,1.34,5.35,5.35,0,0,0,1,1.84,5,5,0,0,0,2.56,1.57,8.6,8.6,0,0,0,5.16-.23,15.54,15.54,0,0,0,5.44-3.34,66.53,66.53,0,0,0,4.8-5.24c-.35,2.31-1.14,4.45.4,7a4.73,4.73,0,0,0,1.09,1.14,6.78,6.78,0,0,0,5.15,1c1.92-.33,4.48-1.74,7-3.57A28.65,28.65,0,0,0,169.83,77a30.28,30.28,0,0,0,3.31-3.53,10.36,10.36,0,0,0,1.14,7.17,3.52,3.52,0,0,0,1.39,1.28,6.69,6.69,0,0,0,3.09.65A14.46,14.46,0,0,0,185.49,80,66.44,66.44,0,0,0,192,74.05c-.39,2.31-1,4.63,1,7.19a4.58,4.58,0,0,0,3.72,1.38A9.93,9.93,0,0,0,202,81a19,19,0,0,0,2.84-2.31c.65-.6,1.25-1.24,1.68-1.72.84-.91,1.2-1.36,1.75-2l25.44-31.08A21,21,0,0,1,236,41.49a10.39,10.39,0,0,1,2.85-2c1-.38,2-.82,3.26.24s.77,2.54.49,3.85c-.62,2.1-2.6,4.19-4.07,6.2Q225.59,66,212.68,82.17l9.85,0L245.59,51.5a76.87,76.87,0,0,1,6.55-7.15,33.37,33.37,0,0,1,6.24-5,3.31,3.31,0,0,1,1.69-.44,2.07,2.07,0,0,1,1.64.63,2.14,2.14,0,0,1,.46,1.29,8.67,8.67,0,0,1-1.2,3.85,43.5,43.5,0,0,1-2.6,3.86L231.7,82.11l9.43.11q12.28-16,24.56-32c.3-.37.91-1.07,1.54-1.83a45.18,45.18,0,0,1,4.15-4.74,20.21,20.21,0,0,1,2.73-2.21c1.27-.75,2.52-1.49,3.84-1.34a1.69,1.69,0,0,1,1.33.63,2,2,0,0,1,.3,1,5.76,5.76,0,0,1-.2,1.55,7.71,7.71,0,0,1-.4,1.14,21.31,21.31,0,0,1-2,3.17c-3.21,4.21-6.56,8.31-9.85,12.47-.32.4-.62.82-.92,1.24s-.59.84-1,1.49-1,1.54-1.49,2.45-1,1.84-1.36,2.58a23.67,23.67,0,0,0-1.55,3.61,10.46,10.46,0,0,0-.09,7.2,5.76,5.76,0,0,0,.9,1.4,8.15,8.15,0,0,0,5.06,2.4,12.37,12.37,0,0,0,1.84.09,8.23,8.23,0,0,0,2-.27,9.23,9.23,0,0,0,1.12-.38,23.89,23.89,0,0,0,4.22-2.19,30.59,30.59,0,0,0,6.42-5.86,37.38,37.38,0,0,0,2.27-3c1-1.39,2.29-3.36,3.53-5.38a69.85,69.85,0,0,0,8.13-18.31c.57-2.09,1-4.22,1.32-5.75s.41-2.49.52-3.44a35.86,35.86,0,0,0,.12-8.6,25.59,25.59,0,0,0-1.83-7.14,20.88,20.88,0,0,0-.94-1.95,15.12,15.12,0,0,0-2-2.88A14.86,14.86,0,0,0,292.12,16a24.63,24.63,0,0,0-2-1.62A17.58,17.58,0,0,0,280,11a25.06,25.06,0,0,0-9.2,1.68A28.33,28.33,0,0,0,268,14a17.42,17.42,0,0,0-1.71,1.05,12.15,12.15,0,0,0-3.45,3.4c-1.58,2.69-2.54,5.88-1.55,9.09a6,6,0,0,0,1,1.79,8.56,8.56,0,0,0,1.31,1.28,4.65,4.65,0,0,0,1.39.77,13,13,0,0,0,3,.57,8.67,8.67,0,0,0,4.06-.52,6.84,6.84,0,0,0,1.6-.9,17.36,17.36,0,0,0,2.49-2.17,13.31,13.31,0,0,0,2.08-3,13.91,13.91,0,0,0,1.22-3.47l-.48-.24a17.75,17.75,0,0,1-2.64,4.15,11.72,11.72,0,0,1-4.05,2.91,15.54,15.54,0,0,1-2.16.72,7.21,7.21,0,0,1-2.37.26,4.26,4.26,0,0,1-2.42-.74,2.65,2.65,0,0,1-.64-.6,6.18,6.18,0,0,1-1.32-2.69,8.87,8.87,0,0,1,2.1-7,13.09,13.09,0,0,1,1.71-1.7,12.74,12.74,0,0,1,2.08-1.42,20.25,20.25,0,0,1,13.35-1.86,15.39,15.39,0,0,1,6.64,3.22,13.48,13.48,0,0,1,1.21,1.18,12.41,12.41,0,0,1,1.15,1.52,22.29,22.29,0,0,1,2.52,5.34,26.46,26.46,0,0,1,1,5.36c.07.8.11,1.59.12,2.6a52.77,52.77,0,0,1-.34,7c-.15,1.2-.33,2.4-.62,3.81a71.8,71.8,0,0,1-2.72,9.46c-.57,1.59-1.19,3.15-2,5s-1.88,3.86-3,5.86-2.39,3.93-3.3,5.28-1.47,2.12-2.06,2.87-1.19,1.48-1.77,2.13a20,20,0,0,1-5.53,4.38,10,10,0,0,1-3.95,1.16,10.43,10.43,0,0,1-1.88,0,3.3,3.3,0,0,1-1.14-.29c-1.86-1.06-1.62-2.8-1.21-4.25a10.34,10.34,0,0,1,1.1-2.18c.27-.43.55-.85,1.81-2.55s3.53-4.66,5.72-7.67a88.85,88.85,0,0,0,8-12.76A27,27,0,0,0,283.68,47c.83-2.58,1.22-5.16-.48-7.94A4.36,4.36,0,0,0,281,37.6a7,7,0,0,0-4.65.18A17.85,17.85,0,0,0,273.78,39c-.57.32-1.13.68-1.68,1a38.64,38.64,0,0,0-4.26,3.52c-.87.81-1.7,1.65-2.5,2.51a19.55,19.55,0,0,0,.48-3.22c0-.54.06-1.08.06-1.49a5.54,5.54,0,0,0-.49-2.61,3.83,3.83,0,0,0-.48-.73,4.06,4.06,0,0,0-1.28-1,5.57,5.57,0,0,0-1.81-.43c-2.08-.22-4.25.82-6.39,2a34.6,34.6,0,0,0-7.08,5.89c-.72.75-1.42,1.53-2.11,2.31a15.14,15.14,0,0,0,.67-6.19,6.26,6.26,0,0,0-1.22-2.7c-2.45-2.33-5.3-1.66-8.09-.34a15,15,0,0,0-3.76,2.82C224.12,52,214.7,63.79,204.94,75.49a13.8,13.8,0,0,1-1.84,2,10,10,0,0,1-1.53,1.12,3.76,3.76,0,0,1-2.74.59,2.31,2.31,0,0,1-1.11-.54,2.9,2.9,0,0,1-.38-2.77,11.56,11.56,0,0,1,.91-2.34c.26-.52.48-1,.73-1.42.09-.14.19-.28,4.73-6.09s13.53-17.31,22.51-28.8l-7.57.12-1.52,0-3.23,4.15a3.37,3.37,0,0,0-1-3.56,5.09,5.09,0,0,0-2.86-1.17,8.85,8.85,0,0,0-.92,0,24.17,24.17,0,0,0-4.49.7,22.25,22.25,0,0,0-2.7.92,43.63,43.63,0,0,0-8.42,4.44,47.48,47.48,0,0,0-8.47,7.53,57.56,57.56,0,0,0-4,5c-1.25,1.73-2.39,3.53-3.2,4.88s-1.31,2.25-1.79,3.16a61,61,0,0,1-4.5,7.86c-.58.81-1.19,1.6-1.8,2.32a24.43,24.43,0,0,1-3.92,3.76c-.72.54-1.47,1-2,1.38a6.41,6.41,0,0,1-2.64,1,8.35,8.35,0,0,1-1.17.05,3.18,3.18,0,0,1-1.53-.41,1.46,1.46,0,0,1-.56-.55,3.9,3.9,0,0,1-.06-2.46,21.87,21.87,0,0,1,3.51-5.9l26.08-33h-9.24C169.64,48.68,161.13,60,152.51,71.39c-.2.23-.39.45-.77.86l-1.46,1.59c-.54.59-1.09,1.18-1.57,1.68a17,17,0,0,1-5.1,3.82,5.08,5.08,0,0,1-3.76.06,6.12,6.12,0,0,1-.61-.34,1.11,1.11,0,0,1-.5-.74,4.07,4.07,0,0,1-.12-1.35,12.5,12.5,0,0,1,2.59-5.55q22.06-27.29,44-54.51H174.44L135.12,69.25c-.67.89-1.38,1.76-2.1,2.61"/><path class="cls-1" d="M12.69,62a29.34,29.34,0,0,1,.13-5.39c.14-1.13.34-2.54.63-3.93a44.07,44.07,0,0,1,4.13-11.5,51,51,0,0,1,3.82-6.3c.68-.95,1.35-1.8,2.06-2.61a36.68,36.68,0,0,1,6.81-6,35.49,35.49,0,0,1,6-3.38,16.55,16.55,0,0,1,3.06-1,11.38,11.38,0,0,1,3.13-.19c-1.37.91-2.71,1.88-4,2.9s-2.55,2.1-3.5,3S33.33,29,32.67,29.64s-1.33,1.28-2.05,2-1.5,1.59-2.24,2.46-1.45,1.78-2.11,2.72a41,41,0,0,0-2.93,4.69,27.14,27.14,0,0,0-1.38,3,25.44,25.44,0,0,0-1.08,4.3c-.12.64-.22,1.29-.3,1.82a14.07,14.07,0,0,0,0,4.12c.08.57.2,1.27.35,2A31.08,31.08,0,0,0,22,60.68c.18.48.3.79.44,1.08a10.79,10.79,0,0,0,.95,1.72A13.65,13.65,0,0,1,21,64.61c-2.71.86-5.44,1.25-8-.08-.13-.84-.22-1.69-.28-2.54M43.94,26.64a41.91,41.91,0,0,1,5-2.61,5,5,0,0,1,2.13,1.46,6.88,6.88,0,0,1,1.19,2.26c1.43,5.62.29,11.57-1.48,16.59a41,41,0,0,1-5.54,11.35,43.51,43.51,0,0,1-2.75,3.47A21.11,21.11,0,0,1,40.76,61a13.72,13.72,0,0,1-8,3.89,8.09,8.09,0,0,1-4.93-.75l3.81-3.56a35.36,35.36,0,0,0,3.3-4,48.18,48.18,0,0,0,2.58-4.11c.68-1.19,1.14-2.1,1.57-3A44.87,44.87,0,0,0,41.21,44c.22-.72.33-1.19.44-1.68A3.54,3.54,0,0,0,41.81,41a.43.43,0,0,0-.55-.35,36.54,36.54,0,0,1-4,8.73,43.76,43.76,0,0,1-7.34,9.72,22.87,22.87,0,0,1-2.32,2.06,14,14,0,0,1-1.94,1.2,13.45,13.45,0,0,1-1.77-4c-1-4.06-.15-8,1.47-11.79a26.31,26.31,0,0,1,2.85-5.1c.72-1,1.67-2.33,2.7-3.57a44,44,0,0,1,3.25-3.57c1.18-1.09,2.35-2.19,3.59-3.22a55.84,55.84,0,0,1,6.18-4.47M48.35,93c-1.57,0-3.13,0-5.2-.06A40.09,40.09,0,0,1,36,92a27.28,27.28,0,0,1-7.14-2.8A34.77,34.77,0,0,1,23.07,85a25.1,25.1,0,0,1-3.34-3.56,31.89,31.89,0,0,1-2.41-3.57c-.72-1.24-1.34-2.54-1.8-3.55a29.44,29.44,0,0,1-1.73-4.71c-.2-.76-.38-1.52-.52-2.29a17.1,17.1,0,0,0,10.52-1.21,3.5,3.5,0,0,0,.62-.41.74.74,0,0,1,.84-.23c.46.16,1.17.68,1.93,1.06a8.5,8.5,0,0,0,2.39.79,12,12,0,0,0,5.49-.26,12.23,12.23,0,0,0,1.76-.6A24.6,24.6,0,0,0,39.71,65,20.22,20.22,0,0,0,42.61,63a23.46,23.46,0,0,0,2.52-2.56,41.72,41.72,0,0,0,4.27-6.13c.62-1.09,1.2-2.19,1.77-3.42a51.94,51.94,0,0,0,3-8.07c.39-1.4.72-2.82,1-4a30.14,30.14,0,0,0,.6-5.92,22.88,22.88,0,0,0-.1-2.7,9.5,9.5,0,0,0-2.11-5.34,5.84,5.84,0,0,0-2-1.75,44.64,44.64,0,0,1,8.33-3.14c1.43-.38,2.88-.68,4-.89a32.58,32.58,0,0,1,5.41-.56c3.4,0,6.73.05,10.25,2.05-1,.74-2,1.49-3,2.3a46.16,46.16,0,0,0-5.35,5.39,51.38,51.38,0,0,0-5.18,7.21c-.77,1.27-1.48,2.57-3.29,6.2s-4.72,9.59-6.45,13.13-2.26,4.68-2.79,5.81c-1.11,2.36-2.27,5-3.66,7.85-.73,1.45-1.5,2.89-2,3.85s-.84,1.44-1.14,1.91a15.77,15.77,0,0,1-2.88,3.65,11.83,11.83,0,0,1-1.18.9,15.09,15.09,0,0,0-5.69-.28,5.13,5.13,0,0,0-1.25.48,7.77,7.77,0,0,0-1,.69,1.64,1.64,0,0,0-.68,1.55,1.81,1.81,0,0,0,.77,1.34,11.77,11.77,0,0,0,2.7.77,11.17,11.17,0,0,0,2.81-.21l2.28-1c1-.48,1.26-.62,1.83-.9a13.72,13.72,0,0,0,5.47-.31,20,20,0,0,0,6.81-3.56,30.55,30.55,0,0,0,3.5-3.17c.51-.54,1-1.09,1.82-2.07s2-2.38,3-3.81,2.14-2.91,2.91-4,1.27-1.93,1.76-2.72,1-1.6,2.25-3.76,3.33-5.68,4.9-8.3,2.61-4.37,3.7-6.08,2.22-3.4,3-4.57S84.74,37,85.22,36.3s1-1.3,1.35-1.8a13.17,13.17,0,0,1,1.93-2,11.6,11.6,0,0,1,1-.81c-.36.89-1.19,1.75-1.48,2.6-.32.67-.64,1.33-1,2s-.63,1.33-1.52,3.43-2.33,5.63-3.29,7.95-1.38,3.41-1.83,4.5-.9,2.18-1.2,2.89c-.56,1.33-.71,1.62-1,2.36-1.57,3.36-3.09,6.69-4.7,10.06l-.72,1.36c-.63,1.16-1.66,3.08-2.57,4.66a27.23,27.23,0,0,1-4.34,5.8,14.85,14.85,0,0,0-5.35-.31,10,10,0,0,0-1.17.29,3.73,3.73,0,0,0-1.29.72,2.07,2.07,0,0,0-.67.8,2.09,2.09,0,0,0,1.21,2.08,4.59,4.59,0,0,0,1.09.43,3.59,3.59,0,0,0,.84.11,8.59,8.59,0,0,0,3.87-.61,13.73,13.73,0,0,1,1.81-.85,1.94,1.94,0,0,1,1.56.21c.51.07,1,.13,1.52.17a13.59,13.59,0,0,0,8-1.91,26.49,26.49,0,0,0,4.08-3c.64-.58,1.25-1.18,2.4-2.42s2.83-3.12,4.47-5.05,3.21-3.9,6.65-8.41,8.75-11.58,12.62-16.68,6.29-8.21,8.8-11.27,5.1-6.06,6.84-8,2.62-2.87,3.53-3.76,1.85-1.75,2.6-2.41a30.22,30.22,0,0,1,3.67-2.8c.61-.4,1.23-.77,2.08-1.25a48.26,48.26,0,0,1,6.49-3.06c1.15-.44,2.33-.83,3.2-1.09a22.48,22.48,0,0,1,3.76-.8c.57-.08,1.16-.13,1.94-.18s1.77-.06,2.75,0,2,.07,2.77.14a21.38,21.38,0,0,1,3.78.67,28,28,0,0,1,4,1.5c1.37.63,2.63,1.35,3.79,2,.54.32,1.08.64,1.49.9a14.21,14.21,0,0,1,1.83,1.31c.17-.1.33-.2.06-.6a16.54,16.54,0,0,0-1.7-1.8,25.84,25.84,0,0,0-7-4.74,21.79,21.79,0,0,0-2.86-1.18,26.76,26.76,0,0,0-8.51-1.46c-6.74,0-13.58,2.5-20.34,6.86-1.2.77-2.36,1.58-3.5,2.42A45,45,0,0,0,123,19.43c-1.67,1.55-3.9,3.75-6,6.07s-4.11,4.74-6.37,7.65-4.8,6.3-7.23,9.77c-3.6,5.15-7.25,10.29-10.8,15.47-1.18,1.68-2.37,3.36-3.32,4.68s-1.66,2.3-2.38,3.26A80.24,80.24,0,0,1,81.37,73c-1.14,1.24-2.34,2.44-3.2,3.27a24.19,24.19,0,0,1-2,1.71c-2.65,1.83-5.38,3.32-8.21,2.38a35,35,0,0,0,3.88-3.2c.61-.57,1.19-1.17,2-2.06s1.86-2.07,2.89-3.27,2-2.42,2.78-3.37,1.26-1.64,1.74-2.34.93-1.43,1.57-2.59,1.48-2.75,2.27-4.36,1.54-3.25,2.37-5.1,1.71-3.93,2.58-6,1.69-4.19,2.37-5.94c1.31-3.38,2.22-5.79,3.4-8.62l3.93-9.36c.35-.82.74-1.63,1.15-2.42s.87-1.56,1.19-2.1a16,16,0,0,1,1.4-2.06c.32-.44.86-.85,1-1.27,0-.14-.19-.43-.39-.45a3,3,0,0,0-.66.13A12.9,12.9,0,0,0,100,17.65a61.71,61.71,0,0,0-9.85,8.41,60,60,0,0,0-5.56,6.75c-.84,1.19-1.64,2.41-2.28,3.44s-1.16,1.86-1.65,2.69-1,1.67-2.37,4.09-3.66,6.42-5.52,9.62-3.3,5.57-4.81,7.9-3.1,4.62-4.27,6.25-1.93,2.6-2.72,3.54-1.6,1.87-2.39,2.68A25.06,25.06,0,0,1,50.18,79a13.92,13.92,0,0,1-3.24.7,3.66,3.66,0,0,1-1.34-.06,47.9,47.9,0,0,0,6.11-5.85A58,58,0,0,0,57.1,66.2c.77-1.25,1.46-2.44,3.21-5.79s4.58-8.85,6.22-12.06,2.1-4.13,2.58-5,1-1.82,1.71-3.12,1.72-3,2.68-4.7,1.92-3.43,2.7-4.84,1.42-2.49,2.09-3.56,1.36-2.13,1.87-2.86a20,20,0,0,1,2.18-2.78c.75,0,1.5-.08,2.25-.17s1.49-.2,2-.29A14.44,14.44,0,0,0,89,20.4,8.84,8.84,0,0,0,92,18.74c1.35-1.16,1.57-2,.74-3.14A2,2,0,0,0,91.57,15a8,8,0,0,0-2.56.16,17.38,17.38,0,0,0-5,2.23q-.91.59-1.77,1.26a24.5,24.5,0,0,0-3.68-2.2,16.29,16.29,0,0,0-2.36-1,40.32,40.32,0,0,0-4.1-1.17C66.28,13,60,13.7,54,15.62c-1.43.48-2.85,1-3.91,1.45a22.89,22.89,0,0,0-4.42,2.32A10.52,10.52,0,0,0,43.11,19a15.65,15.65,0,0,0-3.8.42c-4,.82-7.84,3-11.77,5.89a40.14,40.14,0,0,0-5.14,4.28,32.92,32.92,0,0,0-2.57,2.84c-.81,1-1.56,2-2.15,2.9a37.52,37.52,0,0,0-2.59,4.45c-.36.72-.69,1.42-1,2.12s-.65,1.41-1.08,2.4a43.52,43.52,0,0,0-2.48,7.56,36.19,36.19,0,0,0-.81,10.89,10.49,10.49,0,0,1-2-1.58,9.27,9.27,0,0,1-.94-1.09A17.36,17.36,0,0,1,4.6,56.28,21.65,21.65,0,0,1,3.35,46a25.42,25.42,0,0,1,.8-3.92A32.43,32.43,0,0,1,7,35.45a40.68,40.68,0,0,1,4-5.75,36.43,36.43,0,0,1,2.72-3A97.68,97.68,0,0,1,23.81,18.1,60.07,60.07,0,0,1,34,11.87c1.78-.85,3.6-1.61,5.8-2.41a146,146,0,0,1,15.3-4.52A87.63,87.63,0,0,1,73.12,3,68.67,68.67,0,0,1,90.85,5.34c1.77.48,3.51,1,5,1.55s2.6.94,3.74,1.39A50.92,50.92,0,0,1,112,14.89l.58-.59q-2.29-1.86-4.76-3.48a58.76,58.76,0,0,0-5.08-3,59.8,59.8,0,0,0-5.46-2.54A68.7,68.7,0,0,0,84.59,1.48C82.4,1.06,80.18.74,78.2.53S74.44.2,72.68.12,69.14,0,66.93,0A88.78,88.78,0,0,0,51.58,1.43C49,1.91,46.39,2.51,44,3.19s-4.64,1.42-6.84,2.26-4.35,1.77-6.46,2.8-4.19,2.14-6,3.22-3.43,2.12-5,3.24-3,2.3-4.18,3.29a39.1,39.1,0,0,0-5,5.13C9.75,24,9.07,24.91,8.34,26A53.13,53.13,0,0,0,2.46,36.73,36.58,36.58,0,0,0,0,47.76,21.08,21.08,0,0,0,2,58.07,18.35,18.35,0,0,0,4,61.16a18,18,0,0,0,5.91,5,41.29,41.29,0,0,0,5.47,14.23A25,25,0,0,0,18,83.86a37.86,37.86,0,0,0,4.7,4.43A31.42,31.42,0,0,0,28.58,92a41.43,41.43,0,0,0,5.85,2.22,22,22,0,0,0,3.33.77,43.72,43.72,0,0,0,5.52.5c.95,0,1.9,0,3.38,0s3.51,0,6.05,0,5.59.06,8.64.06L465,95.18h0c0-.74,0-1.49,0-2.23Q256.71,93,48.35,93"/><path class="cls-1" d="M134.93,27.1A7.67,7.67,0,0,0,139,25.65a11.45,11.45,0,0,0,1.36-1.1,7.62,7.62,0,0,0,1.89-2.62,4.9,4.9,0,0,0,.35-3.56,3.1,3.1,0,0,0-.45-.89c-1-1.28-2.63-1.15-3.88-.78a10.93,10.93,0,0,0-2.48,1.23,8.41,8.41,0,0,0-3.32,4.13,5,5,0,0,0-.23,1.27c.07,1.18-.23,2.18,1.17,3.26a3.28,3.28,0,0,0,1.53.51"/><path class="cls-2" d="M384.32,11.71h-20.2v70.5h20.2Zm9,70.51h34.08V60.46l-13.49,0,0-48.72H393.28ZM355.72,11.65l-20.54,0,.05,24.81-9.21.06V11.69H305.39V82.23l20.74,0,0-28,9.18,0v28h20.43Zm74.9,70.62H465l0-21.91-13.89,0V11.75H430.62Z"/></g></g></svg>