<svg xmlns="http://www.w3.org/2000/svg" width="69.759" height="24.888" viewBox="0 0 69.759 24.888">
  <g id="wind-logo-svg-vector" transform="translate(-52.506 -52.123)">
    <path id="Path_157" data-name="Path 157" d="M86.295,73.922a25.022,25.022,0,0,0,5.449.546,32.765,32.765,0,0,0,5.813-.546,35.415,35.415,0,0,0,6.177-2.179,22.065,22.065,0,0,0,5.631-3.814q3.27-2.725,5.451-4.907c1.452-1.451,2.542-2.542,3.45-3.45q1.09-1.362,1.635-2.181l.364-.727,1.09-1.27.545-1.089a2.59,2.59,0,0,0,.364-1.091,1,1,0,0,0-.545-.908v-.182l-.545.182a2.424,2.424,0,0,0-1.272.545c-.545.364-1.454,1.272-2.362,2l-3.269,3.271c-.908.908-2.18,1.816-3.452,3.086q-2.18,1.637-4.361,3.271a47.454,47.454,0,0,1-5.086,3.088A32.435,32.435,0,0,1,96.1,69.746a18.838,18.838,0,0,1-5.449.726,12.623,12.623,0,0,1-5.087-1.453l-.726-.181c-.726-.365-1.272-.546-2-.908L80.118,67.2a16.012,16.012,0,0,0-2.906-.364A6.367,6.367,0,0,0,71.944,69.2l-.362.546a4.9,4.9,0,0,1-.908,1.089,5.63,5.63,0,0,1-1.636,1.27c-.545.182-1.089.366-1.816.547a3.484,3.484,0,0,1-2.179-.727,5.567,5.567,0,0,1-2.18-2.362L55.594,60.48,54.5,59.208a1.669,1.669,0,0,0-.908-.545c-.363-.183-.726,0-.726.364a4.231,4.231,0,0,0-.363,2l2,4A19.91,19.91,0,0,0,56.865,69.2a40.238,40.238,0,0,0,3.451,4.9,10.492,10.492,0,0,0,2.725,2.361,8.224,8.224,0,0,0,2.907.546,6.413,6.413,0,0,0,2.544-.546,20.04,20.04,0,0,0,2-1.089l1.453-1.089.545-.548.363-.544a4.832,4.832,0,0,0,1.09-.908,20.224,20.224,0,0,1,2-1.091,6.026,6.026,0,0,1,2.543,0,7.511,7.511,0,0,1,3.452,1.091,15.468,15.468,0,0,0,4.36,1.635Z" fill="#565f83" fill-rule="evenodd"/>
    <path id="Path_158" data-name="Path 158" d="M78.8,65.933h.545l1.272-.362a5.729,5.729,0,0,0,1.635-.547c.364-.362.908-.726,1.272-1.089a3.663,3.663,0,0,0,.545-2V61.39A2.6,2.6,0,0,0,83.7,60.3a2.327,2.327,0,0,0-1.273-.908,5.451,5.451,0,0,0-2.725-.361,7.089,7.089,0,0,0-2.543.725,2.612,2.612,0,0,0-1.273,1.091,1.79,1.79,0,0,0-.363,1.089v1.089a2.3,2.3,0,0,0,.181,1.089,3.074,3.074,0,0,0,1.09,1.091,4.167,4.167,0,0,0,2,.726Z" transform="translate(-6.674 -2.003)" fill="#db8137" fill-rule="evenodd"/>
  </g>
</svg>
