<svg xmlns="http://www.w3.org/2000/svg" xmlns:xlink="http://www.w3.org/1999/xlink" viewBox="0 0 136.8 36.9"><defs><style>.cls-1{fill:#30973a;}.cls-2{fill:url(#radial-gradient);}.cls-3{fill:url(#radial-gradient-2);}.cls-4{fill:url(#radial-gradient-3);}.cls-5{fill:url(#radial-gradient-4);}</style><radialGradient id="radial-gradient" cx="490.9" cy="393.52" r="12.1" gradientTransform="translate(-462 -373.28)" gradientUnits="userSpaceOnUse"><stop offset="0" stop-color="#f8e548"/><stop offset="0.5" stop-color="#fdd931"/><stop offset="0.68" stop-color="#c18021"/><stop offset="0.84" stop-color="#923614"/><stop offset="0.86" stop-color="#8d3616"/><stop offset="0.89" stop-color="#80351a"/><stop offset="0.92" stop-color="#6b321b"/><stop offset="0.94" stop-color="#4f2d1d"/><stop offset="0.97" stop-color="#2d241b"/><stop offset="0.99" stop-color="#1b1c18"/></radialGradient><radialGradient id="radial-gradient-2" cx="487.03" cy="389.8" r="3.15" gradientTransform="translate(-462 -373.28)" gradientUnits="userSpaceOnUse"><stop offset="0.4" stop-color="#fff" stop-opacity="0.65"/><stop offset="0.48" stop-color="#fbf9f9" stop-opacity="0.57"/><stop offset="0.55" stop-color="#eee" stop-opacity="0.49"/><stop offset="0.63" stop-color="#dddcdc" stop-opacity="0.41"/><stop offset="0.7" stop-color="#c4c2c2" stop-opacity="0.32"/><stop offset="0.78" stop-color="#a4a2a2" stop-opacity="0.24"/><stop offset="0.85" stop-color="#7d7c7b" stop-opacity="0.16"/><stop offset="0.93" stop-color="#504d4b" stop-opacity="0.08"/><stop offset="1" stop-opacity="0"/></radialGradient><radialGradient id="radial-gradient-3" cx="515.73" cy="393.52" r="12.11" xlink:href="#radial-gradient"/><radialGradient id="radial-gradient-4" cx="511.88" cy="389.8" r="3.15" xlink:href="#radial-gradient-2"/></defs><g id="Layer_2" data-name="Layer 2"><g id="Layer_1-2" data-name="Layer 1"><path class="cls-1" d="M67.5,22.6V9c0-.5,0-.5.5-.5h5.2c.5,0,.6,0,.5.6a15.48,15.48,0,0,0-.1,2.2.76.76,0,0,0,.2.4c.1-.1.3-.2.3-.3a4.08,4.08,0,0,1,3.8-2.9,11.4,11.4,0,0,1,4.5.2,5.55,5.55,0,0,1,4.2,4.7,15,15,0,0,1,.2,2.2v6a11.49,11.49,0,0,1-.7,3.6,5.15,5.15,0,0,1-3.8,3.2,11.37,11.37,0,0,1-4.5.1,4.17,4.17,0,0,1-3.3-2.7c0-.1-.1-.2-.1-.3a.31.31,0,0,0-.2-.1c-.1,0-.1.1-.1.2V36.4c0,.4-.1.5-.5.5H68.3c-.3,0-.5-.1-.5-.4-.3-4.8-.2-9.3-.3-13.9Zm13-4.1c-.1-1.2-.1-2-.1-2.8a2.25,2.25,0,0,0-2.1-2.4,10.44,10.44,0,0,0-2.5,0A2.13,2.13,0,0,0,74,14.9a8.75,8.75,0,0,0-.2,1.6,24.62,24.62,0,0,0,.1,4.7,2.46,2.46,0,0,0,2.2,2.3,7.39,7.39,0,0,0,2.1,0,2.25,2.25,0,0,0,2.1-2c.1-1.2.1-2.3.2-3ZM121,22.1h2.7c.1,0,.3.1.3.2.1,1.4,1,1.9,2.2,2,1,0,2.1,0,3.1-.1s1.2-.5,1.3-1.5a2.77,2.77,0,0,0-.1-.9,1.28,1.28,0,0,0-1-1c-.4-.1-.7-.1-1.1-.2-1.3,0-2.6,0-3.8-.1a15.14,15.14,0,0,1-3.7-.7,4.06,4.06,0,0,1-2.9-3.5,10.27,10.27,0,0,1,.2-3.9,4.56,4.56,0,0,1,3.9-3.7,19.53,19.53,0,0,1,3.4-.3,29.44,29.44,0,0,1,4.2,0,10.35,10.35,0,0,1,4.2,1,4.09,4.09,0,0,1,1.9,3.3v1.1a.27.27,0,0,1-.3.3h-5.2c-.1,0-.3-.1-.3-.2a1.7,1.7,0,0,0-1.7-1.4c-1.1,0-2.2,0-3.3.1a.94.94,0,0,0-.9,1.1c0,1.2,0,1.7,1.7,2,.7.1,1.4.1,2.1.2a34.08,34.08,0,0,1,5.5.5,4.06,4.06,0,0,1,3.3,3.9,10.22,10.22,0,0,1-.1,3.5,5.24,5.24,0,0,1-4.1,4.1,13.52,13.52,0,0,1-2.9.4c-1.6.1-3.3.1-4.9.1a9.46,9.46,0,0,1-3.3-.5,4.76,4.76,0,0,1-3.3-3.9c-.1-.4-.1-.9-.2-1.4s.1-.5.5-.5a11.29,11.29,0,0,0,2.6,0Zm-5.3-3.7v9.3c0,.5,0,.5-.5.5h-5.1c-.4,0-.5-.1-.4-.5a14.77,14.77,0,0,0,.1-2.1c0-.3.1-.6.1-.8a.76.76,0,0,0-.2-.4c-.1.1-.3.2-.3.3a6.11,6.11,0,0,1-1.3,2.2,5,5,0,0,1-2.8,1.4,9.84,9.84,0,0,1-4.5-.3,5,5,0,0,1-3.4-4.2,16.35,16.35,0,0,1-.2-2.2V9.1c0-.4.1-.5.5-.5h5.1c.6,0,.6,0,.6.6V20.6a9.85,9.85,0,0,0,.2,1.7,1.66,1.66,0,0,0,1.8,1.3,4.13,4.13,0,0,0,2.2-.4,2.62,2.62,0,0,0,1.7-2.7V9.1c0-.6,0-.6.5-.6H115c.4,0,.5.1.5.5.2,3.1.2,6.3.2,9.4ZM7.4,23.7H16c.4,0,.5.1.5.5v3.6c0,.3-.1.4-.4.4H.4c-.3,0-.4-.1-.4-.4V23.3a1.07,1.07,0,0,1,.2-.6l6-6.6c.9-.9,1.7-1.9,2.5-2.8a.77.77,0,0,0,.2-.3H1c-.3,0-.5-.1-.5-.4V9c0-.3.1-.4.4-.4h15c.3,0,.4.1.4.4v4.3a1.07,1.07,0,0,1-.2.6c-2.8,3.1-5.7,6.2-8.5,9.3,0,.1-.2.3-.2.5Zm81.5-9.6V.5c0-.5,0-.5.5-.5h5.3c.3,0,.4.1.4.4V27.7c0,.3-.1.4-.4.4H89.4c-.3,0-.4-.1-.4-.4-.1-4.5-.1-9-.1-13.6Z"/><circle class="cls-2" cx="28.9" cy="20.2" r="12.1"/><circle cx="28.9" cy="20.2" r="6.4"/><ellipse class="cls-3" cx="25" cy="16.5" rx="3.2" ry="3.1"/><circle class="cls-4" cx="53.7" cy="20.2" r="12.1"/><circle cx="53.7" cy="20.2" r="6.4"/><ellipse class="cls-5" cx="49.9" cy="16.5" rx="3.2" ry="3.1"/></g></g></svg>