<svg xmlns="http://www.w3.org/2000/svg" width="26.546" height="26.54" viewBox="0 0 26.546 26.54">
  <g id="admAZZ" transform="translate(0 -0.315)">
    <path id="Path_196" data-name="Path 196" d="M271.825,309.367l-.644.645-1.618,1.618,5.818,5.818a2.743,2.743,0,0,0,3.878,0l.323-.323Zm0,0" transform="translate(-254.161 -291.395)" fill="#005ece"/>
    <path id="Path_197" data-name="Path 197" d="M309.16,272.029l7.757,7.757.323-.323a2.743,2.743,0,0,0,0-3.878l-5.818-5.818-1.618,1.618Zm0,0" transform="translate(-291.497 -254.056)" fill="#006df0"/>
    <path id="Path_198" data-name="Path 198" d="M4.367,15.207l-.644.645,1.613,3.556,2.134.2,6.271,6.266.645-.645Zm0,0" transform="translate(-3.51 -14.041)" fill="#a1a1a1"/>
    <path id="Path_199" data-name="Path 199" d="M25.664,13.945,19.4,7.673l-.2-2.134L15.645,3.925,15,4.57,25.019,14.589Zm0,0" transform="translate(-14.143 -3.404)" fill="#bcbcbc"/>
    <path id="Path_200" data-name="Path 200" d="M269.566,259.133l.644-.645,2.262,2.262-.644.645Zm0,0" transform="translate(-254.165 -243.423)" fill="#bcbcbc"/>
    <path id="Path_201" data-name="Path 201" d="M258.285,270.414l.645-.644,2.262,2.262-.645.645Zm0,0" transform="translate(-243.528 -254.06)" fill="#a1a1a1"/>
    <path id="Path_202" data-name="Path 202" d="M309.16,298.726l.645-.645h0l-.645.645Zm0,0" transform="translate(-291.497 -280.754)" fill="#78b9eb"/>
    <path id="Path_203" data-name="Path 203" d="M297.879,310.008l.645-.644h0l-.644.645Zm0,0" transform="translate(-280.86 -291.392)" fill="#78b9eb"/>
    <path id="Path_204" data-name="Path 204" d="M44.455,74.725l-3.446,3.442L38.1,77.2,19.68,95.621l.322.322a2.748,2.748,0,0,0,3.881,0L36.772,83.053a6.4,6.4,0,0,0,7.683-8.328Zm0,0" transform="translate(-18.556 -70.159)" fill="#ffbb60"/>
    <path id="Path_205" data-name="Path 205" d="M22.019.686a6.4,6.4,0,0,0-8.328,7.683L.8,21.259a2.748,2.748,0,0,0,0,3.881l.322.32L13.138,13.447l6.408-6.408-.969-2.907Zm0,0" transform="translate(0 0)" fill="#ffaf46"/>
  </g>
</svg>
