<svg id="calendar_1_" data-name="calendar (1)" xmlns="http://www.w3.org/2000/svg" width="26.5" height="26.5" viewBox="0 0 26.5 26.5">
  <path id="Path_194" data-name="Path 194" d="M45.021,40.192,42.507,43.8l-1.774-1.456a.449.449,0,1,0-.57.694l2.15,1.765a.448.448,0,0,0,.285.1.41.41,0,0,0,.062,0,.45.45,0,0,0,.307-.188l2.791-4.01a.449.449,0,0,0-.738-.513Z" transform="translate(-22.034 -22.033)" fill="#32424e"/>
  <path id="Path_195" data-name="Path 195" d="M23.356,15.486V2.246a.449.449,0,0,0-.449-.449H20.661V.449A.449.449,0,0,0,20.212,0H17.068a.449.449,0,0,0-.449.449V1.8H6.737V.449A.449.449,0,0,0,6.288,0H3.144a.449.449,0,0,0-.449.449V1.8H.449A.449.449,0,0,0,0,2.246V25.153a.449.449,0,0,0,.449.449H17.564a5.833,5.833,0,1,0,5.792-10.115ZM17.517.9h2.246V3.593H17.517V.9ZM3.593.9H5.839V3.593H3.593V.9ZM.9,2.695h1.8V4.042a.449.449,0,0,0,.449.449H6.288a.449.449,0,0,0,.449-.449V2.695h9.881V4.042a.449.449,0,0,0,.449.449h3.144a.449.449,0,0,0,.449-.449V2.695h1.8V6.288H.9ZM.9,24.7V7.186H22.458v7.921c-.088-.028-.178-.051-.268-.076s-.166-.045-.25-.065-.153-.032-.23-.046c-.11-.02-.22-.037-.33-.051-.062-.008-.123-.016-.185-.022-.177-.016-.355-.027-.534-.027-.152,0-.3.011-.449.023V9.432H3.144V22.458H15.108c.013.04.029.078.043.117.038.109.075.219.119.325.025.06.054.117.081.175.052.114.1.228.163.338.026.048.055.094.083.142.066.116.134.231.208.343.027.041.057.08.086.12.079.112.16.224.247.331.032.04.067.076.1.115.07.081.136.163.21.241H.9Zm17.208-9.285c-.049.023-.1.045-.146.07-.084.044-.166.093-.248.141s-.143.084-.212.129-.139.093-.208.141-.153.112-.228.171-.12.094-.178.144c-.079.066-.154.137-.229.208-.052.049-.105.1-.155.146-.081.083-.158.17-.234.258-.032.037-.068.071-.1.11V14.373h3.144v.612l-.022.006A5.8,5.8,0,0,0,18.107,15.419Zm-3.029,3.535c-.016.052-.026.1-.04.157-.036.13-.073.261-.1.395-.021.1-.033.21-.048.315-.012.085-.029.168-.038.255-.019.194-.03.389-.03.586,0,.162.009.326.024.49,0,.03,0,.061.006.091.007.073.022.143.031.215h0c0,.034.007.068.012.1H12.127V18.415h3.144v0c0,.011-.007.022-.012.033C15.192,18.615,15.131,18.783,15.078,18.954ZM4.042,18.415H7.186v3.144H4.042Zm0-4.042H7.186v3.144H4.042Zm15.271-.9H16.169V10.331h3.144Zm-4.042,0H12.127V10.331h3.144Zm0,4.042H12.127V14.373h3.144ZM8.085,14.373h3.144v3.144H8.085Zm3.144-.9H8.085V10.331h3.144Zm-4.042,0H4.042V10.331H7.186Zm.9,4.941h3.144v3.144H8.085ZM20.661,25.6a4.91,4.91,0,0,1-2.743-.835,4.968,4.968,0,0,1-.437-.331c-.049-.041-.094-.085-.141-.128-.088-.08-.174-.163-.256-.249-.053-.055-.1-.111-.153-.168-.074-.085-.143-.172-.21-.262-.043-.057-.088-.112-.128-.171a5.008,5.008,0,0,1-.276-.446c-.019-.036-.035-.074-.053-.11-.066-.128-.127-.259-.181-.393-.023-.058-.044-.118-.065-.177-.042-.118-.081-.237-.115-.358-.008-.028-.014-.056-.022-.084a5.142,5.142,0,0,1-.115-.589c0-.014,0-.028-.006-.042a4.672,4.672,0,0,1-.04-.6,4.869,4.869,0,0,1,.026-.507c0-.014,0-.027.006-.041.017-.153.04-.306.071-.456,0-.014.008-.028.011-.043.032-.149.071-.3.117-.444.005-.017.013-.034.018-.051.046-.14.1-.279.157-.416s.116-.255.182-.377l.044-.077c.018-.032.039-.063.058-.095q.117-.2.25-.382c.022-.031.045-.061.068-.091q.121-.16.255-.309c.031-.035.062-.07.094-.1.088-.093.181-.182.275-.268.034-.031.066-.062.1-.092.111-.1.227-.185.346-.269l.056-.042a4.91,4.91,0,0,1,1.982-.8h.009a4.9,4.9,0,0,1,.814-.073,4.79,4.79,0,0,1,.521.028c.027,0,.053.009.08.012.147.018.294.04.439.072l.053.013c.155.035.308.077.459.128l.031.011q.232.079.459.182A4.937,4.937,0,0,1,20.661,25.6Z" fill="#32424e"/>
</svg>
