<?xml version="1.0" encoding="UTF-8"?> <svg xmlns="http://www.w3.org/2000/svg" viewBox="0 0 398.88 113.88"><defs><style>.cls-1,.cls-2{fill:#fff;}.cls-1,.cls-3{opacity:0.3;}.cls-4{fill:#009640;}.cls-5{fill:#e30613;}</style></defs><title>sirpay-footer</title><g id="Layer_2" data-name="Layer 2"><g id="Livello_1" data-name="Livello 1"><path class="cls-1" d="M96.11,75.73H77.2V17.28a21,21,0,0,0-.64-5.85,15.87,15.87,0,0,0-1.5-3.71,7.64,7.64,0,0,0-2.15-2.44l0-2.57H96.11Z"></path><path class="cls-1" d="M110.91,75.73V17.28c0-4.79-.85-9.21-4.29-12l0-2.57h38.2c9.26,0,17.58,2.17,24.16,7.41,13.6,11,9.31,30.42-6.26,37l16.6,28.59H160.43l-14.61-25.1h-16v25.1Zm18.91-37.14h15c7,.3,13.35-5,13.18-12.05.07-7-6.17-12.08-13.15-11.79h-15Z"></path><path class="cls-1" d="M192.08,17.28c0-4.78-.87-9.21-4.3-12l0-2.57c2.78.25,5.94.41,9.41.45h26.3c12.06,0,22.93,2,29.26,9.34,7,8.29,7,23.35,0,31.63-10,11.47-28,9.74-41.75,9.79V75.73H192.08ZM226,41.87c17.92,0,17.48-27.12,0-27.12H211V41.87Z"></path><path class="cls-1" d="M327.72,5.28l0-2.57h21.43L365,25.58,380.81,2.71h18.07L374.46,38l0,37.69h-18.9V39.22L340.35,17.28a43.83,43.83,0,0,0-4.72-5.87,46.4,46.4,0,0,0-4-3.69A21.14,21.14,0,0,0,327.72,5.28Z"></path><polygon class="cls-2" points="254.77 75.73 273.63 75.73 280.56 60.43 261.68 60.43 254.77 75.73"></polygon><polygon class="cls-1" points="313.08 2.71 292.56 2.71 322.67 75.73 343.2 75.73 313.08 2.71"></polygon><g class="cls-3"><path class="cls-2" d="M13,53.24c4.3,6.66,11.05,10,20.35,10,8.26,0,12.09-3.49,12.09-7.53,0-2.84-1.74-4.8-4.42-6.33a28.57,28.57,0,0,0-7-2.84c-2-.76-6.63-2.18-8.95-3C12.44,39.17,5.46,33,5.46,21.49a18.3,18.3,0,0,1,7.79-15.6Q21.11,0,32.44,0c11.74,0,20.7,4.15,27,12.44L47.44,21C44.18,17,39.3,15.06,32.91,15.06c-5.94,0-9.77,2.61-9.77,6.21a5.47,5.47,0,0,0,3.14,5.46c1.28.65,2.56,1.2,3.6,1.64l5.81,1.85c2.68.87,5,1.64,7,2.4,14.77,5.24,20.7,11.67,20.7,22.58,0,14.08-10.23,23.24-30.12,23.24C16.86,78.44,5.46,71.57,0,61.64Z"></path></g><path class="cls-4" d="M246.72,72.69c2.54,2.07,4.33,2.61,8.05,3l6.91-15.3c-8.48,0-15.81-.56-20.56-7.15a42.35,42.35,0,0,0,.68,11.59A15.33,15.33,0,0,0,246.72,72.69Z"></path><path class="cls-5" d="M297.45,64.89c-6.37-4-9.31-4.46-16.89-4.46l-6.93,15.3c7.33-.11,11.74,2.15,16.3,5.81Z"></path><path class="cls-1" d="M289.49,2.71H282.6l-.25,2.57a4.26,4.26,0,0,1,1,2.44,12,12,0,0,1-.19,3.71,25.12,25.12,0,0,1-2,5.85L263,57.59h18.88l15.84-35Z"></path><g class="cls-3"><path class="cls-2" d="M0,103.48a9.71,9.71,0,0,1,2.93-7.2,10,10,0,0,1,7.19-2.9,9.86,9.86,0,0,1,7.17,2.9,10.29,10.29,0,0,1,0,14.42,9.84,9.84,0,0,1-7.17,2.87,10,10,0,0,1-7.19-2.87A9.77,9.77,0,0,1,0,103.48Zm2.15,0a8,8,0,0,0,2.26,5.8,7.73,7.73,0,0,0,5.71,2.28,7.63,7.63,0,0,0,5.69-2.28,8.55,8.55,0,0,0,0-11.58,7.65,7.65,0,0,0-5.69-2.31A7.76,7.76,0,0,0,4.41,97.7,7.91,7.91,0,0,0,2.15,103.48Z"></path><path class="cls-2" d="M29.71,113.18V93.05l13.63,15.39V93.74h2.18v20.14L31.88,98.48v14.7Z"></path><path class="cls-2" d="M56.23,113.18V93.74h11v2H58.41v6.16h8.28v2H58.41v7.25h9v2Z"></path><path class="cls-2" d="M109.64,96.67,108.16,98a7.4,7.4,0,0,0-5.94-2.62,7.68,7.68,0,0,0-5.69,2.31,8.57,8.57,0,0,0,0,11.58,7.66,7.66,0,0,0,5.69,2.28,7.47,7.47,0,0,0,6-2.73l1.47,1.34a9.48,9.48,0,0,1-7.5,3.4A10,10,0,0,1,95,110.7a10.34,10.34,0,0,1,0-14.42,10,10,0,0,1,7.19-2.9A9.48,9.48,0,0,1,109.64,96.67Z"></path><path class="cls-2" d="M118.77,113.18V93.74h2.17v17.43h8v2Z"></path><path class="cls-2" d="M138.29,113.18V93.74h2.17v19.44Z"></path><path class="cls-2" d="M167.57,96.67,166.09,98a7.4,7.4,0,0,0-5.93-2.62,7.65,7.65,0,0,0-5.69,2.31,8.55,8.55,0,0,0,0,11.58,7.63,7.63,0,0,0,5.69,2.28,7.46,7.46,0,0,0,6-2.73l1.48,1.34a9.51,9.51,0,0,1-7.5,3.4,10,10,0,0,1-7.2-2.87,10.34,10.34,0,0,1,0-14.42,10,10,0,0,1,7.2-2.9A9.48,9.48,0,0,1,167.57,96.67Z"></path><path class="cls-2" d="M176.7,113.18V93.74h2.17v10.32l9.34-10.32h2.68l-7.75,8.48,8,11h-2.62l-6.8-9.37-2.82,3.07v6.3Z"></path><path class="cls-2" d="M216.05,108.05c1,2.34,2.6,3.51,4.88,3.51,1.65,0,2.82-.56,3.29-1.36a3.76,3.76,0,0,0,.62-2.07,3,3,0,0,0-1-2.42,14.11,14.11,0,0,0-3.37-1.9,14.58,14.58,0,0,1-3.88-2.31,4.32,4.32,0,0,1-1.23-3.29,4.49,4.49,0,0,1,1.51-3.46,5.44,5.44,0,0,1,3.82-1.37,5.55,5.55,0,0,1,5.24,3.1l-1.86.94a3.61,3.61,0,0,0-3.41-2,2.9,2.9,0,0,0-3.12,2.76,2.57,2.57,0,0,0,1.14,2.34c.48.31.84.56,1.15.73l1.67.75a13.45,13.45,0,0,1,4.21,2.59A4.7,4.7,0,0,1,227,108.1,5.22,5.22,0,0,1,225.4,112a6.19,6.19,0,0,1-4.49,1.53,6.74,6.74,0,0,1-6.72-4.66Z"></path><path class="cls-2" d="M236.53,113.18V93.74h11v2H238.7v6.16H247v2H238.7v7.25h9v2Z"></path><path class="cls-2" d="M257.42,113.18V93.74h6.63a5.67,5.67,0,0,1,4.13,1.68,5.46,5.46,0,0,1,1.7,4.12,5.8,5.8,0,0,1-3.71,5.53l4.69,8.11h-2.48l-4.38-7.7h-4.41v7.7Zm2.17-9.7h4.24a3.66,3.66,0,0,0,2.76-1.12,3.75,3.75,0,0,0,1.12-2.82A3.68,3.68,0,0,0,264,95.75h-4.38Z"></path><path class="cls-2" d="M286.12,113.88l-8.37-20.14h2.34l6,14.62,6-14.62h2.34Z"></path><path class="cls-2" d="M303.72,113.18V93.74h2.17v19.44Z"></path><path class="cls-2" d="M333,96.67,331.52,98a7.4,7.4,0,0,0-5.93-2.62,7.65,7.65,0,0,0-5.69,2.31,8.55,8.55,0,0,0,0,11.58,7.63,7.63,0,0,0,5.69,2.28,7.46,7.46,0,0,0,6-2.73l1.48,1.34a9.51,9.51,0,0,1-7.5,3.4,10,10,0,0,1-7.2-2.87,10.34,10.34,0,0,1,0-14.42,10,10,0,0,1,7.2-2.9A9.48,9.48,0,0,1,333,96.67Z"></path><path class="cls-2" d="M342.13,113.18V93.74h11v2H344.3v6.16h8.28v2H344.3v7.25h9v2Z"></path><path class="cls-2" d="M363.46,108.05c1,2.34,2.6,3.51,4.88,3.51,1.65,0,2.82-.56,3.29-1.36a3.76,3.76,0,0,0,.62-2.07,3,3,0,0,0-1-2.42,14.11,14.11,0,0,0-3.37-1.9A14.58,14.58,0,0,1,364,101.5a4.32,4.32,0,0,1-1.22-3.29,4.48,4.48,0,0,1,1.5-3.46,5.44,5.44,0,0,1,3.82-1.37,5.55,5.55,0,0,1,5.24,3.1l-1.86.94a3.61,3.61,0,0,0-3.41-2A2.9,2.9,0,0,0,365,98.15a2.57,2.57,0,0,0,1.14,2.34c.48.31.84.56,1.15.73l1.67.75a13.45,13.45,0,0,1,4.21,2.59,4.7,4.7,0,0,1,1.28,3.54,5.22,5.22,0,0,1-1.61,3.94,6.19,6.19,0,0,1-4.49,1.53,6.74,6.74,0,0,1-6.72-4.66Z"></path></g></g></g></svg> 