<svg xmlns="http://www.w3.org/2000/svg" xmlns:xlink="http://www.w3.org/1999/xlink" width="185" height="101" viewBox="0 0 185 101">
  <defs>
    <clipPath id="clip-path">
      <rect id="Rectangle_3" data-name="Rectangle 3" width="185" height="101" rx="4" transform="translate(651 613)" fill="#fff"/>
    </clipPath>
  </defs>
  <g id="Mask_Group_2" data-name="Mask Group 2" transform="translate(-651 -613)" opacity="0.15" clip-path="url(#clip-path)">
    <g id="employee" transform="translate(703.553 617.317)">
      <g id="empl">
        <g id="employe" transform="translate(83.447)">
          <path id="empl-2" data-name="empl" d="M120.621,45.678a.826.826,0,0,0-.826.826v7.764a.457.457,0,0,1-.456.456H114.9V38.462a.826.826,0,1,0-1.652,0V54.725h-8.939l2.592-2.852a1.481,1.481,0,0,0,.357-1.188c0-.008,0-.017,0-.025l-2.469-14.586.665-1a1.873,1.873,0,0,0,1.182.513,1.446,1.446,0,0,0,1.294-.8h0l2.6-5.219,5.932,2.3a5.722,5.722,0,0,1,3.331,5.2V42.65a.826.826,0,1,0,1.652,0V37.064a7.37,7.37,0,0,0-4.359-6.731l-.016-.006L107.2,26.5V24.188a7.738,7.738,0,0,0,2.928-5.09,3.575,3.575,0,0,0,2.1-.857,3.506,3.506,0,0,0,.366-4.947V10.235a10.235,10.235,0,1,0-20.47,0v3.139a3.316,3.316,0,0,0-.851,2.21,3.5,3.5,0,0,0,1.218,2.657,3.573,3.573,0,0,0,2.1.856,7.656,7.656,0,0,0,3.1,5.213V26.5l-9.863,3.824-.016.006a7.37,7.37,0,0,0-4.359,6.731v17.2a2.11,2.11,0,0,0,2.108,2.108h7.868a.826.826,0,1,0,0-1.652H91.646V38.462a.826.826,0,1,0-1.652,0V54.725h-4.44a.457.457,0,0,1-.456-.456v-17.2a5.722,5.722,0,0,1,3.33-5.2l5.928-2.3,2.6,5.219a1.446,1.446,0,0,0,1.294.8,1.871,1.871,0,0,0,1.182-.513l.665,1L97.634,50.66c0,.008,0,.017,0,.025a1.481,1.481,0,0,0,.357,1.188l2.592,2.852h-3.3a.826.826,0,0,0,0,1.652h22.062a2.11,2.11,0,0,0,2.108-2.108V46.5A.826.826,0,0,0,120.621,45.678ZM108.985,28.967l-2.428,4.866-2.92-2.074,3-3.7ZM104.1,34.116l-.63.948h-2.059l-.63-.948,1.659-1.179ZM99.335,26.77V25.225a8.379,8.379,0,0,0,3.123.592,7.753,7.753,0,0,0,3.089-.644v1.6l-3.1,3.83Zm12.458-11.185a1.85,1.85,0,0,1-.643,1.4,1.923,1.923,0,0,1-.954.439V13.742A1.868,1.868,0,0,1,111.793,15.585ZM94.52,17.428a1.866,1.866,0,0,1-1.6-1.843,1.961,1.961,0,0,1,1.6-1.8Zm.044-5.327a4.083,4.083,0,0,0-.789.178V10.235a8.583,8.583,0,1,1,17.166,0v1.987a3.671,3.671,0,0,0-.745-.144c0-.8.007-.643-2.6-3.446a1.469,1.469,0,0,0-1.876-.229A15.922,15.922,0,0,1,96.1,10.994,1.468,1.468,0,0,0,94.564,12.1Zm1.607,5.978V12.655a17.648,17.648,0,0,0,10.322-2.784c1.2,1.284,1.843,1.957,2.052,2.213v5.994a6.188,6.188,0,0,1-12.373,0Zm2.16,15.754L95.9,28.967l2.345-.908,3,3.7Zm.947,17.006,2.39-14.123h1.549l2.39,14.123-3.165,3.482Z" transform="translate(-83.447)"/>
        </g>
      </g>
    </g>
  </g>
</svg>
