<svg xmlns="http://www.w3.org/2000/svg" width="62.93" height="67.717" viewBox="0 0 62.93 67.717">
    <defs>
        <style>
            .cls-1{fill:#8ca0b3}
        </style>
    </defs>
    <path id="Path_78" d="M21.505 44.587h37.313A7.7 7.7 0 0 0 66.5 36.9V21.039a.177.177 0 0 0-.014-.084c0-.028-.014-.07-.014-.1s-.014-.056-.014-.084a.888.888 0 0 1-.028-.1c-.014-.028-.014-.056-.028-.084s-.014-.056-.028-.084a.678.678 0 0 1-.042-.1.3.3 0 0 0-.042-.07l-.042-.084c-.014-.028-.028-.042-.042-.07s-.042-.056-.056-.084a.245.245 0 0 0-.056-.07c-.014-.028-.042-.042-.056-.07s-.042-.042-.056-.07-.042-.042-.056-.056l-.07-.07c-.028-.014-.042-.042-.07-.056s-.056-.042-.084-.056-.042-.028-.07-.042a.291.291 0 0 1-.083-.056l-.084-.042-.083-.042-.084-.042c-.028-.014-.056-.014-.084-.028a.258.258 0 0 0-.1-.028.6.6 0 0 1-.07-.014.306.306 0 0 0-.111-.014c-.014 0-.028-.014-.056-.014l-47.282-6.511v-6.6a.856.856 0 0 0-.014-.195.105.105 0 0 0-.014-.056c0-.042-.014-.084-.014-.125s-.014-.07-.028-.111-.014-.042-.014-.07l-.042-.125c0-.014-.014-.042-.014-.056a.417.417 0 0 0-.056-.111c-.014-.014-.014-.042-.028-.056a.291.291 0 0 0-.056-.084c-.014-.028-.028-.042-.042-.07s-.028-.042-.042-.07-.042-.056-.056-.084l-.042-.042-.084-.084-.042-.042a.605.605 0 0 0-.1-.084c-.014-.014-.042-.028-.056-.042s-.056-.042-.084-.07a1.283 1.283 0 0 0-.111-.07c-.014-.014-.028-.014-.042-.028-.056-.028-.125-.056-.181-.084L6.182.149a1.88 1.88 0 1 0-1.461 3.465l9.1 3.841v41.168a7.691 7.691 0 0 0 6.694 7.613 7.582 7.582 0 1 0 14.084 3.9 7.441 7.441 0 0 0-1.044-3.827h16.9a7.479 7.479 0 0 0-1.044 3.827 7.585 7.585 0 1 0 7.585-7.585H21.505a3.929 3.929 0 0 1-3.925-3.925v-5.097a7.77 7.77 0 0 0 3.925 1.058zm9.352 15.532a3.827 3.827 0 1 1-3.827-3.827 3.834 3.834 0 0 1 3.828 3.826zm29.978 0a3.827 3.827 0 1 1-3.827-3.827 3.834 3.834 0 0 1 3.828 3.826zm-2.017-19.29H21.505a3.929 3.929 0 0 1-3.924-3.929V16.6l45.161 6.22v14.07a3.932 3.932 0 0 1-3.924 3.939z" class="cls-1" data-name="Path 78" transform="translate(-3.57)"/>
</svg>
