<svg xmlns="http://www.w3.org/2000/svg" width="35" height="44.743" viewBox="0 0 35 44.743">
  <path id="three-logo" d="M311.033,109.213a11.026,11.026,0,0,1-.992-.779c.1-.18.289-.458.455-.693a13.421,13.421,0,0,0,2.779-7.826,8.67,8.67,0,0,0-2.705-6.337c-1.916-1.811-4.935-3.07-9.367-3.068a26.513,26.513,0,0,0-13.035,3.8,20.4,20.4,0,0,0-4.4,3.387,5.066,5.066,0,0,0-1.669,3.13,1.639,1.639,0,0,0,.5,1.187,5.13,5.13,0,0,0,3.01,1.006c1.353.145,3,.145,4.779.145h.319a46.32,46.32,0,0,1,5.909.254,4.666,4.666,0,0,1,1.337.348c.28.144.367.281.369.438a.676.676,0,0,1-.24.375,40.4,40.4,0,0,1-3.539,2.439,12.05,12.05,0,0,0-1.856,1.512,2.491,2.491,0,0,0-.827,1.6h0v.027h0a2.115,2.115,0,0,0,.936,1.685c1.7,1.3,5.214,1.643,7.053,1.977a3.1,3.1,0,0,1,2.062,1.049,2.195,2.195,0,0,1,.385,1.351,5.193,5.193,0,0,1-1.635,3.921,5.14,5.14,0,0,1-3.7,1.415h-.2a7.266,7.266,0,0,0,.058-.92,5.748,5.748,0,0,0-1.968-4.472,7.566,7.566,0,0,0-5-1.679,7.689,7.689,0,0,0-5.863,2.568,8.455,8.455,0,0,0-2.118,5.567,11.362,11.362,0,0,0,4.283,8.682c2.83,2.37,7.04,3.95,12.548,3.95a20.483,20.483,0,0,0,12.108-3.946,14.653,14.653,0,0,0,6.061-12.092c0-5.692-3.82-8.5-5.834-9.987Zm-17.383.4a19.662,19.662,0,0,1,2.811-2.068,18.873,18.873,0,0,0,2.357-1.653,2.391,2.391,0,0,0,1-1.695,1.807,1.807,0,0,0-.546-1.3,5.437,5.437,0,0,0-3.194-1.088,47.013,47.013,0,0,0-4.9-.16h-.479c-1.458,0-2.621-.022-3.549-.059a43.959,43.959,0,0,0,4.4-2.164,39.672,39.672,0,0,1,8.3-3.673A3.668,3.668,0,0,0,298.815,98a.743.743,0,0,0,.187.5.831.831,0,0,0,.631.238,5.959,5.959,0,0,0,1.672-.391,9.358,9.358,0,0,1,2.947-.607,5.4,5.4,0,0,1,3.066.989,3.113,3.113,0,0,0-1.7.556,1.145,1.145,0,0,0-.5.914c0,.4.286.709.639,1.118a4.087,4.087,0,0,1,1.306,2.819,5.068,5.068,0,0,1-.936,2.82v-.172a3.082,3.082,0,0,0-.527-1.893,1.118,1.118,0,0,0-.866-.4c-.577,0-1.073.444-1.814,1.054a18.709,18.709,0,0,1-2,1.488c-3.469,2.185-5.329,3.034-6.649,3.14C293.784,110.221,293.054,110.213,293.65,109.616ZM296.83,123a6.9,6.9,0,0,0,4.842-1.757,6.766,6.766,0,0,0,2.111-5.031,3.375,3.375,0,0,0-.837-2.333c2.911.695,5.935,2.191,7.616,4.441a5.53,5.53,0,0,0-1.817-.311,1.143,1.143,0,0,0-.977,1.222,4.3,4.3,0,0,0,.284,1.2,8.956,8.956,0,0,1,.554,2.859,6.831,6.831,0,0,1-1.1,3.641,4.187,4.187,0,0,0-.7-2.447,1.011,1.011,0,0,0-1.675-.018,6.24,6.24,0,0,0-.639,1.024,9.189,9.189,0,0,1-6.008,4.916,3.658,3.658,0,0,0,.543-1.757,1.4,1.4,0,0,0-.093-.535.728.728,0,0,0-.682-.479h-.01a6.8,6.8,0,0,0-1.516.319,11.878,11.878,0,0,1-3.221.562,6.489,6.489,0,0,1-4.036-1.394,2.437,2.437,0,0,0,1.236-.516,1.1,1.1,0,0,0,.423-.815c0-.462-.369-.778-.783-1.158a3.2,3.2,0,0,1-1.322-2.364,3.391,3.391,0,0,1,.2-1.108,2.934,2.934,0,0,0,.556.958,1.764,1.764,0,0,0,1.241.639.856.856,0,0,0,.835-.479,2.116,2.116,0,0,0,.115-.829,1.044,1.044,0,0,1,.335-.744,1.139,1.139,0,0,1,.781-.319,1.775,1.775,0,0,1,1.517.92,3.832,3.832,0,0,1,.532,1.974,3.11,3.11,0,0,1-.211,1.172l-.15.366.311-.243a4.521,4.521,0,0,0,1.278-1.6C296.517,122.991,296.675,123,296.83,123Zm-12.9-21.72c-.2-.12-.334-.249-.334-.446a4.183,4.183,0,0,1,1.453-2.337A25.071,25.071,0,0,1,301.2,92.016c3.427,0,6.219.848,8.073,2.431a7.062,7.062,0,0,1,2.49,5.47,11.893,11.893,0,0,1-2.512,6.986,3.2,3.2,0,0,0-.779,1.58,1.389,1.389,0,0,0,.466.979,10.06,10.06,0,0,0,1.2.968c1.974,1.461,5.219,3.849,5.221,8.784a13.206,13.206,0,0,1-5.452,10.886,18.952,18.952,0,0,1-11.207,3.648c-10.1,0-15.332-5.622-15.332-11.127a6.946,6.946,0,0,1,1.725-4.558,6.229,6.229,0,0,1,4.759-2.1h0a6.854,6.854,0,0,1,3.7,1.025,4.515,4.515,0,0,1,1.99,4.017v.176a3.146,3.146,0,0,0-.439-.717,2.527,2.527,0,0,0-2.015-.963,2.012,2.012,0,0,0-2.009,1.955,1.072,1.072,0,0,1-.049.382.2.2,0,0,1-.022.043,1.113,1.113,0,0,1-.831-.549,2.8,2.8,0,0,1-.439-1.6,4.022,4.022,0,0,1,.022-.431l.035-.319-.217.241a4.6,4.6,0,0,0-1.391,3.05,4.267,4.267,0,0,0,1.556,3.023c.105.1.236.216.339.319.049.053.094.1.125.141l.032.05v.01c0,.053-.115.192-.385.3a3.758,3.758,0,0,1-1.418.219c-.23,0-.479-.011-.765-.038l-.252-.022.16.2a7.471,7.471,0,0,0,5.932,2.932,12.627,12.627,0,0,0,3.456-.585,5.107,5.107,0,0,1,1.016-.259c.1,0,.136.022.16.051a.305.305,0,0,1,.04.174,3.285,3.285,0,0,1-.422,1.255,5.383,5.383,0,0,1-1.041,1.4l-.248.225.331-.043c5.652-.727,7.538-4,8.465-5.692a8.223,8.223,0,0,1,.425-.723c.128-.19.254-.281.284-.27a.452.452,0,0,1,.232.187,5.328,5.328,0,0,1,.509,2.519,6.625,6.625,0,0,1-.139,1.385l-.07.327.244-.228a7.67,7.67,0,0,0,2.715-5.781,10.062,10.062,0,0,0-.578-3.173,4.164,4.164,0,0,1-.238-.93.41.41,0,0,1,.054-.256.281.281,0,0,1,.16-.086,7.859,7.859,0,0,1,3.255.934l.251.12-.109-.256c-1.731-4.074-5.612-5.825-9.388-6.78-1.891-.479-3.761-.759-5.336-1.03a18.656,18.656,0,0,1-2.857-.652l-.355-.16c2.159-.272,4.766-1.794,7.078-3.279a20.141,20.141,0,0,0,2.076-1.572c.283-.233.543-.45.765-.605a1.1,1.1,0,0,1,.489-.243.284.284,0,0,1,.214.109,2.673,2.673,0,0,1,.334,1.551,6.226,6.226,0,0,1-.208,1.629l-.073.268.233-.15a5.585,5.585,0,0,0,2.715-4.649,4.937,4.937,0,0,0-1.533-3.4c-.093-.1-.2-.227-.286-.332a1.439,1.439,0,0,1-.141-.2.441.441,0,0,1,.16-.2,3.131,3.131,0,0,1,1.8-.466,5.46,5.46,0,0,1,1.223.144l.289.065-.182-.233a6.114,6.114,0,0,0-5.015-2.613,10.24,10.24,0,0,0-3.269.639,5.631,5.631,0,0,1-1.22.307.229.229,0,0,1-.065,0,2.6,2.6,0,0,1,.623-1.324,6.515,6.515,0,0,1,1.811-1.6l.286-.171-.332-.024c-.145-.01-.294-.016-.444-.016-3.25,0-7.446,2.365-10.541,3.962-1.915.989-5.967,3.338-7.185,2.613Z" transform="translate(-281.87 -90.51)" fill="#1d1d1b"/>
</svg>
