<svg xmlns="http://www.w3.org/2000/svg" viewBox="0 0 60.25 60.25"><defs><style>.cls-1{fill:#0da90f;}</style></defs><g id="Livello_2" data-name="Livello 2"><g id="Livello_1-2" data-name="Livello 1"><path class="cls-1" d="M26.75,44.51a5.67,5.67,0,0,0,1.82-1.06,14.08,14.08,0,0,0,1.52-1.66,20.76,20.76,0,0,0,1.3-2.3c.58-1.12,1.21-2.43,1.91-3.91s1.38-3.06,2.08-4.72,1.33-3.24,1.91-4.75,1.05-2.84,1.43-4a9.77,9.77,0,0,0,.56-2.55,4.05,4.05,0,0,0-.39-1.67,5.46,5.46,0,0,0-1.08-1.56,5.82,5.82,0,0,0-1.65-1.13A5.35,5.35,0,0,0,34,14.75H19.16L7.72,45.24h12.4a39.26,39.26,0,0,0,3.94-.17A11.49,11.49,0,0,0,26.75,44.51Z"/><path class="cls-1" d="M0,3.15V15.07L3.55,5.79H38.93a35.71,35.71,0,0,1,8,.89A17,17,0,0,1,53.76,9.9a10.06,10.06,0,0,1,2.69,3.26A8.27,8.27,0,0,1,57.4,17a17.56,17.56,0,0,1-.52,3.65q-.51,2.32-1.43,5.19t-2,6q-1.12,3.12-2.34,5.91c-.81,1.86-1.59,3.54-2.34,5A15.62,15.62,0,0,1,46.65,46a39.25,39.25,0,0,1-3.47,3.48,24.82,24.82,0,0,1-4.16,3,22.35,22.35,0,0,1-4.81,2.06,18.59,18.59,0,0,1-5.34.77L0,55.38V57.1a3.15,3.15,0,0,0,3.15,3.15h54a3.15,3.15,0,0,0,3.15-3.15V3.15A3.15,3.15,0,0,0,57.1,0H3.15A3.15,3.15,0,0,0,0,3.15Z"/></g></g></svg>