<svg xmlns="http://www.w3.org/2000/svg" width="203.783" height="43.993" viewBox="0 0 203.783 43.993">
  <g id="Group_1348" data-name="Group 1348" transform="translate(-171.847 -378.643)">
    <path id="Path_1" data-name="Path 1" d="M708.348,638.445l-.971,3.2h-3.333l3.363-11.231h5.664a4.545,4.545,0,0,1,1.382.211,2.848,2.848,0,0,1,1.173.724,2.264,2.264,0,0,1,.464.739,2.392,2.392,0,0,1,.164.874,6.137,6.137,0,0,1-.254,1.749,6.37,6.37,0,0,1-.732,1.613,8.024,8.024,0,0,1-.6.792,4.59,4.59,0,0,1-.717.678,3.692,3.692,0,0,1-.83.475,2.4,2.4,0,0,1-.919.181Zm2.346-2.307a3.221,3.221,0,0,0,.687-.06,1.657,1.657,0,0,0,.456-.166,1.2,1.2,0,0,0,.314-.249l.262-.294a2.775,2.775,0,0,0,.531-.844,2.657,2.657,0,0,0,.187-.995,1.159,1.159,0,0,0-.067-.377,1.27,1.27,0,0,0-.187-.354.992.992,0,0,0-.284-.256.716.716,0,0,0-.374-.1h-2.078l-1.121,3.693Zm16.515.1a24.137,24.137,0,0,1-1.151,3.294,3.327,3.327,0,0,1-1.106,1.357,3.821,3.821,0,0,1-1.6.678q-.7.12-1.4.181t-1.4.06q-.508,0-1.061-.023a7.891,7.891,0,0,1-1.091-.121,5.237,5.237,0,0,1-1.009-.286,2.558,2.558,0,0,1-.815-.512,2.024,2.024,0,0,1-.516-.8,2.692,2.692,0,0,1-.112-1.153,13.154,13.154,0,0,1,.261-1.621q.187-.837.434-1.666t.53-1.62q.284-.791.568-1.485a2.629,2.629,0,0,1,.5-.769,3.412,3.412,0,0,1,.972-.716,6.247,6.247,0,0,1,1.562-.528,10.927,10.927,0,0,1,2.272-.2q.658,0,1.427.03a6.312,6.312,0,0,1,1.465.226,3.459,3.459,0,0,1,1.233.626,2.177,2.177,0,0,1,.732,1.244v.407A29.57,29.57,0,0,1,727.209,636.237Zm-3.452-.151a22.362,22.362,0,0,0,.658-2.57.663.663,0,0,0-.075-.55.879.879,0,0,0-.411-.3,2.245,2.245,0,0,0-.576-.128q-.314-.03-.538-.03a5.521,5.521,0,0,0-.553.03,2.45,2.45,0,0,0-.576.128,1.8,1.8,0,0,0-.5.271,1,1,0,0,0-.329.46q-.448,1.176-.837,2.427t-.658,2.533a1.026,1.026,0,0,0-.008.535.86.86,0,0,0,.232.392,1,1,0,0,0,.419.234,1.415,1.415,0,0,0,.553.045q.284,0,.65-.022a3.559,3.559,0,0,0,.7-.113,1.664,1.664,0,0,0,.59-.286.9.9,0,0,0,.329-.543Q723.354,637.345,723.757,636.086Zm6.636-5.676h3.333l-3.363,11.231h-3.378Zm11.239,6.512,1.973-6.512h3.2l-3.333,11.231h-3.975l-1.569-7.809-2.332,7.809h-3.3l3.348-11.231h3.348a1.823,1.823,0,0,1,.538.083,1.744,1.744,0,0,1,.493.241,1.684,1.684,0,0,1,.381.369,1.251,1.251,0,0,1,.217.482Zm14.945-3.859H753.8l-2.571,8.578h-3.378l2.6-8.578a14.123,14.123,0,0,0-1.89.053,4.73,4.73,0,0,0-1.181.264,2.237,2.237,0,0,0-.725.437,5.452,5.452,0,0,0-.508.558.168.168,0,0,1-.187.06.1.1,0,0,1-.082-.135q.493-.95.971-1.688a5.139,5.139,0,0,1,1.113-1.244,4.379,4.379,0,0,1,1.51-.761,7.54,7.54,0,0,1,2.174-.241v.03h5.739Z" transform="translate(-462.899 -219.172)"/>
    <path id="Path_2" data-name="Path 2" d="M391.5,592.2a276.1,276.1,0,0,1,77.516,11.035,233.629,233.629,0,0,0-155.032,0A276.1,276.1,0,0,1,391.5,592.2Z" transform="translate(-123.3 -184.081)"/>
    <g id="Group_3" data-name="Group 3" transform="translate(171.847 378.643)">
      <path id="Path_3" data-name="Path 3" d="M1093.772,387.845a.66.66,0,0,0,.637-.186,9.03,9.03,0,0,1,2.447-1.487,18.38,18.38,0,0,1,3.415-1.041l-8.655,20.509q5.518.548,10.992,1.352h8.368q2.753,0,4.74-.167a25.093,25.093,0,0,0,3.313-.465,14.259,14.259,0,0,0,5.454-2.491,10.082,10.082,0,0,0,3.313-4.238q2.09-4.647-3.161-6.469a14.32,14.32,0,0,0,2.8-1.06,15.777,15.777,0,0,0,2.523-1.562,12.725,12.725,0,0,0,2.013-1.9,8.248,8.248,0,0,0,1.325-2.1,4.406,4.406,0,0,0,.128-3.662,5.671,5.671,0,0,0-2.574-2.658,4.484,4.484,0,0,0-1.3-.428q-.841-.167-1.937-.279t-2.345-.167q-1.249-.056-2.523-.093l.051-.074-10.194-.037a49.205,49.205,0,0,0-7.34.39,17.11,17.11,0,0,0-4.944,1.413,12.465,12.465,0,0,0-3.594,2.6,36.144,36.144,0,0,0-3.236,3.96C1093.423,387.684,1093.517,387.8,1093.772,387.845Zm17.917-3.383h8.92v-.037a2.53,2.53,0,0,1,1.019.409,1.694,1.694,0,0,1,.765,2.454,4.647,4.647,0,0,1-1.172,1.506,7.4,7.4,0,0,1-1.886,1.208,6.841,6.841,0,0,1-1.835.539,21.255,21.255,0,0,1-2.752.13h-5.658ZM1107,395.616h5.811a19,19,0,0,1,2.625.13,5.028,5.028,0,0,1,1.5.465,1.658,1.658,0,0,1,.714,2.454,4.025,4.025,0,0,1-1.121,1.506,7.387,7.387,0,0,1-1.886,1.208,8.79,8.79,0,0,1-.917.316,7.486,7.486,0,0,1-.969.2q-.51.075-1.2.111t-1.606.037h-5.607Z" transform="translate(-972.181 -379.143)" fill="#0da90f"/>
      <path id="Path_4" data-name="Path 4" d="M197.528,407.335a13.661,13.661,0,0,0,2.829-1.153,14.739,14.739,0,0,0,2.447-1.673,22.064,22.064,0,0,0,2.039-1.952,8.736,8.736,0,0,0,1.223-1.84q.662-1.245,1.376-2.807t1.376-3.309q.662-1.747,1.2-3.346t.841-2.9a9.541,9.541,0,0,0,.306-2.045,4.494,4.494,0,0,0-.561-2.156,5.7,5.7,0,0,0-1.58-1.822,10.274,10.274,0,0,0-4-1.8,21.762,21.762,0,0,0-4.715-.5h-20.8L168.347,407.8l26.047-.037A11.408,11.408,0,0,0,197.528,407.335Zm-4.384-5.633a6.88,6.88,0,0,1-1.58.316q-.944.093-2.319.093h-7.289l6.728-17.065H197.4a3.2,3.2,0,0,1,1.274.242,3.255,3.255,0,0,1,.968.632,2.973,2.973,0,0,1,.637.874,2.168,2.168,0,0,1,.229.93,5.172,5.172,0,0,1-.331,1.431q-.332.986-.841,2.249t-1.121,2.658q-.612,1.394-1.223,2.64t-1.121,2.194a11.258,11.258,0,0,1-.765,1.283,7.533,7.533,0,0,1-.892.929A3.3,3.3,0,0,1,193.145,401.7Z" transform="translate(-168.347 -379.913)" fill="#0da90f"/>
      <path id="Path_5" data-name="Path 5" d="M1447.523,379.452l-14.374,10.819-4.842-10.819H1417.4l8.563,15.615-5.1,12.158h11.214l5-11.972,22.53-15.8Z" transform="translate(-1255.821 -379.412)" fill="#0da90f"/>
      <path id="Path_6" data-name="Path 6" d="M497.165,389.472a.788.788,0,0,0,.561-.019.472.472,0,0,0,.255-.112,7.577,7.577,0,0,1,1.81-1.06,11.443,11.443,0,0,1,1.733-.539q.841-.186,1.631-.3a13.341,13.341,0,0,0,1.5-.3,40.391,40.391,0,0,0-2.727,5.335,39.053,39.053,0,0,0-1.86,5.558,9.226,9.226,0,0,0-.229,3.012,7.223,7.223,0,0,0,.892,2.974A6.607,6.607,0,0,0,503,406.37a8.324,8.324,0,0,0,3.9,1.152q2.726.218,5.445.3,8.163-1.333,16.431-2.089l2.131-5.426a72.819,72.819,0,0,1-8.614.688,65.849,65.849,0,0,1-8.716-.39,2.269,2.269,0,0,1-1.274-.558,1.05,1.05,0,0,1-.459-1,8.17,8.17,0,0,1,.51-1.71,17.382,17.382,0,0,0,.612-1.71H527.34l2.243-5.317q-4.384,0-7.009-.019t-4.1-.019q-1.427,0-2.064.019t-1.1.056a5.309,5.309,0,0,0,.892-1.245,11.564,11.564,0,0,1,.867-1.394,4.833,4.833,0,0,1,1.147-1.134,2.861,2.861,0,0,1,1.682-.465h16.209l2.753-6.655H516.942a28.67,28.67,0,0,0-6.6.706,23.13,23.13,0,0,0-5.429,1.989,21.022,21.022,0,0,0-4.409,3.067,24.359,24.359,0,0,0-3.491,3.941C496.91,389.3,496.961,389.41,497.165,389.472Z" transform="translate(-454.451 -379.412)" fill="#0da90f"/>
      <path id="Path_7" data-name="Path 7" d="M801.029,405.541l2.239-5.411H810.3l2.554,5.485q5.525.172,11.014.6l-3.068-6.831a14.494,14.494,0,0,0,3.543-1.952,18.327,18.327,0,0,0,2.778-2.547,13.161,13.161,0,0,0,2.523-3.978,11.6,11.6,0,0,0,.841-4.313,4.287,4.287,0,0,0-.969-2.788,7.651,7.651,0,0,0-2.5-1.97,12.967,12.967,0,0,0-3.466-1.153,20.546,20.546,0,0,0-3.874-.372H800.465l-10.639,25.7Q795.409,405.643,801.029,405.541Zm8.356-20.208h7.034a3.385,3.385,0,0,1,1.3.242,3.179,3.179,0,0,1,.994.632,2.974,2.974,0,0,1,.637.874,2.168,2.168,0,0,1,.229.929,5,5,0,0,1-.637,2.454,6.983,6.983,0,0,1-1.81,2.082l-.892.725a4.181,4.181,0,0,1-1.07.613,7.173,7.173,0,0,1-1.58.409,15.641,15.641,0,0,1-2.37.149h-5.607Z" transform="translate(-709.431 -380.162)" fill="#0da90f"/>
    </g>
  </g>
</svg>
