<svg xmlns="http://www.w3.org/2000/svg" width="51.975" height="27.972" viewBox="0 0 51.975 27.972">
  <g id="posteitalia" transform="translate(-1366.621 -668.141)">
    <path id="path110" d="M5.488.141V2.6H3.546V5.916h1.83c.057,0,.057,0,.114-.057l0,2.459H3.549v4.574l-3.544,0L0,.143Zm.005,8.176,0-2.459c1.314-.058,1.887-.687,1.886-1.6S6.8,2.713,5.49,2.6V.141h.4c3.145,0,5.2,1.026,5.205,4.113,0,3.031-2.055,4.06-5.2,4.063ZM16.411,3.793V5.737c-1.431,0-1.715,1.431-1.714,2.689s.286,2.8,1.716,2.8V13.17c-2.743,0-5.145-1.427-5.148-4.742,0-3.2,2.4-4.632,5.144-4.635Zm16.637.22V2.7l3.371-1.317v2.63h2V6.183h-2V9.614c0,.23-.114,1.431.687,1.429a9.09,9.09,0,0,0,1.257-.058v2a12.161,12.161,0,0,1-1.772.172c-2.344,0-3.716-.34-3.545-3.085l0-3.888H31.334V4.014ZM27.5,6.7a.994.994,0,0,0-.23-.686,1.237,1.237,0,0,0-.915-.286.723.723,0,0,0-.8.8c0,.572,1.372.572,3.489,1.2a2.3,2.3,0,0,1,1.772,2.458c0,2.344-2.17,2.974-4.228,2.975-2.173,0-4.345-.455-4.289-3.142l3.2,0a.889.889,0,0,0,.229.8,1,1,0,0,0,.8.4c.63,0,1.086-.286,1.086-.858,0-1.543-5.261-.627-5.263-3.771,0-2.23,2.344-2.8,4.116-2.8,2.115,0,4.059.512,4.232,2.914ZM16.415,13.17V11.226c1.429,0,1.714-1.545,1.713-2.8s-.287-2.687-1.715-2.687V3.793c2.8,0,5.2,1.427,5.205,4.629,0,3.315-2.4,4.746-5.2,4.747ZM42.37,9.1c0,1.143.287,2.173,1.545,2.172h.057v1.887c-3.43-.056-4.8-1.6-4.805-5.028,0-2.745,2.114-4.347,4.8-4.349V5.437c-1.144.058-1.429.916-1.543,1.83H43.97V9.1Zm1.6-5.318c3.658,0,4.8,2.057,4.805,5.315h-4.8V7.266h1.6a2.517,2.517,0,0,0-.4-1.257,1.52,1.52,0,0,0-1.2-.572V3.779Zm0,7.489a1.521,1.521,0,0,0,1.6-1.316h3.145A3.363,3.363,0,0,1,47,12.467a5.1,5.1,0,0,1-2.8.688h-.228V11.268Z" transform="translate(1367.027 668)" fill="#005cab"/>
    <path id="path110-2" data-name="path110" d="M51.2,3.956V2.012L52.91,1.5V3.954l2.059-.06V5.154H52.913l0,5.717c0,.629.515.915,1.086.915a4.993,4.993,0,0,0,.913-.115v1.314c-.4,0-.743.115-1.144.115a3.9,3.9,0,0,1-1.143-.112,1.592,1.592,0,0,1-1.03-.572c-.286-.4-.4-.457-.4-1.657l0-5.6H49.711V3.9l1.488.057ZM46.621.012h2.058V1.841H46.622ZM46.8,12.819l-.005-8.862h1.715l0,4.267,0,4.6ZM59.6,7.324v1.2c-.973.115-2.058.516-2.058,1.658a1.565,1.565,0,0,0,1.774,1.657h.287v1.2a3.048,3.048,0,0,1-.744.057c-1.543,0-3.088-.8-3.089-2.57,0-2.288,1.885-3.089,3.829-3.2Zm0-3.659V4.923A1.47,1.47,0,0,0,58.058,6.3H56.287c.054-1.887,1.54-2.632,3.314-2.632ZM68.633,0h2l0,1.829h-2V0Zm.177,12.808,0-8.863h1.715l0,8.861Zm-3.773,0L65.03,0h1.658L66.7,12.808Zm-5.43.232v-1.2c1.714-.172,2.055-1.772,2-3.374H59.947a.726.726,0,0,0-.343.057v-1.2h2c0-1.544-.058-2.4-1.887-2.4H59.6V3.665h.057c1.83,0,3.659.57,3.661,2.971l0,4.288c0,.4,0,1.143.057,1.886H62.235c-.114,0-.457.114-.457-.114-.057-.4-.057-.8-.115-1.2a2.945,2.945,0,0,1-2.057,1.545ZM75.84,7.315v1.2c-.916.114-2,.515-2,1.658a1.547,1.547,0,0,0,1.717,1.657h.286v1.2a2.851,2.851,0,0,1-.686.056c-1.544,0-3.145-.8-3.146-2.57,0-2.288,1.885-3.089,3.829-3.2Zm0-3.659V4.914a1.451,1.451,0,0,0-1.485,1.374H72.58c.057-1.887,1.543-2.631,3.258-2.632Zm7.2,1.6a3.11,3.11,0,0,1,2.743-1.6c.572,0,3.374.171,3.375,2.971l0,6.175H87.449l0-5.6c0-1.429-.629-2.23-2.059-2.229a2.257,2.257,0,0,0-1.6.63c-.286.286-.742.687-.742,2.345l0,4.86H81.388l0-8.862h1.658V5.253Zm-7.2,7.781v-1.2c1.772-.173,2.115-1.773,2.057-3.375H76.241a1.093,1.093,0,0,0-.4.058v-1.2H77.9c0-1.543-.058-2.4-1.887-2.4h-.172V3.655h.114c1.829,0,3.659.57,3.661,2.971l0,4.288c0,.4,0,1.143.058,1.887H78.531c-.172,0-.458.114-.458-.115-.057-.4-.057-.8-.115-1.2a2.935,2.935,0,0,1-2.115,1.546ZM94.534,3.646V4.9a2.337,2.337,0,0,0-2.287,2.574h2.288v1.2H92.25c-.114,1.545.516,3.145,2.288,3.143V13.08h-.058c-2.857,0-4-2.057-4-4.685,0-2.517,1.314-4.69,4.058-4.749Zm0,5.03v-1.2h2.286c0-1.429-.629-2.572-2.287-2.572V3.646h.114c2.688.056,3.947,1.771,3.948,4.172v.858Zm0,4.4V11.821a1.887,1.887,0,0,0,2.172-1.773h1.772c-.284,2-1.828,3.031-3.943,3.032" transform="translate(1320 683.012)" fill="#005cab"/>
  </g>
</svg>
