<svg xmlns="http://www.w3.org/2000/svg" width="42.943" height="35.868" viewBox="0 0 42.943 35.868">
  <g id="TIM_logo_2016" transform="translate(0 -0.005)">
    <path id="Path_153" data-name="Path 153" d="M17.182,28.3H2.068A2.063,2.063,0,0,0,0,30.368V33.91a2.008,2.008,0,0,0,.6,1.454,2.032,2.032,0,0,0,1.464.6H17.182Zm25.168.614a2.041,2.041,0,0,0-1.464-.614H25.772v7.669H40.886A2.063,2.063,0,0,0,42.944,33.9V30.357a2.035,2.035,0,0,0-.594-1.444m0-14.1a2.041,2.041,0,0,0-1.464-.614H25.772v7.669H40.886A2.063,2.063,0,0,0,42.944,19.8V16.247a2.029,2.029,0,0,0-.594-1.434M17.182,14.2H2.068A2.063,2.063,0,0,0,0,16.258v3.553a2.08,2.08,0,0,0,2.068,2.068H17.182Zm23.7-6.43H2.068A2.093,2.093,0,0,1,.6,7.165,2.05,2.05,0,0,1,0,5.7V2.158A2.068,2.068,0,0,1,.6.7,2.032,2.032,0,0,1,2.068.1H40.886a2.062,2.062,0,0,1,2.058,2.068V5.711a2.045,2.045,0,0,1-2.058,2.058" transform="translate(0 -0.095)" fill="#e40d2c"/>
  </g>
</svg>
