<?xml version="1.0" encoding="utf-8"?>
<!-- Generator: Adobe Illustrator 21.1.0, SVG Export Plug-In . SVG Version: 6.00 Build 0)  -->
<!DOCTYPE svg PUBLIC "-//W3C//DTD SVG 1.1//EN" "http://www.w3.org/Graphics/SVG/1.1/DTD/svg11.dtd">
<svg version="1.1" id="Livello_1" xmlns="http://www.w3.org/2000/svg" xmlns:xlink="http://www.w3.org/1999/xlink" x="0px" y="0px"
	 viewBox="0 0 566.9 141.7" style="enable-background:new 0 0 566.9 141.7;" xml:space="preserve">
<style type="text/css">
	.st0{fill:#FFFFFF;}
	.st1{fill:#FCC300;}
	.st2{font-family:'ArialMT';}
	.st3{font-size:5.2604px;}
</style>
<g>
	<path class="st0" d="M87,31.8h7.4v6.4H87v33.9h-6.5V38.2h-7.4v-6.4h7.4"/>
	<path class="st0" d="M117.7,31.8h6.4v34c0,4.2-2.2,6.3-6.5,6.3h-8.3c-4.3,0-6.5-2.1-6.5-6.3V46.7V31.8h6.4v33.9h8.5V31.8z"/>
	<path class="st0" d="M150.7,31.8h7.4v6.4h-7.4v33.9h-6.5V38.2h-7.4v-6.4h7.4"/>
	<path class="st0" d="M180.4,31.8h7.4v6.4h-7.4v33.9h-6.5V38.2h-7.4v-6.4h7.4"/>
	<path class="st0" d="M196.3,38.2c0-4.3,2-6.5,6.1-6.5h9c4.1,0,6.1,2.2,6.1,6.5v27.6c0,4.2-2.2,6.3-6.5,6.3h-8.3
		c-4.3,0-6.5-2.1-6.5-6.3V38.2z M211.1,38.2h-8.5v27.6h8.5V38.2z"/>
	<path class="st0" d="M244,72.1h-6.5l-7.4-40.3h6.4l4.2,26.3l4.2-26.3h6.4L244,72.1z"/>
	<rect x="264.1" y="31.8" class="st0" width="6.4" height="40.3"/>
	<path class="st0" d="M289.6,65.7h8.5V55.1h-8.5c-4.3,0-6.4-2.1-6.4-6.3V38.3c0-4.3,2-6.5,6.1-6.5h9c4.1,0,6.1,2.2,6.1,6.5v6.3h-6.4
		v-6.3h-8.5v10.6h8.5c4.3,0,6.4,2.1,6.4,6.4v10.7c0,4.2-2.2,6.3-6.5,6.3h-8.3c-4.3,0-6.5-2.1-6.5-6.3v-6.4h6.4V65.7z"/>
	<path class="st0" d="M332,31.8h6.4v34c0,4.2-2.2,6.3-6.5,6.3h-8.3c-4.3,0-6.5-2.1-6.5-6.3V46.7V31.8h6.4v33.9h8.5V31.8z"/>
	<path class="st0" d="M351.1,72.1V38.2c0-4.3,2-6.5,6.1-6.5h9c4.1,0,6.1,2.2,6.1,6.5v6.3h-6.4v-6.3h-8.5v33.9H351.1z"/>
	<path class="st0" d="M399.9,65.7v-6.3h6.4v6.4c0,4.2-2.2,6.3-6.5,6.3h-8.3c-4.3,0-6.5-2.1-6.5-6.3V38.2c0-4.3,2-6.5,6.1-6.5h9
		c4.1,0,6.1,2.2,6.1,6.5v10.6c0,4.2-2.2,6.3-6.5,6.3h-8.4v10.6H399.9z M399.9,38.2h-8.5v10.6h8.5V38.2z"/>
	<rect x="438.1" y="31.8" class="st0" width="6.4" height="40.3"/>
	<path class="st0" d="M471,31.8h7.4v6.4H471v33.9h-6.5V38.2h-7.4v-6.4h7.4"/>
	<path class="st1" d="M424.8,62.2h-5.4c-1.2,0-2.2,1-2.2,2.2v5.4c0,1.2,1,2.2,2.2,2.2h5.4c1.2,0,2.2-1,2.2-2.2v-5.4
		C427,63.1,426,62.2,424.8,62.2z M424.2,69.2H420v-4.2h4.2V69.2z"/>
	<text transform="matrix(1 0 0 1 485.1076 35.5174)" class="st0 st2 st3">TM</text>
	<g>
		<path class="st0" d="M73.3,88.2h1.9c0.2,0,0.4,0.1,0.5,0.2c0.1,0.1,0.2,0.2,0.2,0.4l3.1,13c0.1,0.3,0.1,0.6,0.2,0.9s0.1,0.7,0.2,1
			c0.1-0.4,0.2-0.7,0.4-1c0.1-0.3,0.3-0.6,0.4-0.9l6.3-13c0.1-0.1,0.2-0.3,0.3-0.4c0.2-0.1,0.3-0.2,0.5-0.2h1.9l-9.1,18.2H78
			L73.3,88.2z"/>
		<path class="st0" d="M102.3,96.3c0,0.6-0.1,1.1-0.3,1.5c-0.2,0.5-0.7,0.9-1.3,1.3c-0.6,0.4-1.5,0.7-2.5,1
			c-1.1,0.3-2.5,0.5-4.2,0.7c0,0.1,0,0.2,0,0.3s0,0.2,0,0.3c0,1.1,0.2,2,0.7,2.6c0.5,0.6,1.3,0.9,2.3,0.9c0.4,0,0.8,0,1.1-0.1
			c0.3-0.1,0.6-0.2,0.9-0.3c0.3-0.1,0.5-0.3,0.7-0.4c0.2-0.1,0.4-0.3,0.5-0.4c0.2-0.1,0.3-0.2,0.4-0.3s0.3-0.1,0.4-0.1
			c0.2,0,0.3,0.1,0.4,0.2l0.6,0.7c-0.4,0.4-0.9,0.8-1.3,1.1c-0.4,0.3-0.8,0.6-1.3,0.8c-0.4,0.2-0.9,0.4-1.4,0.5
			c-0.5,0.1-1,0.1-1.5,0.1c-0.7,0-1.4-0.1-2-0.4c-0.6-0.2-1.1-0.6-1.5-1c-0.4-0.5-0.7-1-0.9-1.6c-0.2-0.6-0.3-1.4-0.3-2.2
			c0-0.7,0.1-1.3,0.2-2c0.1-0.7,0.3-1.3,0.6-1.9c0.3-0.6,0.6-1.1,1-1.7c0.4-0.5,0.8-0.9,1.3-1.3c0.5-0.4,1.1-0.7,1.7-0.9
			c0.6-0.2,1.3-0.3,1.9-0.3c0.7,0,1.2,0.1,1.7,0.3c0.5,0.2,0.9,0.4,1.2,0.7c0.3,0.3,0.5,0.6,0.7,1C102.2,95.6,102.3,96,102.3,96.3z
			 M98.4,95c-0.5,0-1,0.1-1.5,0.3c-0.5,0.2-0.9,0.5-1.2,0.9c-0.4,0.4-0.6,0.8-0.9,1.4c-0.2,0.5-0.4,1.1-0.6,1.7
			c1.3-0.2,2.4-0.3,3.2-0.6c0.8-0.2,1.4-0.4,1.8-0.7c0.4-0.2,0.7-0.5,0.8-0.8s0.2-0.6,0.2-0.9c0-0.2,0-0.3-0.1-0.5
			c-0.1-0.2-0.2-0.3-0.3-0.5c-0.1-0.1-0.3-0.2-0.6-0.3C99,95,98.7,95,98.4,95z"/>
		<path class="st0" d="M108.6,106.4l2.3-18.7h2.2l-2.3,18.7H108.6z"/>
		<path class="st0" d="M123.7,106.6c-0.7,0-1.4-0.1-1.9-0.4c-0.6-0.2-1.1-0.6-1.5-1c-0.4-0.5-0.8-1-1-1.7c-0.2-0.7-0.4-1.4-0.4-2.3
			c0-1.1,0.2-2.1,0.5-3.1c0.3-1,0.8-1.8,1.4-2.5c0.6-0.7,1.3-1.3,2.1-1.7c0.8-0.4,1.7-0.6,2.6-0.6c0.7,0,1.4,0.1,1.9,0.4
			c0.6,0.2,1.1,0.6,1.5,1c0.4,0.5,0.8,1,1,1.7c0.2,0.7,0.4,1.4,0.4,2.3c0,1.1-0.2,2.1-0.5,3c-0.3,1-0.8,1.8-1.4,2.5
			c-0.6,0.7-1.3,1.3-2.1,1.7C125.5,106.3,124.6,106.6,123.7,106.6z M123.9,104.8c0.6,0,1.2-0.2,1.7-0.5c0.5-0.3,0.9-0.8,1.3-1.4
			c0.4-0.6,0.6-1.2,0.8-1.9c0.2-0.7,0.3-1.5,0.3-2.3c0-1.2-0.2-2.1-0.7-2.7c-0.5-0.6-1.1-0.9-2-0.9c-0.6,0-1.2,0.2-1.7,0.5
			c-0.5,0.3-0.9,0.8-1.3,1.3c-0.4,0.6-0.6,1.2-0.8,1.9c-0.2,0.7-0.3,1.5-0.3,2.3c0,1.2,0.2,2.1,0.7,2.7
			C122.3,104.5,123,104.8,123.9,104.8z"/>
		<path class="st0" d="M144.9,105.3c-0.4,0.3-0.8,0.6-1.2,0.8c-0.4,0.2-0.8,0.3-1.3,0.4c-0.4,0.1-0.9,0.1-1.4,0.1
			c-0.8,0-1.4-0.1-2-0.4c-0.6-0.3-1.1-0.6-1.4-1.1c-0.4-0.5-0.7-1-0.9-1.7c-0.2-0.6-0.3-1.4-0.3-2.1c0-1,0.2-2,0.5-3
			c0.3-1,0.8-1.8,1.4-2.5c0.6-0.7,1.3-1.3,2.1-1.8c0.8-0.4,1.7-0.7,2.7-0.7c0.9,0,1.6,0.2,2.2,0.5c0.6,0.3,1.1,0.7,1.5,1.3L146,96
			c-0.1,0.1-0.1,0.1-0.2,0.2c-0.1,0-0.2,0.1-0.3,0.1c-0.1,0-0.2-0.1-0.4-0.2c-0.1-0.1-0.3-0.2-0.4-0.4c-0.2-0.1-0.4-0.2-0.7-0.4
			c-0.3-0.1-0.6-0.2-1.1-0.2c-0.6,0-1.1,0.2-1.7,0.5s-1,0.8-1.4,1.3c-0.4,0.6-0.7,1.2-0.9,2c-0.2,0.8-0.3,1.6-0.3,2.4
			c0,0.5,0.1,1,0.2,1.4c0.1,0.4,0.3,0.8,0.5,1.1c0.2,0.3,0.5,0.5,0.9,0.7s0.8,0.2,1.2,0.2c0.4,0,0.7,0,1-0.1
			c0.3-0.1,0.6-0.2,0.8-0.3c0.2-0.1,0.4-0.2,0.6-0.4c0.2-0.1,0.3-0.3,0.5-0.4c0.1-0.1,0.3-0.2,0.4-0.3c0.1-0.1,0.2-0.1,0.4-0.1
			c0.2,0,0.3,0.1,0.4,0.2l0.6,0.7C145.7,104.5,145.3,104.9,144.9,105.3z"/>
		<path class="st0" d="M162.7,96.3c0,0.6-0.1,1.1-0.3,1.5c-0.2,0.5-0.7,0.9-1.3,1.3c-0.6,0.4-1.5,0.7-2.5,1
			c-1.1,0.3-2.5,0.5-4.2,0.7c0,0.1,0,0.2,0,0.3s0,0.2,0,0.3c0,1.1,0.2,2,0.7,2.6c0.5,0.6,1.3,0.9,2.3,0.9c0.4,0,0.8,0,1.1-0.1
			c0.3-0.1,0.6-0.2,0.9-0.3c0.3-0.1,0.5-0.3,0.7-0.4c0.2-0.1,0.4-0.3,0.5-0.4c0.2-0.1,0.3-0.2,0.4-0.3c0.1-0.1,0.3-0.1,0.4-0.1
			c0.2,0,0.3,0.1,0.4,0.2l0.6,0.7c-0.4,0.4-0.9,0.8-1.3,1.1c-0.4,0.3-0.8,0.6-1.3,0.8c-0.4,0.2-0.9,0.4-1.4,0.5
			c-0.5,0.1-1,0.1-1.5,0.1c-0.7,0-1.4-0.1-2-0.4c-0.6-0.2-1.1-0.6-1.5-1s-0.7-1-0.9-1.6c-0.2-0.6-0.3-1.4-0.3-2.2
			c0-0.7,0.1-1.3,0.2-2c0.1-0.7,0.3-1.3,0.6-1.9c0.3-0.6,0.6-1.1,1-1.7c0.4-0.5,0.8-0.9,1.3-1.3c0.5-0.4,1.1-0.7,1.7-0.9
			c0.6-0.2,1.3-0.3,1.9-0.3c0.7,0,1.2,0.1,1.7,0.3c0.5,0.2,0.9,0.4,1.2,0.7c0.3,0.3,0.5,0.6,0.7,1C162.6,95.6,162.7,96,162.7,96.3z
			 M158.7,95c-0.5,0-1,0.1-1.5,0.3c-0.5,0.2-0.9,0.5-1.2,0.9c-0.4,0.4-0.6,0.8-0.9,1.4c-0.2,0.5-0.4,1.1-0.6,1.7
			c1.3-0.2,2.4-0.3,3.2-0.6c0.8-0.2,1.4-0.4,1.8-0.7c0.4-0.2,0.7-0.5,0.8-0.8c0.1-0.3,0.2-0.6,0.2-0.9c0-0.2,0-0.3-0.1-0.5
			c-0.1-0.2-0.2-0.3-0.3-0.5c-0.1-0.1-0.3-0.2-0.6-0.3C159.4,95,159.1,95,158.7,95z"/>
		<path class="st0" d="M168.5,104.8c0-0.4,0.1-0.7,0.4-1c0.3-0.3,0.6-0.4,1.1-0.4c0.3,0,0.5,0,0.7,0.1c0.2,0.1,0.4,0.2,0.5,0.4
			c0.1,0.2,0.2,0.4,0.3,0.6c0.1,0.2,0.1,0.5,0.1,0.7c0,0.4-0.1,0.8-0.2,1.2c-0.1,0.4-0.3,0.8-0.5,1.2c-0.2,0.4-0.5,0.8-0.8,1.2
			c-0.3,0.4-0.6,0.7-1,1.1l-0.4-0.4c-0.1-0.1-0.2-0.2-0.2-0.4c0-0.1,0.1-0.2,0.2-0.4c0.1-0.2,0.3-0.4,0.5-0.6
			c0.2-0.2,0.4-0.5,0.5-0.8c0.2-0.3,0.3-0.6,0.3-1H170c-0.4,0-0.8-0.1-1.1-0.4C168.6,105.6,168.5,105.3,168.5,104.8z"/>
		<path class="st0" d="M199.3,91c-0.1,0.1-0.2,0.2-0.3,0.3c-0.1,0.1-0.2,0.1-0.3,0.1c-0.1,0-0.3-0.1-0.5-0.2
			c-0.2-0.1-0.4-0.3-0.6-0.5c-0.3-0.2-0.6-0.3-0.9-0.5c-0.4-0.1-0.8-0.2-1.3-0.2c-0.5,0-1,0.1-1.5,0.3c-0.4,0.2-0.8,0.4-1.1,0.7
			c-0.3,0.3-0.5,0.6-0.7,1c-0.2,0.4-0.2,0.8-0.2,1.3c0,0.4,0.1,0.8,0.3,1.1c0.2,0.3,0.5,0.6,0.8,0.8c0.3,0.2,0.7,0.4,1.1,0.6
			c0.4,0.2,0.9,0.3,1.3,0.5c0.4,0.2,0.9,0.4,1.3,0.6c0.4,0.2,0.8,0.5,1.1,0.8c0.3,0.3,0.6,0.7,0.8,1.1c0.2,0.4,0.3,1,0.3,1.6
			c0,0.9-0.1,1.7-0.4,2.4c-0.3,0.8-0.7,1.4-1.3,2c-0.6,0.6-1.2,1-2,1.4c-0.8,0.3-1.7,0.5-2.7,0.5c-1.1,0-2.1-0.2-2.9-0.6
			c-0.9-0.4-1.6-1-2.1-1.7l0.8-1.1c0.1-0.1,0.2-0.2,0.3-0.2c0.1-0.1,0.2-0.1,0.3-0.1c0.2,0,0.3,0.1,0.5,0.3s0.4,0.4,0.7,0.6
			c0.3,0.2,0.6,0.4,1.1,0.6c0.4,0.2,1,0.3,1.6,0.3c0.6,0,1.1-0.1,1.6-0.3c0.5-0.2,0.9-0.4,1.2-0.8c0.3-0.3,0.6-0.7,0.8-1.2
			c0.2-0.5,0.3-1,0.3-1.5c0-0.5-0.1-0.9-0.3-1.2c-0.2-0.3-0.5-0.6-0.8-0.8c-0.3-0.2-0.7-0.4-1.1-0.6c-0.4-0.2-0.9-0.3-1.3-0.5
			c-0.4-0.2-0.9-0.3-1.3-0.5c-0.4-0.2-0.8-0.5-1.1-0.8c-0.3-0.3-0.6-0.7-0.8-1.2c-0.2-0.5-0.3-1-0.3-1.7c0-0.7,0.1-1.5,0.4-2.1
			c0.3-0.7,0.7-1.3,1.2-1.8c0.5-0.5,1.1-0.9,1.9-1.3c0.7-0.3,1.6-0.5,2.5-0.5c0.9,0,1.8,0.2,2.5,0.5c0.8,0.4,1.4,0.8,1.9,1.5
			L199.3,91z"/>
		<path class="st0" d="M215.9,96.3c0,0.6-0.1,1.1-0.3,1.5c-0.2,0.5-0.7,0.9-1.3,1.3c-0.6,0.4-1.5,0.7-2.5,1
			c-1.1,0.3-2.5,0.5-4.2,0.7c0,0.1,0,0.2,0,0.3s0,0.2,0,0.3c0,1.1,0.2,2,0.7,2.6c0.5,0.6,1.3,0.9,2.3,0.9c0.4,0,0.8,0,1.1-0.1
			c0.3-0.1,0.6-0.2,0.9-0.3c0.3-0.1,0.5-0.3,0.7-0.4c0.2-0.1,0.4-0.3,0.5-0.4c0.2-0.1,0.3-0.2,0.4-0.3c0.1-0.1,0.3-0.1,0.4-0.1
			c0.2,0,0.3,0.1,0.4,0.2l0.6,0.7c-0.4,0.4-0.9,0.8-1.3,1.1c-0.4,0.3-0.8,0.6-1.3,0.8c-0.4,0.2-0.9,0.4-1.4,0.5
			c-0.5,0.1-1,0.1-1.5,0.1c-0.7,0-1.4-0.1-2-0.4c-0.6-0.2-1.1-0.6-1.5-1s-0.7-1-0.9-1.6c-0.2-0.6-0.3-1.4-0.3-2.2
			c0-0.7,0.1-1.3,0.2-2c0.1-0.7,0.3-1.3,0.6-1.9c0.3-0.6,0.6-1.1,1-1.7c0.4-0.5,0.8-0.9,1.3-1.3c0.5-0.4,1.1-0.7,1.7-0.9
			c0.6-0.2,1.3-0.3,1.9-0.3c0.7,0,1.2,0.1,1.7,0.3c0.5,0.2,0.9,0.4,1.2,0.7s0.5,0.6,0.7,1C215.8,95.6,215.9,96,215.9,96.3z M212,95
			c-0.5,0-1,0.1-1.5,0.3c-0.5,0.2-0.9,0.5-1.2,0.9c-0.4,0.4-0.6,0.8-0.9,1.4c-0.2,0.5-0.4,1.1-0.6,1.7c1.3-0.2,2.4-0.3,3.2-0.6
			c0.8-0.2,1.4-0.4,1.8-0.7c0.4-0.2,0.7-0.5,0.8-0.8c0.1-0.3,0.2-0.6,0.2-0.9c0-0.2,0-0.3-0.1-0.5c-0.1-0.2-0.2-0.3-0.3-0.5
			c-0.1-0.1-0.3-0.2-0.6-0.3C212.6,95,212.3,95,212,95z"/>
		<path class="st0" d="M221.9,106.4l1.6-12.9h1.1c0.5,0,0.8,0.3,0.8,0.8l-0.2,2.3c0.6-1.1,1.3-1.9,2.1-2.4c0.8-0.5,1.6-0.8,2.4-0.8
			c0.9,0,1.5,0.3,1.9,0.9c0.4,0.6,0.6,1.4,0.6,2.6c0.6-1.2,1.4-2,2.2-2.6c0.8-0.6,1.7-0.8,2.5-0.8c1,0,1.7,0.3,2.1,0.9
			c0.5,0.6,0.7,1.5,0.7,2.7c0,0.2,0,0.4,0,0.6s0,0.4-0.1,0.7l-1,8.2h-2.2l1-8.2c0.1-0.4,0.1-0.8,0.1-1.1c0-0.6-0.1-1.1-0.3-1.4
			c-0.2-0.3-0.6-0.5-1.1-0.5c-0.4,0-0.7,0.1-1.1,0.3c-0.4,0.2-0.7,0.4-1.1,0.8c-0.3,0.4-0.7,0.8-1,1.3s-0.6,1.1-0.8,1.8l-0.8,7h-2.3
			l1-8.2c0-0.2,0-0.4,0.1-0.6s0-0.4,0-0.6c0-0.6-0.1-1-0.3-1.3c-0.2-0.3-0.6-0.4-1.1-0.4c-0.4,0-0.8,0.1-1.2,0.3
			c-0.4,0.2-0.7,0.5-1.1,0.9c-0.3,0.4-0.7,0.9-0.9,1.4c-0.3,0.6-0.6,1.2-0.8,1.9l-0.8,6.7H221.9z"/>
		<path class="st0" d="M246.1,110.7l2.1-17.2h1.1c0.5,0,0.8,0.3,0.8,0.8l-0.2,2.7c0.3-0.6,0.7-1.1,1.1-1.5c0.4-0.5,0.8-0.8,1.2-1.2
			s0.9-0.6,1.3-0.7c0.5-0.2,0.9-0.3,1.4-0.3c1.1,0,2,0.4,2.6,1.2c0.6,0.8,0.9,2,0.9,3.5c0,0.7-0.1,1.4-0.2,2.1s-0.4,1.4-0.6,2
			c-0.3,0.6-0.6,1.2-1,1.8c-0.4,0.5-0.8,1-1.3,1.4c-0.5,0.4-1,0.7-1.5,0.9c-0.5,0.2-1.1,0.3-1.7,0.3c-0.6,0-1.2-0.1-1.8-0.4
			c-0.5-0.3-1-0.6-1.3-1.1l-0.7,5.6H246.1z M254.1,95.1c-0.4,0-0.8,0.1-1.3,0.4c-0.4,0.3-0.8,0.6-1.2,1.1c-0.4,0.5-0.8,1-1.1,1.6
			c-0.3,0.6-0.6,1.3-0.9,2l-0.4,3.3c0.3,0.5,0.7,0.8,1.2,1c0.5,0.2,0.9,0.3,1.4,0.3c0.4,0,0.9-0.1,1.3-0.3c0.4-0.2,0.8-0.4,1.1-0.8
			c0.3-0.3,0.6-0.7,0.9-1.1c0.3-0.4,0.5-0.9,0.6-1.4c0.2-0.5,0.3-1,0.4-1.5c0.1-0.5,0.1-1,0.1-1.5c0-1-0.2-1.8-0.6-2.3
			C255.2,95.4,254.7,95.1,254.1,95.1z"/>
		<path class="st0" d="M264.8,106.4l2.3-18.7h2.2l-2.3,18.7H264.8z"/>
		<path class="st0" d="M279.4,93.5l-1.6,12.9h-2.2l1.6-12.9H279.4z M280.2,89.5c0,0.2,0,0.4-0.1,0.6c-0.1,0.2-0.2,0.4-0.4,0.5
			c-0.1,0.1-0.3,0.3-0.5,0.3c-0.2,0.1-0.4,0.1-0.6,0.1c-0.2,0-0.4,0-0.6-0.1c-0.2-0.1-0.4-0.2-0.5-0.3c-0.1-0.1-0.3-0.3-0.3-0.5
			c-0.1-0.2-0.1-0.4-0.1-0.6c0-0.2,0-0.4,0.1-0.6c0.1-0.2,0.2-0.4,0.3-0.5c0.1-0.1,0.3-0.3,0.5-0.4c0.2-0.1,0.4-0.1,0.6-0.1
			c0.2,0,0.4,0,0.6,0.1c0.2,0.1,0.4,0.2,0.5,0.3c0.1,0.1,0.3,0.3,0.4,0.5S280.2,89.3,280.2,89.5z"/>
		<path class="st0" d="M294.4,105.3c-0.4,0.3-0.8,0.6-1.2,0.8c-0.4,0.2-0.8,0.3-1.3,0.4c-0.4,0.1-0.9,0.1-1.4,0.1
			c-0.8,0-1.4-0.1-2-0.4c-0.6-0.3-1.1-0.6-1.4-1.1c-0.4-0.5-0.7-1-0.9-1.7c-0.2-0.6-0.3-1.4-0.3-2.1c0-1,0.2-2,0.5-3
			c0.3-1,0.8-1.8,1.4-2.5c0.6-0.7,1.3-1.3,2.1-1.8c0.8-0.4,1.7-0.7,2.7-0.7c0.9,0,1.6,0.2,2.2,0.5c0.6,0.3,1.1,0.7,1.5,1.3l-0.7,0.8
			c-0.1,0.1-0.1,0.1-0.2,0.2c-0.1,0-0.2,0.1-0.3,0.1c-0.1,0-0.2-0.1-0.4-0.2c-0.1-0.1-0.3-0.2-0.4-0.4s-0.4-0.2-0.7-0.4
			c-0.3-0.1-0.6-0.2-1.1-0.2c-0.6,0-1.1,0.2-1.7,0.5c-0.5,0.3-1,0.8-1.4,1.3c-0.4,0.6-0.7,1.2-0.9,2c-0.2,0.8-0.3,1.6-0.3,2.4
			c0,0.5,0.1,1,0.2,1.4c0.1,0.4,0.3,0.8,0.5,1.1c0.2,0.3,0.5,0.5,0.9,0.7c0.3,0.2,0.8,0.2,1.2,0.2c0.4,0,0.7,0,1-0.1
			c0.3-0.1,0.6-0.2,0.8-0.3c0.2-0.1,0.4-0.2,0.6-0.4c0.2-0.1,0.3-0.3,0.5-0.4c0.1-0.1,0.3-0.2,0.4-0.3c0.1-0.1,0.2-0.1,0.4-0.1
			c0.2,0,0.3,0.1,0.4,0.2l0.6,0.7C295.3,104.5,294.8,104.9,294.4,105.3z"/>
		<path class="st0" d="M312.2,96.3c0,0.6-0.1,1.1-0.3,1.5c-0.2,0.5-0.7,0.9-1.3,1.3c-0.6,0.4-1.5,0.7-2.5,1s-2.5,0.5-4.2,0.7
			c0,0.1,0,0.2,0,0.3s0,0.2,0,0.3c0,1.1,0.3,2,0.8,2.6c0.5,0.6,1.3,0.9,2.3,0.9c0.4,0,0.8,0,1.1-0.1c0.3-0.1,0.6-0.2,0.9-0.3
			c0.3-0.1,0.5-0.3,0.7-0.4c0.2-0.1,0.4-0.3,0.5-0.4c0.2-0.1,0.3-0.2,0.4-0.3c0.1-0.1,0.3-0.1,0.4-0.1c0.2,0,0.3,0.1,0.4,0.2
			l0.6,0.7c-0.4,0.4-0.9,0.8-1.3,1.1c-0.4,0.3-0.8,0.6-1.3,0.8s-0.9,0.4-1.4,0.5c-0.5,0.1-1,0.1-1.5,0.1c-0.7,0-1.4-0.1-2-0.4
			c-0.6-0.2-1.1-0.6-1.5-1c-0.4-0.5-0.7-1-0.9-1.6c-0.2-0.6-0.3-1.4-0.3-2.2c0-0.7,0.1-1.3,0.2-2c0.1-0.7,0.3-1.3,0.6-1.9
			c0.3-0.6,0.6-1.1,1-1.7c0.4-0.5,0.8-0.9,1.3-1.3c0.5-0.4,1.1-0.7,1.7-0.9s1.3-0.3,1.9-0.3c0.7,0,1.2,0.1,1.7,0.3
			c0.5,0.2,0.9,0.4,1.2,0.7c0.3,0.3,0.5,0.6,0.7,1C312.2,95.6,312.2,96,312.2,96.3z M308.3,95c-0.5,0-1,0.1-1.5,0.3
			c-0.5,0.2-0.9,0.5-1.2,0.9c-0.4,0.4-0.6,0.8-0.9,1.4c-0.2,0.5-0.4,1.1-0.6,1.7c1.3-0.2,2.4-0.3,3.2-0.6c0.8-0.2,1.4-0.4,1.8-0.7
			c0.4-0.2,0.7-0.5,0.8-0.8c0.1-0.3,0.2-0.6,0.2-0.9c0-0.2,0-0.3-0.1-0.5c-0.1-0.2-0.2-0.3-0.3-0.5c-0.2-0.1-0.3-0.2-0.6-0.3
			S308.6,95,308.3,95z"/>
		<path class="st0" d="M318,104.8c0-0.4,0.1-0.7,0.4-1c0.3-0.3,0.6-0.4,1.1-0.4c0.3,0,0.5,0,0.7,0.1c0.2,0.1,0.4,0.2,0.5,0.4
			s0.2,0.4,0.3,0.6c0.1,0.2,0.1,0.5,0.1,0.7c0,0.4-0.1,0.8-0.2,1.2c-0.1,0.4-0.3,0.8-0.5,1.2c-0.2,0.4-0.5,0.8-0.8,1.2
			c-0.3,0.4-0.6,0.7-1,1.1l-0.4-0.4c-0.1-0.1-0.2-0.2-0.2-0.4c0-0.1,0.1-0.2,0.2-0.4c0.1-0.2,0.3-0.4,0.5-0.6
			c0.2-0.2,0.4-0.5,0.5-0.8c0.2-0.3,0.3-0.6,0.3-1h-0.2c-0.4,0-0.8-0.1-1.1-0.4C318.2,105.6,318,105.3,318,104.8z"/>
		<path class="st0" d="M352.1,106.4h-1.8c-0.2,0-0.4-0.1-0.5-0.2c-0.1-0.1-0.2-0.2-0.2-0.4l-1-4.4h-7.5l-2.1,4.4
			c-0.1,0.2-0.2,0.3-0.4,0.4c-0.2,0.1-0.3,0.2-0.5,0.2h-1.9l9-18.2h2.4L352.1,106.4z M341.9,99.6h6.3l-1.7-7.5
			c-0.1-0.2-0.1-0.5-0.2-0.7s-0.1-0.6-0.2-0.9c-0.1,0.3-0.2,0.6-0.4,0.9c-0.1,0.3-0.2,0.5-0.4,0.8L341.9,99.6z"/>
		<path class="st0" d="M362.3,95.4L361,106l-0.6,2.6c-0.1,0.6-0.5,1-1.2,1h-0.9l1.7-14.1l-1.3-0.2c-0.1,0-0.3-0.1-0.3-0.2
			c-0.1-0.1-0.1-0.2-0.1-0.3l0.1-1h1.9l0.2-1.2c0.1-0.7,0.3-1.4,0.6-2c0.3-0.6,0.6-1.1,1.1-1.4c0.4-0.4,0.9-0.7,1.4-0.9
			c0.5-0.2,1.1-0.3,1.8-0.3c0.5,0,1,0.1,1.4,0.3l-0.2,1.2c0,0.1-0.1,0.2-0.2,0.2c-0.1,0-0.2,0-0.4,0c-0.1,0-0.2,0-0.3,0
			s-0.2,0-0.3,0c-0.4,0-0.7,0.1-1,0.2c-0.3,0.1-0.6,0.3-0.8,0.5c-0.2,0.2-0.4,0.5-0.6,0.9c-0.2,0.4-0.3,0.8-0.3,1.4l-0.2,1.2h3.2
			l-0.2,1.6H362.3z"/>
		<path class="st0" d="M374.7,95.4l-1.3,10.6l-0.6,2.6c-0.1,0.6-0.5,1-1.2,1h-0.9l1.7-14.1l-1.3-0.2c-0.1,0-0.3-0.1-0.3-0.2
			c-0.1-0.1-0.1-0.2-0.1-0.3l0.1-1h1.9l0.2-1.2c0.1-0.7,0.3-1.4,0.6-2c0.3-0.6,0.6-1.1,1.1-1.4c0.4-0.4,0.9-0.7,1.4-0.9
			c0.5-0.2,1.1-0.3,1.8-0.3c0.5,0,1,0.1,1.4,0.3l-0.2,1.2c0,0.1-0.1,0.2-0.2,0.2c-0.1,0-0.2,0-0.4,0c-0.1,0-0.2,0-0.3,0
			s-0.2,0-0.3,0c-0.4,0-0.7,0.1-1,0.2c-0.3,0.1-0.6,0.3-0.8,0.5c-0.2,0.2-0.4,0.5-0.6,0.9c-0.2,0.4-0.3,0.8-0.3,1.4l-0.2,1.2h3.2
			l-0.2,1.6H374.7z"/>
		<path class="st0" d="M386.1,93.5l-1.6,12.9h-2.2l1.6-12.9H386.1z M386.9,89.5c0,0.2,0,0.4-0.1,0.6c-0.1,0.2-0.2,0.4-0.4,0.5
			c-0.1,0.1-0.3,0.3-0.5,0.3c-0.2,0.1-0.4,0.1-0.6,0.1c-0.2,0-0.4,0-0.6-0.1c-0.2-0.1-0.4-0.2-0.5-0.3c-0.1-0.1-0.3-0.3-0.3-0.5
			c-0.1-0.2-0.1-0.4-0.1-0.6c0-0.2,0-0.4,0.1-0.6c0.1-0.2,0.2-0.4,0.3-0.5c0.1-0.1,0.3-0.3,0.5-0.4c0.2-0.1,0.4-0.1,0.6-0.1
			c0.2,0,0.4,0,0.6,0.1c0.2,0.1,0.4,0.2,0.5,0.3c0.1,0.1,0.3,0.3,0.4,0.5C386.9,89.1,386.9,89.3,386.9,89.5z"/>
		<path class="st0" d="M401.6,106.4c-0.3,0-0.5-0.1-0.6-0.2c-0.1-0.2-0.2-0.3-0.2-0.6l0.2-2.7c-0.3,0.6-0.7,1-1.1,1.5
			c-0.4,0.4-0.8,0.8-1.2,1.1c-0.4,0.3-0.9,0.6-1.3,0.7c-0.5,0.2-0.9,0.3-1.4,0.3c-1.1,0-2-0.4-2.6-1.2c-0.6-0.8-0.9-2-0.9-3.5
			c0-0.7,0.1-1.4,0.2-2.1c0.1-0.7,0.4-1.4,0.6-2c0.3-0.6,0.6-1.2,1-1.8c0.4-0.5,0.8-1,1.3-1.4c0.5-0.4,1-0.7,1.5-0.9
			c0.5-0.2,1.1-0.3,1.7-0.3c0.6,0,1.2,0.1,1.7,0.4c0.5,0.2,1,0.6,1.3,1.1l0.9-7.1h2.2l-2.3,18.7H401.6z M396.9,104.7
			c0.4,0,0.8-0.1,1.2-0.4c0.4-0.2,0.8-0.6,1.2-1c0.4-0.4,0.8-1,1.1-1.6c0.3-0.6,0.6-1.3,0.9-2l0.4-3.4c-0.3-0.4-0.7-0.8-1.2-1
			c-0.5-0.2-0.9-0.3-1.4-0.3c-0.7,0-1.3,0.2-1.8,0.6c-0.5,0.4-1,0.9-1.4,1.5c-0.4,0.6-0.7,1.3-0.9,2.1c-0.2,0.8-0.3,1.5-0.3,2.3
			c0,1,0.2,1.8,0.6,2.3C395.7,104.5,396.3,104.7,396.9,104.7z"/>
		<path class="st0" d="M420.5,106.4h-1.2c-0.3,0-0.5-0.1-0.6-0.2c-0.1-0.2-0.2-0.3-0.2-0.6l0.2-2.6c-0.3,0.5-0.6,1-1,1.5
			c-0.4,0.4-0.7,0.8-1.1,1.1c-0.4,0.3-0.8,0.5-1.3,0.7c-0.4,0.2-0.9,0.3-1.4,0.3c-0.5,0-1-0.1-1.4-0.3c-0.4-0.2-0.8-0.5-1.1-0.9
			c-0.3-0.4-0.5-0.9-0.7-1.4c-0.2-0.6-0.2-1.2-0.2-1.9c0-0.8,0.1-1.5,0.3-2.2c0.2-0.7,0.5-1.4,0.8-2.1c0.4-0.6,0.8-1.2,1.3-1.8
			c0.5-0.5,1-1,1.7-1.4c0.6-0.4,1.3-0.7,2-0.9c0.7-0.2,1.4-0.3,2.2-0.3c0.6,0,1.1,0,1.6,0.1c0.5,0.1,1,0.2,1.6,0.5L420.5,106.4z
			 M414.9,104.7c0.4,0,0.8-0.1,1.2-0.4c0.4-0.3,0.8-0.6,1.1-1.1c0.4-0.5,0.7-1,1-1.6c0.3-0.6,0.6-1.3,0.8-2l0.6-4.3
			c-0.2-0.2-0.4-0.2-0.6-0.2c-0.2,0-0.4,0-0.5,0c-0.5,0-1,0.1-1.5,0.2c-0.5,0.2-0.9,0.4-1.3,0.7c-0.4,0.3-0.8,0.6-1.1,1.1
			c-0.3,0.4-0.6,0.9-0.9,1.3c-0.2,0.5-0.4,1-0.6,1.6c-0.1,0.6-0.2,1.1-0.2,1.7C412.9,103.7,413.6,104.7,414.9,104.7z"/>
		<path class="st0" d="M428.6,106.4l2.3-18.7h2.2l-1.1,9.1c0.3-0.5,0.7-1,1.1-1.4c0.4-0.4,0.8-0.8,1.2-1.1c0.4-0.3,0.8-0.5,1.3-0.7
			c0.4-0.2,0.9-0.2,1.4-0.2c1.1,0,2,0.4,2.6,1.2c0.6,0.8,0.9,2,0.9,3.5c0,0.7-0.1,1.4-0.2,2.1s-0.4,1.4-0.6,2
			c-0.3,0.6-0.6,1.2-1,1.8c-0.4,0.5-0.8,1-1.3,1.4c-0.5,0.4-1,0.7-1.5,0.9c-0.5,0.2-1.1,0.3-1.7,0.3c-0.7,0-1.3-0.1-1.9-0.4
			c-0.6-0.3-1-0.7-1.4-1.2l-0.2,0.8c-0.1,0.2-0.2,0.4-0.3,0.5c-0.1,0.1-0.3,0.2-0.5,0.2H428.6z M436,95.1c-0.4,0-0.8,0.1-1.2,0.4
			c-0.4,0.3-0.8,0.6-1.2,1.1c-0.4,0.4-0.8,1-1.1,1.6c-0.3,0.6-0.6,1.3-0.9,2l-0.4,3.3c0.3,0.5,0.7,0.8,1.2,1
			c0.5,0.2,0.9,0.3,1.4,0.3c0.4,0,0.9-0.1,1.3-0.3c0.4-0.2,0.8-0.4,1.1-0.8c0.3-0.3,0.6-0.7,0.9-1.1c0.3-0.4,0.5-0.9,0.6-1.4
			c0.2-0.5,0.3-1,0.4-1.5c0.1-0.5,0.1-1,0.1-1.5c0-1-0.2-1.8-0.6-2.3C437.2,95.4,436.7,95.1,436,95.1z"/>
		<path class="st0" d="M450.7,93.5l-1.6,12.9h-2.2l1.6-12.9H450.7z M451.5,89.5c0,0.2,0,0.4-0.1,0.6c-0.1,0.2-0.2,0.4-0.4,0.5
			c-0.1,0.1-0.3,0.3-0.5,0.3c-0.2,0.1-0.4,0.1-0.6,0.1c-0.2,0-0.4,0-0.6-0.1c-0.2-0.1-0.4-0.2-0.5-0.3c-0.1-0.1-0.3-0.3-0.3-0.5
			c-0.1-0.2-0.1-0.4-0.1-0.6c0-0.2,0-0.4,0.1-0.6c0.1-0.2,0.2-0.4,0.3-0.5c0.1-0.1,0.3-0.3,0.5-0.4c0.2-0.1,0.4-0.1,0.6-0.1
			c0.2,0,0.4,0,0.6,0.1c0.2,0.1,0.4,0.2,0.5,0.3c0.1,0.1,0.3,0.3,0.4,0.5S451.5,89.3,451.5,89.5z"/>
		<path class="st0" d="M457.6,106.4l2.3-18.7h2.2l-2.3,18.7H457.6z"/>
		<path class="st0" d="M478.5,96.3c0,0.6-0.1,1.1-0.3,1.5c-0.2,0.5-0.7,0.9-1.3,1.3c-0.6,0.4-1.5,0.7-2.5,1s-2.5,0.5-4.2,0.7
			c0,0.1,0,0.2,0,0.3s0,0.2,0,0.3c0,1.1,0.3,2,0.8,2.6c0.5,0.6,1.3,0.9,2.3,0.9c0.4,0,0.8,0,1.1-0.1c0.3-0.1,0.6-0.2,0.9-0.3
			c0.3-0.1,0.5-0.3,0.7-0.4c0.2-0.1,0.4-0.3,0.5-0.4c0.2-0.1,0.3-0.2,0.4-0.3c0.1-0.1,0.3-0.1,0.4-0.1c0.2,0,0.3,0.1,0.4,0.2
			l0.6,0.7c-0.4,0.4-0.9,0.8-1.3,1.1c-0.4,0.3-0.8,0.6-1.3,0.8s-0.9,0.4-1.4,0.5c-0.5,0.1-1,0.1-1.5,0.1c-0.7,0-1.4-0.1-2-0.4
			c-0.6-0.2-1.1-0.6-1.5-1c-0.4-0.5-0.7-1-0.9-1.6c-0.2-0.6-0.3-1.4-0.3-2.2c0-0.7,0.1-1.3,0.2-2s0.3-1.3,0.6-1.9
			c0.3-0.6,0.6-1.1,1-1.7c0.4-0.5,0.8-0.9,1.3-1.3c0.5-0.4,1.1-0.7,1.7-0.9c0.6-0.2,1.3-0.3,1.9-0.3c0.7,0,1.2,0.1,1.7,0.3
			c0.5,0.2,0.9,0.4,1.2,0.7c0.3,0.3,0.5,0.6,0.7,1C478.4,95.6,478.5,96,478.5,96.3z M474.6,95c-0.5,0-1,0.1-1.5,0.3
			c-0.5,0.2-0.9,0.5-1.2,0.9c-0.4,0.4-0.6,0.8-0.9,1.4c-0.2,0.5-0.4,1.1-0.6,1.7c1.3-0.2,2.4-0.3,3.2-0.6c0.8-0.2,1.4-0.4,1.8-0.7
			c0.4-0.2,0.7-0.5,0.8-0.8c0.1-0.3,0.2-0.6,0.2-0.9c0-0.2,0-0.3-0.1-0.5s-0.2-0.3-0.3-0.5c-0.2-0.1-0.3-0.2-0.6-0.3
			S474.9,95,474.6,95z"/>
	</g>
</g>
</svg>
