<svg xmlns="http://www.w3.org/2000/svg" width="99.143" height="86.754" viewBox="0 0 99.143 86.754">
  <g id="Large" transform="translate(-13.3 -19.584)">
    <path id="Path_5158" data-name="Path 5158" d="M60.782,107.8A43.362,43.362,0,0,1,22.3,84.356a1.224,1.224,0,0,1,2.149-1.172,40.956,40.956,0,0,0,72.77,0,1.224,1.224,0,0,1,2.149,1.172A43.043,43.043,0,0,1,64.494,107.6a24.268,24.268,0,0,1-3.712.2Z" transform="translate(-0.206 -1.461)" fill="#fff"/>
    <path id="Path_5159" data-name="Path 5159" d="M103.059,83.579H18.372A1.188,1.188,0,0,1,17.2,82.407a1.26,1.26,0,0,1,1.172-1.172h84.687a1.172,1.172,0,0,1,0,2.344Zm-84.1-25.787h-.2a1.2,1.2,0,0,1-.977-1.367A43.4,43.4,0,0,1,67.309,20.088a19.505,19.505,0,0,1,2.54.488,1.22,1.22,0,0,1-.586,2.344A41.054,41.054,0,0,0,20.521,54.373a19.559,19.559,0,0,0-.391,2.344,1.048,1.048,0,0,1-1.172,1.074ZM93.1,49a12.8,12.8,0,0,1,0-25.592,13.272,13.272,0,0,1,5.177,1.074,1.236,1.236,0,0,1-.781,2.344c-.1,0-.1-.1-.2-.1a10.428,10.428,0,1,0-8.5,19.047,10.621,10.621,0,0,0,8.791-.1,1.245,1.245,0,1,1,1.074,2.247A15.262,15.262,0,0,1,93.1,49Z" transform="translate(-0.091 0)" fill="#fff"/>
    <path id="Path_5160" data-name="Path 5160" d="M92.946,34.544H77.122a1.188,1.188,0,0,1-1.172-1.172A1.261,1.261,0,0,1,77.122,32.2H92.946a1.172,1.172,0,0,1,0,2.344Zm0,6.642H77.122a1.188,1.188,0,0,1-1.172-1.172,1.261,1.261,0,0,1,1.172-1.172H92.946a1.172,1.172,0,0,1,0,2.344ZM81.322,75.96H41.372A1.188,1.188,0,0,1,40.2,74.788a1.26,1.26,0,0,1,1.172-1.172H81.225A1.188,1.188,0,0,1,82.4,74.788,1.1,1.1,0,0,1,81.322,75.96Z" transform="translate(-0.625 -0.293)" fill="#fff"/>
    <path id="Path_5161" data-name="Path 5161" d="M105.508,76.271H96.326A1.188,1.188,0,0,1,95.154,75.1a1.261,1.261,0,0,1,1.172-1.172h9.182a4.377,4.377,0,0,0,4.4-4.4V67.578c0-2.54-4.591-4.591-6.251-5.177L86.363,58.591a.741.741,0,0,1-.391-.2l-9.279-5.861h-.1a27.906,27.906,0,0,0-14.456-4.4h-16.7a19.82,19.82,0,0,0-9.475,2.442l-13.187,7.13a.587.587,0,0,1-.391.1l-3.028.488a4.32,4.32,0,0,0-3.614,4.3V70.7a3.043,3.043,0,0,0,3.028,3.028h6.349A1.188,1.188,0,0,1,26.291,74.9a1.37,1.37,0,0,1-1.172,1.367H18.77A5.461,5.461,0,0,1,13.3,70.8V62.6a6.716,6.716,0,0,1,5.568-6.642l2.833-.488,12.991-7.13A21.349,21.349,0,0,1,45.338,45.6h16.8A30.689,30.689,0,0,1,78.06,50.386l9.084,5.763,17.191,3.712h.1c.781.293,8.01,2.833,8.01,7.521v1.954A7.026,7.026,0,0,1,105.508,76.271Z" transform="translate(0 -0.604)" fill="#fff"/>
    <path id="Path_5162" data-name="Path 5162" d="M76.16,60.944H37.772A1.188,1.188,0,0,1,36.6,59.772,1.261,1.261,0,0,1,37.772,58.6H76.257a1.188,1.188,0,0,1,1.172,1.172,1.279,1.279,0,0,1-1.27,1.172Zm35.555,8.6h-1.954c-4.591,0-7.814-1.172-9.67-3.419a7.862,7.862,0,0,1-1.563-6.056,1.245,1.245,0,0,1,2.442.488,5.355,5.355,0,0,0,1.074,4c1.367,1.661,4,2.54,7.717,2.54h1.954a1.188,1.188,0,0,1,1.172,1.172A1.357,1.357,0,0,1,111.714,69.54ZM64.243,67.489H58.968A1.188,1.188,0,0,1,57.8,66.317a1.26,1.26,0,0,1,1.172-1.172h5.275a1.172,1.172,0,1,1,0,2.344Z" transform="translate(-0.541 -0.906)" fill="#fff"/>
    <path id="Path_5163" data-name="Path 5163" d="M58.194,60.1a1.188,1.188,0,0,1-1.172-1.172V52.972A1.188,1.188,0,0,1,58.194,51.8a1.26,1.26,0,0,1,1.172,1.172V58.93A1.129,1.129,0,0,1,58.194,60.1Zm-15.922,0A1.188,1.188,0,0,1,41.1,58.93v-4.1a1.188,1.188,0,0,1,1.172-1.172,1.261,1.261,0,0,1,1.172,1.172v4.1A1.078,1.078,0,0,1,42.272,60.1ZM89.158,84.327a3.323,3.323,0,0,1-.977-.1,8.628,8.628,0,1,1,.977.1ZM88.767,68.7a6.654,6.654,0,1,0,.781,0,1.079,1.079,0,0,0-.781,0ZM96.972,76.122Z" transform="translate(-0.646 -0.748)" fill="#fff"/>
    <path id="Path_5164" data-name="Path 5164" d="M88.762,79.783h-.391a4.158,4.158,0,1,1,.488-8.3,4.09,4.09,0,0,1,3.907,4.4A4.215,4.215,0,0,1,88.762,79.783Zm0-5.861a1.758,1.758,0,1,0,0,3.516,1.789,1.789,0,0,0,1.758-1.563,1.763,1.763,0,0,0-1.563-1.954h-.2ZM33.183,84.667a3.323,3.323,0,0,1-.977-.1,8.628,8.628,0,1,1,.977.1Zm0-15.628a6.642,6.642,0,0,0,0,13.284,6.505,6.505,0,0,0,6.544-5.958,6.728,6.728,0,0,0-5.861-7.326Z" transform="translate(-0.25 -1.088)" fill="#fff"/>
    <path id="Path_5165" data-name="Path 5165" d="M33.3,79.9h-.391A4.175,4.175,0,1,1,37.5,76.19,4.221,4.221,0,0,1,33.3,79.9Zm0-5.861a1.758,1.758,0,0,0,0,3.516,1.789,1.789,0,0,0,1.758-1.563A1.763,1.763,0,0,0,33.5,74.041h-.2ZM36.232,76.092Z" transform="translate(-0.368 -1.207)" fill="#fff"/>
  </g>
</svg>
