<svg xmlns="http://www.w3.org/2000/svg" width="136.541" height="88.226" viewBox="0 0 136.541 88.226">
  <g id="eligible-in-car-delivery._V517817441_" transform="translate(-57.5 -49)">
    <path id="Path_5148" data-name="Path 5148" d="M169.821,63.2H154.505V51.76a1.428,1.428,0,0,0-1.444-1.444L132.57,50a1.491,1.491,0,0,0-1.056.423,1.433,1.433,0,0,0-.422,1.056v9.788L125.81,56.83a1.434,1.434,0,0,0-1.831-.035l-6.654,5.07v10.14H92.644A1.45,1.45,0,0,0,91.2,73.449V97.215h.7V73.449a.744.744,0,0,1,.739-.739h24.681V90.455h.7V62.217l6.373-4.859a.745.745,0,0,1,.951.035l5.739,4.824v17.71h.7V51.444a.722.722,0,0,1,.739-.739l20.491.317a.744.744,0,0,1,.739.739V75.914h.7V63.907H169.75a.744.744,0,0,1,.739.739V76.3h.7V64.647A1.369,1.369,0,0,0,169.821,63.2Z" transform="translate(-21.187)" fill="#fff" stroke="#fff" stroke-width="2" opacity="0.5"/>
    <path id="Path_5149" data-name="Path 5149" d="M250.3,190.1" transform="translate(-124.27 -90.773)" fill="rgba(0,0,0,0)" stroke="#fff" stroke-miterlimit="10" stroke-width="4"/>
    <path id="Path_5150" data-name="Path 5150" d="M390.813,104.7a10.593,10.593,0,0,1,10.07,12.393,12.292,12.292,0,0,1-3.31,6.161c-.423.528-.845,1.056-1.268,1.549-.88,1.056-1.725,2.148-2.605,3.2-.88,1.091-1.8,2.183-2.641,3.31-.07.07-.141.176-.211.176l-.141.035-.176-.035a.223.223,0,0,1-.211-.176c-.845-1.127-1.76-2.218-2.641-3.31-.88-1.056-1.725-2.148-2.605-3.2-.422-.528-.845-1.056-1.268-1.549a12.293,12.293,0,0,1-3.31-6.161,10.542,10.542,0,0,1,10.07-12.393Z" transform="translate(-208.519 -35.441)" fill="rgba(0,0,0,0)" stroke="#fff" stroke-miterlimit="10" stroke-width="3"/>
    <circle id="Ellipse_301" data-name="Ellipse 301" cx="3.345" cy="3.345" r="3.345" transform="translate(178.632 76.723)" fill="rgba(0,0,0,0)" stroke="#fff" stroke-miterlimit="10" stroke-width="4"/>
    <g id="Group_1755" data-name="Group 1755" transform="translate(58.5 82.342)">
      <path id="Path_5151" data-name="Path 5151" d="M179.265,176.518l-4.894-11.161a.721.721,0,0,0,.282-.282,1.8,1.8,0,0,0,.211-.7.212.212,0,0,1,.035-.141,9.44,9.44,0,0,0,.176-2.253c-.07-1.9-.493-3.239-1.373-4.049a5.063,5.063,0,0,0-4.084-.88c-2.641-3.274-9.647-10.351-9.929-10.668l-.035-.035a14.367,14.367,0,0,0-6.584-3.134,137.909,137.909,0,0,0-21.407-1.338c-5.845.07-14.682.211-20.491,3.626a61.147,61.147,0,0,0-8.239,5.985,58.227,58.227,0,0,1-8.239,5.985c-6.2.845-13.027,2.148-19.294,3.626-4.155.986-8.7,3.169-11.408,6.549h-.035v.07a10.2,10.2,0,0,0-2.324,7.042c0,.07-.035,1.021-.035,1.8H58.5v8.591H70.717a12.741,12.741,0,0,0,25.174-.352h50.1a12.73,12.73,0,0,0,25.209,0h8.063v-8.274Zm-6.021-18.062a5.132,5.132,0,0,1,1.162,3.556,7.885,7.885,0,0,1-.176,2.077,1.525,1.525,0,0,0-.035.176c-.035.141-.07.352-.106.458-.035.035-.176.176-1.373-.423-.106-.035-.176-.106-.246-.106a12.5,12.5,0,0,1-2.042-1.056,7.293,7.293,0,0,1-2.711-2.359,3.141,3.141,0,0,1-.423-2.218.636.636,0,0,1,.493-.387c.563-.141,1.056-.246,1.549-.352a.034.034,0,0,0,.035.035l.035-.035a11.69,11.69,0,0,1,1.444-.141A3.6,3.6,0,0,1,173.245,158.456ZM64.38,168.349h5.563l-4.436,8.168H62.3c.035-1.127.035-1.725.035-1.76A9.651,9.651,0,0,1,64.38,168.349Zm18.872,26.759a12.041,12.041,0,1,1,12.041-12.041A12.059,12.059,0,0,1,83.252,195.108Zm47.18-35.913-8.485.106c-5.422.07-10.879.141-16.3.176a2.919,2.919,0,0,1-1.127-.141c-.352-.141-.387-.317-.387-.387-.035-.317.211-1.549,4.718-4.788l.07-.07a36.663,36.663,0,0,1,10-5.07,48.842,48.842,0,0,1,9.33-1.479,7.069,7.069,0,0,1,.88.035,1.414,1.414,0,0,1,1.268,1.408V159.2ZM158.6,195.108a12.041,12.041,0,1,1,12.041-12.041A12.059,12.059,0,0,1,158.6,195.108Zm12.675-10.95c.035-.352.035-.7.035-1.091a12.746,12.746,0,1,0-25.491,0c0,.352.035.739.035,1.091H131.065V148.985a2.135,2.135,0,0,0-1.9-2.113c-3.7-.317-10.21,1.373-10.492,1.444a36.721,36.721,0,0,0-10.21,5.176l-.07.07c-3.45,2.465-5.14,4.331-5,5.457a1.2,1.2,0,0,0,.81.951,3.876,3.876,0,0,0,1.408.176c5.422-.035,10.879-.106,16.3-.176l8.485-.106v24.294H95.927c.035-.352.035-.7.035-1.091a12.746,12.746,0,1,0-25.491,0c0,.493.035.951.07,1.408H59.169v-7.218h3.1v-.07h3.662L71.1,167.61H64.943c2.605-2.993,6.8-4.929,10.633-5.845,6.267-1.479,13.1-2.781,19.294-3.626h.07l.07-.035a58.2,58.2,0,0,0,8.38-6.091,58.8,58.8,0,0,1,8.133-5.915c5.669-3.345,14.365-3.45,20.139-3.521a136.547,136.547,0,0,1,21.3,1.338,13.41,13.41,0,0,1,6.232,2.993c.387.387,6.866,7.007,9.612,10.281-.493.106-.915.211-1.2.282a1.338,1.338,0,0,0-.951.775c-.458,1.021.282,2.535.458,2.852a7.473,7.473,0,0,0,2.958,2.605,14.96,14.96,0,0,0,2.113,1.091l.211.106a4.036,4.036,0,0,0,1.2.458L178.35,176.2h-4.612v.7h4.824v7.253Z" transform="translate(-58.5 -141.858)" fill="#fff" stroke="#fff" stroke-width="2"/>
      <rect id="Rectangle_4822" data-name="Rectangle 4822" width="5.704" height="1.162" transform="translate(61.052 22.091)" fill="#fff" stroke="#fff" stroke-width="2"/>
      <rect id="Rectangle_4823" data-name="Rectangle 4823" width="5.704" height="1.162" transform="translate(90.38 22.091)" fill="#fff" stroke="#fff" stroke-width="2"/>
      <path id="Path_5152" data-name="Path 5152" d="M120.283,245.9a4.683,4.683,0,1,0,4.683,4.683A4.7,4.7,0,0,0,120.283,245.9Zm0,8.661a3.979,3.979,0,1,1,3.979-3.979A4,4,0,0,1,120.283,254.561Z" transform="translate(-95.496 -209.268)" fill="#fff" stroke="#fff" stroke-width="2"/>
      <path id="Path_5153" data-name="Path 5153" d="M335.483,245.9a4.683,4.683,0,1,0,4.683,4.683A4.7,4.7,0,0,0,335.483,245.9Zm0,8.661a3.979,3.979,0,1,1,3.979-3.979A4,4,0,0,1,335.483,254.561Z" transform="translate(-234.927 -209.268)" fill="#fff" stroke="#fff" stroke-width="2"/>
      <path id="Path_5154" data-name="Path 5154" d="M300.231,166.061a21.615,21.615,0,0,0-2.535-3.732c-4.929-6.161-11.548-6.478-18.484-6.232l.035.7c8.1-.246,13.591.634,17.886,5.985a19.843,19.843,0,0,1,2.465,3.626.883.883,0,0,0,.141.246,3.762,3.762,0,0,1,.528,1.479,1.057,1.057,0,0,1-.106.423,1.215,1.215,0,0,1-.422.035h-.528c-2.429.07-4.894.035-7.288,0-1.373-.035-2.781-.035-4.19-.035H279v.7h8.767c1.373,0,2.817.035,4.19.035,1.373.035,2.781.035,4.19.035,1.056,0,2.077,0,3.134-.035h.493c.7,0,1.127-.035,1.232-1.056a3.885,3.885,0,0,0-.6-1.9A1.571,1.571,0,0,1,300.231,166.061Z" transform="translate(-201.365 -151.047)" fill="#fff" stroke="#fff" stroke-width="2"/>
    </g>
  </g>
</svg>
