<svg id="Livello_x0020_1" xmlns="http://www.w3.org/2000/svg" width="123.315" height="67.482" viewBox="0 0 123.315 67.482">
  <g id="_2571181658416">
    <path id="Path_5127" data-name="Path 5127" d="M8.749,0,0,52.37s8.2,8.2,25.417,3.425a10.465,10.465,0,0,1-.967-1.616c-1.6-3.334-1.616-7.85,1.388-12.413,4.21-6.417,10.524-7.589,15.394-7.338,1.308-10.683-1.149-21.583-19.148-14.062L25.326.171,8.749.011ZM33.8,50.891a21.893,21.893,0,0,0,5.234-7.3c.114-.546.2-1,.273-1.377-1.536-.011-4.1.626-5.586,4.574C32.983,48.74,33.176,50.128,33.8,50.891ZM17.874,45.623l2.651-15.007s.273-4.483,3.243-3.993.535,6.906.535,6.906L20.365,45.521l-2.48.1Z" fill="#fff" fill-rule="evenodd"/>
    <path id="Path_5128" data-name="Path 5128" d="M2186.175,3158.837s-13.664-5.347-20.684,5.347,4.369,20.729,11.389,12.367c0,0,.057,11.173-12.424,6.531l-1.456,4.483a18.635,18.635,0,0,0,10.615,1.217c6.075-1.058,8.2-6.257,8.749-9.5s3.811-20.433,3.811-20.433Zm-6.747,3.675s-6-1.945-8.749,5.313,5.234,9.455,6.94,3.026A54.532,54.532,0,0,0,2179.429,3162.511Z" transform="translate(-2138.391 -3121.576)" fill="#fff" fill-rule="evenodd"/>
    <path id="Path_5129" data-name="Path 5129" d="M4095.28,3158.837s-13.664-5.347-20.684,5.347,4.369,20.729,11.389,12.367a10.1,10.1,0,0,1-.626,3.243h6.008c.034-.171.068-.341.091-.512.535-3.242,3.811-20.433,3.811-20.433Zm-6.861,3.675s-6-1.945-8.749,5.313,5.233,9.455,6.94,3.026A54.471,54.471,0,0,0,4088.419,3162.511Z" transform="translate(-4026.061 -3121.576)" fill="#fff" fill-rule="evenodd"/>
    <path id="Path_5130" data-name="Path 5130" d="M5935.777,3123.383,5932,3145.147l6.269.057s1.514-14.1,5.075-16.417,4.482.751,3.674,5.234-2.1,11.286-2.1,11.286l6.1.057,2.537-12.64s1.354-4.369,4.323-4.642,2.048,4.107,1.514,7.509-1.672,9.716-1.672,9.716l6.371.1,2.594-15.871s.648-6.212-4.425-6.644-8.533,4.369-8.533,4.369-.216-5.347-6.1-4.483-6.474,4.05-6.474,4.05l.273-3.4-5.62-.057Z" transform="translate(-5864.51 -3087.157)" fill="#fff" fill-rule="evenodd"/>
    <path id="Exclusion_1" data-name="Exclusion 1" d="M10.266,23a13.554,13.554,0,0,1-7.123-1.952A6.611,6.611,0,0,1,.242,16.6a13.526,13.526,0,0,1,.319-6.346A15.44,15.44,0,0,1,4.77,3.164,11.479,11.479,0,0,1,12.709,0c.237,0,.479.007.72.021a9.027,9.027,0,0,1,5.677,2.064,5.352,5.352,0,0,1,1.768,4.142A7.261,7.261,0,0,1,17.9,11.6a13.179,13.179,0,0,1-8.374,2.531A22.177,22.177,0,0,1,6.2,13.867a4.819,4.819,0,0,0,.843,2.019A5.307,5.307,0,0,0,11.524,17.9a15.686,15.686,0,0,0,5.728-1.341l.011,4.87A17,17,0,0,1,10.266,23ZM6.738,9.168h0c.317,0,.629.007.926.007,2.992,0,4.914-.263,5.878-.8a1.572,1.572,0,0,0,.84-1.638,2.3,2.3,0,0,0-2.376-2.156,4.221,4.221,0,0,0-1.835.482A6.693,6.693,0,0,0,6.749,9.168Z" transform="translate(102.439 35.783)" fill="#fff"/>
  </g>
</svg>
