<svg xmlns="http://www.w3.org/2000/svg" width="36" height="36.012" viewBox="0 0 36 36.012">
  <g id="expedia_1_" data-name="expedia (1)" transform="translate(-0.065 -0.017)">
    <path id="path4382" d="M212.077,207.032a1.6,1.6,0,0,1-1.6-1.725,1.6,1.6,0,1,1,1.6,1.725m0-3.632a1.908,1.908,0,1,0,1.862,1.908,1.854,1.854,0,0,0-1.862-1.908" transform="translate(-178.065 -172.343)" fill="#072f54"/>
    <path id="path4386" d="M217.651,209.392v-.7h.473c.244,0,.519.031.519.32,0,.351-.259.366-.549.366C218.078,209.392,217.651,209.392,217.651,209.392Zm1.328-.336c0-.458-.275-.656-.824-.656H217.3v2.259h.366V209.7h.351l.58.961h.427l-.626-.992a.561.561,0,0,0,.58-.61" transform="translate(-184.081 -176.58)" fill="#072f54"/>
    <path id="path4398" d="M21.116,13.841,20.4,11.8,14.233,3.57l1.1-.275,10.607,9.172,6.242-1.786a9.527,9.527,0,0,1,2.2-.229A17.993,17.993,0,0,0,.269,20.724L15.21,15.535Z" transform="translate(0 0)" fill="#072f54"/>
    <path id="path4402" d="M37.029,79a10.1,10.1,0,0,1-2.152,1.084l-6.257,1.786-4.166,13.4-1.084.351.885-10.225-.488-2.121-5.86,1.679L2.4,88.569A18,18,0,1,0,37.029,79" transform="translate(-1.978 -66.929)" fill="#072f54"/>
    <path id="path4406" d="M22.819,34.449l.488,2.121L22.422,46.8l1.084-.351,4.166-13.4,6.257-1.786a9.44,9.44,0,0,0,2.152-1.084c-.2-.549-.412-1.084-.656-1.618a8.686,8.686,0,0,0-2.2.229l-6.242,1.786L16.379,21.4l-1.1.275L21.43,29.9l.717,2.045L16.241,33.64,1.3,38.829c.046.305.107.626.168.931l15.491-3.648,5.86-1.664Z" transform="translate(-1.046 -18.12)" fill="#fbc108"/>
  </g>
</svg>
