<svg xmlns="http://www.w3.org/2000/svg" width="64.141" height="11.438" viewBox="0 0 64.141 11.438">
  <g id="flixbus-mobile" transform="translate(0 0)">
    <path id="Path_4796" data-name="Path 4796" d="M235.335,5.716l-1.664-2.293L231.592.548a1.332,1.332,0,0,0-1.857-.3H229.7a1.331,1.331,0,0,0-.3,1.856l2.6,3.582-2.6,3.587a1.336,1.336,0,0,0,.291,1.862h.031a1.332,1.332,0,0,0,1.857-.3l1.559-2.111Z" transform="translate(-204.495)" fill="#ffad00"/>
    <path id="Path_4797" data-name="Path 4797" d="M33.154.445h-.031a1.331,1.331,0,0,0-1.856.3L29.848,2.671l1.69,2.293L33.445,2.3a1.331,1.331,0,0,0-.3-1.856m.3,9.031L31.538,6.814,29.868,9.107l1.42,1.955a1.331,1.331,0,0,0,1.856.3h.031a1.331,1.331,0,0,0,.3-1.856m25.85-6.92h3.6A1.072,1.072,0,0,0,63.99,1.516V.3H59.311A3.406,3.406,0,0,0,55.973,3.71a3.312,3.312,0,0,0,3.322,3.3h1.471a1.081,1.081,0,0,1,0,2.157H56.087v1.212a1.07,1.07,0,0,0,1.066,1.066h3.639a3.406,3.406,0,0,0,3.349-3.406,3.307,3.307,0,0,0-3.3-3.3h-1.5a1.081,1.081,0,0,1,0-2.157M54.839.316H53.581a1.04,1.04,0,0,0-1.04,1.04V7.968c0,.951-.655,1.56-1.783,1.56h-.52a1.564,1.564,0,0,1-1.783-1.56V.315H47.186a1.04,1.04,0,0,0-1.04,1.04V8.343c0,1.96,1.347,3.265,3.676,3.265h1.347c2.329,0,3.675-1.305,3.675-3.265L54.839.315ZM40.9,9.653h-1.97a1.04,1.04,0,0,1-1.04-1.04V6.741H40.9a1.45,1.45,0,0,1,0,2.9m-3-7.512h2.677a1.3,1.3,0,1,1,0,2.6H38.816a.925.925,0,0,1-.92-.92Zm6.052,3.842c-.063-.057-.234-.192-.281-.229a2.964,2.964,0,0,0,.759-2.184A3.052,3.052,0,0,0,41.078.325H36.684a1.071,1.071,0,0,0-1.066,1.066v9a1.071,1.071,0,0,0,1.066,1.066h4.893a2.972,2.972,0,0,0,3.26-3.218,3.078,3.078,0,0,0-.894-2.267M21.55,3.533H19.767V1.392A1.077,1.077,0,0,1,20.837.32h.712a1.077,1.077,0,0,1,1.071,1.071V2.462A1.076,1.076,0,0,1,21.55,3.533m1.071,7.929H19.767V5.644a1.077,1.077,0,0,1,1.071-1.071h1.783ZM13.907,9.169a.52.52,0,0,1-.52-.52V1.4A1.076,1.076,0,0,0,12.3.32H10.507V10.386a1.076,1.076,0,0,0,1.076,1.077h5.854a1.076,1.076,0,0,0,1.077-1.077V9.169ZM1.071.32A1.071,1.071,0,0,0,0,1.386V11.462H2.849V7.084h4.04A1.071,1.071,0,0,0,7.96,6.013V4.807H2.849V3.133a.52.52,0,0,1,.52-.52h4.84A1.071,1.071,0,0,0,9.28,1.542V.32H1.071Z" transform="translate(0 -0.173)" fill="#73d700"/>
  </g>
</svg>
