<svg xmlns="http://www.w3.org/2000/svg" width="200" height="63.734" viewBox="0 0 200 63.734">
  <g id="trenitalia" transform="translate(-133.391 -44.92)">
    <path id="Path_9164" data-name="Path 9164" d="M81.856,44.4H96.427l-1.4,2.882a.938.938,0,0,0-.778-.546h-3.9L84.429,58.891H80.611l5.922-12.157H81.7a2.427,2.427,0,0,0-1.4.546Zm43.4,11.686-1.324,2.8h-14.1l6.622-13.478a1.155,1.155,0,0,0,.078-.546.989.989,0,0,0-.078-.468h12.626l-1.48,2.8a.938.938,0,0,0-.778-.546h-7.245l-1.719,3.43h7.323l-1.4,2.882a.938.938,0,0,0-.778-.546h-6.311l-2.025,4.129h9.111a2.4,2.4,0,0,0,1.48-.468Zm69.806,0-1.32,2.8H182.988l6.622-13.478a1.155,1.155,0,0,0,.078-.546.988.988,0,0,0-.078-.468H193.9l-6,12.154h5.765a2.333,2.333,0,0,0,1.4-.468Zm-102.918,2.8,6.544-13.4a1.156,1.156,0,0,0,.078-.546.988.988,0,0,0-.078-.468h7.555c1.48,0,4.208,0,4.208,3.428a5.574,5.574,0,0,1-4.208,5.064l1.091,4.986a1.533,1.533,0,0,0,.7,1.013h-4.051l-1.169-6H98.843l-2.882,6H92.142v-.078Zm14.8-11.063a1.153,1.153,0,0,0-1.247-1.091H101.88l-1.948,3.9h3.505c2.1,0,3.505-1.324,3.505-2.8ZM150.964,44.4a.988.988,0,0,1,.078.468c0,.156-.078.39-.078.546l-6.544,13.478h3.818L155.326,44.4Zm51.109,0a.988.988,0,0,1,.078.468c0,.156-.078.39-.078.546l-6.544,13.478h3.818L206.434,44.4Zm-44.1,0h14.647l-1.4,2.882a.938.938,0,0,0-.778-.546h-3.9l-5.921,12.154H156.81l5.918-12.157h-4.753a2.427,2.427,0,0,0-1.4.546l1.4-2.879Zm18.777,0a1.871,1.871,0,0,1-.468,1.169L164.753,58.891h3.35l2.727-3.269h7.09L178,58.894H181.5l-.778-14.49Zm-3.973,8.882,4.909-5.921.156,5.921Zm40.2-8.882a1.871,1.871,0,0,1-.468,1.169L200.98,58.891h3.35l2.727-3.272h7.09l.078,3.272h3.505l-.778-14.49Zm-3.973,8.882,4.986-5.921.156,5.921Zm-76.663-6.856.468-.934a1.125,1.125,0,0,0,.156-.546.988.988,0,0,0-.078-.468h3.743l3.505,10.051,4.444-9.037a1.125,1.125,0,0,0,.156-.546.987.987,0,0,0-.078-.468h3.111L140.6,58.891h-2.727l-3.74-10.752-5.3,10.752h-2.651Z" transform="translate(115.662 35.112)" fill="#fff" fill-rule="evenodd"/>
    <path id="Path_9165" data-name="Path 9165" d="M7.4,75.485h0l-3.667-.078v1.324H5.689a1.926,1.926,0,0,1-.311.7,1.912,1.912,0,0,1-1.637.7,2.379,2.379,0,0,1,0-4.752,1.789,1.789,0,0,1,1.091.311,2.736,2.736,0,0,1,.778.623l1.324-.778a2.839,2.839,0,0,0-.778-.857A3.6,3.6,0,0,0,3.741,71.9,3.73,3.73,0,0,0,0,75.8a3.555,3.555,0,0,0,3.667,3.818,3.555,3.555,0,0,0,3.272-1.87,4.858,4.858,0,0,0,.468-2.26Zm192.513-1.948v-1.4h-4.129v7.322h4.129V77.978h-2.571V76.422h2.493v-1.41h-2.493V73.538Zm-27.58,5.919-2.961-7.323H167.66l-2.883,7.323h1.714l.546-1.48h3.039l.546,1.48Zm-2.8-2.882H167.5l1.013-2.882,1.013,2.882Zm7.555,2.882v-1.4h-2.493V72.212h-1.556v7.323h4.051Zm2.415,0V72.134h-1.555v7.322Zm8.181,0-2.961-7.323h-1.714l-2.881,7.323h1.714l.546-1.48h3.039l.546,1.48ZM184.8,76.574h-2.029l1.013-2.882,1.013,2.882Zm9.738,2.882V72.134h-1.48v4.83l-3.428-4.83h-1.4v7.322h1.48l-.078-4.909,3.428,4.909Zm-29.372-5.921v-1.4h-4.674v1.4h1.555V79.38H163.6V73.538Zm-10.83,2.259a3.747,3.747,0,0,0-3.9-3.815,3.818,3.818,0,1,0,.078,7.635,3.64,3.64,0,0,0,3.818-3.818Zm-1.637,0a2.222,2.222,0,0,1-2.181,2.333,2.337,2.337,0,0,1-.078-4.674,2.232,2.232,0,0,1,2.26,2.333Zm7.012,3.667V72.134h-1.556v7.322ZM146.389,73.54V72.134h-4.672v1.4h1.555V79.38h1.555V73.538Zm-4.361,5.916-2.961-7.323h-1.714l-2.882,7.323h1.714l.546-1.48h3.042l.546,1.48Zm-2.8-2.882H137.2l1.013-2.882,1.013,2.882Zm-4.363-3.039v-1.4h-4.674v1.4h1.555V79.38H133.3V73.538Zm-13.4,2.259a3.747,3.747,0,0,0-3.9-3.818,3.818,3.818,0,1,0,3.9,3.818Zm-1.637,0a2.222,2.222,0,0,1-2.181,2.333,2.337,2.337,0,1,1-.078-4.674,2.232,2.232,0,0,1,2.26,2.333Zm9.894,1.4c0-2.26-2.961-2.025-2.961-3.194a.637.637,0,0,1,.7-.623,1.436,1.436,0,0,1,1.091.7l1.013-1.169a2.739,2.739,0,0,0-2.1-1.013,2.153,2.153,0,0,0-2.333,2.1c0,1.247,1.013,1.87,1.948,2.333a1.7,1.7,0,0,1,.623.39.962.962,0,0,1,.311.623.84.84,0,0,1-.934.857,1.825,1.825,0,0,1-1.4-.857l-1.013,1.169a3.239,3.239,0,0,0,2.333,1.013,2.333,2.333,0,0,0,2.727-2.333Zm-16.444,2.26v-1.4h-2.487V72.212h-1.555v7.323h4.051ZM98.088,75.719a3.516,3.516,0,0,0-.546-1.948c-.857-1.48-2.333-1.555-3.818-1.555h-1.48v7.323h1.714a4.456,4.456,0,0,0,2.8-.7,4.368,4.368,0,0,0,1.324-3.111Zm-1.555,0a2.134,2.134,0,0,1-2.26,2.415H93.8V73.381h.233a2.6,2.6,0,0,1,1.714.468,2.417,2.417,0,0,1,.778,1.87Zm6.7-2.181v-1.4H99.1v7.322h4.129V77.978h-2.567V76.422h2.489v-1.41h-2.489V73.538Zm5.14,5.919v-1.4h-2.493V72.212h-1.555v7.323h4.051ZM88.039,73.535v-1.4H83.908v7.322h4.129V77.978H85.466V76.422h2.493v-1.41H85.466V73.538Zm-5.611,5.921V72.134H80.873v7.322Zm-2.182-7.322H78.533l-1.792,5.222-1.792-5.222H73.236l2.727,7.322h1.555l2.727-7.323ZM73,75.8a3.747,3.747,0,0,0-3.892-3.822,3.818,3.818,0,0,0,.078,7.635A3.64,3.64,0,0,0,73,75.8Zm-1.637,0a2.222,2.222,0,0,1-2.181,2.333,2.339,2.339,0,1,1-.074-4.678,2.232,2.232,0,0,1,2.26,2.333Zm-39.5-1.407a2.04,2.04,0,0,0-.39-1.324,2.6,2.6,0,0,0-1.948-.934h-2.57v7.321h1.555v-2.8h.778a2.863,2.863,0,0,0,1.948-.546,2.722,2.722,0,0,0,.623-1.714Zm-1.555,0c0,.7-.468.934-1.091.934h-.7V73.457h.623a.988.988,0,0,1,.468.078.778.778,0,0,1,.7.857Zm9.578,1.4A3.747,3.747,0,0,0,36,71.979a3.818,3.818,0,1,0,.078,7.635A3.64,3.64,0,0,0,39.888,75.8Zm-1.637,0a2.222,2.222,0,0,1-2.181,2.333A2.337,2.337,0,1,1,36,73.457a2.232,2.232,0,0,1,2.26,2.333Zm9.738.546v-1.4H45.343v-1.4h2.649v-1.4H43.786v7.322h1.555V76.42H47.99Zm4.83-2.8v-1.4H48.693v7.322h4.129V77.978h-2.57V76.422h2.493v-1.41H50.252V73.538Zm6.389,5.921-2.1-3.113a2.333,2.333,0,0,0,.778-.311,2.178,2.178,0,0,0,.857-1.714,2.467,2.467,0,0,0-.311-1.247,2.691,2.691,0,0,0-2.493-.934H53.914v7.317H55.47V76.345l1.948,3.111Zm-2.025-5.064a1.445,1.445,0,0,1-.156.546,1.126,1.126,0,0,1-1.091.468h-.546V73.457h.546c.623-.078,1.247.156,1.247.934Zm7.794,5.062-2.1-3.111a2.333,2.333,0,0,0,.778-.311,2.178,2.178,0,0,0,.857-1.714,2.467,2.467,0,0,0-.311-1.247,2.691,2.691,0,0,0-2.493-.934H59.678v7.317h1.555V76.345l1.948,3.111Zm-2.025-5.064a1.445,1.445,0,0,1-.156.546,1.126,1.126,0,0,1-1.091.468h-.546V73.457H61.7c.623-.078,1.247.156,1.247.934Zm-36.7,0a2.04,2.04,0,0,0-.39-1.324,2.6,2.6,0,0,0-1.948-.934H21.348v7.323H22.9v-2.8h.778a2.863,2.863,0,0,0,1.948-.546,2.722,2.722,0,0,0,.623-1.714Zm-1.555,0c0,.7-.468.934-1.091.934h-.7v-1.87h.623a.988.988,0,0,1,.468.078.836.836,0,0,1,.7.857ZM13.713,79.456l-2.1-3.111a2.333,2.333,0,0,0,.778-.311,2.178,2.178,0,0,0,.857-1.714,2.467,2.467,0,0,0-.311-1.247,2.691,2.691,0,0,0-2.488-.939H8.415v7.322H9.971V76.345l1.948,3.111Zm-2.025-5.064a1.444,1.444,0,0,1-.156.546,1.126,1.126,0,0,1-1.091.468H9.895V73.457h.55c.7-.078,1.247.156,1.247.934ZM20.1,76.184v-4.05H18.546v4.519c0,.934-.39,1.48-1.324,1.48a1.311,1.311,0,0,1-1.169-.546,1.63,1.63,0,0,1-.233-1.091V71.979H14.264V76.5a2.519,2.519,0,0,0,.233,1.324,2.843,2.843,0,0,0,2.725,1.634,2.852,2.852,0,0,0,2.415-1.091,3.931,3.931,0,0,0,.468-2.181Z" transform="translate(133.4 29.035)" fill="#fff" fill-rule="evenodd"/>
    <path id="Path_9166" data-name="Path 9166" d="M29.232,28,13.5,29.555,2.9,50.593c8.414,0,12.7-.778,17.607-7.791A144.179,144.179,0,0,0,29.232,28Z" transform="translate(132.761 38.735)" fill="#fff" fill-rule="evenodd"/>
    <path id="Path_9167" data-name="Path 9167" d="M75.759,2.333,77.005,0H43.821C32.6,0,26.833,3.818,23.327,10.83L20.6,16.36H35.71C41.012,6.076,47.557,2.571,63.528,2.333Z" transform="translate(128.85 44.92)" fill="#fff" fill-rule="evenodd"/>
    <path id="Path_9168" data-name="Path 9168" d="M82.125,5.9C61.869,6.056,58.519,9.405,54,17.664H76.36Z" transform="translate(121.472 43.616)" fill="#fff" fill-rule="evenodd"/>
    <path id="Path_9169" data-name="Path 9169" d="M48.776,39.057A18.064,18.064,0,0,1,34.124,53.7a54.4,54.4,0,0,1-7.4.778C23.762,54.56,0,54.56,0,54.56l1.013-2.1s9.037-.078,10.284-.078a81.2,81.2,0,0,0,8.8-.623A14.739,14.739,0,0,0,33.11,40.849L34.9,34.773a11.016,11.016,0,0,1,10.752-8.882L62.95,24.8l-.857,1.714-5.3.311a8.234,8.234,0,0,0-7.555,7.323Z" transform="translate(133.401 39.441)" fill="#fff" fill-rule="evenodd"/>
  </g>
</svg>
