<svg xmlns="http://www.w3.org/2000/svg" width="40.989" height="27.769" viewBox="0 0 40.989 27.769">
  <g id="trenitalia-mobile" transform="translate(-3057.011 -236)">
    <path id="Path_9166" data-name="Path 9166" d="M79.5,150.41l-8.9.882-6,11.9c4.761,0,7.19-.441,9.963-4.408A81.793,81.793,0,0,0,79.5,150.41Z" transform="translate(2993.687 97.932)" fill="#016d68"/>
    <path id="Path_9167" data-name="Path 9167" d="M120.764,112.249l.706-1.319H102.7c-6.349,0-9.609,2.16-11.594,6.127l-1.541,3.126h8.547c3-5.818,6.7-7.815,15.74-7.937Z" transform="translate(2976.529 125.07)" fill="#016d68"/>
    <path id="Path_9168" data-name="Path 9168" d="M152.562,119.25c-11.46.088-13.354,1.982-15.912,6.655H149.3Z" transform="translate(2944.16 119.351)" fill="#016d68"/>
    <path id="Path_9169" data-name="Path 9169" d="M88.11,153.972a10.219,10.219,0,0,1-8.287,8.287,30.852,30.852,0,0,1-4.186.438c-1.676.047-15.118.047-15.118.047l.572-1.175s5.111-.044,5.818-.044a45.7,45.7,0,0,0,4.98-.353A8.34,8.34,0,0,0,79.248,155l1.016-3.439a6.23,6.23,0,0,1,6.08-5.027l9.788-.625-.485.969-3,.175a4.658,4.658,0,0,0-4.273,4.145Z" transform="translate(2996.491 101.025)" fill="#e01e37"/>
  </g>
</svg>
