<svg xmlns="http://www.w3.org/2000/svg" width="200" height="21.514" viewBox="0 0 200 21.514">
  <path id="vivaticket" d="M.8,1.438C.6,1.024.906.714,1.319.714H5.25a.879.879,0,0,1,.517.31l4.861,10.86h.207L15.7,1.024a.879.879,0,0,1,.517-.31h3.93c.414,0,.724.414.517.724L11.352,21.5a.569.569,0,0,1-.517.31h-.31a.569.569,0,0,1-.517-.31Zm26.582-.207A.554.554,0,0,1,27.9.714h3.62a.554.554,0,0,1,.517.517V20.883a.554.554,0,0,1-.517.517H27.9a.554.554,0,0,1-.517-.517V1.231Zm11.274.207c-.207-.414.1-.724.517-.724h3.93a.879.879,0,0,1,.517.31l4.861,10.86h.207l4.861-10.86a.879.879,0,0,1,.517-.31H58c.414,0,.724.414.517.724L49.208,21.5a.569.569,0,0,1-.517.31h-.31a.569.569,0,0,1-.517-.31ZM60.9,20.676,70.205.61A.569.569,0,0,1,70.722.3h.31a.569.569,0,0,1,.517.31l9.309,20.066c.207.414-.1.724-.517.724h-3.31c-.517,0-.724-.207-1.034-.724L74.963,18.3H66.9l-1.034,2.379a1.165,1.165,0,0,1-1.034.724h-3.31c-.517,0-.724-.31-.621-.724ZM73.2,14.263,70.929,9.4l-2.275,4.861H73.2ZM90.685,3.4H85.823a.554.554,0,0,1-.517-.517V1.231a.489.489,0,0,1,.517-.517H98.649a.554.554,0,0,1,.517.517V2.886a.489.489,0,0,1-.517.517H93.788v17.48a.554.554,0,0,1-.517.517H91.305a.554.554,0,0,1-.517-.517V3.4h-.1Zm15.929-2.172a.554.554,0,0,1,.517-.517H109.1a.554.554,0,0,1,.517.517V20.883a.554.554,0,0,1-.517.517H107.13a.554.554,0,0,1-.517-.517V1.231ZM128.955.3a10.526,10.526,0,0,1,7.24,2.793.484.484,0,0,1,0,.827L134.85,5.265a.4.4,0,0,1-.724,0A8.05,8.05,0,0,0,128.955,3.3a7.552,7.552,0,0,0-7.447,7.757,7.469,7.469,0,0,0,12.515,5.689c.31-.207.517-.207.724,0l1.345,1.345a.629.629,0,0,1,0,.827,10.246,10.246,0,0,1-7.24,2.9A10.661,10.661,0,0,1,118.094,11.16,10.926,10.926,0,0,1,128.955.3Zm15.722,1.034A.707.707,0,0,1,145.4.61h1.758a.707.707,0,0,1,.724.724V9.609L156.261.921a.879.879,0,0,1,.517-.31h2.275a.6.6,0,0,1,.414,1.034l-8.585,8.792,9.1,10.033a.6.6,0,0,1-.517.931h-2.379c-.31,0-.517-.1-.517-.207l-8.688-9.723v9.205a.707.707,0,0,1-.724.724H145.4a.707.707,0,0,1-.724-.724Zm22.962-.1a.489.489,0,0,1,.517-.517H180.05a.554.554,0,0,1,.517.517V2.886a.489.489,0,0,1-.517.517h-9.412v6.1H178.6a.554.554,0,0,1,.517.517v1.655a.554.554,0,0,1-.517.517h-7.964v6.413h9.412a.554.554,0,0,1,.517.517V20.78a.489.489,0,0,1-.517.517H168.155a.554.554,0,0,1-.517-.517V1.231ZM192.255,3.4h-4.861a.554.554,0,0,1-.517-.517V1.231a.489.489,0,0,1,.517-.517h12.826a.554.554,0,0,1,.517.517V2.886a.489.489,0,0,1-.517.517h-4.861v17.48a.554.554,0,0,1-.517.517h-1.965a.554.554,0,0,1-.517-.517V3.4Z" transform="translate(-0.736 -0.3)" fill="#fff"/>
</svg>
