<svg xmlns="http://www.w3.org/2000/svg" width="75.068" height="8.075" viewBox="0 0 75.068 8.075">
  <path id="vivaticket-mobile" d="M.761.727C.683.572.8.455.955.455H2.43a.33.33,0,0,1,.194.116L4.449,4.648h.078L6.351.572A.33.33,0,0,1,6.546.455H8.021c.155,0,.272.155.194.272L4.721,8.259a.213.213,0,0,1-.194.116H4.41a.213.213,0,0,1-.194-.116ZM10.738.649a.208.208,0,0,1,.194-.194h1.359a.208.208,0,0,1,.194.194V8.026a.208.208,0,0,1-.194.194H10.933a.208.208,0,0,1-.194-.194V.649ZM14.97.727c-.078-.155.039-.272.194-.272h1.475a.33.33,0,0,1,.194.116l1.825,4.076h.078L20.56.572a.33.33,0,0,1,.194-.116H22.23c.155,0,.272.155.194.272L18.93,8.259a.213.213,0,0,1-.194.116h-.116a.214.214,0,0,1-.194-.116Zm8.347,7.221L26.811.416A.214.214,0,0,1,27.005.3h.116a.213.213,0,0,1,.194.116L30.81,7.948c.078.155-.039.272-.194.272H29.373c-.194,0-.272-.078-.388-.272L28.6,7.055H25.569l-.388.893a.437.437,0,0,1-.388.272H23.55C23.356,8.22,23.278,8.1,23.317,7.948Zm4.62-2.407-.854-1.825-.854,1.825h1.708ZM34.5,1.465H32.673a.208.208,0,0,1-.194-.194V.649a.183.183,0,0,1,.194-.194h4.814a.208.208,0,0,1,.194.194v.621a.183.183,0,0,1-.194.194H35.662V8.026a.208.208,0,0,1-.194.194h-.738a.208.208,0,0,1-.194-.194V1.465ZM40.476.649A.208.208,0,0,1,40.67.455h.738A.208.208,0,0,1,41.6.649V8.026a.208.208,0,0,1-.194.194H40.67a.208.208,0,0,1-.194-.194V.649ZM48.862.3A3.951,3.951,0,0,1,51.58,1.348a.182.182,0,0,1,0,.311l-.5.5a.149.149,0,0,1-.272,0,3.021,3.021,0,0,0-1.941-.738,2.835,2.835,0,0,0-2.8,2.912,2.8,2.8,0,0,0,4.7,2.135c.116-.078.194-.078.272,0l.5.5a.236.236,0,0,1,0,.311,3.846,3.846,0,0,1-2.718,1.087,4,4,0,0,1-4.038-4A4.1,4.1,0,0,1,48.862.3Zm5.9.388a.265.265,0,0,1,.272-.272h.66a.265.265,0,0,1,.272.272V3.794L59.111.533a.33.33,0,0,1,.194-.116h.854A.224.224,0,0,1,60.315.8L57.092,4.1,60.509,7.87a.223.223,0,0,1-.194.349h-.893c-.116,0-.194-.039-.194-.078L55.967,4.493V7.948a.265.265,0,0,1-.272.272h-.66a.265.265,0,0,1-.272-.272ZM63.382.649a.183.183,0,0,1,.194-.194H68.04a.208.208,0,0,1,.194.194v.621a.183.183,0,0,1-.194.194H64.507V3.755H67.5a.208.208,0,0,1,.194.194V4.57a.208.208,0,0,1-.194.194H64.507V7.172H68.04a.208.208,0,0,1,.194.194v.621a.183.183,0,0,1-.194.194H63.576a.208.208,0,0,1-.194-.194V.649Zm9.24.815H70.8a.208.208,0,0,1-.194-.194V.649A.183.183,0,0,1,70.8.455h4.814A.208.208,0,0,1,75.8.649v.621a.183.183,0,0,1-.194.194H73.786V8.026a.208.208,0,0,1-.194.194h-.738a.208.208,0,0,1-.194-.194V1.465Z" transform="translate(-0.736 -0.3)"/>
</svg>
