<svg xmlns="http://www.w3.org/2000/svg" width="60" height="37.997" viewBox="0 0 60 37.997">
  <g id="Car" transform="translate(-2 -13)">
    <path id="Path_139" data-name="Path 139" d="M55,27H51.515L43.01,15.094A5.009,5.009,0,0,0,38.941,13H13.924a7,7,0,0,0-6.413,4.194L3.425,26.533A16.891,16.891,0,0,0,2,33.347V42a3,3,0,0,0,3,3H8.08a6.991,6.991,0,0,0,13.84,0H42.08a6.991,6.991,0,0,0,13.84,0H59a3,3,0,0,0,3-3V34a7.008,7.008,0,0,0-7-7Zm5,7v1H56V33h3.9a5,5,0,0,1,.1,1ZM36,19h7.342l5.715,8H36Zm-2,8H11.22l1.6-8H34ZM4,42V41H7V39H4V33.347a14.924,14.924,0,0,1,1.257-6.013L9.343,18a5,5,0,0,1,4.581-3H38.941a3,3,0,0,1,2.441,1.256l.532.744H12.82a2,2,0,0,0-1.961,1.607l-1.6,8A2,2,0,0,0,11.22,29H34V43H21.92A6.991,6.991,0,0,0,8.08,43H5a1,1,0,0,1-1-1Zm11,7a5,5,0,1,1,5-5,5,5,0,0,1-5,5Zm34,0a5,5,0,1,1,5-5,5,5,0,0,1-5,5Zm10-6H55.92a6.991,6.991,0,0,0-13.84,0H36V29H55a4.977,4.977,0,0,1,3.974,2H56a2,2,0,0,0-2,2v2a2,2,0,0,0,2,2h4v2H57v2h3v1A1,1,0,0,1,59,43Z" fill="#32424e"/>
    <path id="Path_140" data-name="Path 140" d="M38,31h4v2H38Z" fill="#32424e"/>
    <path id="Path_141" data-name="Path 141" d="M12,31h4v2H12Z" fill="#32424e"/>
    <path id="Path_142" data-name="Path 142" d="M14,43h2v2H14Z" fill="#32424e"/>
    <path id="Path_143" data-name="Path 143" d="M48,43h2v2H48Z" fill="#32424e"/>
  </g>
</svg>
