<svg xmlns="http://www.w3.org/2000/svg" width="81.713" height="75" viewBox="0 0 81.713 75">
    <defs>
        <style>
            .cls-1{fill:#8ca0b3}
        </style>
    </defs>
    <g id="chat" transform="translate(.001 -4.521)">
        <path id="Path_19" d="M17.868 45.758h17.7a1.362 1.362 0 0 0 0-2.724h-17.7a1.362 1.362 0 1 0 0 2.724z" class="cls-1" data-name="Path 19" transform="translate(-4.249 -9.914)"/>
        <path id="Path_20" d="M53.277 54.039H17.868a1.362 1.362 0 1 0 0 2.724h35.409a1.362 1.362 0 1 0 0-2.724z" class="cls-1" data-name="Path 20" transform="translate(-4.249 -12.747)"/>
        <path id="Path_21" d="M53.277 65.043H17.868a1.362 1.362 0 1 0 0 2.724h35.409a1.362 1.362 0 1 0 0-2.724z" class="cls-1" data-name="Path 21" transform="translate(-4.249 -15.58)"/>
        <path id="Path_22" d="M73.639 4.616l-46.5-.1a8.085 8.085 0 0 0-8.073 8.084v6.978l-10.99.022A8.085 8.085 0 0 0 0 27.674v28.792a8.084 8.084 0 0 0 8.076 8.074h8.267v13.619a1.362 1.362 0 0 0 2.37.917l13.215-14.539 22.643-.093a8.084 8.084 0 0 0 8.076-8.075v-.154L69.81 64.1a1.362 1.362 0 0 0 2.37-.917V49.561h1.457a8.084 8.084 0 0 0 8.076-8.075V12.692a8.085 8.085 0 0 0-8.074-8.076zM59.923 56.369a5.358 5.358 0 0 1-5.358 5.351l-23.247.1a1.363 1.363 0 0 0-1 .445L19.066 74.636V63.177a1.362 1.362 0 0 0-1.366-1.362H8.076a5.358 5.358 0 0 1-5.352-5.351V27.673a5.359 5.359 0 0 1 5.355-5.352l12.35-.026 34.14-.071a5.358 5.358 0 0 1 5.352 5.352v28.793zm19.066-14.885a5.357 5.357 0 0 1-5.352 5.351h-2.819a1.362 1.362 0 0 0-1.362 1.365v11.455l-6.809-7.49V27.577a8.085 8.085 0 0 0-8.079-8.077l-32.778.067V12.6a5.358 5.358 0 0 1 5.35-5.357l46.5.1a5.358 5.358 0 0 1 5.352 5.352v28.789z" class="cls-1" data-name="Path 22"/>
    </g>
</svg>
