<svg xmlns="http://www.w3.org/2000/svg" width="172" height="103.695" viewBox="0 0 172 103.695">
  <g id="click" transform="translate(-1399.5 -566.305)">
    <text id="Overview" transform="translate(1399.5 666)" fill="#7e8f9f" font-size="16" font-family="Roboto-Regular, Roboto"><tspan x="0" y="0">SELEZIONA IL SERVIZIO</tspan></text>
    <g id="click-2" data-name="click" transform="translate(1415.83 566.805)">
      <g id="Group_67" data-name="Group 67" transform="translate(64.134 21.463)">
        <g id="Group_66" data-name="Group 66" transform="translate(0)">
          <path id="Path_122" data-name="Path 122" d="M245.04,195.105l-29.513-24.147A1.342,1.342,0,0,0,213.337,172v40.245a1.347,1.347,0,0,0,.952,1.285,1.391,1.391,0,0,0,.389.056,1.342,1.342,0,0,0,1.116-.6l10.335-15.5h18.062a1.344,1.344,0,0,0,.848-2.383Zm-19.629-.3a1.342,1.342,0,0,0-1.116.6l-8.274,12.412V174.83L240.436,194.8Z" transform="translate(-213.337 -170.656)" fill="#7e8f9f" stroke="#707070" stroke-width="1"/>
        </g>
      </g>
      <g id="Group_69" data-name="Group 69" transform="translate(64.134)">
        <g id="Group_68" data-name="Group 68" transform="translate(0)">
          <path id="Path_123" data-name="Path 123" d="M214.679,0a1.342,1.342,0,0,0-1.342,1.342V12.074a1.341,1.341,0,1,0,2.683,0V1.342A1.342,1.342,0,0,0,214.679,0Z" transform="translate(-213.337)" fill="#7e8f9f" stroke="#707070" stroke-width="1"/>
        </g>
      </g>
      <g id="Group_71" data-name="Group 71" transform="translate(42.67 21.464)">
        <g id="Group_70" data-name="Group 70" transform="translate(0)">
          <path id="Path_124" data-name="Path 124" d="M54.744,170.667H44.012a1.341,1.341,0,1,0,0,2.683H54.744a1.341,1.341,0,1,0,0-2.683Z" transform="translate(-42.67 -170.667)" fill="#7e8f9f" stroke="#707070" stroke-width="1"/>
        </g>
      </g>
      <g id="Group_73" data-name="Group 73" transform="translate(74.866 21.464)">
        <g id="Group_72" data-name="Group 72" transform="translate(0)">
          <path id="Path_125" data-name="Path 125" d="M310.744,170.667H300.012a1.341,1.341,0,1,0,0,2.683h10.732a1.341,1.341,0,1,0,0-2.683Z" transform="translate(-298.67 -170.667)" fill="#7e8f9f" stroke="#707070" stroke-width="1"/>
        </g>
      </g>
      <g id="Group_75" data-name="Group 75" transform="translate(48.956 6.288)">
        <g id="Group_74" data-name="Group 74" transform="translate(0)">
          <path id="Path_126" data-name="Path 126" d="M102.529,57.98l-7.59-7.588a1.341,1.341,0,0,0-1.9,1.9l7.59,7.588a1.348,1.348,0,0,0,.95.392,1.326,1.326,0,0,0,.947-.392A1.342,1.342,0,0,0,102.529,57.98Z" transform="translate(-92.649 -50)" fill="#7e8f9f" stroke="#707070" stroke-width="1"/>
        </g>
      </g>
      <g id="Group_77" data-name="Group 77" transform="translate(48.956 29.057)">
        <g id="Group_76" data-name="Group 76" transform="translate(0)">
          <path id="Path_127" data-name="Path 127" d="M102.529,231.427a1.342,1.342,0,0,0-1.9,0l-7.59,7.588a1.34,1.34,0,0,0,.95,2.289,1.328,1.328,0,0,0,.947-.394l7.59-7.585A1.343,1.343,0,0,0,102.529,231.427Z" transform="translate(-92.649 -231.035)" fill="#7e8f9f" stroke="#707070" stroke-width="1"/>
        </g>
      </g>
      <g id="Group_79" data-name="Group 79" transform="translate(71.721 6.288)">
        <g id="Group_78" data-name="Group 78" transform="translate(0)">
          <path id="Path_128" data-name="Path 128" d="M283.542,50.392a1.342,1.342,0,0,0-1.9,0l-7.59,7.588a1.34,1.34,0,0,0,.95,2.289,1.326,1.326,0,0,0,.947-.392l7.59-7.588A1.343,1.343,0,0,0,283.542,50.392Z" transform="translate(-273.662 -50)" fill="#7e8f9f" stroke="#707070" stroke-width="1"/>
        </g>
      </g>
    </g>
  </g>
</svg>
