<svg xmlns="http://www.w3.org/2000/svg" xmlns:xlink="http://www.w3.org/1999/xlink" viewBox="0 0 69.77 75.99"><defs><style>.cls-1{fill:none;}.cls-2{fill:#1e1e1e;}.cls-3,.cls-5{fill:#fff;}.cls-3,.cls-4{opacity:0.7;}.cls-6{clip-path:url(#clip-path);}.cls-7{fill:#009540;}.cls-8{fill:#e20613;}</style><clipPath id="clip-path" transform="translate(6.55)"><rect class="cls-1" width="60.25" height="60.25" rx="5.13"/></clipPath></defs><g id="Livello_2" data-name="Livello 2"><g id="Livello_1-2" data-name="Livello 1"><g id="Livello_2-2" data-name="Livello 2"><g id="Livello_1-2-2" data-name="Livello 1-2"><rect class="cls-2" x="6.55" width="60.25" height="60.25" rx="5.13"/></g></g><path class="cls-3" d="M31.2,27H25.51V9.42a6.27,6.27,0,0,0-.2-1.76,4.55,4.55,0,0,0-.45-1.11,2.36,2.36,0,0,0-.64-.74V5h7Z" transform="translate(6.55)"/><path class="cls-3" d="M35.65,27V9.42a4.43,4.43,0,0,0-1.29-3.61V5H45.85a11.29,11.29,0,0,1,7.27,2.23c4.09,3.32,2.8,9.15-1.88,11.13l5,8.6H50.54l-4.39-7.55H41.33V27Zm5.68-11.17h4.51a3.69,3.69,0,0,0,4-3.62,3.66,3.66,0,0,0-4-3.55H41.33Z" transform="translate(6.55)"/><g class="cls-4"><path class="cls-5" d="M6.2,20.24a6.78,6.78,0,0,0,6.12,3C14.81,23.26,16,22.21,16,21a2.18,2.18,0,0,0-1.33-1.9,8.08,8.08,0,0,0-2.1-.85c-.59-.23-2-.66-2.69-.92C6,16,3.93,14.13,3.93,10.69A5.49,5.49,0,0,1,6.27,6,9.31,9.31,0,0,1,12,4.22,9.55,9.55,0,0,1,20.16,8l-3.6,2.55a5.38,5.38,0,0,0-4.38-1.77c-1.78,0-2.93.79-2.93,1.87a1.63,1.63,0,0,0,.94,1.64c.39.2.77.37,1.08.5l1.75.55c.81.27,1.51.5,2.1.73,4.44,1.57,6.23,3.51,6.23,6.79,0,4.23-3.08,7-9.06,7-4.93,0-8.36-2.07-10-5.05Z" transform="translate(6.55)"/></g><path class="cls-5" d="M3.36,32.47a3.69,3.69,0,0,0-1.07-3v-.65c.7.07,1.49.11,2.36.12h6.57c3,0,5.73.49,7.31,2.33a6.63,6.63,0,0,1,0,7.91c-2.5,2.86-7,2.43-10.44,2.44v5.45H3.36Zm8.47,6.14c4.48,0,4.37-6.78,0-6.78H8.09v6.78Z" transform="translate(6.55)"/><path class="cls-5" d="M38.45,29.47v-.65h5.36l3.95,5.72,4-5.72h4.51l-6.1,8.83v9.42H45.39V38l-3.8-5.48A10.32,10.32,0,0,0,40.42,31a10.87,10.87,0,0,0-1-.92A5.23,5.23,0,0,0,38.45,29.47Z" transform="translate(6.55)"/><polygon class="cls-5" points="41.01 28.82 35.88 28.82 43.41 47.07 48.54 47.07 41.01 28.82"/><path class="cls-5" d="M28.57,28.82H26.85l-.07.64a1.11,1.11,0,0,1,.26.62A3.05,3.05,0,0,1,27,31a6.16,6.16,0,0,1-.5,1.46L20,47.07h4.72l5.94-13.28Z" transform="translate(6.55)"/><g class="cls-6"><polygon class="cls-5" points="17.03 68.81 40.34 68.81 48.9 49.9 25.57 49.9 17.03 68.81"/><path class="cls-7" d="M.54,65.06c3.12,2.56,5.35,3.22,9.94,3.75L19,49.9c-10.48,0-19.54-.69-25.41-8.83-.39,3.92-.05,11.16.84,14.32A19,19,0,0,0,.54,65.06Z" transform="translate(6.55)"/><path class="cls-8" d="M63.22,55.42c-7.86-4.93-11.5-5.52-20.87-5.52L33.79,68.81c9.05-.13,14.51,2.66,20.14,7.18Z" transform="translate(6.55)"/></g></g></g></svg>