<?xml version="1.0" encoding="utf-8"?>
<!-- Generator: Adobe Illustrator 24.2.3, SVG Export Plug-In . SVG Version: 6.00 Build 0)  -->
<svg version="1.1" id="Layer_1" xmlns="http://www.w3.org/2000/svg" xmlns:xlink="http://www.w3.org/1999/xlink" x="0px" y="0px"
	 viewBox="0 0 226.8 50.3" style="enable-background:new 0 0 226.8 50.3;" xml:space="preserve">
<style type="text/css">
	.st0{fill:#E64C25;}
	.st1{fill:#1D1D1B;}
	.st2{fill:url(#SVGID_3_);}
	.st3{fill:url(#SVGID_4_);}
</style>
<path class="st0" d="M1.1,13.7c2.3-1.3,5.6-1.9,8.5-1.9c8.3,0,10.8,4.8,10.8,12.7c0,10.8-4.4,14.2-11.2,14.2c-1.5,0-2.9-0.2-4.2-0.4
	v10.6H0.9V13.7H1.1z M5.3,34.1c0.6,0.4,2.1,0.6,4,0.6c4.6,0,7.1-2.3,7.1-10.6c0-5.4-1-9-7.1-9c-1.9,0-3.5,0.4-4.2,0.6L5.3,34.1
	L5.3,34.1z"/>
<path class="st0" d="M25.7,16.6c0.8-1.7,3.3-4.8,9.2-4.8s7.9,3.1,7.9,7.5v17.1c-2.1,1.7-5.4,2.5-9,2.5c-5,0-9-1.9-9-7.1
	c0-5.4,4.4-8.5,13.8-9.4v-2.5c0-3.1-0.8-4.8-4.2-4.8c-3.1,0-4.8,1.5-5.6,3.1L25.7,16.6z M38.6,25.8c-5.8,0.6-9.6,2.3-9.6,5.6
	c0,2.3,1.9,3.8,5.2,3.8c2.1,0,3.5-0.4,4.6-1L38.6,25.8L38.6,25.8z"/>
<path class="st0" d="M49.2,13.7c1.9-1,4.6-1.9,7.3-1.9s5,0.8,6.3,3.3l-3.3,1.7c-0.6-1-1.9-1.5-3.1-1.5c-1,0-2.3,0.2-2.9,0.6v22.3
	h-4.2L49.2,13.7L49.2,13.7z"/>
<path class="st0" d="M69.2,15.6h-4v-3.3h4V5.4h4.2v6.9h6.9v3.3h-6.9V31c0,2.7,0.6,4.2,2.7,4.2c1.2,0,2.5-0.4,3.3-1.3l2.1,2.9
	c-1.2,1.3-3.1,2.1-5.8,2.1c-4.4,0-6.3-2.3-6.3-6.9V15.6H69.2z"/>
<path class="st0" d="M85.9,43.3c0.6,0.4,1.5,1,2.9,1c1.7,0,2.7-0.6,4.2-5l0.4-1.3c-2.1-1.5-3.3-4.2-5-9.2l-5.2-16.7h4.4l4.2,14.8
	c1,3.5,1.9,5.4,2.5,6.5l6.7-21.3h4.4l-9.6,29c-1.9,6-4.6,6.7-7.7,6.7c-1.9,0-4-0.8-4.6-1.5L85.9,43.3z"/>
<path class="st1" d="M113.4,48.5V13.7c2.1-1.3,5.2-1.9,8.3-1.9c7.5,0,10.6,3.8,10.6,12.5c0,9.6-3.3,14-11,14c-1.5,0-2.9-0.2-4-0.4
	h-0.2v10.8L113.4,48.5L113.4,48.5z M121.3,15.1c-2.1,0-3.8,0.4-4.2,0.8l0,0v18.3l0,0c0.6,0.4,2.3,0.8,4.2,0.8
	c5.2,0,7.3-3.1,7.3-10.8C128.6,18.7,127.4,15.1,121.3,15.1"/>
<path class="st1" d="M181.1,38.1l-7.3-12.5h-0.2c-1,0.6-2.1,1-3.1,1.5h-0.2v11h-3.8V1.4h3.8v22.3l0.2-0.2c5.2-2.1,8.3-5.8,9.6-11.2
	h3.8c-1,4.6-3.3,8.3-7.1,11.2l-0.2,0.2l8.3,14.4L181.1,38.1L181.1,38.1z"/>
<path class="st1" d="M198.4,38.7c-7.1,0-10.2-4-10.2-12.5c0-9.8,3.1-14.2,10.2-14.2c5.8,0,8.7,3.3,8.7,9.6c0,1.5,0,3.5-0.4,4.8
	h-14.6v0.2c0.2,6.5,1.9,9,6.7,9c3.1,0,5-1.3,6.3-2.5l2.1,2.7C205.7,36.8,203,38.7,198.4,38.7 M198.2,15.1c-4,0-5.8,2.5-6,8.1v0.2h11
	v-0.2c0-0.4,0.2-1.5,0.2-1.9C203.2,18.5,202.8,15.1,198.2,15.1"/>
<path class="st1" d="M213,38.1V13.7c1.9-1,4.8-1.9,7.1-1.9c2.1,0,4.6,0.6,5.8,3.1l-3.1,1.5c-0.6-0.8-1.9-1.5-3.3-1.5
	c-1.3,0-2.3,0.2-3.1,0.6l0,0v22.3h-3.3L213,38.1L213,38.1z"/>
<linearGradient id="SVGID_3_" gradientUnits="userSpaceOnUse" x1="-140.9194" y1="-231.8853" x2="-131.2555" y2="-226.24" gradientTransform="matrix(2.6841 0 0 2.6841 516.1064 635.1533)">
	<stop  offset="0.2727" style="stop-color:#EE845A"/>
	<stop  offset="0.4364" style="stop-color:#E64C25"/>
	<stop  offset="0.703" style="stop-color:#E64C25"/>
	<stop  offset="0.9455" style="stop-color:#EE845A"/>
</linearGradient>
<path id="SVGID_2_" class="st2" d="M134.9,26l14.7,3.5V17.4c0.4,0.4,4.3,6,8.9,10.2l6-1.6C152,17,149.9,6.5,149.7,4.9V4.7
	C147.6,17.2,135.7,25.4,134.9,26"/>
<linearGradient id="SVGID_4_" gradientUnits="userSpaceOnUse" x1="-144.8548" y1="-222.9989" x2="-126.427" y2="-222.9989" gradientTransform="matrix(2.6841 0 0 2.6841 516.1064 635.1533)">
	<stop  offset="0.1152" style="stop-color:#A44433"/>
	<stop  offset="0.4182" style="stop-color:#E64C25"/>
	<stop  offset="0.6303" style="stop-color:#E64C25"/>
	<stop  offset="1" style="stop-color:#A44433"/>
</linearGradient>
<path id="SVGID_1_" class="st3" d="M156.9,26c-4.8,4.4-7.1,8.1-7.3,8.5V26h-14.7c0.8,0.6,12.9,8.7,14.8,21.2V47
	c0.2-1.7,2.1-12.1,14.8-21L156.9,26L156.9,26L156.9,26z"/>
</svg>
