<svg xmlns="http://www.w3.org/2000/svg" width="27" height="26.438" viewBox="0 0 27 26.438">
    <defs>
        <style>
            .cls-1{fill:#f2cc7b}.cls-2{fill:#f25f60}.cls-3{fill:#f2f2f2}.cls-4{opacity:.1}.cls-5{fill:#ffd782}.cls-6{fill:#ff6465}.cls-7{fill:#fff}
        </style>
    </defs>
    <g id="tickets" transform="translate(0 -5.329)">
        <path id="Path_86" d="M131.768 6.94l-2.327-1.611a1.4 1.4 0 0 1-1.832.206l-11.663 16.846a1.4 1.4 0 0 1 .452 1.787l2.327 1.611a1.4 1.4 0 0 1 1.832-.206 1.4 1.4 0 0 1 .452 1.787l2.327 1.611a1.4 1.4 0 0 1 1.832-.206l11.664-16.845a1.4 1.4 0 0 1-.452-1.787l-2.327-1.611a1.4 1.4 0 0 1-1.832.206 1.4 1.4 0 0 1-.453-1.788z" class="cls-1" data-name="Path 86" transform="translate(-109.832)"/>
        <path id="Rectangle_8" d="M0 0h13.987v8.013H0z" class="cls-2" data-name="Rectangle 8" transform="rotate(124.694 7.497 13.521)"/>
        <path id="Path_87" d="M256.373 208.534l1.953.586 1.161-1.677.046 2.039 1.953.586-1.924.674.046 2.039-1.236-1.622-1.924.674 1.161-1.677z" class="cls-3" data-name="Path 87" transform="translate(-242.853 -191.456)"/>
        <path id="Path_88" d="M122.844 80.684l4.413-18.8-1.379-.324.117-1.218-.25-.059-9.8 14.154a1.4 1.4 0 0 1 .452 1.787l2.327 1.611a1.4 1.4 0 0 1 1.832-.206 1.4 1.4 0 0 1 .452 1.787z" class="cls-4" data-name="Path 88" transform="translate(-109.832 -52.053)"/>
        <path id="Path_89" d="M9.066 47.737L6.31 47.09a1.4 1.4 0 0 1-1.629.863L0 67.9a1.4 1.4 0 0 1 1.075 1.5l2.756.647a1.4 1.4 0 0 1 1.629-.863 1.4 1.4 0 0 1 1.075 1.5l2.756.647a1.4 1.4 0 0 1 1.629-.863l4.68-19.952a1.4 1.4 0 0 1-1.075-1.5l-2.756-.647a1.4 1.4 0 0 1-1.629.863 1.4 1.4 0 0 1-1.074-1.495z" class="cls-5" data-name="Path 89" transform="translate(0 -39.559)"/>
        <g id="Group_14" data-name="Group 14" transform="translate(1.923 10.844)">
            <path id="Path_90" d="M68.542 111.032a.458.458 0 0 1-.1-.012l-.886-.208a.455.455 0 1 1 .208-.886l.886.208a.455.455 0 0 1-.1.9z" class="cls-6" data-name="Path 90" transform="translate(-65.579 -109.913)"/>
            <path id="Path_91" d="M124.646 124.2a.458.458 0 0 1-.1-.012l-1.83-.429a.455.455 0 1 1 .208-.886l1.83.429a.455.455 0 0 1-.1.9zm-3.66-.859a.458.458 0 0 1-.1-.012l-1.83-.429a.455.455 0 0 1 .208-.886l1.83.429a.455.455 0 0 1-.1.9z" class="cls-6" data-name="Path 91" transform="translate(-114.365 -121.36)"/>
            <path id="Path_92" d="M258.838 155.686a.459.459 0 0 1-.1-.012l-.886-.208a.455.455 0 0 1 .208-.886l.886.208a.455.455 0 0 1-.1.9z" class="cls-6" data-name="Path 92" transform="translate(-245.84 -152.213)"/>
            <path id="Rectangle_9" d="M0 0h13.988v8.013H0z" class="cls-6" data-name="Rectangle 9" transform="scale(-1) rotate(-76.77 -8.358 4.67)"/>
        </g>
        <path id="Path_93" d="M93.83 257.981l2.032-.17.466-1.985.79 1.88 2.032-.17-1.544 1.332.79 1.88-1.744-1.057-1.544 1.332.466-1.985z" class="cls-7" data-name="Path 93" transform="translate(-88.882 -237.286)"/>
        <g id="Group_15" data-name="Group 15" transform="translate(15.623 7.533)">
            <path id="Path_94" d="M297.466 48.558a.452.452 0 0 1-.259-.081l-.748-.518a.455.455 0 0 1 .518-.748l.748.518a.455.455 0 0 1-.259.829z" class="cls-2" data-name="Path 94" transform="translate(-296.263 -47.13)"/>
            <path id="Path_95" d="M344.847 81.361a.453.453 0 0 1-.259-.081l-1.545-1.07a.455.455 0 1 1 .518-.748l1.545 1.07a.455.455 0 0 1-.259.829zm-3.091-2.14a.453.453 0 0 1-.259-.081l-1.545-1.07a.455.455 0 1 1 .518-.748l1.545 1.07a.455.455 0 0 1-.259.829z" class="cls-2" data-name="Path 95" transform="translate(-337.463 -75.654)"/>
            <path id="Path_96" d="M458.174 159.821a.453.453 0 0 1-.259-.081l-.748-.518a.455.455 0 1 1 .518-.748l.748.518a.455.455 0 0 1-.259.829z" class="cls-2" data-name="Path 96" transform="translate(-448.496 -152.525)"/>
        </g>
    </g>
</svg>
