<svg xmlns="http://www.w3.org/2000/svg" width="53.272" height="36" viewBox="0 0 53.272 36">
  <g id="Group_26" data-name="Group 26" transform="translate(538 -985)">
    <path id="Path_73" data-name="Path 73" d="M76.944,112.83c-2.491,0-3.969-1.275-4.082-3.111h2.382c0,.612.339,1.427,1.813,1.477,1.021,0,1.587-.612,1.587-1.072-.113-.713-1.021-.764-1.926-.92a9.307,9.307,0,0,1-2.382-.608,2.439,2.439,0,0,1-1.248-2.195c0-1.634,1.364-2.909,3.743-2.909,2.269,0,3.743,1.174,3.852,2.959H78.418c0-.456-.113-1.224-1.474-1.224-.908,0-1.473.152-1.587.815,0,.92,1.926.869,3.4,1.224a2.632,2.632,0,0,1,2.269,2.452c0,2.246-1.813,3.111-4.082,3.111M33.537,97.764l7.821-4.542,4.195,7.2H35.011" transform="translate(-565.754 908.154)"/>
    <path id="Path_75" data-name="Path 75" d="M3.128,32.306a2.663,2.663,0,0,0,2.6,2.6,2.587,2.587,0,0,0,2.608-2.6,2.619,2.619,0,0,0-2.608-2.6,2.7,2.7,0,0,0-2.6,2.6M5.619,37a4.669,4.669,0,0,1,0-9.337,4.594,4.594,0,0,1,2.721.815v-.713H10.61v9.029H8.341v-.561A4.656,4.656,0,0,1,5.62,37m30.27-12.429L25.008,5.593,32.829,1l13.6,23.571M13.557,32.306a2.589,2.589,0,0,0,2.608,2.6,2.666,2.666,0,0,0,2.608-2.6,2.7,2.7,0,0,0-2.608-2.6,2.621,2.621,0,0,0-2.608,2.6M16.052,37a4.669,4.669,0,1,1,2.721-8.522V24.653h2.265v12.14H18.773v-.561A4.931,4.931,0,0,1,16.052,37M15.94,13.806l7.934-4.487L32.6,24.571H24.326v2.246H22.061V24.571m30.716,2.316a1.123,1.123,0,1,1,0-2.246,1.123,1.123,0,1,1,0,2.246m0-2.09a.971.971,0,1,0,.9.967.91.91,0,0,0-.9-.967" transform="translate(-538.976 984)"/>
    <path id="Path_76" data-name="Path 76" d="M165.358,135.928l-.226-.51h-.226v.51h-.171V134.7h.51a.405.405,0,0,1,.339.359.363.363,0,0,1-.226.355l.226.51m-.452-1.068h-.226v.405h.226c.226,0,.226-.051.226-.2,0-.105,0-.2-.226-.2m-14.978,6.994a2.589,2.589,0,0,0,2.608,2.6,2.66,2.66,0,0,0,2.6-2.6,2.7,2.7,0,0,0-2.6-2.6,2.622,2.622,0,0,0-2.608,2.6m2.491,4.694a4.669,4.669,0,1,1,2.721-8.522v-.714h2.156v9.029h-2.156v-.561a4.914,4.914,0,0,1-2.722.768m-12.912-4.694a2.663,2.663,0,0,0,2.608,2.6,2.589,2.589,0,0,0,2.608-2.6,2.622,2.622,0,0,0-2.608-2.6,2.7,2.7,0,0,0-2.608,2.6m5.216-7.653h2.265v12.14h-2.265v-.561a4.315,4.315,0,0,1-2.608.768,4.669,4.669,0,1,1,0-9.337,4.05,4.05,0,0,1,2.608.815Z" transform="translate(-651.324 874.451)"/>
    <rect id="Rectangle_4557" data-name="Rectangle 4557" width="2.273" height="8.879" transform="translate(-516.926 1011.813)"/>
  </g>
</svg>
