<?xml version="1.0" encoding="utf-8"?>
<!-- Generator: Adobe Illustrator 24.0.1, SVG Export Plug-In . SVG Version: 6.00 Build 0)  -->
<svg version="1.1" id="Capa_1" xmlns="http://www.w3.org/2000/svg" xmlns:xlink="http://www.w3.org/1999/xlink" x="0px" y="0px"
	 viewBox="0 0 115.4 114" style="enable-background:new 0 0 115.4 114;" xml:space="preserve">
<style type="text/css">
	.st0{fill:#F7E436;}
</style>
<path class="st0" d="M0,10.8L103.1,0l10.8,103.1L10.8,114C10.8,114,0,10.8,0,10.8z"/>
<path d="M97.3,25.2l-1.4-13.1L95.6,12c-2.7-0.9-5.5-1.6-8.3-1.9c-2.8-0.3-5.5-0.3-8.2-0.1c-3.9,0.4-7.1,1.2-9.4,2.4
	c-2.6,1.4-4.2,2.9-5.1,5c-0.6,1.3-1,2.4-1.1,4c-0.1,1.7,0,4,0.3,7.5l1.5,14.7c0.4,3.8,0.9,6.4,1.5,8.1c0.6,1.7,1.3,2.4,2.3,3.4
	l0.3,0.3c1.5,1.6,3.5,2.7,6,3.2c2,0.5,5.1,1,9,0.6c3-0.3,5.8-1.4,8.4-2.5c2.7-1.1,5.1-2.6,7.3-4.4l0.2-0.2L98,30.7l-16.4,1.7
	l0.9,8.9l5.7-0.6l0.6,5.9c-0.8,0.9-2.9,1.8-5.7,2.1c-1.7,0.2-2.9-0.2-3.8-1.1c-0.9-1-1.4-2.5-1.7-4.9L76,27.2
	c-0.2-2.3-0.1-3.9,0.6-5.1c0.6-1.1,1.8-1.7,3.4-1.9c1.6-0.2,2.8,0.2,3.6,1c0.9,0.9,1.4,2.2,1.6,4.2l0.1,0.8
	C85.3,26.2,97.3,25.2,97.3,25.2z M33.5,64.2c3.9-0.4,6.8-1.6,8.6-2.5c2.3-1.1,4-2.5,5.2-4.4l0.2-0.3c0.7-1.2,1.3-2.1,1.5-3.8
	c0.2-1.9,0.5-2.1,0.4-3.7c-0.3-3.2-1.2-5.5-2.8-7.5c-1.3-1.6-3-2.7-5.2-3.3c1.6-1,2.9-2.3,3.7-4c1.1-2.1,1.4-4.3,1.1-7.1
	c-0.5-4.5-2-7.2-5.2-9.3c-2.9-1.9-7.4-2.6-13.3-2l-18.6,2l0.9,8.3l0.4,0.1c0.8,0.1,1.4,0.4,1.8,0.8c0.4,0.5,0.6,1.5,0.8,3.3L15.3,53
	c0.2,1.8,0.2,2.8-0.1,3.4c-0.2,0.5-0.8,0.9-1.6,1.1l-0.4,0.1l0.9,8.5C14.1,66.1,33.5,64.2,33.5,64.2z M35.2,45.1
	c1.1,0.8,1.6,1.9,1.8,3.7s-0.1,3-0.9,3.9c-0.8,0.9-2.2,1.5-4.3,1.7l-3.5,0.4l-1.1-10.1l3.3-0.3C32.6,44.1,34.2,44.3,35.2,45.1z
	 M33.3,33.4c-0.7,0.7-2.1,1.2-4.2,1.5l-3,0.3l-0.9-8.4l3-0.3c2-0.2,3.5,0,4.4,0.6c0.9,0.7,1.4,1.6,1.5,3.2
	C34.3,31.9,33.9,32.7,33.3,33.4z M47.1,20c0.1,0.5,0.2,0.9,0.3,1.5L53.3,47l0.1,0.4l6.5-0.7l0.5-26.4v-2.8c-0.2-2-0.9-3.3-2.3-4.4
	c-1.3-1-3.1-1.5-5.1-1.2c-2.1,0.2-3.6,1-4.7,2.3C47.2,15.6,46.8,17,47,19l0.1,0.7C47.1,19.7,47.1,20,47.1,20z M52.9,52.3
	c-1.1,1.3-1.5,2.8-1.4,4.5c0.2,1.6,0.9,3,2.3,4.1c1.3,1.1,2.8,1.5,4.5,1.4c1.7-0.2,3.1-0.9,4.1-2.2c1.1-1.3,1.5-2.8,1.3-4.5
	s-0.9-3.1-2.2-4.1c-1.3-1.1-2.8-1.5-4.5-1.3C55.4,50.2,54,51,52.9,52.3z M40.1,83.9c1.1-0.7,2-1.7,2.6-2.9c0.8-1.6,1.1-3.3,0.9-5.4
	c-0.4-3.4-1.5-5.6-3.9-7.1c-2.1-1.4-5.2-1.8-10-1.3l-15,1.6l0.7,6.3h0.4c0.6,0.1,1,0.3,1.2,0.6c0.3,0.4,0.4,1.1,0.6,2.4l1.7,16.5
	c0.1,1.3,0.1,2.2-0.1,2.6c-0.2,0.3-0.5,0.6-1.1,0.8l-0.4,0.1l0.7,6.6l15.5-1.6c4.6-0.5,7.9-1.7,9.7-3.5c2-2,2.7-4.2,2.3-7.7
	c-0.3-2.4-0.9-4-2.1-5.5C42.8,85.2,41.6,84.4,40.1,83.9z M28.3,88.5l3.3-0.3c1.6-0.2,2.7,0,3.4,0.6c0.8,0.6,1.1,1.3,1.3,2.7
	c0.1,1.3,0,2.2-0.6,2.8c-0.6,0.6-1.6,1.1-3.1,1.2l-3.5,0.4C29.1,95.9,28.3,88.5,28.3,88.5z M33.6,79.8c-0.5,0.5-1.6,0.9-3,1l-3,0.3
	l-0.6-6l3-0.3c1.5-0.2,2.6,0,3.2,0.5c0.6,0.4,1,0.9,1.1,2.3C34.3,78.8,34,79.3,33.6,79.8z M85.4,97.7l-0.7-6.6l0.4-0.1
	c0.5-0.1,0.9-0.4,1-0.7c0.2-0.4,0.2-1.2,0.1-2.4l-0.5-4.4l-8.5-12.9c-0.4-0.6-0.7-1-1.1-1.3c-0.3-0.2-0.6-0.4-0.8-0.5l-0.4-0.1
	l-0.7-6.3l10.8-1l0.5,4.5c0.1,0.9,0.2,1.6,0.4,2.2c0.2,0.6,0.4,1.1,0.7,1.6l2.3,3.4l1.6-3.8c0.2-0.5,0.3-1.1,0.4-1.7v-2.3l-0.5-4.5
	l10.5-1.1l0.7,6.3l-0.3,0.2c-0.3,0.1-0.5,0.3-0.7,0.6c-0.3,0.3-0.5,0.8-0.8,1.4l-5.6,14.4l0.5,4.4c0.1,1.2,0.3,1.9,0.6,2.3
	c0.2,0.3,0.6,0.5,1.2,0.5h0.4l0.7,6.6L85.4,97.7z M61.6,92.9c1.2-0.1,1.8-0.5,2.2-1.3c0.5-0.9,0.6-2,0.4-3.8L62.8,74
	c-0.2-1.5-0.4-2.3-0.7-2.8c-0.3-0.4-0.7-0.7-1.3-0.8l-0.4-0.1l-0.6-5.7l13.4-2l0.7,6.2L73.6,69c-0.7,0.3-1.1,0.7-1.3,1
	c-0.2,0.4-0.2,1-0.1,2.2l1.5,14.5c0.5,4.6-0.1,7.5-1.9,9.9c-1.7,2.3-4.8,3.7-9.4,4.2s-7.9-0.3-10.1-2.1c-2.3-2-3.5-4.7-4-9.3
	l-1.5-14.5c-0.1-1.1-0.3-1.7-0.6-2.1c-0.2-0.3-0.7-0.6-1.5-0.7L44.3,72l-0.7-6.2L57.1,65l0.6,5.7l-0.3,0.2c-0.6,0.3-0.9,0.6-1.1,1.1
	c-0.2,0.5-0.2,1.4-0.1,2.8l1.5,13.9c0.2,1.7,0.6,2.8,1.2,3.6c0.6,0.7,1.2,1,2.4,0.8L61.6,92.9L61.6,92.9z M95.6,9.3
	c0.1,0.7-0.4,1.3-1.1,1.3c-0.7,0.1-1.3-0.4-1.4-1.1c-0.1-0.7,0.4-1.2,1.1-1.3S95.5,8.6,95.6,9.3z M93.4,9.5c0.1,0.5,0.5,0.9,1,0.9
	c0.5-0.1,0.9-0.5,0.8-1s-0.5-0.9-1-0.9S93.4,9,93.4,9.5z M94.2,10h-0.3l-0.1-1.2c0.1,0,0.3-0.1,0.5-0.1h0.4c0.1,0,0.1,0.1,0.1,0.2
	s-0.1,0.2-0.2,0.3c0.1,0,0.2,0.1,0.2,0.3C95,9.9,95,9.9,95,10h-0.3c0,0-0.1-0.1-0.1-0.3c0-0.1-0.1-0.2-0.3-0.2h-0.1
	C94.2,9.5,94.2,10,94.2,10z M94.2,9.4c0.3,0,0.4-0.1,0.4-0.2C94.6,9,94.5,9,94.3,9h-0.2L94.2,9.4z M52.9,52.3
	c-1.1,1.3-1.5,2.8-1.4,4.5c0.2,1.6,0.9,3,2.3,4.1c1.3,1.1,2.8,1.5,4.5,1.4c1.7-0.2,3.1-0.9,4.1-2.2c1.1-1.3,1.5-2.8,1.3-4.5
	s-0.9-3.1-2.2-4.1c-1.3-1.1-2.8-1.5-4.5-1.3C55.4,50.2,54,51,52.9,52.3z"/>
</svg>
