<svg xmlns="http://www.w3.org/2000/svg" width="99.214" height="16" viewBox="0 0 99.214 16">
  <g id="calvin-klein-1_1_" data-name="calvin-klein-1 (1)" transform="translate(-2.835 -81.293)">
    <path id="Path_146" data-name="Path 146" d="M10.823,95.9A6.614,6.614,0,0,1,10.8,82.682a6.483,6.483,0,0,1,5.321,2.865h1.7a7.643,7.643,0,0,0-1.885-2.419,8.26,8.26,0,0,0-5.11-1.835,8,8,0,1,0,.025,16,8.052,8.052,0,0,0,4.937-1.761,9.962,9.962,0,0,0,2.1-2.568h-1.7a6.605,6.605,0,0,1-5.359,2.94Zm17.613-8.372a5.353,5.353,0,0,0-4.316-2.245,5.854,5.854,0,1,0,0,11.709,5.168,5.168,0,0,0,4.316-2.22v1.96h1.4V85.559h-1.4Zm-4.39,8.174a4.567,4.567,0,0,1,0-9.128,4.568,4.568,0,0,1,0,9.128Zm7.491,1.029h1.5V81.615h-1.5Zm7.169-1.774-3.8-9.4H33.421l4.552,11.175h1.513l4.54-11.175H42.563Zm5.941,1.774h1.5V85.559h-1.5V96.735Zm0-12.614h1.5V81.615h-1.5Zm7.963,1.166a4.5,4.5,0,0,0-3.349,1.737V85.559H47.871V96.735h1.476v-6.81a3.346,3.346,0,0,1,3.287-3.348c2.269,0,3.41,1.972,3.41,4.007v6.152h1.389V90.583c0-2.9-1.7-5.3-4.824-5.3Zm18.753-3.671-6.822,8.67v-8.67H63.065v15.12h1.476V92.58l1.935-2.406L71.4,96.735h1.874l-5.855-7.752,5.855-7.368Zm2.456,15.12h1.464V81.615H73.819ZM87.4,88.375a5.887,5.887,0,1,0-5.172,8.62,6.03,6.03,0,0,0,4.13-1.662,6.508,6.508,0,0,0,1.426-2.258H86.21a4.39,4.39,0,0,1-8.386-1.4H88.132A6.565,6.565,0,0,0,87.4,88.375Zm-9.526,2.009a4.546,4.546,0,0,1,4.354-3.808,4.343,4.343,0,0,1,4.378,3.808Zm11.35,6.35H90.7V85.559H89.224V96.735Zm0-12.564H90.7V81.615H89.224Zm7.963,1.116A4.56,4.56,0,0,0,93.8,87.023V85.559H92.386V96.735h1.489v-6.81a3.372,3.372,0,0,1,3.336-3.348c2.258,0,3.449,1.972,3.449,4.007v6.152h1.389V90.583c0-2.9-1.725-5.3-4.862-5.3Z" transform="translate(0 0)" fill-rule="evenodd"/>
  </g>
</svg>
