<svg xmlns="http://www.w3.org/2000/svg" width="54.156" height="36" viewBox="0 0 54.156 36">
  <g id="lacoste" transform="translate(-8.501 -33.497)">
    <path id="Path_106" data-name="Path 106" d="M35.627,126.3V123.98l.041.006.169-.027.176-.034.17-.047.223-.1.162-.1.149-.115.217-.223.135-.2.115-.2.129-.263.081-.244.067-.237.054-.25.047-.25.034-.244.02-.25.014-.25v-.156l-.007-.25-.013-.25-.027-.244-.047-.257-.04-.244-.047-.156-.067-.182-.081-.183-.1-.169-.122-.169-.116-.149-.128-.135-.135-.108-.2-.135-.162-.081-.169-.061-.176-.054-.23-.034-.135-.006v-2.092h.156l.264.027.25.041.244.047.23.075.244.1.237.1.223.108.21.115.2.122.19.135.19.142.176.162.183.169.162.183.162.2.156.23.135.223.108.2.088.2.088.21.081.244.067.244.068.25.047.244.054.258.027.257.027.244.013.271v.406l-.006.263-.02.251-.027.257-.047.244-.041.264-.054.244-.067.25-.081.244-.081.237-.1.251-.1.23-.115.23-.115.23-.067.108.04-.054-.075.1-.074.108-.149.2-.169.182-.169.183-.183.176-.183.162-.2.149-.264.183-.21.122-.217.108-.223.095-.23.088-.25.061-.23.047-.23.034-.237.013h-.114Zm5.6-2.958-.413.365-.006.014-.047.061-.047.054-.027.075-.02.081-.007.067v.081l.014.081.02.068.04.074.041.061.115.155.156.183.176.176.176.162.19.162.2.149.271.183.21.122.21.115.217.1.223.081.223.075.23.061.338.061.23.041.237.013h.23l.237-.013.23-.041.23-.034.23-.068.223-.067.277-.108.2-.095.2-.1.2-.122.182-.128.17-.156.169-.149.142-.169.142-.176.149-.21.115-.176.1-.183.088-.2.075-.19.047-.21.034-.21.02-.21.006-.122-.013-.21-.027-.21-.047-.19-.061-.21-.075-.2-.095-.2-.108-.183-.129-.162-.156-.176-.169-.169-.176-.149-.183-.142-.2-.135-.2-.122-.21-.108-.217-.1-2.058-.806-.088-.054-.1-.095-.1-.1-.1-.135-.067-.1-.054-.122-.04-.122-.02-.122-.006-.129.013-.122.047-.19.054-.122.074-.115.088-.116.088-.095.115-.088.19-.1.149-.04.162-.02.162-.014.162.014.156.02.156.047.155.061.135.081.135.088.637.6.047.034.061.047.067.04.088.027.088.014h.075l.081-.006.075-.02.075-.034.067-.047.068-.047.047-.061.664-.657.054-.054.034-.068.04-.081.014-.095v-.136l-.02-.1-.034-.081-.034-.081-.054-.068-.034-.034h.007l-.054-.047-.176-.162-.19-.156-.2-.142-.2-.135-.21-.122-.217-.108-.223-.1-.318-.115-.223-.081-.223-.068-.23-.047-.237-.034-.237-.02-.23-.014-.237.014-.237.02-.23.034-.332.081-.2.047-.2.068-.2.088-.183.088-.176.115-.17.122-.2.183-.142.169-.129.169-.129.19-.1.183-.088.237-.075.217-.047.223-.04.224-.02.23-.006.23.013.224.02.237.034.21.047.21.067.2.075.2.156.251.129.2.149.176.162.169.162.156.183.149.189.135.2.122.2.108.217.095.115.041,1.652.575.088.04.108.054.108.068.129.115.088.108.075.115.047.1.047.108.027.115.02.115v.075l-.007.115-.02.116-.047.1-.081.143-.1.122-.115.122-.2.149-.176.067-.169.068-.183.04-.176.027-.2.006-.183-.006-.183-.027-.277-.074-.169-.068-.176-.095-.154-.108-.156-.116-.135-.142-.122-.149-.108-.156-.047-.081-.014-.006-.027-.034-.034-.047-.047-.054-.054-.041-.1-.054-.081-.013h-.1l-.095.006-.088.02-.088.04-.075.041-.312.3Zm10.392,2.877.744-.007h.027l.081-.013.075-.02.081-.034.061-.047.075-.047.047-.067.047-.068.034-.074.027-.088.02-.081v-.04l-.04-.034v-6.83l.013-.082.027-.081.047-.1.04-.067.061-.054.061-.047.067-.047.081-.027.075-.02.081-.013.088.006,1.171-.006.061.006.068-.006.075-.02.067-.02.088-.054.068-.067L55.2,118l.04-.081.034-.081.027-.081.02-.1.007-1.13-.027-.081-.027-.075-.027-.061-.041-.068-.061-.067-.061-.047-.068-.041-.081-.04-.067-.013-.081-.014-.075-.006h-6l-.027.006-.075.014-.074.02-.081.034-.068.047-.054.054-.061.054-.034.061-.027.068-.027.075-.014.067-.027,1.151v.054l.007.081.02.068.041.088.04.061.054.061.054.054.061.041.067.027.075.027.081.013H48.7l1.259.007.081.006.081.02.075.034.074.047.054.047.054.068.047.054.041.075.013.081.014.041-.034.054v6.851l.007.088.013.075.034.095.027.068.047.061.054.061.068.047.061.041.075.034.074.013.075.007h.624Zm5.205-10.209H56.8l-.081.013-.081.02-.095.054-.061.04-.061.061-.047.047-.041.075-.034.067-.02.075-.006.088-.034.041v9.044l.006.081.014.075.054.122.054.068.054.067.067.054.075.047.081.027.088.027.034.006h.047l5.233.007h.013l.081-.007.075-.013.061-.02.081-.047.061-.047.061-.067.041-.068.047-.074.02-.088.014-.075.006-.061.014-1.124v-.047l-.014-.081-.02-.081-.034-.061-.04-.061-.054-.061-.068-.061-.067-.041-.075-.034-.081-.034-.081-.014-.04-.02H59.2l-.061-.007-.067-.013L59,123.88l-.074-.047-.068-.054-.061-.061-.041-.068-.034-.088-.034-.075-.014-.088v-.067l.007-.637.006-.081.034-.067.034-.075.068-.095.054-.054.067-.041.068-.04.081-.02.081-.013.074-.007h.027l1.815-.013h.054l.081-.02.081-.02.074-.04.075-.061.054-.054.061-.075.04-.075.034-.081.02-.095.013-.081-.02-1.185-.014-.074-.027-.068-.034-.074-.054-.088-.061-.054-.068-.054-.067-.04-.081-.02-.068-.027-.088-.006h-.047l-1.814-.02h-.047l-.088-.013-.081-.027-.081-.041-.067-.04-.047-.041-.047-.061-.034-.061-.027-.068-.027-.067v-.136l.013-.542.014-.075.027-.088.047-.1.047-.054.054-.061.068-.047.061-.04.075-.027.075-.02.081-.006h2.8l.075-.006.074-.007.081-.034.075-.027.061-.04.068-.061.054-.061.047-.075.034-.074.02-.075.02-.081v-.095l-.013-1.083-.007-.075-.02-.075-.02-.067-.075-.081-.061-.061-.075-.054-.088-.041-.081-.034-.095-.02-.068-.02H56.822v0Zm-21.195-.176v2.092H35.58l-.176.02-.169.02-.183.054-.162.061-.162.081-.142.1-.162.129-.128.135-.108.128-.115.2-.1.21-.128.359-.068.237-.047.244-.041.251-.027.25-.014.244-.007.25.014.25.014.25.027.244.047.244.054.244.068.244.074.23.088.237.054.115.081.169.108.156.156.19.115.108.122.1.135.088.068.034.169.075.034.02.088.02.176.034.169.02.128.007v2.315l-.115.007-.23-.007-.237-.034-.115-.013-.061-.014-.223-.047-.23-.068-.23-.075-.223-.095-.217-.1-.21-.115-.2-.129-.2-.135-.19-.162-.176-.156-.162-.169-.264-.291-.142-.2-.128-.21-.122-.21-.115-.217-.061-.129-.1-.237-.088-.237-.081-.237-.081-.244-.054-.243-.061-.251-.041-.25-.04-.257-.02-.244-.014-.258v-.514l.02-.251.034-.25.034-.257.041-.25.068-.244.061-.244.081-.244.088-.25.088-.23.095-.182.115-.224.128-.217.135-.21.142-.2.156-.2.19-.2.176-.176.183-.149.2-.149.21-.135.21-.129.23-.122.23-.1.223-.088.237-.075.237-.061.244-.04.251-.034.25-.013.081.007Zm-16.836,8.1v-1.747H19.3l.068-.027.061-.027.081-.041.054-.047.047-.047.034-.061.034-.054.014-.075.027-.068v-.04l-.007-.067-.02-.068v-.013l-.724-3.236-.014-.006v-.014l-.007-.006-.007-.013-.006-.014-.014-.006-.007-.014-.014-.006-.034-.027-.02-.013-.034-.007h-.02v-2.179l1.374.006.149.034.115.047.115.047.075.074.041.047.034.061.027.061.014.007,2.518,9.078-.007.014.014.04.007.047.007.075-.007.081-.014.081-.027.082-.041.074-.048.068-.061.054-.061.054-.075.04-.068.02-.075.014h-.054l-1.564.006-.108-.014-.088-.02-.075-.034-.068-.054-.068-.054-.041-.067-.034-.054-.034-.068-.006-.047-.345-1.462-.027-.068-.041-.061-.041-.067-.047-.061-.061-.034-.081-.047-.075-.034-.081-.02-.088-.007h-.02l-.96-.014Zm11.718-.636-.413-.468-.02-.006-.061-.04-.074-.02-.075-.027-.081-.006-.068.006-.061.013-.068.02-.061.027-.054.041-.041.054-.047.047-.054.081-.088.149-.108.149-.115.135-.169.143-.149.1-.156.088-.162.068-.156.054-.183.034-.183.02h-.183l-.19-.014-.183-.034-.176-.054-.23-.088-.162-.1-.169-.115-.142-.142-.183-.183-.122-.2-.115-.21-.1-.21-.088-.217-.047-.142-.047-.237-.054-.237-.027-.244-.014-.244-.007-.25.007-.244.02-.244.034-.237.047-.244.061-.237.068-.237.088-.23.068-.17.088-.176.108-.169.115-.156.149-.169.149-.129.156-.122.162-.1.169-.081.2-.075.162-.047.162-.034.156-.006.244.02.183.047.176.061.176.081.156.095.162.108.135.122.128.142.122.142.027.034.047.034.047.034.054.02.081.013H29.6l.088-.006.075-.02.068-.034.074-.034.054-.061.061-.047.839-1.083.02-.054.041-.088.02-.1.014-.075v-.04l-.007-.081-.014-.067-.027-.075-.041-.068-.041-.054-.061-.061-.047-.034-.19-.149-.19-.149-.2-.129-.21-.115-.217-.108-.244-.108-.23-.067-.23-.068-.23-.054-.244-.04-.237-.027-.25-.007-.244.007-.237.013-.237.02-.244.047-.23.054-.332.1-.229.09-.217.1-.223.115-.21.122-.2.129-.2.149-.19.156-.217.217-.176.169-.156.19-.142.2-.149.2-.122.21-.108.2-.095.23-.088.244-.081.243-.074.244-.081.359-.054.251-.034.25-.034.257-.027.258-.014.257v.508l.02.257.027.258.034.25.041.25.061.257.061.25.074.244.081.237.088.244.095.23.108.237.115.223.135.23.128.217.1.149.142.176.223.237.176.156.2.142.2.129.21.122.156.088.217.1.223.081.23.075.23.061.318.068.23.04.23.014h.23l.23-.007.237-.034.223-.04.223-.054.244-.075.217-.088.21-.108.21-.108.19-.129.183-.135.176-.149.169-.17.156-.169.142-.182.128-.2.115-.2.1-.19.02-.061.02-.075.014-.074-.007-.116-.02-.1-.034-.088-.047-.095-.054-.1ZM9.023,126.215l4.326.006h.027l.081-.014.081-.027.095-.04.068-.061.061-.067.054-.068.047-.074.027-.088.02-.081.007-.088v-1.13l-.014-.075-.02-.067-.027-.075-.054-.1-.047-.061-.067-.054-.068-.047-.075-.041-.075-.02-.081-.013-.054-.006H11.582l-.067-.007-.075-.013-.061-.027-.088-.054-.061-.047-.061-.067-.041-.075-.041-.067-.02-.082-.014-.088v-6.891l-.007-.068-.014-.074-.027-.061-.047-.081-.047-.061-.061-.054-.061-.034-.068-.04-.081-.027L10.566,116l-.075-.006L9.057,116H9l-.074.014-.068.02-.095.047-.061.047-.054.061-.054.061-.034.075-.027.075-.014.075-.007.04v.068l-.014,9v.108l.014.068.014.075.027.074.041.061.054.061.047.054.068.04.061.041.075.027.034.013.089.008Zm9.768-10.209v2.179h-.047l-.027.014-.027.013-.034.02-.02.027-.02.02-.006.013-.007.014-.014.034-.717,3.263v.047l-.007.075.007.054.014.068.027.061.04.075.061.054.054.054.075.047.034.014.1.034h.514v1.747h-.92l-.027.006-.088.006-.074.014-.088.027-.074.034-.068.047-.068.061-.054.061-.034.061-.02.061-.014.061-.339,1.462-.027.074-.047.068-.047.061-.061.054-.054.047-.115.054-.081.013-.088.014-1.252-.006h-.061l-.075-.007-.075-.027-.061-.027-.061-.039-.047-.047-.054-.054-.034-.061-.027-.068-.027-.108-.014-.081v-.081l.014-.095V125.5l2.511-9.092.027-.061.041-.081.068-.074.068-.075.075-.047.088-.047.068-.013.068-.006Z" transform="translate(0 -56.886)" fill-rule="evenodd"/>
    <path id="Path_107" data-name="Path 107" d="M39.172,68.966l-.02.027.034.021.007.034.014.075v.061l-.014.081-.007.088-.041.081-.027.034v.027l-.332.345-.068.115-.088.183-.075.264-.007.217-.014.19.02.19.054.182.068.163.095.17.1.121.366.325V68.831l-.068.135-.42-.981.034-.095.054-.135.075-.115.1-.129.115-.088.041-.041.02-.02.034-.014.014-.007v-.826h-.068l-.054.014-.02-.014h-.02l-.013-.014-.027-.014-.02-.014L39,66.455l-.02-.014-.014-.02-.041-.054-.02-.129v-.2l.041-.169.041-.129.1-.183.149-.169V63.293l-.02.007-.1-.014-.027-.014-.034-.02-.041-.02-.034-.068-.373-.677-.02-.088v-.115l.034-.047.034-.061.034-.061.027-.007.02-.034.088-.041.013-.014h.142l.108.02.041.014.075.061.034.041V61.52l-.02-.007-.047-.007-.041.007h-.014l-.128-.007-.081-.027-.108-.095-.034-.047-.027-.047v-.068l-.007-.074.162-.718.02-.075.054-.034.02-.02v-.014l.068-.027.04-.02h.095l.047.02v-.338l-.014-.021-.02-.034v-.19l.02-.068.014-.027V58.277l-.034.027-.014.02-.047.041-.081.068-.081.1-.054.095-.047.108-.02.108-.095.379-.067.115-.075.136-.108.115-.075.088-.067.095-.061.108-.047.108-.027.122-.014.074v.386H38.21v.088l-.006.034-.014.02v.034l-.02.027-.034.047-.02.027-.014.027-.02.007-.251.264-.054.061-.041.081-.054.081-.02.1-.014.108v.095l.027.095.041.095.02.047.034.156h-.014l.014.074v.095l-.014.149-.034.162v.034l-.061.2-.014.014-.02.054-.014.061v.067l.014.068.014.02.007.04.014.014.169.4h-.014l.014.088.014.163v.088l-.014.081.014.013-.339,1.09-.081.251-.1.386-.034.521-.007.379.041.386.074.365.122.359.163.345.2.338.223.291.251.251.054.02h.067l.041-.02.007-.034.014-.014Z" transform="translate(-19.913 -17.144)" fill="#2b7563" fill-rule="evenodd"/>
    <path id="Path_108" data-name="Path 108" d="M43.632,62.209l.041-.047L43.862,62l.224-.142.237-.115.257-.088.047-.013v-.657l-.311-.4-.108.034-.047-.1-.007-.047-.014-.014-.027-.088-.014-.075v-.041l.014-.02v-.061l.014-.041.027-.02.02-.047.041-.047.1-.047.311-.014v-.447l-.088.007-.075-.014-.088-.047-.061-.047-.068-.095-.068-.744.088-.318.02-.02.014-.034.02-.007.034-.014.041-.013.047.013.02.021.034.034.129.223V56.069l-.088-.081-.021-.061-.02-.034V55.7l.034-.541.081-.257.014-.027V53.686l-.014.007-.108.088-.108.095-.095.108-.068.115-.054.135-.027.129-.135.4-.007.007-.034.034-.034.054-.034.034-.041.02-.02.02-.216.169v1.307l.291-.609h.02l.034-.02h.068l.041.02.013.014.027.061.163.7v.095l-.041.122-.034.041-.041.034-.047.041-.081.047h-.176l-.115-.047-.061-.061-.041-.047-.02-.054v.338l.088.075.02.02h.014l.047.014.027.027.02.014.034.054.075.1.014.007.007.054.054.149.014.136-.014.034v.108l-.02.149-.068.115-.061.128-.081.047-.061.041h-.054l-.054-.014v.636l.413.582.007.02v.027l-.007.061.007.006-.007.054-.014.034-.02.04-.318.284-.041.02-.02.007v2.092Zm0,6.573.291.257.433.839.271-.887V62.818l-.9.481H43.72l-.027.014-.02.014h-.027l-.014.014v.826l.041-.014.034-.014.034-.02h.122l.007.007H43.9l.034.027.041.034.034.007.007.027.034.047.034.088.027.081v.081l-.014.095-.013.088-.034.081v.027l-.42.846v3.128Z" transform="translate(-24.306 -13.968)" fill="#2b7563" fill-rule="evenodd"/>
    <path id="Path_109" data-name="Path 109" d="M47.267,55.6v.535l-.244.366-.034.074-.021.068-.034.108-.014.136V57.1l.027.088V57.2l.034.075.007.061.014.014.014.034.095.108.075.054.054.007h.027v2.159l-.041-.02-.054-.007-.312.007v-.447l.075-.007.088-.041.075-.041.061-.075.047-.061.014-.061.007-.142v-.007l-.365-.623V55.81l.122.027.061-.027h.034l.054-.034.108-.115.027-.047V55.6Zm0-2.288h-.115l-.034.014-.136.054-.122.047v1.191l.034-.061.061-.054.108-.075.142-.034.061.014v-1.1Zm-.406,8.069.2-.041.142-.02.054.014h.007V60.38l-.345.413-.061-.067v.657Zm0,7.352.034-.061.061-.094.034-.034.034-.047.054-.027.075-.02.054-.013h.061V62.349H47.26l-.4.21Z" transform="translate(-26.54 -13.709)" fill="#2b7563" fill-rule="evenodd"/>
    <path id="Path_110" data-name="Path 110" d="M48.179,58.553l.23-.014h.142l.149.02.21.041.1.047v-.136l-.095-.027H48.9l-.061-.054-.047-.034-.034-.054-.027-.02-.013-.047-.02-.034-.034-.095v-.115l.054-.2-.129.02-.013-.034v-.1l.027-.135.041-.075.041-.061.02-.02.067-.027.108-.02h.068l.067.02v-.2L49,57.178l-.034-.047V57.1l-.027-.088v-.1l-.027-.129.014-.074v-.034l.014-.027.027-.034v-.047l.04-.034v-.277l-.04.013-.02.041-.041.034-.027.02-.047.034H48.7l-.075-.014-.061-.02-.034-.034-.041-.027-.047-.047-.014-.034-.041-.108-.02-.074h.014L48.348,56v-.054l-.014-.02V55.77l.014-.027v-.081l.034-.169.047-.176.068-.108.054-.075.034-.061.054-.02.02-.027.034-.007.034-.014.061.014.02.034.054.02.149.413V53.2H49l-.054-.007-.054-.041-.095-.068-.047-.054-.027-.115v-.142l.2-.731.061-.135.02-.034v-.359h-.02l-.277-.149.217-.8.081-.034v-.9l-.02.007-.02.027-.041.014-.068.047-.054.061-.041.054-.041.075-.21.487-.027.034-.034.027-.034.027-.041.021-.027.014h-.006l-.027.006h-.142v1.1l.047.006.047.02.027.041.034.047.014.014.02.061.014.142-.014.095-.02.034-.014.088-.075.142-.054.075.007.034.014.041.02.054-.02.115v.088l-.047.095v.528l.014-.014.02-.014.034-.014h.088l.088.047.054.095.054.142-.014.684-.041.156-.02.1-.047.075-.041.075-.02.014-.034.034-.068.047h-.068v2.159l.014.007.014.034.041.02.027.061.014.075.014.142V57.4l-.041.075-.034.061-.047.061v.954Zm0,7.1h.014l.02.013h.027l.02.006.054.034.007.007.027.013.006.02.027.014.007.02h.034l.589.785V63.007l-.027-.034-.034-.04-.007-.014-.014-.02v-.041l-.014-.027v-.095l.014-.021v-.027l.014-.02.007-.041.061-.108v-2.9l-.1-.054-.156-.061-.115-.027h-.122l-.136.027-.122.034-.054.027h-.027Zm1.638-15.076v4.7l-.014-.014h-.041l-.054.014-.054.014-.034.041-.02.007-.054.088-.014.034-.02.068-.02.054-.02.007-.027.074-.007.014v.054l-.014.054.014.041.007.054.034.02.068.061v.047l.007.034.067.1.054.027.02.027.068.007.054.02v.67l-.047-.182-.041-.081-.068-.135-.061-.081-.047-.027-.041-.034h-.007l-.068-.007H49.4l-.055.034-.02.007-.02.054-.054-.02-.054.02h-.034l-.04.02-.1.061-.007.007-.007.007v-.277h.007l.02-.02.075-.041.034-.054.02-.054v-.047l.014-.007-.014-.136-.156-.413V53.2l.047-.007.142-.041.088-.061.054-.034.352-.8-.223-.427-.067-.067-.034-.034-.061-.02-.108.02-.122.088-.061.047-.007.007v-.359l.081.014.074-.014.088-.041.075-.054.176-.176.149-.2.115-.264.047-.2Zm0-1.286-.339.169-.2.068-.183.075-.014.014-.041.007-.027.007v.9l.014-.006.176-.108.169-.162.075-.108.318.128.02.02.034.075V49.292Z" transform="translate(-27.451 -10.928)" fill="#2b7563" fill-rule="evenodd"/>
    <path id="Path_111" data-name="Path 111" d="M50.881,58.313l.122.054.23.136.2.176.176.21.075.122V57.88l-.02-.041v-.1l.007-.041.014-.034v-.521l-.034.081-.02.041-.054.02-.068.014H51.47l-.034-.02-.061-.054-.027-.02-.007-.034-.034-.014-.041-.075-.027-.034-.007-.061-.122.007h-.034l-.115-.041-.034-.014-.034-.061-.014-.014v.2h.014l.088.068.108.115.02.047.034.02.041.014.027.041.081.128.021.034.014.088v.128l-.014.129v.014l-.021.047-.041.034-.014.034-.04.068-.075.054-.047.027L51,58.185h-.095l-.027-.007v.136Zm0,3.872.447-.792V61.38l.034-.142.02-.135V60.96l-.02-.149v-.027l-.142-1.049-.02-.027-.014-.047-.047-.108-.061-.095L51,59.363l-.1-.068-.014-.007v2.9Zm0,4.048.081.1.257-1.029.034-.081.061-.121.088-.089.034-.034.047-.02.027-.014.02-.007h.034l.1-.014h.02V62.889l-.447-.054-.061-.014-.088-.021L51,62.747l-.034-.014-.034-.007-.007-.02-.034-.027-.007-.007v3.561Zm1.09-10.391v.426l-.007.014-.027.014-.014.041-.02.054-.034.081-.014.034.014.075v.081l.047.108.047.074.007.007v.589l-.162.075-.088.075-.02.041-.014.034v-.521l.02-.041v-.088l.013-.183-.013-.149-.02-.122v-.67l.054.014.115-.014.088-.041.027-.007Zm0-7.033-.223.122-.061.027V50.1l.014.088-.014.054v4.7h.054l.041.02.027.034.061.054.054.061.047.061V53.514h-.007l-.081-.027-.014-.027-.027-.034-.013-.021.013-.67-.095-.514.014-.068v-.068l.02-.061.014-.041.075-.088.054-.034.047-.014v-.555l-.264-.413-.007-.3.271-.67Zm0,12.476-.19.846h.19Zm-.284-2.274.142.23.115.284.027.1V58.394l-.047-.027L51.9,58.3l-.217-.42Zm0,5.916h.074l.02.014h.027l.007.007.041.027.034.02.027.04.054.054V62.93l-.284-.041Z" transform="translate(-29.321 -10.594)" fill="#2b7563" fill-rule="evenodd"/>
    <path id="Path_112" data-name="Path 112" d="M54.716,55.731v.311l-.02.007h-.02l-.257.128v-.589l.061.054.02.034.067.02.041.027.068.027Zm0-3.5v2.383l-.068.027-.047.007-.027.027-.04.061-.034.02-.007.034V54.8l-.027.054-.007.088-.027.027-.014.034V54.58l.041-.014.034-.034.041-.088-.02-.095v-.014l-.02-.041v-.122l-.014-.054v-.034l-.02-.047-.014-.034v-.034l-.02-.054-.007-.007V52.252l.014.014h.176l.088-.014.02-.02Zm0-2.2v.582l-.054-.034-.162-.027-.081.034v-.555l.014.02.068.047h.074l.088-.014Zm0-2.674-.217.149-.081.041v1.1l.007-.014.068-.095.007-.054.034-.007.034-.034.041-.013.041-.02h.034l.034.007V47.358Zm-.3,11,.047.237.047.393v.386l-.047.379-.007.075-.041.2v.846h.047l.21.034.041.013V57.194h-.041l-.136-.014-.115-.041-.007-.007v1.225Zm0,5.47.3.318V61.729l-.108-.041-.19-.02Zm.833-8.232v.914l-.352-.4-.034-.054-.061-.007-.054-.014-.034.007v-.311l.014-.007.061.027.047.02h.054L55,55.765l.135-.075.108-.088.007-.007Zm0-2.545-.041-.19-.007-.122v-.122l.048-.081V48.6l-.014-.027-.027-.034v-.054l-.007-.034v-.081l.007-.068-.047-.2.007-.1.068-.169.014-.034v-.806l-.535.373v1.056l.041.014.047.034.088.217-.041,1.063-.014.047-.047.122-.074.115v.589l.1.075.047.068h.068l.054.041.142.128.081.284-.074.2-.081.095-.047.047-.108.027-.115.562-.013.021-.054.061v2.39l.041-.014h.067l.068.041.149.095.21.284v-.447l-.156-.223-.041-.047-.02-.074v-.149l.02-.088v-.007l.041-.068.02-.04.068-.075.068-.041v-.711Z" transform="translate(-31.768 -9.332)" fill="#2b7563" fill-rule="evenodd"/>
    <path id="Path_113" data-name="Path 113" d="M55.385,59.868l.135.034.169.068.189.142.041.047V56.788l-.007-.007-.006-.027-.054-.095V56.51l.02-.034.021-.074.027-.068v-.542l-.007.014-.034.041-.027.034-.088.108-.034.034-.074.041-.183.067-.088.014v3.723Zm0,3.229.386.419L55.6,62.481v-.047l-.007-.034.007-.006v-.034l.014-.006.014-.027.047-.034.047-.061.047-.02.081-.074.068-.075v-.948l-.1-.149-.115-.108-.135-.095-.142-.068-.041-.013V63.1Zm1.164-9.471v.894l-.061.054-.047.075-.041.1-.007.129L56.4,55l.068.115.068.108.014.007v.535h-.027l-.047.02-.115.054-.122.075L56.143,56l-.108.128-.095.162-.02.041v-.542l.02-.04.02-.075.027-.054-.014-.061-.027-.068-.027-.034v-.914l.1-.135.034-.128v-.075l-.007-.054-.128-.183v-.447l.027.034h.1l.034.02.047.014.061.007.027.027.02.034h.034l.054.027.034.02h.014l.027.014h.014l.027-.014h.014l.014-.007.034-.014.021-.027.027-.034Zm-.63-2.139.115-.2.433-.379.081-.067v-5.2l-.108.027-.142.034-.135.055-.244.176v.806l.095-.223.068-.135.081-.1.088-.047h.128l.047.014.027.02.034.034.021.108-.068.6-.156.372-.2.176-.02.014h-.047l-.075-.014-.02-.014-.006-.007Zm.63.893h-.061l-.047-.007H56.38l-.041-.027-.108-.041-.088-.041-.088-.068-.068-.075-.061-.088L55.92,52v.711l.006-.007.122-.054h.095l.075.02.068.02.074.034.054.054.061.054.047.1.027.074Zm-.63,7.778V56.788l.027.027.176.047h.413l.014-.007v4.671h-.041v-.182l-.034-.237-.061-.223-.088-.217-.128-.2-.149-.176-.128-.129Zm0,1.9.027-.034.068-.088.034-.142.02-.128v-.143l-.02-.128L56,61.255l-.075-.135-.006-.007Zm.63-11.217.372-.291.447-.311V46.891l-.027.014-.075.034h-.095l-.075-.054-.054-.054-.014-.088-.014-.054.014-.149.034-.129.061-.122.122-.176L57.355,46l.014-.034v-.5l-.19.1h-.02l-.034.027-.061.02-.075.014-.081.007h-.325l-.034.007v5.2Z" transform="translate(-32.437 -8.283)" fill="#2b7563" fill-rule="evenodd"/>
    <path id="Path_114" data-name="Path 114" d="M59.983,51.359l-.318.095-.183.075-.251.108h-.067v.63l.1.312-.007.034v.108l-.027.034-.007.041-.061.088v.894l.027-.02.075-.075.088-.02.128-.027.122.014.075.02.075.034h.034l.108.034.081.041.007.007V53.6l-.014-.014-.4-.176-.067-.054-.02-.02v-.027l-.007-.021.007-.047v-.027l.02-.034-.02-.027v-.264l.034-.034.02-.047.054-.068.054-.054.068-.041.095-.027.041-.027h.034l.054.02.048.007v-.474l-.054-.075v-.122l.006-.02.034-.041.014-.02Zm-.819,9.423.155.014.562-.014.1.007v-.5l-.081.027.074-.636.007-.034V54.608l-.054.041-.108.034-.122-.02-.054-.014-.041-.041h-.122l-.142-.02-.115-.047-.061-.054v.535h.1l.487.183.067.041.027.047.014.061v.122l-.054.149-.088.142-.115.128-.122.088-.115.075-.142.054h-.061v4.671Zm1.482-8.211v1.821l-.006.021-.02.081v.115l.027.061v.454l-.047.014-.136.1-.02.041-.02.088-.061.02-.1.088-.095.129-.088.264-.02.169.054.142.034.061.074.034.129.034h.075l.067-.02.061.007h.095v2.647l-.169.1-.149.115-.183.21-.156.271-.006.007V54.608l.027-.02.034-.034.034-.061.007-.122v-.04l-.007-.068.007-.04.027-.054v-.176l-.034-.095-.041-.075-.054-.041V53.6l.027.007.088.027.014.014.054.014h.054l.034-.027h.074l.02-.04.075-.041.034-.048.02-.04V53.43l.014-.095v-.129l-.034-.088-.216-.359-.095-.095-.108-.034-.054-.014v-.474l.365.487ZM59.983,49.5l.027-.02.487-.3.149-.081v-.63l-.095.081-.041.027-.054-.014-.067-.061-.007-.034-.014-.02-.034-.162v-.217l-.251-.379-.041-.108-.02-.047v-.3l.034-.183.054-.1.081-.122.061-.061.061-.02.095-.041.034-.014.068.014.135.068V44.393l-.663.332v.5L60,45.2l.02-.014.061-.061.061-.02H60.3l.034.02.034.054.02.034.02.075v.21l-.075.244-.095.169-.156.176-.041.034-.061.027V49.5Z" transform="translate(-35.051 -7.538)" fill="#2b7563" fill-rule="evenodd"/>
    <path id="Path_115" data-name="Path 115" d="M62.485,50.942l-.3.027-.312.081-.054.02v.508l.027-.034.013-.014.034-.02h.027l.027-.007h.115l.014.007.034.02.041.02.034-.047.041-.048.067-.034.02-.014h.163l.006.007ZM61.822,60.5l.46.013.2.027v-.778L61.822,60v.5Zm1.767-6.079v.934l-.027.014-.047.02-.02.047-.054.081-.02.1.014.149.007.054.054.054.095.061v1.828l-.115.054-.271.2-.095.122-.122.149-.047.108-.027.108-.014.061v.027h-.027l-.1-.014-.115.014-.142.041-.027.02V56.005h.034l.142-.041.135-.075.095-.122.156-.42.027-.122-.014-.041-.014-.095-.081-.135-.108-.095-.122-.047-.142-.007-.108.027v-.454l.014.027.054.088.075.067.1.034.095.034.345-.007.156-.027.183-.081Zm-1.1-5.619.359-.2.514-.271.23-.095v-.812l-.047-.014-.068-.041-.034-.054-.007-.054-.014-.054-.014-.149.027-.108.041-.156.041-.088-.061-.108-.068-.1-.074-.088-.047-.02.067-.86.088.014h.047l.027-.014.088-.061.006-.014V44.1l-.02.014-.027.014-.027.014h-.041l-.02.007h-.095l-.034-.007h-.034l-.027-.014-.041-.014-.02-.02-.034-.02L63.047,44H63.02l-.054-.013-.075-.014h-.067l-.074.014-.075.02-.034.014-.156.081v2.376l.014.007.108.115.047.122.047.237-.095.948-.088.244-.034.02v.63Zm1.1,1.828-.041.027-.108.108-.041.047-.054.047-.86.081v.474l.034.02.034.02.075.048.061.108.014.095v.054l.034.02.027.047.02.041.014.075-.014.108-.02.075-.034.034-.054.054-.047.041-.095.014-.047.014V54.1l.047-.088.014-.041.041-.02.075-.054.041-.041.047-.014.074-.014.034-.041.034-.034.149-.088.075-.041h.074l.136.02.115.04.108.068.041.068v-.711l-.081-.034-.1-.034L63.3,53.02h-.217l-.095-.027-.014-.034-.034-.02V52.8l.014-.034-.02-.02-.041-.007-.02-.047-.014-.034-.014-.027.014-.047v-.02l.014-.054.02-.054.095-.088.6-.3v-.481l-.095-.088-.136-.257v-.068l.027-.02.02-.047.034-.047.027-.014.1-.068.02-.007V50.63Z" transform="translate(-36.89 -7.25)" fill="#2b7563" fill-rule="evenodd"/>
    <path id="Path_116" data-name="Path 116" d="M63.974,59.34l.359.041.562.095.183.041V57.735h-.006l-.021.054-.034.054-.061.176-.061.345-.047.041-.122.108-.122.034h-.176l-.189-.02-.108-.02-.156.054v.778Zm2.153-4.82V55.8l-.047.02-.142.136-.122.176-.061.122-.047.142-.02.108-.021.074-.067-.02-.142-.054h-.169l-.095.02-.068.034H65.1l-.021.006V54.737l.021.014.142.02.108-.02.014.014.047.007.075.014h.095l.088-.014H65.7l.02-.02.115-.054.135-.054.129-.095Zm-1.049-7.48.3-.128.548-.21.2-.067V42.267l-.007-.007h-.04l-.027-.014-.075-.007H65.91l-.02.007h-.04l-.054.027-.041.007-.027.034-.027.007-.494.5h-.014l-.027.02-.041.041-.047.02v1.354l.068-.108.034-.061.4.6.047.257v.1L65.382,46l-.095.122-.021.041-.047.02-.061.047h-.081v.812Zm1.049,2.295H66.12l-.149-.047-.23-.034h-.149l-.142.02-.149.041-.136.068-.088.047v.332l.068-.02.142-.027h.149l.067.014.108.014.3.291.014.075.014.02v.02l-.014.095-.061.122-.1.129-.129.088-.108.034h-.115l-.047-.02-.034-.014-.251-.2v.481l.047-.02.576.122.115.406.014.088-.014.068V51.6l-.034.108-.074.115-.095.1-.129.054-.122.014H65.3l-.027-.014h-.068L65.1,51.92l-.021-.007v.711l.047.075.041.108.014.169-.054.2-.047.048v.934l.068-.027.047-.014.014-.075.034-.034.034-.054.034-.054.088-.034.095-.061.135-.02.075-.014.04.014.128.02.142.061.115.088v-.284l-.074-.02-.163-.041-.095-.034-.067-.02-.095-.034-.068-.054-.061-.075-.013-.108v-.088l.027-.061.041-.047L65.626,53l.04-.027H65.7l.04-.034.041-.041.02-.041.047-.034.128-.054.149-.007v-.278l-.047-.04L66,52.286l-.02-.108v-.386l.041-.054.027-.02.041-.054.04-.054V49.334ZM65.077,59.516l.373.081.216.034.163.034h.183l.115-.014V57.62l-.095.047L66,57.695h-.041l-.095-.014-.643-.041-.041.02-.047.041-.054.034ZM66.831,52.6v1.679l-.007.014-.088.122-.047.129v.074l.014.068.047.061.082.041v.5l-.075.1-.095.176-.014.068-.034.128-.04-.02-.068-.034h-.034l-.02-.007h-.061l-.034.007-.095.013-.075.041-.061.034V54.52l.068-.095.041-.129v-.128l-.041-.108-.068-.108v-.284l.047.014.088.041.075.047.257-.2.068-.04.041-.075.054-.128-.007-.156-.061-.108L66.641,53l-.047-.027-.061-.034L66.52,52.9l-.047-.034-.068-.054-.047-.007-.054-.034h-.068l-.095-.007h-.014v-.278l.1.1.149.088.142.02h.142l.108-.054Z" transform="translate(-38.379 -6.049)" fill="#2b7563" fill-rule="evenodd"/>
    <path id="Path_117" data-name="Path 117" d="M70.96,46.694l.345-.115.359-.095v-.765l-.061.027H71.57l-.088-.04-.054-.048-.088-.162-.054-.162-.135-.785.095-.487.095-.122.135-.115.108-.054h.082v-.846H71.63L71.6,42.9H71.57l-.054-.02-.041-.014-.027-.02-.034-.014-.027-.02-.02-.027-.027-.02-.007-.034-.216-.318H71.1l-.027-.021-.027-.02-.034-.014-.02-.02-.027-.014v4.366Zm.7,2.342-.061.027-.129.054-.108.074-.108.095-.081.108-.047.1-.034-.034L70.96,49.4V51.67l.014-.034.02-.014.42.014.136.02.115.054v-.325l-.082-.007-.088-.027-.345-.21-.047-.061-.02-.074.014-.081v-.034l.034-.061.243-.318.142-.088.108-.034h.041Zm-.7,10.675.068-.013.176-.04.149-.088.162-.088.128-.115.021-.027v-2.6l-.061-.007-.108-.054-.068-.02-.406.217.061.2.014.156v.183l-.054.142-.081.122Zm1.32-4.765v1.2l-.027-.1-.068-.108-.041-.054.007-.034.068-.149.034-.149.006-.162-.02-.122-.014-.041-.034-.02-.027-.047-.02-.013-.034-.007H72.1l-.061-.02-.1.027h-.027l-.047.034-.169.135-.027.041v-.5l.034.014.054.041.142.013Z" transform="translate(-43.213 -6.11)" fill="#2b7563" fill-rule="evenodd"/>
    <path id="Path_118" data-name="Path 118" d="M73.246,47.108l.2-.047.42-.095V43.229l-.345.23-.007.014-.034.013-.02.007-.041.027h-.034l-.027.007-.075.02h-.034v.846h.074l.068.034.04.02.047.054.095.149.047.853-.061.345-.061.169-.142.25-.075.061-.034.013Zm.616,2.552-.136-.027-.135-.02h-.136l-.135.02-.074.027v1.354l.1.014.108.02.054.02.041.034.034.034.02.041.054.122v.034l.054.041.061.034.027.034.034.095-.014.108-.054.128-.129.149L73.476,52l-.128.007h-.1v.325h.014l.122.108.095.129.041.176v.128l-.041.169-.088.128-.095.081-.047.034v1.679l.108-.081.162-.088.345-.068v-.42l-.129-.041-.183-.081-.108-.115-.027-.122.041-.108.02-.047.041-.034.041-.034.3-.129v-.887h-.007l.007-.014V50.838l-.129-.04-.115-.061-.122-.095-.068-.122-.014-.095.014-.081.061-.074.081-.034.291-.081V49.66Zm-.616,10.3.088-.1.095-.156.081-.162.081-.21.176-.386.095-.169V56.937l-.007.014-.047.115L73.7,57.2l-.142.095-.115.061-.149.014-.047-.007Z" transform="translate(-44.794 -6.733)" fill="#2b7563" fill-rule="evenodd"/>
    <path id="Path_119" data-name="Path 119" d="M76.24,52.4v.6l-.027-.054-.034-.068-.034-.04-.055-.041-.034-.02-.04-.034-.047-.014-.075-.014-.041-.007-.074.007-.535.21v-.887l.034.034.122.081.115.108.088.122.074.115.413-.02.088-.041.061-.041Zm-1-6.106.142-.027.122-.041.731-.183v-.893l-.061-.047-.054-.054-.034-.108-.122-1.09.047-.366.04-.142.1-.169.081-.068V42.37l-.163-.081-.02.007L76,42.289l-.081-.027h-.1l-.075.014-.108.02-.393.264V46.3Zm1,2.417H76.2l-.122.041-.108.047-.108.074-.081.068-.088.095-.054.054-.061-.02-.21-.054-.122-.027v.494l.189-.047.041.014h.041l.095.041.047.054.02.047v.115l-.007.034.047.054.034.054.034.088.014.075-.014.04-.081.1-.061.034-.095.007h-.081l-.169-.007-.054-.02V52.03l.006-.04.014-.054.014-.034v-.02l.02-.047.027-.021.075-.074.04-.034.068-.007.034-.067.02-.02.095-.095.163-.075h.2l.162.047.061.047V51.4l-.081.014-.176-.007-.122-.034-.129-.088-.054-.034-.02-.061-.02-.034-.014-.122.02-.074.3-.528.088-.108.054-.034.149-.054Zm0,9.254v2.478l-.46-.027-.034-.007h-.041l-.027-.014-.054-.027-.054-.034-.007-.027-.02-.006-.034-.054-.034-.054-.034-.1-.034-.108-.02-.122.034-.271.088-.365.115-.332.156-.318.2-.312.23-.277.027-.027Zm-1,.142.115-.2.251-.345.278-.318.311-.291.041-.027V54.873l-.054-.128v-.176l.047-.128.007-.007V53.269l-.02.075-.061.128-.088.108-.162.061-.068.014h-.562l-.034-.014v.42l.3-.061.2.02.142.075.061.047.034.075.02.115-.02.128-.108.183-.2.156-.2.088-.149.02-.081-.007v1.2l.006.04.014.054-.02.075v1.841Z" transform="translate(-46.177 -6.064)" fill="#2b7563" fill-rule="evenodd"/>
    <path id="Path_120" data-name="Path 120" d="M78.474,45.149l.711-.176V41.318l-.135.149h-.007l-.027.021-.061.041-.054.02-.027.014h-.041l-.054.014H78.7l-.02-.014-.047-.014-.162-.074v.738l.067-.067.115-.02.142.047.1.081.054.135.027.136v.291l-.237,1.266-.088.108-.047.054-.027.02-.095.013-.007-.013-.007-.007v.893Zm.711,2.694L78.7,47.8l-.034.014h-.122l-.074.007V49.34h.007l.156.02.088.061.1.095.02.041.02.068.067.054.048.034.034.074.034.034.014.067.027.095-.041.19-.115.156-.142.081-.135.027-.115.061-.067.006v.136l.074.061.1.156.041.128.014.162-.047.149-.108.156-.074.054v.6l.007.02v.2l-.007.047v1.164l.027-.067.047-.034.156-.128.48-.2V49.1l-.034.014h-.217l-.325-.075.047-.311-.047-.014-.047-.047-.034-.061v-.02l-.027-.047.006-.054.02-.054v-.027l.02-.047.047-.047.02-.047.068-.02.061-.014.44.061v-.447Zm0,8.651-.2.128-.291.21-.217.237v2.478l.325.02.014.013.02.006.034.021h.02l.02.014.047.034.054.041.034.067.02.04.02.041v.034l.007.027v.129l-.108.494-.027.1-.014.081V60.8l.034.095.02.075.013.034.02.021.054.068.054.04.047.041V56.5Zm-.711-.46.352-.264.345-.217.014-.007V54.078l-.311.081-.19-.007-.068-.027-.129-.1-.014-.047Zm.711-11.061.779-.2v-1.2h-.007v-.047l-.007-.081.014-.067v-2.3l-.014-.014-.047-.04-.061-.02-.048-.027-.061-.02h-.108l-.034.014h-.02l-.027.007-.047.027-.047.034-.041.027-.223.244Z" transform="translate(-48.411 -5.167)" fill="#2b7563" fill-rule="evenodd"/>
    <path id="Path_121" data-name="Path 121" d="M81.559,71.263h-.007l-.332.108-.338.156-.1.061v4.678l.081.067.014.034.095.122.074.149.034.142.02.054.108.623.352-.663V71.263Zm-.779-.623.359-.176.379-.142.041-.014V67.75l-.217-.041-.095-.068-.061-.054-.02-.061v-.047l.007-.136.061-.1.108-.075.217-.061v-.535l-.3.054-.149-.007-.054-.014-.034-.034-.074-.041-.075-.075-.047-.128v-.081l.034-.19.041-.088.047-.034.095-.075.129-.067.2-.075.19-.02v-.264l-.1-.027-.176-.075-.149-.142-.1-.149-.041-.128v-.068l.034-.074.257-.386.027-.034.108-.074.1-.014h.041V62.781l-.135.054-.142.074-.095.068-.406-.041v.447l.1.007.108.047.088.088.061.108.014.068-.014.054-.007.054-.041.142-.108.115-.108.088-.095.041V68.2l.332-.129.149.014h.068l.074.034.108.115.041.149-.034.243-.081.149-.108.128-.156.136-.149.061-.244.068V70.64Z" transform="translate(-50.007 -20.26)" fill="#2b7563" fill-rule="evenodd"/>
    <path id="Path_122" data-name="Path 122" d="M83.788,51.732v.413l-.481.142v-.535l.136-.027.115.027.1.014Zm0-1.279v.582l-.027-.047-.061-.054-.169-.041-.217-.014h-.007v-.264l.027.007.108-.034.04-.034h.047l.128-.007.075-.054.054-.041Zm0-8.908-.054.04h-.007L83.7,41.6h-.02l-.027.007h-.081l-.027-.007h-.027l-.007-.014h-.027l-.007-.007-.034-.034L83.4,41.51l-.027-.02-.061-.122-.007-.007v2.3l.007-.027.2-.474-.067-.108-.068-.108-.007-.142v-.237l.041-.149.271-.264.108-.047v-.555Zm-.481,3.506.481-.115V43.907l-.108.081-.149.02-.088-.034-.068-.02-.021-.04-.04-.061h-.007Zm.481,2.85-.129-.014-.162.02-.162.047-.027.007v1.482h.027l.108.054.345.419v-.873l-.088-.318v-.081l.047-.122.02-.041.02-.014V47.9Zm0,8.448-.129.014-.352.081v5.531l.318-.589h.014v-.013l.014-.007.007-.014h.02l.014-.02.007-.007h.027l.02-.027h.041V58.082l-.075-.034-.095-.054-.047-.054-.054-.054-.054-.088-.02-.068-.021-.074v-.075l.021-.075.02-.088.047-.075.061-.074.081-.054.108-.047.027-.014Zm-.481-.86.372-.081.108-.014V52.95l-.041.014-.156.014-.115-.02-.169-.027Zm.914-5.849v2.485l-.04-.027-.142-.027-.25.074v-.413l.02-.007.122-.067.034-.061.02-.034V51.42l-.2-.386v-.582l.014-.007.034-.074.04-.108V50.1l-.007-.075-.047-.068-.034-.041v-.873l.108.366.054.088.047.054.136.081.088.007Z" transform="translate(-51.755 -5.441)" fill="#2b7563" fill-rule="evenodd"/>
    <path id="Path_123" data-name="Path 123" d="M85.3,40.044l-.433.284v.555h.108l.088.02.075.061.075.088.081.142.007.034V40.044Zm-.433,3.676L85.3,43.6V41.933l-.4.731-.034.027Zm.433,3.033-.345-.081-.04.02-.047-.007v.569l.034-.02.054-.034L85,47.193l.067.006h.054l.041.027.142.136Zm-.433,13.329h.02l.014.014h.02l.027.013.007.007h.02l.007.02L85,60.15l.3.413V56.927l-.3-.02-.02-.014-.095-.02-.014-.007v3.215Zm.433-5-.067.007-.365.047v.805l.081-.027.1-.02h.108l.068.014h.054l.02.014Zm-.433-.9.291-.047H85.3V51.451l-.088.075-.088.04-.061.068-.108.075-.088.027v2.444ZM85.3,43.6l1.063-.264V42.61l-.027.007h-.047l-.027-.02-.02-.034-.02-.02-.02-.034-.02-.081.041-.244-.054-1.361.088-.257.061-.054.047-.027v-.69l-.027-.067h-.027L86.3,39.7l-.007-.007-.027-.014-.007-.027-.027-.014-.007-.014h-.034l-.02-.007h-.02l-.027-.014h-.081l-.027.014H85.99l-.027.007H85.95l-.65.42v1.185l.054.223v.169l-.034.284-.02.027Z" transform="translate(-52.834 -4.225)" fill="#2b7563" fill-rule="evenodd"/>
    <path id="Path_124" data-name="Path 124" d="M86.272,60.183l.386.515.122-.941.034-.075.088-.142.034-.04.007-.02.034-.014.075-.04.014-.02.027-.013h.027l.02-.007.034-.014.041.014.068.02.027.02.027.007v-2.8l-.108-.014-.1-.02-.853-.054v3.635Zm1.063-5.429-.318-.047-.406-.02-.339.014v.839l.034.007h.054l.433.2.081.034.135.034h.115l.135-.014.075-.014Zm-1.063-1,.271-.014.4.02.393.074V51.646l-.007.007-.156.041-.162.054h-.176l-.088-.041-.061-.02-.034-.047-.014-.041-.027-.5.724-.379v-.427l-.047.02-.474.108-.108-.027-.047-.041-.047-.041-.081-.122-.007-.169.041-.427.034-.061.027-.034.1-.088.108-.007.5.122v-.352h-.047l-.095-.02-.772-.325-.108-.325v-.075l.027-.068.034-.047.075-.034.189-.088.7.142v-.521l-.014-.02L87,47.239l.013-.081.054-.122.128-.075.136-.041h.007v-.562l-.075-.014h-.176l-.2.02-.183.054-.095.034-.339-.081v.609l.433.393.041.034.02.061.014.067.02.075-.02.074-.014.041-.061.122-.034.041-.034.014-.074.034-.034-.014-.027.034-.02.02-.081.054-.088.02-.041-.006v2.485l.068.04.02.054.02.04.034.176-.1.2-.041.034v2.681Zm1.063-10.791.677-.169.176-.034.548-.142.041-.014V41.35l-.081-.765.02-.169.061-.122V39.217l-.075-.088H88.7l-.014-.014-.014-.014-.006-.006h-.021l-.007-.014-.013-.02H88.6l-.014-.007h-.075l-.014.007h-.007l-.027.02h-.007l-.013.014h-.021V39.1l-.02.014-.508.474h-.014l-.027.014-.047.02-.02.02-.027.014h-.027l-.054.007h-.054l-.02-.007h-.034l-.027-.014-.047-.027-.034-.027-.027-.02-.02-.014-.02-.02-.007-.014-.054-.108v.69l.169-.081.271.02.163.108.054.054.04.122.034.2L87.9,41.58l-.129.257-.182.23-.156.115-.041.034-.061.014v.731Zm0,16.47h.007l.034.047.074.061.047.068.047.088.027.034.007.048.027.027.311.643.223-.6.067-.108.088-.128.128-.149L88.5,59.4l.075-.047.067-.034.095-.04.027-.006h.014V57.407l-.014-.013-.2-.217-.244-.17-.257-.155-.271-.108-.277-.088-.183-.02v2.8Z" transform="translate(-53.806 -3.845)" fill="#2b7563" fill-rule="evenodd"/>
    <path id="Path_125" data-name="Path 125" d="M89.722,52.6h.02l.4.108.183.074.095.02.014.027.061.034.081.074.054.041.034.054.034.02.014.027.014.006v.034l.014.02v.108l-.014.02-.014.014v.02l-.014.027-.034.061-.108.095-.122.047-.162.04h-.162l-.149-.034-.142-.007-.095-.014v1.036l.332-.061h.095l.136.014.128.02.115.041.108.068.108.061.42.413V50.476l-.156-.014-.02.027-.027.034-.041.027-.02.02-.034.02-.02.014h-.013l-.027.02H90.71l-.027-.02H90.67l-.02-.014-.014-.007-.034-.027-.041-.02-.007-.014V50.5l-.014-.027-.014-.014-.007-.02v-.014l-.014-.02V50.32l.014-.021v-.054l.007-.02.014-.014.02-.02.034-.02.007-.02-.007-.02v-.136l.007-.02v-.034l.014-.027.014-.034.02-.02.014-.027.034-.047.047-.034.067-.054.068-.02h.034l.027-.013h.068l.013-.014.007-.041.027-.054L91.1,49.5l.014-.034.02-.007.027-.014v-.325l-.027.041-.02.027-.034.02-.027.014h-.006l-.027.007H90.9l-.02-.007h-.027l-.02-.014h-.027l-.027-.014-.007-.007-.034-.027-.014-.027-.014-.014-.041-.041-.007-.014v-.014h-.027l-.02-.006-.014-.014-.041-.041-.02-.02-.014-.027v-.02l-.007-.02v-.02l-.014-.02v-.088l.014-.007v-.027l.007-.02.014-.014.034-.061.041-.047.034-.041.061-.034.095-.075.108-.054.115-.034.122-.027h.014v-.372l-.785-.379.223-.406v-.014l.014-.021.02-.034.034-.027.041-.027.034-.02.027-.014h.007l.027-.007.061.007.047-.007h.115l.108.007.027.007V46.6l-.075-.088-.007-.02-.014-.014v-.014l-.014-.02v-.088l.014-.007v-.014l.014-.014v-.027l.007-.014.014-.007.02-.027.014-.006v-.021l-.014-.014v-.02l-.007-.007v-.068l.007-.014v-.027l.014-.013.014-.014v-.007h.014v-.792h-.027l-.223.02-.217.054-.1.034-.149.034-.562-.237h-.061l-.1-.02v.562l.149-.014.2.02.149.075.291.372.047.128-.014.115-.047.122-.041.075-.054.047-.115.081-.136.047-.135-.014-.088-.007-.067-.034-.054-.034-.04-.041-.041-.047V47.1l.081.021.21.311.02.075.007.067-.007.115-.02.068-.034.054-.047.041-.115.068-.054.02h-.041V48.3l.02.007.04.02.034.041.054.034.02.054.068.142v.163l-.075.183-.122.108-.041.013v.427h.007l.48.067.115.02.074.034.034.041.014.034v.088l-.067.129-.136.169-.156.136-.183.115-.183.095V52.6Zm1.442-11.231.514-.156.535-.19.534-.223.014-.007v-3.52h-.02l-.034.014-.02.014-.021.007h-.027l-1.049.812h-.007l-.014.014-.02.014-.014.007h-.02l-.034.014h-.088l-.027-.014h-.014l-.02-.007-.034-.027-.027-.02-.027-.014-.014-.007v-.014l-.068-.081v1.076l.135-.128.007-.014.014-.054.02-.041.088-.095.108-.047.122.027.034.007.047.067.047.061.122,1.1-.034.142-.075.162-.136.162-.129.081-.128.034H91.34l-.054-.034-.054-.02-.034-.061-.034-.3v1.252Z" transform="translate(-56.193 -2.614)" fill="#2b7563" fill-rule="evenodd"/>
    <path id="Path_126" data-name="Path 126" d="M94.4,55.082l.2.2.19.115.264.108.183.034.481-.021L96,55.488V50.337l-.1.061-.1.088-.02.007h-.014l-.02.014h-.027l-.027.013h-.081l-.014-.013h-.02l-.02-.014h-.014l-.02-.007-.02-.014-.034-.047-.014-.014v-.02l-.006-.013-.014-.014v-.027l-.013-.014v-.006l-.007-.034v-.088l.007-.014L95.4,50.12l-.014-.081v-.081l.014-.088.027-.075.034-.075.047-.075.061-.061.047-.061.04-.014.075-.034.075-.02.034-.021.054.021h.034l.02.013.04.007L96,49.47V49l-.271.061-.42-.278.183-.392.054-.1.054-.054.075-.061.075-.047.081-.034.081-.027L96,48.056v-.169l-.433-.122-.041-.034-.054-.02-.02-.014-.014-.02-.021-.014-.02-.027-.034-.047-.013-.02v-.02l-.007-.034-.014-.02v-.108l.014-.02v-.027l.007-.02.013-.027.02-.047.014-.02.04-.02.047-.041.047-.027.027-.007h.02l.02-.014h.129l.067.021.02.014.021-.014.034-.007.006-.027.027-.02.021-.027.034-.027.021-.007H96v-.339l-.02-.007-.054-.027-.021-.02-.034-.041-.02-.014v-.02l-.013-.014-.007-.02v-.027l-.014-.014V46.39l.014-.02v-.02l.007-.014v-.02l.013-.027.02-.014.034-.034.021-.027.034-.02.027-.007H96v-.643l-1.32-.332-.075.014-.2-.014V46l.014-.014.02-.02.014-.014h.02l.014-.02.027-.007h.068l.014.007.014-.007.325.108.088.061.095.047.088.067.074.075.068.095.04.095.034.095.007.108-.007.061-.034.061-.02.034-.034.041-.034.02-.075.034-.02.014h-.034l-.02.007h-.169l-.095-.02-.088-.02-.108-.047-.075-.061-.068-.074-.007-.02-.135-.142V47l.081.02.095.04.1.075.081.108.068.088.067.075.007.075.014.088v.054l-.02.068-.027.041-.02.04-.244.264-.2-.1v.372l.156-.014h.088l.034.034.061.02.054.041.027.013.007.02.02.02.014.02v.027l.007.02h.027l-.047.44-.02.014-.007.02V49l-.014.02-.014.027-.02.034-.02.02-.04.027-.034.027-.027.007h-.007l-.034.027h-.075l-.027-.014H94.5l-.027-.014H94.5l.014.014H94.5l-.027-.014-.02-.02-.034-.02-.014-.014v.3l.034-.02.027-.02.034-.014.027-.014h.034l.02-.007h.075l.061.007.074.014.061.034.047.034.041.041.027.02v.034l.027.02.007.034v.02l.014.034.007.02v.108h.007v.014l.014.041.014.081v.061l-.014.081-.02.081-.02.088-.047.074-.054.054-.1.061-.034.034-.041.014-.02.027-.3-.027v4.637Zm0,2.931h.108l.027.006h.02l.02.021.054.02.02.014.264.284-.014-.02.034-.142.054-.292L95,57.689l-.02-.3-.041-.237-.074-.292-.142-.257-.142-.25-.176-.21v1.869Zm2.024-9.139v.44l-.013-.007-.021-.007h-.034l-.027-.014h-.067l-.027.014h-.02l-.027.007h-.027l-.02.014-.047.041-.04.034-.035.034L96,49.47V49l.325-.068.006-.014.034-.007.048-.034h.013Zm0-1.2V48.2l-.034-.02-.034-.014H96.33L96.3,48.15h-.1l-.013-.007-.047-.047-.047-.027-.081-.014H96v-.169l.088.027.007.013h.095l.013-.013h.027l.034-.02.04-.034.021-.007.04-.047.014-.034.034-.081.013-.014Zm0-.833v.447l-.034-.054-.047-.075-.02-.027-.054-.021-.007-.02-.027-.014-.034-.027-.04-.027-.034-.007-.007-.014h-.088l-.014.014H96v-.339ZM96,40.765l.426-.21V39.7l-.135.108h-.007L96.2,39.8l-.04-.027-.02-.034-.021-.081-.075-.521.021-.366.027-.122.081-.163.116-.108.1-.054h.034v-.805l-.081-.156h-.02l-.021-.027-.034-.034-.034-.027-.047-.02-.027-.014h-.02l-.021-.014h-.1l-.02.014Zm.426,4.881-.426-.1v.643h.013l.006-.014h.035l.013-.02v-.02l.02-.014.007-.007V46.1l.014-.014.013-.007.021-.034.014-.007h.02l.014-.013H96.2l.014-.014H96.3l.027.014h.006l.013.013.014-.013.067.047v-.426Z" transform="translate(-59.43 -2.583)" fill="#2b7563" fill-rule="evenodd"/>
    <path id="Path_127" data-name="Path 127" d="M99.586,55.306l.23-.027.2-.014V49.8l-.027.054v.108l-.182.068-.17.088-.047.034Zm.426-14.933.047-.02.481-.217.467-.237.44-.291.19-.142v-.724h-.068l-.061-.02-.047-.021-.034-.014-.027-.02-.007-.034-.034-.007-.007-.027-.027-.041-.02-.061-.014-.027v-.081l.014-.061.02-.041.027-.04.007-.027v-.007l-.007-.041v-.027l-.013-.02V38.05l.013-.02v-.02l.007-.027v-.027l.02-.02.014-.027.021-.006.013-.027.02-.007.054-.034.02-.007h.013l.021-.014h.081v-.65h-.006l-.014.02h-.075l-.007-.02h-.027l-.006-.007h-.014l-.02-.014L101.305,37l-.014.014L101.285,37l-.021-.014-.02-.007h-.035l-.013-.014h-.075l-.006.014h-.035l-.013.007h-.02l-.575.494h-.021l-.02.007-.02.014-.027.014h-.021l-.027.014h-.094l-.027-.014h-.021l-.027-.014-.04-.02-.041-.027-.034-.034-.014-.02-.027-.061v.805h.095l.108.088.061.108.075.156.034.176-.007.251-.088.3-.122.163-.156.128v.853Zm0,14.893.244-.02.44.034.576.067.365.088v-9.5l-.027-.014-.6-.2-1-.251v.426l.623.426-.02.021-.061.02-.048.027-.054.034-.04.047-.034.047-.027.061-.014.02v.027l-.013.061v.054l.013.034v.02l-.325-.128v.447l.007.014.02.068.014.088v.074l-.014.081-.027.061v.521h.007l.04.027.027.014.006.02.014.027.027.006.013.034.014.02v.021l.007.054.027.068v.108l-.013.054-.021.061-.014.034-.02.034-.035.021-.034.047-.02.02-.027.007v.44l.041.027.034.02.041.034.02.041.021.041.014.027v.02l.013.061v.061l-.013.02v.027l-.014.034h.014l-.021.034-.027.014-.027.027-.02.027-.013.034-.02.02-.014.027-.02.054-.007.02v5.463Z" transform="translate(-63.018 -2.401)" fill="#2b7563" fill-rule="evenodd"/>
    <path id="Path_128" data-name="Path 128" d="M106.242,38.326l.23-.169.386-.332V35.469l-.061.034-.467.48h-.006l-.021.007-.013.014h-.007l-.013.014-.014.007h-.013v.65h.007l.02.014h.013l.02.007h.027l.014.02.047.02.041.034.021.034.02.041.014.027v.02l.021.02v.095l-.007.027h.007v.027l.013.02.027.034.021.034.013.034v.02l.014.014v.108l-.014.007-.013.027v.02l-.007.027-.014.027-.04.027-.035.054-.02.014-.014.02-.027.014-.054.021-.027.014H106.3l-.02.006h-.04v.724Zm0,15.969.535.115.081.007V48.006l-.013.014h-.061l-.027-.02h-.014l-.02-.014-.013-.007h-.021l-.013-.014-.006-.02-.054-.014-.02-.02-.027-.041-.007-.027v-.007l-.014-.014-.027-.014-.013-.027-.021-.034-.02-.047-.013-.02v-.02l-.014-.02v-.095l.014-.02V47.5l.013-.02.006-.021.027-.04.007-.027.034-.007.006-.014.048-.041.061-.034.02-.014h.027l.054-.006h.088l.013.006v-.63l-.006-.007-.021-.034-.013-.007v-.034l-.006-.014v-.075l.006-.007-.02-.054V46.4l.014-.027.006-.02.034-.054.006-.007V45.027l-.081-.034-.535-.2v9.5Zm.616-16.47.007-.007.386-.366.345-.393.318-.42.02-.041V35.32l-.061.054-.068.034-.088.02-.075.014h-.081l-.074-.014-.041-.007-.02-.014-.2-.034-.027.014h-.047l-.108.007-.095.034-.088.041h-.007Z" transform="translate(-67.623 -1.261)" fill="#2b7563" fill-rule="evenodd"/>
    <path id="Path_129" data-name="Path 129" d="M108.24,53.155l.63.054.447-.013V49.378l-.027-.02-.135-.108-.075-.081-.075-.108-.034-.067v-.021l-.176-.453-.1-.223-.013-.047v-.122l.034-.115.02-.122.054-.108.067-.1.081-.088.142-.095.062-.014h.061l.02.014h.034l.02.014.006.006h.013l.014.041V44.233l-.061-.027-.556-.25-.46-.19v1.266l.027-.027.034-.02.04-.02.034-.034.312-.183.034.007h.054l.014.014h.04l.007.014.014.007.013.014h.007l.013.014.014.007.04.054.04.054.027.067.02.054.014.075v.142l-.027.081-.034.088-.02.034-.02.014-.02.007H108.9l-.021.02h-.013l-.007.014-.508-.068.027.014h-.027l-.014-.014h-.006l-.027-.007H108.3l-.014-.014-.021-.02-.027-.027v.63l.035.014.013.014.047.02.006.02h.034l.02.007h.054l.027.014h.027l.014.014h.02l.014.007.02.014.027.02.02.041.027.034.007.014v.02l.013.02v.088l-.013.02v.034l-.007.006v.027l-.013.007-.014.014-.007.02-.027.014-.034.027-.034.027-.027.007h-.014l-.027.014h-.007l-.034.034-.014.027-.04.027-.034.034-.02.007h-.027l-.027.014-.007.007v6.411Zm1.077-17.817.257-.4.251-.454.23-.481.095-.217-.013-.007v-.054l-.007-.02V33.68l-.014-.007-.02-.041-.027-.034-.027-.034-.034-.027-.021-.007-.02-.02h-.035l-.02-.014h-.1l-.027.014-.02.02h-.02l-.014.007-.054.027-.034.02-.223.379-.027.02-.027.034-.054.041Z" transform="translate(-69.005)" fill="#2b7563" fill-rule="evenodd"/>
    <path id="Path_130" data-name="Path 130" d="M111.734,74.14h.142l.569-.035.589-.067.575-.088.657-.142,2.552-.589h.007l.014-.014.02-.02.014-.014.013-.034.014-.014v-.014l.013-.014v-.02l-.013-.014v-.007l-.014-.014V73.03l-.013-.02-.129-.074-.9-.162-.142-.02-.19-.054-.19-.088-.169-.115L115,72.366l-.04-.04-.02-.054-.013-.095v-.047l.013-.02.054-.067.257-.176.088-.034.115-.027h.027l1.455.515V70.545l-.115-.054-.521-.237h-.054l-.169-.047-.176-.027h-.182l-.095.014-.122.027-.054-.068-.142-.224-.075-.108-.108-.156.04-.02.2-.075.2-.054.2-.034h.2l.2.04.189.061.081.02.514.237V68.108l-.047.007-.426.081-.419.128-.414.176-.392.2-.914.515-.162.074-.2.054-.2.034-.284.014-.2-.02-.182-.047-.183-.081L112.7,69.1l-.149-.176-.143-.182-.108-.2-.074-.23-.047-.223v-.372l.061-.278.1-.284.128-.257.17-.244.189-.217.217-.21.115-.075.088-.074.04.034.143.108.128.135.122.142.088.156.04.081.02.054-.04.02-.25.088-.17.088-.142.095-.142.135-.108.136-.095.162-.074.156-.034.135-.027.176v.095l.013.095.048.128.02.034.02.034.034.04.041.061.108.081.095.034.183.041.21-.007.2-.054.2-.075.183-.088.081-.054,1.259-.873.19-.122.264-.115.264-.088.27-.054.291-.034.2-.014h.02V65.59l-.453-.047-.082-.034-.088-.034-.067-.034-.054-.061-.04-.068-.014-.068.014-.074.034-.1.095-.1.142-.088.514-.163v-.691h-.2l-.2.02-.2.068-.2.067-.142.075-.6.494-.156.088-.156.061-.176.034-.169.014-.6-.067h-.156l-.2.02-.2.047-.779.332-.088.034-.136.041-.142.027H112.3l-.128-.027-.122-.041-.311-.136v3.338l.007.007.027.02.006.027h.014v.074l.027.129.061.251.1.237.128.237.162.2.081.23.02.108v.075l-.02.081v.014l-.013.02-.034.047-.013.027-.021.014-.054.034-.04.02-.035.014h-.02l-.054.014H112l-.054-.014-.088-.014-.088-.02-.04-.027V74.14Zm5.2-7.1.177.014.2.047.19.061.176.095.162.122.142.142.129.149.1.183.074.129.487-.162V67.8l-.006-.061v-.068l.006-.034V67.6l.014-.027.013-.034.02-.02.021-.034.02-.034.048-.068.047-.04.047-.034.061-.02.061-.014h.061l.054.014.061.014.047.02.062.041.034.034.034.047.04.047.027.027v-.014l.02-.061.021-.061.027-.047.047-.047.013-.014.02-.02.04-.02.027-.02.021-.007.02-.014h.034l.034-.014h.095l.054.014.061.02h.027l.332.23-.006-.027V67.4l.006-.074.014-.068.013-.041.007-.034.027-.02.007-.041.034-.02.04-.061.061-.047.061-.034.061-.027h.034l.021-.007h.108l.067.007.068.027.061.034.047.041.048.041.034.067.034.054.014.034v.041l.007.02.02.034.19-.345.006-.014.013-.006v-.014h.02l.007-.014h.014l.013-.007h.108l.034.007.061.061.095.108.081.129.075.136.021.067.02.054.176-.576v-.02l.006-.02.014-.02v-.014l.013-.02.02-.014.013-.027.014-.014.013-.013h.014l.007-.007.013-.014h.02l.014-.014h.075l.013.014h.02l.013.014h.041l.528.569.108-.833V66.43l.02-.014V66.4h.013l.007-.014v-.014h.027l.007-.007h.074l.014.007h.02v.014h.013l.007.014h.027l.515.514.088-.724.007-.007.013-.027.014-.007.02-.02.014-.02h.006l.02-.014h.014l.007-.007h.1l.007.007h.013l.014.014h.007l.013.02h.02l.6.182-.135-.44v-.014l-.013-.02v-.122l.013-.02.027-.067.027-.041.034-.054.041-.034.04-.021.047-.02.027-.014h.034l.027-.021h.081l.027.021h.02l.02.014.067.02.027.034.054.034.02.041.034.034.271.311.142-.467.014-.006v-.034h.007v-.006h.014l.013-.014.027-.014H126V65.4h.021v.014h.013v.006h.014v.021h.013v.02l.143.136.013.007.014.014h.006l.013.007.014.014h.027l.013.013.007.014.027-.014h.007l.027-.013h.027l.013-.014.034-.02.034-.034.027-.027.013-.02V65.5l.006-.007v-.027l.014-.02v-.021l.013-.034.021-.345.575-.142v-.006l.006-.014.041-.041.014-.014.013-.02.02-.014v-.156l-.047-.142-.135-.176-.163-.163-.183-.128-.271-.128-.264-.088-.277-.034-.271-.007-.136.007-.21.013-4.5.982h-.142l-.115-.027-.088-.014-1,.359-.088.014h-.1l-.088-.027-.074-.034h-.021l-.027-.007h-.027L119,65.021l-.027-.013-.006-.02-.027-.02-.007-.02-.034-.014-.006-.02-.013-.034-.014-.027v-.027l-.007-.02V64.7l.007-.02v-.027l.014-.027.02-.047.034-.027.034-.04.04-.034.054-.027.021-.007h.027l.02-.014h.095l.02.014.04-.014.339-.04.094-.034.061-.061.007-.034.013-.027-.013-.047-.007-.034-.034-.034-.1-.054-.116-.02-.162-.027h-.163l-1.118.217h-.2l-.182-.02-.616-.169-.054.007-.1-.02v.691l.177-.054.149-.014.163.027.075.034.047.074.2.521-.048.095-.108.108-.136.054-.081.034h-.122l-.143.007-.169-.014Z" transform="translate(-71.422 -20.944)" fill="#2b7563" fill-rule="evenodd"/>
    <path id="Path_131" data-name="Path 131" d="M128.6,79.447V77.714l.379-.041.122-.02-.054.108-.1.2-.081.251-.034.244-.014.251.02.237.067.251.075.23.122.217.027.047Z" transform="translate(-83.095 -30.55)" fill="#2b7563" fill-rule="evenodd"/>
    <path id="Path_132" data-name="Path 132" d="M128.6,81.925l.346.115.386.122.589.142.582.128.6.122.6.081.6.068.46.041,2.045.19.352.047.487.027.5-.014.487-.061.44-.047.339-.075.3-.108.311-.149.291-.183.115-.095.556-.494v-.014l.02-.02.021-.054.027-.054.007-.027.034-.034v-.122l-.013-.02-.02-.034v-.027l-.007-.027-.034-.02-.075-.088-.081-.067-.081-.075-.717-.393-.3.379h-.108l-.081-.021-.088-.02-.075-.054-.075-.041-.061-.068-.047-.067-.027-.047.027-.467-.142.156-.034.027L137,80.5l-.021.014-.02.014h-.034l-.054.007H136.8l-.013-.007h-.035l-.02-.014-.054-.054-.02-.034-.014-.02-.02-.02v-.027l-.014-.041-.006-.02v-.075l-.088.041-.062.034-.08.02h-.108l-.041-.007-.02-.014h-.02l-.034-.02-.054-.027-.047-.047L136,80.158l-.034-.088L135.937,80l-.007-.081v-.054l-.251.183-.006.014-.047.007h-.061l-.02.014h-.067l-.068-.02-.054-.027L135.294,80l-.048-.047-.027-.02-.013-.054-.108-.23-.359.149h-.081l-.027-.014-.006-.014-.014-.014h-.021l-.013-.02-.027-.02-.014-.014-.013-.02v-.02l-.007-.02V79.63l-.014-.02v-.1l-.054-.494-.541.44h-.122l-.006-.014h-.034v-.014h-.007l-.013-.014-.014-.007-.007-.014v-.014h-.014v-.047l.014-.738-.562.535-.034.027-.034.007-.02.014H133l-.054.014h-.054l-.013-.014h-.007l-.034-.02-.034-.034-.021-.034-.02-.034-.02-.007-.014-.027v-.027l-.006-.014v-.034l-.034.014-.183.034-.19.02-.223-.041-.2-.054-.183-.088-.162-.108-.142-.129-.135-.142-.1-.169-.074-.176-.142-.277-.149-.142-.108-.034h-.048l-.034.02-.007.02-.041.1v.034l-.013.02V77.9l.034.176.061.23.1.217.115.2.156.182.169.149.19.142.2.108.108.054.108.034,4.658,1.482.034.007.142.068.129.074.122.095.108.108.081.136.034.041-.013.02.013.02v.027l.014.061v.074l-.014.007v.027l-.02.02-.054.054-.129.054-.189.047h-.169l-.162-.034-.169-.047-.142-.088-.143-.095-.122-.115-.061-.075-.034-.027-.034.014-.061.041-.075.02-.108.027h-.067l-.075-.014-.075-.014-.067-.034-.068-.041-.054-.041-.027-.04-.027-.027-.006-.034-.021-.02-.013-.041-.02-.068-.013-.041V81l-.027.014-.1.041-.108.027-.088.027h-.095l-.1-.014-.081-.02-.088-.034-.075-.061-.075-.068L134,80.848l-.027-.034-.02-.061-.027.02-.061.067-.068.054-.04.041-.054.02-.095.034-.088.027h-.081L133.344,81l-.088-.02-.081-.034-.081-.054-.061-.054-.067-.074-.041-.068-.034-.088-.013-.061-.041.007-.128.067-.129.041-.142.034H132.3l-.115-.02-.135-.034-.122-.048-.108-.067-.088-.088-.1-.095-.061-.122-.054-.122-.027-.054-.047.034-.2.142-.217.122-.379.095-.393.04-.386-.02-.378-.041-.393-.088-.365-.128-.122-.054v1.774Z" transform="translate(-83.095 -30.55)" fill="#2b7563" fill-rule="evenodd"/>
  </g>
</svg>
