<svg xmlns="http://www.w3.org/2000/svg" width="68.906" height="36" viewBox="0 0 68.906 36">
  <g id="nike-3" transform="translate(-2.809 -47.512)">
    <path id="Path_134" data-name="Path 134" d="M30.377,69.648a.942.942,0,1,0,.977.943A.931.931,0,0,0,30.377,69.648Zm0,1.614a.672.672,0,1,1,.68-.671A.664.664,0,0,1,30.377,71.262Zm9.506-4.911H35.127l.541-8.266-3.088,8.266H28.163L35.17,47.667h4.7l-.542,8.379,3.147-8.379H46.89Zm.574,0,7.007-18.684h4.416L44.873,66.351Z" transform="translate(-16.018 -0.098)" fill-rule="evenodd"/>
    <path id="Path_135" data-name="Path 135" d="M11.636,79.03C5.465,86.277-.357,95.92,4.785,100.36c4.983,4.3,11.21,1.755,15.457.057S71.425,78.336,71.425,78.336c.453-.226.368-.51-.2-.368-.228.057-51.1,13.843-51.1,13.843-6.455,1.812-13.815-2.137-8.493-12.781Z" transform="translate(0 -19.217)" fill-rule="evenodd"/>
    <path id="Path_136" data-name="Path 136" d="M33.655,70.559a.235.235,0,0,0,.244-.267c0-.245-.16-.306-.427-.306h-.384V71h.256v-.432h.043l.233.432h.294Zm-.164-.164h-.146v-.235h.123c.075,0,.162.009.162.107S33.58,70.395,33.491,70.395ZM77.882,47.512a.942.942,0,1,0,.977.943A.932.932,0,0,0,77.882,47.512Zm0,1.614a.672.672,0,1,1,.68-.671A.665.665,0,0,1,77.882,49.126Z" transform="translate(-19.13)" fill-rule="evenodd"/>
    <path id="Path_137" data-name="Path 137" d="M104.952,48.619a.236.236,0,0,0,.245-.267c0-.245-.16-.306-.427-.306h-.384v1.013h.256v-.431h.043l.233.431h.295Zm-.165-.164h-.146v-.235h.123c.075,0,.162.009.162.108s-.05.128-.14.128Zm-2.912,2.326,1.187-3.114H89.587l-4.627,5.605L87.1,47.667H82.624L75.673,66.351h4.416l2.968-7.813.2,7.813,13.551-.029,1.29-3.594H92.949L94.641,58.2h4.246l1.306-3.482H95.948L97.4,50.781h4.472ZM87.641,65.1l-.283-9.738,6.677-7.331L87.641,65.1Z" transform="translate(-46.033 -0.098)" fill-rule="evenodd"/>
  </g>
</svg>
