<svg id="phillip-plein" xmlns="http://www.w3.org/2000/svg" width="80.206" height="40" viewBox="0 0 80.206 40">
  <path id="Path_143" data-name="Path 143" d="M272.749-443.874c0,.072-.135.171-.3.225-.216.072-.405.261-.694.7-.225.333-.432.667-.477.748s-.144.252-.243.405a4.289,4.289,0,0,0-.243.405c-.072.162-1.072,1.874-1.2,2.072a2.055,2.055,0,0,0-.153.27c-.036.072-.234.414-.432.766s-.405.694-.441.766-.108.216-.171.315-.27.46-.468.811-.405.712-.468.811-.144.243-.18.315-.234.414-.432.766-.4.694-.432.766-.153.279-.252.45-.3.513-.432.748-.279.5-.324.586-.252.432-.45.784-.405.712-.469.811a2.594,2.594,0,0,0-.387,1,6.388,6.388,0,0,0,.757,1.7c.108.2.333.6.5.9s.531.928.811,1.4.532.919.568.991.144.252.243.405.216.351.27.45.171.3.27.45a4.3,4.3,0,0,1,.243.405c.036.072.351.622.7,1.216s.667,1.144.7,1.216.144.252.243.405.216.351.27.45a2.074,2.074,0,0,0,.18.315c.135.2,1.126,1.91,1.2,2.072.036.072.144.252.234.405a6.873,6.873,0,0,1,.369.658,2.072,2.072,0,0,0,.5.6l.288.225h16.18l.261-.243a3.165,3.165,0,0,0,.441-.6,5.783,5.783,0,0,1,.36-.64c.09-.153.2-.333.234-.405s.288-.523.568-.991.531-.919.568-.991a4.281,4.281,0,0,1,.243-.405c.1-.153.207-.333.243-.405s.234-.423.432-.766.405-.694.441-.766.108-.216.171-.315.27-.46.469-.811.405-.712.468-.811.144-.243.18-.315.234-.423.432-.766.4-.694.432-.766a4.28,4.28,0,0,1,.243-.405c.1-.153.216-.351.27-.45s.234-.423.405-.721.351-.622.405-.721.171-.306.27-.45.207-.333.243-.405.171-.333.315-.568a.889.889,0,0,0,0-1.207c-.144-.234-.279-.5-.315-.568a4.287,4.287,0,0,0-.243-.405c-.1-.153-.216-.351-.27-.45a2.075,2.075,0,0,0-.18-.315c-.117-.18-.847-1.45-.928-1.622-.036-.072-.117-.216-.18-.315s-.333-.568-.6-1.036-.541-.937-.6-1.036-.135-.243-.171-.315-.234-.423-.441-.766-.4-.694-.432-.766a4.281,4.281,0,0,0-.243-.405,3.746,3.746,0,0,1-.261-.459c-.045-.1-.243-.45-.432-.766s-.378-.64-.414-.712a4.284,4.284,0,0,0-.243-.405c-.1-.153-.207-.333-.243-.405-.072-.162-1.063-1.874-1.2-2.072a2.065,2.065,0,0,1-.171-.315,1.021,1.021,0,0,0-.658-.541c-.144-.036-.252-.117-.252-.189,0-.108-1.189-.126-7.748-.126C273.857-444,272.749-443.982,272.749-443.874ZM287.5-441.3a1.693,1.693,0,0,1,.333.351c.144.261.351.631.631,1.135.135.243.324.568.414.721.171.279.234.387.667,1.171.135.243.324.568.423.721s.2.333.234.405.225.414.432.766.4.694.432.766a2.055,2.055,0,0,0,.153.27c.126.2,1.126,1.91,1.2,2.072.036.072.144.252.243.405a4.283,4.283,0,0,1,.243.405c.027.072.351.631.721,1.243.757,1.27.82,1.595.432,2.225-.126.2-.252.423-.288.5s-.288.523-.568.991-.532.919-.568.991-.144.252-.243.405a4.293,4.293,0,0,0-.243.405c-.036.072-.234.414-.432.766s-.4.694-.432.766-.144.252-.243.405a4.293,4.293,0,0,0-.243.405c-.036.072-.351.622-.7,1.216s-.667,1.144-.7,1.216-.144.252-.243.405-.216.351-.27.45-.144.261-.207.36-.3.5-.532.9c-.7,1.189.081,1.081-7.748,1.081h-6.73l-.279-.27a4.83,4.83,0,0,1-.613-.856c-.18-.324-.378-.667-.441-.766s-.135-.243-.171-.315-.234-.423-.441-.766-.4-.694-.432-.766a4.3,4.3,0,0,0-.243-.405c-.1-.153-.234-.4-.306-.541s-.261-.477-.405-.721-.315-.532-.369-.631-.234-.423-.405-.721-.36-.622-.405-.721-.171-.306-.27-.45-.234-.4-.306-.541-.252-.477-.405-.721-.378-.658-.514-.9c-.441-.811-.5-.9-.712-1.261a1.1,1.1,0,0,1,.036-1.333c.144-.261.351-.631.459-.829s.315-.568.46-.811.333-.577.405-.721a4.6,4.6,0,0,1,.306-.541c.1-.153.207-.333.243-.405s.225-.423.432-.766.4-.694.432-.766a2.055,2.055,0,0,1,.153-.27c.126-.189.856-1.459.928-1.622a4.289,4.289,0,0,1,.243-.405c.171-.27.225-.369.667-1.171.135-.252.324-.577.414-.721s.3-.513.441-.811c.5-1.009.964-1.459,1.622-1.568.171-.027,3.18-.045,6.694-.036C287.208-441.487,287.253-441.487,287.5-441.3Z" transform="translate(-240.307 444)" fill="#050000"/>
  <path id="Path_144" data-name="Path 144" d="M40.694-347.346c-.315.063-.126.279.378.432.667.189.739.225.955.523.189.243.189.36.216,5.757.018,3.036,0,5.649-.027,5.811a.944.944,0,0,1-.811.739c-.306,0-.676.216-.676.4,0,.2.45.234,2.667.234,1.973,0,2.559-.063,2.559-.261,0-.171-.288-.369-.523-.369a1.337,1.337,0,0,1-.586-.225c-.586-.405-.6-.5-.6-2.955,0-2.018.018-2.207.162-2.342s.378-.153,1.423-.153c2.64,0,3.937-.55,4.685-1.991a2.61,2.61,0,0,0,.252-1.523,2.674,2.674,0,0,0-.306-1.658,4.466,4.466,0,0,0-1.378-1.622,4.356,4.356,0,0,0-2.009-.5c-.369,0-1.5-.063-2.532-.135C42.595-347.328,40.955-347.391,40.694-347.346Zm6.4,1.3a3.037,3.037,0,0,1,1.342,2.189,2.085,2.085,0,0,1,.009,1.306,2.788,2.788,0,0,1-3.234,2.135c-.468-.045-.586-.09-.757-.306-.207-.252-.207-.3-.207-2.694,0-2.414,0-2.441.207-2.622.3-.279.4-.3,1.369-.27A2.084,2.084,0,0,1,47.09-346.048Zm-11.811-1.18c-.4.036-1.225.108-1.847.162a3.871,3.871,0,0,0-2.351.694,2.81,2.81,0,0,0-.892,1,.331.331,0,0,1-.1.18,2.535,2.535,0,0,0-.279.586,4.02,4.02,0,0,0,.261,3.054.49.49,0,0,1,.117.225c0,.225,1.045,1.036,1.685,1.3.685.288.7.288,2.441.315,1.541.018,1.766.045,1.838.18a15.231,15.231,0,0,1,.054,2.414c-.018,1.937-.045,2.3-.18,2.477a1.282,1.282,0,0,1-1.018.559c-.586.063-.667.288-.162.459a22.408,22.408,0,0,0,4.73.009c.1-.1.081-.153-.1-.3a.87.87,0,0,0-.45-.171,1.167,1.167,0,0,1-.5-.225l-.27-.225L38.225-340c-.018-3.018,0-5.6.027-5.766a2.1,2.1,0,0,1,1.027-1.09.834.834,0,0,0,.342-.252C39.685-347.31,36.892-347.391,35.279-347.229Zm.64.982c.3.117.324.369.288,2.973-.027,2.5-.036,2.559-.568,2.847a3.047,3.047,0,0,1-2.036-.126,3.13,3.13,0,0,1-1.7-2.676,4.313,4.313,0,0,1,1.423-2.8A3.744,3.744,0,0,1,35.919-346.247ZM.189-320.229a.323.323,0,0,0,.09.243,8.012,8.012,0,0,1,.09,1.748c0,1.577-.009,1.712-.189,1.937l-.18.234H.748c.6-.009.712-.027.568-.108a.82.82,0,0,1-.243-.2,4.77,4.77,0,0,1,.018-1.676c.063-.117.063-.189,0-.225a2.459,2.459,0,0,1-.09-.9c0-.829.009-.856.216-.91a.966.966,0,0,1,1.135.973.977.977,0,0,1-.6.847c-.4.225-.378.342.054.279a1.358,1.358,0,0,0,1.063-.595,1,1,0,0,0,.027-1.153c-.306-.5-.541-.595-1.676-.64C.225-320.409.189-320.409.189-320.229Zm6.577-.045a.36.36,0,0,0,.09.207,9.011,9.011,0,0,1,.072,1.928L6.9-316.3l-.225.117c-.2.1-.135.117.559.117h.784l-.225-.225c-.207-.207-.225-.279-.2-1.009l.027-.793H9.6l.027.793c.027.73.009.8-.2,1.009l-.225.225h1.459l-.243-.225-.234-.216v-1.7c0-1.405.027-1.73.135-1.82.288-.243.153-.36-.405-.36s-.694.117-.405.36c.108.09.135.279.117.847l-.027.73H7.622l-.027-.7c-.018-.513.009-.748.117-.892a1.012,1.012,0,0,0,.135-.27c0-.045-.243-.072-.541-.072C6.919-320.391,6.766-320.355,6.766-320.274Zm7.982-.036c-.027.036.009.153.081.243.1.135.126.531.135,1.865,0,1.676,0,1.694-.225,1.91l-.216.225h.784c.631-.009.748-.027.6-.108a.82.82,0,0,1-.243-.2,21.128,21.128,0,0,1,.018-3.7.227.227,0,0,0,.09-.189c0-.09-.126-.126-.486-.126A1.126,1.126,0,0,0,14.748-320.31Zm5.405.117a15.37,15.37,0,0,1,.081,2.036c0,1.712-.009,1.847-.171,1.964s.009.126,1.36.126c1.676,0,1.6.018,1.8-.54.171-.487.144-.5-.2-.153-.5.514-1.568.7-1.937.333-.171-.171-.18-.3-.18-1.838,0-1.36.027-1.676.135-1.766.288-.243.153-.36-.414-.36C20.1-320.391,20.081-320.382,20.153-320.193Zm6.955-.144c-.036.036-.009.171.063.315a4.753,4.753,0,0,1,.135,1.676c0,1.73-.045,2.054-.306,2.171-.144.072,0,.1.622.1.568,0,.748-.027.613-.081a.471.471,0,0,1-.252-.288c-.054-.225-.009-3.423.054-3.721.027-.162-.018-.18-.414-.207A1.152,1.152,0,0,0,27.108-320.337Zm5.315-.009c-.036.036-.009.153.063.261.108.144.135.541.135,1.883,0,1.676,0,1.694-.225,1.91l-.216.225.739-.009c.405,0,.685-.027.622-.054-.351-.144-.541-1.577-.243-1.829a.387.387,0,0,0,.135-.2.458.458,0,0,0-.135-.216c-.1-.1-.135-.342-.135-.847,0-.64.018-.73.189-.82a.931.931,0,0,1,.955.207c.162.153.207.288.207.667,0,.5-.081.631-.541.91-.369.216-.333.333.081.27a1.358,1.358,0,0,0,1.063-.595.975.975,0,0,0,.027-1.135c-.324-.523-.568-.613-1.667-.658A4.841,4.841,0,0,0,32.423-320.346Zm6.649.153a26.961,26.961,0,0,1,.081,3.658.484.484,0,0,1-.252.378c-.135.054.054.081.613.072.45,0,.739-.018.649-.045a.51.51,0,0,1-.252-.261,3.6,3.6,0,0,1,.018-1.586.358.358,0,0,0,0-.378,2.39,2.39,0,0,1-.081-.9c.036-.847.126-.955.676-.793a.952.952,0,0,1,.532,1.36,1.261,1.261,0,0,1-.45.414c-.369.2-.414.315-.135.315a1.79,1.79,0,0,0,1.135-.468c.207-.216.243-.333.243-.748a.839.839,0,0,0-.27-.775c-.342-.333-.748-.432-1.784-.441C39.009-320.391,39-320.391,39.072-320.193Zm11.387-.036a.323.323,0,0,0,.09.243,8.119,8.119,0,0,1,.09,1.766c0,1.694,0,1.712-.225,1.928l-.216.225h.784c.694,0,.757-.018.559-.117s-.225-.162-.252-.9a3.228,3.228,0,0,1,.072-.955c.063-.117.063-.2,0-.234a2.459,2.459,0,0,1-.09-.9c0-.766.018-.847.18-.9a.906.906,0,0,1,.946.351.93.93,0,0,1-.369,1.451c-.55.3-.279.423.432.207a1.143,1.143,0,0,0,.739-1.595c-.315-.577-.541-.667-1.7-.712C50.5-320.409,50.459-320.409,50.459-320.229Zm6.64-.108a.246.246,0,0,0,.036.225,13.444,13.444,0,0,1,.063,1.991l-.027,1.82-.225.117c-.189.1.027.117,1.369.117,1.55,0,1.595-.009,1.73-.2s.2-.613.09-.613a.8.8,0,0,0-.261.216,1.589,1.589,0,0,1-1.829.207c-.189-.2-.2-.288-.2-1.838,0-1.333.027-1.649.135-1.739.279-.234.153-.36-.342-.36A1.725,1.725,0,0,0,57.1-320.337Zm6.928.018c-.027.045.009.162.081.252.1.135.126.531.135,1.865v1.694l-.234.216-.243.225H66.91l.153-.315c.153-.315.2-.586.108-.586a2.491,2.491,0,0,0-.405.36c-.351.351-.369.36-1.018.36-.91,0-.982-.09-.946-1.09l.027-.757.676-.027c.649-.027.685-.018.874.225l.207.252v-1.225l-.3.225a1.061,1.061,0,0,1-.793.234,1.22,1.22,0,0,1-.6-.108,1.791,1.791,0,0,1-.108-.8c0-.811-.009-.8.955-.8.6,0,.694.027.883.225.288.306.342.288.306-.117l-.027-.333-1.414-.027A7.449,7.449,0,0,0,64.027-320.319Zm7.153,0a.693.693,0,0,0,.135.252c.1.135.126.523.135,1.865,0,1.676,0,1.694-.225,1.91l-.216.225h.784c.631-.009.748-.027.6-.108a.82.82,0,0,1-.243-.2,20.494,20.494,0,0,1,.027-3.721.188.188,0,0,0,.045-.2C72.153-320.409,71.18-320.427,71.18-320.319Zm5.135,0c0,.045.108.162.234.279l.225.2-.027,1.757c-.027,1.622-.045,1.775-.2,1.892s-.126.126.4.126.559-.009.4-.126-.18-.279-.216-1.513c-.054-1.739-.009-1.82.649-.964.351.459,1.2,1.513,1.649,2.054.315.387.5.55.586.55a10.571,10.571,0,0,0,.117-1.955c.018-1.081.045-2.045.072-2.144.027-.153-.009-.18-.279-.18s-.306.027-.27.18a13.768,13.768,0,0,1,.045,1.441c0,.919-.027,1.261-.108,1.261a1.873,1.873,0,0,1-.5-.5c-.441-.586-.919-1.171-1.55-1.91-.414-.478-.468-.514-.829-.514C76.5-320.391,76.315-320.355,76.315-320.319Z" transform="translate(0 356.066)" fill="#050000"/>
</svg>
