<svg xmlns="http://www.w3.org/2000/svg" width="85.767" height="20" viewBox="0 0 85.767 20">
  <g id="zara" transform="translate(-15.9 -11.4)">
    <path id="Path_138" data-name="Path 138" d="M32.813,28.21a2.438,2.438,0,0,1-1.973,2.443H21.258L33.31,11.4H17.2v3.19h.827c0-1.348.871-2.439,1.722-2.439h8.278L15.9,31.4H33.382V28.21h-.569" transform="translate(0 0)"/>
    <g id="Group_27" data-name="Group 27" transform="translate(33.711 11.4)">
      <path id="Path_139" data-name="Path 139" d="M918.3,576.1Z" transform="translate(-905.154 -556.728)"/>
      <path id="Path_140" data-name="Path 140" d="M555.11,29.843,545.786,11.4,537.24,29.856a2.358,2.358,0,0,1-2.14.916V31.4h4.549v-.624c-.844,0-1.749-.419-1.53-.919l2.055-4.456h7.883l2.24,4.446c.254.449-.882.933-2.051.933V31.4h9.468l0-.624A3.053,3.053,0,0,1,555.11,29.843Zm-14.593-5.166,3.41-7.485,3.808,7.485Z" transform="translate(-535.1 -11.4)"/>
    </g>
    <path id="Path_141" data-name="Path 141" d="M1226,12.172c1.386,0,2.532.357,2.532.789,0,3.431-.007,16.861,0,16.861,0,.46-1.129.971-2.518.971l0,.6h9.269v-.563c-1.376,0-2.491-.549-2.491-1.009V12h2.673a4.673,4.673,0,0,1,4.659,4.563,4.534,4.534,0,0,1-4.662,4.395h-1.849s6.264,9.485,6.275,9.485a3.183,3.183,0,0,1,.371.954h6.755v-.563a2.8,2.8,0,0,1-2.357-1.012l-6.031-7.87a5.416,5.416,0,0,0,5.135-5.31,5.412,5.412,0,0,0-5.571-5.245H1226v.772" transform="translate(-1168.587 0)"/>
    <path id="Path_142" data-name="Path 142" d="M1876.71,29.843,1867.385,11.4l-8.545,18.456a2.357,2.357,0,0,1-2.141.937v.6h4.549v-.563c-.844,0-1.746-.48-1.53-.981l2.054-4.456h7.883l2.24,4.446c.257.449-.882.954-2.051.954h0v.6h9.468l0-.583A3.038,3.038,0,0,1,1876.71,29.843Zm-14.6-5.166,3.41-7.485,3.808,7.485Z" transform="translate(-1777.65 0)"/>
  </g>
</svg>
