<svg xmlns="http://www.w3.org/2000/svg" width="84.824" height="62.695" viewBox="0 0 84.824 62.695">
    <defs>
        <style>
            .cls-1{fill:#8ca0b3}
        </style>
    </defs>
    <g id="barcode" transform="translate(0 -17.824)">
        <g id="Group_11" data-name="Group 11" transform="translate(11.064 28.887)">
            <path id="Path_40" d="M19.668 76.215a1.844 1.844 0 0 1-1.844-1.844v-36.88a1.844 1.844 0 0 1 3.688 0v36.88a1.844 1.844 0 0 1-1.844 1.844z" class="cls-1" data-name="Path 40" transform="translate(-17.824 -35.647)"/>
            <path id="Path_41" d="M31.55 68.839a1.844 1.844 0 0 1-1.844-1.844v-29.5a1.844 1.844 0 1 1 3.688 0v29.5a1.844 1.844 0 0 1-1.844 1.844z" class="cls-1" data-name="Path 41" transform="translate(-22.33 -35.647)"/>
            <path id="Path_42" d="M43.432 68.839a1.844 1.844 0 0 1-1.844-1.844v-29.5a1.844 1.844 0 1 1 3.688 0v29.5a1.844 1.844 0 0 1-1.844 1.844z" class="cls-1" data-name="Path 42" transform="translate(-26.836 -35.647)"/>
            <path id="Path_43" d="M55.315 68.839a1.844 1.844 0 0 1-1.844-1.844v-29.5a1.844 1.844 0 0 1 3.688 0v29.5a1.844 1.844 0 0 1-1.844 1.844z" class="cls-1" data-name="Path 43" transform="translate(-31.343 -35.647)"/>
            <path id="Path_44" d="M67.2 76.215a1.844 1.844 0 0 1-1.844-1.844v-36.88a1.844 1.844 0 1 1 3.688 0v36.88a1.844 1.844 0 0 1-1.844 1.844z" class="cls-1" data-name="Path 44" transform="translate(-35.849 -35.647)"/>
            <path id="Path_45" d="M79.079 68.839a1.844 1.844 0 0 1-1.844-1.844v-29.5a1.844 1.844 0 1 1 3.688 0v29.5a1.844 1.844 0 0 1-1.844 1.844z" class="cls-1" data-name="Path 45" transform="translate(-40.355 -35.647)"/>
            <path id="Path_46" d="M90.962 68.839a1.844 1.844 0 0 1-1.844-1.844v-29.5a1.844 1.844 0 1 1 3.688 0v29.5a1.844 1.844 0 0 1-1.844 1.844z" class="cls-1" data-name="Path 46" transform="translate(-44.862 -35.647)"/>
            <path id="Path_47" d="M102.844 68.839A1.844 1.844 0 0 1 101 66.995v-29.5a1.844 1.844 0 1 1 3.688 0v29.5a1.844 1.844 0 0 1-1.844 1.844z" class="cls-1" data-name="Path 47" transform="translate(-49.368 -35.647)"/>
            <path id="Path_48" d="M114.726 76.215a1.844 1.844 0 0 1-1.844-1.844v-36.88a1.844 1.844 0 0 1 3.688 0v36.88a1.844 1.844 0 0 1-1.844 1.844z" class="cls-1" data-name="Path 48" transform="translate(-53.875 -35.647)"/>
            <path id="Path_49" d="M31.549 98.753a1.5 1.5 0 0 1-.7-.147 1.306 1.306 0 0 1-.59-.406 1.781 1.781 0 0 1-.063-2.518l.063-.063a1.3 1.3 0 0 1 .59-.406 1.822 1.822 0 0 1 1.992.406 1.844 1.844 0 0 1-1.291 3.135z" class="cls-1" data-name="Path 49" transform="translate(-22.33 -58.185)"/>
            <path id="Path_50" d="M43.432 98.751a1.5 1.5 0 0 1-.7-.147 1.306 1.306 0 0 1-.59-.406 1.781 1.781 0 0 1-.063-2.518l.063-.063a1.3 1.3 0 0 1 .59-.406 1.807 1.807 0 0 1 1.992.406 1.306 1.306 0 0 1 .406.59 1.738 1.738 0 0 1 0 1.4 1.29 1.29 0 0 1-.406.59 1.727 1.727 0 0 1-1.292.554z" class="cls-1" data-name="Path 50" transform="translate(-26.836 -58.184)"/>
            <path id="Path_51" d="M55.314 98.751a1.5 1.5 0 0 1-.7-.147 1.306 1.306 0 0 1-.59-.406 1.781 1.781 0 0 1-.063-2.518l.063-.063a1.3 1.3 0 0 1 .59-.406 1.807 1.807 0 0 1 1.992.406 1.306 1.306 0 0 1 .406.59 1.738 1.738 0 0 1 0 1.4 1.29 1.29 0 0 1-.406.59 1.727 1.727 0 0 1-1.292.554z" class="cls-1" data-name="Path 51" transform="translate(-31.342 -58.184)"/>
            <path id="Path_52" d="M79.1 98.763a1.833 1.833 0 1 1 1.291-3.135 1.306 1.306 0 0 1 .406.59 1.738 1.738 0 0 1 0 1.4 1.29 1.29 0 0 1-.406.59 1.726 1.726 0 0 1-1.291.555z" class="cls-1" data-name="Path 52" transform="translate(-40.371 -58.195)"/>
            <path id="Path_53" d="M90.977 98.763a1.844 1.844 0 1 1 1.265-.527 1.844 1.844 0 0 1-1.265.527z" class="cls-1" data-name="Path 53" transform="translate(-44.878 -58.195)"/>
            <path id="Path_54" d="M102.844 98.763a1.726 1.726 0 0 1-1.291-.553 1.288 1.288 0 0 1-.406-.59 1.738 1.738 0 0 1 0-1.4 1.3 1.3 0 0 1 .406-.59 1.826 1.826 0 1 1 1.291 3.135z" class="cls-1" data-name="Path 54" transform="translate(-49.368 -58.195)"/>
        </g>
        <g id="Group_12" data-name="Group 12" transform="translate(0 17.824)">
            <path id="Path_55" d="M1.844 32.575A1.844 1.844 0 0 1 0 30.731V19.668a1.844 1.844 0 0 1 1.844-1.844h11.064a1.844 1.844 0 1 1 0 3.688h-9.22v9.22a1.844 1.844 0 0 1-1.844 1.843z" class="cls-1" data-name="Path 55" transform="translate(0 -17.824)"/>
            <path id="Path_56" d="M12.908 109.811H1.844A1.844 1.844 0 0 1 0 107.967V96.9a1.844 1.844 0 1 1 3.688 0v9.22h9.22a1.844 1.844 0 0 1 0 3.688z" class="cls-1" data-name="Path 56" transform="translate(0 -47.115)"/>
            <path id="Path_57" d="M125.79 32.575a1.844 1.844 0 0 1-1.844-1.844v-9.22h-9.22a1.844 1.844 0 1 1 0-3.688h11.064a1.844 1.844 0 0 1 1.844 1.844v11.064a1.844 1.844 0 0 1-1.844 1.844z" class="cls-1" data-name="Path 57" transform="translate(-42.811 -17.824)"/>
            <path id="Path_58" d="M125.79 109.811h-11.064a1.844 1.844 0 1 1 0-3.688h9.22V96.9a1.844 1.844 0 0 1 3.688 0v11.064a1.844 1.844 0 0 1-1.844 1.847z" class="cls-1" data-name="Path 58" transform="translate(-42.811 -47.115)"/>
        </g>
        <path id="Path_59" d="M19.668 76.215a1.844 1.844 0 0 1-1.844-1.844v-36.88a1.844 1.844 0 0 1 3.688 0v36.88a1.844 1.844 0 0 1-1.844 1.844z" class="cls-1" data-name="Path 59" transform="translate(-6.76 -6.76)"/>
        <path id="Path_60" d="M31.55 68.839a1.844 1.844 0 0 1-1.844-1.844v-29.5a1.844 1.844 0 1 1 3.688 0v29.5a1.844 1.844 0 0 1-1.844 1.844z" class="cls-1" data-name="Path 60" transform="translate(-11.266 -6.76)"/>
        <path id="Path_61" d="M43.432 68.839a1.844 1.844 0 0 1-1.844-1.844v-29.5a1.844 1.844 0 1 1 3.688 0v29.5a1.844 1.844 0 0 1-1.844 1.844z" class="cls-1" data-name="Path 61" transform="translate(-15.772 -6.76)"/>
        <path id="Path_62" d="M55.315 68.839a1.844 1.844 0 0 1-1.844-1.844v-29.5a1.844 1.844 0 0 1 3.688 0v29.5a1.844 1.844 0 0 1-1.844 1.844z" class="cls-1" data-name="Path 62" transform="translate(-20.279 -6.76)"/>
        <path id="Path_63" d="M67.2 76.215a1.844 1.844 0 0 1-1.844-1.844v-36.88a1.844 1.844 0 1 1 3.688 0v36.88a1.844 1.844 0 0 1-1.844 1.844z" class="cls-1" data-name="Path 63" transform="translate(-24.785 -6.76)"/>
        <path id="Path_64" d="M79.079 68.839a1.844 1.844 0 0 1-1.844-1.844v-29.5a1.844 1.844 0 1 1 3.688 0v29.5a1.844 1.844 0 0 1-1.844 1.844z" class="cls-1" data-name="Path 64" transform="translate(-29.291 -6.76)"/>
        <path id="Path_65" d="M90.962 68.839a1.844 1.844 0 0 1-1.844-1.844v-29.5a1.844 1.844 0 1 1 3.688 0v29.5a1.844 1.844 0 0 1-1.844 1.844z" class="cls-1" data-name="Path 65" transform="translate(-33.798 -6.76)"/>
        <path id="Path_66" d="M102.844 68.839A1.844 1.844 0 0 1 101 66.995v-29.5a1.844 1.844 0 1 1 3.688 0v29.5a1.844 1.844 0 0 1-1.844 1.844z" class="cls-1" data-name="Path 66" transform="translate(-38.304 -6.76)"/>
        <path id="Path_67" d="M114.726 76.215a1.844 1.844 0 0 1-1.844-1.844v-36.88a1.844 1.844 0 0 1 3.688 0v36.88a1.844 1.844 0 0 1-1.844 1.844z" class="cls-1" data-name="Path 67" transform="translate(-42.811 -6.76)"/>
        <path id="Path_68" d="M31.55 98.752a1.516 1.516 0 0 1-.7-.147 1.316 1.316 0 0 1-.59-.406 1.785 1.785 0 0 1-.058-2.524l.058-.058a1.313 1.313 0 0 1 .59-.406 1.844 1.844 0 0 1 1.4 0 1.294 1.294 0 0 1 .59.406 1.844 1.844 0 0 1-1.291 3.135z" class="cls-1" data-name="Path 68" transform="translate(-11.267 -29.297)"/>
        <path id="Path_69" d="M43.446 98.75a1.844 1.844 0 0 1-1.294-3.135 1.8 1.8 0 0 1 1.992-.406 1.294 1.294 0 0 1 .59.406 1.844 1.844 0 0 1-1.287 3.135z" class="cls-1" data-name="Path 69" transform="translate(-15.786 -29.295)"/>
        <path id="Path_70" d="M55.328 98.753a1.844 1.844 0 0 1-1.294-3.135 1.314 1.314 0 0 1 .59-.406 1.822 1.822 0 0 1 1.992.406 1.844 1.844 0 0 1-1.291 3.135z" class="cls-1" data-name="Path 70" transform="translate(-20.292 -29.298)"/>
        <path id="Path_71" d="M79.08 98.752a1.616 1.616 0 0 1-.7-.147 1.316 1.316 0 0 1-.59-.406 1.785 1.785 0 0 1-.058-2.524l.058-.058a1.313 1.313 0 0 1 .59-.406 1.844 1.844 0 0 1 1.4 0 1.294 1.294 0 0 1 .59.406 1.844 1.844 0 0 1-1.291 3.135z" class="cls-1" data-name="Path 71" transform="translate(-29.292 -29.297)"/>
        <path id="Path_72" d="M90.962 98.763a1.616 1.616 0 0 1-.7-.147 1.316 1.316 0 0 1-.59-.406 1.785 1.785 0 0 1-.058-2.524l.058-.058a1.844 1.844 0 0 1 2.582 0 1.778 1.778 0 0 1 .069 2.513q-.033.035-.069.069a1.3 1.3 0 0 1-.59.406 1.6 1.6 0 0 1-.702.147z" class="cls-1" data-name="Path 72" transform="translate(-33.799 -29.307)"/>
        <path id="Path_73" d="M102.843 98.753a1.616 1.616 0 0 1-.7-.147 1.316 1.316 0 0 1-.59-.406 1.73 1.73 0 0 1-.553-1.291 1.474 1.474 0 0 1 .147-.7 1.3 1.3 0 0 1 .4-.59 1.313 1.313 0 0 1 .59-.406 1.822 1.822 0 0 1 1.992.406 1.336 1.336 0 0 1 .406.59 1.475 1.475 0 0 1 .147.7 1.9 1.9 0 0 1-1.844 1.844z" class="cls-1" data-name="Path 73" transform="translate(-38.304 -29.298)"/>
        <path id="Path_74" d="M1.844 32.575A1.844 1.844 0 0 1 0 30.731V19.668a1.844 1.844 0 0 1 1.844-1.844h11.064a1.844 1.844 0 1 1 0 3.688h-9.22v9.22a1.844 1.844 0 0 1-1.844 1.843z" class="cls-1" data-name="Path 74"/>
        <path id="Path_75" d="M12.908 109.811H1.844A1.844 1.844 0 0 1 0 107.967V96.9a1.844 1.844 0 1 1 3.688 0v9.22h9.22a1.844 1.844 0 0 1 0 3.688z" class="cls-1" data-name="Path 75" transform="translate(0 -29.291)"/>
        <path id="Path_76" d="M125.79 32.575a1.844 1.844 0 0 1-1.844-1.844v-9.22h-9.22a1.844 1.844 0 1 1 0-3.688h11.064a1.844 1.844 0 0 1 1.844 1.844v11.064a1.844 1.844 0 0 1-1.844 1.844z" class="cls-1" data-name="Path 76" transform="translate(-42.811)"/>
        <path id="Path_77" d="M125.79 109.811h-11.064a1.844 1.844 0 1 1 0-3.688h9.22V96.9a1.844 1.844 0 0 1 3.688 0v11.064a1.844 1.844 0 0 1-1.844 1.847z" class="cls-1" data-name="Path 77" transform="translate(-42.811 -29.291)"/>
    </g>
</svg>
