<?xml version="1.0" encoding="UTF-8"?> <svg xmlns="http://www.w3.org/2000/svg" xmlns:xlink="http://www.w3.org/1999/xlink" width="217.523" height="84.488" viewBox="0 0 217.523 84.488"><defs><linearGradient id="linear-gradient" x1="0.5" y1="1" x2="0.5" gradientUnits="objectBoundingBox"><stop offset="0" stop-color="#ef7d00"></stop><stop offset="1" stop-color="#fd0"></stop></linearGradient><radialGradient id="radial-gradient" cx="0.337" cy="0.342" r="0.837" gradientUnits="objectBoundingBox"><stop offset="0.267" stop-color="#fff"></stop><stop offset="0.336" stop-color="#fafafa"></stop><stop offset="0.416" stop-color="#eceaeb"></stop><stop offset="0.502" stop-color="#d4d1d2"></stop><stop offset="0.591" stop-color="#b5b1b2"></stop><stop offset="0.663" stop-color="#969495"></stop><stop offset="0.708" stop-color="#a5a3a4"></stop><stop offset="0.782" stop-color="#cbc9ca"></stop><stop offset="0.784" stop-color="#cccbcc"></stop><stop offset="0.801" stop-color="#dfddde"></stop><stop offset="0.822" stop-color="#edeced"></stop><stop offset="0.848" stop-color="#f8f7f8"></stop><stop offset="0.884" stop-color="#fefdfe"></stop><stop offset="0.985" stop-color="#fff"></stop></radialGradient><linearGradient id="linear-gradient-2" x1="0.501" y1="1" x2="0.501" xlink:href="#linear-gradient"></linearGradient><linearGradient id="linear-gradient-3" x1="0.508" y1="1" x2="0.508" xlink:href="#linear-gradient"></linearGradient><linearGradient id="linear-gradient-4" x1="0.492" y1="1" x2="0.492" xlink:href="#linear-gradient"></linearGradient><linearGradient id="linear-gradient-5" x1="0.503" y1="1" x2="0.503" gradientUnits="objectBoundingBox"><stop offset="0" stop-color="#bcbcbb"></stop><stop offset="1" stop-color="#fff"></stop></linearGradient><linearGradient id="linear-gradient-6" x1="0.498" y1="1" x2="0.498" y2="0" xlink:href="#linear-gradient-5"></linearGradient><linearGradient id="linear-gradient-7" x1="0.504" y1="1" x2="0.504" y2="0" xlink:href="#linear-gradient-5"></linearGradient></defs><g id="Group_1416" data-name="Group 1416" transform="translate(3.241 3.243)"><g id="Group_1408" data-name="Group 1408" transform="translate(58.054 65.675)"><rect id="Rectangle_533" data-name="Rectangle 533" width="43.139" height="3.402" fill="#139741"></rect><rect id="Rectangle_534" data-name="Rectangle 534" width="43.139" height="3.402" transform="translate(43.276)" fill="#fff"></rect><rect id="Rectangle_535" data-name="Rectangle 535" width="43.139" height="3.402" transform="translate(86.415)" fill="#e30613"></rect></g><path id="Path_3380" data-name="Path 3380" d="M37.832,75.664A37.832,37.832,0,1,1,64.641,11.159H200.864a12.2,12.2,0,0,1,12.248,12.248V52.121a12.2,12.2,0,0,1-12.248,12.248H64.641A37.589,37.589,0,0,1,37.832,75.664Z" transform="translate(1.17 1.17)" fill="url(#linear-gradient)"></path><circle id="Ellipse_31" data-name="Ellipse 31" cx="34.702" cy="34.702" r="34.702" transform="translate(4.3 4.3)" fill="#030505"></circle><g id="Group_1410" data-name="Group 1410" transform="translate(-3.241 -3.243)"><circle id="Ellipse_32" data-name="Ellipse 32" cx="30.483" cy="30.483" r="30.483" transform="matrix(0.552, -0.834, 0.834, 0.552, 0, 50.846)" fill="#2e2e2e"></circle><circle id="Ellipse_33" data-name="Ellipse 33" cx="30.347" cy="30.347" r="30.347" transform="translate(11.896 11.898)" fill="url(#radial-gradient)"></circle><path id="Path_3381" data-name="Path 3381" d="M21.5,28.1" transform="translate(12.17 14.554)" fill="none" stroke="#e32285" stroke-miterlimit="10" stroke-width="0.154"></path><path id="Path_3382" data-name="Path 3382" d="M13.323,20.2s.272,1.089,1.225,1.225A29.825,29.825,0,0,1,22.577,23.6a3.447,3.447,0,0,0,1.633.272c.68-.136,0,1.633,0,1.633s.272-.953-1.905-1.769A24.919,24.919,0,0,0,14.412,21.7a2.993,2.993,0,0,0-1.769.544c-2.313,1.361-.817-.953-.817-.953l.817-.408.68-.68" transform="translate(8.507 11.703)" fill="#2e2e2e"></path><path id="Path_3383" data-name="Path 3383" d="M46.367,20.2s-.272,1.089-1.225,1.225A29.825,29.825,0,0,0,37.113,23.6a3.447,3.447,0,0,1-1.633.272c-.68-.136,0,1.633,0,1.633s-.272-.953,1.905-1.769A24.919,24.919,0,0,1,45.278,21.7a2.993,2.993,0,0,1,1.769.544c2.313,1.361.817-.953.817-.953l-.817-.408-.68-.68" transform="translate(17.105 11.703)" fill="#2e2e2e"></path><path id="Path_3384" data-name="Path 3384" d="M9.189,27.356a7.659,7.659,0,0,0-.272,1.905c0,1.633.953,8.573,3.538,11.023s2.994,1.905,2.994,1.905L12.591,41.1a19.651,19.651,0,0,1-1.633-2.45c-1.5-2.586-2.313-7.213-2.45-9.934,0-2.722-.408-1.769-.408-1.769s.408-.544.544-.544C8.917,26.267,9.189,27.356,9.189,27.356Z" transform="translate(7.334 13.937)" fill="#2e2e2e"></path><path id="Path_3385" data-name="Path 3385" d="M48.452,26.953s.272.136.408,1.769c0,1.633-.68,8.846-3.266,11.3S42.6,41.922,42.6,41.922l2.858-1.089a19.651,19.651,0,0,0,1.633-2.45c1.5-2.586,2.177-7.621,2.177-10.343s.68-1.5.68-1.5S49.54,26,49.4,26C49,26.136,48.452,26.953,48.452,26.953Z" transform="translate(19.784 13.796)" fill="#2e2e2e"></path><path id="Path_3386" data-name="Path 3386" d="M25.179,31.172s.408.68-.272,1.905-5.58,8.437-5.58,8.437a2.386,2.386,0,0,1-1.633.408c-1.361,0,1.633,2.041,1.769,2.177s.136.544.136.544a6.135,6.135,0,0,1,0-3.266c.544-1.225,5.443-8.3,5.443-8.3a2.964,2.964,0,0,1,1.5-1.089c.953-.272,0-1.089,0-1.089Z" transform="translate(10.668 15.564)" fill="#2e2e2e"></path><path id="Path_3387" data-name="Path 3387" d="M33.173,30.836s-.408.68.272,1.905,5.58,8.437,5.58,8.437.272.408,1.633.408-1.633,2.041-1.769,2.177-.136.68-.136.68a6.135,6.135,0,0,0,0-3.266c-.544-1.225-5.443-8.3-5.443-8.3a2.964,2.964,0,0,0-1.5-1.089c-.953-.272,0-1.089,0-1.089Z" transform="translate(15.738 15.492)" fill="#2e2e2e"></path><path id="Path_3388" data-name="Path 3388" d="M22.8,45.244s.68,1.361,6.94,1.5S37.633,44.7,37.633,44.7l-.136.68s-1.769,1.633-7.757,1.5c-5.716-.136-6.94-1.225-6.94-1.225v-.408Z" transform="translate(12.639 20.544)" fill="#2e2e2e"></path><path id="Path_3389" data-name="Path 3389" d="M12.844,17.046a12.345,12.345,0,0,1,4.763-5.852,18.164,18.164,0,0,1,7.621-2.858V8.2a19.065,19.065,0,0,0-7.893,3.13A17.072,17.072,0,0,0,12.3,17.046v.544Z" transform="translate(8.85 7.372)" fill="#2e2e2e"></path><path id="Path_3390" data-name="Path 3390" d="M46.084,16.882a12.345,12.345,0,0,0-4.763-5.852A18.164,18.164,0,0,0,33.7,8.172V7.9a19.065,19.065,0,0,1,7.893,3.13,17.073,17.073,0,0,1,5.035,5.716v.544Z" transform="translate(16.572 7.264)" fill="#2e2e2e"></path><path id="Path_3391" data-name="Path 3391" d="M27.858,10.344h0c.272,0,.68.272.68,1.089.136,1.089-.272,8.982-.272,8.982s0,.817-1.089,1.225,1.225.272,1.225.272l.68-.272s-.68-.817-.68-1.225.136-8.165.272-9.118c.136-1.225.68-1.361.68-1.361L28.266,9.8Z" transform="translate(14.113 7.95)" fill="#2e2e2e"></path><path id="Path_3392" data-name="Path 3392" d="M18.7,47.336l.272.272a5.985,5.985,0,0,0,1.361,1.633,4.954,4.954,0,0,1-1.225-1.633l-.136-.408Z" transform="translate(11.159 21.446)" fill="#2e2e2e"></path><path id="Path_3393" data-name="Path 3393" d="M37.733,47.236l-.272.272A5.985,5.985,0,0,1,36.1,49.141a4.954,4.954,0,0,0,1.225-1.633l.136-.408Z" transform="translate(17.438 21.41)" fill="#2e2e2e"></path><path id="Path_3394" data-name="Path 3394" d="M12.386,41.989A4,4,0,0,1,9.8,40.9a3.781,3.781,0,0,0,2.722,1.225Z" transform="translate(7.947 19.173)" fill="#2e2e2e"></path><path id="Path_3395" data-name="Path 3395" d="M44.336,41.789A2.939,2.939,0,0,0,46.513,40.7,3.06,3.06,0,0,1,44.2,41.925Z" transform="translate(20.361 19.101)" fill="#2e2e2e"></path><path id="Path_3396" data-name="Path 3396" d="M6.861,25.246A6.772,6.772,0,0,0,5.5,27.151v-.68s.817-1.225,1.225-1.361C7.405,24.974,6.861,25.246,6.861,25.246Z" transform="translate(6.396 13.461)" fill="#2e2e2e"></path><path id="Path_3397" data-name="Path 3397" d="M9.416,16.605a4.158,4.158,0,0,1,0-1.361l.408-.544C9.96,14.7,9.28,15.925,9.416,16.605Z" transform="translate(7.787 9.718)" fill="#2e2e2e"></path><g id="Group_1409" data-name="Group 1409" transform="translate(66.875 24.418)"><path id="Path_3398" data-name="Path 3398" d="M49.139,25.261A6.772,6.772,0,0,1,50.5,27.166v-.68s-.817-1.225-1.225-1.361C48.731,24.853,49.139,25.261,49.139,25.261Z" transform="translate(-44.784 -10.972)" fill="#2e2e2e"></path><path id="Path_3399" data-name="Path 3399" d="M46.308,16.605a4.159,4.159,0,0,0,0-1.361L45.9,14.7A3.863,3.863,0,0,1,46.308,16.605Z" transform="translate(-45.9 -14.7)" fill="#2e2e2e"></path></g><path id="Path_3400" data-name="Path 3400" d="M36.086,21.166c-2.041-1.361-5.443-3.266-5.443-3.266h0S27.1,19.805,25.2,21.166c-2.041,1.361-4.9,3.674-4.9,3.674a37.475,37.475,0,0,0,1.905,6.4,53.854,53.854,0,0,0,2.313,5.443,46.88,46.88,0,0,0,6.26.408,55.47,55.47,0,0,0,6.26-.408,53.854,53.854,0,0,0,2.313-5.443c1.5-4.491,1.905-6.4,1.905-6.4S38.127,22.527,36.086,21.166Z" transform="translate(11.737 10.873)" fill="#030405"></path><path id="Path_3401" data-name="Path 3401" d="M10.619,16.514S6.536,22.91,6.4,29.17c0,0,.817,2.858,2.994,3.538,0,0,3.266-7.213,6.26-9.118,0,0-1.769-5.171-.408-9.39C15.382,14.2,13.34,14.064,10.619,16.514Z" transform="translate(6.72 9.537)" fill="#030405"></path><path id="Path_3402" data-name="Path 3402" d="M47.535,16.514s4.083,6.4,4.219,12.656c0,0-.817,2.858-2.994,3.538,0,0-3.266-7.213-6.26-9.118,0,0,1.769-5.171.408-9.39C42.908,14.2,44.813,14.064,47.535,16.514Z" transform="translate(19.748 9.537)" fill="#030405"></path><path id="Path_3403" data-name="Path 3403" d="M23.25,6.663a27.069,27.069,0,0,1,13.336-.272A7.537,7.537,0,0,1,40.26,9.249s-6.124.817-9.526,2.994A20.332,20.332,0,0,0,20.8,9.657,5.25,5.25,0,0,1,23.25,6.663Z" transform="translate(11.917 6.459)" fill="#030405"></path><path id="Path_3404" data-name="Path 3404" d="M11.517,36.8s-1.225,2.722.408,6.8c0,0,2.722,4.763,10.07,7.757,0,0,3.81-.408,5.852-2.722,0,0-5.988-5.988-6.124-9.118C21.587,39.658,17.1,40.066,11.517,36.8Z" transform="translate(8.408 17.693)" fill="#030405"></path><path id="Path_3405" data-name="Path 3405" d="M48.93,36.7s1.225,2.722-.408,6.8c0,0-2.722,4.763-10.07,7.757,0,0-3.81-.408-5.852-2.722,0,0,5.988-5.988,6.124-9.118A19.12,19.12,0,0,0,48.93,36.7Z" transform="translate(16.175 17.657)" fill="#030405"></path></g><circle id="Ellipse_34" data-name="Ellipse 34" cx="30.483" cy="30.483" r="30.483" transform="translate(8.518 8.519)" fill="none" stroke="#000" stroke-miterlimit="10" stroke-width="1"></circle><path id="Path_3406" data-name="Path 3406" d="M186.393,57.622H49.354A9.263,9.263,0,0,1,40.1,48.368V19.654A9.263,9.263,0,0,1,49.354,10.4H186.393a9.263,9.263,0,0,1,9.254,9.254V48.368A9.352,9.352,0,0,1,186.393,57.622Z" transform="translate(15.64 4.923)" fill="#030505"></path><g id="Group_1414" data-name="Group 1414" transform="translate(60.64 19.678)"><g id="Group_1411" data-name="Group 1411" transform="translate(0)"><path id="Path_3407" data-name="Path 3407" d="M59.1,52.249h6.94V36.19h5.852V29.658H66.04V20.132h7.893V13.6H59.1Z" transform="translate(-38.143 -13.6)" fill="url(#linear-gradient-2)"></path><path id="Path_3408" data-name="Path 3408" d="M86.017,31.563c1.633-.68,3.4-2.313,3.4-7.621v-1.5c0-5.988-2.858-8.846-8.982-8.846H72V52.249h8.846c6.532,0,9.118-3.266,9.118-10.07v-3.13C90.1,33.741,87.65,32.244,86.017,31.563ZM78.8,19.452h1.225c2.177,0,2.858,1.089,2.858,3.538v2.041c0,2.994-.817,3.81-3.13,3.81H78.8Zm4.355,22.863c0,2.858-.544,4.083-2.994,4.083H78.8V34.557h.953c2.858,0,3.4,1.225,3.4,4.219Z" transform="translate(-33.487 -13.6)" fill="url(#linear-gradient-3)"></path><path id="Path_3409" data-name="Path 3409" d="M61.119,23.806c0-3.81-.272-10.206-8.437-10.206-8.029,0-8.982,4.083-8.982,8.846V42.178c0,6.26,1.5,10.07,7.077,10.07H61.119V32.38H52.682v5.988H55v3.81c0,3.13-.544,4.491-2.177,4.491-1.361,0-2.177-.953-2.177-3.538V22.037a2.177,2.177,0,1,1,4.355,0v5.58h6.124v-3.81Z" transform="translate(-43.7 -13.6)" fill="url(#linear-gradient-4)"></path></g><g id="Group_1412" data-name="Group 1412" transform="translate(58.381 0)"><path id="Path_3410" data-name="Path 3410" d="M111.1,39.32c-.817-8.029-2.177-18.236-3.13-25.72h-7.349c-.953,8.029-3.266,25.72-3.266,25.72L93.54,13.6H86.6l6.8,38.649h7.213l3.13-22.182h.272l3.4,22.182H114.5L121.166,13.6h-6.532Z" transform="translate(-86.6 -13.6)" fill="url(#linear-gradient-5)"></path><rect id="Rectangle_536" data-name="Rectangle 536" width="6.804" height="38.649" transform="translate(37.424)" fill="url(#linear-gradient-6)"></rect><path id="Path_3411" data-name="Path 3411" d="M135.028,13.6l.68,23.951h-.136L130.129,13.6H122.1V52.249h6.668c0-6.124-.272-20.413-.544-24.9h.136c.272,1.225,6.532,24.9,6.532,24.9h6.668V13.6Z" transform="translate(-73.789 -13.6)" fill="url(#linear-gradient-7)"></path></g><path id="Path_3419" data-name="Path 3419" d="M2.572.033A1.839,1.839,0,0,1,1.219-.518,1.839,1.839,0,0,1,.668-1.87v-.6h1.2v.6a.68.68,0,0,0,.2.5.68.68,0,0,0,.5.2H5.377a.756.756,0,0,0,.267-.05.509.509,0,0,0,.217-.15,1.206,1.206,0,0,0,.15-.234.593.593,0,0,0,.067-.267V-4.709a.728.728,0,0,0-.267-.568L1.269-9.853a1.96,1.96,0,0,1-.6-1.436v-2.839a1.8,1.8,0,0,1,.551-1.319A1.839,1.839,0,0,1,2.572-16H5.377a1.856,1.856,0,0,1,1.336.551,1.774,1.774,0,0,1,.568,1.319v.635h-1.2v-.635a.641.641,0,0,0-.2-.468.68.68,0,0,0-.5-.2H2.572a.68.68,0,0,0-.5.2.641.641,0,0,0-.2.468v2.839a.889.889,0,0,0,.234.6L6.68-6.146a1.96,1.96,0,0,1,.6,1.436V-1.87A1.812,1.812,0,0,1,6.713-.518,1.856,1.856,0,0,1,5.377.033Zm8.751,0V-14.8H8.617V-16H15.23v1.2H12.525V.033Zm7.148,0a1.839,1.839,0,0,1-1.353-.551,1.839,1.839,0,0,1-.551-1.353V-14.128a1.8,1.8,0,0,1,.551-1.319A1.839,1.839,0,0,1,18.47-16h2.806a1.931,1.931,0,0,1,.952.25,1.8,1.8,0,0,1,.7.685,1.84,1.84,0,0,1,.25.935V-1.87a1.812,1.812,0,0,1-.568,1.353,1.856,1.856,0,0,1-1.336.551Zm3.507-1.9V-14.128a.641.641,0,0,0-.2-.468.68.68,0,0,0-.5-.2H18.47a.68.68,0,0,0-.5.2.641.641,0,0,0-.2.468V-1.87a.68.68,0,0,0,.2.5.68.68,0,0,0,.5.2h2.806a.756.756,0,0,0,.267-.05.509.509,0,0,0,.217-.15,1.206,1.206,0,0,0,.15-.234A.593.593,0,0,0,21.977-1.87Zm3.741,1.9h-1.2V-16h4.709a1.839,1.839,0,0,1,1.353.551,1.8,1.8,0,0,1,.551,1.319v6.914a1.846,1.846,0,0,1-.534,1.3,1.773,1.773,0,0,1,.534,1.3V.033h-1.2V-4.609a.68.68,0,0,0-.2-.5.68.68,0,0,0-.5-.2H25.718ZM29.225-14.8H25.718v8.283h3.507a.653.653,0,0,0,.5-.217.7.7,0,0,0,.2-.484v-6.914a.641.641,0,0,0-.2-.468A.68.68,0,0,0,29.225-14.8ZM39.078-1.169v1.2H32.465V-16h6.613v1.2H33.667v4.142h2.705v1.2H33.667v8.283Z" transform="translate(145.619 39.083) rotate(-90)" fill="#fff"></path></g><g id="Group_1415" data-name="Group 1415" transform="translate(55.74 15.323)"><path id="Path_3417" data-name="Path 3417" d="M186.393,57.622H49.354A9.263,9.263,0,0,1,40.1,48.368V19.654A9.263,9.263,0,0,1,49.354,10.4H186.393a9.263,9.263,0,0,1,9.254,9.254V48.368A9.352,9.352,0,0,1,186.393,57.622Z" transform="translate(-40.1 -10.4)" fill="none"></path></g></g></svg> 