<svg xmlns="http://www.w3.org/2000/svg" width="106.429" height="21.725" viewBox="0 0 106.429 21.725">
  <g id="postpayimg" transform="translate(-3015.571 -1726.408)">
    <path id="Path_144" data-name="Path 144" d="M42.191,203.645a5.059,5.059,0,0,1,1.9-.342,4.265,4.265,0,0,1,3.116,1.169,5.035,5.035,0,0,1,1.411,3.264,9.008,9.008,0,0,1-.292,3.166,8.75,8.75,0,0,1-1.169,2.923,6.373,6.373,0,0,1-4.968,3.165v-1.947a5.938,5.938,0,0,0,.975-.39,4.7,4.7,0,0,0,1.607-1.753,10.637,10.637,0,0,0,1.023-2.534,8.306,8.306,0,0,0,.242-2.631,3.573,3.573,0,0,0-.876-2.093,2.712,2.712,0,0,0-2-.779,3.119,3.119,0,0,0-.975.146Zm-8.62,18.021,3.36-14.758c.1-.584.194-1.119.292-1.7.05-.585.1-1.122.146-1.705h2.339l-.2,2A8.132,8.132,0,0,1,41.7,203.84a1.975,1.975,0,0,1,.486-.195v1.365a4.2,4.2,0,0,0-2.582,2.337,10.531,10.531,0,0,0-1.021,2.726,8.7,8.7,0,0,0-.244,2.583,2.579,2.579,0,0,0,2.726,2.531,4.2,4.2,0,0,0,1.12-.144v1.947h-.438a5.016,5.016,0,0,1-2.337-.535,5.165,5.165,0,0,1-1.705-1.56l-1.559,6.77h-2.58v0Z" transform="translate(2982 1526.466)" fill="#32424e"/>
    <path id="Path_145" data-name="Path 145" d="M278.2,205.183a4.889,4.889,0,0,0-.827.1v-1.9a2.873,2.873,0,0,0,.341-.145,5.058,5.058,0,0,1,2.288-.488,4.114,4.114,0,0,1,3.02,1.121,4.866,4.866,0,0,1,1.267,3.214,9.708,9.708,0,0,1-1.511,6.673,5.642,5.642,0,0,1-4.919,2.777c-.144,0-.341-.049-.486-.049V213.95a1.849,1.849,0,0,0,.827-.389,4.21,4.21,0,0,0,1.12-1.511,11.925,11.925,0,0,0,.829-2.435,7.585,7.585,0,0,0,.194-2.24,2.444,2.444,0,0,0-.632-1.607A2.033,2.033,0,0,0,278.2,205.183Zm-.827.1a3.708,3.708,0,0,0-2,1.8,7.086,7.086,0,0,0-.924,4.384,3.059,3.059,0,0,0,.73,1.9,2.05,2.05,0,0,0,1.605.684,2.476,2.476,0,0,0,.587-.1v2.533a4.56,4.56,0,0,1-1.9-.535,3.772,3.772,0,0,1-1.605-1.655l-1.561,6.964h-4.043l3.118-14.123c.388-1.8.632-3.167.73-4.044h3.654l-.1,1.606a9.879,9.879,0,0,1,1.705-1.316v1.9Z" transform="translate(2808.484 1526.877)" fill="#32424e"/>
    <path id="Path_146" data-name="Path 146" d="M339.9,210.415a.615.615,0,0,0-.292-.049h-.438a6.106,6.106,0,0,0-1.705.194v-2.143c.535-.049,1.169-.049,1.8-.049h1.12a6.722,6.722,0,0,0,.194-1.121,2.917,2.917,0,0,0,.05-.632,1.143,1.143,0,0,0-.488-.876,1.811,1.811,0,0,0-1.12-.294,2.01,2.01,0,0,0-1.315.39c-.1.1-.194.145-.244.294V203.4a8.036,8.036,0,0,1,1.559-.1,7.24,7.24,0,0,1,3.9.829,3.2,3.2,0,0,1,1.461,2.533,3.859,3.859,0,0,1,0,1.072c-.05.341-.146.779-.246,1.219l-1.021,4.48c-.146.536-.194,1.072-.294,1.657-.048.583-.048,1.119-.048,1.7h-3.7v-.926c0-.34.048-.632.048-.974a4.787,4.787,0,0,1-1.655,1.511v-2.047a3.886,3.886,0,0,0,1.169-.926A6.316,6.316,0,0,0,339.9,210.415Zm-2.434.146a3.938,3.938,0,0,0-1.364.633,2.01,2.01,0,0,0-1.073,2,1.256,1.256,0,0,0,.44,1.023,1.37,1.37,0,0,0,1.023.341,2.186,2.186,0,0,0,.973-.195v2.046l-.1.049a4.351,4.351,0,0,1-2.141.535,4.146,4.146,0,0,1-2.825-.973,3.6,3.6,0,0,1-1.217-2.534,3.822,3.822,0,0,1,1.849-3.8,9.589,9.589,0,0,1,4.433-1.267v2.143Zm0-7.16v2.729a2.568,2.568,0,0,0-.39.973H333.23a3.669,3.669,0,0,1,1.655-2.825A6.7,6.7,0,0,1,337.466,203.4Z" transform="translate(2761.981 1526.466)" fill="#32424e"/>
    <path id="Path_147" data-name="Path 147" d="M384.495,221.9l3.214-4.871-2.338-13.347h3.995l1.12,9.159,5.163-9.159h3.8l-8.282,13.882-2.387,4.336Z" transform="translate(2722.551 1526.188)" fill="#32424e"/>
    <path id="Path_148" data-name="Path 148" d="M99.406,204.35a3.381,3.381,0,0,0-.973.144v-1.7a10.121,10.121,0,0,1,1.265-.051,5.784,5.784,0,0,1,3.7,1.121,4.477,4.477,0,0,1,1.605,3.214,9.542,9.542,0,0,1-.341,3.459,9.8,9.8,0,0,1-1.315,3.166,5.786,5.786,0,0,1-2.435,2.192,7.1,7.1,0,0,1-2.484.633v-1.7a3.584,3.584,0,0,0,1.071-.438,4.384,4.384,0,0,0,1.509-1.607A9.934,9.934,0,0,0,102.085,210a9.67,9.67,0,0,0,.294-2.728,3.275,3.275,0,0,0-.878-2.192A2.813,2.813,0,0,0,99.406,204.35Zm-.973.145a5.033,5.033,0,0,0-1.073.439,5.724,5.724,0,0,0-1.559,1.8,9.011,9.011,0,0,0-1.023,2.677,9.7,9.7,0,0,0-.244,2.778,2.932,2.932,0,0,0,.876,2,2.967,2.967,0,0,0,2.093.731,5.53,5.53,0,0,0,.927-.1v1.7c-.343,0-.731.049-1.122.049a5.425,5.425,0,0,1-3.749-1.217,4.427,4.427,0,0,1-1.607-3.312,9.348,9.348,0,0,1,.388-3.6,9.658,9.658,0,0,1,1.511-3.265,5.978,5.978,0,0,1,2.387-1.851,9.64,9.64,0,0,1,2.193-.534v1.7Z" transform="translate(2938.862 1526.882)" fill="#32424e"/>
    <path id="Path_149" data-name="Path 149" d="M144.442,212a1.686,1.686,0,0,0-.148.632.845.845,0,0,0,0,.488,1.433,1.433,0,0,0,.634,1.169,2.766,2.766,0,0,0,1.705.389,4.212,4.212,0,0,0,2.387-.586,1.743,1.743,0,0,0,.781-1.605,1.342,1.342,0,0,0-.539-1.024,9.706,9.706,0,0,0-2.093-1.169,10.68,10.68,0,0,1-2.874-1.753,2.53,2.53,0,0,1-.924-1.8,3.211,3.211,0,0,1,1.267-2.873,6.431,6.431,0,0,1,3.945-1.121,6.657,6.657,0,0,1,3.36.683,2.384,2.384,0,0,1,1.267,2v.488a4.736,4.736,0,0,1-.05.731h-2.387v-.731a1.393,1.393,0,0,0-.632-1.12,2.778,2.778,0,0,0-1.607-.39,3.043,3.043,0,0,0-1.9.536,1.472,1.472,0,0,0-.634,1.412,1.318,1.318,0,0,0,.538.925,9.6,9.6,0,0,0,2.143,1.217,11.041,11.041,0,0,1,3.069,1.852,3.046,3.046,0,0,1,.779,1.849,3.336,3.336,0,0,1-1.559,3.118,7.414,7.414,0,0,1-4.483,1.265,6.991,6.991,0,0,1-3.458-.779,2.848,2.848,0,0,1-1.364-2.24,1.869,1.869,0,0,1,0-.731c.05-.244.1-.535.146-.827h2.63v0Z" transform="translate(2902.108 1526.882)" fill="#32424e"/>
    <path id="Path_150" data-name="Path 150" d="M197.033,207.262q-.728.075-1.315.145c-.388,0-.779.049-1.12.049a3.577,3.577,0,0,1-2.143-.486,1.832,1.832,0,0,1-.779-1.561,5.616,5.616,0,0,1,.05-1.217c.048-.584.194-1.168.292-1.8l1.511-6.624h-2.436l.438-1.705h2.387l.682-3.02,2.581-.634-.777,3.654h2.873l-.388,1.705h-2.874l-1.461,6.917a5.457,5.457,0,0,0-.244,1.168,1.531,1.531,0,0,0-.05.632.833.833,0,0,0,.39.781,2.113,2.113,0,0,0,1.267.293,5.487,5.487,0,0,0,.779-.1,4.517,4.517,0,0,0,.779-.146Z" transform="translate(2865.54 1536)" fill="#32424e"/>
    <path id="Path_151" data-name="Path 151" d="M227.324,208.067h3.311c.05-.439.1-.779.1-1.023a1.355,1.355,0,0,0,0-.633,2.194,2.194,0,0,0-.829-1.655,3.448,3.448,0,0,0-2.093-.633c-.146,0-.341.049-.488.049v-1.606h.535a6.671,6.671,0,0,1,3.9.973,4.044,4.044,0,0,1,1.461,3.069,8.153,8.153,0,0,1,0,1.56,7.307,7.307,0,0,1-.244,1.7h-5.65v-1.8Zm0,8.28v-2a4.215,4.215,0,0,0,.827-.389,3.236,3.236,0,0,0,1.267-1.7h2.874a5.048,5.048,0,0,1-2.193,3.068A6.341,6.341,0,0,1,227.324,216.347Zm-3.41-8.28h3.41v1.8h-3.848a4.647,4.647,0,0,0-.244,1.121,6.99,6.99,0,0,0-.048.973,2.9,2.9,0,0,0,.876,1.9,3.229,3.229,0,0,0,2.143.683,2.845,2.845,0,0,0,1.12-.2v2a12.852,12.852,0,0,1-1.413.1,5.776,5.776,0,0,1-3.7-1.12,4.378,4.378,0,0,1-1.509-3.166,10.109,10.109,0,0,1,.341-3.507,12.084,12.084,0,0,1,1.315-3.312,5.8,5.8,0,0,1,2.288-2.044,6.625,6.625,0,0,1,2.68-.731v1.606a3.123,3.123,0,0,0-2,.973A5.161,5.161,0,0,0,223.914,208.067Z" transform="translate(2843.677 1527.013)" fill="#32424e"/>
  </g>
</svg>
