<svg xmlns="http://www.w3.org/2000/svg" viewBox="0 0 391.02 117.83"><defs><style>.cls-1{fill:#f3911b;}.cls-1,.cls-2{fill-rule:evenodd;}.cls-2{fill:#010101;}</style></defs><g id="Layer_2" data-name="Layer 2"><g id="Layer_1-2" data-name="Layer 1"><path class="cls-1" d="M242.58,92.15c-22.71,16.77-55.65,25.68-84,25.68A152,152,0,0,1,55.93,78.68c-2.12-1.92-.23-4.54,2.33-3.05,29.22,17,65.36,27.25,102.69,27.25a204.37,204.37,0,0,0,78.33-16c3.84-1.63,7.06,2.53,3.3,5.3"/><path class="cls-1" d="M252,81.36c-2.91-3.72-19.21-1.76-26.53-.89-2.22.27-2.57-1.67-.56-3.07,13-9.14,34.31-6.5,36.78-3.44s-.65,24.45-12.84,34.65c-1.87,1.56-3.66.73-2.82-1.35,2.74-6.84,8.88-22.18,6-25.9"/><path class="cls-2" d="M226,12.87V4a2.19,2.19,0,0,1,2.25-2.25h39.78A2.23,2.23,0,0,1,270.35,4V11.6c0,1.27-1.08,2.94-3,5.58L246.75,46.6c7.64-.18,15.74,1,22.68,4.88a4.07,4.07,0,0,1,2.12,3.46v9.47c0,1.31-1.43,2.82-2.93,2a45.82,45.82,0,0,0-42,.08c-1.38.74-2.83-.75-2.83-2.06v-9a10.72,10.72,0,0,1,1.48-6.1l23.88-34.25H228.32a2.22,2.22,0,0,1-2.3-2.24"/><path class="cls-2" d="M80.92,68.31H68.82a2.28,2.28,0,0,1-2.17-2V4.15A2.28,2.28,0,0,1,69,1.91H80.26A2.29,2.29,0,0,1,82.47,4V12.1h.22C85.63,4.26,91.16.6,98.62.6s12.31,3.66,15.7,11.5a17.87,17.87,0,0,1,30.73-4.7c3.84,5.23,3,12.81,3,19.47v39.2a2.29,2.29,0,0,1-2.33,2.24H133.67a2.27,2.27,0,0,1-2.17-2.23V33.15c0-2.62.23-9.15-.34-11.64-.9-4.18-3.61-5.36-7.11-5.36a8,8,0,0,0-7.23,5.1c-1.25,3.14-1.13,8.37-1.13,11.9V66.07a2.29,2.29,0,0,1-2.34,2.24H101.26a2.28,2.28,0,0,1-2.18-2.23V33.15c0-6.93,1.13-17.13-7.45-17.13S83.26,26,83.26,33.15V66.07a2.28,2.28,0,0,1-2.33,2.24"/><path class="cls-2" d="M304.59.6c18,0,27.68,15.43,27.68,35,0,18.95-10.73,34-27.68,34C287,69.61,277.37,54.19,277.37,35S287.08.6,304.59.6m.11,12.68c-8.92,0-9.49,12.15-9.49,19.74s-.11,23.79,9.38,23.79,9.83-13.08,9.83-21.05c0-5.23-.23-11.5-1.81-16.47-1.35-4.31-4.07-6-7.91-6"/><path class="cls-2" d="M355.56,68.31H343.51a2.28,2.28,0,0,1-2.18-2.23V3.94a2.28,2.28,0,0,1,2.32-2h11.23A2.3,2.3,0,0,1,357,3.65v9.5h.23C360.63,4.65,365.38.6,373.74.6c5.42,0,10.73,2,14.12,7.32,3.16,5,3.16,13.33,3.16,19.34V66.35a2.3,2.3,0,0,1-2.32,2H376.57a2.29,2.29,0,0,1-2.15-2V32.62c0-6.79.79-16.73-7.57-16.73a7.93,7.93,0,0,0-7,5c-1.69,3.79-1.92,7.58-1.92,11.76V66.07a2.32,2.32,0,0,1-2.36,2.24"/><path class="cls-2" d="M194.31,38.64c0,4.72.11,8.65-2.26,12.84-1.93,3.41-5,5.5-8.38,5.5-4.64,0-7.36-3.53-7.36-8.77,0-10.31,9.25-12.19,18-12.19Zm12.2,29.51a2.49,2.49,0,0,1-2.86.28c-4-3.34-4.74-4.88-6.93-8.06-6.65,6.76-11.35,8.79-20,8.79-10.19,0-18.11-6.28-18.11-18.86,0-9.82,5.32-16.5,12.91-19.78,6.56-2.88,15.73-3.4,22.75-4.19V24.76c0-2.88.23-6.29-1.47-8.78-1.47-2.22-4.3-3.14-6.79-3.14-4.62,0-8.72,2.36-9.73,7.27a2.56,2.56,0,0,1-2.1,2.22l-11.73-1.27a2.14,2.14,0,0,1-1.81-2.53C163.38,4.3,176.23,0,187.75,0c5.88,0,13.58,1.57,18.22,6,5.89,5.5,5.32,12.84,5.32,20.82V45.71c0,5.67,2.36,8.16,4.57,11.21.77,1.11.95,2.42,0,3.22-2.47,2.07-6.86,5.89-9.28,8Z"/><path class="cls-2" d="M35.66,38.64c0,4.72.12,8.65-2.26,12.84-1.93,3.41-5,5.5-8.38,5.5-4.64,0-7.36-3.53-7.36-8.77,0-10.31,9.25-12.19,18-12.19Zm12.2,29.51a2.49,2.49,0,0,1-2.86.28c-4-3.34-4.74-4.88-6.93-8.06-6.65,6.76-11.35,8.79-20,8.79C7.92,69.16,0,62.88,0,50.3c0-9.82,5.32-16.5,12.91-19.78,6.56-2.88,15.73-3.4,22.75-4.19V24.76c0-2.88.23-6.29-1.47-8.78-1.47-2.22-4.3-3.14-6.79-3.14-4.62,0-8.72,2.36-9.73,7.27a2.55,2.55,0,0,1-2.1,2.22L3.84,21.06A2.14,2.14,0,0,1,2,18.53C4.73,4.3,17.58,0,29.09,0,35,0,42.68,1.57,47.32,6c5.89,5.5,5.32,12.84,5.32,20.82V45.71c0,5.67,2.36,8.16,4.57,11.21.77,1.11.95,2.42,0,3.22-2.47,2.07-6.86,5.89-9.28,8Z"/></g></g></svg>