<svg xmlns="http://www.w3.org/2000/svg" width="39.999" height="46.956" viewBox="0 0 39.999 46.956">
    <defs>
        <style>
            .cls-1{fill:#ed4c14}
        </style>
    </defs>
    <g id="bill_1_" data-name="bill (1)" transform="translate(-37.925)">
        <g id="Group_37" data-name="Group 37" transform="translate(62.273 31.304)">
            <g id="Group_36" data-name="Group 36">
                <path id="Path_107" d="M311.234 341.333a7.826 7.826 0 1 0 7.826 7.826 7.835 7.835 0 0 0-7.826-7.826zm0 13.913a6.087 6.087 0 1 1 6.087-6.087 6.094 6.094 0 0 1-6.087 6.087z" class="cls-1" data-name="Path 107" transform="translate(-303.408 -341.333)"/>
            </g>
        </g>
        <g id="Group_39" data-name="Group 39" transform="translate(65.751 35.652)">
            <g id="Group_38" data-name="Group 38">
                <path id="Path_108" d="M349.717 388.943a.87.87 0 0 0-1.225.111l-3.738 4.486-1.936-1.935a.869.869 0 0 0-1.23 1.23l2.609 2.609a.869.869 0 0 0 .615.255h.039a.87.87 0 0 0 .629-.312l4.348-5.217a.87.87 0 0 0-.111-1.227z" class="cls-1" data-name="Path 108" transform="translate(-341.334 -388.741)"/>
            </g>
        </g>
        <g id="Group_41" data-name="Group 41" transform="translate(37.925)">
            <g id="Group_40" data-name="Group 40">
                <path id="Path_109" d="M70.1 0H38.8a.87.87 0 0 0-.87.87v43.478a.87.87 0 0 0 1.317.746l3.847-2.308 3.01 2.258a.869.869 0 0 0 .969.05l3.847-2.308 3.01 2.258a.869.869 0 0 0 .969.05l4.348-2.609a.869.869 0 0 0-.895-1.491L54.5 43.3l-3.01-2.258a.869.869 0 0 0-.969-.05L46.674 43.3l-3.01-2.258a.869.869 0 0 0-.969-.05l-3.031 1.818V1.739h29.565V28.7a.87.87 0 0 0 1.739 0V.87A.87.87 0 0 0 70.1 0z" class="cls-1" data-name="Path 109" transform="translate(-37.925)"/>
            </g>
        </g>
        <g id="Group_43" data-name="Group 43" transform="translate(42.273 7.826)">
            <g id="Group_42" data-name="Group 42">
                <path id="Path_110" d="M90.55 85.333H86.2a.87.87 0 1 0 0 1.739h4.35a.87.87 0 0 0 0-1.739z" class="cls-1" data-name="Path 110" transform="translate(-85.333 -85.333)"/>
            </g>
        </g>
        <g id="Group_45" data-name="Group 45" transform="translate(58.795 12.174)">
            <g id="Group_44" data-name="Group 44">
                <path id="Path_111" d="M270.7 132.741h-4.348a.87.87 0 0 0 0 1.739h4.348a.87.87 0 0 0 0-1.739z" class="cls-1" data-name="Path 111" transform="translate(-265.482 -132.741)"/>
            </g>
        </g>
        <g id="Group_47" data-name="Group 47" transform="translate(58.795 16.522)">
            <g id="Group_46" data-name="Group 46">
                <path id="Path_112" d="M270.7 180.148h-4.348a.87.87 0 0 0 0 1.739h4.348a.87.87 0 0 0 0-1.739z" class="cls-1" data-name="Path 112" transform="translate(-265.482 -180.148)"/>
            </g>
        </g>
        <g id="Group_49" data-name="Group 49" transform="translate(58.795 20.87)">
            <g id="Group_48" data-name="Group 48">
                <path id="Path_113" d="M270.7 227.556h-4.348a.87.87 0 0 0 0 1.739h4.348a.87.87 0 0 0 0-1.739z" class="cls-1" data-name="Path 113" transform="translate(-265.482 -227.556)"/>
            </g>
        </g>
        <g id="Group_51" data-name="Group 51" transform="translate(58.795 25.217)">
            <g id="Group_50" data-name="Group 50">
                <path id="Path_114" d="M270.7 274.963h-4.348a.87.87 0 0 0 0 1.739h4.348a.87.87 0 1 0 0-1.739z" class="cls-1" data-name="Path 114" transform="translate(-265.482 -274.963)"/>
            </g>
        </g>
        <g id="Group_53" data-name="Group 53" transform="translate(58.795 29.565)">
            <g id="Group_52" data-name="Group 52">
                <path id="Path_115" d="M270.7 322.37h-4.348a.87.87 0 0 0 0 1.739h4.348a.87.87 0 1 0 0-1.739z" class="cls-1" data-name="Path 115" transform="translate(-265.482 -322.37)"/>
            </g>
        </g>
        <g id="Group_55" data-name="Group 55" transform="translate(42.273 12.174)">
            <g id="Group_54" data-name="Group 54">
                <path id="Path_116" d="M98.376 132.741H86.2a.87.87 0 1 0 0 1.739h12.176a.87.87 0 1 0 0-1.739z" class="cls-1" data-name="Path 116" transform="translate(-85.333 -132.741)"/>
            </g>
        </g>
        <g id="Group_57" data-name="Group 57" transform="translate(42.273 16.522)">
            <g id="Group_56" data-name="Group 56">
                <path id="Path_117" d="M98.376 180.148H86.2a.87.87 0 1 0 0 1.739h12.176a.87.87 0 1 0 0-1.739z" class="cls-1" data-name="Path 117" transform="translate(-85.333 -180.148)"/>
            </g>
        </g>
        <g id="Group_59" data-name="Group 59" transform="translate(42.273 20.87)">
            <g id="Group_58" data-name="Group 58">
                <path id="Path_118" d="M98.376 227.556H86.2a.87.87 0 1 0 0 1.739h12.176a.87.87 0 1 0 0-1.739z" class="cls-1" data-name="Path 118" transform="translate(-85.333 -227.556)"/>
            </g>
        </g>
        <g id="Group_61" data-name="Group 61" transform="translate(42.273 25.217)">
            <g id="Group_60" data-name="Group 60">
                <path id="Path_119" d="M98.376 274.963H86.2a.87.87 0 1 0 0 1.739h12.176a.87.87 0 1 0 0-1.739z" class="cls-1" data-name="Path 119" transform="translate(-85.333 -274.963)"/>
            </g>
        </g>
        <g id="Group_63" data-name="Group 63" transform="translate(42.273 29.565)">
            <g id="Group_62" data-name="Group 62">
                <path id="Path_120" d="M98.376 322.37H86.2a.87.87 0 1 0 0 1.739h12.176a.87.87 0 1 0 0-1.739z" class="cls-1" data-name="Path 120" transform="translate(-85.333 -322.37)"/>
            </g>
        </g>
    </g>
</svg>
