<svg xmlns="http://www.w3.org/2000/svg" viewBox="0 0 248.72 248.72"><defs><style>.cls-1{fill:#60388d;}</style></defs><g id="Layer_2" data-name="Layer 2"><g id="Layer_1-2" data-name="Layer 1"><g id="layer1"><path id="path3008" class="cls-1" d="M124.36,0A124.36,124.36,0,1,0,248.72,124.36,124.35,124.35,0,0,0,124.36,0Zm-.06,15.33A109.17,109.17,0,1,1,15.14,124.5,109.17,109.17,0,0,1,124.3,15.33Z"/><path id="path2998" class="cls-1" d="M62.38,81.85v84.67H96.83c15.66,0,27.69-9.78,27.69-25.26a21.09,21.09,0,0,0-10.66-18.87A20.31,20.31,0,0,0,122,105.55c0-13.5-10.65-23.7-26.37-23.7ZM81.43,98.4H91.61c7.23,0,10.39,3.72,10.39,8.31,0,5-3.57,8.13-9.91,8.13H81.43V98.4Zm0,33.4H91.61c7.23,0,10.39,3.72,10.39,8.32,0,5-3.57,8.13-9.91,8.13H81.43V131.8Z"/><path id="path3000" class="cls-1" d="M150.07,166.25v-65H131V81.69h59.25v19.57H170.43v65Z"/></g></g></g></svg>