<svg xmlns="http://www.w3.org/2000/svg" width="54" height="59" viewBox="0 0 54 59">
  <g id="cancelMob" transform="translate(-180 -573)">
    <g id="Rectangle_78" data-name="Rectangle 78" transform="translate(188 573)" fill="#fff" stroke="#32424e" stroke-width="1">
      <rect width="38" height="38" rx="12" stroke="none"/>
      <rect x="0.5" y="0.5" width="37" height="37" rx="11.5" fill="none"/>
    </g>
    <text id="Overview" transform="translate(180 629)" fill="#32424e" font-size="12" font-family="Roboto-Regular, Roboto"><tspan x="0" y="0">ANNULLA</tspan></text>
    <g id="close" transform="translate(201 586)">
      <path id="Path_133" data-name="Path 133" d="M6.639,5.642l4.436-4.436a.705.705,0,0,0-1-1L5.641,4.644,1.2.208a.705.705,0,1,0-1,1L4.643,5.642.207,10.078a.705.705,0,1,0,1,1L5.641,6.639l4.436,4.436a.705.705,0,0,0,1-1Z" transform="translate(0 -0.001)" fill="#32424e"/>
    </g>
  </g>
</svg>
