<svg xmlns="http://www.w3.org/2000/svg" width="75.198" height="29.933" viewBox="0 0 75.198 29.933">
  <path id="coop" d="M66.76,3.974a11.452,11.452,0,0,0-8.619,3.95q-.2-.221-.406-.433a11.3,11.3,0,0,0-8.1-3.4h-.006A11.383,11.383,0,0,0,40.64,8.52a11.728,11.728,0,0,0-.9-1.029,11.3,11.3,0,0,0-8.1-3.4h-.006A11.514,11.514,0,0,0,20.2,15.4l-.054-.013c0,.093.012.184.012.278a5.557,5.557,0,1,1-11.112,0,5.554,5.554,0,0,1,5.562-5.632,5.492,5.492,0,0,1,5.24,3.771l-.5-8.774a11.237,11.237,0,0,0-4.74-1.051,11.694,11.694,0,0,0,0,23.386,11.425,11.425,0,0,0,8.566-3.907q.176.2.363.385a11.3,11.3,0,0,0,8.1,3.4h.006a11.382,11.382,0,0,0,8.989-4.427,11.716,11.716,0,0,0,.9,1.029,11.3,11.3,0,0,0,8.1,3.4h.006a11.277,11.277,0,0,0,5.82-1.616l-.039,8.287h6.006V14.815a5.369,5.369,0,0,1,5.332-4.786,5.544,5.544,0,0,1,5.55,5.632,5.552,5.552,0,0,1-10.683,2.212c.345,2.892.687,5.809,1.012,8.7a11.265,11.265,0,0,0,4.121.786,11.694,11.694,0,0,0,0-23.386ZM37.285,15.666a5.719,5.719,0,0,1-5.645,5.777h0a5.551,5.551,0,0,1-3.976-1.674,5.8,5.8,0,0,1-1.671-4.1v-.011a5.719,5.719,0,0,1,5.645-5.777h0a5.551,5.551,0,0,1,3.976,1.674,5.8,5.8,0,0,1,1.671,4.1Zm18,0a5.719,5.719,0,0,1-5.645,5.777h0a5.551,5.551,0,0,1-3.977-1.674,5.8,5.8,0,0,1-1.671-4.1v-.011a5.719,5.719,0,0,1,5.645-5.777h0a5.551,5.551,0,0,1,3.976,1.674,5.8,5.8,0,0,1,1.671,4.1Z" transform="translate(-3.079 -3.974)" fill="#ed1c24"/>
</svg>
