<svg xmlns="http://www.w3.org/2000/svg" width="73.242" height="80" viewBox="0 0 73.242 80">
  <path id="mixEnergy03-1" d="M105.11,33.631c-.221-.276-5.915-6.467-12.658-6.467a10.005,10.005,0,0,0-2.211.221A13.644,13.644,0,0,0,92.563,19.7c-.055-9.01-8.568-16.8-8.9-17.136a1.051,1.051,0,0,0-.719-.276h-.774a.72.72,0,0,0-.719.276C81.01,2.9,72.5,10.691,72.442,19.7a13.264,13.264,0,0,0,2.211,7.462,8.587,8.587,0,0,0-2.045-.221c-6.633,0-12.382,6.3-12.658,6.467a1.568,1.568,0,0,0-.221.719v.553A.72.72,0,0,0,60,35.4c.221.276,5.915,6.467,12.658,6.467a10.66,10.66,0,0,0,7.96-3.759l.94-.995V67.681c0,4.809-1.05,8.236-3.261,10.282a6.876,6.876,0,0,1-4.754,1.879H54.09a6.77,6.77,0,0,1-4.864-1.824c-2.377-2.543-2.266-6.8-2.266-6.854v-11.5h3.372c2.709,0,4.809-1.879,4.809-4.146V44.465h.774a3.538,3.538,0,0,0,0-7.075H52.044V27.44a1.134,1.134,0,0,0-2.266,0v9.95h-7.9V27.44a1.134,1.134,0,0,0-2.266,0v9.95H35.738a3.538,3.538,0,0,0,0,7.075h.774V55.631c0,2.322,2.211,4.146,4.809,4.146h3.372v11.5c0,.221-.221,5.251,2.874,8.457a8.371,8.371,0,0,0,6.412,2.543H73.6a9.2,9.2,0,0,0,6.025-2.487c2.6-2.487,3.98-6.467,3.98-11.94V37.5l.94.995a10.451,10.451,0,0,0,7.96,3.648c6.633,0,12.382-6.3,12.658-6.467a1.051,1.051,0,0,0,.276-.719V34.4A1.091,1.091,0,0,0,105.11,33.631ZM35.793,42.254a1.3,1.3,0,0,1-1.327-1.271v-.055A1.345,1.345,0,0,1,35.793,39.6H55.914a1.327,1.327,0,0,1,0,2.653Zm5.583,15.312a2.39,2.39,0,0,1-2.6-1.99V44.465H52.929V55.631c0,1.05-1.216,1.99-2.6,1.99H41.376ZM71.723,33.52a1.134,1.134,0,0,0,0,2.266h8.236l-1,1.05a8.62,8.62,0,0,1-6.357,2.985c-4.754,0-9.176-4.035-10.5-5.362,1.327-1.327,5.8-5.362,10.5-5.362a8.71,8.71,0,0,1,6.357,2.985l1.327,1.492Zm11.94-2.432V18.43a1.134,1.134,0,1,0-2.266-.055V31.143l-2.487-2.266c-2.874-2.709-4.367-5.8-4.312-9.231.166-7.075,6.412-13.653,7.96-15.091,1.548,1.492,7.849,8.07,7.9,15.2a12.25,12.25,0,0,1-4.312,9.231Zm8.9,8.9A8.71,8.71,0,0,1,86.206,37L85.1,35.731h8.4a1.134,1.134,0,0,0,0-2.266H85.1l1.106-1.271a8.6,8.6,0,0,1,6.357-3.04c4.754,0,9.176,4.035,10.5,5.362-1.327,1.437-5.749,5.472-10.5,5.472Z" transform="translate(-32.2 -2.275)" fill="#fff"/>
</svg>
