<svg xmlns="http://www.w3.org/2000/svg" width="200" height="56.667" viewBox="0 0 200 56.667">
  <g id="expedia" transform="translate(-11426 -1079)">
    <path id="Path_4766" data-name="Path 4766" d="M103.495,53.372H97.214l-5.3-6.562-5.438,6.534a.054.054,0,0,1-.054,0H81.481a.082.082,0,0,1-.073,0,.054.054,0,0,1,0-.082l7.885-9.679-7.785-9.6V33.9c0-.091,0,0,.073,0H87.8a.063.063,0,0,1,.054,0l4.695,5.828,4.8-5.864a.054.054,0,0,1,.054,0h5.066a.136.136,0,0,1,.072,0v.091l-7.4,8.891,8.447,10.4a.073.073,0,0,1,0,.082.082.082,0,0,1-.063,0Z" transform="translate(11418.648 1069.96)" fill="#fff"/>
    <path id="Path_4767" data-name="Path 4767" d="M150.8,44.781a.136.136,0,0,1-.072,0h-14.22c.3,3.317,2.447,5.2,5.927,5.2,2.148,0,4.414-.743,7.631-2.447.054,0,.118,0,.118.073v4.423a.082.082,0,0,1-.054.063,23.428,23.428,0,0,1-8.347,2.112h0a10.232,10.232,0,0,1-10.568-10.6A10.232,10.232,0,0,1,141.787,33c5.547,0,9.172,3.725,9.172,8.9C150.959,42.733,150.8,44.691,150.8,44.781Zm-9.063-7.54a5.06,5.06,0,0,0-5.175,4.532h9.407v-.19a4.232,4.232,0,0,0-4.187-4.377Z" transform="translate(11413.979 1070.04)" fill="#fff"/>
    <path id="Path_4768" data-name="Path 4768" d="M181.807,52.308a.073.073,0,0,1-.082-.082V32.85a.091.091,0,0,1,.063-.082h5.139a.073.073,0,0,1,.054.082V52.227c0,.054,0,.082-.063.082Zm2.556-23.564a1.2,1.2,0,1,1,.018.045Z" transform="translate(11409.297 1071.023)" fill="#fff"/>
    <path id="Path_4769" data-name="Path 4769" d="M116.685,33a13.649,13.649,0,0,0-4.45.788h-5.112a.072.072,0,0,0-.063.082V65.627a11.782,11.782,0,0,0,5.266-2.075V53.845a24.676,24.676,0,0,0,3.3.3c7.006,0,11.537-4.187,11.537-10.685C127.162,37.287,122.848,33,116.685,33Zm-1.4,17.419a11.347,11.347,0,0,1-2.964-.426V37.532a11.066,11.066,0,0,1,3.5-.607c3.544,0,5.936,2.628,5.936,6.534.009,4.205-2.538,6.924-6.471,6.924Z" transform="translate(11416.243 1070.04)" fill="#fff"/>
    <path id="Path_4770" data-name="Path 4770" d="M170.025,22.3V32.437a15.226,15.226,0,0,0-4.133-.634A10.441,10.441,0,0,0,155.18,42.5c0,6.072,4.06,10.477,9.634,10.477a12.416,12.416,0,0,0,5.873-1.568v1.731a11.51,11.51,0,0,0,4.613-1.949V20.22A11.419,11.419,0,0,0,170.025,22.3Zm0,25.268a9.634,9.634,0,0,1-4.368,1.242c-3.181,0-5.075-2.248-5.075-5.991,0-4.35,2.429-7.151,6.172-7.151a7.794,7.794,0,0,1,3.272.807Z" transform="translate(11411.735 1071.237)" fill="#fff"/>
    <path id="Path_4771" data-name="Path 4771" d="M210.925,33.526a.217.217,0,0,0-.217-.218h-4.151a.227.227,0,0,0-.227.218v.707h-.109A12.58,12.58,0,0,0,201.1,33c-5.746,0-10.25,4.758-10.25,10.876s4.033,10.3,10.033,10.3a6.6,6.6,0,0,0,5.583-2.32v2.483a11.918,11.918,0,0,0,4.459-1.958ZM205.65,48.733a8.347,8.347,0,0,1-4.06,1.314c-3.39,0-5.438-2.22-5.438-5.991,0-4.278,2.393-7.142,5.954-7.142a7.921,7.921,0,0,1,3.535,1.115Z" transform="translate(11408.393 1070.04)" fill="#fff"/>
    <path id="Path_4772" data-name="Path 4772" d="M65.254,47.266H78.105a11.637,11.637,0,0,1-1.813,4.84H62.925a3.181,3.181,0,0,1-3.145-2.873.217.217,0,0,1,0-.072V23.775a.172.172,0,0,1,0-.063,3.19,3.19,0,0,1,3.145-2.891H78.105a11.891,11.891,0,0,1-1.813,4.867H65.254v6.924H76.2a.073.073,0,0,1,.073.073V37.5a.082.082,0,0,1-.073.073H65.254Z" transform="translate(11420.674 1071.181)" fill="#fff"/>
    <path id="Path_4773" data-name="Path 4773" d="M47.74,50.66a2.465,2.465,0,1,0,2.411,2.465A2.393,2.393,0,0,0,47.74,50.66Zm0,4.686a2.22,2.22,0,1,1,2.048-2.22,2.075,2.075,0,0,1-2.048,2.22Z" transform="translate(11422.037 1068.385)" fill="#fff"/>
    <path id="Path_4774" data-name="Path 4774" d="M49.046,52.614c0-.6-.363-.834-1.06-.834H46.88V54.7h.48v-1.26H47.8l.761,1.26H49.1l-.807-1.278a.752.752,0,0,0,.752-.807Zm-1.722.417v-.906H47.9c.308,0,.671,0,.671.408s-.335.48-.716.48Z" transform="translate(11421.881 1068.28)" fill="#fff"/>
    <path id="Path_4775" data-name="Path 4775" d="M217.45,32.23a2.465,2.465,0,1,0,2.411,2.51,2.384,2.384,0,0,0-2.411-2.51Zm0,4.677a2.22,2.22,0,1,1,2.079-2.216A2.22,2.22,0,0,1,217.45,36.906Z" transform="translate(11406.137 1070.112)" fill="#fff"/>
    <path id="Path_4776" data-name="Path 4776" d="M218.777,34.174c0-.58-.363-.834-1.06-.834h-1.1v2.918h.471V35.008h.444l.761,1.251h.48l-.807-1.287a.743.743,0,0,0,.807-.8Zm-1.722.417v-.906h.607c.308,0,.671,0,.671.417s-.335.471-.707.471Z" transform="translate(11405.979 1070.008)" fill="#fff"/>
    <path id="Path_4777" data-name="Path 4777" d="M26.853,24.343l-.906-2.655L17.989,11.1l1.432-.353L33.088,22.53l8.048-2.3a11.3,11.3,0,0,1,2.837-.29,23.21,23.21,0,0,0-44,13.3L19.24,26.545Z" transform="translate(11426.303 1072.525)" fill="#fff"/>
    <path id="Path_4778" data-name="Path 4778" d="M44.869,23.68A13.178,13.178,0,0,1,42.1,25.058l-8.066,2.3L28.646,44.625l-1.387.462L28.393,31.9l-.634-2.719-7.55,2.13L.27,36.015a23.21,23.21,0,1,0,44.6-12.335Z" transform="translate(11426.249 1070.913)" fill="#fff"/>
  </g>
</svg>
