<svg xmlns="http://www.w3.org/2000/svg" xmlns:xlink="http://www.w3.org/1999/xlink" viewBox="0 0 60.25 60.25"><defs><style>.cls-1{fill:#1e1e1e;}.cls-2{fill:url(#Sfumatura_senza_nome_5);}.cls-3{fill:url(#Sfumatura_senza_nome_5-2);}.cls-4{fill:url(#Sfumatura_senza_nome_5-3);}.cls-5{fill:url(#Sfumatura_senza_nome_8);}.cls-6{fill:url(#Sfumatura_senza_nome_8-2);}.cls-7{fill:url(#Sfumatura_senza_nome_8-3);}.cls-8{fill:#fff;}</style><linearGradient id="Sfumatura_senza_nome_5" x1="-252.68" y1="440.45" x2="-252.68" y2="441.3" gradientTransform="matrix(14.83, 0, 0, -38.65, 3778.25, 17058.36)" gradientUnits="userSpaceOnUse"><stop offset="0" stop-color="#ef7d00"/><stop offset="1" stop-color="#fd0"/></linearGradient><linearGradient id="Sfumatura_senza_nome_5-2" x1="-255.14" y1="440.45" x2="-255.14" y2="441.3" gradientTransform="matrix(17.97, 0, 0, -38.65, 4633.23, 17060.16)" xlink:href="#Sfumatura_senza_nome_5"/><linearGradient id="Sfumatura_senza_nome_5-3" x1="-254.68" y1="440.45" x2="-254.68" y2="441.3" gradientTransform="matrix(17.42, 0, 0, -38.65, 4449.36, 17057.91)" xlink:href="#Sfumatura_senza_nome_5"/><linearGradient id="Sfumatura_senza_nome_8" x1="-262.39" y1="439.88" x2="-262.39" y2="440.4" gradientTransform="matrix(34.57, 0, 0, -38.65, 9084.38, 17058.36)" gradientUnits="userSpaceOnUse"><stop offset="0" stop-color="#bcbcbb"/><stop offset="1" stop-color="#fff"/></linearGradient><linearGradient id="Sfumatura_senza_nome_8-2" x1="-247.03" y1="439.88" x2="-247.03" y2="440.4" gradientTransform="matrix(6.8, 0, 0, -38.65, 1709.35, 17058.36)" xlink:href="#Sfumatura_senza_nome_8"/><linearGradient id="Sfumatura_senza_nome_8-3" x1="-260.05" y1="439.88" x2="-260.05" y2="440.4" gradientTransform="matrix(19.46, 0, 0, -38.65, 5099.39, 17058.36)" xlink:href="#Sfumatura_senza_nome_8"/></defs><g id="Livello_2" data-name="Livello 2"><g id="Livello_1-2" data-name="Livello 1"><g id="Livello_2-2" data-name="Livello 2"><g id="Livello_1-2-2" data-name="Livello 1-2"><rect class="cls-1" width="60.25" height="60.25" rx="5.13"/></g><g id="Group_1411" data-name="Group 1411"><path id="Path_3407" data-name="Path 3407" class="cls-2" d="M23.19,35.31H29.8V21.75h5.57V16.23H29.8v-8h7.51V2.66H23.19Z"/><path id="Path_3408" data-name="Path 3408" class="cls-3" d="M53.24,17.84c1.56-.58,3.24-2,3.24-6.44V10.13c0-5.06-2.72-7.47-8.55-7.47h-8V35.31h8.42c6.22,0,8.68-2.76,8.68-8.5V24.16C57.13,19.68,54.8,18.41,53.24,17.84ZM46.38,7.61h1.16c2.07,0,2.72.92,2.72,3v1.73c0,2.53-.78,3.22-3,3.22h-.9Zm4.14,19.31c0,2.42-.52,3.45-2.85,3.45H46.38v-10h.9c2.72,0,3.24,1,3.24,3.56Z"/><path id="Path_3409" data-name="Path 3409" class="cls-4" d="M19.82,11.28c0-3.22-.26-8.62-8-8.62S3.24,6.11,3.24,10.13V26.81c0,5.28,1.43,8.5,6.74,8.5h9.84V18.53h-8v5.06H14v3.22c0,2.64-.52,3.79-2.07,3.79-1.3,0-2.08-.81-2.08-3V9.79A2,2,0,0,1,11.93,8,2,2,0,0,1,14,9.79h0V14.5h5.83V11.28Z"/></g><g id="Group_1412" data-name="Group 1412"><path id="Path_3410" data-name="Path 3410" class="cls-5" d="M18.86,50.76c-.49-4.24-1.29-9.63-1.86-13.59H12.62c-.56,4.25-1.94,13.59-1.94,13.59L8.41,37.17H4.28L8.33,57.59h4.29l1.86-11.72h.16l2,11.72h4.21l4-20.42H21Z"/><rect id="Rectangle_536" data-name="Rectangle 536" class="cls-6" x="26.55" y="37.17" width="4.05" height="20.42"/><path id="Path_3411" data-name="Path 3411" class="cls-7" d="M40.73,37.17l.4,12.66h-.08L37.81,37.17H33V57.59h4c0-3.23-.16-10.78-.32-13.15h.08c.16.64,3.89,13.15,3.89,13.15h4V37.17Z"/></g><path id="Path_3419" data-name="Path 3419" class="cls-8" d="M56.22,56.46a.91.91,0,0,1-.33.72,1.19,1.19,0,0,1-.8.29h-.36v-.64h.36a.41.41,0,0,0,.3-.1.36.36,0,0,0,.12-.27V55a.32.32,0,0,0,0-.14.31.31,0,0,0-.09-.11.5.5,0,0,0-.14-.08.32.32,0,0,0-.16,0H53.4a.48.48,0,0,0-.34.14l-2.72,2.4a1.24,1.24,0,0,1-.86.32H47.79a1.14,1.14,0,0,1-.78-.29.91.91,0,0,1-.33-.72V55a.93.93,0,0,1,.33-.7,1.11,1.11,0,0,1,.78-.31h.38v.64h-.38a.48.48,0,0,0-.28.1.35.35,0,0,0-.11.27v1.48a.35.35,0,0,0,.11.27.48.48,0,0,0,.28.1h1.69a.58.58,0,0,0,.36-.12l2.7-2.42A1.26,1.26,0,0,1,53.4,54h1.69a1.09,1.09,0,0,1,.8.3.87.87,0,0,1,.33.7Zm0-4.62H47.39v1.43h-.71V49.78h.71V51.2h8.83Zm0-3.78a.91.91,0,0,1-.33.72,1.14,1.14,0,0,1-.8.29h-7.3a1.14,1.14,0,0,1-.78-.29.91.91,0,0,1-.33-.72V46.58a.91.91,0,0,1,.15-.5.93.93,0,0,1,.41-.37,1.17,1.17,0,0,1,.55-.13h7.3a1.13,1.13,0,0,1,.81.3.89.89,0,0,1,.32.7Zm-1.13-1.85h-7.3a.39.39,0,0,0-.27.11.31.31,0,0,0-.12.26v1.48a.33.33,0,0,0,.12.27.38.38,0,0,0,.27.1h7.3a.41.41,0,0,0,.3-.1.36.36,0,0,0,.12-.27V46.58a.35.35,0,0,0,0-.14.31.31,0,0,0-.09-.11.5.5,0,0,0-.14-.08.29.29,0,0,0-.16,0Zm1.13-2v.64H46.68V42.38a.87.87,0,0,1,.33-.71,1.15,1.15,0,0,1,.78-.3h4.12a1.16,1.16,0,0,1,.77.29,1.12,1.12,0,0,1,.78-.29h2.76V42H53.46a.45.45,0,0,0-.3.1.36.36,0,0,0-.12.27v1.85Zm-8.83-1.85v1.85h4.93V42.38a.29.29,0,0,0-.13-.26.41.41,0,0,0-.28-.11H47.79a.43.43,0,0,0-.28.11A.34.34,0,0,0,47.39,42.38Zm8.12-5.2h.71v3.49H46.68V37.18h.71V40h2.47V38.61h.71V40H55.5Z"/></g></g></g></svg>