<svg xmlns="http://www.w3.org/2000/svg" viewBox="0 0 124.18 124.18"><defs><style>.cls-1{fill:#f7c425;}.cls-2{fill:#1d1d1b;}</style></defs><g id="Livello_2" data-name="Livello 2"><g id="Livello_2-2" data-name="Livello 2"><circle class="cls-1" cx="62.09" cy="62.09" r="62.09"/><path class="cls-2" d="M51.57.77h0l.67-.11h0Z"/><path class="cls-2" d="M92.33,70.92l-.66,0a2.48,2.48,0,0,1-1.76-.15c-.41-.92-.41-.92-.41-1.3l-.33-.18a3.41,3.41,0,0,1-.17-.9c-2.85-2.36-5.3-4.4-4.72-6.53v-.76a2.11,2.11,0,0,0-.22-.74c0-.07-4.73-8.91-4.76-10.46-.47-.38-1.11-.44-1.57-.83l-.46,0-.69.35h-.19c-2.78-.61-5.3-2.19-8.25-2.12-.06,2.21-.06,2.21-.23,2.46l-.37.05H67c-.63-.12-.88-.85-1.51-1a5.27,5.27,0,0,1-2.05-.35c-.33-1.31-2.32-1.37-2.35-1.37-1,0-1,0-2.12-3.68.19-.17.19-.17.93-.44l-.1-.37c-.37-.1-.7-.29-1.07-.4-2.63.13-2.63.13-3.84.81-.72-.61-1.91-1.63-3.21-.18l-1.84-.06c-.07.13-.07.13-2.25,1.18h-.25c-.74-.21-1.61.1-2.23-.57l-.47-.06a4.62,4.62,0,0,0-.43,1.4c-.35.23-.45.31-1.38.19-.07.54-.14,1.08-.2,1.63a2.39,2.39,0,0,0-1.42.25c-.22.86-.5,1.71-.64,2.59,0,.23-.05.47-.07.7l-1.1,0a2.35,2.35,0,0,1-2,1.76c-.7,1.29-1.75,2.39-2.15,3.85l-.33,0-.26.05-.4,0c-.13,2.28-.24,2.32-1.13,2.67,0,.09-.09.23-.13.33a1.26,1.26,0,0,0,.14.78c1.36.29,1.36.29,1.48.57-.44.85-.44.85-.48,3.41v.75c0,.09,0,.09-.72.75,0,.5.23,1,.33,1.47v.42c.06,1.84,3,3.64,3,3.65,0,1.1,0,1.89,2.34,2.45a2.68,2.68,0,0,1,.1,1.08c2.09,1.94,3.33,1.72,3.33,1.72.1-.22.22-.5.31-.72.46-.07.93.12,1.4,0h.49c.37,0,.74,0,1.11,0,.29.75.94.62,2.53.32.39-1,.78-.95,2.42-.74H51a1.89,1.89,0,0,1,2.16-.39c.33,1.68.66,1.76,1.35,1.93l3.38.11c0,.41,0,.81-.09,1.45a27.43,27.43,0,0,1-.72,3.68H56.7c0,.11-.11.24-.15.35,2.59,1.45,2.66,4.5,4.13,6.65l-.1.33c0,.12,0,.24,0,.36.06.7.12.73.51.91,0,2-1.72,3.44-1.77,5.43,0,1.08.07,1.14.7,1.51.1,1,.13,1.33,1,1.84.32,1.47.32,1.47.52,1.71l-.06,1.57a14.1,14.1,0,0,0,2.06,4.32c-.06.4-.08.5.26,1a.76.76,0,0,1-.1.22,1.76,1.76,0,0,0-.48.5l.27.2h.27c-.05.45-.06.52.47.79l1.38,0a4.25,4.25,0,0,1,1.09-.28,6.45,6.45,0,0,0,1.9-.18l.12-.32c1.56-.23,1.56-.23,1.76-.7.05,0,4.48-2.21,4-4.6,0,0,2-1.17,2.8-1.51.16-.7.16-.7-.06-3.06,2-1.6,4.65-2.29,6-4.73,0-.17.09-.35.17-.66a1.89,1.89,0,0,0,0-.75,9.48,9.48,0,0,0,.34-2.23c-.75-1.15.21-2.38-.17-3.54l0-.18c2-6.82,10.89-8.16,12.26-15.51a1,1,0,0,0-.24-.89C94.38,70.06,93.57,71.4,92.33,70.92Z"/><path class="cls-2" d="M49,1.28h-.07l-.2.05h0Z"/><path class="cls-2" d="M118.07,87.13l.07,0c-.07.14-.13.28-.18.41H118a1.69,1.69,0,0,1-.12.34.35.35,0,0,0,0,.14h0a1,1,0,0,0,.14-.21s0-.07.1-.07-.11.23-.14.35l0,0h0a3.89,3.89,0,0,1-.19.42h0v0c0-.12.1-.24.16-.36L118.5,87s.1-.25.12-.33a1.59,1.59,0,0,1-.45.27Z"/><path class="cls-2" d="M56.49.15h0l.24,0h0Z"/><path class="cls-2" d="M51.44.82l-.23,0A4.21,4.21,0,0,1,51.7.77Z"/><path class="cls-2" d="M46.52,1.87l.39-.11.42-.1h-.08l-.32.09-.12,0L46.13,2,45.9,2l.61-.16Z"/><path class="cls-2" d="M41,3.58l.12,0-.17,0Z"/><polygon class="cls-2" points="44.19 2.52 43.46 2.74 42.72 2.98 42.75 2.98 42.49 3.07 42.59 3.05 42.59 3.05 44.36 2.46 44.19 2.52"/><path class="cls-2" d="M51.15.84l-.44.08.14,0Z"/><polygon class="cls-2" points="50.42 0.98 50.59 0.95 50.5 0.96 50.42 0.98"/><path class="cls-2" d="M41.12,3.54l0,0,.19-.06Z"/><path class="cls-2" d="M123.25,53.55h0Z"/><path class="cls-2" d="M115.6,31l.12.2c.64,1.2,1.45,2.65,2,3.81a39,39,0,0,0-2.11-4S115.61,31,115.6,31Z"/><path class="cls-2" d="M48.39,1.41l-.12,0,.17,0h0l.27-.06h0l-.24,0,.38-.09.15,0,.59-.12h0l-.27.06L49,1.28l.49-.1-.28.06c.15,0,.3-.07.45-.09l-.11,0,.18,0,.38-.08-.07,0L50.46,1l.14,0,.13,0,.52-.11.51-.09.41-.06.34-.06L52.2.68s.94-.16,1.74-.26L55.1.27l-.44,0h0l-.5.06h0l-1,.14h0l-.66.1-.27.05-.66.11h0a3.43,3.43,0,0,1-.34.06l-.44.09-.12,0,.1,0h0L50,1.07h0l-.27.06-.48.1-.7.15-.34.08.12,0-.09,0h0ZM52.26.66l.23,0-.57.1h0Zm-.7.12.3-.05-.53.09Z"/><path class="cls-2" d="M83.8,6.42h.06s-.09-.09-.16-.13a1.39,1.39,0,0,0-.52-.2h0l.07.09.23.23.15.07.06,0h.06l0,0h.1Z"/><polygon class="cls-2" points="88.47 5.8 88.61 5.87 88.52 5.83 88.47 5.8"/><path class="cls-2" d="M49.53,1.18h0l-.15,0-.23.05.15,0h0l.22,0,1-.18.31-.07h0L50.6,1,50,1.09Z"/><polygon class="cls-2" points="47.92 1.52 48.01 1.5 48.27 1.44 48.05 1.49 48.22 1.45 47.85 1.53 47.73 1.56 47.67 1.58 47.86 1.54 47.87 1.54 47.88 1.53 47.92 1.52"/><path class="cls-2" d="M115.25,72.1l-.14,0-.09.11-.08.26a1.73,1.73,0,0,0,0,.51.26.26,0,0,1,0,.17l0,.09c0,.11,0,.23,0,.34a2.64,2.64,0,0,0-.17.51,4.46,4.46,0,0,0-.12.94,1,1,0,0,0,.23.47c.06,0,.06,0,.44,0,.06-.28.11-.56.17-.84s0-.29,0-.43a1.55,1.55,0,0,0,0-.21l0-.2a3.23,3.23,0,0,0-.21-1C115.2,72.62,115.19,72.6,115.25,72.1Z"/><path class="cls-2" d="M80.94,10.12h0L81,10c0-.1-.09-.11-.25-.13a.2.2,0,0,1-.11-.06,1,1,0,0,1-.17-.18h-.57l.08.14.13.11.41.52h.29c.1,0,.09,0,0-.12s0-.06,0-.08h0Z"/><path class="cls-2" d="M80.28,7.19l-.07-.06s0-.08-.26-.29a.9.9,0,0,1-.17-.16l0,0a.78.78,0,0,0-.1-.19l-.1-.09,0,0,0,0-.12-.09,0,0c0-.1,0-.1-.21-.24,0-.06,0-.09-.07-.13h.05c-.12-.23-.36-.34-.5-.54H79L79,5.22H79l0,0-.12-.1L79,5c-.1-.19-.31-.26-.45-.4.07,0,.15,0,.22,0s-.13-.08-.14-.16h0V4.39h.29s-.07-.07-.11-.11l.15,0-.12-.11h.21a1.87,1.87,0,0,0-.36-.24v0h.08l-.16-.09a2.77,2.77,0,0,0-.75-.26h-.05l0,0H77.7c.09.13.25.15.37.24v0c-.08,0-.08,0-.11,0s.09.06.1.11h-.15V4l0,0-.32,0h-.06l0,0h-.11l0,0s0,0,.29.28a2,2,0,0,0-.35,0s0,0,.18.18v0l-.08,0s0,0,.41.33c-.08,0-.27,0-.32,0,.19.1.31.29.49.41l.11.08.23.17c-.1,0-.2,0-.29,0s-.07.08,0,.18.29.35.32.13c.08,0,.08,0,.27.15l0,0,.14.09c-.11,0-.23,0-.34,0l.35.3c-.19,0-.25,0-.23.08s.23.16.32.28,0,0,.18.24H79s0,0,.14.18l0,0c.14.18.33.32.48.49l.24,0-.08-.1s0-.06.13,0a1.73,1.73,0,0,0,.28.2c0-.08,0-.08-.12-.2a3.37,3.37,0,0,1,.75.38l.09.23.05.05.14.1h.44a7.81,7.81,0,0,0,.82.14h.14s0,0,.1,0l-.23-.22s0,0-1.39-.83C80.71,7.5,80.48,7.36,80.28,7.19Z"/><path class="cls-2" d="M78.12,2.17l2.16.68c-.22-.1-.46-.13-.68-.25l.1,0h0l-.22-.07h0l-.14,0h.07l-.43-.13-.23-.07-.25-.07h0A7.16,7.16,0,0,0,77.64,2L78,2.1h0c-.33-.07-.66-.18-1-.26h0c.37.12.75.21,1.13.33Z"/><path class="cls-2" d="M75.73,1.63a1.24,1.24,0,0,0,.33.09h0l.39.12.14,0c.28.06.28.06,1,.25h.11c.18,0,.35.1.53.13h.11L78,2.13,77.54,2a10.72,10.72,0,0,1-1.08-.28l-.88-.2c.15,0,.29.06.43.11l-.36-.09a1.12,1.12,0,0,0-.31-.05h0a1.55,1.55,0,0,1,.42.12Z"/><path class="cls-2" d="M81.81,3.47c-.1,0-.62-.23-.67-.23h0a3.09,3.09,0,0,1,.32.14l.23.08-.07,0a.61.61,0,0,1,.18,0Z"/><path class="cls-2" d="M75.43,1.62a3.47,3.47,0,0,0,.68.16h0l.28.07.14,0-.25-.08-.15,0-.19,0-.19-.05h0l-.34-.07h-.07l.09,0h0Z"/><path class="cls-2" d="M123.72,58.65V58.5a1.09,1.09,0,0,0,0,.18Z"/><path class="cls-2" d="M79.87,2.59l.26.08.15,0h0l-.17-.06c-.41-.13-.5-.14-.53-.15h0l-.11,0h0l.14,0A.72.72,0,0,0,79.87,2.59Z"/><path class="cls-2" d="M123.68,58.06c0-.3-.05-.59-.07-.9,0,.24,0,.49,0,.74C123.67,58,123.67,58,123.68,58.06Z"/><path class="cls-2" d="M72.7,1l.38.08c.13,0,.25.06.37.07h0l-.33-.07L72.56,1l.12,0-.17,0Z"/><path class="cls-2" d="M69.36,1.4v0h0c.07,0,.13,0,.19,0h0c.21.08.21.08.24.11H69.7l.21.1.26.09c.29.08.29.08.32.07s-.19-.13-.4-.22L70,1.45a.33.33,0,0,1,.14,0h0A.47.47,0,0,0,70,1.34l-.22-.09h-.11l-.34-.13-.08,0h0c.08,0,.19,0,.25.12a1.1,1.1,0,0,1-.18,0h0l0,0h0L69,1.21c.22.11.22.11.22.12s-.18-.06-.28-.07h-.06a1.28,1.28,0,0,0,.46.17Z"/><path class="cls-2" d="M69.54,1c.16.08.33.09.49.16h-.2a2.41,2.41,0,0,0,.25.08h0a.38.38,0,0,0,.15.05l.22.08h-.09l0,0h0l.11.07.09,0,.11,0h0c-.08,0-.18,0-.25-.11h.07l-.06,0h.06l-.06,0h.06l-.08,0,0,0a2.74,2.74,0,0,0,.28.05h0l-.52-.18.2,0c.29.09.31.08.35.07l-.13-.05-.17-.05-.17,0h0s0,0-.53-.16a.83.83,0,0,0-.15,0h0Z"/><polygon class="cls-2" points="64.87 1.84 64.88 1.87 64.88 1.86 64.87 1.84"/><path class="cls-2" d="M64.86,1.54h0l.1,0c.06,0,.11,0,.17,0a.22.22,0,0,1,.15.1H65l0,.1a.79.79,0,0,0,.21.1h.24c.08,0,.08,0,.12,0l.09.07A.46.46,0,0,0,66,2c.07,0,.07-.14.14-.11s.17.06.24,0l0-.05,0-.11c0-.05.09,0,.11-.06l0,0-.17-.09c-.1,0-.12,0-.12,0H66c-.17-.21-.26-.18-.27-.18,0,.17,0,.17-.14.12V1.34l0-.05h0v0h0l-.06,0h-.1c.09.2.09.2.08.25h0a.28.28,0,0,0-.21-.2,1.12,1.12,0,0,0-.39,0S64.62,1.45,64.86,1.54Z"/><path class="cls-2" d="M73.5,1.14a5.19,5.19,0,0,1,.78.18h0a5.3,5.3,0,0,0,.6.15l-.06,0h0l.4.09.29.05a2.63,2.63,0,0,1-.3-.09h0A1,1,0,0,1,75,1.44h0a2.17,2.17,0,0,0-.46-.12l-.38-.08h0l-.27-.06-.12,0h-.1L72.91,1a3.29,3.29,0,0,1,.6.15Z"/><path class="cls-2" d="M70.77,1.2l-.14,0a2.29,2.29,0,0,1,.28.09h0a1.22,1.22,0,0,0,.24.1,1.46,1.46,0,0,0,.3.07h0l-.07,0h.08a.47.47,0,0,0,.17,0h0s-.12,0-.19,0l-.19-.06-.58-.17-.12,0h-.07l.08,0Z"/><path class="cls-2" d="M63.35,2.46l0-.15a.31.31,0,0,1,.1,0l0,.14a.21.21,0,0,0,.19.07h.06c.1,0,.08-.12.13-.17s0,0,.1,0V2.18h.09c.05,0,.05,0,.07.2a.68.68,0,0,0,.2,0l.08-.08.06,0v.13l0,0c0,.06,0,.06-.15,0h-.06s-.6,0-.61.15v.13l.15,0h.07c.15,0,.19.05.27,0s.12-.1.2-.12h0s0,0,.09.08l0,.06L64.24,3c-.57-.09-.48.11-.42.2s.07.07.21.06.15,0,.46.43l.06,0V3.55c0-.1.21-.08.22-.21s0-.19,0-.29S64.86,3,65,3s0-.21,0-.31.16,0,.18-.08-.06-.19-.1-.29h.35v0c0,.08,0,.23.08.23.27,0,.27.2.26.27s-.1.12,0,.25h.12c.11,0,.1-.2.23-.17s.06,0,.14.24h.17l0,0V3h.33l.09,0,0-.07c-.11-.09-.11-.09-.39-.12a1.07,1.07,0,0,1-.09-.19l-.34,0c0-.12-.08-.21-.15-.22s-.1,0-.17-.16-.13,0-.19,0-.07-.11-.14-.14l-.05,0c-.07,0-.1.07-.16.05S65,2,64.91,2l0-.12-.17,0c0-.08,0-.13,0-.2l-.36-.09h0s0,0,0,.15v.05c0,.05.07.09,0,.17s-.12.08-.14.07l0-.12V1.62L64,1.6c-.08,0-.11.14-.2.17h-.14V1.68l.11-.08V1.55a.18.18,0,0,0-.14.1h-.27c-.41.07-.15.24-.15.24s.12,0,.16,0,0,.07-.07.14.06.21,0,.31c-.1-.06-.06-.26-.23-.26,0,.08,0,.17,0,.24C63.29,2.59,63.35,2.46,63.35,2.46Z"/><path class="cls-2" d="M70.85,1.12c.05,0,.12,0,.18.07l-.1,0a7,7,0,0,0,.76.19h0a1.56,1.56,0,0,0-.28-.11c-.09,0-.09,0-.09,0l-.14-.06h0l-.25-.06h-.15l.16.05Z"/><path class="cls-2" d="M71.78,1.61h0c.17.07.24.08.24.09h.07l0,0v0l-.09,0-.2-.06h0l0,0h0Z"/><path class="cls-2" d="M71.38,1.51h.13l-.13-.05-.14-.05H71l.1.08c.07,0,.06,0,0,.05l.28.11h.14c-.08,0-.18-.07-.26-.12a1.8,1.8,0,0,0,.44.14l0,0h0Z"/><path class="cls-2" d="M52.46.65,51.9.74l-.2,0,.62-.09Z"/><path class="cls-2" d="M119.21,81l0-.1.06-.18a2.31,2.31,0,0,0,.09-.4l0-.49,0-.09v0a1.28,1.28,0,0,0-.13.63A1.86,1.86,0,0,1,119.21,81Z"/><path class="cls-2" d="M22.48,14.53l.06,0,.17-.12.31-.25.53-.45,0-.08-.35.24Z"/><path class="cls-2" d="M23,14c.06,0,.43-.31.62-.45l0,0,.3-.25A6.82,6.82,0,0,0,23,14Z"/><path class="cls-2" d="M31.14,8.63c-.19,0-.19,0-.94.43l-.51.35,0,.07.24-.09L30.54,9Z"/><path class="cls-2" d="M119.27,80.11v0a.58.58,0,0,0,0-.16Z"/><path class="cls-2" d="M118.24,85.81c0-.07.05-.13.08-.19a.91.91,0,0,0-.09.17,1.67,1.67,0,0,0-.08.2l0,.13.07-.18Z"/><path class="cls-2" d="M90.19,92.44a3.49,3.49,0,0,1-.22.7c-.13.15-.13.15-1.07.77a2.29,2.29,0,0,0-.33.55c0,.14,0,.18-.07.22s-.24,0-.34.07-.18.46-.38.61c-.52.4-1.12,0-1.65.17-.16.07-.35.06-.47.2s-.1.47-.22.68-.38.32-.49.55c0,0-.36,1.07-.25,1.21s.1.16.08.24a4.12,4.12,0,0,1-.19.56c-.07.1-.12.08-.22,0s-.07,0-.54.48c-.25.27-.17.73-.52,1a.43.43,0,0,0-.17.15.94.94,0,0,1-.06.15c-.07.26,0,.52-.06.78l-.12.31a4.65,4.65,0,0,1-.27.86c.3,0,.61,0,.91,0,0,.08,0,.15,0,.23a1.79,1.79,0,0,0,2-.48c.41-.43.44-1,.76-1.53.21-.3.58-.43.78-.72s.27-1,.58-1.37.54-.23.78-.39.33-.06.42-.22c.2-.33,0-.75.23-1.07s.4-.37.51-.62l.12-.34a3.26,3.26,0,0,0,0-.33l.06-.17c.14-.25.46-.33.6-.59a1.66,1.66,0,0,1,.06-.16L91,93.06C90.94,93,90.84,92.69,90.19,92.44Z"/><path class="cls-2" d="M120,82.31a1.93,1.93,0,0,0-.21.49h-.07a7.66,7.66,0,0,0,.29-.91h0l0,0a5,5,0,0,1,.1-.56c.1-.34.2-.66.28-1l0,0,0,0c0-.44.24-.84.26-1.29l-.06.09s0,0-.08,0,0-.1,0-.37l0-.2a10.06,10.06,0,0,1,0-1.7s-.07-.08,0-.74c-.09.07-.13.23-.29.21a2.09,2.09,0,0,0-.12-.57c-.08.1-.11.15-.14.51a3.62,3.62,0,0,0,.06,1.19,6.89,6.89,0,0,1-.15,1.35v.07l.1.05a3.58,3.58,0,0,1-.21,1.14l-.06.2c-.1.52-.09,1-.17,1.57a9.79,9.79,0,0,1-.39,1.48c-.24,1-.37,2-.67,2.89a4.8,4.8,0,0,0,.39-.53c0-.07.06-.13.08-.19s.33-.8.46-1.14c0-.06,0-.12.07-.19.13-.3.13-.31.19-.37v.11c.06-.13.06-.14.12-.29S120.06,82.45,120,82.31Z"/><path class="cls-2" d="M118.52,84.36l0,0c.09-.25.19-.5.28-.76a.81.81,0,0,1,0-.17c0-.11,0-.12,0-.15h0a2,2,0,0,1,.12-.56c.25-.85.25-.85.23-1a7.1,7.1,0,0,0-.5,2s0,0,0,.23A1.28,1.28,0,0,0,118.52,84.36Z"/><path class="cls-2" d="M40.67,3.72h0l.2-.06.34-.11-.37.14A7.46,7.46,0,0,0,42,3.36h0l.76-.27L43,3l.26-.11-.35.1-.34.09-1.43.47-.51.2Z"/><path class="cls-2" d="M53.43,26.6c.12,0,.12,0,.23-.33H54c0-.11,0-.22,0-.34a.39.39,0,0,1-.17-.46c-.07-.11-.19-.15-.28-.23l-.16,0a.42.42,0,0,1-.3.42c-.19.1-.19.1-.16-.91l-.45,0c.2-.63.25-.79-.2-.89a.43.43,0,0,1,0-.16l-.14-.06c.06-.21,0-.27-.2-.4l0-.12c.06-.16-.16-.6-.35-.62-.53-.05-.53-.05-.63-.25.28-.38.28-.38.66-.44a1.37,1.37,0,0,1,0-.19c0-.26.36-.25.44-.47l.15-.61c-.46,0-.92,0-1.36-.06.32-.41.32-.41.33-.48.06-.26.36-.22.49-.39-.05-.12-.06-.13-.16-.14h-.36c-.23.06-.46-.08-.68,0a2.66,2.66,0,0,1-.33.56c-.08.17-.09.35-.16.52l-.4,0c-.1,0-.07-.16-.16-.19h-.13c-.26.07-.26.5-.26.5,0,.21.25.15.37.23l-.1.12s0,.1-.05.17,0,.45-.23.46c-.43,0-.44.18-.45.3v.12c.1,0,.19,0,.33,0a.19.19,0,0,1,.25,0c0,.23,0,.23.07.28a.84.84,0,0,0,.31,0c0-.1,0-.1.15-.26l.09.16c-.11.17.05.35,0,.52s-.32.05-.39.24,0,.08,0,.28l.74,0,.11-.15c.4.24-.12.79.32,1l.08,0c0,.12-.16.3-.12.44a.28.28,0,0,1-.15.37c-.32.18-.53-.17-.81-.17h-.06c-.15,0-.15,0-.31.15l-.1.16a2.72,2.72,0,0,1-.28,0l-.08.16c.22.18.49.05.74.11a.76.76,0,0,1-.11.32H49.2l-.49.29h-.1c-.09.23-.12.3,0,.49.26,0,.51-.25.78,0s.54-.05.78.13c0,.16,0,.25-.11.29a1.33,1.33,0,0,1-.63.06c-.19,0-.23.21-.39.25a3.62,3.62,0,0,1-.46.06c-.12.57-.12.57-.69.74.18.13.18.13.64,0,.2-.09.2-.09.25-.22s.06,0,.34.12h.47c.07-.36.1-.38.17-.44.32.06.65,0,1,.07s.25-.32.49-.28.31.28.52.31h.1c.24-.06.51.09.74-.09s.26-.2.3-.2a.52.52,0,0,0,.37-.07l.07-.17a.91.91,0,0,1-.17-.42.58.58,0,0,1,0-.1C53.17,26.7,53.19,26.54,53.43,26.6Z"/><path class="cls-2" d="M121.3,79.21c.1-.33.2-.68.3-1a5.49,5.49,0,0,0,.19-.67l-.52,1.76A.15.15,0,0,0,121.3,79.21Z"/><path class="cls-2" d="M34.31,13.55c.2-.21.4-.42.64-.64a10.32,10.32,0,0,0,1.73-1.3,2.48,2.48,0,0,0,.54,0c.23-.23.26-.25.42-.39s.19,0,.23.07c-.27.24-.27.24-.32.42.47.09.75-.31,1.14-.46h.16c.31,0,.31,0,.47-.18s.66-.36,1-.55c.16,0,.16,0,.6-.35l.25-.07.18-.15a2.18,2.18,0,0,0,.77-.51l0,0,.09,0h0v0h0l0,.06a.53.53,0,0,0,.25.08l.06.16c1.35.07,2.34-.91,3.55-1.25.15,0,.29,0,.56,0a1.77,1.77,0,0,0,.63-.36l0-.06-.32.15-.28.11s0,0-.16-.11,0-.13,0-.18l-.21,0A1.34,1.34,0,0,1,46.1,8l0-.16.11-.13a1,1,0,0,1,.38-.21h.06c.29,0,.57-.13.87-.12a2.56,2.56,0,0,0-.37.42L47.2,8l.15-.07c.39-.32,1.44-.28,1.19-1,.37-.6.37-.6.37-.74h.18V6.4h.19a1.79,1.79,0,0,0,.44-.33l.19-.15a.56.56,0,0,0,.21-.27c-.17,0-.17,0-.49.09h-.24l.47-.21V5.34L50,5.28l.28,0L50,5.52h.35a.79.79,0,0,1,.33-.1s0,0,.14.09c.58-.11.6-.3.61-.51l-.35,0s0,0,.74-.2a1.43,1.43,0,0,1,.28-.07h.13a.46.46,0,0,0,.29-.13l-.07-.16c.13-.18.13-.18.53-.45a1,1,0,0,1,.3,0,3.2,3.2,0,0,0,.38-.33l.24-.24-.17,0c0-.05,0-.11,0-.16l.14-.1.07,0a1.49,1.49,0,0,1,.5-.11s.07,0,.12.15l0,0a1.49,1.49,0,0,0-.6.42l.11,0c.26-.19.51-.36.88-.59l.17-.07s0,0,.08-.17l-.18,0-.17,0a1.43,1.43,0,0,1,.39-.16h.12a.77.77,0,0,0,.29-.17c-.16-.06-.16-.06-.66,0a3,3,0,0,1,.47-.24,7.07,7.07,0,0,0,.83-.36h.12a1.79,1.79,0,0,1,.52-.18l.16,0a12.58,12.58,0,0,1,1.8-.54l.1,0-.28,0V1A2,2,0,0,1,59,1h.09c.22,0,.44-.12.66-.17h.12a1.46,1.46,0,0,0,.51-.14L60.5.58h-.18l-.08,0h0l-.16,0s-.8.13-1.17.17h0l-.14,0c-.29,0-.57.14-.86.19.33-.1.68-.17,1-.25l.28-.08a4.44,4.44,0,0,0,.67-.17h0c-.41,0-.81.12-1.22.17l.5-.11h.09l.17,0,0,0H59l-.33,0h-.37c.11,0,.49-.1.88-.14h.38l.18,0h.38l.51-.06.25,0h-.11l.09-.05.17,0h-.12s0,0,.05,0h-.16l.17,0,.35,0,.34-.05,0,0,0,0h-.17l-.37,0h0c-.29,0-.59.06-.88.07,0,0,0,0,.09,0l.18,0-.35,0h-.17l-.35,0h-.12l-.09,0h-.15l-.48.06h.18l-.25,0H58.6l-.22,0h-.1l-.16,0-.23,0-.1,0h-.16l-.28,0h.07l.09,0h.13l.18,0h.26l.18,0h.05l.12,0h-.17l-.39.05h0l-.22,0h-.06l-.11,0-.25,0h-.08l-.27,0-.13,0h.09l0,0H57l.07,0h.08l.23,0h.09l.18,0H58l.07,0h0l-.32,0-.55.07L57,.35h-.09l-.09,0-.49.06-.12,0h0l.16,0,.12,0,.18,0,.32,0h.19l.09,0h.08l.13,0h.18l.27,0h.17l-.18,0H57l-.1,0h-.21l-.09,0h-.21l-.1,0h0l-.17,0h0l-.16,0-.1,0h0l.1,0h.21l.07,0h0l.16,0,.15,0,.08,0h-.05l-.19,0-.42,0h-.18l-.11,0-.78.11h.09L55,.5h0l-.28,0L54.2.59l-.32,0h-.43l-.13,0h-.11c-.1,0-.25,0-.36.06h-.1l-.32,0s0,0-.07,0H52.3l-.1,0s0,0,.14,0h0l.13,0L52,1l-.09,0-.09,0-.1,0-.58.13-.35.06-.1,0-.1,0h0l-.16,0h-.13l0,0h0l-.16,0-.15,0-.16,0-.17,0h-.05l-.17,0h-.26l0,0-.1,0-.1,0-.1,0-.1,0h-.09c-.44.1-.87.25-1.3.37h.06L47.25,2h0l-.16.07h0l.15,0h0l.18,0h0l-.42.12-.17,0h0l-.3.07h0l0,0h0l.06,0h0l-.15,0h0l.07,0h0l-.27.07h0a3.74,3.74,0,0,0-.45.14l-.09,0-.38.17-.08,0-.08,0-.1,0-.08,0-.08,0-.08,0-.08,0-.09,0h-.05l0,0,0,0-.11,0,0,0-.08,0,0,0h0l.08,0,.09,0,.36-.12v0l0,0h0l0,0h0l.19-.06h0l-.07,0v0l.1,0,0,0h.14l.1,0,.16,0-.15.07h0l0,0h0l-.12.07-.09,0,0,0h.07L45,3.09l0,0h0l-.23.1-.05,0v0l-.19.09-.6.23-.15.07-.07,0-.08,0h0l0,0,0,0,0,0-.23.1-.09,0A1.18,1.18,0,0,1,43,4.1l-.07,0-.1.05-.08,0a3.84,3.84,0,0,1-.35.18l-.32.17,0,0-.18.11-.17.08a2.8,2.8,0,0,0-.48.25l-.54.25-.33.16h.1a2.81,2.81,0,0,1-.38.17l-.15.05c-.22.1-.41.23-.63.33H39.2l-.37.21-.11.13a.17.17,0,0,1,.05.06l.23,0c.3-.17.3-.17.5-.13-.44.26-.44.26-.53.44h0a1.18,1.18,0,0,1-.36.35l-.17.09a.22.22,0,0,1-.13,0h-.11l-.1-.08L38.25,7l-1.71.72c0,.12,0,.12-.25.48.46-.23.46-.23.68-.21a1.89,1.89,0,0,0,.44-.36V7.44l.18-.09a.23.23,0,0,1,.12,0v.17s.07,0,.15.08l-.14.11-.14.08c-.16.07-.31.16-.46.23s-.06,0-.16.13l-.24.23-.44.31H36a2,2,0,0,1-.34.13h0l-.15,0a2.88,2.88,0,0,1-.79.43A5.06,5.06,0,0,0,34,9.6a1.08,1.08,0,0,0-.22.17c-1.4,1.25-1.4,1.25-1.46,1.49l.35-.12s0,0,0,.08l-.27.22a.43.43,0,0,0-.17,0c-1,.73-1,.73-1,.95.28-.06.47-.33.78-.31l-.57.5a5.24,5.24,0,0,0-2.44,3.05l.12.13a1.93,1.93,0,0,0,0,.34.6.6,0,0,0,.21-.05l.17,0s0,0,.14.11a1.53,1.53,0,0,0-.19.3l.22.26a.45.45,0,0,0-.07.32,1,1,0,0,0,.9-.38l.19-.22c1.91-2.17,2.21-2.21,2.37-2.23h.12C33.61,14.16,33.91,13.76,34.31,13.55Z"/><path class="cls-2" d="M88.41,5.77l-.13-.07.15.08.07,0Z"/><path class="cls-2" d="M30,10.89l.38-.24.16,0,.45-.28.57-.41-.3,0,.31-.21.36-.37,0-.07.16-.23h-.12l.41-.29.37-.26-.19,0,0,0L33.22,8l.12,0,.4-.19.08-.17.32-.17.17,0,.41-.3L34.81,7l.52-.25.23-.19h-.17l.38-.21,0,0,.05,0,.46-.19L36.41,6,36,6.07l.64-.35.4-.2v0l.49-.23.29-.18-.08,0-.43.18-.13,0,.11-.07-.5.22h-.08l.64-.29L38,4.88l.81-.36.74-.3,0,0L39,4.42H38.9l-.38.15-.74.31L37,5.23l-.5.22-1,.46-.09,0,.82-.39,1.09-.5.75-.32.78-.32.66-.25v0l-.13,0-.9.37L37.43,5l-1.89.86-.1,0-.06,0-.59.29.15-.08-.15.08-.33.16L34,6.63l0,0,.17-.08-.45.24L33.31,7l-.23.11-.61.33L32,7.72l-1,.57c-1.15.69-2.41,1.51-3.48,2.18l-.05,0-.9.62-1.09.78-.23.17-.48.36-.05.05c-.14.11-.29.22-.48.39l.13-.1.55-.41,0,.05-.06.08-.21.19,0,0,.6-.45.12-.14.74-.57.05-.08L26.8,11l.16-.13.45-.31-.11.1.33-.22.37-.25,0,0,.55-.35.57-.33.47-.29.49-.32.84-.53.17-.06L31.75,8l.64-.38.32-.2.51-.31,0,0,.35-.18L33.54,7l-.37.22h.08l.23-.07.62-.37.16-.06-.71.42,0,0-.67.4-.08.08-.48.3-.19.16-.61.39-.17.17-.55.4L30,9.55l-.9.49-.86.51-.69.53-.31.08.1-.13-.08,0-.67.41-.65.46-.06.15H26l.38-.26.25-.13-.06.1-.14.23-.72.69-.42.36-.48.49.15,0-.57.66.24.07-.13.3.46-.37.61-.83.3-.36.4-.37-.23.36-.37.64-.2.37.66-.57.71-.48.19-.33.91-.74.12-.3,1-1,.44-.24.4-.21-.83.89-.6.56.06.11.9-.63Z"/><polygon class="cls-2" points="44.43 2.44 44.38 2.46 44.36 2.46 44.46 2.44 44.43 2.44"/><path class="cls-2" d="M45.92,2l-.09,0-.78.21-.42.12h0l-.11,0-.34.11.32-.09-.27.09.41-.11-.29.1.17,0h0a2.66,2.66,0,0,0-.59.19l.08,0h0c.6-.15.62-.16,1.12-.3l.53-.16-.37.09L46,2.1l.17,0,.71-.18.62-.16h0l0,0c.44-.1.87-.22,1.31-.31h.05s.83-.2,1-.26l-.36.07-.32.06.49-.11L50.64,1h0l-.39.08-.11,0c.24,0,.47-.08.7-.12l.61-.13h.09L51.14,1h.08L51.56,1l.68-.13.22,0h.08L53,.71l.29,0L55,.46h.09l.32,0L55.8.36l-.48,0,.11,0h-.08l.46,0,.24,0h.09l.63,0L57.54.2l.55-.05h-.17l.49,0,.47,0h-.26l-.33,0,.46,0h0l.35,0,.27,0-.77,0L59,0l-.64,0L59,0h.12L58.06.07h0l.57,0h0l-.42,0h.09l-.43,0-.54,0h0l.37,0h-.1l-.81.06-.59,0h0l-.41,0h.06l-.46,0h-.12l-.1,0L54.5.35,53.34.51,54,.43l.36,0h.09L54,.44l-.61.08-.62.09h0l-.08,0,.72-.1-.1,0h0l.52-.06L54.3.43l.75-.08H54.9l-1,.11H54l-.1,0h0l-.41.05h-.09l-.21,0-.38,0h-.12l-.5.08-.1,0-.3.06-.51.09L51,.94h-.1a1.52,1.52,0,0,1,.28-.09l-.37.07h0l-.3.06L50,1.09l-.35.08a4.89,4.89,0,0,1-.64.14l-.6.14.84-.2.14,0h-.09l-.19,0h0l-.35.07-.55.13-.34.07-.06,0-.15,0h0l.1,0-.45.1-.54.14,0,0,.81-.18-.65.15-.55.13h-.06c.3-.09.61-.16.91-.26l-1.47.39-.12,0h0ZM56.56.16h0L57.23.1h0L56,.22C56.19.2,56.38.19,56.56.16Z"/><path class="cls-2" d="M121.32,79l0-.09,0,0c-.45,1-.6,2.14-1,3.19l0,.09a1.59,1.59,0,0,0-.07.2,10.7,10.7,0,0,0-.36,1.11,3,3,0,0,0-.16.46v0l1-2.81.54-1.84s0,0,0,0S121.3,79.09,121.32,79Z"/><polygon class="cls-2" points="88.43 5.78 88.47 5.8 88.43 5.78 88.43 5.78"/><path class="cls-2" d="M123.7,60.6c0-.42,0-.85,0-1.27l0,0v-.54a.46.46,0,0,1,0-.14c-.14-1.52-.23-3.55-.45-5.06,0,.37.07.78.11,1.21,0-.12,0-.24,0-.36l-.08-.86h0c-.32-1.89-.74-4.42-1.16-6.3L121.2,44c-2-6-2.1-6.15-3.46-9v0c-2.77-5.23-3.19-6-4.78-8.26s-3.88-5-5.66-7.08l-.29-.31c-4.51-4.44-4.51-4.44-7-6.4C95.24,9.48,94.5,9,92,7.63L88.61,5.87l0,0h0c-.26-.12-.51-.26-.78-.36l.41.2-.38-.16a6.11,6.11,0,0,0-.68-.33l-.13-.06-.14-.06c.3.16.62.3.93.45v0l.08,0,.42.2.13.06.27.14,0,0,.11.08v0l.06,0,0,0s-1.07-.58-1.47-.76l-.11-.07L87,5.21l-.26-.12h0A7.3,7.3,0,0,0,86,4.71l-.09,0-.57-.24-.09,0-1-.37h0l-1.31-.48c-.08,0-.08,0-.09,0l-.13,0,.25.11-.3-.11c.12.06.31.13.5.2h0L83,3.63l-.23-.09-.58-.21h0a4.3,4.3,0,0,1-.82-.28l-.39-.13-.08,0,2,.77h-.12l.3.12.1,0h0l.22.09.26.12A3.22,3.22,0,0,1,83.05,4H83l-.15,0a4.73,4.73,0,0,0,.64.31l0,0,.38.24-.13,0c.32.33.32.33,2,1.15l.22.11.12.07-.13,0,.05.14h-.29a.18.18,0,0,1-.17.07l.08.09.11.08h-.18a12.17,12.17,0,0,0,1.85,1h.06a1.66,1.66,0,0,1,.65.29l.18.11.13.1a6.15,6.15,0,0,1-1.21-.46h-.25A3.17,3.17,0,0,1,86.44,7l-.13,0,0,.13.14.13a1.08,1.08,0,0,1,.66.26l-.42-.09h0a1.45,1.45,0,0,0,.72.5h.14a4.18,4.18,0,0,1,1.09.51c-.55-.31-1.23-.3-1.75-.69l-.31-.2a12.14,12.14,0,0,0-1.39-.85H85l.94.59.18.13H86a5.5,5.5,0,0,0,.54.55l.07,0c1.5.92,1.5.92,1.69,1.12l.06.06c.41.25.76.58,1.18.82h.34l-.17-.23c0-.07,0-.08,0-.08a6.89,6.89,0,0,1,1.66,1.06,2.24,2.24,0,0,0-1-.43l-.08.11c.18.28,1.7,1.74,1.71,1.75l-.14,0a1.33,1.33,0,0,1,0,.28.67.67,0,0,0,.16.19l.07.12c-.2,0-.2,0-.55-.15a2.25,2.25,0,0,0-.53,0l-.14-.06-.13-.24a5.32,5.32,0,0,1,.56.06c0-.15.08-.28-.43-.9,0-.09,0-.09-2.39-1.94l-.19-.15A8.27,8.27,0,0,0,86.39,8l-.89-.62a.33.33,0,0,1,.17,0l-.87-.58c-.19,0-.36-.13-.56-.14h-.1l-.14,0,0,.13-.14,0c.27.3,1.29,1.16,1.3,1.17s-.12.09-.14.09l.08.14.15.12.11.08a.29.29,0,0,0,.13,0c.15.07.74.4.81.62s.53.51,1.68,1a2.51,2.51,0,0,1,.89.7h-.13c-.14,0-.27,0-3-1.24a2.56,2.56,0,0,0-.43,0c-.14,0-.26-.14-.39-.2h-.42c-.33-.12-.62-.31-.95-.43a2.09,2.09,0,0,0-.4-.19l-.15,0v.14c.71.65,1.86.59,2.41,1.49-.09.1-.12.1-.15.1s.1.26.12.39l-.12,0a5.56,5.56,0,0,0-.62-.64.31.31,0,0,0-.14,0l0,.14.07.12-.11.07H84.4l-.14,0a.67.67,0,0,0-.07.18.41.41,0,0,1-.19,0l-.2,0h-.19a.67.67,0,0,0,.19.32h-.27c-.27-.15-.27-.15-.8-.79l-.06.16-.18,0-.06.16c-.12.08-.16.08-.2.07h-.18l-.06.2a.76.76,0,0,1-.23.05c-.24.08-.25.08-.33.4a1,1,0,0,1-.34.06l-.11.13a3.37,3.37,0,0,1,.4.37c-.08.2-.08.2-.53.37l-.09,0c-.9-.7-.9-.7-1-.83a2.42,2.42,0,0,1,.54,0l-.25-.36a1.4,1.4,0,0,0-.3-.15l-.43-.33-.18.05h0a.65.65,0,0,0-.51-.15H78.4c-.11.08-.05.16,0,.25l.2,0a3.63,3.63,0,0,1,.59.74c-.05.21-.06.24.26.48a3.16,3.16,0,0,1,.47.31l.06.08a2.37,2.37,0,0,0,.27.61c-.38-.05-.38-.05-.52-.13l-.08-.12s0,0-.8-.05a1.21,1.21,0,0,1-.09.34c-.43.14-.43.14-.51.41l-.19,0h0c.19.38.66.51.81.93h0a2.17,2.17,0,0,1-.7-.07H78a2,2,0,0,1-1.24-.59.79.79,0,0,1-.27.21c0,.16,0,.35.4.45l.08.16c.13.1.16.1.2.1.3-.05.39,0,.68.23,0,0,0,.13,0,.18a4.12,4.12,0,0,1-.61,0l-.08.16-1.53-1.27h-.38l-.16-.4c-.24-1-1.49-.86-1.82-1.72.4.1,1.78.7,1.78.7a9.09,9.09,0,0,0,.91.06c.28.07.54.21.83.26h.35c2.08-.71,0-1.75,0-1.76l-1.71-.61a1.31,1.31,0,0,0-.39-.2.88.88,0,0,0-.69-.13l-.23,0c-.16-.09-.33-.17-.49-.28a.92.92,0,0,0-.36-.06l.07.16c-.14.11-.17.11-.2.11L73,9.87V9.68a.36.36,0,0,0,0-.13.65.65,0,0,1-.37-.35h-.29l-.11.14a8.47,8.47,0,0,1-.86-.25c-.1-.06-.12-.1-.13-.14h.17a1.31,1.31,0,0,0,.08-.21,1.92,1.92,0,0,0-1.14-.46c0,.1.07.21.11.31l-.19,0a.43.43,0,0,1-.14-.21l.07-.17a.81.81,0,0,0,0-.11l-.64,0c0,.1.09.23.12.33a.43.43,0,0,0,0,.19l-.07.08c0-.3,0-.31-.22-.45l-.23,0L69,8l-.12,0,0,0a2,2,0,0,1-.46.23.58.58,0,0,1-.15.29h-.07L68,8.42l0-.18c0-.07-.14-.07-.25-.08a1.17,1.17,0,0,0-.49.19c.06.29.06.29.53.37a1.09,1.09,0,0,1,.07.24h-.19c-.1,0-.1,0-.51-.11a1.45,1.45,0,0,0-.33,0c.06.34.06.34,0,.53,0-.1-.12-.23-.16-.33-.3-.05-.49-.36-.8-.36a.29.29,0,0,0,0,.2c.26.59-.07.68-.22.72a1.17,1.17,0,0,1-.17-.31l-.12.14h-.17L65,9.59a2.92,2.92,0,0,0,.28.21,1,1,0,0,0,0,.18l-.15.08-.48-.18a2.31,2.31,0,0,0,0-.37l-.18,0c0,.11,0,.22,0,.33-.44.06-.44.06-.52.1l.1.14-.12.13c-.33,0-.33,0-.53.21l-.1,0-.14.23h-.11l-.12.14h.21c.37-.24.37-.24.64-.21a1.13,1.13,0,0,1,1-.25c0,.06,0,.14.06.19-.17,0-.17,0-.67.18-.07.22-.23.39-.23.63a.92.92,0,0,1-.32.14,1.66,1.66,0,0,1-.62.61c-.1.34-.31.64-.38,1l0-.11a7.74,7.74,0,0,1-1,.48l0,.2.18,0h.31c-.19.71-1,.71-1.37,1.2a.76.76,0,0,1-.37-.1l-.29,0L60,15c0,.06,0,.14,0,.19a.89.89,0,0,1-.33.15h-.18c-.28.11-.54.26-.83.37-.09.5-.62.45-.89.71a.77.77,0,0,1,0,.34,4.12,4.12,0,0,0-.24.76.29.29,0,0,1-.15,0,1.17,1.17,0,0,0-.14.41h.55l.12.14a.75.75,0,0,1-.25.25c-.08.31-.08.31-.27.42a1.35,1.35,0,0,1,0,.18c.14.09.14.09.56.13,0,.31,0,.31-.24.44s-.09.11-.1.14,0,.09,0,.15v.11l.45,0,.06.07s0,0,.16.23l.3-.07a2.88,2.88,0,0,0,.31.13h.13s.26,0,.33-.17.05-.08.1-.08a.48.48,0,0,0,.26,0,1.12,1.12,0,0,0,.17-.12l.07-.13.16-.18h0l.13-.17h0c.12-.13.22-.16.59-.26a1.6,1.6,0,0,0,0-.29c.27,0,.29.31.44.46s0,.17,0,.31h0a1.57,1.57,0,0,1,0,.26h.16a.41.41,0,0,1,.13.26v.07c0,.08-.15,0-.15.14a.63.63,0,0,0,.19.45l.16.06a1.32,1.32,0,0,1,.19.29.76.76,0,0,1,0,.15v.15c0,.3.14.38.4.6s.16.13.16.25-.15.24-.17.39v.07c0,.11,0,.21.06.32l1.07,0c.06-.46.1-.7.47-.69h.14l.21.07c.14.12.23,0,.32-.14s.17-.07.38-.05v-.47l.6,0a1,1,0,0,0,0-.38H65.4c-.28,0-.28,0-.32,0v-.14l-.14,0a1.48,1.48,0,0,0,.34-.89c0-.4,0-.4.09-.44a.76.76,0,0,1,.4-.23c-.13,0-.12,0,0,0a2.52,2.52,0,0,1,.47-.22c0-.27,0-.28.39-.55,0-.19,0-.24,0-.29a1.21,1.21,0,0,0-.05-.18c-.23,0-.46-.05-.7,0,0-.37,0-.37-.08-.55a1.36,1.36,0,0,1-.33-.14c0-.52,0-.89,0-1.25a7.43,7.43,0,0,0,.54-.92,2.75,2.75,0,0,0,1.36-.94c.18-.13.18-.13.5-.15l.12-.14c-.19-.56.16-1,.21-1.57a1,1,0,0,1,.54,0h.06c.29.31.29.31.44.35l.12-.14a.72.72,0,0,1,.44.34,2.64,2.64,0,0,1,.13.5h-.36c.1.55.1.55-1.59,1.92a8.64,8.64,0,0,0,.08,1.44v.14a2.41,2.41,0,0,1,.07.37c.31.22,1.61.92,1.62.93h.12c.45-.23,1-.08,1.41-.29v-.14a8.73,8.73,0,0,1,1.21,0,.75.75,0,0,1,.32-.13h.07a1.26,1.26,0,0,1,.19.28,3.8,3.8,0,0,0,.84.1l.1.14-.11.13c-.87,0-1,0-1.26.71-.74.28-1.46-.49-2.19,0-.3-.1-.3-.1-.5,0a.68.68,0,0,1-.14.31c.21,0-.28.11-.28.11h0c-.06,0-.08,0-.17-.12l0-.14h0a.74.74,0,0,0-.21,0,.22.22,0,0,0-.11,0l-.06,0v.13l.09.08.14,0h.07l-.6.25c0,.09,0,.21,0,.31a1.41,1.41,0,0,0,.86.19,2.73,2.73,0,0,1,.47-.43c.36.17.54.57.89.74,0,.09,0,.21,0,.3a1.08,1.08,0,0,0-.42.4c-.1.2-.19.2-.28.2l-.31-.07-.14-.27c-.18-.21-.23-.21-.28-.21s0-.21,0-.3H69a1.68,1.68,0,0,1-.4.44c-.09.68-.38,2-.38,2a1.8,1.8,0,0,0,.2.19l-.07.16c-1.13-.23-1.13-.23-1.44,0a1.35,1.35,0,0,0,.34.51l0,.16-.15,0c-.35-.24-.67-.53-1-.75-2.4,1.08-3,1.36-3,.27h-.31a.8.8,0,0,1-.54.15h-.36l-.33,0v.29a.37.37,0,0,1-.35.18l-.28-.08a1,1,0,0,0-.32-.37h-.31c0-.1,0-.19,0-.28a2.47,2.47,0,0,1,.06-.29c.2,0,.41,0,.61,0a3.42,3.42,0,0,0,.89.28,2,2,0,0,0,.37-1.4.42.42,0,0,0-.29-.09c-.6.14-.6.14-.76.36s-.16.08-.19.08h0c0-.09-.08-.2-.11-.28l.2-.24a2.27,2.27,0,0,0,.06-.36l-.3,0c-.16-1.2-.16-1.2-.3-1.26-.63.67-.63.67-.85.68l-.18.24c0,.17,0,.19,0,.22a2,2,0,0,1-.5.3c-.2.51.34.91.22,1.41,0,.07,0,.12,0,.18l-.11.35c.07.17.15.39.21.56a3.32,3.32,0,0,1,0,.41h-.23l-.31,0a4.39,4.39,0,0,1-.48,0c-.69-.12-.69-.12-2.1.86-.26-.13-.31-.13-.37-.13h-.44a1.13,1.13,0,0,0-.06.32l.29.17c0,.18,0,.35-.08.53-.51,0-.62.06-1.34.65-.18.09-.23.09-.29.08h-.3a1.73,1.73,0,0,0-.38,1,2.87,2.87,0,0,0-.92.08,3.52,3.52,0,0,0-.12.52l-.6,0L51.41,29h-.3c-.2-.11-.19-.17-.18-.23l-.26-.16a.86.86,0,0,0-.25.53l.3.14-.22.33,0,.18c0,.07,0,.14,0,.21-.42,0-.82-.1-1.24-.1l-.16-.25c-.87.18-.87.18-1.11.4.09.25.14.25.19.26a1.63,1.63,0,0,0,.46.37h.46c.52.51.52.51.62.68a2.46,2.46,0,0,1,0,1.11c.19.24.45.39.64.62a11.85,11.85,0,0,1-.86,2.44,5.51,5.51,0,0,1-.66.29h-.26c-.44-.22-1-.13-1.34-.59-.71-.09-1.21-.11-1.71-.13-.66-.11-.66-.11-.85-.26h-.09l-.2.21a1.66,1.66,0,0,1-1,.19l-.13.18c.45.68-.24,1.37,0,2-.07.37-.13.73-.2,1.1-.74,1.26-.74,1.26-.58,1.65a.93.93,0,0,1,.06.43l0,.19c-.25.34-.25.34-.28.89a1.3,1.3,0,0,0,.51.08c.36-.07.48-.1.81.27a2.9,2.9,0,0,0,.6-.11,4.7,4.7,0,0,0,.67.41,2.83,2.83,0,0,1,.23.57l.28-.06-.17-.06c1.67-.52,3-1.92,4.87-1.9a.84.84,0,0,0,.34-.66,2.29,2.29,0,0,0-.37-.51c0-.19,0-.19.61-1.12.33-.58,2.65-1.05,2.67-1.06a.78.78,0,0,0,.24-.57l0-.19c0-.8,0-1.5,1.17-1.16h.23a1.56,1.56,0,0,0,1,.35h.57a1.11,1.11,0,0,1,.44-.78h.38c.28,0,.49,0,1-.54,1.08.15,1,1.42,1.78,1.86a1.15,1.15,0,0,1,.38.47c2.62,1.83,3.92,3.15,3.87,3.93a14.71,14.71,0,0,1-3,.45,1.64,1.64,0,0,0-.14.22c.51.25.81.8,1.37,1,.48,0,.85,0,1.23,0,0-.24,0-.49,0-.73.82-.31,1.28-1.08,1.92-1.61,0-.36,0-.43,0-.5h-.6c-.19-.1-.18-.17-.18-.24a.94.94,0,0,1,.78-.27,1.4,1.4,0,0,1,.74.45,5.91,5.91,0,0,0,0-.89c-.56-.45-1.36-.6-1.73-1.31a2.27,2.27,0,0,1-1.53-.78c.14-.31.14-.31-.78-1a.26.26,0,0,0-.22-.1,2.74,2.74,0,0,0-.18-.62c-.19,0-.45,0-.65,0a3.87,3.87,0,0,0,0-.48l.18-.17c.18-.16.18-.18.19-.22a1.24,1.24,0,0,1-.12-.57c.62-.21.68,0,.87.51,1.36.17,1.71,1.85,3,2.08,0,.06,0,.13,0,.19.55.63,1.5.74,1.94,1.52-.39,1-.39,1,0,1.35,0,.48,0,1,.79,1.09a1.13,1.13,0,0,1,.28.85h-.46L68.06,41l-.18.24c.45.69.45.69.94.85,0-.08.08-.18.11-.25a2,2,0,0,1,.69.6,1.54,1.54,0,0,0,0,.64,2,2,0,0,0,.57.1h.31c.11-.15.25-.35.35-.51a2.37,2.37,0,0,1,0-.24c0-.09-.05-.2-.07-.29l.23-.18a2.11,2.11,0,0,1,.55.25h.27a2.18,2.18,0,0,0,.22-.21c0-.16,0-.38,0-.55a2.82,2.82,0,0,0,.58,0,1.2,1.2,0,0,0-.68-.6,1.69,1.69,0,0,1-.18.59c-.44-.1-.49-.27-.81-1.18a1.76,1.76,0,0,1-.79-.44c0-.25,0-.32,0-.38l.32-.08a2.78,2.78,0,0,0,.53.3h.59a1.07,1.07,0,0,0,0-.56c.36-.29.36-.29,2,.28l0,.29.2.09.15.34-.3.11c0,.6.81.77.66,1.42,0,.1,0,.22,0,.31a.92.92,0,0,0,0,.24,2.62,2.62,0,0,0,.3.51l.07.1.1,0,.07.1L75,43l.1.07c0,.09.07.21.09.3l-.09.12,0,.09,0,.12a2.71,2.71,0,0,0,.09.57l.11.1.09.07.2-.31.06-.24a2.71,2.71,0,0,0,0-.4c.06-.28.12-.28.18-.28l.09,0,.1.07.07.1.1.08.32.29.09.13.08.09.1.06h.09a1.13,1.13,0,0,1,.48.11l.3,0,.09,0,.1-.07,0-.1v-.1a.94.94,0,0,1,0-.5l0-.1.13-.09a1.61,1.61,0,0,1,.61.11l.27.27.35.28.07.09.1.08.09,0,.13.05,1.27,0a2.85,2.85,0,0,1,0-.29,1.59,1.59,0,0,0,0-.17c0-.09,0-.21,0-.29l.26-.07.08,0h.14a1.29,1.29,0,0,1,.58.33l.3,0,.09-.05,0-.09.08-.07.1,0,.19.25,0,.09a2.64,2.64,0,0,1,0,.63,1.24,1.24,0,0,0,0,1.08l0,.1.14.26-.1.31-.08.06,0,.1,0,.35-.06.1c-.31.55-.31.55-.52.66l-.09.07-.09.1,0,.1v.1a3.25,3.25,0,0,1-.45,1.17l-.09.1-.09.07H81c-.13,0-.13,0-.49.09h-.12l-.1,0-.09.05-.1.09a.59.59,0,0,1-.28-.1,1.62,1.62,0,0,0-.19-.17l-.13,0a3.91,3.91,0,0,1-.82-.13h-.22l-.1.06a1.8,1.8,0,0,0,1,.32.35.35,0,0,1,.08.22v.12c.06.1.15.18.2.28a1,1,0,0,1,0,.29l0,.1,0,.12c0,.58.49.92.72,1.39s.37.54.61.7a1.38,1.38,0,0,0,.3,0c.36,0,.37-.35.56-.52l.13.18c.29.46.77.77,1.06,1.24l.89,1.89c0,.13,0,.17,0,.2a1.21,1.21,0,0,0,.09.93c.19.29.58.17.8.4.09.07,1,1.78,1,1.79.29.63-.41,1.58.46,2a3.81,3.81,0,0,1,1.23,1.52c.13.42.21.48.36.59.42.33.42.33,1.59,3.32,0,.68-.06,1.29-.09,1.9a1.21,1.21,0,0,0,1.88.72c.65-.77.65-.77.91-.83l1.06,0h.08a1.37,1.37,0,0,1,.18.16h.13l.27-.42c.62-1,2-.61,2.76-1.46.18-.25.18-.26.79-.21l.1-.1c0-.49,0-.52.18-.7.14,0,.16,0,.54-.23.21-.15.21-.15,1.64-.07a2.85,2.85,0,0,1,.26-1.13,4.91,4.91,0,0,1,.84,0,5.53,5.53,0,0,1,.34-1c0-.72.08-.75.07-.06,0,0,0,0,.16,0h.17l.16,0c0-.12.06-.28.08-.4A1.33,1.33,0,0,1,102,62V62c0-.29.23-.73.43-.74h.08c.09.08.11.23.25.26a12.81,12.81,0,0,1,.18-1.75c0-.07,0-.1.28-.09a.7.7,0,0,0,.31-.14l0,0a2.09,2.09,0,0,0-.13-.59c-.07-.11-.2-.06-.29-.11l-.28-.18c-.1-.19,0-.41-.11-.6-.2-.44-.48-.49-.63-.48-.45,0,0-.65-.18-.94l-.33-.21h-.31c0,.51,0,.51,0,.65,0,.38,0,.39,0,0l-.08.1c-.15-.19-.12-.44-.2-.65-.12,0-.12,0-.24-.25,0-.38-.06-.72-.08-1.07a.8.8,0,0,0-.22-.29c-.53.18-.53.18-.63,1.74a3.11,3.11,0,0,1-.61,0h-.27l-.44-.2-.19,0a6.62,6.62,0,0,0-.63.67.94.94,0,0,1-.76-1l.17-.07a.66.66,0,0,1,.36-.2h.15c1,.5,1-.14,1-.14l-.09-.11a1,1,0,0,0-.26-.05l-.24,0h-.27c-.48-.15-1-.16-1.45-.3l-.29,0-.06-1c-.17-.26-.18-.29-1.31-.7-.22-.9-.8-1.7-.7-2.69.08-.7,1-.28,1-.28s.07,0,.67.69a3.44,3.44,0,0,1,.75,1.1c.22.42.71.49,1,.81.51.58.64.74,2,.89h.35c.17-.12.38-.06.56-.15a.58.58,0,0,1,.24,0c.3,0,.3,0,.63.34v0c.2.33.14.82.6,1h.85c.49-.15.63.37,1,.52h.77l.33.16h1.22l.87-.21h.78s1.26,1.11,1.34,2l.18,0c.06.1.06.1.24.45h.26c.18,0,.26,0,.77.39-1.17.06-.58.68-.57.69.47.34.38,1.23,1.19,1.24.37-.47.37-.47.47-.51s.07-.25.11-.36l.16-.09c.53.38.55,2.36.55,2.38v.58c-.32,2.31,1.07,4.39.88,6.69,0,.07,0,.14,0,.21-.23,1.28.29,2.48.36,3.73a2.12,2.12,0,0,1,.14.31l.17,0c.81-.69.81-.69,1.84-5.26l.09-1.18c.06-1.18.06-1.18.24-1.41,1.08.06,2-3.67,2-3.71a4.47,4.47,0,0,0,.39-.76l.11,0h0c.19-.17.19-.17.21-1.38a.42.42,0,0,1,.36-.18l.12.13.12,0c.12-.27.34-.48.37-.78a1.45,1.45,0,0,1,.35,0c0-.22,0-.43,0-.64l.15,0a9.64,9.64,0,0,1,.51,2.57,5.39,5.39,0,0,1,.28.85,2.54,2.54,0,0,1,0,.26,4.53,4.53,0,0,0,0,.56v.07H121c.46.91-.32,1.87.14,2.77l.15,0a1.42,1.42,0,0,1,.28-.46.64.64,0,0,0,0-.25c0-.07,0-.15,0-.22s0-.13,0-.18c.57.54.27,2.88-.29,7.13a1.34,1.34,0,0,1,0,.3c-.2,1,0,2-.15,3,0,.18,0,.2,0,.22-.1.54-.13,1.1-.22,1.65l-.28,1.2a9.23,9.23,0,0,0-.16,2.31h0a2.29,2.29,0,0,0,.18-.77c.08-.49.61-2.72.62-2.74a2.47,2.47,0,0,1,.07-.29.51.51,0,0,1,0-.17c0-.1,0-.16,0-.23l0-.19c.05-.2.07-.33.11-.47a11.36,11.36,0,0,1,0-2.89,1.68,1.68,0,0,0,0-.27.41.41,0,0,0,0-.4c0-.35.1-.7.14-1s.52-2.69.52-2.7c.19.35.05.72.11,1.08,0,.06.05.06.05.06l.07-.16c.16.69.16.69-.23,4.39a22.51,22.51,0,0,0,1.1-5.13c0-.26,0-.51.07-.76a14.37,14.37,0,0,0,0-3.16,29.23,29.23,0,0,1,.06-5c.1,0,.1.07.11.15s0,.13,0,.19c0,.41,0,.8,0,1.19s-.06,1.06-.06,1.6c0,.11.09.1.11.09A12.28,12.28,0,0,0,123.7,60.6Zm-31-49a4.19,4.19,0,0,1-.79-.49,1.56,1.56,0,0,0-.2-.16,3.89,3.89,0,0,0,.54.27c.18.12.41.14.57.28C92.77,11.63,92.75,11.63,92.73,11.63Z"/><path class="cls-2" d="M44.46,2.44l.09,0h.05l.64-.19.41-.11h0l-.56.16-.3.09h0l.17-.06h0l-.14,0-.35.11,0,0,.11,0Zm.25-.08h0l-.12,0Z"/><path class="cls-2" d="M27.1,10.76l.14-.09,0,0Z"/><polygon class="cls-2" points="26.09 11.48 25.9 11.62 25.61 11.83 26.56 11.15 26.09 11.48"/><polygon class="cls-2" points="26.83 10.96 26.56 11.15 26.73 11.03 26.83 10.96"/><path class="cls-2" d="M28.45,9.88v0l-.5.34-.61.41-.1.06.31-.2.44-.28Z"/><path class="cls-2" d="M31.27,8.13l-.59.34-1,.6-.26.17.62-.38.82-.48L31,8.29l1-.59Z"/><path class="cls-2" d="M119.51,78.3c0,.09-.06.16-.08.24s0,.18,0,.26,0,.18-.06.28l0,.06h0a1.18,1.18,0,0,0,.07-.2c0-.06,0-.11,0-.17a1.8,1.8,0,0,1,.06-.32Z"/><path class="cls-2" d="M48.13,25.08c0-.21.13-.42.17-.63l.09-.32a.46.46,0,0,0,.47-.24.35.35,0,0,0-.06-.39c-.13-.13.07-.25,0-.38A.41.41,0,0,0,48.7,23c-.05,0-.11,0-.16,0l-.1-.11h-.07A1.61,1.61,0,0,0,48,23c-.07,0-.07.11-.12.15s-.12,0-.17.07l-.12-.08c0-.06,0-.16-.09-.21s-.07,0-.41,0a7.13,7.13,0,0,0-.26.78h0c-.11,0-.19.09-.31.07s-.21.06-.32.09,0,0-.19-.11l-.18,0c-.11.37-.23.75-.35,1.13a1.92,1.92,0,0,0,.5,0c0,.16-.1.33-.15.5-.38,0-.38,0-.58.28l0,0c-.08.1,0,.24-.11.34s-.15.05-.2.12l0,.08s-.08.2,0,.28.26.19.41.1a.39.39,0,0,1,.49.05,1.13,1.13,0,0,0,.4-.2s0,0,.08-.19.14-.08.19-.14l1.3.05.06-.23c0-.11-.07-.22,0-.34s.14,0,.19-.1S48.07,25.39,48.13,25.08Z"/><path class="cls-2" d="M42.71,13.89h.21c.23,0,.46-.05.69,0l.23,0c.21,0,.21,0,.19.2,0,0,0,.25.36.23.16,0,.33.06.49,0s.19-.08.56-.42a3.82,3.82,0,0,1,.39-.23c.12-.05.29,0,.41-.09a1.17,1.17,0,0,1,.57-.28c.19,0,.19,0,1,0l.28-.5c0-.08.06-.15,0-.24s-.11-.1-.35-.14a4.9,4.9,0,0,0,.52-.77l-.5,0a.57.57,0,0,0-.19,0c-.32.09-.57.34-.9.4-.12,0-.21-.07-.31-.1a.88.88,0,0,0-.34,0c-.35,0-.64.23-1,.25l-.39,0,.17-.23.18-.24c0-.07,0-.16,0-.24l-.25.05-.18.23a1.12,1.12,0,0,0-1.54.54,3.41,3.41,0,0,0,.46-.1h.23l.12.32c0,.17-.15.19-.21.3a1.91,1.91,0,0,0-1,0l-.23.37.26,0,.41,0v.06c-.11.17-.23.33-.35.5Z"/><path class="cls-2" d="M49,20.28l.22-.21h.05a.52.52,0,0,0,.24,0l0-.15c0-.06.11-.08.15-.14l0,0c0-.07.08-.15.12-.21v0l-.28.08c-.1.05-.19.14-.29.19l-.15,0h0l-.09.14a2.37,2.37,0,0,0-.3.23.72.72,0,0,0-.09.2l.11.08C48.93,20.33,48.93,20.33,49,20.28Z"/><polygon class="cls-2" points="38.01 4.89 38.01 4.96 38.5 4.77 38.84 4.67 39.52 4.35 39.52 4.29 39.47 4.27 38.64 4.61 38.01 4.89"/></g></g></svg>