<svg xmlns="http://www.w3.org/2000/svg" width="200" height="35.665" viewBox="0 0 200 35.665">
  <g id="flixbus" transform="translate(-1.34 -1.005)">
    <path id="Path_4734" data-name="Path 4734" d="M4.675,1.29A3.337,3.337,0,0,0,1.34,4.614V36.032h8.871V22.382H22.789a3.337,3.337,0,0,0,3.335-3.34V15.281H10.211v-5.22A1.62,1.62,0,0,1,11.83,8.439H26.9A3.337,3.337,0,0,0,30.236,5.1V1.29Z" transform="translate(0 0.176)" fill="#fff"/>
    <path id="Path_4735" data-name="Path 4735" d="M32.137,28.883a1.62,1.62,0,0,1-1.619-1.621V4.646A3.353,3.353,0,0,0,27.135,1.29H21.55V32.677A3.353,3.353,0,0,0,24.9,36.032H43.129a3.353,3.353,0,0,0,3.351-3.356V28.883Z" transform="translate(12.56 0.176)" fill="#fff"/>
    <path id="Path_4736" data-name="Path 4736" d="M48.247,30.919H39.36V12.8A3.351,3.351,0,0,1,42.695,9.47h5.553Z" transform="translate(23.62 5.289)" fill="#fff"/>
    <path id="Path_4737" data-name="Path 4737" d="M44.913,11.294H39.36V4.625A3.351,3.351,0,0,1,42.695,1.29h2.218a3.351,3.351,0,0,1,3.335,3.335V7.96a3.351,3.351,0,0,1-3.335,3.335" transform="translate(23.62 0.176)" fill="#fff"/>
    <path id="Path_4738" data-name="Path 4738" d="M86.281,30.384H80.146a3.24,3.24,0,0,1-3.238-3.242V21.306h9.373a4.523,4.523,0,0,1,0,9.046M76.94,6.926h8.337a4.053,4.053,0,0,1,0,8.106H79.806a2.884,2.884,0,0,1-2.865-2.87ZM95.783,18.906c-.194-.178-.728-.6-.874-.713a9.249,9.249,0,0,0,2.363-6.809c0-6.339-4.1-10.084-10.425-10.084H73.169A3.337,3.337,0,0,0,69.85,4.623V32.686a3.337,3.337,0,0,0,3.319,3.323H88.4c6.33,0,10.15-3.7,10.15-10.035a9.605,9.605,0,0,0-2.784-7.068" transform="translate(42.581 0.183)" fill="#fff"/>
    <path id="Path_4739" data-name="Path 4739" d="M117.167,1.28h-3.918a3.24,3.24,0,0,0-3.238,3.242V25.144c0,2.967-2.04,4.864-5.553,4.864H102.84c-3.513,0-5.553-1.978-5.553-4.864V1.28h-3.95A3.24,3.24,0,0,0,90.1,4.522V26.311c0,6.112,4.193,10.181,11.445,10.181h4.193c7.252,0,11.445-4.069,11.445-10.181Z" transform="translate(55.213 0.17)" fill="#fff"/>
    <path id="Path_4740" data-name="Path 4740" d="M119.425,8.361h11.218a3.337,3.337,0,0,0,3.319-3.323V1.26H119.393A10.611,10.611,0,0,0,109,11.879a10.319,10.319,0,0,0,10.344,10.278h4.581a3.372,3.372,0,0,1,0,6.728H109.356v3.777a3.337,3.337,0,0,0,3.319,3.323h11.332a10.611,10.611,0,0,0,10.425-10.619,10.3,10.3,0,0,0-10.263-10.278h-4.662a3.372,3.372,0,0,1,0-6.728" transform="translate(66.908 0.158)" fill="#fff"/>
    <path id="Path_4741" data-name="Path 4741" d="M69.927,22.068,63.986,13.78l-5.2,7.139,4.419,6.087a4.144,4.144,0,0,0,5.779.923h.1a4.144,4.144,0,0,0,.923-5.779" transform="translate(35.693 7.957)" fill="#fff"/>
    <path id="Path_4742" data-name="Path 4742" d="M68.017,18.83l-5.18-7.149L56.362,2.715a4.14,4.14,0,0,0-5.779-.924h-.1a4.154,4.154,0,0,0-.923,5.788l8.094,11.17L49.563,29.934a4.17,4.17,0,0,0,.907,5.8h.1a4.14,4.14,0,0,0,5.779-.924L61.2,28.232Z" transform="translate(29.473)" fill="#fff"/>
    <path id="Path_4743" data-name="Path 4743" d="M69.046,1.83h-.1a4.144,4.144,0,0,0-5.779.923L58.75,8.759,64.011,15.9l5.941-8.288a4.144,4.144,0,0,0-.923-5.779" transform="translate(35.668 0.025)" fill="#fff"/>
  </g>
</svg>
