<svg xmlns="http://www.w3.org/2000/svg" width="86" height="86" viewBox="0 0 86 86">
    <defs>
        <style>
            .cls-1{fill:#8ca0b3}
        </style>
    </defs>
    <g id="gears">
        <g id="Group_10" data-name="Group 10">
            <g id="Group_9" data-name="Group 9">
                <path id="Path_34" d="M44.14 53.281a1.358 1.358 0 0 0-1.809-.644 21.622 21.622 0 0 1-3.431 1.284 1.357 1.357 0 0 0-.965 1.041l-1.436 7.182A1.527 1.527 0 0 1 35 63.368h-3.917a1.527 1.527 0 0 1-1.493-1.224l-1.436-7.182a1.358 1.358 0 0 0-.965-1.041 21.575 21.575 0 0 1-4.769-1.976A1.358 1.358 0 0 0 21 52l-6.1 4.061a1.527 1.527 0 0 1-1.921-.19L10.212 53.1a1.527 1.527 0 0 1-.19-1.921l4.063-6.095a1.357 1.357 0 0 0 .053-1.42 21.569 21.569 0 0 1-1.975-4.764 1.357 1.357 0 0 0-1.041-.965l-7.183-1.441A1.527 1.527 0 0 1 2.715 35v-3.918a1.527 1.527 0 0 1 1.224-1.493l7.182-1.436a1.358 1.358 0 0 0 1.041-.965 21.575 21.575 0 0 1 1.976-4.769A1.358 1.358 0 0 0 14.085 21l-4.062-6.1a1.527 1.527 0 0 1 .19-1.921l2.771-2.771a1.527 1.527 0 0 1 1.921-.19L21 14.085a1.358 1.358 0 0 0 1.42.053 21.575 21.575 0 0 1 4.769-1.976 1.357 1.357 0 0 0 .965-1.041l1.436-7.182a1.527 1.527 0 0 1 1.493-1.224H35a1.527 1.527 0 0 1 1.493 1.224l1.436 7.182a1.358 1.358 0 0 0 .965 1.041 21.575 21.575 0 0 1 4.769 1.976 1.358 1.358 0 0 0 1.42-.053l6.095-4.063a1.527 1.527 0 0 1 1.921.19l2.771 2.771a1.527 1.527 0 0 1 .19 1.921L52 21a1.357 1.357 0 0 0-.053 1.42 21.575 21.575 0 0 1 1.976 4.769 1.357 1.357 0 0 0 1.041.965l7.182 1.436a1.527 1.527 0 0 1 1.224 1.493V35a1.527 1.527 0 0 1-1.224 1.493l-7.182 1.436a1.358 1.358 0 0 0-1.041.966 21.613 21.613 0 0 1-1.323 3.518 1.358 1.358 0 0 0 2.448 1.175 24.353 24.353 0 0 0 1.25-3.154l6.381-1.276A4.25 4.25 0 0 0 66.084 35v-3.917a4.25 4.25 0 0 0-3.407-4.156L56.3 25.65a24.3 24.3 0 0 0-1.585-3.824l3.61-5.415a4.25 4.25 0 0 0-.53-5.348l-2.774-2.771a4.25 4.25 0 0 0-5.348-.53l-5.415 3.61a24.314 24.314 0 0 0-3.824-1.585l-1.277-6.38A4.249 4.249 0 0 0 35 0h-3.917a4.25 4.25 0 0 0-4.156 3.407l-1.276 6.381a24.3 24.3 0 0 0-3.824 1.585l-5.415-3.61a4.25 4.25 0 0 0-5.348.53l-2.772 2.77a4.25 4.25 0 0 0-.53 5.348l3.61 5.415a24.308 24.308 0 0 0-1.585 3.824l-6.38 1.277A4.249 4.249 0 0 0 0 31.083V35a4.25 4.25 0 0 0 3.407 4.156l6.381 1.276a24.3 24.3 0 0 0 1.585 3.824l-3.61 5.415a4.25 4.25 0 0 0 .53 5.348l2.771 2.771a4.25 4.25 0 0 0 5.348.53l5.415-3.61a24.308 24.308 0 0 0 3.824 1.59l1.276 6.381a4.25 4.25 0 0 0 4.156 3.407H35a4.25 4.25 0 0 0 4.156-3.407l1.278-6.381a24.327 24.327 0 0 0 3.066-1.21 1.358 1.358 0 0 0 .64-1.809z" class="cls-1" data-name="Path 34"/>
                <path id="Path_35" d="M48.637 43.688a1.357 1.357 0 0 0 1.828-.589 15.265 15.265 0 0 0-24.244-17.886 1.358 1.358 0 1 0 1.9 1.945 12.551 12.551 0 0 1 19.932 14.7 1.358 1.358 0 0 0 .584 1.83z" class="cls-1" data-name="Path 35" transform="translate(-3.833 -3.101)"/>
                <path id="Path_36" d="M23.432 31.969a1.358 1.358 0 0 0-1.726.842 15.267 15.267 0 0 0 23.381 17.338 1.358 1.358 0 0 0-1.593-2.2 12.554 12.554 0 0 1-19.22-14.255 1.357 1.357 0 0 0-.842-1.725z" class="cls-1" data-name="Path 36" transform="translate(-3.101 -4.737)"/>
                <path id="Path_37" d="M90.65 66.609l-3.927-.785a16.427 16.427 0 0 0-.861-2.078l2.222-3.332a3.26 3.26 0 0 0-.406-4.1l-1.821-1.821a3.26 3.26 0 0 0-4.1-.406l-3.332 2.222a16.4 16.4 0 0 0-2.078-.861l-.785-3.927a3.259 3.259 0 0 0-3.188-2.613H69.8a3.26 3.26 0 0 0-3.188 2.613l-.785 3.927a16.45 16.45 0 0 0-2.078.861l-3.332-2.222a3.26 3.26 0 0 0-4.1.406l-1.821 1.821a3.26 3.26 0 0 0-.406 4.1l2.222 3.332a16.412 16.412 0 0 0-1.112 2.885 1.358 1.358 0 1 0 2.615.732 13.7 13.7 0 0 1 1.256-3.031 1.358 1.358 0 0 0-.053-1.42l-2.67-4.005a.536.536 0 0 1 .067-.675l1.821-1.821a.537.537 0 0 1 .675-.067l4.005 2.67a1.358 1.358 0 0 0 1.42.053 13.706 13.706 0 0 1 3.031-1.256 1.357 1.357 0 0 0 .965-1.041l.944-4.719a.536.536 0 0 1 .525-.43h2.575a.537.537 0 0 1 .525.43l.944 4.72a1.358 1.358 0 0 0 .965 1.041 13.7 13.7 0 0 1 3.031 1.256 1.358 1.358 0 0 0 1.42-.053l4.005-2.67a.536.536 0 0 1 .675.067l1.821 1.821a.537.537 0 0 1 .067.675l-2.67 4.005a1.357 1.357 0 0 0-.053 1.42 13.706 13.706 0 0 1 1.256 3.031 1.357 1.357 0 0 0 1.041.965l4.719.944a.536.536 0 0 1 .43.525v2.575a.537.537 0 0 1-.43.525l-4.72.944a1.358 1.358 0 0 0-1.041.965 13.7 13.7 0 0 1-1.261 3.03 1.358 1.358 0 0 0 .053 1.42l2.67 4.005a.536.536 0 0 1-.067.675l-1.821 1.821a.537.537 0 0 1-.675.067l-4.005-2.67a1.358 1.358 0 0 0-1.42-.053 13.706 13.706 0 0 1-3.031 1.256 1.357 1.357 0 0 0-.964 1.042l-.94 4.717a.536.536 0 0 1-.525.43H69.8a.537.537 0 0 1-.525-.43l-.944-4.72a1.358 1.358 0 0 0-.965-1.041 13.7 13.7 0 0 1-3.034-1.256 1.358 1.358 0 0 0-1.42.053l-4.005 2.67a.536.536 0 0 1-.675-.067l-1.821-1.821a.537.537 0 0 1-.067-.675l2.67-4.005a1.357 1.357 0 0 0 .053-1.42 13.706 13.706 0 0 1-1.256-3.031 1.357 1.357 0 0 0-1.041-.965l-4.719-.939a.536.536 0 0 1-.43-.525V69.8a.537.537 0 0 1 .43-.525l.289-.058a1.358 1.358 0 1 0-.533-2.663l-.289.058a3.26 3.26 0 0 0-2.613 3.188v2.575a3.26 3.26 0 0 0 2.613 3.188l3.927.785a16.449 16.449 0 0 0 .861 2.078l-2.222 3.332a3.259 3.259 0 0 0 .406 4.1l1.821 1.821a3.26 3.26 0 0 0 4.1.406l3.332-2.222a16.4 16.4 0 0 0 2.078.861l.785 3.927a3.26 3.26 0 0 0 3.194 2.612h2.575a3.26 3.26 0 0 0 3.188-2.613l.785-3.927a16.426 16.426 0 0 0 2.078-.861l3.332 2.222a3.26 3.26 0 0 0 4.1-.406l1.821-1.821a3.26 3.26 0 0 0 .406-4.1l-2.222-3.332a16.4 16.4 0 0 0 .861-2.078l3.927-.785a3.26 3.26 0 0 0 2.613-3.188V69.8a3.259 3.259 0 0 0-2.614-3.191z" class="cls-1" data-name="Path 37" transform="translate(-7.263 -7.263)"/>
                <path id="Path_38" d="M73.626 68.738a4.894 4.894 0 0 1 4.888 4.888 1.358 1.358 0 1 0 2.716 0 7.6 7.6 0 1 0-7.6 7.6 7.533 7.533 0 0 0 4.646-1.584 1.358 1.358 0 1 0-1.665-2.142 4.841 4.841 0 0 1-2.985 1.017 4.888 4.888 0 1 1 0-9.777z" class="cls-1" data-name="Path 38" transform="translate(-9.805 -9.805)"/>
                <path id="Path_39" d="M45.635 37.362a8.273 8.273 0 1 0-8.273 8.273 8.282 8.282 0 0 0 8.273-8.273zm-13.83 0a5.557 5.557 0 1 1 5.557 5.557 5.564 5.564 0 0 1-5.557-5.557z" class="cls-1" data-name="Path 39" transform="translate(-4.32 -4.32)"/>
            </g>
        </g>
    </g>
</svg>
