<svg xmlns="http://www.w3.org/2000/svg" xmlns:xlink="http://www.w3.org/1999/xlink" width="24" height="24" viewBox="0 0 24 24">
  <defs>
    <radialGradient id="radial-gradient" cx="0.274" cy="0.704" r="0" gradientUnits="objectBoundingBox">
      <stop offset="0" stop-color="#fff" stop-opacity="0.102"/>
      <stop offset="1" stop-color="#fff" stop-opacity="0"/>
    </radialGradient>
  </defs>
  <g id="google-authenticator-2" transform="translate(-26.852 -26.852)">
    <circle id="Ellipse_35" data-name="Ellipse 35" cx="12" cy="12" r="12" transform="translate(26.852 26.852)" fill="#616161"/>
    <path id="Path_1" data-name="Path 1" d="M38.984,46.61a7.626,7.626,0,1,1,5.392-13.018l3.081-3.081a11.983,11.983,0,1,0,0,16.949l-3.081-3.081A7.612,7.612,0,0,1,38.984,46.61Z" transform="translate(-0.133 -0.133)" fill="#9e9e9e"/>
    <path id="Path_2" data-name="Path 2" d="M884.539,876.913h-3.813a3.813,3.813,0,1,0-6.561,2.642l0,0,4.721,4.721h0a7.628,7.628,0,0,0,5.655-7.367Z" transform="translate(-838.062 -838.062)" fill="#424242"/>
    <path id="Path_3" data-name="Path 3" d="M1482.112,1268h-4.358a7.63,7.63,0,0,1-5.654,7.367l3.365,3.365A11.984,11.984,0,0,0,1482.112,1268Z" transform="translate(-1431.277 -1229.148)" fill="#616161"/>
    <path id="Path_4" data-name="Path 4" d="M38.984,1272.816A11.984,11.984,0,0,1,27,1260.9c0,.023,0,.045,0,.069a11.984,11.984,0,0,0,23.968,0c0-.023,0-.045,0-.069a11.985,11.985,0,0,1-11.983,11.916Z" transform="translate(-0.133 -1222.117)" fill="rgba(33,33,33,0.1)"/>
    <path id="Path_5" data-name="Path 5" d="M1472.2,1275.367l.106.106a7.627,7.627,0,0,0,5.548-7.337V1268a7.63,7.63,0,0,1-5.654,7.367Z" transform="translate(-1431.376 -1229.148)" fill="rgba(255,255,255,0.05)"/>
    <g id="Group_1398" data-name="Group 1398" transform="translate(37.762 37.762)">
      <path id="Path_6" data-name="Path 6" d="M929.595,918.7h-9.806a1.089,1.089,0,0,0,0,2.179h9.8a1.089,1.089,0,0,0,0-2.179Z" transform="translate(-918.7 -918.7)" fill="#9e9e9e"/>
      <path id="Path_7" data-name="Path 7" d="M929.595,918.7h-9.806a1.089,1.089,0,0,0,0,2.179h9.8a1.089,1.089,0,0,0,0-2.179Z" transform="translate(-918.7 -918.7)" fill="#bdbdbd" opacity="0.5"/>
    </g>
    <g id="Group_1400" data-name="Group 1400" transform="translate(26.852 26.852)">
      <g id="Group_1399" data-name="Group 1399" transform="translate(1.378 1.378)">
        <circle id="Ellipse_36" data-name="Ellipse 36" cx="0.817" cy="0.817" r="0.817" transform="translate(0 9.806)" fill="#bdbdbd"/>
        <circle id="Ellipse_37" data-name="Ellipse 37" cx="0.817" cy="0.817" r="0.817" transform="translate(9.806)" fill="#bdbdbd"/>
        <circle id="Ellipse_38" data-name="Ellipse 38" cx="0.817" cy="0.817" r="0.817" transform="translate(9.806 19.61)" fill="#bdbdbd"/>
        <circle id="Ellipse_39" data-name="Ellipse 39" cx="0.817" cy="0.817" r="0.817" transform="translate(2.86 2.872)" fill="#bdbdbd"/>
        <circle id="Ellipse_40" data-name="Ellipse 40" cx="0.817" cy="0.817" r="0.817" transform="translate(2.86 16.751)" fill="#bdbdbd"/>
      </g>
      <circle id="Ellipse_41" data-name="Ellipse 41" cx="0.817" cy="0.817" r="0.817" transform="translate(18.128 18.128)" fill="#757575"/>
      <path id="Path_8" data-name="Path 8" d="M1156.289,1155.336h9.8a1.088,1.088,0,0,1,1.085,1.022c0-.023,0-.045,0-.069a1.089,1.089,0,0,0-1.089-1.089h-9.8a1.089,1.089,0,0,0-1.089,1.089.538.538,0,0,0,0,.069A1.087,1.087,0,0,1,1156.289,1155.336Z" transform="translate(-1144.289 -1144.289)" fill="rgba(255,255,255,0.2)"/>
      <path id="Path_9" data-name="Path 9" d="M1167.179,1275a1.09,1.09,0,0,1-1.085,1.022h-9.8A1.087,1.087,0,0,1,1155.2,1275a.533.533,0,0,0,0,.068,1.089,1.089,0,0,0,1.089,1.089h9.8a1.089,1.089,0,0,0,1.089-1.089A.557.557,0,0,0,1167.179,1275Z" transform="translate(-1144.289 -1262.932)" fill="rgba(33,33,33,0.2)"/>
      <path id="Path_10" data-name="Path 10" d="M485.926,391.385a7.605,7.605,0,0,1,5.392,2.234l3.148-3.15-.068-.069-3.081,3.081a7.626,7.626,0,0,0-13.018,5.392c0,.023,0,.045,0,.069a7.625,7.625,0,0,1,7.625-7.557Z" transform="translate(-473.926 -386.875)" fill="rgba(33,33,33,0.1)"/>
      <circle id="Ellipse_42" data-name="Ellipse 42" cx="12" cy="12" r="12" fill="url(#radial-gradient)"/>
    </g>
  </g>
</svg>
