<?xml version="1.0" encoding="UTF-8"?>
<svg xmlns="http://www.w3.org/2000/svg" xmlns:xlink="http://www.w3.org/1999/xlink" width="425.2pt" height="157.77pt" viewBox="0 0 425.2 157.77" version="1.1">
<defs>
<clipPath id="clip1">
  <path d="M 247 93 L 307 93 L 307 157.769531 L 247 157.769531 Z M 247 93 "/>
</clipPath>
<clipPath id="clip2">
  <path d="M 326 93 L 425.199219 93 L 425.199219 157 L 326 157 Z M 326 93 "/>
</clipPath>
</defs>
<g id="surface1">
<path style=" stroke:none;fill-rule:nonzero;fill:rgb(92.155457%,35.68573%,14.509583%);fill-opacity:1;" d="M 66.75 66.757813 L 66.75 79.785156 C 93.125 56.351563 160.546875 31.222656 197.179688 28.414063 L 197.179688 0.00390625 C 114.808594 19.050781 72.222656 60.082031 66.75 66.757813 "/>
<path style=" stroke:none;fill-rule:nonzero;fill:rgb(92.155457%,35.68573%,14.509583%);fill-opacity:1;" d="M 0 23.644531 L 0.0273438 45.449219 C 13.824219 49.347656 35.597656 65.191406 47.660156 79.785156 L 47.660156 66.757813 C 35.371094 43.058594 8.667969 27.238281 0 23.640625 "/>
<path style=" stroke:none;fill-rule:nonzero;fill:rgb(48.626709%,48.234558%,48.234558%);fill-opacity:1;" d="M 198.054688 60.8125 L 198.054688 115.238281 L 198.3125 115.238281 L 215.257813 95.820313 L 237.351563 95.769531 L 214.101563 122.160156 L 239.664063 156.464844 L 217.230469 156.464844 L 198.3125 129.980469 L 198.054688 129.980469 L 198.054688 156.464844 L 178.351563 156.464844 L 178.351563 70.761719 C 178.351563 70.761719 182.984375 62.824219 198.054688 60.8125 "/>
<path style=" stroke:none;fill-rule:nonzero;fill:rgb(48.626709%,48.234558%,48.234558%);fill-opacity:1;" d="M 19.703125 156.382813 L 0.0117188 156.382813 L 0.0117188 69.167969 C 0.980469 69.503906 13.59375 72.371094 19.703125 82.226563 "/>
<path style=" stroke:none;fill-rule:nonzero;fill:rgb(48.626709%,48.234558%,48.234558%);fill-opacity:1;" d="M 47.589844 156.464844 L 67.292969 156.464844 L 67.292969 95.742188 L 47.589844 95.742188 Z M 47.589844 156.464844 "/>
<path style=" stroke:none;fill-rule:nonzero;fill:rgb(48.626709%,48.234558%,48.234558%);fill-opacity:1;" d="M 110.664063 95.710938 L 112.320313 101.011719 C 118.585938 96.179688 125.632813 93.308594 133.851563 93.308594 C 143.507813 93.308594 154.339844 98.527344 154.339844 115.753906 L 154.339844 156.464844 L 134.636719 156.464844 L 134.636719 121.234375 C 134.636719 115.882813 133.464844 109.882813 126.546875 109.882813 C 122.503906 109.882813 118.0625 111.054688 113.234375 114.1875 L 113.234375 156.464844 L 93.535156 156.464844 L 93.535156 95.707031 "/>
<g clip-path="url(#clip1)" clip-rule="nonzero">
<path style=" stroke:none;fill-rule:nonzero;fill:rgb(48.626709%,48.234558%,48.234558%);fill-opacity:1;" d="M 276.308594 107.53125 C 269.785156 107.53125 266.132813 113.535156 266.132813 118.234375 L 286.746094 118.234375 C 286.355469 113.011719 283.484375 107.53125 276.308594 107.53125 M 266.78125 131.28125 C 267.175781 138.851563 275.261719 142.371094 282.179688 142.371094 C 288.3125 142.371094 292.617188 141.460938 299.144531 138.195313 L 303.578125 150.59375 C 294.96875 156.203125 286.355469 157.769531 279.046875 157.769531 C 256.082031 157.769531 247.078125 142.109375 247.078125 126.324219 C 247.078125 108.96875 257.648438 93.3125 277.09375 93.3125 C 294.316406 93.3125 306.710938 105.964844 306.710938 125.148438 L 306.710938 131.28125 "/>
</g>
<g clip-path="url(#clip2)" clip-rule="nonzero">
<path style=" stroke:none;fill-rule:nonzero;fill:rgb(48.626709%,48.234558%,48.234558%);fill-opacity:1;" d="M 343.046875 95.839844 L 344.554688 101.011719 C 350.296875 96.703125 357.34375 93.308594 364.78125 93.308594 C 372.609375 93.308594 378.351563 96.441406 381.613281 101.921875 C 389.050781 95.917969 396.882813 93.308594 403.273438 93.308594 C 414.628906 93.308594 425.195313 98.789063 425.195313 116.015625 L 425.195313 156.464844 L 405.492188 156.464844 L 405.492188 121.105469 C 405.492188 115.101563 404.578125 109.882813 397.269531 109.882813 C 393.488281 109.882813 389.050781 111.316406 385.527344 113.929688 L 385.527344 156.464844 L 365.824219 156.464844 L 365.824219 121.363281 C 365.824219 115.359375 365.039063 109.882813 357.734375 109.882813 C 353.949219 109.882813 349.382813 111.316406 345.859375 113.929688 L 345.859375 156.464844 L 326.15625 156.464844 L 326.15625 95.703125 "/>
</g>
</g>
</svg>
