<?xml version="1.0" encoding="UTF-8"?> <!-- Generator: Adobe Illustrator 22.1.0, SVG Export Plug-In . SVG Version: 6.00 Build 0) --> <svg xmlns="http://www.w3.org/2000/svg" xmlns:xlink="http://www.w3.org/1999/xlink" id="Layer_1" x="0px" y="0px" viewBox="0 0 285 75" style="enable-background:new 0 0 285 75;" xml:space="preserve"> <style type="text/css"> .st0{fill:#F26522;} .st1{fill:#010101;} .st2{fill:#FFFFFF;} .st3{fill:none;} .st4{fill:#C8541A;} </style> <g> <g> <path class="st0" d="M74.5,57.6c-0.9-2-3.7-2.9-5.9-2.9c-3.2,0-7.4,0.9-7.6,4.7c-0.1,2.3,2.7,3,5.8,3.6c3.9,0.8,8,1.8,7,6.4 c-1,4.8-5.9,5.7-9.5,5.7c-3.3,0-6.9-1.4-7.9-4.6l1.5-0.7c0.8,2.7,3.9,3.8,6.6,3.8c2.6,0,6.9-0.7,7.7-4.4c0.7-3.1-2.7-4-6-4.6 C63,63.7,59.7,63,59.5,60c-0.3-4.2,3.8-6.8,9.2-6.8c3.2,0,6.1,1.2,7.1,3.6L74.5,57.6z"></path> <path class="st0" d="M99.1,54.9h-7.7l0.3-1.5h17l-0.3,1.5h-7.7l-4.1,19.8h-1.6L99.1,54.9z"></path> <path class="st0" d="M142,64.1c-1,5.6-5.8,10.9-13,10.9c-6.5,0-8.8-4.4-8.6-9.1c0.2-6.3,5.1-12.8,13.3-12.8 C140.8,53.1,143,58.3,142,64.1z M122.1,67.7c0.5,3.2,2.6,5.8,7.2,5.8c6.8,0,11.1-5.7,11.4-11.1c0.2-4.7-2.1-7.8-7.4-7.8 C125.8,54.6,121.3,61.4,122.1,67.7z"></path> <path class="st0" d="M174.3,74.6h-2.1l-5.6-8h-5.9l-1.7,8h-1.6l4.5-21.2c3.1,0,6.2,0,9.3,0c4.3,0,5.9,3,5.5,6.1 c-0.5,3.7-2.9,6.9-8.2,7L174.3,74.6z M161,65.1h7.5c3.7,0,5.8-2.1,6.5-5.1c0.5-2.5-0.5-5.1-4.2-5.1h-7.7L161,65.1z"></path> <path class="st0" d="M195.4,63.2h12.4l-0.3,1.5h-12.4l-1.8,8.4h13.4l-0.3,1.6h-15l4.5-21.2h14.6l-0.3,1.5h-13L195.4,63.2z"></path> </g> <path class="st0" d="M52.5,23.1c2.5-0.6,4.5-1.9,5.9-4c1.4-2.1,2.1-4.3,2.1-6.8c0-3-1.1-5.5-3.2-7.4c-2.1-2-4.8-3-8.2-3H29L27,12.1 v0l10.8,8.2l1.6-8.2h0.9h4.4c2.3,0,3.8,1.4,3.8,3.6c0,2.4-2,4.6-4.6,4.6h-3.5h-2.6H25.3l-1.7,8.6l-1.8,8.8l-2.1,10.3h25.2 c4.5,0,8.1-1.5,10.8-4.5c2.7-3,4.1-6.6,4.1-10.7C59.7,28.2,57.5,24.4,52.5,23.1z M42.7,37.6h-3.8h-4.5l1.8-8.8h2.8h4.6 c2.4,0,4.1,1.5,4.1,3.8C47.6,35.3,45.5,37.6,42.7,37.6z"></path> <path class="st0" d="M129.3,30.4c1.2,1.1,2.8,1.7,4.8,1.7c2.2,0,4-0.8,5.6-2.4c1.6-1.6,2.3-3.4,2.3-5.4c0-1.8-0.6-3.4-1.8-4.5 c-1.2-1.2-2.8-1.8-4.7-1.8c-2.1,0-4,0.8-5.5,2.4c-1.6,1.6-2.4,3.4-2.4,5.5C127.5,27.7,128.1,29.2,129.3,30.4z"></path> <path class="st1" d="M62.1,47.9L71.5,2h19.3c4.5,0,8.2,1.4,11.1,4.1c2.9,2.7,4.3,6.2,4.3,10.5c0,4.7-1.8,9-5.3,12.6 c-3.5,3.6-7.8,5.4-13,5.4H77.4l-2.7,13.3H62.1z M79.7,23.3h8.6c3,0,5.4-2.8,5.4-5.7c0-2.4-1.8-4.3-4.5-4.3h-7.5L79.7,23.3z"></path> <path class="st1" d="M112.5,14.7c2.4-4,5.8-7.2,10.1-9.7c4.3-2.4,9-3.7,14-3.7c6.9,0,12.6,2,17.1,6.1c4.5,4,6.8,9.2,6.8,15.4 c0,6.8-2.6,12.9-7.9,18.2c-5.3,5.2-11.9,7.8-19.8,7.8c-7,0-12.7-2-17.3-6c-4.5-4-6.7-9.2-6.7-15.4 C108.9,22.9,110.1,18.7,112.5,14.7z M125,34.5c2.2,2,5,3.1,8.5,3.1c3.9,0,7.2-1.4,9.9-4.2c2.8-2.8,4.1-6,4.1-9.5 c0-3.3-1.1-6-3.3-8.1c-2.2-2.2-5-3.2-8.4-3.2c-3.8,0-7,1.4-9.9,4.2c-2.8,2.8-4.2,6.1-4.2,9.7C121.8,29.8,122.8,32.5,125,34.5z"></path> <path class="st1" d="M162,47.9L171.3,2h12.5l-9.4,45.9H162z"></path> <path class="st1" d="M184.1,47.9l9.7-47.7l23.7,33.1L223.9,2h12l-12,58.7L200,28.9l-3.9,19H184.1z"></path> <polygon class="st0" points="245.1,35.9 242.7,47.9 255.2,47.9 257.6,35.9 "></polygon> <polygon class="st1" points="239.7,2 237.3,13.3 249.7,13.3 245.4,34.5 257.9,34.5 262.2,13.3 274.4,13.3 276.7,2 "></polygon> <g> <path class="st0" d="M136.8,49.4c-0.9,0-1.6-0.7-1.7-1.6l-1.3-22.2c0-0.5,0.1-0.9,0.4-1.2c0.3-0.3,0.8-0.5,1.2-0.5 c0.3,0,0.6,0.1,0.9,0.3l18.7,12c0.6,0.4,0.9,1,0.7,1.7c-0.1,0.7-0.6,1.2-1.3,1.3l-8.9,1.7c-0.6,0.1-1.2,0.4-1.6,0.9l-5.9,7 C137.8,49.2,137.3,49.4,136.8,49.4z"></path> <path class="st2" d="M135.5,24.8c0.1,0,0.3,0,0.4,0.1l9.5,6.1l9.2,5.9c0.6,0.4,0.4,1.3-0.3,1.4l-8.9,1.7c-0.8,0.2-1.6,0.6-2.1,1.2 l-5.9,7c-0.2,0.2-0.4,0.3-0.6,0.3c-0.4,0-0.8-0.3-0.8-0.7l-0.6-10.9l-0.7-11.3C134.7,25.2,135.1,24.8,135.5,24.8 M135.5,23.1 L135.5,23.1c-0.7,0-1.4,0.3-1.9,0.8c-0.5,0.5-0.7,1.2-0.7,1.9l0.7,11.3l0.6,10.9c0.1,1.3,1.2,2.4,2.5,2.4c0.7,0,1.4-0.3,1.9-0.9 l5.9-7c0.3-0.3,0.7-0.6,1.1-0.6l8.9-1.7c1-0.2,1.8-1,2-2c0.2-1-0.2-2.1-1.1-2.6l-9.2-5.9l-9.5-6.1C136.5,23.2,136,23.1,135.5,23.1 L135.5,23.1z"></path> </g> <path class="st3" d="M44.8,12.1h-5.3l-1.6,8.2h6.1c2.6,0,4.6-2.2,4.6-4.6C48.5,13.6,47.1,12.1,44.8,12.1z"></path> <path class="st4" d="M154.6,37l-9.2-5.9l-9.5-6.1c-0.3-0.2-0.6-0.2-0.8,0l9,15.6c0.4-0.2,0.8-0.4,1.2-0.5l8.9-1.7 C155,38.3,155.2,37.4,154.6,37z"></path> <path class="st3" d="M43.4,28.9h-4.6h-2.8l-1.8,8.8h4.5h3.8c2.8,0,4.9-2.3,4.9-4.9C47.6,30.4,45.9,28.9,43.4,28.9z"></path> <polygon class="st4" points="39.4,12.1 27,12.1 27,12.1 37.8,20.3 "></polygon> </g> </svg> 