<svg xmlns="http://www.w3.org/2000/svg" width="174.271" height="37.621" viewBox="0 0 174.271 37.621">
  <g id="Group_1349" data-name="Group 1349" transform="translate(-171.847 -378.643)">
    <path id="Path_1" data-name="Path 1" d="M707.725,637.266,706.894,640h-2.85l2.876-9.6h4.844a3.887,3.887,0,0,1,1.182.18,2.436,2.436,0,0,1,1,.619,1.936,1.936,0,0,1,.4.632,2.046,2.046,0,0,1,.14.748,5.249,5.249,0,0,1-.217,1.5,5.447,5.447,0,0,1-.626,1.379,6.858,6.858,0,0,1-.511.677,3.923,3.923,0,0,1-.613.58,3.157,3.157,0,0,1-.709.406,2.051,2.051,0,0,1-.786.155Zm2.007-1.973a2.756,2.756,0,0,0,.588-.051,1.418,1.418,0,0,0,.39-.142,1.029,1.029,0,0,0,.268-.213l.224-.251a2.374,2.374,0,0,0,.454-.722,2.272,2.272,0,0,0,.16-.851.99.99,0,0,0-.057-.322,1.086,1.086,0,0,0-.16-.3.847.847,0,0,0-.243-.219.613.613,0,0,0-.319-.084h-1.777l-.958,3.158Zm14.123.084a20.641,20.641,0,0,1-.984,2.817,2.845,2.845,0,0,1-.946,1.16,3.268,3.268,0,0,1-1.368.58q-.6.1-1.195.155t-1.2.052q-.435,0-.907-.019a6.758,6.758,0,0,1-.933-.1,4.479,4.479,0,0,1-.863-.245,2.186,2.186,0,0,1-.7-.438,1.731,1.731,0,0,1-.441-.683,2.3,2.3,0,0,1-.1-.986,11.252,11.252,0,0,1,.224-1.386q.16-.715.371-1.425t.454-1.386q.243-.677.486-1.27a2.248,2.248,0,0,1,.428-.658,2.919,2.919,0,0,1,.831-.612,5.341,5.341,0,0,1,1.336-.451,9.342,9.342,0,0,1,1.943-.174q.562,0,1.221.026a5.4,5.4,0,0,1,1.253.193,2.958,2.958,0,0,1,1.054.535,1.861,1.861,0,0,1,.626,1.063v.348A25.284,25.284,0,0,1,723.854,635.378Zm-2.952-.129a19.127,19.127,0,0,0,.562-2.2.567.567,0,0,0-.064-.47.752.752,0,0,0-.352-.258,1.921,1.921,0,0,0-.492-.109q-.268-.026-.46-.026a4.724,4.724,0,0,0-.473.026,2.1,2.1,0,0,0-.492.109,1.54,1.54,0,0,0-.428.232.856.856,0,0,0-.281.393q-.383,1.006-.716,2.076t-.562,2.166a.877.877,0,0,0-.006.458.735.735,0,0,0,.2.335.855.855,0,0,0,.358.2,1.211,1.211,0,0,0,.473.039q.243,0,.556-.019a3.045,3.045,0,0,0,.6-.1,1.423,1.423,0,0,0,.5-.245.768.768,0,0,0,.281-.464Q720.557,636.325,720.9,635.249Zm5.675-4.854h2.85l-2.876,9.6h-2.888Zm9.611,5.569,1.687-5.569h2.735l-2.85,9.6h-3.4l-1.342-6.678L731.025,640H728.2l2.863-9.6h2.863a1.559,1.559,0,0,1,.46.071,1.492,1.492,0,0,1,.422.206,1.442,1.442,0,0,1,.326.316,1.07,1.07,0,0,1,.185.413Zm12.781-3.3h-2.377l-2.2,7.335h-2.888l2.224-7.335a12.073,12.073,0,0,0-1.617.045,4.044,4.044,0,0,0-1.01.225,1.913,1.913,0,0,0-.62.374,4.655,4.655,0,0,0-.435.477.144.144,0,0,1-.16.051.084.084,0,0,1-.07-.116q.422-.812.831-1.444a4.393,4.393,0,0,1,.952-1.063,3.744,3.744,0,0,1,1.291-.651,6.45,6.45,0,0,1,1.86-.206v.026h4.908Z" transform="translate(-472.935 -223.877)" fill="#fff" opacity="0.7"/>
    <path id="Path_2" data-name="Path 2" d="M380.277,591.881a236.112,236.112,0,0,1,66.29,9.437,199.794,199.794,0,0,0-132.58,0A236.112,236.112,0,0,1,380.277,591.881Z" transform="translate(-126.028 -188.031)" fill="#fff" opacity="0.7"/>
    <g id="Group_3" data-name="Group 3" transform="translate(171.847 378.643)" opacity="0.6">
      <path id="Path_3" data-name="Path 3" d="M1093.46,386.585a.565.565,0,0,0,.545-.159,7.723,7.723,0,0,1,2.092-1.272,15.714,15.714,0,0,1,2.92-.89l-7.4,17.539q4.719.468,9.4,1.157h7.156q2.354,0,4.054-.143a21.461,21.461,0,0,0,2.833-.4,12.194,12.194,0,0,0,4.664-2.13,8.622,8.622,0,0,0,2.833-3.625q1.787-3.974-2.7-5.532a12.249,12.249,0,0,0,2.4-.906,13.5,13.5,0,0,0,2.158-1.335,10.885,10.885,0,0,0,1.722-1.621,7.058,7.058,0,0,0,1.133-1.8,3.768,3.768,0,0,0,.109-3.132,4.85,4.85,0,0,0-2.2-2.273,3.834,3.834,0,0,0-1.112-.366q-.719-.143-1.656-.238t-2.005-.143q-1.068-.048-2.157-.079l.043-.064-8.718-.032a42.077,42.077,0,0,0-6.277.334,14.632,14.632,0,0,0-4.228,1.208,10.658,10.658,0,0,0-3.073,2.226,30.909,30.909,0,0,0-2.768,3.386C1093.162,386.447,1093.242,386.543,1093.46,386.585Zm15.322-2.893h7.628v-.032a2.164,2.164,0,0,1,.872.35,1.449,1.449,0,0,1,.654,2.1,3.973,3.973,0,0,1-1,1.288,6.326,6.326,0,0,1-1.613,1.033,5.852,5.852,0,0,1-1.569.461,18.18,18.18,0,0,1-2.354.111h-4.839Zm-4.01,9.538h4.969a16.243,16.243,0,0,1,2.245.111,4.3,4.3,0,0,1,1.286.4,1.418,1.418,0,0,1,.61,2.1,3.442,3.442,0,0,1-.959,1.288,6.317,6.317,0,0,1-1.613,1.033,7.513,7.513,0,0,1-.785.27,6.4,6.4,0,0,1-.828.175q-.436.064-1.024.1t-1.373.032H1102.5Z" transform="translate(-989.478 -379.143)" fill="#fff"/>
      <path id="Path_4" data-name="Path 4" d="M193.3,403.38a11.683,11.683,0,0,0,2.419-.986,12.6,12.6,0,0,0,2.092-1.431,18.864,18.864,0,0,0,1.744-1.669,7.47,7.47,0,0,0,1.046-1.574q.566-1.065,1.177-2.4t1.177-2.83q.566-1.494,1.024-2.862t.719-2.48a8.158,8.158,0,0,0,.261-1.749,3.843,3.843,0,0,0-.479-1.844A4.875,4.875,0,0,0,203.132,382a8.786,8.786,0,0,0-3.422-1.542,18.61,18.61,0,0,0-4.032-.429H177.893l-9.546,23.751,22.274-.032A9.756,9.756,0,0,0,193.3,403.38Zm-3.749-4.817a5.883,5.883,0,0,1-1.351.27q-.807.08-1.983.08h-6.233l5.754-14.594h7.454a2.734,2.734,0,0,1,1.09.207,2.783,2.783,0,0,1,.828.541,2.542,2.542,0,0,1,.545.747,1.854,1.854,0,0,1,.2.795,4.423,4.423,0,0,1-.283,1.224q-.284.843-.719,1.924t-.959,2.273q-.523,1.192-1.046,2.257t-.959,1.876a9.628,9.628,0,0,1-.654,1.1,6.441,6.441,0,0,1-.763.795A2.821,2.821,0,0,1,189.553,398.563Z" transform="translate(-168.347 -379.929)" fill="#fff"/>
      <path id="Path_5" data-name="Path 5" d="M1443.161,379.452l-12.292,9.252-4.141-9.252H1417.4l7.323,13.354-4.359,10.4h9.59l4.272-10.238,19.267-13.513Z" transform="translate(-1279.221 -379.417)" fill="#fff"/>
      <path id="Path_6" data-name="Path 6" d="M497.135,388.021a.674.674,0,0,0,.479-.016.4.4,0,0,0,.218-.1A6.479,6.479,0,0,1,499.38,387a9.786,9.786,0,0,1,1.482-.461q.719-.159,1.395-.254a11.408,11.408,0,0,0,1.286-.254,34.543,34.543,0,0,0-2.332,4.563,33.405,33.405,0,0,0-1.591,4.753,7.89,7.89,0,0,0-.2,2.575,6.177,6.177,0,0,0,.763,2.544,5.65,5.65,0,0,0,1.94,2,7.119,7.119,0,0,0,3.335.986q2.331.186,4.657.259,6.981-1.14,14.052-1.786l1.823-4.64a62.277,62.277,0,0,1-7.367.588,56.312,56.312,0,0,1-7.454-.334,1.94,1.94,0,0,1-1.09-.477.9.9,0,0,1-.392-.858,6.987,6.987,0,0,1,.436-1.463,14.865,14.865,0,0,0,.523-1.462h12.292l1.918-4.547q-3.749,0-5.994-.016t-3.509-.016q-1.221,0-1.765.016t-.937.048a4.54,4.54,0,0,0,.763-1.065,9.884,9.884,0,0,1,.741-1.192,4.131,4.131,0,0,1,.981-.97,2.447,2.447,0,0,1,1.438-.4h13.862l2.354-5.691H514.048a24.517,24.517,0,0,0-5.645.6,19.781,19.781,0,0,0-4.642,1.7,17.978,17.978,0,0,0-3.771,2.623A20.831,20.831,0,0,0,497,387.75C496.917,387.878,496.961,387.968,497.135,388.021Z" transform="translate(-460.608 -379.418)" fill="#fff"/>
      <path id="Path_7" data-name="Path 7" d="M799.407,401.888l1.915-4.627h6.015l2.184,4.69q4.725.147,9.419.515l-2.624-5.841a12.4,12.4,0,0,0,3.03-1.669,15.674,15.674,0,0,0,2.376-2.178,11.253,11.253,0,0,0,2.158-3.4,9.921,9.921,0,0,0,.719-3.688,3.666,3.666,0,0,0-.828-2.385,6.544,6.544,0,0,0-2.136-1.685,11.09,11.09,0,0,0-2.964-.986,17.57,17.57,0,0,0-3.313-.318H798.924l-9.1,21.974Q794.6,401.975,799.407,401.888Zm7.146-17.281h6.015a2.9,2.9,0,0,1,1.111.207,2.718,2.718,0,0,1,.85.54,2.543,2.543,0,0,1,.545.747,1.854,1.854,0,0,1,.2.795,4.274,4.274,0,0,1-.545,2.1,5.972,5.972,0,0,1-1.547,1.781l-.763.62a3.576,3.576,0,0,1-.915.525,6.134,6.134,0,0,1-1.351.35,13.375,13.375,0,0,1-2.027.127h-4.795Z" transform="translate(-721.074 -380.184)" fill="#fff"/>
    </g>
  </g>
</svg>
