<svg xmlns="http://www.w3.org/2000/svg" viewBox="0 0 350 52.38"><defs><style>.cls-1{fill:#fff;}.cls-2{opacity:0.6;}.cls-3{fill:none;}</style></defs><g id="Layer_2" data-name="Layer 2"><g id="Layer_1-2" data-name="Layer 1"><rect class="cls-1" x="62.4" y="7.59" width="5.68" height="33.48"/><path class="cls-1" d="M120.33,24h10.93c7.2,0,7.15-10.75,0-10.75H120.33V7.93h10.93c7.48,0,11.22,5.35,11.22,10.75a10.39,10.39,0,0,1-9.85,10.65c-.56,0-1.37,0-2.69,0H126v11.7h-5.68Z"/><path class="cls-1" d="M148,13.23V7.93h21.44v5.3Zm0,13.92v-5.3h21.44v5.3Zm0,8.61h21.44v5.31H148Z"/><path class="cls-1" d="M175.85,41.07V7.93H185c1.33,0,2.13,0,2.7.05,11.36,1,12.83,14.15,4.59,18.55-.69.41-1.1.71-1.1.71l9.7,13.83H194l-9.2-13.83V22.51h1.47c7.19,0,7.14-9.23,0-9.23h-4.78V41.07Z"/><rect class="cls-1" x="206.14" y="7.93" width="5.68" height="33.13"/><path class="cls-1" d="M217.1,41.07,232.51,7.46h1l15.4,33.61H243l-2.16-4.64H229.31l2.5-5.3h6.68L233,19.39,223,41.07Z"/><polygon class="cls-1" points="259.86 35.76 259.86 7.93 259.86 7.93 254.18 7.93 254.18 35.76 254.18 39 254.18 41.06 270.51 41.06 270.51 35.76 259.86 35.76"/><polygon class="cls-1" points="108.64 7.93 106.73 7.93 94.2 31.57 81.67 7.93 79.76 7.93 74.8 41.06 80.38 41.06 83.22 22.07 93.27 41.06 95.13 41.06 105.18 22.07 108.03 41.06 113.6 41.06 108.64 7.93"/><path class="cls-1" d="M94.16,5.16h0S94.17,5.14,94.16,5.16Z"/><path class="cls-1" d="M99.83,9.34c-3.91,1.19-5.67-4.18-5.67-4.18s-1.75,5.37-5.66,4.18a13.77,13.77,0,0,1-3.11-1.51L94.2,24.51l8.74-16.68A13.77,13.77,0,0,1,99.83,9.34Z"/><path class="cls-1" d="M48.38,29.18h2.2a2.6,2.6,0,0,1,.83.21.45.45,0,0,1,.3.59,2.67,2.67,0,0,1-.86,1.44,17.48,17.48,0,0,1-4.52,2.79l-.24.07c.16-.34.29-.62.43-.89a20.38,20.38,0,0,0,1.51-4c0-.19.13-.26.35-.26m0-.22a.51.51,0,0,0-.57.42,19.35,19.35,0,0,1-1.49,3.92l-.29.58-.15.32a.23.23,0,0,0,.21.33h.06l.12,0,.15,0A17.15,17.15,0,0,0,51,31.61a3,3,0,0,0,.93-1.55.68.68,0,0,0-.43-.86,3.12,3.12,0,0,0-.91-.23H48.38Z"/><path class="cls-1" d="M4.86,29.18a.71.71,0,0,1,.34.07c.17.09.15.4.19.62A19.42,19.42,0,0,0,6.87,34a.81.81,0,0,1,.07.22l-.1.06c-.69-.4-1.4-.78-2.07-1.2a5.77,5.77,0,0,1-2.35-2.35,5.46,5.46,0,0,1-.26-.67c-.1-.27,0-.48.37-.55.59-.12,1.2-.22,1.8-.3a4.75,4.75,0,0,1,.53-.05m0-.22h0a4.38,4.38,0,0,0-.52,0h0c-.67.08-1.26.18-1.81.3a.71.71,0,0,0-.52.33.66.66,0,0,0,0,.52,6,6,0,0,0,.27.68A5.88,5.88,0,0,0,4.65,33.3c.47.29,1,.56,1.44.83l.64.37a.23.23,0,0,0,.11,0,.28.28,0,0,0,.13,0l0,0,0,0a.25.25,0,0,0,.1-.25l0-.06a.89.89,0,0,0-.06-.2,19.07,19.07,0,0,1-1.47-4.1c0-.05,0-.1,0-.16a.69.69,0,0,0-.28-.61A1,1,0,0,0,4.86,29Z"/><path class="cls-1" d="M51.83,30c0,.26.09.51.14.76q.51,2.6,1,5.19c.12.67.2,1.34.3,2a.22.22,0,0,1-.14.26A56.15,56.15,0,0,1,46,41.56a50.11,50.11,0,0,1-6.19,1.88c-1.42.32-2.85.62-4.29.85-1.2.2-2.41.33-3.62.43s-2.47.17-3.7.22c-.53,0-1.07,0-1.6,0h-.78c-1.27,0-2.53-.1-3.79-.21s-2.66-.29-4-.49a47.91,47.91,0,0,1-6.59-1.48A54.93,54.93,0,0,1,.5,38.28c-.31-.17-.31-.17-.23-.52.58-2.5,1.15-5,1.73-7.5a1.89,1.89,0,0,1,.06-.21A4.3,4.3,0,0,0,3.73,32.5a14.67,14.67,0,0,0,3.83,2.17,32.9,32.9,0,0,0,4.82,1.53,46.12,46.12,0,0,0,4.66.89c1.14.16,2.29.28,3.44.38s2,.16,3.05.22c.84,0,1.69.07,2.53.09s1.47,0,2.21,0h.9c1.13,0,2.26-.11,3.39-.2s2.26-.18,3.38-.35c1.27-.19,2.53-.41,3.78-.71,1.47-.35,2.94-.73,4.37-1.2a20.47,20.47,0,0,0,6.73-3.68c.13-.12.26-.23.38-.36A2.11,2.11,0,0,0,51.83,30m0-.23h0a.24.24,0,0,0-.21.22A1.86,1.86,0,0,1,51,31.15a3.06,3.06,0,0,1-.36.33A20.16,20.16,0,0,1,44,35.12c-1.24.41-2.58.78-4.35,1.2-1.12.26-2.35.5-3.76.71-1.07.16-2.11.25-3.37.35s-2.38.16-3.38.19h-.89l-1.75,0h-.46c-1,0-1.76,0-2.51-.09-1-.05-2-.12-3.05-.21-1.38-.13-2.44-.25-3.43-.39A45.13,45.13,0,0,1,12.44,36a33.09,33.09,0,0,1-4.79-1.52,14.13,14.13,0,0,1-3.77-2.14A4.07,4.07,0,0,1,2.28,30a.22.22,0,0,0-.21-.18h0a.24.24,0,0,0-.22.16l0,.09a1.27,1.27,0,0,1,0,.14l-.9,3.93L.05,37.71c-.11.45-.06.55.34.77A56.5,56.5,0,0,0,11.33,43,48.13,48.13,0,0,0,18,44.49c1.52.23,2.79.39,4,.5s2.58.16,3.8.2l.79,0c.48,0,1,0,1.61,0,1.14-.05,2.44-.11,3.71-.22,1-.08,2.32-.21,3.64-.43s2.72-.5,4.3-.86A49.1,49.1,0,0,0,46,41.77a55.51,55.51,0,0,0,7.23-3.3.44.44,0,0,0,.26-.5c0-.23-.07-.47-.1-.71-.06-.43-.13-.88-.21-1.32-.22-1.2-.46-2.42-.7-3.6-.1-.52-.2-1.05-.31-1.58l-.09-.52L52.05,30a.22.22,0,0,0-.22-.19Z"/><path class="cls-1" d="M32.7,34.3H20.83v-.75l1.49-.22a14.42,14.42,0,0,0,1.46-.27,1.13,1.13,0,0,0,.79-.9,7.34,7.34,0,0,0,.17-1.4c0-4.93,0-9.86,0-14.8a5.29,5.29,0,0,0-.13-1.05,1.62,1.62,0,0,0-1.49-1.25c-.72-.07-1.43-.17-2.15-.25-.11,0-.16-.05-.16-.17s0-.38,0-.59l.25,0H32.49c.16,0,.22,0,.21.21,0,.55,0,.55-.55.61l-1.72.22a1.61,1.61,0,0,0-1.36,1.39A13.82,13.82,0,0,0,29,16.64q0,6.84,0,13.69a5.86,5.86,0,0,0,.19,1.86,1.51,1.51,0,0,0,1.26,1.05c.71.12,1.43.2,2.14.29.11,0,.16,0,.15.17Z"/><path class="cls-1" d="M26.68,5.72l2.2,2.91a2,2,0,0,0,.94.77,1.82,1.82,0,0,0,1.51-.12l2.08-1.07.21-.09c-.11.42-.22.82-.33,1.21-.21.77-.44,1.53-.65,2.31,0,.14-.1.18-.24.18H20.93c-.16,0-.22-.05-.26-.21-.27-1.12-.55-2.23-.83-3.35,0,0,0-.07,0-.15l.8.41,1.46.76a1.79,1.79,0,0,0,2.32-.54c.7-.94,1.41-1.87,2.11-2.8Z"/><path class="cls-1" d="M7.57,39.46a1.66,1.66,0,0,0-.09.28.27.27,0,0,0,0,.15.22.22,0,0,0,0,.11.66.66,0,0,0,.17.14l-.06.14-1.17-.44,0-.13a.55.55,0,0,0,.27,0,.29.29,0,0,0,.13-.12,1.53,1.53,0,0,0,.13-.3l.89-2.4A1.42,1.42,0,0,0,8,36.59a.4.4,0,0,0,0-.15A.24.24,0,0,0,8,36.33a.86.86,0,0,0-.16-.13l.05-.14L9,36.49l0,.14a.65.65,0,0,0-.2,0,.21.21,0,0,0-.11,0,.25.25,0,0,0-.1.12,1.1,1.1,0,0,0-.12.28Z"/><path class="cls-1" d="M13.87,38.13a.58.58,0,0,0-.2,0l-.11,0a.36.36,0,0,0-.09.13,2,2,0,0,0-.1.28l-.72,2.45a2.2,2.2,0,0,0-.07.28.42.42,0,0,0,0,.16.23.23,0,0,0,.07.11l.17.12,0,.14-1.19-.35,0-.14a.59.59,0,0,0,.25,0,.27.27,0,0,0,.13-.13,2.91,2.91,0,0,0,.12-.32l.32-1.08c.08-.29.17-.58.26-.87l.21-.59h-.05l-1.95,2.48-.33-.09-.22-3.16,0,0-.16.64c-.08.3-.17.61-.26.93l-.31,1a1.8,1.8,0,0,0-.06.28.38.38,0,0,0,0,.15.34.34,0,0,0,.06.12l.17.12,0,.14-1-.3,0-.14a.58.58,0,0,0,.27,0,.26.26,0,0,0,.12-.13,2,2,0,0,0,.11-.31L10,37.61a2.25,2.25,0,0,0,.07-.29.24.24,0,0,0,0-.15.21.21,0,0,0-.06-.1.67.67,0,0,0-.17-.13l0-.13,1,.29.2,3L13,37.71l1,.28Z"/><path class="cls-1" d="M15,41.55a1.16,1.16,0,0,0,0,.28A.4.4,0,0,0,15,42a.2.2,0,0,0,.08.12l.2.1,0,.15-1.28-.26L14,42a.57.57,0,0,0,.26-.06.33.33,0,0,0,.12-.14c0-.07.05-.17.08-.32l.52-2.5a2.69,2.69,0,0,0,0-.29.3.3,0,0,0,0-.15.18.18,0,0,0-.07-.1.63.63,0,0,0-.18-.11l0-.14,1.45.29a1.73,1.73,0,0,1,1,.46,1,1,0,0,1,.17.86,1.42,1.42,0,0,1-.21.52,1,1,0,0,1-.38.33,1.2,1.2,0,0,1-.5.13,2.22,2.22,0,0,1-.57,0c-.21-.05-.38-.08-.49-.12Zm.24-1.2.34.07a1.38,1.38,0,0,0,.56,0,.64.64,0,0,0,.39-.22,1.05,1.05,0,0,0,.22-.5,1.3,1.3,0,0,0,0-.43A.79.79,0,0,0,16.6,39a.82.82,0,0,0-.25-.2,1.79,1.79,0,0,0-.35-.11l-.44-.08Z"/><path class="cls-1" d="M21,39.21l-.12.88-.29,0a2,2,0,0,0-.05-.26,1.21,1.21,0,0,0-.08-.19.48.48,0,0,0-.09-.14.31.31,0,0,0-.14-.07l-.19,0-.93-.12-.21,1.53.63.09a.46.46,0,0,0,.21,0,.36.36,0,0,0,.14-.11,1.23,1.23,0,0,0,.13-.26l.27,0-.15,1.13-.27,0a2.57,2.57,0,0,0-.06-.28.39.39,0,0,0-.1-.14.64.64,0,0,0-.21-.07L18.87,41l-.22,1.69.91.12a1,1,0,0,0,.24,0,.36.36,0,0,0,.17-.07.6.6,0,0,0,.13-.14,1.18,1.18,0,0,0,.11-.19,2.71,2.71,0,0,0,.14-.29l.29,0-.2,1-2.72-.36v-.15a.55.55,0,0,0,.26-.07.3.3,0,0,0,.11-.15,2.32,2.32,0,0,0,.06-.32l.34-2.53a2.13,2.13,0,0,0,0-.3.57.57,0,0,0,0-.15l-.08-.09L18.24,39l0-.15Z"/><path class="cls-1" d="M22.61,41.63l-.06,1c0,.14,0,.25,0,.31a.46.46,0,0,0,0,.15.24.24,0,0,0,.09.08.59.59,0,0,0,.19.08v.15l-1.25-.08v-.14a.93.93,0,0,0,.26-.09.35.35,0,0,0,.09-.16,1.82,1.82,0,0,0,0-.32l.16-2.55c0-.14,0-.24,0-.3a.54.54,0,0,0,0-.15.38.38,0,0,0-.09-.09l-.18-.08V39.3l1.47.09a1.79,1.79,0,0,1,1,.32.93.93,0,0,1,.29.8,1.09,1.09,0,0,1-.27.67,1.44,1.44,0,0,1-.7.4v0a1,1,0,0,1,.3.23,2.19,2.19,0,0,1,.25.45l.24.5a2.89,2.89,0,0,0,.18.33.77.77,0,0,0,.16.19.56.56,0,0,0,.22.09v.15l-.82-.06a2.74,2.74,0,0,1-.19-.34l-.18-.38-.23-.51a3.47,3.47,0,0,0-.17-.34.58.58,0,0,0-.13-.16.42.42,0,0,0-.13-.07l-.22,0Zm.13-2-.11,1.75.33,0a1.93,1.93,0,0,0,.43,0,.86.86,0,0,0,.3-.12.73.73,0,0,0,.24-.28,1.14,1.14,0,0,0,.11-.44,1,1,0,0,0-.07-.48.7.7,0,0,0-.27-.3,1.36,1.36,0,0,0-.52-.13Z"/><path class="cls-1" d="M26.67,42.8a2.19,2.19,0,0,0,0,.29.39.39,0,0,0,0,.14.2.2,0,0,0,.09.09.57.57,0,0,0,.2.07v.15H25.75v-.15a.55.55,0,0,0,.24-.1.28.28,0,0,0,.09-.16,2.38,2.38,0,0,0,0-.33l0-2.55a2.37,2.37,0,0,0,0-.3.38.38,0,0,0-.05-.14.26.26,0,0,0-.09-.09l-.19-.07V39.5H27v.14a.77.77,0,0,0-.19.07.24.24,0,0,0-.09.08.38.38,0,0,0-.05.14,2.11,2.11,0,0,0,0,.3Z"/><path class="cls-1" d="M30.11,43.45v-.14a.93.93,0,0,0,.21-.08.22.22,0,0,0,.11-.1.43.43,0,0,0,0-.17,2.07,2.07,0,0,0,0-.22c0-.08-.05-.16-.08-.26l-.13-.37-1.38.06-.09.3a3,3,0,0,0-.08.33.78.78,0,0,0,0,.21.36.36,0,0,0,.1.25.55.55,0,0,0,.29.1v.14l-1.26.06v-.14a.51.51,0,0,0,.28-.21,1.81,1.81,0,0,0,.22-.48l1.08-3.32.47,0L31,42.63a2.54,2.54,0,0,0,.14.34.54.54,0,0,0,.14.18.34.34,0,0,0,.21.09v.15ZM28.9,41.91l1.24-.06L29.48,40Z"/><path class="cls-1" d="M33.16,42.93l.78-.09.21,0,.14-.07a.28.28,0,0,0,.1-.09.79.79,0,0,0,.08-.16,1.14,1.14,0,0,0,.05-.23c0-.09,0-.23.06-.41l.3,0L35,43l-2.65.3,0-.14a.51.51,0,0,0,.23-.13.29.29,0,0,0,.07-.17c0-.08,0-.18,0-.33L32.27,40c0-.13,0-.23-.05-.29a.37.37,0,0,0-.07-.14.26.26,0,0,0-.1-.07.93.93,0,0,0-.2-.05V39.3l1.24-.14,0,.14a.72.72,0,0,0-.18.09.2.2,0,0,0-.08.08.54.54,0,0,0,0,.15,2,2,0,0,0,0,.31Z"/><path class="cls-1" d="M38.3,41.67a1.83,1.83,0,0,0,.07.26.36.36,0,0,0,.1.15.24.24,0,0,0,.12.07l.22,0,0,.14-1.27.27,0-.14a1,1,0,0,0,.22-.15.27.27,0,0,0,0-.18,1.81,1.81,0,0,0,0-.32l-.53-2.5a1.76,1.76,0,0,0-.07-.29.32.32,0,0,0-.08-.13.2.2,0,0,0-.11-.06.7.7,0,0,0-.2,0l0-.14,1.44-.3a1.7,1.7,0,0,1,1.07,0,1,1,0,0,1,.5.72,1.18,1.18,0,0,1,0,.56.93.93,0,0,1-.21.46,1.17,1.17,0,0,1-.41.31,2.21,2.21,0,0,1-.53.18l-.51.1ZM38,40.47l.34-.07a1.71,1.71,0,0,0,.52-.2.71.71,0,0,0,.27-.35,1,1,0,0,0,0-.55,1,1,0,0,0-.15-.4.65.65,0,0,0-.24-.23.85.85,0,0,0-.31-.09,1.61,1.61,0,0,0-.37,0l-.43.1Z"/><path class="cls-1" d="M42.85,41.33l0-.14a.62.62,0,0,0,.19-.12.23.23,0,0,0,.08-.12.38.38,0,0,0,0-.18,1,1,0,0,0-.08-.2,2,2,0,0,0-.14-.23L42.64,40l-1.33.37,0,.3c0,.16,0,.27,0,.35s0,.14,0,.2a.38.38,0,0,0,.16.23.54.54,0,0,0,.3,0l0,.14L40.58,42l0-.14a.45.45,0,0,0,.23-.27,1.86,1.86,0,0,0,.11-.51l.31-3.48.45-.13,1.86,2.91c.09.13.16.23.22.3a.6.6,0,0,0,.18.15.53.53,0,0,0,.23,0l0,.14ZM41.32,40.1l1.2-.33-1.06-1.69Z"/><path class="cls-1" d="M45,38.89l-1.27-1.16-.35-.3a.75.75,0,0,0-.21-.12.45.45,0,0,0-.2,0l-.05-.14,1.2-.41,0,.14c-.17.08-.23.18-.19.31a.55.55,0,0,0,.11.17,1.57,1.57,0,0,0,.23.24l.94.87.21-1.16a2.12,2.12,0,0,0,0-.38.9.9,0,0,0,0-.25.24.24,0,0,0-.12-.14.33.33,0,0,0-.2,0l0-.13L46.16,36l0,.14a.69.69,0,0,0-.16.18,1.28,1.28,0,0,0-.1.26,4.72,4.72,0,0,0-.12.52L45.5,38.7l.32.9a1.22,1.22,0,0,0,.11.25A.4.4,0,0,0,46,40a.31.31,0,0,0,.13.06h.23l.05.14-1.29.44,0-.14.17-.12a.35.35,0,0,0,.08-.13.54.54,0,0,0,0-.18,1.5,1.5,0,0,0-.08-.27Z"/><g class="cls-2"><path class="cls-1" d="M277,41.13V8h9.6a9.67,9.67,0,0,1,9.93,9.79,9.59,9.59,0,0,1-9.93,9.83h-7.13V41.13Zm2.47-15.77h7A7.09,7.09,0,0,0,292,23.17a7.63,7.63,0,0,0,2.09-5.36A7.53,7.53,0,0,0,292,12.49a7.09,7.09,0,0,0-5.47-2.19h-7Z"/><path class="cls-1" d="M311.62,7.12l14.3,34H323.4l-3.8-9h-16l-3.8,9h-2.52Zm-7,22.7h14l-7-16.81Z"/><path class="cls-1" d="M338.46,27.16v14H336v-14L324.45,8h2.75l10,16.67L347.25,8H350Z"/></g><path class="cls-3" d="M15.29,36.17c1,.2,2.14.37,3.53.54,1.18.14,2.38.25,3.58.32,1.42.09,2.82.15,4.15.17,1.09,0,2.21,0,3.28,0h.49c.83,0,1.46-.05,2-.1,1.1-.09,2.18-.19,3.22-.32s1.71-.22,2.42-.35c.9-.17,1.85-.37,3-.64a27.61,27.61,0,0,0,4.41-1.43,23.2,23.2,0,0,0,2.19-6.92c.21-1.47.37-2.8.49-4.05.09-1,.11-1.94.11-2.69,0-1.64,0-2.89,0-4.05,0-1-.1-1.93-.17-2.88L47.93,13c0-.64-.1-1.4-.18-2.17S47.53,8.93,47.42,8l0-.26c0-.32-.09-.65-.14-1V6.73l-.57,0c-.5,0-1,.08-1.53.09-1.13,0-2,0-2.88-.08a28.79,28.79,0,0,1-3-.39A24.92,24.92,0,0,1,34.52,5,40.31,40.31,0,0,1,26.73.91l-.86.53C25,2,24.11,2.5,23.21,3a27.42,27.42,0,0,1-7.52,3c-.9.18-1.66.33-2.44.44s-1.61.2-2.36.27-1.52.14-2.32.15-1.41,0-2.09,0H5.94l0,.15-.06.34,0,.32c-.09.64-.18,1.3-.25,1.94-.12,1.07-.21,2-.29,2.94-.06.72-.09,1.46-.13,2.21,0,.34,0,.68,0,1,0,1-.09,2-.1,2.91,0,2,0,3.84.09,5.54,0,1.28.19,2.59.32,3.72.09.79.23,1.63.43,2.57A19,19,0,0,0,6.91,33.7h0a22.78,22.78,0,0,0,4.2,1.53C12.41,35.58,13.77,35.88,15.29,36.17Z"/><path class="cls-3" d="M14.94,44c.81.71,1.64,1.37,2.48,2a77.25,77.25,0,0,0,9.32,5.56l1.94-1.11c1.33-.76,2.71-1.55,4-2.36a27.45,27.45,0,0,0,5.15-3.85l.11-.11A56.78,56.78,0,0,1,14.94,44Z"/><path class="cls-1" d="M31.86,44.84c-1.27.11-2.56.16-3.71.21-.61,0-1.12,0-1.59,0h-.8c-1.22,0-2.52-.09-3.79-.21s-2.47-.26-4-.49a43.61,43.61,0,0,1-4.85-1h0a.81.81,0,0,0,.2.27,29.33,29.33,0,0,0,3.59,3,77.18,77.18,0,0,0,9.44,5.63.81.81,0,0,0,.39.1.85.85,0,0,0,.43-.12l1.94-1.11c1.34-.77,2.72-1.56,4.06-2.37a28,28,0,0,0,5.31-4l.74-.73.49-.5c-1.55.35-2.93.62-4.22.84S32.86,44.75,31.86,44.84Zm6-.66A27.45,27.45,0,0,1,32.72,48c-1.33.81-2.71,1.6-4,2.36L26.74,51.5a77.25,77.25,0,0,1-9.32-5.56c-.84-.6-1.67-1.26-2.48-2a56.78,56.78,0,0,0,23,.1Z"/><path class="cls-1" d="M12.41,36.09c1.5.37,3.07.66,4.65.89,1,.13,2.05.25,3.43.38,1,.1,2.08.16,3.05.21.75,0,1.58.07,2.52.09h.46l1.75,0,.9,0c1,0,2.07-.08,3.38-.19s2.3-.19,3.37-.35c1.42-.21,2.65-.44,3.77-.71,1.77-.42,3.12-.79,4.37-1.2a20.25,20.25,0,0,0,2.31-.93,23.7,23.7,0,0,0,2.1-6.76c.21-1.49.37-2.83.49-4.09.09-1,.11-2,.12-2.77,0-1.66,0-2.92,0-4.09,0-1-.11-2-.18-2.91l0-.79c-.05-.65-.11-1.42-.19-2.2s-.22-1.86-.33-2.77l0-.26c0-.33-.09-.66-.14-1L48,5.85h-.69c-.24,0-.47,0-.71.06-.49,0-1,.08-1.47.09-1.11,0-2,0-2.8-.08-1-.08-2-.21-2.95-.38A25.15,25.15,0,0,1,34.83,4.2,39.75,39.75,0,0,1,27.13.13a.66.66,0,0,0-.76,0l-1,.58c-.85.52-1.73,1.05-2.62,1.54a26.49,26.49,0,0,1-7.27,2.88c-.89.18-1.64.32-2.4.44s-1.57.19-2.31.26S9.32,5.94,8.55,6s-1.38,0-2.05,0H5.75a.6.6,0,0,0-.64.53c0,.11,0,.22-.06.33s0,.26-.07.4l0,.31c-.09.65-.18,1.31-.25,2-.12,1.07-.21,2-.29,3-.06.74-.1,1.48-.13,2.24,0,.34,0,.67,0,1,0,1-.1,2-.1,2.95,0,2,0,3.86.08,5.57,0,1.32.2,2.65.33,3.79.09.81.24,1.68.44,2.65a19.85,19.85,0,0,0,1,3.19c.48.25,1,.5,1.59.74A33.25,33.25,0,0,0,12.41,36.09ZM6.91,33.7h0a19,19,0,0,1-1.08-3.24c-.2-.94-.34-1.78-.43-2.57-.13-1.13-.27-2.44-.32-3.72C5,22.47,5,20.66,5,18.63c0-1,.06-1.95.1-2.91,0-.33,0-.67,0-1,0-.75.07-1.49.13-2.21.08-.91.17-1.87.29-2.94.07-.64.16-1.3.25-1.94l0-.32L5.91,7l0-.15h.54c.68,0,1.39,0,2.09,0s1.61-.09,2.32-.15,1.56-.15,2.36-.27,1.54-.26,2.44-.44a27.42,27.42,0,0,0,7.52-3c.9-.5,1.79-1,2.66-1.56l.86-.53A40.31,40.31,0,0,0,34.52,5,24.92,24.92,0,0,0,39.23,6.4a28.79,28.79,0,0,0,3,.39c.83.07,1.75.09,2.88.08.52,0,1,0,1.53-.09l.57,0v.06c0,.33.1.66.14,1l0,.26c.11.9.23,1.83.33,2.75s.14,1.53.18,2.17l.06.79c.07.95.14,1.92.17,2.88,0,1.16.05,2.41,0,4.05,0,.75,0,1.73-.11,2.69-.12,1.25-.28,2.58-.49,4.05a23.2,23.2,0,0,1-2.19,6.92A27.61,27.61,0,0,1,41,35.76c-1.14.27-2.09.47-3,.64-.71.13-1.48.24-2.42.35s-2.12.23-3.22.32c-.59,0-1.22.08-2,.1h-.49c-1.07,0-2.19,0-3.28,0-1.33,0-2.73-.08-4.15-.17-1.2-.07-2.4-.18-3.58-.32-1.39-.17-2.52-.34-3.53-.54-1.52-.29-2.88-.59-4.17-.93a22.78,22.78,0,0,1-4.2-1.53Z"/><path class="cls-1" d="M6.54,34.49a23.81,23.81,0,0,0,4.36,1.6c1.31.34,2.69.65,4.22.94,1,.2,2.18.38,3.59.54,1.2.15,2.42.26,3.64.34,1.43.09,2.84.14,4.19.17h.88c.82,0,1.63,0,2.43,0h.48c.85,0,1.5,0,2.11-.09,1.11-.1,2.2-.2,3.25-.33s1.75-.23,2.48-.36c.91-.17,1.87-.38,3-.65a28,28,0,0,0,4.54-1.48.88.88,0,0,0,.44-.41c.07-.14.12-.28.19-.42a20.25,20.25,0,0,1-2.31.93c-1.25.41-2.6.78-4.37,1.2-1.12.27-2.35.5-3.77.71-1.07.16-2.11.25-3.37.35s-2.38.17-3.38.19l-.9,0-1.75,0h-.46c-.94,0-1.77,0-2.52-.09-1,0-2-.11-3.05-.21-1.38-.13-2.44-.25-3.43-.38-1.58-.23-3.15-.52-4.65-.89a33.25,33.25,0,0,1-4.8-1.52C7,34.33,6.5,34.08,6,33.83c0,.07.05.13.07.19A.9.9,0,0,0,6.54,34.49Z"/></g></g></svg>