<svg xmlns="http://www.w3.org/2000/svg" width="52.615" height="73.99" viewBox="0 0 52.615 73.99">
  <g id="onlineshopicon" transform="translate(-1438 -1036)">
    <g id="retail" transform="translate(1438 1036)">
      <path id="Subtraction_4" data-name="Subtraction 4" d="M3.289,39.453H0V16.443a16.448,16.448,0,0,1,31.6-6.4,16.354,16.354,0,0,1,1.292,6.4V39.451H29.6V16.443a13.155,13.155,0,0,0-22.456-9.3,13.067,13.067,0,0,0-3.853,9.3v23.01Z" transform="translate(9.863 0)" fill="#0089a2"/>
      <path id="Subtraction_3" data-name="Subtraction 3" d="M52.615,50.965H0V0H36.995V16.435l-4.93,3.29v14.8H44.393v-14.8l-4.932-3.29V0H52.615V50.964Z" transform="translate(0 23.025)" fill="#0089a2"/>
      <circle id="Ellipse_28" data-name="Ellipse 28" cx="1.641" cy="1.641" r="1.641" transform="translate(36.586 42.342)" fill="#0089a2"/>
    </g>
  </g>
</svg>
