<svg xmlns="http://www.w3.org/2000/svg" width="55.94" height="37" viewBox="0 0 55.94 37">
  <g id="PagoPA-Portale-del-Cittadino" transform="translate(-7 -6.4)" opacity="0.15">
    <path id="Path_4895" data-name="Path 4895" d="M194.34,17.346h2.991l1.29-.1.938-.313.547-.508.2-.7v-7.7l-.2-.7-.586-.528-.958-.293-1.329-.1H190.9V22.115h3.421Zm-.02-9.128h2.561v7.291h-2.561Z" transform="translate(-147.955 0)"/>
    <path id="Path_4896" data-name="Path 4896" d="M121.211,8.318v-.2l-.176-.7-.567-.528L119.53,6.6l-1.29-.1h-3.421l-1.31.1-.938.293L112,7.419l-.2.7V22.215h3.421V17.407h2.58v4.026l-.078,1.6-.2,1.583-.332,1.525-.45,1.485-.567,1.427-.665,1.349-.8,1.29-.88,1.231-.977,1.153-1.055,1.055-1.153.977-1.231.88-1.29.8-1.349.665-1.427.586-1.485.43-1.525.332-1.583.215-1.6.059-1.6-.059-1.583-.215-1.544-.332-1.505-.45-1.446-.567-1.368-.684-1.31-.782-1.251-.9-1.173-.977-.137-.137-.919-.919-.977-1.173,1.72-1.29L79.5,27.18v9.558l2.189-1.759,1.055,1.251L83.9,37.4,85.129,38.5l1.329,1,1.368.88,1.466.8,1.525.684,1.583.567,1.642.45,1.661.332,1.72.215,1.759.059,1.583-.059,1.544-.176,1.505-.274,1.485-.352,1.427-.489,1.407-.547,1.329-.645,1.29-.743.176-.1,1.055-.7,1.173-.9,1.114-.958,1.036-1.036.958-1.114.9-1.173.821-1.231.743-1.29.645-1.329.547-1.407.489-1.427.352-1.485.274-1.505L121.211,23l.059-1.564V15.589Zm-3.381,7.271h-2.58V8.318h2.58Z" transform="translate(-58.329 -0.08)"/>
    <path id="Path_4897" data-name="Path 4897" d="M99.425,46.183l.8.293,1.095.1h2.854l1.114-.1.782-.293.489-.528.137-.7V30.8h-5.277l-1.134.1-.8.313-.508.508-.176.7v7.7l.176.723.45.508.782.313,1.114.1h2.5v2.971h-2.15V43.27H98.8v1.642l.176.7Zm2.248-6.255V32.637h2.15v7.31h-2.15Z" transform="translate(-73.857 -19.631)"/>
    <path id="Path_4898" data-name="Path 4898" d="M60.138,39.847V37.033l.02-4.5v-.215l-.176-.7-.489-.508-.782-.313-1.095-.1h-.352l-2.463.02-1.095.1-.743.332-.489.508-.137.684V34l2.8-.02.02-1.446H57.3V35.2H54.8l-1.095.1-.8.313-.45.508-.137.7-.02,3.206.137.7.45.528.743.313,1.036.1h5.453V39.847Zm-2.834,0h-2.15V37.033H57.3Z" transform="translate(-36.446 -19.55)"/>
    <path id="Path_4899" data-name="Path 4899" d="M14.232,31.21l-.821-.313L12.3,30.8H7V46.574H9.854l.02-4.671v-.117h2.5l1.095-.1.782-.313.45-.508.176-.723V32.422l-.176-.7ZM12,39.928H9.854V32.637H12Z" transform="translate(0 -19.631)"/>
    <path id="Path_4900" data-name="Path 4900" d="M144.645,41.355l.8.313,1.114.1h2.776l1.114-.1.821-.313.489-.508.176-.723v-7.7l-.176-.7-.45-.508-.782-.313-1.095-.1h-2.893l-1.114.1-.8.313-.45.508-.176.7v7.7l.176.723Zm2.248-8.717h2.17l-.02,7.31h-2.15Z" transform="translate(-110.222 -19.631)"/>
  </g>
</svg>
