<svg xmlns="http://www.w3.org/2000/svg" width="44.394" height="26.797" viewBox="0 0 44.394 26.797">
  <g id="pokerstars" transform="translate(-19.39 -81.511)">
    <path id="Path_4909" data-name="Path 4909" d="M92.75,93.971H88.024a.108.108,0,0,1,.086-.1A3.475,3.475,0,0,0,90,91.322c.043-.158.057-.315.086-.458a.186.186,0,0,0-.329-.158,1.564,1.564,0,0,0-.186.243,2.5,2.5,0,0,1-4.454-1.289,4.261,4.261,0,0,1,.458-2.191,9.432,9.432,0,0,1,1.6-2.363c.959-1.074,2.019-2.033,3.036-3.05.115-.115.2-.158.329-.029a31,31,0,0,1,4.067,4.382,5.507,5.507,0,0,1,1.074,2.907,2.5,2.5,0,0,1-4.525,1.547c-.086-.115-.143-.315-.358-.229s-.1.272-.072.4A4.108,4.108,0,0,0,91.948,93.4a4.366,4.366,0,0,0,.816.516A.108.108,0,0,1,92.75,93.971ZM88.7,89.761c.1,0,.143-.072.2-.1.43-.315.859-.616,1.274-.931a.3.3,0,0,1,.43,0c.387.3.8.587,1.2.874a.379.379,0,0,0,.272.129c-.186-.558-.358-1.117-.544-1.661a.308.308,0,0,1,.129-.43c.415-.286.8-.573,1.2-.874a.429.429,0,0,0,.186-.172c-.086-.057-.158-.029-.243-.029-.487,0-.959-.014-1.446,0-.272.014-.372-.1-.444-.329-.143-.473-.3-.945-.458-1.418-.014-.057-.014-.143-.115-.186l-.473,1.461c-.172.53-.057.473-.659.473h-1.5a14.662,14.662,0,0,0,1.217.945c.473.344.4.243.243.759C89.027,88.758,88.869,89.26,88.7,89.761Z" transform="translate(-56.303 -0.375)" fill="#f00001"/>
    <path id="Path_4910" data-name="Path 4910" d="M20.48,88.2V83.228a1.051,1.051,0,0,0-.916-1.2c-.215-.057-.158-.2-.172-.329-.014-.158.086-.172.215-.172,1.89,0,3.781-.043,5.656.029a3.257,3.257,0,0,1,3.079,1.933,4.2,4.2,0,0,1-.115,3.68,2.758,2.758,0,0,1-1.919,1.389,7.951,7.951,0,0,1-2.091.243c-.43,0-.859.014-1.274,0-.2,0-.258.072-.258.258v4.167c0,.387,0,.387-.4.387H20.838c-.358,0-.358,0-.358-.358ZM22.685,85.4h0v2.177c0,.129,0,.258.186.258a11.8,11.8,0,0,0,1.59-.057,2.093,2.093,0,0,0,1.819-1.389,4.319,4.319,0,0,0,.057-2.52,1.67,1.67,0,0,0-1.36-1.26,5.913,5.913,0,0,0-1.418-.1c-.63.014-.859.243-.859.874C22.671,84.044,22.685,84.717,22.685,85.4Z" transform="translate(0 0)"/>
    <path id="Path_4911" data-name="Path 4911" d="M25.266,191.457v-.616c0-.057-.029-.143.043-.172s.115.029.158.072a7.683,7.683,0,0,0,2.306,1.131,4.228,4.228,0,0,0,2.692-.086,1.876,1.876,0,0,0,1.332-1.919,1.666,1.666,0,0,0-.716-1.26,11.229,11.229,0,0,0-2.148-1.189,9.2,9.2,0,0,1-2.463-1.489,2.9,2.9,0,0,1-.644-3.537,3.112,3.112,0,0,1,1.418-1.26,6.548,6.548,0,0,1,3.423-.53,11.492,11.492,0,0,1,1.962.344c.215.057.3.143.286.372-.014.372,0,.759,0,1.131,0,.057.014.129-.029.158-.072.043-.115-.029-.158-.057a4.457,4.457,0,0,0-2.735-.845,2.8,2.8,0,0,0-1.747.587,1.342,1.342,0,0,0-.086,2.119,5.116,5.116,0,0,0,1.16.73c.859.43,1.761.788,2.592,1.274a4.3,4.3,0,0,1,1.761,1.7,3.29,3.29,0,0,1-.9,4,5.245,5.245,0,0,1-2.692,1,9.77,9.77,0,0,1-4.568-.7.321.321,0,0,1-.243-.372C25.28,191.829,25.266,191.643,25.266,191.457Z" transform="translate(-5.029 -84.873)"/>
    <path id="Path_4912" data-name="Path 4912" d="M159.885,88.832v4.153c0,.716,0,.716-.7.716h-1.06c-.172,0-.258-.072-.243-.243V83.29a1.012,1.012,0,0,0-.916-1.189c-.2-.057-.172-.186-.172-.329s.086-.172.215-.172h2.678c.243,0,.215.143.215.3v6.5a.853.853,0,0,0,.315-.272c1.074-1.1,2.162-2.22,3.236-3.337a.573.573,0,0,1,.473-.2c.329.014.644,0,.974,0,.072,0,.158-.029.2.043.043.1-.057.143-.1.186-1.017,1.031-2.019,2.062-3.036,3.093-.229.229-.229.229-.029.5,1.289,1.661,2.563,3.322,3.852,4.983.029.043.072.086.1.129.072.115.029.158-.086.158h-2.205c-.172,0-.243-.143-.315-.258-.988-1.346-1.962-2.692-2.95-4.038C160.185,89.233,160.057,89.061,159.885,88.832Z" transform="translate(-117.724 -0.076)"/>
    <path id="Path_4913" data-name="Path 4913" d="M154.572,210.46a3.812,3.812,0,0,1-2.162.959,3.64,3.64,0,0,1-2.349-.458,2.164,2.164,0,0,1-.716-3.107,4.054,4.054,0,0,1,1.561-1.389,8.812,8.812,0,0,1,3.38-1.017c.215-.029.3-.1.286-.329a7.391,7.391,0,0,0-.086-1.375,1.246,1.246,0,0,0-1.217-1.074,1.427,1.427,0,0,0-1.547.831,2.5,2.5,0,0,0-.186.859c0,.215-.1.3-.329.286-.587-.014-1.174,0-1.747,0-.243,0-.272-.043-.215-.286a2.81,2.81,0,0,1,2.234-2.234,6.876,6.876,0,0,1,3.007-.086,2.539,2.539,0,0,1,2.248,2.578c.086,1.475.014,2.95.043,4.425.014.63,0,1.26,0,1.89,0,.2-.057.286-.272.286-.558-.014-1.1-.014-1.661,0-.2,0-.3-.057-.272-.272C154.587,210.8,154.572,210.632,154.572,210.46Zm0-2.821v-1.246c0-.172-.057-.215-.229-.186a4.381,4.381,0,0,0-2.334,1.174,2.015,2.015,0,0,0-.6,1.9,1.157,1.157,0,0,0,1.031,1.017,2,2,0,0,0,1.618-.53,1.466,1.466,0,0,0,.473-.9A9.234,9.234,0,0,0,154.572,207.639Z" transform="translate(-111.023 -103.161)"/>
    <path id="Path_4914" data-name="Path 4914" d="M226.445,105.81H223.8c-.229,0-.286.086-.272.286a4.725,4.725,0,0,0,.387,1.833,2.5,2.5,0,0,0,2.076,1.461,3.721,3.721,0,0,0,2.678-.7c.043-.029.086-.1.158-.057s.043.115.043.172c0,.143-.014.286,0,.43a.644.644,0,0,1-.415.73c-2.42,1.346-6.53.444-7-3.494a6.147,6.147,0,0,1,.3-3.007,3.612,3.612,0,0,1,3.007-2.363,3.977,3.977,0,0,1,2.563.358,3.873,3.873,0,0,1,1.876,2.592,6.569,6.569,0,0,1,.215,1.5c0,.2-.072.258-.258.258Zm-.988-1.1h1.461c.4,0,.415,0,.372-.4a3.99,3.99,0,0,0-.573-1.833,1.492,1.492,0,0,0-2.32-.243,3.36,3.36,0,0,0-.845,2.205c-.029.229.072.286.286.286C224.383,104.693,224.913,104.708,225.457,104.708Z" transform="translate(-173.071 -16.726)"/>
    <path id="Path_4915" data-name="Path 4915" d="M96.452,188.278v2.678a5.088,5.088,0,0,0,.043.659.761.761,0,0,0,.7.745,5.875,5.875,0,0,0,1.5.029c.258-.029.286-.014.286.258v.315c0,.4,0,.4-.387.473a7.034,7.034,0,0,1-2.735-.029,1.85,1.85,0,0,1-1.59-1.733,7,7,0,0,1-.043-.773v-5.47c0-.329,0-.329-.329-.329s-.7-.014-1.045,0c-.2,0-.258-.072-.258-.272.014-.659-.072-.558.558-.573.272,0,.544-.014.8,0,.2.014.258-.057.258-.258-.014-.587,0-1.174,0-1.747a.369.369,0,0,1,.243-.387c.587-.258,1.16-.53,1.733-.816.186-.086.229-.043.229.143,0,.917,0,1.833-.014,2.749,0,.229.057.315.3.315.73-.014,1.475,0,2.205-.014.229,0,.3.072.3.3-.014.6.057.53-.53.53H96.667c-.2,0-.258.057-.258.258C96.452,186.316,96.452,187.3,96.452,188.278Z" transform="translate(-62.726 -85.245)"/>
    <path id="Path_4916" data-name="Path 4916" d="M275,210.072v-.444c0-.072-.029-.172.057-.215s.129.043.186.086a5.762,5.762,0,0,0,1.6.788,3.375,3.375,0,0,0,1.847.014,1.232,1.232,0,0,0,.573-2.048,5.08,5.08,0,0,0-1.475-.974,9.708,9.708,0,0,1-1.819-1.088,2.311,2.311,0,0,1-.874-2.391,2.144,2.144,0,0,1,1.375-1.489,5.231,5.231,0,0,1,2.52-.4,10.815,10.815,0,0,1,1.518.243c.215.057.329.143.3.387a4.143,4.143,0,0,0,0,.73c0,.2-.057.215-.215.115a4.075,4.075,0,0,0-2.349-.544,2.545,2.545,0,0,0-.558.1.958.958,0,0,0-.516,1.461,2.522,2.522,0,0,0,.9.745c.6.329,1.217.644,1.8.988a3.644,3.644,0,0,1,1.189,1,2.5,2.5,0,0,1-.845,3.781,5.15,5.15,0,0,1-3.136.458,9.075,9.075,0,0,1-1.833-.473c-.2-.072-.315-.172-.286-.415A1.356,1.356,0,0,0,275,210.072Z" transform="translate(-218.98 -103.145)"/>
    <path id="Path_4917" data-name="Path 4917" d="M218.737,203.765a3.283,3.283,0,0,1,1.418-1.375,3.553,3.553,0,0,1,2.277-.186.164.164,0,0,1,.143.186v1.375c0,.186-.129.143-.229.115a3.327,3.327,0,0,0-1.547-.057,2.418,2.418,0,0,0-1.962,2.033,3.909,3.909,0,0,0-.1.916v4.339c0,.315-.014.315-.315.329h-1.547c-.344,0-.344,0-.344-.344v-7.031c0-.788-.229-1.1-1.017-1.274-.215-.043-.215-.172-.215-.329,0-.186.129-.186.258-.186h2.893c.229,0,.286.086.272.3C218.723,202.934,218.737,203.349,218.737,203.765Z" transform="translate(-167.855 -103.324)"/>
    <path id="Path_4918" data-name="Path 4918" d="M286.321,102.64a5.135,5.135,0,0,1,.687-.874,2.614,2.614,0,0,1,2.306-.673c.559.072.487,0,.5.573,0,.315-.014.63,0,.945,0,.2-.029.272-.258.2a2.88,2.88,0,0,0-1.26-.072,2.092,2.092,0,0,0-1.647,1.3,3.564,3.564,0,0,0-.315,1.547v4.425c0,.329-.014.344-.344.344h-1.3c-.387,0-.387,0-.387-.372v-7.2a1.011,1.011,0,0,0-.874-1.074c-.243-.043-.229-.186-.229-.358.014-.2.158-.186.286-.186h2.563c.215,0,.3.072.286.286C286.321,101.853,286.321,102.254,286.321,102.64Z" transform="translate(-226.031 -16.749)"/>
  </g>
</svg>
