<svg xmlns="http://www.w3.org/2000/svg" width="187.071" height="38.186" viewBox="0 0 187.071 38.186">
  <g id="postepayBlue" transform="translate(-3015.571 -1726.408)">
    <path id="Path_144" data-name="Path 144" d="M48.722,203.9a8.892,8.892,0,0,1,3.341-.6,7.5,7.5,0,0,1,5.477,2.055,8.849,8.849,0,0,1,2.481,5.736,15.833,15.833,0,0,1-.513,5.565,15.379,15.379,0,0,1-2.055,5.138,11.2,11.2,0,0,1-8.731,5.563v-3.422a10.438,10.438,0,0,0,1.714-.686,8.261,8.261,0,0,0,2.825-3.081,18.7,18.7,0,0,0,1.8-4.454,14.6,14.6,0,0,0,.425-4.624,6.28,6.28,0,0,0-1.539-3.679,4.767,4.767,0,0,0-3.509-1.37,5.484,5.484,0,0,0-1.714.257ZM33.571,235.58l5.906-25.941c.175-1.027.341-1.966.513-3,.088-1.029.175-1.972.257-3h4.111l-.345,3.509a14.293,14.293,0,0,1,3.854-2.909,3.47,3.47,0,0,1,.854-.343v2.4a7.376,7.376,0,0,0-4.538,4.108,18.511,18.511,0,0,0-1.8,4.792,15.287,15.287,0,0,0-.428,4.54,4.533,4.533,0,0,0,4.792,4.449,7.389,7.389,0,0,0,1.968-.254v3.422h-.77a8.817,8.817,0,0,1-4.108-.941,9.078,9.078,0,0,1-3-2.741l-2.739,11.9H33.571v0Z" transform="translate(2982 1529.013)" fill="#3962a1"/>
    <path id="Path_145" data-name="Path 145" d="M285.73,207.027a8.594,8.594,0,0,0-1.454.171v-3.338a5.05,5.05,0,0,0,.6-.256,8.892,8.892,0,0,1,4.022-.857,7.231,7.231,0,0,1,5.308,1.97,8.553,8.553,0,0,1,2.227,5.649c.428,4.624-.428,8.562-2.656,11.73a9.917,9.917,0,0,1-8.646,4.881c-.254,0-.6-.086-.854-.086v-4.454a3.251,3.251,0,0,0,1.454-.684A7.4,7.4,0,0,0,287.7,219.1a20.961,20.961,0,0,0,1.457-4.279,13.334,13.334,0,0,0,.341-3.938,4.3,4.3,0,0,0-1.111-2.825A3.573,3.573,0,0,0,285.73,207.027Zm-1.454.171a6.518,6.518,0,0,0-3.513,3.168,12.455,12.455,0,0,0-1.623,7.706,5.378,5.378,0,0,0,1.282,3.336,3.6,3.6,0,0,0,2.822,1.2,4.353,4.353,0,0,0,1.032-.173v4.452a8.014,8.014,0,0,1-3.341-.941,6.631,6.631,0,0,1-2.822-2.909L275.37,235.28h-7.106l5.481-24.824c.682-3.17,1.111-5.567,1.282-7.108h6.422l-.171,2.824a17.365,17.365,0,0,1,3-2.313v3.34Z" transform="translate(2854.838 1529.314)" fill="#3962a1"/>
    <path id="Path_146" data-name="Path 146" d="M346.521,215.8a1.081,1.081,0,0,0-.513-.086h-.77a10.732,10.732,0,0,0-3,.341v-3.767c.941-.086,2.055-.086,3.168-.086h1.968a11.816,11.816,0,0,0,.341-1.97,5.127,5.127,0,0,0,.088-1.111,2.008,2.008,0,0,0-.857-1.539,3.183,3.183,0,0,0-1.968-.516,3.533,3.533,0,0,0-2.311.686c-.175.171-.341.256-.428.516v-4.8a14.127,14.127,0,0,1,2.739-.173c3,0,5.224.428,6.851,1.457a5.631,5.631,0,0,1,2.568,4.452,6.782,6.782,0,0,1,0,1.884c-.087.6-.257,1.37-.432,2.143l-1.8,7.874c-.257.943-.341,1.884-.516,2.913-.084,1.025-.084,1.966-.084,3h-6.506v-1.627c0-.6.084-1.111.084-1.713a8.414,8.414,0,0,1-2.909,2.656v-3.6a6.831,6.831,0,0,0,2.055-1.627A11.1,11.1,0,0,0,346.521,215.8Zm-4.279.257a6.922,6.922,0,0,0-2.4,1.112,3.533,3.533,0,0,0-1.886,3.511,2.208,2.208,0,0,0,.773,1.8,2.409,2.409,0,0,0,1.8.6,3.843,3.843,0,0,0,1.711-.343v3.6l-.175.086a7.648,7.648,0,0,1-3.763.941,7.287,7.287,0,0,1-4.965-1.711,6.322,6.322,0,0,1-2.14-4.454,6.718,6.718,0,0,1,3.25-6.677,16.855,16.855,0,0,1,7.792-2.227v3.767Zm0-12.586v4.8a4.513,4.513,0,0,0-.686,1.711H334.8a6.449,6.449,0,0,1,2.909-4.965A11.776,11.776,0,0,1,342.242,203.476Z" transform="translate(2820.758 1529.013)" fill="#3962a1"/>
    <path id="Path_147" data-name="Path 147" d="M384.5,235.7l5.649-8.562-4.109-23.46h7.022l1.968,16.1,9.074-16.1h6.681l-14.557,24.4-4.2,7.621Z" transform="translate(2791.862 1528.809)" fill="#3962a1"/>
    <path id="Path_148" data-name="Path 148" d="M105.081,205.57a5.943,5.943,0,0,0-1.711.254V202.83a17.792,17.792,0,0,1,2.224-.089,10.167,10.167,0,0,1,6.51,1.97,7.869,7.869,0,0,1,2.822,5.649,16.771,16.771,0,0,1-.6,6.079A17.231,17.231,0,0,1,112.014,222a10.17,10.17,0,0,1-4.279,3.852,12.474,12.474,0,0,1-4.366,1.112v-2.991a6.3,6.3,0,0,0,1.882-.77,7.707,7.707,0,0,0,2.652-2.825,17.46,17.46,0,0,0,1.886-4.881,17,17,0,0,0,.516-4.8,5.757,5.757,0,0,0-1.543-3.852A4.944,4.944,0,0,0,105.081,205.57Zm-1.711.256a8.846,8.846,0,0,0-1.886.772,10.061,10.061,0,0,0-2.739,3.168,15.839,15.839,0,0,0-1.8,4.706,17.045,17.045,0,0,0-.428,4.883,5.154,5.154,0,0,0,1.539,3.511,5.215,5.215,0,0,0,3.679,1.284,9.721,9.721,0,0,0,1.63-.171v3c-.6,0-1.286.086-1.972.086a9.534,9.534,0,0,1-6.59-2.14A7.781,7.781,0,0,1,91.98,219.1a16.431,16.431,0,0,1,.682-6.333,16.975,16.975,0,0,1,2.656-5.738,10.507,10.507,0,0,1,4.2-3.254,16.944,16.944,0,0,1,3.854-.938v2.991Z" transform="translate(2950.386 1529.318)" fill="#3962a1"/>
    <path id="Path_149" data-name="Path 149" d="M146.571,219.011a2.964,2.964,0,0,0-.261,1.111,1.484,1.484,0,0,0,0,.857,2.518,2.518,0,0,0,1.114,2.055,4.862,4.862,0,0,0,3,.684,7.4,7.4,0,0,0,4.2-1.03,3.064,3.064,0,0,0,1.373-2.822,2.359,2.359,0,0,0-.948-1.8,17.059,17.059,0,0,0-3.679-2.054,18.772,18.772,0,0,1-5.052-3.081,4.447,4.447,0,0,1-1.623-3.17,5.643,5.643,0,0,1,2.227-5.05,11.3,11.3,0,0,1,6.935-1.97,11.7,11.7,0,0,1,5.906,1.2,4.19,4.19,0,0,1,2.227,3.509v.857a8.324,8.324,0,0,1-.088,1.284h-4.2v-1.284a2.448,2.448,0,0,0-1.111-1.968,4.884,4.884,0,0,0-2.825-.686,5.349,5.349,0,0,0-3.338.943,2.587,2.587,0,0,0-1.114,2.482,2.316,2.316,0,0,0,.945,1.625,16.87,16.87,0,0,0,3.767,2.14c2.739,1.286,4.624,2.4,5.394,3.256a5.353,5.353,0,0,1,1.37,3.25,5.863,5.863,0,0,1-2.739,5.481,13.032,13.032,0,0,1-7.879,2.224,12.288,12.288,0,0,1-6.078-1.37,5.006,5.006,0,0,1-2.4-3.938,3.284,3.284,0,0,1,0-1.286c.087-.428.171-.941.257-1.454h4.622v0Z" transform="translate(2923.451 1529.318)" fill="#3962a1"/>
    <path id="Path_150" data-name="Path 150" d="M201.535,220.033q-1.28.131-2.311.256c-.682,0-1.37.086-1.968.086a6.288,6.288,0,0,1-3.767-.854,3.22,3.22,0,0,1-1.37-2.743,9.873,9.873,0,0,1,.088-2.14c.084-1.027.341-2.052.513-3.168l2.656-11.642h-4.283l.77-3h4.2l1.2-5.308,4.536-1.114-1.366,6.422h5.049l-.682,3H199.74l-2.568,12.159a9.591,9.591,0,0,0-.428,2.052,2.691,2.691,0,0,0-.088,1.111,1.465,1.465,0,0,0,.686,1.373,3.713,3.713,0,0,0,2.227.515,9.646,9.646,0,0,0,1.37-.173,7.939,7.939,0,0,0,1.37-.257Z" transform="translate(2896.652 1536)" fill="#3962a1"/>
    <path id="Path_151" data-name="Path 151" d="M232.371,212.238h5.82c.087-.772.175-1.37.175-1.8a2.383,2.383,0,0,0,0-1.112,3.856,3.856,0,0,0-1.457-2.909,6.061,6.061,0,0,0-3.679-1.112c-.257,0-.6.086-.857.086v-2.824h.941c3,0,5.308.6,6.851,1.709a7.108,7.108,0,0,1,2.568,5.4,14.329,14.329,0,0,1,0,2.741,12.844,12.844,0,0,1-.428,3h-9.931v-3.17Zm0,14.553V223.28a7.411,7.411,0,0,0,1.454-.684,5.689,5.689,0,0,0,2.227-2.993H241.1a8.874,8.874,0,0,1-3.854,5.392A11.146,11.146,0,0,1,232.371,226.791Zm-5.993-14.553h5.993v3.168h-6.763a8.165,8.165,0,0,0-.428,1.97,12.279,12.279,0,0,0-.084,1.711,5.093,5.093,0,0,0,1.54,3.338,5.676,5.676,0,0,0,3.767,1.2,5,5,0,0,0,1.968-.345v3.511a22.588,22.588,0,0,1-2.484.171,10.153,10.153,0,0,1-6.506-1.968,7.7,7.7,0,0,1-2.652-5.565,17.769,17.769,0,0,1,.6-6.165,21.243,21.243,0,0,1,2.311-5.822,10.2,10.2,0,0,1,4.022-3.593,11.644,11.644,0,0,1,4.711-1.284v2.824a5.489,5.489,0,0,0-3.509,1.711A9.071,9.071,0,0,0,226.378,212.238Z" transform="translate(2880.629 1529.414)" fill="#3962a1"/>
  </g>
</svg>
