<svg xmlns="http://www.w3.org/2000/svg" width="40" height="40" viewBox="0 0 40 40">
  <g id="riple" transform="translate(-1504 -526)">
    <circle id="Ellipse_15" data-name="Ellipse 15" cx="20" cy="20" r="20" transform="translate(1504 526)" fill="#35a0e0"/>
    <g id="ripple-white" transform="translate(1635.829 320.649)">
      <path id="Path_185" data-name="Path 185" d="M317.426,600.3a4.88,4.88,0,0,0-2.412,4.2,5.428,5.428,0,0,0,.806,2.59,1.811,1.811,0,0,1-.718,2.59,1.9,1.9,0,0,1-2.59-.718,8.276,8.276,0,0,0-1.968-1.968,4.682,4.682,0,0,0-4.832,0,4.867,4.867,0,0,0,0,8.406,4.682,4.682,0,0,0,4.832,0,4.962,4.962,0,0,0,1.879-1.968,1.839,1.839,0,0,1,2.59-.718,2,2,0,0,1,.718,2.59,5.435,5.435,0,0,0-.718,2.59,4.88,4.88,0,0,0,2.412,4.2,4.682,4.682,0,0,0,4.832,0,4.867,4.867,0,0,0,0-8.406,5.448,5.448,0,0,0-2.686-.629,1.879,1.879,0,1,1,0-3.759,5.607,5.607,0,0,0,2.686-.629,4.867,4.867,0,0,0,0-8.406,4.682,4.682,0,0,0-2.412-.629,4.888,4.888,0,0,0-2.419.656" transform="translate(-427.625 -385.433)" fill="#fff"/>
    </g>
  </g>
</svg>
