<svg xmlns="http://www.w3.org/2000/svg" width="165.074" height="73.99" viewBox="0 0 165.074 73.99">
  <g id="Group_1603" data-name="Group 1603" transform="translate(-896.42 -1052.641)">
    <g id="retail" transform="translate(896.42 1052.641)">
      <path id="Subtraction_4" data-name="Subtraction 4" d="M3.289,39.453H0V16.443a16.448,16.448,0,0,1,31.6-6.4,16.354,16.354,0,0,1,1.292,6.4V39.451H29.6V16.443a13.155,13.155,0,0,0-22.456-9.3,13.067,13.067,0,0,0-3.853,9.3v23.01Z" transform="translate(9.863 0)" fill="#fff"/>
      <path id="Subtraction_3" data-name="Subtraction 3" d="M52.615,50.965H0V0H36.995V16.435l-4.93,3.29v14.8H44.393v-14.8l-4.932-3.29V0H52.615V50.964Z" transform="translate(0 23.025)" fill="#fff"/>
      <circle id="Ellipse_28" data-name="Ellipse 28" cx="1.641" cy="1.641" r="1.641" transform="translate(36.586 42.342)" fill="#fff"/>
    </g>
    <path id="Path_5012" data-name="Path 5012" d="M9.3.27a8.07,8.07,0,0,1-3.87-.9A6.436,6.436,0,0,1,2.82-3.165,7.481,7.481,0,0,1,1.89-6.93v-7.14a7.4,7.4,0,0,1,.93-3.75,6.464,6.464,0,0,1,2.61-2.52,8.07,8.07,0,0,1,3.87-.9,8.135,8.135,0,0,1,3.9.9,6.464,6.464,0,0,1,2.61,2.52,7.4,7.4,0,0,1,.93,3.75v7.14a7.481,7.481,0,0,1-.93,3.765A6.436,6.436,0,0,1,13.2-.63,8.135,8.135,0,0,1,9.3.27Zm0-2.49a4.463,4.463,0,0,0,3.3-1.26,4.5,4.5,0,0,0,1.26-3.33V-14.1a4.592,4.592,0,0,0-1.26-3.375A4.434,4.434,0,0,0,9.3-18.75a4.384,4.384,0,0,0-3.285,1.275A4.624,4.624,0,0,0,4.77-14.1v7.29A4.532,4.532,0,0,0,6.015-3.48,4.412,4.412,0,0,0,9.3-2.22ZM34.08-20.7a.265.265,0,0,1,.3-.3h2.28a.265.265,0,0,1,.3.3V-.3a.265.265,0,0,1-.3.3H34.47a.435.435,0,0,1-.36-.21L24.72-15.54q-.03-.09-.09-.075t-.06.1L24.6-.3a.265.265,0,0,1-.3.3H22.02a.265.265,0,0,1-.3-.3V-20.7a.265.265,0,0,1,.3-.3h2.22a.435.435,0,0,1,.36.21L33.96-5.46q.03.09.09.075t.06-.105ZM42.81,0a.265.265,0,0,1-.3-.3V-20.7a.265.265,0,0,1,.3-.3h2.28a.265.265,0,0,1,.3.3V-2.61a.106.106,0,0,0,.12.12H55.86a.265.265,0,0,1,.3.3V-.3a.265.265,0,0,1-.3.3Zm17.7,0a.265.265,0,0,1-.3-.3V-20.7a.265.265,0,0,1,.3-.3h2.28a.265.265,0,0,1,.3.3V-.3a.265.265,0,0,1-.3.3ZM80.97-20.7a.265.265,0,0,1,.3-.3h2.28a.265.265,0,0,1,.3.3V-.3a.265.265,0,0,1-.3.3H81.36A.435.435,0,0,1,81-.21L71.61-15.54q-.03-.09-.09-.075t-.06.1L71.49-.3a.265.265,0,0,1-.3.3H68.91a.265.265,0,0,1-.3-.3V-20.7a.265.265,0,0,1,.3-.3h2.22a.435.435,0,0,1,.36.21L80.85-5.46q.03.09.09.075T81-5.49Zm22.05,1.89a.265.265,0,0,1-.3.3H92.07a.106.106,0,0,0-.12.12v6.45a.106.106,0,0,0,.12.12h7.32a.265.265,0,0,1,.3.3v1.89a.265.265,0,0,1-.3.3H92.07a.106.106,0,0,0-.12.12v6.6a.106.106,0,0,0,.12.12h10.65a.265.265,0,0,1,.3.3V-.3a.265.265,0,0,1-.3.3H89.37a.265.265,0,0,1-.3-.3V-20.7a.265.265,0,0,1,.3-.3h13.35a.265.265,0,0,1,.3.3ZM8.94,28.24a10.2,10.2,0,0,1-4.005-.72,5.869,5.869,0,0,1-2.61-2.04,5.288,5.288,0,0,1-.915-3.09v-.87a.265.265,0,0,1,.3-.3H3.9a.265.265,0,0,1,.3.3v.72a3.026,3.026,0,0,0,1.32,2.52,5.928,5.928,0,0,0,3.63.99,4.8,4.8,0,0,0,3.12-.87,2.818,2.818,0,0,0,1.05-2.28,2.43,2.43,0,0,0-.54-1.59,5.146,5.146,0,0,0-1.575-1.215A30.114,30.114,0,0,0,8.19,18.46a30.466,30.466,0,0,1-3.465-1.53A6.408,6.408,0,0,1,2.61,15.115a4.608,4.608,0,0,1-.84-2.835A4.894,4.894,0,0,1,3.615,8.23,7.8,7.8,0,0,1,8.61,6.76a9.488,9.488,0,0,1,3.9.75,5.992,5.992,0,0,1,2.6,2.1,5.428,5.428,0,0,1,.915,3.12v.6a.265.265,0,0,1-.3.3H13.47a.265.265,0,0,1-.3-.3v-.45a3.237,3.237,0,0,0-1.245-2.6A5.216,5.216,0,0,0,8.49,9.25a4.721,4.721,0,0,0-2.88.765,2.589,2.589,0,0,0-1.02,2.2,2.493,2.493,0,0,0,.51,1.62,4.433,4.433,0,0,0,1.515,1.125q1.005.5,3.075,1.275a34.022,34.022,0,0,1,3.45,1.545,6.587,6.587,0,0,1,2.19,1.86,4.626,4.626,0,0,1,.87,2.865,5.072,5.072,0,0,1-1.935,4.185A8.314,8.314,0,0,1,8.94,28.24ZM32.37,7.3a.265.265,0,0,1,.3-.3h2.28a.265.265,0,0,1,.3.3V27.7a.265.265,0,0,1-.3.3H32.67a.265.265,0,0,1-.3-.3V18.79a.106.106,0,0,0-.12-.12H23.7a.106.106,0,0,0-.12.12V27.7a.265.265,0,0,1-.3.3H21a.265.265,0,0,1-.3-.3V7.3A.265.265,0,0,1,21,7h2.28a.265.265,0,0,1,.3.3v8.76a.106.106,0,0,0,.12.12h8.55a.106.106,0,0,0,.12-.12ZM47.49,28.27a8.07,8.07,0,0,1-3.87-.9,6.436,6.436,0,0,1-2.61-2.535,7.481,7.481,0,0,1-.93-3.765V13.93a7.4,7.4,0,0,1,.93-3.75,6.464,6.464,0,0,1,2.61-2.52,8.835,8.835,0,0,1,7.77,0A6.464,6.464,0,0,1,54,10.18a7.4,7.4,0,0,1,.93,3.75v7.14A7.481,7.481,0,0,1,54,24.835a6.436,6.436,0,0,1-2.61,2.535A8.135,8.135,0,0,1,47.49,28.27Zm0-2.49a4.328,4.328,0,0,0,4.56-4.59V13.9a4.592,4.592,0,0,0-1.26-3.375,4.434,4.434,0,0,0-3.3-1.275,4.384,4.384,0,0,0-3.285,1.275A4.624,4.624,0,0,0,42.96,13.9v7.29a4.532,4.532,0,0,0,1.245,3.33A4.412,4.412,0,0,0,47.49,25.78ZM68.13,6.97a6.6,6.6,0,0,1,3.225.765,5.373,5.373,0,0,1,2.16,2.145,6.45,6.45,0,0,1,.765,3.18,6.185,6.185,0,0,1-.78,3.15,5.382,5.382,0,0,1-2.205,2.1,6.95,6.95,0,0,1-3.285.75H62.73a.106.106,0,0,0-.12.12V27.7a.265.265,0,0,1-.3.3H60.03a.265.265,0,0,1-.3-.3V7.27a.265.265,0,0,1,.3-.3Zm-.39,9.75a3.619,3.619,0,0,0,2.655-.99A3.5,3.5,0,0,0,71.4,13.12a3.454,3.454,0,0,0-3.66-3.66H62.73a.106.106,0,0,0-.12.12V16.6a.106.106,0,0,0,.12.12Z" transform="translate(958.475 1097.086)" fill="#fff"/>
  </g>
</svg>
