<?xml version="1.0" encoding="utf-8"?>
<!-- Generator: Adobe Illustrator 25.0.0, SVG Export Plug-In . SVG Version: 6.00 Build 0)  -->
<svg version="1.1" id="Layer_1" xmlns="http://www.w3.org/2000/svg" xmlns:xlink="http://www.w3.org/1999/xlink" x="0px" y="0px"
	 viewBox="0 0 773.9 345.8" style="enable-background:new 0 0 773.9 345.8;" xml:space="preserve">
<style type="text/css">
	.st0{fill:#B30013;}
</style>
<g>
	<g>
		<g>
			<g>
				<g>
					<path class="st0" d="M566.4,261.2l9.4-32.8l-21.8-0.3l-31.5,92.3h18.6l6.9-9.4c0,0,5.3,10.1,27.6,10.1
						c22.2,0,42.6-14.6,45.2-37.8C623.7,257.6,596.9,241.7,566.4,261.2z M571.5,308.6c-16,0-19.1-7.7-19.1-7.7l9.2-26.3
						c9.1-7.4,16.6-7.7,22.2-7.7c8.1,0,16.7,3.6,14.9,15.2C596.7,294.1,587.6,308.6,571.5,308.6z"/>
					<path class="st0" d="M84,252l20.2-6.4c0,0-11.1-19.1-45-18.9c-35.4,0.3-42.4,18.5-42.4,26.7c0,8.2,6.4,17.2,30.6,25.3
						c23.4,7.7,25.3,10.3,25.3,17.9c0,7.7-11,10.5-19.9,10.1c-19.3-0.9-23.2-8.2-26.4-13.6l-22.4,5.2c0,0,3.9,22.5,49.5,23.2
						c36.1,0.6,45.3-17.2,45.9-25.8c0.3-5.3,0.7-20.1-41-32.8c0,0-18.8-3.5-16-13.7c2-7.9,14.4-9.8,21.5-8.7
						C79.3,243.2,84,252,84,252z"/>
					<path class="st0" d="M132.4,232.8h23.8l-6.8,20.6h14l-5.1,13.6h-13.7l-10.4,31.9c0,0-4.6,9.7,5.2,9.1
						c9.8-0.4,11.4-0.3,11.4-0.3L147,320c0,0-3.2,2-16.9,2s-24.4-6.5-19.3-22.5c5.1-16,10.5-32.3,10.5-32.3h-14.1l4.6-13.6h14.6
						L132.4,232.8z"/>
					<path class="st0" d="M739,232.8h23.8l-6.8,20.6h14l-5.1,13.6h-13.7l-10.4,31.9c0,0-4.6,9.7,5.2,9.1c9.8-0.4,11.4-0.3,11.4-0.3
						l-3.9,12.3c0,0-3.2,2-16.9,2c-13.7,0-24.4-6.5-19.3-22.5c5.1-16,10.5-32.3,10.5-32.3h-14.3l4.6-13.6h14.6L739,232.8z"/>
					<path class="st0" d="M258.4,253.4l-22.2,67h23l16-46.3c8.1-6.4,16.7-8.7,24.1-8.8c0,0,14.4-2.2,5.6,19.2l-12,36h23.7l14.1-43.7
						c0,0,8.5-21.7-22.7-23.4c0,0-14.7-1.6-29.2,8.4l1.2-8.1h-21.7V253.4z"/>
					<polygon class="st0" points="357.6,227.7 326.6,320.3 350.7,320.3 381,228.2 					"/>
					<path class="st0" d="M468.4,307.9l-12.3-54.4h22.4l7.1,44.8l27.6-44.8h25c0,0-45.2,66.3-53,76.4c-7.8,10.1-15.3,13.4-27.1,13.4
						c-14.6,0-20.6,0-20.6,0l5.2-13.6c0,0,3.3-0.1,4.8,0c4.6,0.1,16.3,1,21.2-7.9C470.7,318,468.4,307.9,468.4,307.9z"/>
					<path class="st0" d="M206.2,252.1c0,0-24.5,0.3-37.5,11l13.3,8.5c0,0,8.8-7.5,23.1-7.4c12.3,0,16,8.1,11.3,14.3
						c0,0-57.9-2.5-60.5,23.8c-2.5,24.7,40.9,19.2,49.7,12.9v4.9l21.1,0.3l0.7-8.5l10.3-32.2C237.7,279.6,248.3,250.4,206.2,252.1z
						 M178,304c-4.6-14.9,33.8-14.4,33.8-14.4C207.6,314.5,180.5,311.7,178,304z"/>
					<path class="st0" d="M416.5,252.3c-40-0.1-48.4,31.5-46.9,44.8c1.3,12.4,9,24.7,39.3,24.7c26.6,0,35.8-13.6,35.8-13.6
						l-16.3-7.5c0,0-6.9,7.9-20.8,7.9c-15.3,0-17.8-12.1-14.7-19.2h58.8C451.6,289.5,461.5,252.6,416.5,252.3z M431.4,278.8h-36.5
						c0,0,3.9-14.4,21.8-14.4C434.5,264.4,431.4,278.8,431.4,278.8z"/>
					<path class="st0" d="M673.4,252.3c-40-0.1-48.4,31.5-46.9,44.8c1.3,12.4,9,24.7,39.3,24.7c26.4,0,35.8-13.6,35.8-13.6
						l-16.5-7.5c0,0-6.9,7.9-20.8,7.9c-15.3,0-17.8-12.1-14.7-19.2h58.8C708.5,289.5,718.3,252.6,673.4,252.3z M688.3,278.8h-36.5
						c0,0,3.9-14.4,21.8-14.4C691.5,264.4,688.3,278.8,688.3,278.8z"/>
				</g>
			</g>
		</g>
	</g>
	<g>
		<path class="st0" d="M439.3,16.9l-17.8,189c40.8-14.5,70-53.1,70-98.6C491.5,68.7,470.5,35,439.3,16.9z"/>
		<path class="st0" d="M387,2.6c-57.8,0-104.5,46.9-104.5,104.5c0,23.3,7.6,45.1,20.6,62.5c6.5-2.4,14.1-5.3,22.4-8.6
			c32.5-13.9,70.6-30.8,74.3-44.3c3.9-13.5-5.1-12.4-22.4-9.6c-17.3,2.7-49.2,12-47.8-16.1c1.4-29.2,8.6-38.8,85.5-42.2v13.5
			c0,0-64.5,0.8-64.3,22.2c0.2,19,41.8-2.9,57.1,4.5c15.3,7.6,12.5,30-12.5,49.2c-18.8,14.5-62.5,28.2-89.6,34.9
			c19.2,23.5,48.4,38.6,81.2,38.6c9.2,0,18.2-1.4,26.9-3.7L431.8,13C418.3,6.5,403,2.6,387,2.6z"/>
	</g>
</g>
</svg>
