<svg xmlns="http://www.w3.org/2000/svg" viewBox="0 0 205 45.9"><defs><style>.cls-1{fill:#244764;}.cls-2{fill:#00abbe;}</style></defs><g id="Layer_2" data-name="Layer 2"><g id="Layer_1-2" data-name="Layer 1"><path class="cls-1" d="M37.9,30H32.3c-.4-2-1.4-3.1-3.3-3.1a2.21,2.21,0,0,0-2.5,2.3c0,1.6,1.3,2.5,4.9,3.3,4.4,1.1,7,2.9,7,6.8,0,4.3-3.9,6.4-8.8,6.4-5.2,0-8.9-2.3-9.5-7.1h5.6a3.88,3.88,0,0,0,4,3.4c1.8,0,3.1-.8,3.1-2.3,0-1.7-1.4-2.6-5.1-3.5-4-1-6.7-2.7-6.7-6.4,0-4.1,3.4-6.6,8.5-6.6S37.4,26.1,37.9,30Z"/><path class="cls-1" d="M48.4,37.6v1.9c.2,2.1.9,2.6,4,2.3v3.6a22.18,22.18,0,0,1-3.7.3c-4.1,0-5.6-1.4-5.9-4.4a30.09,30.09,0,0,1-.1-3.1V27.7H39.6V24h3.1V18.7h5.6V24h4.4v3.7H48.3v9.9Z"/><path class="cls-1" d="M68.3,42.1l-1,2.3A9.35,9.35,0,0,1,62,45.8c-3.7,0-6.9-2.2-6.9-6.2,0-4.7,4-7.4,11.8-7.4h1.4v-.4a14.08,14.08,0,0,0-.1-2c-.2-1.5-1.1-2.6-3.3-2.6s-3.4,1.3-3.6,3.6H55.9c.2-4.8,4.1-7.6,9.2-7.6,6,0,8.3,2.6,8.6,6.3.1,1,.1,2.1.1,3.3v6.9a39.15,39.15,0,0,0,.4,5.4H68.8Zm-.1-4.7V35.7c-4.4-.3-7.4.7-7.4,3.5,0,1.9,1.3,2.8,3.3,2.8C66.3,41.9,68.2,40.4,68.2,37.4Z"/><path class="cls-1" d="M91.4,23.5v4.4c-4.6-.3-6.9,1.7-6.9,7.5v9.8H78.9V23.8h5.6v3.9l1.7-3a5.37,5.37,0,0,1,3.7-1.4A7.72,7.72,0,0,1,91.4,23.5Z"/><path class="cls-2" d="M111.6,30.9H109c-.7-3.6-2.9-5.6-6.3-5.6-3.6,0-7.1,2.9-7.1,9.1,0,6.6,3.3,9.4,6.9,9.4a6.13,6.13,0,0,0,6.3-5.2h2.6c-1,4.7-4.5,7.2-9.1,7.2-5.3,0-9.5-3.7-9.5-11.2,0-7,4.6-11.2,9.9-11.2C107.7,23.4,110.9,26.4,111.6,30.9Z"/><path class="cls-2" d="M128.1,41.4l-1,2.3a8.15,8.15,0,0,1-5.9,2.2c-3.9,0-6.8-2.1-6.8-5.9,0-4.9,4.6-7.2,12.3-7.2h1.4v-.9a20.92,20.92,0,0,0-.1-2.6c-.2-2.5-1.7-3.9-4.8-3.9-2.9,0-5,1.6-5.4,4.9h-2.6c.3-4.2,3.5-6.9,8-6.9,4.7,0,6.9,2.1,7.2,5.6a25.28,25.28,0,0,1,.1,2.8v7.5a47.35,47.35,0,0,0,.4,6h-2.4Zm0-4.4V34.5c-6-.4-11,1-11,5.1,0,2.7,1.7,4.1,4.8,4.1C125.6,43.9,128.1,41,128.1,37Z"/><path class="cls-2" d="M150.2,29.9h-2.6c-.6-2.9-2.3-4.5-5.2-4.5-2.6,0-4.3,1.4-4.3,3.8s2,3.4,5.1,4.2c4.9,1.2,7.2,3,7.2,6.6,0,3.8-3.2,5.9-7.6,5.9-4.2,0-7.6-2-8.2-6.8h2.6c.6,3.6,2.9,4.9,5.8,4.9,2.7,0,4.9-1.2,4.9-3.7s-1.5-3.5-5.7-4.6c-3.7-1-6.7-2.5-6.7-6.1s2.9-6.1,7.1-6.1C147.2,23.4,149.7,26.2,150.2,29.9Z"/><path class="cls-2" d="M157.6,19.4a1.69,1.69,0,0,1-1.7,1.7,1.75,1.75,0,0,1-1.7-1.7,1.69,1.69,0,0,1,1.7-1.7A1.63,1.63,0,0,1,157.6,19.4Zm-2.9,25.9V24h2.5V45.3Z"/><path class="cls-2" d="M180.3,33.3V45.2h-2.5V33.6c0-1.2,0-2.1-.1-3.2-.3-2.9-1.9-5-5.5-5s-6.6,2.6-6.6,9.2V45.2h-2.5V24h2.5v4.1l1.1-2.3a7.92,7.92,0,0,1,6-2.4c4.5,0,7.1,2.5,7.5,6.4A33.33,33.33,0,0,1,180.3,33.3Z"/><path class="cls-2" d="M205,34.6c0,6.2-3.6,11.2-10.3,11.2s-10.3-5-10.3-11.2,3.6-11.2,10.3-11.2S205,28.4,205,34.6Zm-2.7,0c0-5.8-3.2-9.2-7.6-9.2s-7.6,3.4-7.6,9.2,3.2,9.2,7.6,9.2S202.3,40.4,202.3,34.6ZM190.8,17.5h2.5l2.5,4.4h-1.7Z"/><polygon class="cls-2" points="28.1 18.5 35.8 18.5 40.9 14.8 26.9 14.8 28.1 18.5"/><polygon class="cls-1" points="18.4 18.5 22.4 6.1 20.4 0 15.6 14.8 0 14.8 5.1 18.5 18.4 18.5"/><polygon class="cls-2" points="15.4 27.7 12.2 25.3 7.8 38.9 13 35.1 15.4 27.7"/></g></g></svg>