<?xml version="1.0" encoding="UTF-8"?> <!-- Generator: Adobe Illustrator 22.1.0, SVG Export Plug-In . SVG Version: 6.00 Build 0) --> <svg xmlns="http://www.w3.org/2000/svg" xmlns:xlink="http://www.w3.org/1999/xlink" version="1.1" id="Layer_1" x="0px" y="0px" viewBox="0 0 300 92" style="enable-background:new 0 0 300 92;" xml:space="preserve"> <style type="text/css"> .st0{fill:#244764;} .st1{fill:#00ABBE;} </style> <g> <path class="st0" d="M85.4,53.1h-5.6c-0.4-2-1.4-3.1-3.3-3.1c-1.7,0-2.5,1-2.5,2.3c0,1.6,1.3,2.5,4.9,3.3c4.4,1.1,7,2.9,7,6.8 c0,4.3-3.9,6.4-8.8,6.4c-5.2,0-8.9-2.3-9.5-7.1h5.6c0.4,2.3,2.1,3.4,4,3.4c1.8,0,3.1-0.8,3.1-2.3c0-1.7-1.4-2.6-5.1-3.5 c-4-1-6.7-2.7-6.7-6.4c0-4.1,3.4-6.6,8.5-6.6C82,46.4,84.9,49.2,85.4,53.1z"></path> <path class="st0" d="M95.9,60.7c0,0.7,0,1.3,0,1.9c0.2,2.1,0.9,2.6,4,2.3v3.6c-1.2,0.2-2.4,0.3-3.7,0.3c-4.1,0-5.6-1.4-5.9-4.4 c-0.1-1-0.1-1.9-0.1-3.1V50.8h-3.1v-3.7h3.1v-5.3h5.6v5.3h4.4v3.7h-4.4V60.7z"></path> <path class="st0" d="M115.8,65.2l-1,2.3c-1.5,1-3.3,1.4-5.3,1.4c-3.7,0-6.9-2.2-6.9-6.2c0-4.7,4-7.4,11.8-7.4h1.4v-0.4 c0-0.6,0-1.3-0.1-2c-0.2-1.5-1.1-2.6-3.3-2.6c-2.2,0-3.4,1.3-3.6,3.6l-5.4,0c0.2-4.8,4.1-7.6,9.2-7.6c6,0,8.3,2.6,8.6,6.3 c0.1,1,0.1,2.1,0.1,3.3v6.9c0,1.6,0.1,3.1,0.4,5.4h-5.4L115.8,65.2z M115.7,60.5v-1.7c-4.4-0.3-7.4,0.7-7.4,3.5 c0,1.9,1.3,2.8,3.3,2.8C113.8,65,115.7,63.5,115.7,60.5z"></path> <path class="st0" d="M138.9,46.6V51c-4.6-0.3-6.9,1.7-6.9,7.5v9.8h-5.6V46.9h5.6v3.9l1.7-3c1-1,2.5-1.4,3.7-1.4 C137.9,46.4,138.4,46.5,138.9,46.6z"></path> <path class="st1" d="M159.1,54h-2.6c-0.7-3.6-2.9-5.6-6.3-5.6c-3.6,0-7.1,2.9-7.1,9.1c0,6.6,3.3,9.4,6.9,9.4c3.1,0,5.6-1.8,6.3-5.2 h2.6c-1,4.7-4.5,7.2-9.1,7.2c-5.3,0-9.5-3.7-9.5-11.2c0-7,4.6-11.2,9.9-11.2C155.2,46.5,158.4,49.5,159.1,54z"></path> <path class="st1" d="M175.6,64.5l-1,2.3c-1.5,1.5-3.6,2.2-5.9,2.2c-3.9,0-6.8-2.1-6.8-5.9c0-4.9,4.6-7.2,12.3-7.2h1.4V55 c0-1,0-1.8-0.1-2.6c-0.2-2.5-1.7-3.9-4.8-3.9c-2.9,0-5,1.6-5.4,4.9h-2.6c0.3-4.2,3.5-6.9,8-6.9c4.7,0,6.9,2.1,7.2,5.6 c0.1,0.9,0.1,1.8,0.1,2.8v7.5c0,1.9,0.1,3.4,0.4,6H176L175.6,64.5z M175.6,60.1v-2.5c-6-0.4-11,1-11,5.1c0,2.7,1.7,4.1,4.8,4.1 C173.1,67,175.6,64.1,175.6,60.1z"></path> <path class="st1" d="M197.7,53h-2.6c-0.6-2.9-2.3-4.5-5.2-4.5c-2.6,0-4.3,1.4-4.3,3.8c0,2.5,2,3.4,5.1,4.2c4.9,1.2,7.2,3,7.2,6.6 c0,3.8-3.2,5.9-7.6,5.9c-4.2,0-7.6-2-8.2-6.8h2.6c0.6,3.6,2.9,4.9,5.8,4.9c2.7,0,4.9-1.2,4.9-3.7c0-2.4-1.5-3.5-5.7-4.6 c-3.7-1-6.7-2.5-6.7-6.1s2.9-6.1,7.1-6.1C194.7,46.5,197.2,49.3,197.7,53z"></path> <path class="st1" d="M205.1,42.5c0,0.9-0.7,1.7-1.7,1.7c-0.9,0-1.7-0.8-1.7-1.7c0-1,0.8-1.7,1.7-1.7 C204.4,40.8,205.1,41.5,205.1,42.5z M202.2,68.4V47.1h2.5v21.3H202.2z"></path> <path class="st1" d="M227.8,56.4v11.9h-2.5V56.7c0-1.2,0-2.1-0.1-3.2c-0.3-2.9-1.9-5-5.5-5c-3.5,0-6.6,2.6-6.6,9.2v10.6h-2.5V47.1 h2.5v4.1l1.1-2.3c1.7-1.7,3.6-2.4,6-2.4c4.5,0,7.1,2.5,7.5,6.4C227.8,53.9,227.8,54.7,227.8,56.4z"></path> <path class="st1" d="M252.5,57.7c0,6.2-3.6,11.2-10.3,11.2c-6.8,0-10.3-5-10.3-11.2c0-6.3,3.6-11.2,10.3-11.2 C248.9,46.5,252.5,51.5,252.5,57.7z M249.8,57.7c0-5.8-3.2-9.2-7.6-9.2c-4.4,0-7.6,3.4-7.6,9.2c0,5.8,3.2,9.2,7.6,9.2 C246.6,67,249.8,63.5,249.8,57.7z M238.3,40.6h2.5l2.5,4.4h-1.7L238.3,40.6z"></path> <polygon class="st1" points="75.6,41.6 83.3,41.6 88.4,37.9 74.4,37.9 "></polygon> <polygon class="st0" points="65.9,41.6 69.9,29.2 67.9,23.1 63.1,37.9 47.5,37.9 52.6,41.6 "></polygon> <polygon class="st1" points="62.9,50.8 59.7,48.4 55.3,62 60.5,58.2 "></polygon> </g> </svg> 