<svg xmlns="http://www.w3.org/2000/svg" width="157.453" height="71.235" viewBox="0 0 157.453 71.235">
  <path id="subhub" d="M305.76,928.7l-.367-.963h-.313v1.354h.185v-1.119l.441,1.119h.131l.417-1.119v1.119h.208v-1.354h-.338Zm-1.9-.807h.417v1.2h.208v-1.2h.418v-.156h-1.043Zm-87.881,13.28a4.5,4.5,0,0,1-1.1-3.2v-5.834h3.52V928.8h-3.52v-6.2H211.6v15.366a7.6,7.6,0,0,0,2.009,5.469,6.926,6.926,0,0,0,4.483,2.031l.313.027v-3.177l-.236-.025a3.779,3.779,0,0,1-2.189-1.119Zm-11.211-8.2-7.9-2.629a3.226,3.226,0,0,1-1.251-.732,1.26,1.26,0,0,1-.442-.883V928.2c0-1.849,1.539-2.785,4.692-2.837h.288c3.153,0,4.769.833,4.952,2.526l.027.259h3.389v-.286c-.156-3.855-2.974-5.833-8.369-5.833h-.34c-5.292.052-7.951,2.136-7.951,6.173v.52a4.552,4.552,0,0,0,1.042,2.944,6.406,6.406,0,0,0,2.972,1.848l7.822,2.631c1.328.44,1.981,1.171,1.981,2.266v.469a2.523,2.523,0,0,1-1.434,2.263,8.339,8.339,0,0,1-4.17.885,7.855,7.855,0,0,1-4.119-.885,2.5,2.5,0,0,1-1.383-2.263v-.34h-3.36v.34a5.652,5.652,0,0,0,2.37,4.739,13.052,13.052,0,0,0,13.038,0,5.583,5.583,0,0,0,2.371-4.739v-.469A5.283,5.283,0,0,0,207.844,935,6.59,6.59,0,0,0,204.765,932.965Zm79.148,4.794a6.3,6.3,0,0,1-.755,3.566,2.953,2.953,0,0,1-2.5.963H280.5a3.017,3.017,0,0,1-2.529-.963,6.315,6.315,0,0,1-.755-3.566V928.8h-3.233v8.962c0,2.733.5,4.737,1.512,5.91a6,6,0,0,0,4.667,1.8h.782a5.991,5.991,0,0,0,4.665-1.8c.967-1.144,1.514-3.177,1.514-5.91V928.8h-3.233v8.962Zm-53.024,0a6.251,6.251,0,0,1-.757,3.566,2.937,2.937,0,0,1-2.529.963h-.1a3.014,3.014,0,0,1-2.53-.963,6.315,6.315,0,0,1-.755-3.566V928.8H220.98v8.962c0,2.733.493,4.737,1.513,5.91a6,6,0,0,0,4.667,1.8h.757a5.991,5.991,0,0,0,4.663-1.8c.991-1.2,1.515-3.177,1.515-5.91V928.8h-3.207Zm66.295-6.2a4.24,4.24,0,0,1,3.128,1.042,4.822,4.822,0,0,1,1.07,3.489v1.85a4.453,4.453,0,0,1-1.122,3.2,4.071,4.071,0,0,1-3.079,1.173,3.93,3.93,0,0,1-3.048-1.173,4.616,4.616,0,0,1-1.094-3.2v-1.877a4.919,4.919,0,0,1,1.044-3.488A4.165,4.165,0,0,1,297.184,931.559Zm0-3.2a5.542,5.542,0,0,0-4.144,1.587V922.6h-3.288v15.312a7.6,7.6,0,0,0,2.008,5.467,8.2,8.2,0,0,0,10.923,0,7.6,7.6,0,0,0,2.008-5.467v-1.85c-.027-5.1-2.556-7.706-7.509-7.706Zm-29.17,3.671h-10.4v-9.479h-3.389v22.733h3.389v-9.948h10.4v9.948h3.412V922.549h-3.413v9.479Zm-23.856-.47a4.236,4.236,0,0,1,3.128,1.042,4.815,4.815,0,0,1,1.07,3.489v1.85a4.441,4.441,0,0,1-1.122,3.2,3.94,3.94,0,0,1-3.076,1.173,3.9,3.9,0,0,1-3.05-1.173,4.627,4.627,0,0,1-1.1-3.2v-1.877a4.934,4.934,0,0,1,1.043-3.488A4.166,4.166,0,0,1,244.157,931.559Zm0-3.2a5.549,5.549,0,0,0-4.145,1.587V922.6h-3.284v15.312a7.6,7.6,0,0,0,2.009,5.467,8.2,8.2,0,0,0,10.924,0,7.6,7.6,0,0,0,2.008-5.467v-1.85c-.029-5.1-2.531-7.706-7.511-7.706Zm-70.884,37.759c-.782.313-1.225-.076-.965-.885l2.216-7.16a8.353,8.353,0,0,0,.288-3l-4.744-45.157a1.481,1.481,0,0,1,1.311-1.634h.006l.064-.005,154.646-10.366a1.3,1.3,0,0,1,1.412,1.187,1.232,1.232,0,0,1,0,.245l-6.282,68.362a1.613,1.613,0,0,1-1.7,1.433L188.132,960.7a7.8,7.8,0,0,0-2.971.494l-11.889,4.927Z" transform="translate(-170.059 -897.908)" fill="#fff"/>
</svg>
