<svg xmlns="http://www.w3.org/2000/svg" width="58" height="26.24" viewBox="0 0 58 26.24">
  <path id="stubhub-mobile" d="M220.046,909.249l-.135-.355H219.8v.5h.068v-.412l.162.412h.048l.154-.412v.412h.077v-.5h-.124Zm-.7-.3h.154v.441h.077v-.441h.154v-.058h-.384Zm-32.372,4.892a1.658,1.658,0,0,1-.4-1.18v-2.149h1.3v-1.227h-1.3V907h-1.21v5.66a2.8,2.8,0,0,0,.74,2.015,2.551,2.551,0,0,0,1.651.748l.115.01v-1.17l-.087-.009a1.392,1.392,0,0,1-.806-.412Zm-4.13-3.022-2.91-.969a1.188,1.188,0,0,1-.461-.269.464.464,0,0,1-.163-.325v-.192c0-.681.567-1.026,1.728-1.045h.106c1.161,0,1.757.307,1.824.931l.01.1h1.248v-.105c-.058-1.42-1.1-2.149-3.083-2.149h-.125c-1.949.019-2.929.787-2.929,2.274v.191a1.677,1.677,0,0,0,.384,1.084,2.36,2.36,0,0,0,1.095.681l2.881.969c.489.162.73.431.73.835V913a.929.929,0,0,1-.528.834,3.071,3.071,0,0,1-1.536.326,2.893,2.893,0,0,1-1.517-.326.92.92,0,0,1-.509-.834v-.125h-1.238V913a2.082,2.082,0,0,0,.873,1.746,4.807,4.807,0,0,0,4.8,0A2.057,2.057,0,0,0,184.4,913v-.173a1.946,1.946,0,0,0-.422-1.257A2.428,2.428,0,0,0,182.843,910.822ZM212,912.588a2.319,2.319,0,0,1-.278,1.313,1.088,1.088,0,0,1-.922.355h-.058a1.111,1.111,0,0,1-.932-.355,2.326,2.326,0,0,1-.278-1.313v-3.3H208.34v3.3a3.355,3.355,0,0,0,.557,2.177,2.21,2.21,0,0,0,1.719.662h.288a2.207,2.207,0,0,0,1.719-.662,3.443,3.443,0,0,0,.558-2.177v-3.3H211.99v3.3Zm-19.532,0a2.3,2.3,0,0,1-.279,1.313,1.082,1.082,0,0,1-.931.355h-.038a1.11,1.11,0,0,1-.932-.355,2.326,2.326,0,0,1-.278-1.313v-3.3h-1.191v3.3a3.344,3.344,0,0,0,.557,2.177,2.208,2.208,0,0,0,1.719.662h.279a2.207,2.207,0,0,0,1.718-.662,3.426,3.426,0,0,0,.558-2.177v-3.3h-1.181Zm24.421-2.284a1.562,1.562,0,0,1,1.152.384,1.776,1.776,0,0,1,.394,1.285v.682a1.64,1.64,0,0,1-.413,1.18,1.5,1.5,0,0,1-1.134.432,1.448,1.448,0,0,1-1.123-.432,1.7,1.7,0,0,1-.4-1.18v-.691a1.812,1.812,0,0,1,.384-1.285A1.534,1.534,0,0,1,216.887,910.3Zm0-1.179a2.041,2.041,0,0,0-1.527.584V907h-1.211v5.64a2.8,2.8,0,0,0,.74,2.014,3.019,3.019,0,0,0,4.024,0,2.8,2.8,0,0,0,.74-2.014v-.682c-.01-1.879-.941-2.839-2.766-2.839Zm-10.745,1.352h-3.832v-3.492h-1.248v8.374h1.248v-3.664h3.832v3.664H207.4v-8.374h-1.257v3.492Zm-8.788-.173a1.56,1.56,0,0,1,1.152.384,1.773,1.773,0,0,1,.394,1.285v.682a1.636,1.636,0,0,1-.413,1.18,1.451,1.451,0,0,1-1.133.432,1.435,1.435,0,0,1-1.123-.432,1.7,1.7,0,0,1-.4-1.18v-.691a1.818,1.818,0,0,1,.384-1.285A1.535,1.535,0,0,1,197.354,910.3Zm0-1.179a2.044,2.044,0,0,0-1.527.584V907h-1.21v5.64a2.8,2.8,0,0,0,.74,2.014,3.02,3.02,0,0,0,4.024,0,2.8,2.8,0,0,0,.74-2.014v-.682c-.011-1.879-.932-2.839-2.767-2.839Zm-26.111,13.909c-.288.115-.451-.028-.355-.326l.816-2.638a3.077,3.077,0,0,0,.106-1.1l-1.748-16.634a.545.545,0,0,1,.483-.6h0l.023,0,56.966-3.818a.48.48,0,0,1,.52.437.453.453,0,0,1,0,.09l-2.314,25.182a.594.594,0,0,1-.625.528l-48.4-3.109a2.871,2.871,0,0,0-1.094.182l-4.379,1.815Z" transform="translate(-170.059 -897.908)" fill="#3f1d74"/>
</svg>
