<svg xmlns="http://www.w3.org/2000/svg" width="61.92" height="27.51" viewBox="0 0 61.92 27.51">
  <g id="ticketone-mobile" transform="translate(-55.65 -88.51)">
    <g id="Layer_1" data-name="Layer 1" transform="translate(55.65 88.51)">
      <path id="Path_4803" data-name="Path 4803" d="M247.863,170.29h-.919c-.265,0-.354.088-.354.354v.917c0,.266.086.356.352.356h.921c.266,0,.344-.094.344-.361v-.912c0-.266-.088-.354-.354-.354" transform="translate(-213.789 -156.241)" fill="#142c52"/>
      <path id="Path_4804" data-name="Path 4804" d="M275.244,97.726a3.717,3.717,0,0,1,3.688-3.463h2.317v-.2h-2.31a3.138,3.138,0,0,1-3.2-3.456l.146-2.1H275.7l-.148,2.1a3.736,3.736,0,0,1-3.709,3.456H269.4a3.248,3.248,0,0,1-3.288-3.278v-2h-.172v2a3.264,3.264,0,0,1-3.29,3.288H260.43v.187h2.216a3.264,3.264,0,0,1,3.3,3.295v2.489a2.943,2.943,0,0,1-2.992,2.977h-2.013v.192h2.013a2.946,2.946,0,0,1,2.98,2.986v2.216a2.786,2.786,0,0,1-2.824,2.828h-2.489a2.984,2.984,0,0,1-2.864-2.69l-.088-1.618h-.213l.115,1.635a2.422,2.422,0,0,1-2.479,2.676H253.28v.189h1.814a2.9,2.9,0,0,1,2.9,2.675l.117,1.661h.172l-.115-1.661a2.4,2.4,0,0,1,2.453-2.673H263.1a2.8,2.8,0,0,1,2.84,2.829v1.75h.172v-1.75a2.778,2.778,0,0,1,2.819-2.828h1.905v-.194h-1.9a2.781,2.781,0,0,1-2.826-2.828V106.2a2.934,2.934,0,0,1,2.972-2.979h2.5a2.805,2.805,0,0,1,2.872,3.07l-.132,1.9h.18l.132-1.9a3.3,3.3,0,0,1,3.281-3.077h2.061v-.192h-2.061a2.779,2.779,0,0,1-2.836-3.072Zm-.189,0-.156,2.233a3.317,3.317,0,0,1-3.3,3.065h-2.5a2.936,2.936,0,0,1-2.979-2.977V97.558a3.25,3.25,0,0,1,3.288-3.295h2.432a3.154,3.154,0,0,1,3.212,3.463Z" transform="translate(-219.33 -88.51)" fill="#f4b01b"/>
      <path id="Path_4805" data-name="Path 4805" d="M58.014,137.631c-.172-.029-.218-.029-.27-.115-.036-.057-.057-.043-.057-.531v-4.214h.141c.344,0,.354,0,.354-.352v-.527c0-.356,0-.354-.354-.354h-.141v-.907c0-.265-.088-.311-.354-.311H56.4c-.265,0-.344.046-.344.311v.907H56c-.344,0-.354,0-.354.354v.527c0,.352,0,.352.23.352h.172v4.968a1.33,1.33,0,0,0,.2.7.993.993,0,0,0,.484.3,3.158,3.158,0,0,0,.764.062h.38c.344,0,.373-.062.373-.606C58.258,137.824,58.23,137.671,58.014,137.631Z" transform="translate(-55.65 -123.138)" fill="#142c52"/>
      <path id="Path_4806" data-name="Path 4806" d="M156.314,137.764c-.172-.029-.216-.029-.27-.115-.036-.057-.055-.043-.055-.533V132.9h.141c.344,0,.354,0,.354-.344v-.529c0-.354,0-.344-.354-.344h-.141v-.907c0-.265-.088-.311-.352-.311H154.7c-.266,0-.354.046-.354.311v.907H154.3c-.344,0-.352,0-.352.344v.529c0,.344,0,.344.23.344h.172v4.968a1.336,1.336,0,0,0,.206.7.984.984,0,0,0,.49.3,3.175,3.175,0,0,0,.766.062h.378c.344,0,.374-.06.374-.6C156.559,137.948,156.535,137.8,156.314,137.764Z" transform="translate(-137.064 -123.262)" fill="#142c52"/>
      <path id="Path_4807" data-name="Path 4807" d="M200.132,136.663a1.258,1.258,0,0,0-.344-.7.88.88,0,0,0-.677-.271,1.11,1.11,0,0,0-.637.194,1.89,1.89,0,0,0-.553.565v-.148c0-.265.024-.479-.4-.479h-.859c-.4,0-.4.215-.4.479v6.55c0,.266.014.4.4.4h.825c.39,0,.4-.129.4-.4V137.6c0-.56.242-.588.366-.588s.344.034.344.546v5.258c0,.266-.019.438.354.438h.952c.344,0,.311-.172.311-.438v-4.762A8.112,8.112,0,0,0,200.132,136.663Z" transform="translate(-172.114 -127.589)" fill="#f4b01b"/>
      <path id="Path_4808" data-name="Path 4808" d="M134.165,138.409c0-2.525-1.41-2.709-1.931-2.709-.4,0-1.984-.014-1.984,2.7v2.1a6.541,6.541,0,0,0,.091,1.266,1.8,1.8,0,0,0,1.917,1.567A1.7,1.7,0,0,0,134.1,141.7a7.9,7.9,0,0,0,.069-1.185v-.127h0v-.211c0-.392-.172-.354-.438-.354h-.732c-.266,0-.354,0-.354.354V141.3c0,.369-.029.739-.4.739-.326,0-.381-.239-.38-.8v-2.077h2.061C134.156,139.155,134.165,138.976,134.165,138.409Zm-1.536,0h-.763v-.476a2.8,2.8,0,0,1,.052-.706.364.364,0,0,1,.344-.218.356.356,0,0,1,.325.222,2.971,2.971,0,0,1,.048.7Z" transform="translate(-117.433 -127.593)" fill="#142c52"/>
      <path id="Path_4809" data-name="Path 4809" d="M225.425,138.409c0-2.525-1.41-2.709-1.931-2.709-.4,0-1.984-.014-1.984,2.7v2.1a6.542,6.542,0,0,0,.091,1.266,1.8,1.8,0,0,0,1.915,1.567,1.7,1.7,0,0,0,1.84-1.629,7.9,7.9,0,0,0,.069-1.185v-.127h0v-.211c0-.392-.172-.354-.438-.354h-.734c-.265,0-.344,0-.344.354V141.3c0,.369-.029.739-.4.739-.325,0-.38-.239-.378-.8v-2.077h2.061C225.421,139.155,225.425,138.976,225.425,138.409Zm-1.536,0h-.764v-.476a2.76,2.76,0,0,1,.053-.706.359.359,0,0,1,.663,0,2.972,2.972,0,0,1,.048.7Z" transform="translate(-193.016 -127.593)" fill="#f4b01b"/>
      <path id="Path_4810" data-name="Path 4810" d="M73.4,136.48h-.916c-.265,0-.344.088-.344.354v6.717c0,.265.086.352.344.352H73.4c.265,0,.344-.093.344-.357v-6.712C73.753,136.569,73.662,136.48,73.4,136.48Z" transform="translate(-69.307 -128.239)" fill="#142c52"/>
      <path id="Path_4811" data-name="Path 4811" d="M73.449,127H72.358c-.265,0-.268.088-.268.354v.466c0,.265,0,.352.268.352h1.091c.265,0,.268-.088.268-.352v-.466C73.712,127.086,73.708,127,73.449,127Z" transform="translate(-69.266 -120.388)" fill="#142c52"/>
      <path id="Path_4812" data-name="Path 4812" d="M272.562,137.631c-.172-.029-.216-.029-.27-.115-.034-.057-.055-.043-.055-.531v-4.214h.141c.344,0,.354,0,.354-.352v-.527c0-.356,0-.354-.354-.354h-.141v-.907c0-.265-.089-.311-.354-.311h-.936c-.265,0-.354.046-.354.311v.907h-.05c-.344,0-.354,0-.354.354v.527c0,.352,0,.352.23.352h.172v4.968a1.33,1.33,0,0,0,.2.7.988.988,0,0,0,.49.3,3.174,3.174,0,0,0,.766.062h.378c.344,0,.375-.062.375-.606C272.808,137.824,272.781,137.671,272.562,137.631Z" transform="translate(-233.335 -123.138)" fill="#142c52"/>
      <path id="Path_4813" data-name="Path 4813" d="M259.57,136.48h-.916c-.266,0-.354.088-.354.354v6.717c0,.265.086.352.352.352h.921c.265,0,.344-.093.344-.357v-6.712C259.922,136.569,259.834,136.48,259.57,136.48Z" transform="translate(-223.488 -128.239)" fill="#142c52"/>
      <path id="Path_4814" data-name="Path 4814" d="M259.654,127H258.57c-.266,0-.27.088-.27.354v.466c0,.265,0,.352.27.352h1.084c.266,0,.268-.088.268-.352v-.466C259.922,127.086,259.92,127,259.654,127Z" transform="translate(-223.488 -120.388)" fill="#142c52"/>
      <path id="Path_4815" data-name="Path 4815" d="M173.479,135.7a1.746,1.746,0,0,0-1.919,1.9v3.819a1.92,1.92,0,0,0,3.839,0V137.6A1.743,1.743,0,0,0,173.479,135.7Zm.294,6.064c0,.2-.091.381-.294.381s-.3-.179-.3-.381v-4.623c0-.2.091-.383.292-.383s.294.187.294.383Z" transform="translate(-151.648 -127.593)" fill="#f4b01b"/>
      <path id="Path_4816" data-name="Path 4816" d="M111.451,131.378h-.788c-.4,0-.464.213-.545.474l-.563,1.771V130.8c0-.265.024-.481-.4-.481h-.825c-.4,0-.4.216-.4.481v7.6c0,.266.014.4.4.4h.818c.39,0,.4-.131.4-.4v-2.077l.464,1.974c.081.261.062.474.462.474h.859c.424,0,.419-.213.344-.474l-.948-3.352.979-3.092C111.788,131.591,111.876,131.378,111.451,131.378Z" transform="translate(-98.957 -123.138)" fill="#142c52"/>
      <path id="Path_4817" data-name="Path 4817" d="M87.583,140.365v-.211c0-.393-.172-.354-.438-.354h-.732c-.266,0-.354,0-.354.352v1.117c0,.369-.029.739-.4.739-.326,0-.381-.239-.38-.8v-2.077l.01-1.227a2.921,2.921,0,0,1,.052-.706.368.368,0,0,1,.344-.218.362.362,0,0,1,.326.22,3.144,3.144,0,0,1,.046.7v.06h0v.448c0,.362.108.354.373.354h.734c.258,0,.409.027.417-.344a.3.3,0,0,1,0-.04c.019-2.527-1.4-2.709-1.917-2.709-.4,0-1.986-.014-1.986,2.7v2.1a6.541,6.541,0,0,0,.091,1.266,1.8,1.8,0,0,0,1.915,1.567,1.7,1.7,0,0,0,1.84-1.629,7.871,7.871,0,0,0,.069-1.185v-.122Z" transform="translate(-78.863 -127.569)" fill="#142c52"/>
    </g>
  </g>
</svg>
