<svg xmlns="http://www.w3.org/2000/svg" width="200" height="88.821" viewBox="0 0 200 88.821">
  <g id="ticketone" transform="translate(-13851 306)">
    <path id="Path_4748" data-name="Path 4748" d="M195.068,81.73h-2.985c-.86,0-1.143.288-1.143,1.148v2.963c0,.86.277,1.148,1.137,1.148h2.985c.86,0,1.11-.305,1.11-1.165V82.878c0-.86-.283-1.148-1.143-1.148" transform="translate(13765.992 -342.387)" fill="#fff"/>
    <path id="Path_4749" data-name="Path 4749" d="M268.609,29.742A12.011,12.011,0,0,1,280.521,18.58h7.49v-.638h-7.462a10.134,10.134,0,0,1-10.33-11.162L270.69,0h-.6l-.477,6.779A12.067,12.067,0,0,1,257.63,17.942h-7.878a10.491,10.491,0,0,1-10.6-10.624V.877h-.6V7.329a10.541,10.541,0,0,1-10.624,10.624H220.77v.621h7.157A10.541,10.541,0,0,1,238.551,29.2v8.039a9.5,9.5,0,0,1-9.626,9.62h-6.513v.616h6.513a9.52,9.52,0,0,1,9.614,9.67v7.162a9,9,0,0,1-9.121,9.132h-8.033a9.657,9.657,0,0,1-9.248-8.688l-.283-5.226h-.682l.372,5.282a7.822,7.822,0,0,1-8.006,8.644H197.68v.6h5.859a9.381,9.381,0,0,1,9.348,8.609l.377,5.366h.555l-.372-5.365a7.755,7.755,0,0,1,7.922-8.638H229.4a9.049,9.049,0,0,1,9.176,9.137v5.659h.555V83.168a8.976,8.976,0,0,1,9.093-9.137h6.169v-.621h-6.13a8.982,8.982,0,0,1-9.1-9.132V57.1a9.481,9.481,0,0,1,9.6-9.626h8.061a9.06,9.06,0,0,1,9.282,9.942l-.427,6.136h.583l.427-6.136a10.663,10.663,0,0,1,10.6-9.936h6.657v-.627h-6.657a8.969,8.969,0,0,1-9.16-9.914Zm-.6,0-.5,7.212a10.713,10.713,0,0,1-10.663,9.92h-8.083a9.481,9.481,0,0,1-9.6-9.62V29.2a10.5,10.5,0,0,1,10.6-10.624h7.856A10.186,10.186,0,0,1,268,29.742Z" transform="translate(13762.99 -306)" fill="#fff"/>
    <path id="Path_4750" data-name="Path 4750" d="M7.656,65.382c-.555-.094-.7-.094-.865-.372-.117-.183-.183-.139-.183-1.72V49.665h.455c1.11,0,1.143,0,1.143-1.11V46.841c0-1.143,0-1.11-1.143-1.11H6.608V42.774c0-.854-.283-1-1.143-1H2.441c-.854,0-1.143.15-1.143,1V45.7H1.143C.033,45.7,0,45.7,0,46.813v1.742c0,1.11,0,1.11.743,1.11H1.3V65.753a4.294,4.294,0,0,0,.666,2.219,3.2,3.2,0,0,0,1.587.976,9.885,9.885,0,0,0,2.469.2H7.246c1.11,0,1.2-.194,1.2-1.953C8.449,66,8.361,65.509,7.656,65.382Z" transform="translate(13851 -324.596)" fill="#fff"/>
    <path id="Path_4751" data-name="Path 4751" d="M106,65.432c-.555-.1-.7-.1-.871-.372-.116-.189-.178-.139-.178-1.72v-13.6h.433c1.11,0,1.11,0,1.11-1.143V46.913c0-1.143,0-1.137-1.11-1.137h-.455V42.824c0-.854-.283-1-1.11-1h-3.024c-.86,0-1.143.15-1.143,1v2.929H99.49c-1.11,0-1.11,0-1.11,1.137v1.687c0,1.11,0,1.143.743,1.143h.555V65.776a4.283,4.283,0,0,0,.666,2.258,3.129,3.129,0,0,0,1.581.96,10.251,10.251,0,0,0,2.474.2h1.221c1.11,0,1.209-.2,1.209-1.958C106.791,66.048,106.7,65.554,106,65.432Z" transform="translate(13807.199 -324.619)" fill="#fff"/>
    <path id="Path_4752" data-name="Path 4752" d="M153.132,50.267a4.017,4.017,0,0,0-1.11-2.247,2.846,2.846,0,0,0-2.186-.882,3.623,3.623,0,0,0-2.058.627,6.1,6.1,0,0,0-1.786,1.831v-.477c0-.854.078-1.548-1.282-1.548h-2.774c-1.282,0-1.276.693-1.276,1.548V70.272c0,.854.039,1.276,1.276,1.276H144.6c1.259,0,1.276-.422,1.276-1.276V53.285c0-1.809.782-1.9,1.182-1.9s1.11.111,1.11,1.764V70.134c0,.86-.061,1.415,1.143,1.415h3.074c1.11,0,1-.555,1-1.415V54.755A25.486,25.486,0,0,0,153.132,50.267Z" transform="translate(13788.374 -326.985)" fill="#fff"/>
    <path id="Path_4753" data-name="Path 4753" d="M87.3,55.895c0-8.155-4.555-8.755-6.236-8.755-1.287,0-6.408-.039-6.408,8.716v6.785a21.165,21.165,0,0,0,.294,4.089,5.82,5.82,0,0,0,6.191,5.06c1.7,0,4.993-.25,5.936-5.259A25.52,25.52,0,0,0,87.3,62.7v-.4h0v-.682c0-1.265-.555-1.143-1.415-1.143H83.515c-.86,0-1.143,0-1.143,1.143v3.606c0,1.193-.094,2.386-1.287,2.386-1.054,0-1.232-.777-1.226-2.6V58.3h6.635C87.293,58.3,87.3,57.725,87.3,55.895Zm-4.96,0H79.875V54.336a9.022,9.022,0,0,1,.166-2.275,1.16,1.16,0,0,1,2.141,0,9.57,9.57,0,0,1,.155,2.264Z" transform="translate(13817.765 -326.987)" fill="#fff"/>
    <path id="Path_4754" data-name="Path 4754" d="M178.559,55.895c0-8.155-4.56-8.755-6.236-8.755-1.293,0-6.408-.039-6.408,8.716v6.785a21.71,21.71,0,0,0,.288,4.089,5.823,5.823,0,0,0,6.191,5.06c1.7,0,4.993-.25,5.942-5.259a25.515,25.515,0,0,0,.222-3.828v-.4h0v-.682c0-1.265-.555-1.143-1.415-1.143h-2.369c-.854,0-1.11,0-1.11,1.143v3.606c0,1.193-.094,2.386-1.293,2.386-1.054,0-1.226-.777-1.226-2.6V58.3H177.8C178.547,58.3,178.559,57.725,178.559,55.895Zm-4.96,0H171.13V54.336a8.876,8.876,0,0,1,.172-2.275,1.16,1.16,0,0,1,2.141,0,9.9,9.9,0,0,1,.155,2.264Z" transform="translate(13777.137 -326.987)" fill="#fff"/>
    <path id="Path_4755" data-name="Path 4755" d="M20.584,47.93H17.627c-.854,0-1.137.283-1.137,1.143V70.759c0,.86.277,1.143,1.11,1.143h2.974c.86,0,1.11-.3,1.11-1.16V49.078C21.727,48.213,21.444,47.93,20.584,47.93Z" transform="translate(13843.658 -327.339)" fill="#fff"/>
    <path id="Path_4756" data-name="Path 4756" d="M20.856,38.44h-3.5c-.854,0-.865.283-.865,1.143v1.5c0,.86,0,1.143.865,1.143h3.5c.86,0,.871-.283.871-1.143v-1.5C21.727,38.751,21.716,38.44,20.856,38.44Z" transform="translate(13843.658 -323.114)" fill="#fff"/>
    <path id="Path_4757" data-name="Path 4757" d="M222.252,65.382c-.555-.094-.7-.094-.871-.372-.111-.183-.178-.139-.178-1.72V49.665h.455c1.11,0,1.143,0,1.143-1.11V46.841c0-1.143,0-1.11-1.143-1.11H221.2V42.774c0-.854-.288-1-1.143-1h-3.024c-.854,0-1.143.15-1.143,1V45.7h-.161c-1.11,0-1.143,0-1.143,1.11v1.742c0,1.11,0,1.11.743,1.11h.555V65.753a4.294,4.294,0,0,0,.671,2.219,3.179,3.179,0,0,0,1.587.976,9.986,9.986,0,0,0,2.474.2h1.22c1.11,0,1.209-.194,1.209-1.953C223.045,66,222.956,65.509,222.252,65.382Z" transform="translate(13755.46 -324.596)" fill="#fff"/>
    <path id="Path_4758" data-name="Path 4758" d="M206.8,47.93h-2.957c-.86,0-1.143.283-1.143,1.143V70.759c0,.86.277,1.143,1.137,1.143h2.974c.854,0,1.11-.3,1.11-1.16V49.078C207.937,48.213,207.654,47.93,206.8,47.93Z" transform="translate(13760.753 -327.339)" fill="#fff"/>
    <path id="Path_4759" data-name="Path 4759" d="M207.072,38.44h-3.506c-.854,0-.865.283-.865,1.143v1.5c0,.86,0,1.143.865,1.143h3.506c.86,0,.866-.283.866-1.143v-1.5C207.937,38.751,207.932,38.44,207.072,38.44Z" transform="translate(13760.753 -323.114)" fill="#fff"/>
    <path id="Path_4760" data-name="Path 4760" d="M122.157,47.14c-2.89,0-6.2,1.331-6.2,6.147V65.642c0,4.816,3.329,6.147,6.2,6.147s6.2-1.331,6.2-6.147V53.287C128.359,48.471,125.053,47.14,122.157,47.14Zm.949,19.612c0,.632-.3,1.232-.949,1.232s-.943-.6-.943-1.232V51.8c0-.632.294-1.237.943-1.237s.949.6.949,1.237Z" transform="translate(13799.373 -326.987)" fill="#fff"/>
    <path id="Path_4761" data-name="Path 4761" d="M63.68,45.187H61.133c-1.293,0-1.5.688-1.759,1.531l-1.82,5.72V43.323c0-.86.078-1.553-1.282-1.553H53.616c-1.282,0-1.276.693-1.276,1.553V67.873c0,.86.044,1.276,1.276,1.276h2.663c1.259,0,1.276-.416,1.276-1.276V61.165l1.481,6.375c.255.843.2,1.531,1.492,1.531H63.3c1.37,0,1.354-.688,1.11-1.531L61.344,56.716l3.162-9.986C64.767,45.875,65.05,45.187,63.68,45.187Z" transform="translate(13827.697 -324.596)" fill="#fff"/>
    <path id="Path_4762" data-name="Path 4762" d="M40.649,62.28v-.688c0-1.265-.555-1.11-1.415-1.11H36.871c-.86,0-1.143-.028-1.143,1.11V65.2c0,1.193-.094,2.386-1.287,2.386-1.054,0-1.232-.771-1.226-2.6V58.28l.033-3.961a9.343,9.343,0,0,1,.166-2.28,1.187,1.187,0,0,1,1.11-.7,1.171,1.171,0,0,1,1.021.7,10.152,10.152,0,0,1,.15,2.275v.178h0v1.454c0,1.171.35,1.143,1.2,1.143h2.369c.832,0,1.32.083,1.343-1.11a.982.982,0,0,0,0-.128c.067-8.161-4.51-8.755-6.186-8.755-1.293.028-6.43-.011-6.43,8.743v6.785a21.127,21.127,0,0,0,.294,4.089,5.815,5.815,0,0,0,6.186,5.06c1.7,0,4.993-.25,5.942-5.259a25.467,25.467,0,0,0,.222-3.828v-.4Z" transform="translate(13838.54 -326.965)" fill="#fff"/>
  </g>
</svg>
