<svg xmlns="http://www.w3.org/2000/svg" xmlns:xlink="http://www.w3.org/1999/xlink" viewBox="0 0 368.85 132.57"><defs><style>.cls-1{fill:#fff;}.cls-1,.cls-2,.cls-3{fill-rule:evenodd;}.cls-2{fill:#00633b;}.cls-3{fill:#1ea538;}.cls-4{mask:url(#mask);}</style><mask id="mask" x="97.04" y="0" width="96.5" height="98.74" maskUnits="userSpaceOnUse"><g id="mask-2"><polygon id="path-1" class="cls-1" points="97.04 0 193.54 0 193.54 98.74 97.04 98.74 97.04 0"/></g></mask></defs><g id="Layer_2" data-name="Layer 2"><g id="Layer_1-2" data-name="Layer 1"><polygon id="Fill-1" class="cls-2" points="53.68 114.83 53.68 131.42 51.06 131.42 51.06 120.07 51.03 120.07 46.55 127.93 44.72 127.93 40.24 120.07 39.71 120.07 39.71 131.42 37.09 131.42 37.09 114.83 39.92 114.83 45.37 124.44 45.42 124.44 50.86 114.83 53.68 114.83"/><polygon id="Fill-2" class="cls-2" points="178.51 131.42 181.13 131.42 181.13 114.83 178.51 114.83 178.51 131.42"/><polygon id="Fill-3" class="cls-2" points="218.67 114.83 221.28 114.83 221.28 128.8 229.14 128.8 229.14 131.42 218.67 131.42 218.67 114.83"/><polygon id="Fill-4" class="cls-2" points="263.19 114.83 273.66 114.83 273.66 117.45 265.81 117.45 265.81 121.82 271.92 121.82 271.92 124.44 265.81 124.44 265.81 128.8 273.66 128.8 273.66 131.42 263.19 131.42 263.19 114.83"/><path id="Fill-6" class="cls-3" d="M236.33,97.27V54.65c0-11,6.31-18.61,19.59-18.61,1.41,0,4.42,0,7.25.19l0-35.25h-.19c-10.17,0-19.55,3.4-26.32,13.23h-.29V1.26H201.87V80.9Z"/><path id="Fill-8" class="cls-2" d="M81.75,123.28a8.38,8.38,0,1,1,8.4,8.51,8.13,8.13,0,0,1-8.4-8.51m13.83,0c0-3.42-2.37-5.87-5.43-5.87-3.24,0-5.47,2.61-5.47,5.87s2.23,5.87,5.47,5.87c3.06,0,5.43-2.46,5.43-5.87"/><path id="Fill-10" class="cls-2" d="M140.77,127c0,2.66-1.76,4.57-5.44,4.57h-6.56V115h5.77c3.43,0,5.4,1.35,5.4,4.07a3.89,3.89,0,0,1-2.43,3.75v0a4.1,4.1,0,0,1,3.26,4.22Zm-9.18-5.18h2.69c1.4,0,2.79-.64,2.79-2.21,0-1.31-.9-2.17-3.07-2.16h-2.41Zm2.91,7.21c2,0,3.33-.77,3.33-2.34s-1.12-2.43-3.28-2.43h-3v4.77Z"/><polygon id="Fill-12" class="cls-2" points="51.7 53.86 33.79 1.26 0 1.26 36.91 97.77 51.7 53.86"/><polygon id="Fill-14" class="cls-3" points="64.55 15.71 94.32 30.01 68.34 97.77 36.91 97.77 64.55 15.71"/><g id="Group-18"><g class="cls-4"><path id="Fill-16" class="cls-3" d="M145.81,26.37c7.43,0,12.61,4.72,14.31,12.66H130.74c1.51-8.13,7.53-12.66,15.07-12.66Zm22.24,38.45h0c-5,5.15-9.6,6.62-17.82,6.62-10.07,0-18-4.54-19.58-13.61H192.6a51,51,0,0,0,.94-9.17C193.54,20.13,173.3,0,146,0,117.56,0,97,20.7,97,49.33c0,29.19,21.28,49.41,49.52,49.41,19.81,0,36.82-9.78,45.88-22.33Z"/></g></g><polyline class="cls-3" points="291.32 118.68 321.05 132.57 368.85 1.24 333.74 1.24 318.38 46.02 302.48 1.24 266.99 1.24 303.04 89.07"/></g></g></svg>