<svg xmlns="http://www.w3.org/2000/svg" width="99.54" height="94.311" viewBox="0 0 99.54 94.311">
  <g id="Group_1625" data-name="Group 1625" transform="translate(-536.96 -1066.374)">
    <g id="Group_1616" data-name="Group 1616" transform="translate(61.176 -155.441)">
      <path id="Subtraction_5" data-name="Subtraction 5" d="M1.62,57.217h0L0,0H44.7l.094,5.642H14.16a2,2,0,0,0-2,2V16.7a2,2,0,0,0,2,2H45.007l.634,38.052-44.021.466Z" transform="translate(499.824 1221.814)" fill="#fff"/>
      <rect id="Rectangle_4613" data-name="Rectangle 4613" width="35.903" height="10.88" rx="1" transform="translate(513.071 1228.544)" fill="#fff"/>
      <path id="Path_4991" data-name="Path 4991" d="M.106,8.489c-.363,2.489.153,8.992,2.338,7.432S3.156,5.847,2.218,5.847s-.833,7.535,2.428,6.758c1.467-.349,1.783-1.822,1.814-3.038m.414-.786C7.87,11.131,7.955,5.8,7.955,5.8S7.787,2.874,9.978,4.439c.9.644,1.28.312,1.521-.429m.158-.61A7.878,7.878,0,0,1,12.812,0" transform="matrix(0.695, 0.719, -0.719, 0.695, 521.187, 1258.054)" fill="none" stroke="#2a3369" stroke-width="0.5" fill-rule="evenodd"/>
      <circle id="Ellipse_297" data-name="Ellipse 297" cx="3.855" cy="3.855" r="3.855" transform="translate(515.57 1229.958)" fill="#187861"/>
      <path id="Path_4992" data-name="Path 4992" d="M3.15,3.027V4.312h.6V3.027Zm1.2,0V4.312h.6V3.027Zm-1.6,2.2h3.8V4.679H2.75Zm2.8-2.2V4.312h.6V3.027Zm-.9-1.652-1.9.918V2.66h3.8V2.293Z" transform="translate(514.71 1230.433)" fill="#fff"/>
      <g id="Group_1612" data-name="Group 1612" transform="matrix(0.927, -0.375, 0.375, 0.927, 524.16, 1253.131)">
        <path id="Path_4995" data-name="Path 4995" d="M.5,32.32H2.688q.419-3.893.5-8.789.083-4.751-.47-22.439a1.124,1.124,0,0,0-2.248,0Q0,18.866,0,23.531A70.337,70.337,0,0,0,.5,32.32Z" transform="translate(34.858 0) rotate(68)" fill="#2a3369" fill-rule="evenodd"/>
        <g id="Group_1610" data-name="Group 1610" transform="matrix(0.375, 0.927, -0.927, 0.375, 4.888, 12.098)">
          <g id="Path_4993" data-name="Path 4993" transform="translate(0 0)" fill="#187861">
            <path d="M 1.53427255153656 5.563286781311035 L 1.391622543334961 5.40576696395874 L -0.1482473909854889 3.705337047576904 L -0.2212373912334442 3.624727010726929 L -0.1932673901319504 3.519646883010864 C 0.2084126025438309 2.010457038879395 0.3792726099491119 0.8315969705581665 0.3145425915718079 0.01581696979701519 L 0.2974126040935516 -0.2000030279159546 L 0.5139126181602478 -0.2000030279159546 L 2.698002576828003 -0.2000030279159546 L 2.905672550201416 -0.2000030279159546 L 2.897862672805786 0.007516969460994005 C 2.856942653656006 1.094846963882446 3.024052619934082 2.274527072906494 3.394542694091797 3.513797044754028 L 3.428292512893677 3.626687049865723 L 3.345902681350708 3.71092700958252 L 1.682852625846863 5.411356925964355 L 1.53427255153656 5.563286781311035 Z" stroke="none"/>
            <path d="M 0.5139126777648926 -2.86102294921875e-06 C 0.5807425975799561 0.8423871994018555 0.409442663192749 2.032757043838501 2.622604370117188e-06 3.571086883544922 L 1.539872646331787 5.271516799926758 L 3.202922582626343 3.571086883544922 C 2.824372529983521 2.304857015609741 2.656062602996826 1.114497184753418 2.698002576828003 -2.86102294921875e-06 L 0.5139126777648926 -2.86102294921875e-06 M 0.08092260360717773 -0.4000029563903809 L 0.5139126777648926 -0.4000029563903809 L 2.698002576828003 -0.4000029563903809 L 3.113342523574829 -0.4000029563903809 L 3.09772253036499 0.01503705978393555 C 3.057632684707642 1.08040714263916 3.221962690353394 2.238286972045898 3.586162567138672 3.456516981124878 L 3.65366268157959 3.682296991348267 L 3.488892555236816 3.850767135620117 L 1.825842618942261 5.551197052001953 L 1.528672575950623 5.855047225952148 L 1.243382573127747 5.540017127990723 L -0.2964873313903809 3.839586973190308 L -0.4424774646759033 3.678376913070679 L -0.3865373134613037 3.468206882476807 C 0.0092926025390625 1.981006860733032 0.1780927181243896 0.8247771263122559 0.1151626110076904 0.03162717819213867 L 0.08092260360717773 -0.4000029563903809 Z" stroke="none" fill="#fff"/>
          </g>
        </g>
      </g>
      <g id="Group_1615" data-name="Group 1615" transform="translate(507.815 1231.205)">
        <path id="Path_5006" data-name="Path 5006" d="M247.369,97.5h18.382" transform="translate(-230.209 -97.5)" fill="none" stroke="#38e8bc" stroke-linecap="square" stroke-width="1" fill-rule="evenodd"/>
        <path id="Path_5007" data-name="Path 5007" d="M247.369,114.5h18.382" transform="translate(-230.209 -112.025)" fill="none" stroke="#38e8bc" stroke-linecap="square" stroke-width="1" fill-rule="evenodd"/>
        <path id="Path_5008" data-name="Path 5008" d="M247.366,131.5h9.119" transform="translate(-230.206 -126.55)" fill="none" stroke="#187861" stroke-linecap="square" stroke-width="1" fill-rule="evenodd"/>
        <path id="Path_5009" data-name="Path 5009" d="M129.5,202.5h28.826" transform="translate(-129.5 -187.213)" fill="none" stroke="#2a3369" stroke-linecap="square" stroke-width="0.5" fill-rule="evenodd"/>
        <path id="Path_5010" data-name="Path 5010" d="M129.5,235.5h28.826" transform="translate(-129.5 -215.409)" fill="none" stroke="#2a3369" stroke-linecap="square" stroke-width="0.5" fill-rule="evenodd"/>
        <path id="Path_5011" data-name="Path 5011" d="M129.5,269.5h28.826" transform="translate(-129.5 -244.459)" fill="none" stroke="#2a3369" stroke-linecap="square" stroke-width="0.5" fill-rule="evenodd"/>
      </g>
    </g>
    <path id="Path_5013" data-name="Path 5013" d="M7.77,0a.35.35,0,0,1-.36-.24L.99-20.67l-.03-.12q0-.21.27-.21H3.66a.35.35,0,0,1,.36.24L8.97-4.17a.1.1,0,0,0,.09.06.1.1,0,0,0,.09-.06L14.1-20.76a.33.33,0,0,1,.33-.24H16.8q.33,0,.24.33L10.56-.24A.35.35,0,0,1,10.2,0ZM21.39,0a.265.265,0,0,1-.3-.3V-20.7a.265.265,0,0,1,.3-.3h2.28a.265.265,0,0,1,.3.3V-.3a.265.265,0,0,1-.3.3ZM35.97.24a10.2,10.2,0,0,1-4.005-.72,5.869,5.869,0,0,1-2.61-2.04,5.288,5.288,0,0,1-.915-3.09v-.87a.265.265,0,0,1,.3-.3h2.19a.265.265,0,0,1,.3.3v.72a3.026,3.026,0,0,0,1.32,2.52,5.928,5.928,0,0,0,3.63.99,4.8,4.8,0,0,0,3.12-.87A2.818,2.818,0,0,0,40.35-5.4a2.43,2.43,0,0,0-.54-1.59,5.146,5.146,0,0,0-1.575-1.215A30.115,30.115,0,0,0,35.22-9.54a30.466,30.466,0,0,1-3.465-1.53,6.408,6.408,0,0,1-2.115-1.815,4.608,4.608,0,0,1-.84-2.835,4.894,4.894,0,0,1,1.845-4.05,7.8,7.8,0,0,1,5-1.47,9.488,9.488,0,0,1,3.9.75,5.992,5.992,0,0,1,2.6,2.1,5.428,5.428,0,0,1,.915,3.12v.6a.265.265,0,0,1-.3.3H40.5a.265.265,0,0,1-.3-.3v-.45a3.237,3.237,0,0,0-1.245-2.6A5.216,5.216,0,0,0,35.52-18.75a4.721,4.721,0,0,0-2.88.765,2.589,2.589,0,0,0-1.02,2.2,2.493,2.493,0,0,0,.51,1.62,4.433,4.433,0,0,0,1.515,1.125q1,.5,3.075,1.275a34.022,34.022,0,0,1,3.45,1.545,6.587,6.587,0,0,1,2.19,1.86,4.626,4.626,0,0,1,.87,2.865,5.072,5.072,0,0,1-1.935,4.185A8.314,8.314,0,0,1,35.97.24ZM54.9.24a8.325,8.325,0,0,1-3.855-.855,6.276,6.276,0,0,1-2.6-2.43,6.975,6.975,0,0,1-.93-3.615V-20.7a.265.265,0,0,1,.3-.3H50.1a.265.265,0,0,1,.3.3V-6.6a4.176,4.176,0,0,0,1.245,3.15A4.494,4.494,0,0,0,54.9-2.25a4.441,4.441,0,0,0,3.24-1.2A4.2,4.2,0,0,0,59.37-6.6V-20.7a.265.265,0,0,1,.3-.3h2.28a.265.265,0,0,1,.3.3V-6.66a7.064,7.064,0,0,1-.915,3.615,6.178,6.178,0,0,1-2.58,2.43A8.325,8.325,0,0,1,54.9.24ZM79.53,0a.329.329,0,0,1-.33-.21L75-9.18a.118.118,0,0,0-.12-.09H70.56a.106.106,0,0,0-.12.12V-.3a.265.265,0,0,1-.3.3H67.86a.265.265,0,0,1-.3-.3V-20.7a.265.265,0,0,1,.3-.3h8.07a6.467,6.467,0,0,1,3.165.75,5.277,5.277,0,0,1,2.115,2.1,6.318,6.318,0,0,1,.75,3.12,5.742,5.742,0,0,1-1.1,3.555A5.375,5.375,0,0,1,77.82-9.51q-.12.06-.06.15l4.35,9a.334.334,0,0,1,.03.15q0,.21-.24.21ZM70.56-18.51a.106.106,0,0,0-.12.12v6.72a.106.106,0,0,0,.12.12h5.01a3.477,3.477,0,0,0,2.55-.945,3.357,3.357,0,0,0,.96-2.5,3.447,3.447,0,0,0-.96-2.55,3.447,3.447,0,0,0-2.55-.96Zm29.94-.3a.265.265,0,0,1-.3.3H89.55a.106.106,0,0,0-.12.12v6.45a.106.106,0,0,0,.12.12h7.32a.265.265,0,0,1,.3.3v1.89a.265.265,0,0,1-.3.3H89.55a.106.106,0,0,0-.12.12v6.6a.106.106,0,0,0,.12.12H100.2a.265.265,0,0,1,.3.3V-.3a.265.265,0,0,1-.3.3H86.85a.265.265,0,0,1-.3-.3V-20.7a.265.265,0,0,1,.3-.3H100.2a.265.265,0,0,1,.3.3Z" transform="translate(536 1160.445)" fill="#fff"/>
  </g>
</svg>
