<svg xmlns="http://www.w3.org/2000/svg" width="40.607" height="39.587" viewBox="0 0 40.607 39.587">
  <path id="vodafone" d="M49.622,41a8.046,8.046,0,0,0-6.29,7.856c0,.083.019.181.023.264,5.672,1.216,8.533,5.066,8.533,10.148a10.332,10.332,0,0,1-10.3,10.336c-5.664,0-10.956-4.762-10.956-11.822,0-8.62,7.333-16.705,17.782-16.962.189,0,.487,0,.792.017A20.7,20.7,0,0,0,41.8,39.477a19.8,19.8,0,1,0,0,39.587A20.054,20.054,0,0,0,62.1,59.27,19.8,19.8,0,0,0,49.622,41Z" transform="translate(-21.49 -39.477)" fill="#cc2131" fill-rule="evenodd"/>
</svg>
