<svg xmlns="http://www.w3.org/2000/svg" viewBox="0 0 355.92 167.34"><defs><style>.cls-1{fill:#ed6c1e;}</style></defs><g id="Layer_2" data-name="Layer 2"><g id="Layer_1-2" data-name="Layer 1"><path class="cls-1" d="M108.38,50.53c9.73-1.09,16.84-9,15.88-17.59A14.3,14.3,0,0,0,122,26.7a10.08,10.08,0,0,1-.44,3.84,14,14,0,0,1-2,3.93,17.49,17.49,0,0,1-2.79,3.06,23.93,23.93,0,0,1-6.85,4.18,22.26,22.26,0,0,1-8,1.58,12.94,12.94,0,0,1-2-.09c-.92-.13-2-.31-2.14-.35a18.53,18.53,0,0,1-3.88-1.27,13.16,13.16,0,0,1-3.67-2.4,9.94,9.94,0,0,1-1.09-1.26C90.62,46,99,51.62,108.38,50.53M91.45,33.69a7.56,7.56,0,0,0,4.4,2,19,19,0,0,0,2.88.31c.48,0,1,0,1.49,0h.69l.7,0a20.85,20.85,0,0,0,5.54-1.27,26.83,26.83,0,0,0,5.24-2.57,12.7,12.7,0,0,0,3.93-3.67,6.13,6.13,0,0,0,.87-2.09,3.76,3.76,0,0,0-.31-2.23,6.47,6.47,0,0,0-1.83-2.27c-2.83-2.48-7.46-2.7-10.21-2.4-6.33.75-11.69,4.46-13.66,8.38a7.34,7.34,0,0,0-.65,3.45,4.31,4.31,0,0,0,.92,2.36m14,73.17a17.41,17.41,0,0,0-5.94.79,25.12,25.12,0,0,0-5.67,2.7c-.91.57-1.79,1.22-2.66,1.88,0,0-7,5.15-9.16,6.5-4.45,2.57-7.2,4.49-12.26,5.67A45.33,45.33,0,0,1,62,125.54a54.57,54.57,0,0,1-11.69-.44A59.29,59.29,0,0,1,39,122.35a64.11,64.11,0,0,1-6.16-2.44c3.8,5.5,7.95,11,13.14,15.05a28.45,28.45,0,0,0,15.18,6.11c9.12.74,15.49-3.66,22.26-9.47,4.84-4.14,9-9.16,13.17-14,2.93-3.36,5.9-7.77,9.56-10.69a5.31,5.31,0,0,0-.74-.09M160,92.07A35.16,35.16,0,0,0,166,96.39a24.9,24.9,0,0,0,6.51,2.49,20.62,20.62,0,0,0,6.93.26,24.61,24.61,0,0,0,3.54-.7c1.18-.35,2.35-.74,3.49-1.18a48.54,48.54,0,0,0,12.09-7.55,93.87,93.87,0,0,0,10.6-10.51,128.25,128.25,0,0,0,9.25-12.09c2.14-3.14,4.19-6.41,6.15-9.69a8.55,8.55,0,0,0-5.8-1.65c-5.37.34-10,3.92-13.79,7.46-4,3.79-7.59,8-11.83,11.65a97.61,97.61,0,0,1-13.35,9.86c-6.28,3.75-13.31,6.46-20.46,6.63,0,0,.74.7.74.7M271.18,68.72a100.31,100.31,0,0,1,15.23-7.89c9.94-4.37,25.13-6.5,28.84-17.85,3.93-12.09-7.07-19.9-18.15-20.29-30.11-1-59.83,18.11-61.31,23.61,1.05.17,2.18.35,3.36.48,5.06.52,11.21.56,17.89.56h1.18c10.21,0,17.45.27,22.08,1a18.15,18.15,0,0,1,5,1.31c1,.53,1.35,1,1.39,1.62,0,.39-.26.78-.91,1.39-2.23,2.23-8,5.5-13.23,9.12a45,45,0,0,0-6.93,5.68c-1.84,1.92-3.06,3.92-3.1,6v.09a6.94,6.94,0,0,0,1.13,3.8c-.08-.92,1.14-2.53,1.66-3.23a22.11,22.11,0,0,1,5.85-5.33M27.78,105.2c.87.7,1.88,1.4,2.79,2,1.88,1.22,3.71,2.27,5.68,3.32a64.3,64.3,0,0,0,6,2.79,53.77,53.77,0,0,0,6.28,2.05A54.51,54.51,0,0,0,55,116.59a46,46,0,0,0,6.5.35,47.24,47.24,0,0,0,6.5-.65c7-1.18,14.18-6.42,16-7.73L87,106.47c1.09-.74,2.18-1.44,3.32-2.1a30.17,30.17,0,0,1,7.42-3.09,21.18,21.18,0,0,1,7.94-.66,23.19,23.19,0,0,1,5.1,1.22,20.9,20.9,0,0,1,2.88,1.36,33.87,33.87,0,0,1,3.36,2.44c5,4.23,19.59,21.82,23.78,25.61,5,4.45,11.22,9,16.28,10.3,9.77,2.58,17.5.22,26.27-5.32,9.68-6.11,17.54-15.27,24.21-24.44,7-9.68,13.4-20.29,17.55-31.55,2.05-5.58,3.7-11.69,2.61-17.67a17.67,17.67,0,0,0-.48-1.74q-2.08,4.44-4.49,8.77A132.55,132.55,0,0,1,214.19,83a91.93,91.93,0,0,1-10.56,12.18A55,55,0,0,1,190,104.85a46.19,46.19,0,0,1-4.41,1.79,33.79,33.79,0,0,1-4.71,1.18,29.17,29.17,0,0,1-9.91.05,32.49,32.49,0,0,1-9.34-3.1,40,40,0,0,1-7.89-5.37s-1.44-1.31-1.75-1.53l-1.57-1.48-3.1-3c-2.05-2-5.67-6.11-5.67-6.11s-6.33-7.37-11.52-13c0,0-4.89-5.28-7.55-7.55-9.08-7.72-20.2-6-30-.65-9.12,5-17.24,14.44-28.14,15.14-8.51.53-16.28-2.66-22.52-8.29C33.63,65.5,25.69,57.69,19,48.57c-3-4.06-9.6-10.08-16.23-4.89s-.44,22.6,9.29,40.8c-.13,0,8.56,15.18,15.71,20.72M280,116c-.09-2.23-.18-3-.18-3a18.91,18.91,0,0,0-.57-2.83,12.28,12.28,0,0,0-18.85-6.63c-5.71,4-8,11.86-5.93,18.45,5.28,16.72,24.61,20.21,39.84,17.89a43.52,43.52,0,0,0,20.86-8.64c5.75-4.62,10.16-11.78,8.72-19.24-1-11.21-9.47-16.8-23.3-18.41.66,1.35,2.79,11.17-4.19,17.54-4.27,3.88-8.81,4.89-15,4.93L280,116M334.19,70A42.79,42.79,0,0,1,330.48,67c.39-.65,1.09-1.7,1.7-2.57,3.62-5.24,10.38-15.14,10.38-29.28a32.35,32.35,0,0,0-10.12-23.69C325.33,4.71,314,0,297.45,0,281.74,0,264,5.15,248.71,14.22a77.27,77.27,0,0,0-16.5,12.66c-3.93,4.23-6.24,8.25-6.24,11.69A6.25,6.25,0,0,0,227.85,43a10.22,10.22,0,0,0,3.84,2.27c1.66-10.64,42-33.77,71.6-30.41,13.22,1.53,23.09,11.34,21.69,25-1.31,13-14.57,20.12-26,23.57a169.27,169.27,0,0,0-18.89,6.41,43.87,43.87,0,0,0-8.68,4.76c-1.92,1.44-4.41,3.27-4.28,6,4.54,3.1,11.69,4.85,16.36,5.2,3.8.26,4.85.35,9.12.48,8.73.26,17.89.56,26,4,11.43,4.93,18.15,16.76,15.71,29.11-3.14,15.93-19.2,25.53-34.12,28.32-15.93,3-36,.65-46.47-13.14-4.32-5.63-7-13.17-5.85-20.24,1.31-7.9,6.85-15.45,14.84-17.46a17.25,17.25,0,0,1,14.35,2.88A21.09,21.09,0,0,0,273.62,96c-4.62-4-11.13-6.28-18.67-6.28A28.74,28.74,0,0,0,233,99.27a31.74,31.74,0,0,0-7.94,20.81c0,11.78,5.45,23.61,16,32.47s26.31,14.79,46.91,14.79a76.76,76.76,0,0,0,45.25-14.75c10.34-7.77,22.69-22,22.65-45.2C356.05,86,341.74,75.49,334.19,70"/></g></g></svg>