<?xml version="1.0" encoding="utf-8"?>
<!-- Generator: Adobe Illustrator 25.0.0, SVG Export Plug-In . SVG Version: 6.00 Build 0)  -->
<svg version="1.1" id="Livello_1" xmlns="http://www.w3.org/2000/svg" xmlns:xlink="http://www.w3.org/1999/xlink" x="0px" y="0px"
	 viewBox="0 0 433.7 82.2" style="enable-background:new 0 0 433.7 82.2;" xml:space="preserve">
<style type="text/css">
	.st0{fill:#231F20;}
	.st1{enable-background:new    ;}
</style>
<g>
	<path class="st0" d="M130.6,74.8H91.7c-1.2,0-2.3-1-2.3-2.2c0,0,0-0.1,0-0.1v-4.8c0-1,0.4-1.9,1.1-2.6l31-36H91.1
		c-1.2,0-2.3-1-2.3-2.2c0,0,0-0.1,0-0.1v-3.4c0-1.2,1-2.3,2.2-2.3c0,0,0.1,0,0.1,0h39.3c1.2,0,2.3,1,2.3,2.2c0,0,0,0.1,0,0.1v4.9
		c0,0.9-0.4,1.8-1,2.4l-31.1,36.1h30c1.2,0,2.3,1,2.3,2.2c0,0,0,0.1,0,0.1v3.4c0,1.2-0.9,2.3-2.2,2.3
		C130.7,74.8,130.7,74.8,130.6,74.8 M207.4,75.8L207.4,75.8c2.8-0.1,4.9-0.6,5.7-1.5c0.3-0.3,0.4-0.7,0.4-1.1
		c-0.2-1.3-0.4-2.6-0.8-3.9v-0.1c-0.1-0.7-0.6-1.3-1.4-1.4h-0.1c0,0-0.7,0-1.4,0l0,0c-2-0.1-3.6-0.3-3.7-3.3V3.8
		c0.1-1.1-0.7-2-1.8-2.1c0,0-0.1,0-0.1,0H204l-5.4,1.4c-1.1,0-1.9,0.9-1.9,2c0,0,0,0,0,0v59.7C196.7,71.9,200.5,75.8,207.4,75.8
		L207.4,75.8z M317.3,74.8h-4.9c-1.2,0-2.3-1-2.3-2.2c0,0,0-0.1,0-0.1V35.9c-0.1-6.2-1.9-7.9-8.6-8c-6,0.1-11.9,1-17.7,2.6v42
		c0.1,1.2-0.8,2.2-2,2.3c0,0-0.1,0-0.1,0h-5c-1.2,0-2.3-0.9-2.3-2.2c0,0,0-0.1,0-0.1V31.5c-0.1-3.8,0.3-6.4,5.7-8.2
		c5.2-1.8,15.1-3.3,21.6-3.3c12.5,0,17.8,4.5,17.8,15v37.6c0,1.2-0.9,2.3-2.2,2.3C317.4,74.8,317.3,74.8,317.3,74.8 M366.1,29.4
		c-4.1-1-8.3-1.6-12.6-1.6c-10.5,0.1-14.8,2.9-15,20.3c0.1,19.1,5.8,20.1,15,20.2l0,0c4.2,0,8.4-0.6,12.5-1.7L366.1,29.4z
		 M368.6,74.1l-0.6,0.2c-4.8,1.3-9.8,1.9-14.7,1.8l0,0c-20.4,0-24.4-10.3-24.5-28.1c0-20.4,6.5-28,23.9-28c4.5,0,9,0.5,13.4,1.5V5.1
		c0-0.7,0.3-1.7,2-2l5.4-1.4h0.3c1.2,0,1.7,1.1,1.7,2.1v61.7C375.5,69.4,375.1,72.7,368.6,74.1 M408.2,68.2
		c-13.4-0.1-14.1-6.9-14.1-20.1c0.1-13.2,0.8-20.1,14.1-20.2s14.1,7,14.1,20.2C422.2,61.2,421.6,68.1,408.2,68.2 M408.2,20
		c-22.1,0-23.9,14.5-24,28.1s1.9,28,24,28s23.9-14.4,24-28C432.2,33.9,430.3,20,408.2,20 M255.2,48.4c-2.2,0-12.9,0.2-17.2,1.1
		l-0.3,0.1c-4.8,1.1-8.6,1.9-8.6,9c0,8.9,6.9,9.7,13.9,9.8l0,0c4.2,0,8.3-0.6,12.3-1.8V48.4z M264.6,35.3v28.4
		c0.1,7.1-1.7,9.3-8.8,11c-4.3,0.9-8.7,1.4-13.1,1.4l0,0c-7.6,0-23.4,0-23.5-17.1c-0.1-13.5,8-15.8,17.8-17.3
		c5.4-0.8,10.8-1.2,16.2-1.2h1.8v-4.8c0-3.2-0.1-5.2-3.1-6.3c-1.9-0.8-4.6-1.1-8.7-1.1c-5.7,0.1-11.3,1-16.8,2.5l-1.5,0.4
		c-0.2,0.1-0.4,0.1-0.6,0.1l0,0c-0.8,0-1.5-0.6-1.8-1.4v-0.1l-0.9-4.6V25c0-0.9,0.6-1.7,1.5-2c3.2-1.2,11.8-3.1,20.9-3.1
		c6.7,0,11.6,0.9,14.8,2.7C264.7,25.6,264.7,31,264.6,35.3 M176,66.5c-4,1.3-8.1,1.9-12.3,1.8l0,0c-7-0.1-13.8-0.9-13.9-9.8
		c0-7.1,3.8-8,8.6-9l0.3-0.1c4.3-0.9,15-1.1,17.2-1.1L176,66.5z M179.9,22.7c-3.3-1.8-8.1-2.7-14.8-2.7c-9.2,0-17.7,1.9-21,3.1
		c-0.9,0.2-1.5,1-1.5,1.9v0.2l0.9,4.6v0.1c0.2,0.8,0.9,1.3,1.8,1.4l0,0c0.2,0,0.4,0,0.6-0.1l1.5-0.4c5.5-1.5,11.1-2.4,16.8-2.5
		c4.1,0,6.9,0.4,8.7,1.1c3,1.1,3,3.1,3.1,6.3v4.8h-1.8c-5.4,0-10.8,0.4-16.1,1.2c-9.8,1.5-17.9,3.8-17.8,17.3
		c0,17.1,15.9,17.1,23.5,17.1l0,0c4.4,0,8.8-0.5,13.1-1.4c7.1-1.7,8.9-3.9,8.8-11V35.3C185.5,31,185.5,25.6,179.9,22.7"/>
	<g class="st1">
		<defs>
			<path id="SVGID_1_" class="st1" d="M61.2,38.3L61.2,38.3z M1.6,50.9c19.1,4.5,39.6-0.6,59.3-12.4l0.3-0.2l-0.6-0.7
				c-9-10.1-27.9-22.4-49.2-22.4C4.7,15.3,1.2,33.6,1.6,50.9"/>
		</defs>
		<use xlink:href="#SVGID_1_"  style="overflow:visible;fill:#F49A52;"/>
		<clipPath id="SVGID_2_">
			<use xlink:href="#SVGID_1_"  style="overflow:visible;"/>
		</clipPath>
	</g>
	<g class="st1">
		<defs>
			<path id="SVGID_3_" class="st1" d="M1.6,50.9C1.9,66,5.3,80.5,11.9,80.5c25.5,0,54.5-24,54.5-32.6c0-2.2-2.2-6.3-5.1-9.6
				C41.4,50.3,20.8,55.4,1.6,50.9"/>
		</defs>
		<use xlink:href="#SVGID_3_"  style="overflow:visible;fill:#F07E23;"/>
		<clipPath id="SVGID_4_">
			<use xlink:href="#SVGID_3_"  style="overflow:visible;"/>
		</clipPath>
	</g>
</g>
</svg>
