<svg xmlns="http://www.w3.org/2000/svg" width="144.213" height="34" viewBox="0 0 144.213 34">
    <defs>
        <style>
            .cls-1,.cls-3{fill:var(--accent-bg)}.cls-2{fill:#040505}.cls-3{stroke-miterlimit:10}.cls-4{fill:none}.cls-5{fill:#af3a0f}.cls-6,.cls-7{stroke:none}.cls-7{fill:#fff}
        </style>
    </defs>
    <g id="Group_2" data-name="Group 2" transform="translate(-69.814 -256.848)">
        <path id="Path_6" d="M88.255 272a5.214 5.214 0 0 0 3.289-2.254 6.8 6.8 0 0 0 1.183-3.806 5.367 5.367 0 0 0-1.774-4.139 6.411 6.411 0 0 0-4.583-1.663H75.062l-1.16 5.691 6.075 4.583.924-4.583h2.994a1.932 1.932 0 0 1 2.107 2 2.619 2.619 0 0 1-2.587 2.587H72.969l-.979 4.8-1 4.915-1.176 5.769h14.117a7.777 7.777 0 0 0 6.061-2.513 8.752 8.752 0 0 0 2.291-6.023A5.152 5.152 0 0 0 88.255 272zm-5.544 8.13h-4.692l1-4.915h4.139a2.129 2.129 0 0 1 2.328 2.143 2.767 2.767 0 0 1-2.774 2.777z" class="cls-1" data-name="Path 6" transform="translate(0 -2.259)" />
        <path id="Path_7" d="M263.35 295.722a3.757 3.757 0 0 0 2.674.974 4.5 4.5 0 0 0 4.437-4.333 3.405 3.405 0 0 0-1.037-2.55 3.594 3.594 0 0 0-2.654-1.016 4.254 4.254 0 0 0-3.11 1.327 4.2 4.2 0 0 0-1.327 3.068 3.313 3.313 0 0 0 1.017 2.53z" class="cls-1" data-name="Path 7" transform="translate(-132.032 -21.911)" />
        <path id="Path_8" d="M145.682 285.9l5.248-25.758h10.828a8.508 8.508 0 0 1 6.208 2.328 7.666 7.666 0 0 1 2.439 5.876 10.287 10.287 0 0 1-10.273 10.089h-5.913L152.7 285.9zm9.83-13.821h4.841a3.2 3.2 0 0 0 3.03-3.178 2.381 2.381 0 0 0-2.513-2.4h-4.213z" class="cls-2" data-name="Path 8" transform="translate(-52.031 -2.259)" />
        <path id="Path_9" d="M231.192 266.467a15.355 15.355 0 0 1 5.655-5.432 15.65 15.65 0 0 1 7.871-2.07 13.879 13.879 0 0 1 9.608 3.4 11.008 11.008 0 0 1 3.807 8.647 14.019 14.019 0 0 1-4.435 10.2 15.155 15.155 0 0 1-11.087 4.4 14.047 14.047 0 0 1-9.682-3.363 11.1 11.1 0 0 1-3.769-8.648 13.488 13.488 0 0 1 2.032-7.134zm7.021 11.124a6.7 6.7 0 0 0 4.768 1.737 8.022 8.022 0 0 0 7.909-7.723 6.071 6.071 0 0 0-1.848-4.546 6.407 6.407 0 0 0-4.73-1.811 7.584 7.584 0 0 0-5.544 2.365 7.485 7.485 0 0 0-2.365 5.47 5.906 5.906 0 0 0 1.811 4.508z" class="cls-2" data-name="Path 9" transform="translate(-109.281 -1.452)" />
        <path id="Path_10" d="M324 285.9l5.248-25.758h7.021l-5.246 25.758z" class="cls-2" data-name="Path 10" transform="translate(-174.324 -2.259)" />
        <path id="Path_11" d="M363.514 283.641l5.469-26.793 13.278 18.57 3.573-17.535h6.727l-6.73 32.965-13.4-17.887-2.189 10.68z" class="cls-2" data-name="Path 11" transform="translate(-201.422)" />
        <path id="Path_12" d="M469.489 320.7l-1.372 6.732h7.022l1.372-6.732z" class="cls-1" data-name="Path 12" transform="translate(-273.16 -43.788)" />
        <path id="Path_13" d="M459.884 260.142l-1.293 6.356h6.947l-2.419 11.87h7.022l2.419-11.87h6.8l1.294-6.356z" class="cls-2" data-name="Path 13" transform="translate(-266.626 -2.259)" />
        <g id="Path_14" class="cls-3" data-name="Path 14">
            <path d="M276.516 315.018a1.226 1.226 0 0 1-1.224-1.15l-.36-6.103-.375-6.338c-.02-.34.097-.663.329-.909a1.219 1.219 0 0 1 1.553-.19l5.335 3.441 5.138 3.313c.423.273.634.768.537 1.262a1.216 1.216 0 0 1-.973.966l-5.018.946a1.249 1.249 0 0 0-.721.422l-3.29 3.905a1.216 1.216 0 0 1-.931.435z" class="cls-6" transform="translate(-140.95 -30.222)" />
            <path d="M276.516 314.235a.43.43 0 0 0 .332-.156l3.29-3.906c.301-.357.716-.6 1.175-.686l5.018-.947a.44.44 0 0 0 .157-.8l-5.138-3.313-5.335-3.44a.44.44 0 0 0-.676.395l.374 6.337.36 6.103a.438.438 0 0 0 .443.413m0 1.566a2.01 2.01 0 0 1-2.005-1.886l-.361-6.104-.375-6.337a2.011 2.011 0 0 1 .541-1.493 2 2 0 0 1 2.547-.311l5.336 3.441 5.138 3.313c.694.448 1.04 1.26.88 2.07a1.995 1.995 0 0 1-1.596 1.585l-5.017.947a.464.464 0 0 0-.268.156l-3.29 3.905c-.383.454-.94.714-1.53.714z" class="cls-7" transform="translate(-140.95 -30.222)" />
        </g>
        <path id="Path_15" d="M106.077 278.254h-2.994l-.924 4.582h3.441a2.619 2.619 0 0 0 2.587-2.587 1.932 1.932 0 0 0-2.11-1.995z" class="cls-4" data-name="Path 15" transform="translate(-22.183 -14.68)" />
        <path id="Path_16" d="M286.984 307.741l-5.138-3.313-5.335-3.441a.433.433 0 0 0-.45-.014l5.069 8.78a2.029 2.029 0 0 1 .68-.265l5.018-.947a.439.439 0 0 0 .156-.8z" class="cls-5" data-name="Path 16" transform="translate(-141.445 -30.223)" />
        <path id="Path_17" d="M101.063 308.131h-4.138l-1 4.915h4.693a2.767 2.767 0 0 0 2.772-2.771 2.129 2.129 0 0 0-2.327-2.144z" class="cls-4" data-name="Path 17" transform="translate(-17.909 -35.17)" />
        <path id="Path_18" d="M89.825 278.254h-7l6.075 4.582z" class="cls-5" data-name="Path 18" transform="translate(-8.924 -14.681)" />
    </g>
</svg>