<svg id="Amazon_logo" xmlns="http://www.w3.org/2000/svg" width="81.023" height="24.417" viewBox="0 0 81.023 24.417">
  <path id="path8" d="M179.557,195.784c-4.708,3.47-11.533,5.322-17.409,5.322a31.5,31.5,0,0,1-21.267-8.115c-.441-.4-.046-.942.483-.631A42.8,42.8,0,0,0,162.642,198a42.311,42.311,0,0,0,16.231-3.319c.8-.339,1.464.522.684,1.1" transform="translate(-129.292 -176.689)" fill="#f90" fill-rule="evenodd"/>
  <path id="path10" d="M577.778,183.939c-.6-.769-3.978-.363-5.495-.183-.462.056-.533-.346-.116-.635,2.691-1.894,7.107-1.347,7.622-.712s-.134,5.065-2.663,7.177c-.388.324-.758.152-.585-.279.568-1.418,1.841-4.6,1.238-5.368" transform="translate(-525.555 -167.084)" fill="#f90" fill-rule="evenodd"/>
  <path id="path12" d="M572.706,6.747V4.906a.454.454,0,0,1,.466-.466h8.242a.459.459,0,0,1,.476.466V6.482a2.594,2.594,0,0,1-.621,1.157L577,13.737a9.1,9.1,0,0,1,4.7,1.009.839.839,0,0,1,.437.716v1.964c0,.268-.3.582-.607.42a9.495,9.495,0,0,0-8.708.014c-.286.155-.585-.155-.585-.423V15.571a2.226,2.226,0,0,1,.3-1.266l4.948-7.1h-4.306a.456.456,0,0,1-.476-.462" transform="translate(-525.872 -4.08)" fill-rule="evenodd"/>
  <path id="path14" d="M173.417,15.554h-2.508a.474.474,0,0,1-.448-.427V2.257a.471.471,0,0,1,.483-.462h2.338a.472.472,0,0,1,.455.43V3.908h.046a3.446,3.446,0,0,1,6.556,0,3.7,3.7,0,0,1,6.366-.977c.794,1.083.631,2.656.631,4.035l0,8.122a.474.474,0,0,1-.483.466h-2.5a.477.477,0,0,1-.451-.466V8.267a16.11,16.11,0,0,0-.071-2.412,1.306,1.306,0,0,0-1.474-1.107,1.666,1.666,0,0,0-1.5,1.055,7.791,7.791,0,0,0-.233,2.465v6.821a.474.474,0,0,1-.483.466h-2.5a.474.474,0,0,1-.451-.466l0-6.821c0-1.435.236-3.548-1.545-3.548-1.8,0-1.732,2.06-1.732,3.548v6.821a.474.474,0,0,1-.483.466" transform="translate(-156.65 -1.4)" fill-rule="evenodd"/>
  <path id="path16" d="M714.954,1.524c3.721,0,5.735,3.2,5.735,7.258,0,3.925-2.225,7.04-5.735,7.04-3.654,0-5.643-3.2-5.643-7.177,0-4.007,2.014-7.121,5.643-7.121m.021,2.628c-1.848,0-1.965,2.518-1.965,4.088s-.025,4.931,1.943,4.931c1.943,0,2.035-2.709,2.035-4.359a11.9,11.9,0,0,0-.374-3.414,1.569,1.569,0,0,0-1.64-1.245" transform="translate(-651.841 -1.4)" fill-rule="evenodd"/>
  <path id="path18" d="M875.8,15.554h-2.5a.477.477,0,0,1-.451-.466l0-12.873a.474.474,0,0,1,.483-.42h2.324a.48.48,0,0,1,.448.36V4.123h.046c.7-1.76,1.686-2.6,3.417-2.6A3.29,3.29,0,0,1,882.5,3.04c.656,1.03.656,2.762.656,4.007v8.1a.482.482,0,0,1-.483.406h-2.515a.475.475,0,0,1-.444-.406V8.158c0-1.407.162-3.467-1.57-3.467a1.639,1.639,0,0,0-1.449,1.03,5.7,5.7,0,0,0-.4,2.437v6.93a.482.482,0,0,1-.49.466" transform="translate(-802.13 -1.4)" fill-rule="evenodd"/>
  <path id="path28" d="M413.126,8.006a4.905,4.905,0,0,1-.469,2.659,2.037,2.037,0,0,1-1.735,1.139c-.963,0-1.527-.734-1.527-1.816,0-2.137,1.915-2.525,3.731-2.525v.543m2.529,6.112a.524.524,0,0,1-.592.06,6.111,6.111,0,0,1-1.439-1.672,4.966,4.966,0,0,1-4.134,1.823,3.557,3.557,0,0,1-3.753-3.908,4.256,4.256,0,0,1,2.673-4.1,17.375,17.375,0,0,1,4.715-.871V5.128a3.2,3.2,0,0,0-.307-1.816,1.669,1.669,0,0,0-1.407-.652A1.908,1.908,0,0,0,409.4,4.165a.524.524,0,0,1-.437.458l-2.43-.261a.442.442,0,0,1-.374-.525C406.714.889,409.38,0,411.765,0a5.685,5.685,0,0,1,3.777,1.249c1.22,1.139,1.1,2.659,1.1,4.313V9.47a3.43,3.43,0,0,0,.945,2.324.474.474,0,0,1-.011.667c-.511.427-1.421,1.22-1.922,1.665l0-.007" transform="translate(-372.863)" fill-rule="evenodd"/>
  <path id="path30" d="M7.389,8.006a4.905,4.905,0,0,1-.469,2.659A2.033,2.033,0,0,1,5.184,11.8c-.963,0-1.524-.734-1.524-1.816,0-2.137,1.915-2.525,3.728-2.525v.543m2.529,6.112a.524.524,0,0,1-.593.06,6.174,6.174,0,0,1-1.439-1.672A4.961,4.961,0,0,1,3.753,14.33,3.559,3.559,0,0,1,0,10.422a4.261,4.261,0,0,1,2.673-4.1,17.375,17.375,0,0,1,4.715-.871V5.128a3.226,3.226,0,0,0-.3-1.816,1.678,1.678,0,0,0-1.407-.652A1.911,1.911,0,0,0,3.661,4.165a.525.525,0,0,1-.434.458L.794,4.363A.444.444,0,0,1,.42,3.837C.98.889,3.643,0,6.027,0A5.685,5.685,0,0,1,9.8,1.249c1.22,1.139,1.1,2.659,1.1,4.313V9.47a3.43,3.43,0,0,0,.945,2.324.471.471,0,0,1-.007.667c-.511.427-1.421,1.22-1.922,1.665l-.007-.007" fill-rule="evenodd"/>
</svg>
