<svg xmlns="http://www.w3.org/2000/svg" viewBox="0 0 220.97 104.09"><defs><style>.cls-1{fill:#fff;}.cls-2{fill:#d0d2d4;}.cls-3{fill:#5a5a5b;}</style></defs><g id="Livello_2" data-name="Livello 2"><g id="Livello_2-2" data-name="Livello 2"><path class="cls-1" d="M16.61,3.21h-9A2.09,2.09,0,0,0,6,3.78,2.32,2.32,0,0,0,5.5,5.44V46.08A2.3,2.3,0,0,0,6,47.72a2.06,2.06,0,0,0,1.59.59,2,2,0,0,0,1.61-.74,3,3,0,0,0,.59-1.9v-12h6.78q6.88,0,10.56-3.66t3.67-11.15v-.79q0-7.57-3.65-11.21T16.61,3.21Zm9.94,15.54a14.68,14.68,0,0,1-1.08,6.15,6.67,6.67,0,0,1-3.32,3.36,13.76,13.76,0,0,1-5.83,1H9.83V7.74h6.59a13.62,13.62,0,0,1,5.77,1,6.69,6.69,0,0,1,3.29,3.3,14.14,14.14,0,0,1,1.07,6ZM63.31,46a2.32,2.32,0,0,1-.54,1.66,2,2,0,0,1-1.59.53H41.73a2,2,0,0,1-1.59-.65,2.93,2.93,0,0,1-.54-1.92V5.3a2.28,2.28,0,0,1,.56-1.66,2.08,2.08,0,0,1,1.57-.56,2.19,2.19,0,0,1,1.64.56,2.28,2.28,0,0,1,.56,1.66V43.68l17.25,0C62.6,43.71,63.31,44.47,63.31,46ZM84.62,4.31a1.69,1.69,0,0,0-.75-.89,2.45,2.45,0,0,0-1.28-.31,2,2,0,0,0-2.07,1.23l-13.8,41a2.57,2.57,0,0,0-.17,1,1.94,1.94,0,0,0,.61,1.47,2.14,2.14,0,0,0,1.56.59A2.3,2.3,0,0,0,69.91,48a1.43,1.43,0,0,0,.71-.93l3.54-11.28H91l3.54,11.28a1.56,1.56,0,0,0,.71,1,2.32,2.32,0,0,0,1.16.29A2.24,2.24,0,0,0,98,47.72a2,2,0,0,0,.57-1.44,2.61,2.61,0,0,0-.2-1ZM75.51,31.47l7-22.5,7,22.5Zm59-28.09A2.43,2.43,0,0,1,135,5.06v41.4a1.84,1.84,0,0,1-.54,1.42,1.91,1.91,0,0,1-1.33.5,2,2,0,0,1-1.87-.93L110.33,12.33V46.05a2.47,2.47,0,0,1-.56,1.73,2.13,2.13,0,0,1-1.64.6,2,2,0,0,1-1.59-.62,2.51,2.51,0,0,1-.54-1.71V4.89a2.07,2.07,0,0,1,2.07-2.09,2,2,0,0,1,1.87,1l20.75,34.81V5.06a2.36,2.36,0,0,1,.56-1.66,2.13,2.13,0,0,1,1.64-.6A2,2,0,0,1,134.46,3.38ZM24.62,85.7a11.85,11.85,0,0,1,1.47,6.14,11.47,11.47,0,0,1-1.75,6.21,12.13,12.13,0,0,1-4.8,4.42,14.33,14.33,0,0,1-6.84,1.62,20.16,20.16,0,0,1-11.64-4A2.13,2.13,0,0,1,0,98.29a2.44,2.44,0,0,1,.64-1.66A1.85,1.85,0,0,1,2,95.89a2.17,2.17,0,0,1,.65.09,4.17,4.17,0,0,1,.87.46,24.07,24.07,0,0,0,4.24,2.25,13.63,13.63,0,0,0,5.16.94,10,10,0,0,0,4.54-1,8.05,8.05,0,0,0,3.18-2.81,7,7,0,0,0,1.15-3.91,7.5,7.5,0,0,0-1.17-4.26,10,10,0,0,0-3-2.89,57.33,57.33,0,0,0-5.09-2.8l-.63-.31a56.3,56.3,0,0,1-5.59-3A14.1,14.1,0,0,1,2.49,75,8.73,8.73,0,0,1,.86,69.66a11.28,11.28,0,0,1,1.7-6.28,11.07,11.07,0,0,1,4.43-4A13,13,0,0,1,12.83,58a17.21,17.21,0,0,1,5.94,1,19.33,19.33,0,0,1,5.47,3.24A1.87,1.87,0,0,1,25,63.83a2.43,2.43,0,0,1-.59,1.59,1.83,1.83,0,0,1-1.45.7,1.62,1.62,0,0,1-.69-.15,9,9,0,0,1-.93-.53,14.19,14.19,0,0,0-4.09-2.32,13.9,13.9,0,0,0-4.42-.67,8.76,8.76,0,0,0-3.68.81,7,7,0,0,0-2.88,2.42,6.57,6.57,0,0,0-1.12,3.87,5.07,5.07,0,0,0,1,3.16A9.54,9.54,0,0,0,8.74,75a41.78,41.78,0,0,0,3.73,2l1.58.79,1,.51a55.08,55.08,0,0,1,6,3.47A12.5,12.5,0,0,1,24.62,85.7Zm15-22.59V78.33H53a1.92,1.92,0,0,1,2.15,2.13A2.08,2.08,0,0,1,54.57,82a2.2,2.2,0,0,1-1.6.53H39.62v16.5H56.67a2.08,2.08,0,0,1,1.6.58,2.39,2.39,0,0,1,.54,1.68,2.3,2.3,0,0,1-.54,1.64,2.08,2.08,0,0,1-1.6.59H37.24a1.8,1.8,0,0,1-1.48-.6,2.61,2.61,0,0,1-.5-1.7V60.81a2,2,0,0,1,2.21-2.23h19.2a2.15,2.15,0,0,1,1.6.56,2.84,2.84,0,0,1,0,3.36,2,2,0,0,1-1.58.61Zm91.14-4a2,2,0,0,1,.68,1.52,2.46,2.46,0,0,1-.17.83l-13.49,41.11a2.39,2.39,0,0,1-.79,1.19,2.08,2.08,0,0,1-1.25.36,2,2,0,0,1-2-1.55L100.2,61.43a2.93,2.93,0,0,1-.16-.86,2,2,0,0,1,.64-1.53,2.17,2.17,0,0,1,1.53-.6,2.09,2.09,0,0,1,1.21.38,1.72,1.72,0,0,1,.71,1l11.61,36.94,11.58-36.94a1.74,1.74,0,0,1,.69-1,2.06,2.06,0,0,1,1.22-.38A2.15,2.15,0,0,1,130.76,59.08Zm12.39,1.59v40.78a2.22,2.22,0,0,1-.58,1.64,2.18,2.18,0,0,1-1.63.58,2.08,2.08,0,0,1-1.58-.58,2.25,2.25,0,0,1-.56-1.64V60.67a1.91,1.91,0,0,1,2.14-2.19A2,2,0,0,1,143.15,60.67ZM84.93,83.42a12.66,12.66,0,0,0,9.24-12.18h0A12.66,12.66,0,0,0,81.51,58.58H68.81a2.26,2.26,0,0,0-2.26,2.26v40.4a2.3,2.3,0,0,0,2.3,2.3h0a2.3,2.3,0,0,0,2.29-2.3V83.9h8.77l10.75,18.63a2.3,2.3,0,0,0,4-2.3ZM81.51,80H71.14V62.52H81.51a8.72,8.72,0,0,1,1.35,17.33A10,10,0,0,1,81.51,80Z"/><path class="cls-2" d="M158.4.66h0l.58-.09h0Z"/><path class="cls-2" d="M193.74,61.09a3.78,3.78,0,0,0-.57,0,2.15,2.15,0,0,1-1.53-.13c-.35-.79-.35-.79-.35-1.12L191,59.7a2.91,2.91,0,0,1-.15-.78c-2.46-2-4.59-3.79-4.09-5.62v-.66a2,2,0,0,0-.19-.63c0-.07-4.1-7.68-4.13-9-.41-.33-1-.38-1.36-.72l-.39,0-.6.3h-.17c-2.41-.52-4.59-1.89-7.15-1.83-.06,1.91-.06,1.91-.21,2.12l-.31,0h-.48c-.55-.11-.76-.73-1.31-.83a4.59,4.59,0,0,1-1.78-.3c-.29-1.13-2-1.18-2-1.18-.84,0-.84,0-1.84-3.17.16-.15.16-.15.81-.38a1.92,1.92,0,0,1-.09-.32c-.32-.08-.61-.25-.93-.34-2.28.11-2.28.11-3.33.69-.62-.52-1.65-1.4-2.78-.15l-1.6-.05c-.06.11-.06.11-1.95,1h-.22c-.64-.19-1.39.09-1.93-.49l-.41-.06a4,4,0,0,0-.37,1.21c-.31.2-.39.26-1.2.16-.06.47-.12.93-.17,1.41a2.09,2.09,0,0,0-1.24.21c-.18.74-.43,1.47-.54,2.23,0,.2-.05.41-.07.61l-.95,0a2,2,0,0,1-1.72,1.52A16.54,16.54,0,0,0,144.26,48H144l-.22,0-.35,0c-.11,2-.21,2-1,2.3,0,.09-.08.2-.11.29a1,1,0,0,0,.12.67c1.18.25,1.18.25,1.28.49-.38.73-.38.73-.41,2.94a6.26,6.26,0,0,0,0,.65c0,.07,0,.07-.63.64a10.94,10.94,0,0,0,.29,1.26v.37c0,1.58,2.57,3.13,2.6,3.14,0,.95,0,1.63,2,2.12a2.35,2.35,0,0,1,.08.92c1.82,1.68,2.89,1.48,2.9,1.48.08-.18.19-.43.26-.62.4-.05.81.1,1.21,0h.43c.32,0,.64,0,1,0,.25.65.82.54,2.19.28.34-.86.68-.82,2.1-.64h.16a1.67,1.67,0,0,1,1.87-.34c.29,1.46.57,1.52,1.17,1.67l2.93.09a10.82,10.82,0,0,1-.08,1.25,21.94,21.94,0,0,1-.62,3.17h-.3c0,.09-.1.21-.13.3,2.25,1.25,2.3,3.88,3.58,5.74,0,.08-.06.19-.09.27s0,.21,0,.32c.05.6.1.63.45.78,0,1.73-1.49,3-1.54,4.67,0,.94.07,1,.61,1.31.08.88.11,1.14.86,1.58.28,1.27.28,1.27.45,1.48,0,.45,0,.9-.05,1.35a12.07,12.07,0,0,0,1.78,3.72.94.94,0,0,0,.22.88s0,.08-.08.2a1.4,1.4,0,0,0-.42.42l.24.18H169c0,.39,0,.45.41.68.38,0,.75,0,1.2,0a3.8,3.8,0,0,1,.94-.24,5.29,5.29,0,0,0,1.64-.16c0-.08.08-.18.12-.27,1.35-.2,1.35-.2,1.52-.6,0,0,3.88-1.91,3.44-4,0,0,1.77-1,2.43-1.31.14-.6.14-.6-.05-2.63,1.71-1.38,4-2,5.15-4.08l.15-.56a1.43,1.43,0,0,0,0-.65,7.58,7.58,0,0,0,.29-1.92c-.64-1,.19-2-.14-3l0-.16c1.76-5.86,9.44-7,10.62-13.35a.87.87,0,0,0-.2-.77C195.51,60.35,194.81,61.49,193.74,61.09Z"/><path class="cls-2" d="M156.17,1.1h-.06l-.17,0h0Z"/><path class="cls-2" d="M216.06,75h.06c-.06.12-.11.24-.16.35h0l-.11.3a.3.3,0,0,0,0,.12h0a.55.55,0,0,0,.11-.17c.05,0,.05-.07.09-.06s-.09.19-.11.3l0,0h0a3.88,3.88,0,0,1-.15.36h0v0c0-.1.09-.21.15-.31l.46-1s.08-.22.09-.28a1.38,1.38,0,0,1-.39.23A1.19,1.19,0,0,1,216.06,75Z"/><path class="cls-2" d="M162.67.13h0l.21,0h0Z"/><path class="cls-2" d="M158.29.7l-.2,0,.42-.08Z"/><path class="cls-2" d="M154,1.61l.34-.09.36-.09h-.07l-.27.07-.11,0-.59.15-.2.05.53-.13Z"/><path class="cls-2" d="M149.24,3.08l.1,0-.15.05Z"/><polygon class="cls-2" points="152 2.17 151.37 2.36 150.72 2.57 150.75 2.57 150.53 2.65 150.61 2.63 150.62 2.63 152.15 2.12 152 2.17"/><path class="cls-2" d="M158,.73l-.39.06.12,0Z"/><polygon class="cls-2" points="157.4 0.84 157.55 0.81 157.47 0.83 157.4 0.84"/><path class="cls-2" d="M149.34,3.05l0,0,.16,0Z"/><path class="cls-2" d="M220.55,46.12v0h0Z"/><path class="cls-2" d="M213.92,26.65c0,.06.06.12.1.18.55,1,1.26,2.28,1.74,3.28a32.5,32.5,0,0,0-1.83-3.44Z"/><path class="cls-2" d="M155.64,1.21l-.1,0,.15,0h0l.24-.05h0l-.21,0,.33-.07.13,0,.52-.1h0l-.24.05-.28.06.42-.09-.24.06.39-.08-.09,0,.16,0,.32-.07,0,0,.36-.07.12,0,.11,0c.15,0,.3-.07.45-.09l.44-.08.36-.06.29,0-.26,0s.81-.13,1.5-.22l1-.12-.38,0h0l-.43,0h0l-.89.12h0l-.57.09-.23,0-.58.09h0L158,.73l-.39.07-.1,0,.08,0h0L157,.92h0l-.24,0-.41.09-.61.13-.29.07.1,0-.08,0h0ZM159,.57l.2,0-.49.08h0Zm-.61.1.26,0-.46.07Z"/><path class="cls-2" d="M186.35,5.53h0s-.08-.07-.13-.11a1.63,1.63,0,0,0-.45-.18h0l.06.08.2.2.13.06,0,0h.05l0,0h.09Z"/><polygon class="cls-2" points="190.39 4.99 190.51 5.05 190.44 5.02 190.39 4.99"/><path class="cls-2" d="M156.63,1h0l-.13,0-.2,0,.13,0h0l.2,0,.84-.16.27-.06h0l-.21,0-.55.1Z"/><polygon class="cls-2" points="155.24 1.31 155.31 1.3 155.54 1.24 155.35 1.28 155.49 1.25 155.17 1.32 155.07 1.34 155.02 1.36 155.18 1.33 155.19 1.32 155.2 1.32 155.24 1.31"/><path class="cls-2" d="M213.61,62.1l-.11,0-.09.09-.07.22a2.22,2.22,0,0,0,0,.45.32.32,0,0,1,0,.14l0,.08a2.64,2.64,0,0,1,0,.29,2.27,2.27,0,0,0-.16.44,4.31,4.31,0,0,0-.1.81.79.79,0,0,0,.2.4s0,0,.38,0c.05-.24.09-.48.15-.72s0-.25,0-.38l0-.17a1.1,1.1,0,0,0,0-.18,2.43,2.43,0,0,0-.18-.87C213.57,62.55,213.56,62.53,213.61,62.1Z"/><path class="cls-2" d="M183.87,8.72h0l0-.11c0-.09-.09-.1-.22-.12s0,0-.1-.05a1.06,1.06,0,0,1-.15-.15h-.49l.07.12.12.09.35.45h.25c.08,0,.07,0,0-.1s0-.05,0-.07h0Z"/><path class="cls-2" d="M183.29,6.19l-.06-.05s0-.07-.22-.25a.41.41,0,0,1-.15-.14h0a.82.82,0,0,0-.09-.17l-.08-.07,0,0,0,0-.1-.08,0,0c0-.08,0-.08-.18-.21,0-.05,0-.08-.06-.11h0c-.1-.19-.31-.29-.43-.46h.15c-.05,0-.05,0-.05-.07h.05l0,0-.1-.08.08,0c-.08-.17-.26-.23-.39-.35.06,0,.13,0,.2,0s-.12-.07-.13-.14h0V3.78h.25s-.06-.06-.09-.09l.13,0-.11-.1h.18a1.62,1.62,0,0,0-.31-.2v0H182l-.15-.08A2.3,2.3,0,0,0,181.2,3h-.15c.08.11.22.12.33.2v0c-.07,0-.07,0-.1,0s.08.05.09.1h-.13v.07l0,0-.29,0h-.05l0,0h-.09l0,0s0,0,.25.25h-.3s0,0,.15.16V4l-.07,0c0,.05,0,.05.36.28a.66.66,0,0,0-.28,0,3.62,3.62,0,0,1,.42.36l.1.07.2.14c-.09,0-.18,0-.25,0a.12.12,0,0,0,0,.16s.25.3.27.11c.08,0,.08,0,.24.13l0,0,.13.08c-.1,0-.2,0-.3,0l.3.26c-.16,0-.21,0-.19.07s.2.14.27.24,0,0,.16.21c-.18,0-.18,0-.19,0s0,0,.12.16l0,0a5.55,5.55,0,0,0,.42.42l.2,0-.06-.09s0,0,.11,0a1.57,1.57,0,0,0,.24.17c0-.07,0-.07-.11-.17a3,3,0,0,1,.66.32l.08.2,0,0,.12.08h.38a5.85,5.85,0,0,0,.71.12h.21l-.2-.19-1.2-.71C183.66,6.46,183.47,6.34,183.29,6.19Z"/><path class="cls-2" d="M181.42,1.87c1.78.56,1.78.56,1.88.58a5.89,5.89,0,0,1-.59-.21l.08,0h0l-.18-.06h0l-.12,0h0a2.25,2.25,0,0,0-.37-.11A1.17,1.17,0,0,0,182,2a.83.83,0,0,0-.21-.06h0a6.27,6.27,0,0,0-.79-.2l.32.09h0l-.87-.23h0c.32.11.65.19,1,.29Z"/><path class="cls-2" d="M179.34,1.4c.09.05.2.05.29.09h0a2.56,2.56,0,0,0,.34.1l.12,0c.25,0,.25,0,.83.21h.1c.15,0,.3.08.45.11h.1l-.29-.09-.35-.1A8.1,8.1,0,0,1,180,1.5l-.76-.18.37.1-.31-.07A.85.85,0,0,0,179,1.3h0a1.48,1.48,0,0,1,.36.1Z"/><path class="cls-2" d="M184.62,3c-.09,0-.54-.2-.58-.2h0c.09,0,.19.06.28.12l.2.07-.07,0,.16,0Z"/><path class="cls-2" d="M179.09,1.4l.58.14h0a1,1,0,0,1,.25.06l.12,0-.22-.07-.13,0-.16,0-.17,0h0l-.29-.07H179l.07,0h0Z"/><path class="cls-2" d="M221,50.52v0Z"/><path class="cls-2" d="M182.94,2.24a2,2,0,0,1,.23.06c.12,0,.12,0,.13,0h0l-.15-.05c-.35-.11-.43-.12-.46-.13h0l-.1,0h0l.12,0A1.42,1.42,0,0,0,182.94,2.24Z"/><path class="cls-2" d="M220.92,50c0-.25,0-.5-.06-.77,0,.21,0,.42,0,.64C220.91,49.91,220.92,50,220.92,50Z"/><path class="cls-2" d="M176.72.87l.33.07c.11,0,.22.05.32.06h0l-.29-.07-.5-.09.12,0-.15,0Z"/><path class="cls-2" d="M173.83,1.2l0,0h0c.06,0,.11,0,.17,0h0c.19.07.19.07.21.1h-.07l.18.08.23.08c.24.07.24.07.27.06s-.16-.11-.35-.19l-.09,0a.2.2,0,0,1,.11,0h.05a.65.65,0,0,0-.16-.09l-.2-.07h-.09L173.78,1l-.07,0h0c.07,0,.17,0,.22.11s-.11,0-.16,0h0l0,0h0a.71.71,0,0,1-.2,0c.19.1.19.1.19.11a1.05,1.05,0,0,0-.24-.06h-.06a1.39,1.39,0,0,0,.4.14Z"/><path class="cls-2" d="M174,.82c.14.06.29.08.43.13h-.18l.22.07h0l.14,0,.19.07h-.08l0,0h0l.1.05.07,0,.1,0h0c-.07,0-.16,0-.22-.09h.06l-.05,0h.05l-.05,0h.05s0,0-.06,0l0,0,.24,0H175c-.45-.15-.45-.15-.45-.16l.17,0c.25.08.26.08.3.06l-.12,0L174.76,1l-.15,0h0l-.46-.14-.13,0h0Z"/><polygon class="cls-2" points="169.93 1.58 169.94 1.61 169.94 1.61 169.93 1.58"/><path class="cls-2" d="M169.92,1.33h0l.09,0s.09,0,.14,0,.1,0,.13.09h-.27l0,.09a.71.71,0,0,0,.18.08h.21c.07,0,.07,0,.1,0l.08.06a.36.36,0,0,0,.22,0s0-.12.12-.1.14,0,.21,0l0-.05,0-.09c0-.05.07,0,.09-.06l0,0-.14-.08c-.1,0-.11,0-.11,0h-.1c-.14-.18-.22-.16-.23-.16,0,.15,0,.15-.12.11V1.15l0,0h0v0h0l-.05,0h-.09c.08.17.08.17.07.21h0a.24.24,0,0,0-.17-.17,1.18,1.18,0,0,0-.34,0S169.71,1.25,169.92,1.33Z"/><path class="cls-2" d="M177.41,1a5.17,5.17,0,0,1,.68.16h0l.52.12,0,0h0l.34.08.25.05-.26-.07h0a1.94,1.94,0,0,1-.2-.05h0l-.4-.1L178,1.06h0L177.8,1l-.11,0h-.08L176.9.85a4.39,4.39,0,0,1,.52.13Z"/><path class="cls-2" d="M175,1l-.11,0a2.25,2.25,0,0,1,.24.08h0l.2.09a1.22,1.22,0,0,0,.26.06h0l-.06,0h.22l0,0c-.05,0-.11,0-.17,0l-.17,0-.5-.14-.1,0h-.06l.06,0Z"/><path class="cls-2" d="M168.62,2.12l0-.13a.19.19,0,0,1,.08,0l0,.12a.17.17,0,0,0,.16.06H169c.08,0,.07-.11.11-.15l.09,0V1.88h.08s0,0,.06.17a.5.5,0,0,0,.17,0l.07-.07.05,0v.12h0c0,.05,0,.05-.12,0h-.06s-.52,0-.52.13v.12l.13,0h.06c.13,0,.17,0,.24,0s.1-.09.17-.11h0c.05,0,.05,0,.08.07l0,.06-.2.1c-.5-.08-.42.09-.37.17s.06.06.19.06.12,0,.39.36h.06V3.06c0-.09.19-.07.19-.19s0-.16,0-.24.06,0,.16,0,0-.18,0-.27.14,0,.16-.06,0-.17-.08-.25h.3V2c0,.07,0,.2.07.2s.23.17.22.24-.08.1,0,.21h.11c.1,0,.08-.17.19-.15s.06,0,.13.21h.14l0,0V2.6h.29l.08,0,0-.05c-.1-.09-.1-.09-.34-.11a.62.62,0,0,1-.07-.17l-.3,0c0-.1-.07-.18-.13-.19s-.08,0-.15-.13-.11,0-.16,0-.07-.09-.12-.12l-.05,0c-.06,0-.08.06-.14.05a.45.45,0,0,1-.15-.06l0-.11-.15,0c0-.06,0-.11,0-.17l-.32-.07h0s-.05,0-.05.13v0c0,.05.06.09.05.15s-.11.07-.12.07l0-.11V1.46l0-.07h-.07c-.07,0-.09.12-.17.14h-.12V1.45l.09-.07v0a.18.18,0,0,0-.13.09h-.23c-.35.06-.13.21-.13.21s.11,0,.14,0,0,.07-.06.12,0,.18,0,.27-.06-.22-.2-.22c0,.07,0,.14,0,.21S168.62,2.12,168.62,2.12Z"/><path class="cls-2" d="M175.11,1s.11,0,.16.07l-.08,0s.58.16.66.16h0a.86.86,0,0,0-.25-.09l-.08,0L175.4,1h0l-.22,0h-.12l.13,0Z"/><path class="cls-2" d="M175.92,1.39h0l.22.08h.06l0,0v0l-.07,0a1.27,1.27,0,0,0-.18-.06h0l0,0h0Z"/><path class="cls-2" d="M175.58,1.3h.11l-.11,0-.13,0h-.19l.09.06c.06,0,.05,0,0,.05l.25.09h.12l-.23-.1a2.08,2.08,0,0,0,.38.12l0,0h0Z"/><path class="cls-2" d="M159.17.56l-.48.07-.18,0,.54-.07Z"/><path class="cls-2" d="M217.05,69.74l0-.08,0-.16a2.78,2.78,0,0,0,.09-.35l0-.42,0-.07v0a1.08,1.08,0,0,0-.12.54A1.73,1.73,0,0,1,217.05,69.74Z"/><path class="cls-2" d="M133.18,12.51l0,0,.15-.1.26-.22.46-.38,0-.07-.3.2Z"/><path class="cls-2" d="M133.61,12a5.29,5.29,0,0,0,.54-.38l0,0,.26-.21A5.07,5.07,0,0,0,133.61,12Z"/><path class="cls-2" d="M140.68,7.43c-.16,0-.16,0-.81.37l-.44.3,0,.06.21-.08.54-.3Z"/><path class="cls-2" d="M217.1,69v0a.37.37,0,0,0,0-.14Z"/><path class="cls-2" d="M216.21,73.9a1.11,1.11,0,0,1,.07-.16l-.09.15a.87.87,0,0,1-.07.17l0,.12a1.11,1.11,0,0,1,.07-.16Z"/><path class="cls-2" d="M191.88,79.62c-.16.56-.16.57-.19.6s-.11.13-.93.67a2.08,2.08,0,0,0-.28.47c0,.12,0,.16-.06.19s-.21,0-.29.06-.16.39-.33.53c-.46.34-1,0-1.44.14-.14.06-.3,0-.4.17s-.09.41-.19.59-.33.27-.43.47c0,0-.31.92-.22,1s.09.14.08.21a4.9,4.9,0,0,1-.17.49c-.06.08-.1.06-.19,0s-.06,0-.47.42c-.22.23-.15.62-.45.81a.4.4,0,0,0-.15.13.69.69,0,0,1-.05.13c-.06.22,0,.45-.05.67s-.07.18-.1.26a4.45,4.45,0,0,1-.24.75c.26,0,.53,0,.79,0,0,.07,0,.14,0,.2a1.53,1.53,0,0,0,1.73-.41c.36-.37.39-.91.67-1.32s.5-.37.67-.62.24-.83.51-1.18.46-.19.67-.33.29-.06.37-.2,0-.64.2-.91a4.51,4.51,0,0,0,.44-.54c0-.1.07-.19.1-.29a2.54,2.54,0,0,0,0-.29.78.78,0,0,0,.05-.14c.13-.22.4-.29.53-.51a1.21,1.21,0,0,1,0-.14l.42-1.63C192.53,80.06,192.45,79.83,191.88,79.62Z"/><path class="cls-2" d="M217.69,70.9a1.74,1.74,0,0,0-.19.41l-.06,0a7.33,7.33,0,0,0,.26-.79h0l0,0a3.7,3.7,0,0,1,.08-.48c.1-.29.18-.57.25-.85l0,0,0,0c0-.38.21-.73.22-1.11l0,.08H218s0-.08,0-.31l0-.17a9.56,9.56,0,0,1,0-1.47s-.06-.07,0-.64c-.09.06-.11.2-.25.18a2.48,2.48,0,0,0-.11-.49c-.07.09-.1.13-.12.45a3.4,3.4,0,0,0,.05,1,6.44,6.44,0,0,1-.13,1.16v.06l.09,0a3.07,3.07,0,0,1-.19,1,1.09,1.09,0,0,1,0,.17c-.09.45-.08.9-.14,1.35a11.5,11.5,0,0,1-.34,1.28c-.21.82-.33,1.67-.59,2.49a5.2,5.2,0,0,0,.35-.47l.06-.16s.29-.69.4-1l.06-.16c.11-.26.12-.27.17-.32v.09a1,1,0,0,0,.11-.25S217.78,71,217.69,70.9Z"/><path class="cls-2" d="M216.45,72.66l0,0c.09-.21.17-.43.25-.65v-.15c0-.09,0-.1,0-.13h-.05a1.62,1.62,0,0,1,.11-.49c.22-.73.22-.73.2-.82a6.25,6.25,0,0,0-.43,1.71s0,0,0,.2A1.27,1.27,0,0,0,216.45,72.66Z"/><path class="cls-2" d="M149,3.2v0l.17-.06.3-.1-.32.13a6.17,6.17,0,0,0,1-.3h0l.66-.23.26-.11.23-.09-.3.09-.29.08-1.24.4a2.42,2.42,0,0,0-.45.18Z"/><path class="cls-2" d="M160,22.91c.1,0,.1,0,.2-.28h.28a2.77,2.77,0,0,0,0-.3.34.34,0,0,1-.15-.4.88.88,0,0,0-.24-.19l-.13,0a.4.4,0,0,1-.26.36c-.17.08-.17.08-.14-.79l-.4,0c.18-.53.22-.68-.17-.76a.33.33,0,0,1,0-.14l-.12-.05c0-.18,0-.23-.17-.35v-.1c0-.14-.14-.51-.3-.53-.46,0-.46,0-.55-.22.25-.32.25-.32.57-.38a1.23,1.23,0,0,0,0-.16c0-.22.32-.22.39-.41s.09-.34.13-.52c-.4,0-.8,0-1.18-.06.28-.35.28-.35.29-.4.05-.23.31-.19.42-.34-.05-.1-.05-.11-.14-.12h-.31c-.2.05-.4-.07-.59,0a2.15,2.15,0,0,1-.28.49c-.07.14-.08.3-.14.45h-.35c-.09,0-.06-.14-.14-.16h-.11c-.23.06-.23.43-.23.43,0,.18.22.12.32.19l-.08.11s0,.09-.05.15,0,.38-.2.39c-.37,0-.38.16-.38.26l0,.1h.29a.18.18,0,0,1,.22,0c0,.2,0,.2.06.25a.89.89,0,0,0,.27,0c0-.08,0-.08.12-.23l.08.14c-.09.15,0,.31,0,.46s-.28,0-.34.2,0,.07,0,.24l.64,0,.1-.13c.34.21-.11.68.27.87l.07,0c0,.11-.14.26-.11.38s0,.22-.13.32-.45-.15-.69-.15h-.06c-.12,0-.12,0-.27.13l-.08.15-.25,0L156,22c.2.15.43.05.64.09a.54.54,0,0,1-.09.28h-.15l-.43.25h-.09c-.07.2-.1.26,0,.42s.45-.21.68,0,.47-.05.68.11c0,.13,0,.22-.09.25a1.24,1.24,0,0,1-.55.05c-.17,0-.2.18-.34.22s-.27,0-.4.05c-.1.49-.1.49-.6.63.16.12.16.12.55,0,.18-.08.18-.08.22-.19s.06,0,.3.1l.4,0c.07-.31.09-.33.15-.39.28.05.56,0,.85.06s.21-.27.42-.23.27.23.45.26h.09c.21-.06.44.07.64-.08s.22-.18.26-.18a.44.44,0,0,0,.32-.06l.06-.14a.87.87,0,0,1-.15-.36.58.58,0,0,1,0-.1C159.78,23,159.81,22.86,160,22.91Z"/><path class="cls-2" d="M218.86,68.22c.09-.28.17-.58.26-.88a5,5,0,0,0,.16-.57l-.45,1.52A.15.15,0,0,0,218.86,68.22Z"/><path class="cls-2" d="M143.44,11.67c.17-.18.34-.36.55-.55a8.77,8.77,0,0,0,1.5-1.12,1.88,1.88,0,0,0,.47,0,3.37,3.37,0,0,1,.36-.34.36.36,0,0,1,.2.06c-.23.21-.23.21-.28.37.41.07.66-.27,1-.4h.14c.27,0,.27,0,.41-.16s.57-.3.84-.47.15,0,.53-.3l.21-.06.16-.13a1.69,1.69,0,0,0,.67-.44l0,0,.07,0h0v0h0l0,0a.57.57,0,0,0,.22.07l.05.14c1.17,0,2-.79,3.08-1.08a4.39,4.39,0,0,0,.49,0c.4-.18.4-.18.54-.31l0-.05-.27.13-.25.1s0,0-.13-.1A.86.86,0,0,1,154,7h-.19l-.15-.06,0-.14.1-.11a.75.75,0,0,1,.33-.19h0c.25,0,.49-.12.75-.11a3.25,3.25,0,0,0-.32.36l.08.12.13-.05c.34-.28,1.25-.24,1-.82.32-.52.32-.52.32-.64h.16v.15h.16a1.65,1.65,0,0,0,.38-.28.83.83,0,0,1,.17-.13.6.6,0,0,0,.19-.23c-.15,0-.15,0-.44.08h-.2a1.93,1.93,0,0,1,.41-.18V4.6l.11,0h.24c-.07.07-.16.13-.24.2h.31a.84.84,0,0,1,.28-.09s0,0,.12.08c.5-.09.52-.26.53-.44l-.3.05s0,0,.63-.18l.25-.06H159a.57.57,0,0,0,.25-.11l-.07-.14c.11-.16.11-.16.46-.4a1.09,1.09,0,0,1,.26,0,2.43,2.43,0,0,0,.33-.28l.21-.21-.15,0a.66.66,0,0,0,0-.14l.12-.09.06,0a1.26,1.26,0,0,1,.44-.09s.06,0,.1.12l0,0a1.38,1.38,0,0,0-.52.36l.11,0a6.69,6.69,0,0,1,.76-.5l.14-.06s0,0,.07-.15l-.15,0-.15,0a1.09,1.09,0,0,1,.34-.14h.1a.64.64,0,0,0,.25-.15c-.14,0-.14,0-.57,0a3,3,0,0,1,.41-.2l.72-.32h.1a1.44,1.44,0,0,1,.45-.16l.14,0a9.88,9.88,0,0,1,1.56-.47l.09,0h-.25v0a1,1,0,0,1,.3,0h.08c.19,0,.38-.1.57-.14h.11a1.46,1.46,0,0,0,.44-.12l.09-.08h-.23l-.14,0-1,.15h-.14l-.75.17c.29-.09.59-.15.89-.22L165,.54a4.5,4.5,0,0,0,.58-.14h0c-.36,0-.71.1-1.06.14l.43-.09H165l.14,0,0,0h-.38l-.29,0h-.16l-.16,0A6.78,6.78,0,0,1,165,.34h.33l.15,0c.08,0,.16,0,.34,0l.44,0,.21-.05h-.09l.08,0,.14,0h-.09s-.05,0,0,0h-.17l-.14,0h-.09l.14,0s0,0,.13,0l.15,0,.3,0,.29,0H167l-.33,0h0c-.26,0-.51.05-.77.06l.08,0,.16,0-.3,0h-.16l-.3,0H165l-.41.05h.15l-.21,0h-.07l-.19,0h-.09l-.14,0-.2,0-.08,0h-.15l-.24,0h.06l.08,0h.11l.16,0H164l.16,0h.05l.1,0h-.15l-.34,0h0l-.2,0h-.14l-.22,0-.07,0-.23,0-.12,0h.36l.2,0h.08l.15,0H164a1.45,1.45,0,0,0-.27,0l-.48.06H163l-.42.06h-.15l.14,0h.1l.15,0,.28,0h.31l.12,0h.15l.24,0H164l-.16,0h-1.33l-.09,0h0l-.14,0h0l-.14,0h-.07l.08,0h.26l.14,0,.12,0h0l-.17,0-.36.05h-.24l-.68.1,0,0h.11l-.24,0-.44.06-.27,0h-.49l-.07,0h0l-.31.05h-.09l-.28,0,0,0H159l-.08,0h.13l.12,0-.45.09-.08,0h-.08l-.09,0L158,1l-.3.05-.09,0h-.09l-.15,0-.1,0v0h0l-.14,0-.13,0-.14,0-.15,0h0s0,0-.15,0h-.23l0,0-.09,0h-.08l-.09,0h-.16c-.38.08-.76.21-1.13.31h0l-.14.05h0l-.15.05h0l.13,0h.22l-.36.11-.15,0h0l-.25.06h0l.06,0h-.05l-.13,0h0l.06,0h0l-.23.07h0a2.79,2.79,0,0,0-.39.12l-.07,0-.34.15-.06,0-.08,0-.08,0-.08,0-.06,0-.07,0-.07,0-.08,0h0l0,0h0l-.1,0,0,0-.08,0,0,0h0l.06,0,.08,0,.31-.1v0l0,0h0l0,0h0l.17,0h0l0,0v0l.09,0,.05,0h.12l.08,0,.14,0-.13.06,0,0h.05l-.11.06-.07,0,0,0h.07l-.11.06,0,0h0l-.2.09,0,0h0l-.17.08-.52.2-.13.06-.07,0-.06,0h0l0,0,0,0,0,0-.2.1-.07,0-.17.09-.06,0-.09,0-.07,0a2.85,2.85,0,0,1-.3.16l-.28.14,0,0-.16.1-.15.06a2.53,2.53,0,0,0-.41.22l-.47.22-.28.13h.08a1.72,1.72,0,0,1-.33.14l-.13.05c-.19.09-.36.2-.55.29h-.07c-.09.05-.19.1-.31.18l-.11.11s0,0,.05,0l.2,0c.26-.15.26-.15.43-.12-.38.23-.38.23-.46.39h0a1.24,1.24,0,0,1-.32.3L147,6.2a.22.22,0,0,1-.11,0h-.09l-.09-.07.11-.1-1.48.63c0,.1,0,.1-.22.4.4-.19.4-.19.59-.18a1.57,1.57,0,0,0,.38-.3V6.41l.16-.08a.2.2,0,0,1,.1,0V6.5s.07,0,.13.07l-.12.09-.12.07c-.14.06-.26.14-.4.2l-.14.11a2.08,2.08,0,0,1-.21.21c-.13.08-.25.17-.37.26h-.24l-.29.12h0l-.13,0a2.34,2.34,0,0,1-.68.36,5.59,5.59,0,0,0-.65.32l-.19.14c-1.21,1.08-1.21,1.08-1.26,1.29l.3-.11s0,0,0,.07a2.11,2.11,0,0,1-.23.19.34.34,0,0,0-.15,0c-.84.63-.84.63-.91.82.24-.06.41-.28.68-.26l-.5.42a4.55,4.55,0,0,0-2.11,2.63l.1.11a1.4,1.4,0,0,0,0,.29s0,0,.18,0l.14,0s0,0,.12.1a1.64,1.64,0,0,0-.16.26,2,2,0,0,0,.19.22.39.39,0,0,0-.06.28.93.93,0,0,0,.78-.33l.16-.18c1.66-1.88,1.92-1.91,2.06-1.93h.11C142.82,12.2,143.08,11.85,143.44,11.67Z"/><path class="cls-2" d="M190.35,5l-.13-.06.14.07.06,0Z"/><path class="cls-2" d="M139.71,9.38l.33-.21.13,0,.39-.24.5-.36-.26,0,.27-.18.31-.32,0-.06.13-.19-.1,0,.36-.25.31-.22-.16,0,0,0,.63-.37h.1l.35-.16.07-.14.28-.15.14,0,.36-.26.08-.11.45-.22.19-.17h-.14l.33-.17,0,0,.05,0,.4-.16.15-.12-.32.09.55-.31.35-.16v0l.43-.2.24-.15-.07,0-.37.15-.11,0,.1-.06-.44.19h-.07l.55-.24.54-.23.7-.3.64-.27h0l-.48.18h-.05l-.33.13-.64.26-.68.31-.44.19-.82.39-.08,0,.71-.34,1-.43.65-.28.68-.27.56-.21v0l-.1,0-.79.32-.94.39-1.64.75-.09,0,0,0-.51.25.13-.07-.13.06-.28.14-.4.2,0,0,.15-.07-.4.2-.33.2-.2.09-.53.29-.38.21-.87.49c-1,.6-2.09,1.3-3,1.88l-.05,0-.78.54c-.32.22-.64.44-.94.67l-.2.14-.42.32-.05,0-.41.33.11-.08.48-.36,0,0-.05.06-.18.17,0,0,.52-.39.1-.12.65-.49,0-.07.52-.38.13-.12.39-.26-.1.08.29-.19L138,8.8h0l.48-.3.49-.29.41-.25.43-.27.73-.46.14,0,.55-.32.56-.32.28-.18.44-.26h0l.31-.15-.06,0-.32.19h.08l.19-.07.54-.32.14-.05-.61.36,0,0-.58.34-.07.07-.42.26-.17.14-.52.33-.14.15-.49.34-.63.41-.78.43-.74.44-.6.45-.27.07.08-.11-.06,0-.59.36-.56.4-.05.13.11,0,.32-.22.22-.12-.05.09-.12.2-.62.59-.37.32-.42.42.13,0-.49.56.21.06-.11.27.39-.33.53-.71.26-.31.35-.32-.2.31-.32.55-.18.32.57-.49.62-.41.17-.29.79-.64.1-.26.88-.81.37-.21.35-.18-.72.76-.52.49.05.09.78-.54Z"/><polygon class="cls-2" points="152.21 2.1 152.16 2.12 152.15 2.12 152.23 2.1 152.21 2.1"/><path class="cls-2" d="M153.5,1.75l-.08,0-.67.18-.37.11h0l-.1,0-.3.1.28-.08-.23.08.35-.1-.24.09.14,0h0a3.05,3.05,0,0,0-.51.16h.08c.53-.13.54-.13,1-.26l.47-.13L153,2l.63-.18.15,0,.61-.16.54-.14h0v0l1.13-.27h0L157,1l-.32.06-.27,0,.42-.09.77-.14h0l-.34.07-.09,0,.6-.11.53-.11h.08L158,.86h.06l.3,0L159,.71l.19,0h.07l.4-.06.25,0L161.34.4h.08l.28,0,.37,0a2.56,2.56,0,0,1-.42,0l.09,0h-.06l.4,0h.28l.55-.05.67-.06.47,0h-.14l.42,0,.4,0h-.22l-.29,0,.4,0h0l.3,0a1,1,0,0,1,.24,0c-.23,0-.44,0-.67,0l.38,0-.56,0,.58,0h.1L164,.06h0l.49,0h0l-.36,0h.08l-.37,0-.47,0h0l.31,0h-.08l-.71.05-.51,0h0l-.35,0h0l-.4,0h-.19l-.54.06-1,.14.54-.07.31,0h.09l-.4,0-.54.06-.53.08h0L160,.45l-.08,0h0l.45-.06.41,0,.65-.07h-.13l-.87.09h.06l-.08,0h0l-.36,0h-.07l-.19,0c-.11,0-.22,0-.33,0h-.1l-.44.07-.08,0-.26,0-.44.08-.15,0h-.1a1.21,1.21,0,0,1,.25-.08l-.32.06h0l-.26,0-.43.08-.3.07a5.05,5.05,0,0,1-.56.12l-.52.12.73-.17.13,0h-.09l-.16,0h0l-.3.06-.48.11-.3.06h-.05l-.13,0h0l.09,0-.39.09-.47.12,0,0,.71-.16-.57.13-.47.12h0l.78-.22-1.27.33-.11,0h0ZM162.72.14h0l.55-.05h0c-.35,0-.71.08-1.06.1Z"/><path class="cls-2" d="M218.88,68l0-.08,0,0c-.4.88-.52,1.85-.84,2.75l0,.08L218,71a9.39,9.39,0,0,0-.31,1,2.38,2.38,0,0,0-.14.4v0l.86-2.42.46-1.58,0,0C218.83,68.21,218.86,68.12,218.88,68Z"/><polygon class="cls-2" points="190.36 4.98 190.39 4.99 190.35 4.98 190.36 4.98"/><path class="cls-2" d="M220.94,52.2c0-.37,0-.73,0-1.09l0,0v-.47a.36.36,0,0,1,0-.12c-.12-1.31-.2-3.06-.4-4.36,0,.32.07.68.11,1a2.91,2.91,0,0,1,0-.31l-.07-.73h0c-.28-1.64-.64-3.82-1-5.43l-.77-2.84a49.55,49.55,0,0,0-3-7.72v0A50.62,50.62,0,0,0,211.62,23c-1.41-1.88-3.37-4.33-4.91-6.1l-.25-.27a51.46,51.46,0,0,0-6.08-5.51,50.14,50.14,0,0,0-6.89-4.55l-3-1.51h0c-.22-.1-.44-.22-.67-.3l.35.17-.32-.14a4.33,4.33,0,0,0-.59-.29l-.12,0-.12,0c.26.14.54.26.81.39h0l.08,0,.36.17.11.05.24.12,0,0,.09.07v0l.05,0,0,0-1.27-.66-.1,0a1.66,1.66,0,0,0-.27-.13l-.22-.11h0c-.13-.06-.17-.09-.72-.32l-.08,0-.49-.2-.08,0-.83-.32h0c-.38-.15-.76-.28-1.13-.41-.08,0-.08,0-.09,0l-.11,0,.22.09L185.33,3l.44.17h0l-.13,0-.2-.07c-.16-.06-.33-.13-.5-.18h0a5.61,5.61,0,0,1-.71-.24l-.33-.11h-.08l1.74.66-.11,0,.27.1.08,0h0l.19.08.23.1-.49-.14h-.06l-.13,0a3.57,3.57,0,0,0,.56.26l0,.05.33.21-.11,0c.28.28.28.28,1.69,1l.19.09.1.06-.11,0,0,.11h-.24a.17.17,0,0,1-.15.06l.06.08.1.07h-.16a10.46,10.46,0,0,0,1.61.82h.05a1.69,1.69,0,0,1,.57.25l.15.1.11.08a5.26,5.26,0,0,1-1-.4H189a2.26,2.26,0,0,1-.35-.17l-.12,0,0,.11.13.11a1,1,0,0,1,.56.23l-.35-.08h0a1.33,1.33,0,0,0,.63.43h.12a3.63,3.63,0,0,1,.94.43C190,7,189.43,7,189,6.63a3.16,3.16,0,0,0-.27-.18,10.13,10.13,0,0,0-1.21-.73h-.09l.81.51.17.11h-.12a3.73,3.73,0,0,0,.47.47l.06.05c1.3.79,1.3.79,1.46,1l.06,0c.35.22.65.5,1,.7a1,1,0,0,0,.3,0,1.39,1.39,0,0,1-.15-.19c0-.06,0-.07,0-.07a6.15,6.15,0,0,1,1.44.91,2.11,2.11,0,0,0-.88-.37L192,9c.16.24,1.47,1.49,1.48,1.51l-.12,0a1.79,1.79,0,0,1,0,.23.69.69,0,0,0,.14.17l.07.1c-.18,0-.18,0-.48-.13a2.17,2.17,0,0,0-.46,0l-.12-.05c0-.07-.08-.15-.12-.21.16,0,.32,0,.48,0s.08-.24-.36-.78c0-.07,0-.07-2.08-1.67L190.23,8a7.19,7.19,0,0,0-1.64-1.13l-.77-.54a.75.75,0,0,1,.15,0l-.76-.5c-.16,0-.31-.11-.48-.11h-.09l-.12,0,0,.11-.11,0c.23.25,1.11,1,1.12,1s-.1.08-.12.08l.07.12.13.1.09.07c.08,0,.1,0,.12,0s.64.34.7.53.45.44,1.46.89a2.28,2.28,0,0,1,.77.6h-.12a11,11,0,0,1-2.56-1.07,2.91,2.91,0,0,0-.38,0,3.47,3.47,0,0,1-.33-.18H187c-.28-.1-.54-.26-.82-.36a1.62,1.62,0,0,0-.35-.17h-.13V7.6c.62.56,1.61.5,2.09,1.28-.08.09-.1.09-.12.09s.08.22.1.33l-.11,0a7.76,7.76,0,0,0-.54-.56.32.32,0,0,0-.12,0l0,.12.06.11-.1.06h-.08l-.11,0s-.07.12-.06.16l-.17,0-.17,0h-.17a.69.69,0,0,0,.16.27h-.23c-.24-.12-.24-.12-.69-.68l-.06.15-.15,0-.05.14a.3.3,0,0,1-.18.06h-.16l0,.17a.6.6,0,0,1-.21.05c-.2.06-.21.06-.28.33a.75.75,0,0,1-.29.06l-.1.11a2.57,2.57,0,0,1,.35.32c-.08.17-.08.17-.46.32l-.08,0c-.78-.61-.78-.61-.84-.72a2.37,2.37,0,0,1,.47,0l-.22-.31a1.23,1.23,0,0,0-.26-.12,2,2,0,0,0-.38-.29l-.15,0h0a.55.55,0,0,0-.45-.12h-.18c-.09.08,0,.14,0,.22l.17,0a2.65,2.65,0,0,1,.52.64c0,.18-.05.21.22.41a2.18,2.18,0,0,1,.41.26l.05.08a2.21,2.21,0,0,0,.24.52c-.33,0-.33,0-.46-.11l-.06-.11-.7,0a1,1,0,0,1-.08.29c-.37.11-.37.11-.43.34l-.17,0h0c.16.33.57.44.69.8h0a2,2,0,0,1-.6-.06h-.13a1.84,1.84,0,0,1-1.08-.5.76.76,0,0,1-.24.18c0,.13,0,.3.35.39l.07.14c.11.08.14.08.18.08.26-.05.33,0,.58.2a.81.81,0,0,1,0,.16h-.52l-.07.14-1.34-1.09H179l-.14-.35c-.21-.83-1.29-.74-1.58-1.48.35.08,1.54.6,1.55.6a6.24,6.24,0,0,0,.78.05c.25.06.47.19.73.23h.3c1.8-.61,0-1.51,0-1.51l-1.49-.53a1,1,0,0,0-.33-.18.77.77,0,0,0-.6-.1l-.2,0a3.58,3.58,0,0,1-.42-.25,1.14,1.14,0,0,0-.32-.05l.07.14c-.12.09-.15.09-.18.09L177,8.5V8.34l0-.12a.55.55,0,0,1-.33-.3h-.25l-.09.13c-.25,0-.5-.15-.75-.22-.08-.05-.1-.08-.11-.12h.15a1,1,0,0,0,.07-.18,1.64,1.64,0,0,0-1-.39c0,.08.06.17.1.26l-.16,0a.3.3,0,0,1-.13-.18l.06-.15s0-.07,0-.1h-.56a2.47,2.47,0,0,1,.1.29c0,.1,0,.13,0,.16l-.06.06c0-.25,0-.26-.19-.39h-.2l-.07-.21-.1,0,0,0a1.62,1.62,0,0,1-.4.19.41.41,0,0,1-.13.25h-.06l-.14,0,0-.15c0-.06-.12-.07-.21-.07a1,1,0,0,0-.42.16c.05.25.05.25.45.32a1,1,0,0,1,.07.2h-.17c-.09,0-.09,0-.45-.1a1.33,1.33,0,0,0-.28,0c0,.29,0,.29,0,.45-.05-.08-.11-.19-.15-.27-.26,0-.42-.31-.69-.32a.29.29,0,0,0,0,.18c.23.5-.06.58-.19.61a1.3,1.3,0,0,1-.14-.26l-.11.12h-.15a1,1,0,0,0-.12.16,1.5,1.5,0,0,0,.24.18.79.79,0,0,0,0,.16l-.14.07s0,0-.41-.16a1.13,1.13,0,0,0,0-.32h-.15a2.62,2.62,0,0,0,0,.28,1.51,1.51,0,0,0-.45.08l.09.12-.1.12c-.29,0-.29,0-.46.18l-.09,0-.12.19h-.1l-.1.12h.18c.32-.2.32-.2.55-.18a1,1,0,0,1,.91-.22.84.84,0,0,0,0,.17c-.15,0-.15,0-.58.16-.06.18-.21.33-.21.53a.68.68,0,0,1-.27.13,1.41,1.41,0,0,1-.54.53c-.08.29-.26.55-.33.84l0-.09a4.64,4.64,0,0,1-.83.41l0,.18.16,0h.26c-.16.61-.85.61-1.18,1a.78.78,0,0,1-.33-.09h-.24l-.06.19,0,.17a.88.88,0,0,1-.28.13h-.16c-.24.1-.47.23-.72.32-.08.43-.54.39-.78.62a.71.71,0,0,1,0,.29s0,0-.21.66a.32.32,0,0,1-.13,0,1.07,1.07,0,0,0-.12.35h.47l.11.12a.63.63,0,0,1-.21.22c-.07.26-.07.26-.24.36,0,0,0,.11,0,.16s.12.07.48.1c0,.27,0,.27-.21.38s-.08.1-.08.13,0,.08,0,.13v.09h.39l0,.07s0,0,.14.2l.26-.06c.09,0,.17.08.27.11h.11s.23,0,.29-.14,0-.07.08-.07.15,0,.23,0a.64.64,0,0,0,.14-.1l.07-.11.14-.15h0l.12-.15h0c.1-.11.18-.13.51-.22a2.34,2.34,0,0,0,0-.26c.23,0,.25.27.38.4s0,.15,0,.27h0v.22h.13a.35.35,0,0,1,.12.22v.06c0,.07-.14,0-.14.13s0,.29.17.38l.14.06a1.09,1.09,0,0,1,.16.24.66.66,0,0,1,0,.14v.12c0,.26.11.33.34.52s.14.12.14.22-.13.2-.15.33v.06c0,.1,0,.18.06.27.3,0,.61,0,.92,0,.06-.39.09-.6.41-.59h.13l.17.06c.13.1.2,0,.29-.12s.14-.06.32-.05v-.4l.52,0a.74.74,0,0,0,0-.33h-.25c-.24,0-.24,0-.28,0V18.4l-.12,0a1.23,1.23,0,0,0,.29-.76c.05-.35.05-.35.08-.38a.71.71,0,0,1,.35-.2c-.11,0-.1,0,0,0a2.57,2.57,0,0,1,.41-.19c0-.23,0-.24.33-.48,0-.16,0-.2,0-.24s0-.11,0-.15a4,4,0,0,0-.6,0c0-.32,0-.32-.07-.48a1.45,1.45,0,0,1-.29-.11c0-.45,0-.77,0-1.09,0,0,0,0,.47-.78a2.38,2.38,0,0,0,1.18-.82.63.63,0,0,1,.43-.12l.11-.13c-.16-.48.14-.9.18-1.35a.88.88,0,0,1,.46,0h.06c.25.27.25.27.38.3l.1-.11a.63.63,0,0,1,.39.28,2.51,2.51,0,0,1,.11.44H174c.08.47.08.47-1.38,1.66a7.25,7.25,0,0,0,.07,1.23V15a1.13,1.13,0,0,1,.05.32c.28.19,1.4.8,1.41.8h.11c.38-.2.83-.07,1.22-.25v-.12a6.47,6.47,0,0,1,1,0,.68.68,0,0,1,.28-.12h.06a1.38,1.38,0,0,1,.17.25,3.89,3.89,0,0,0,.73.08l.08.12-.09.12c-.76,0-.87,0-1.09.6-.64.25-1.27-.42-1.91,0-.25-.09-.25-.09-.43,0a.5.5,0,0,1-.12.27c.19,0-.24.09-.24.09h0a.42.42,0,0,1-.15-.1v-.13h-.05a1.08,1.08,0,0,0-.18,0,.17.17,0,0,0-.09,0l-.05,0V17l.07.06.13,0h.05l-.52.22c0,.07,0,.18,0,.27a1.27,1.27,0,0,0,.74.16,2.86,2.86,0,0,1,.4-.38c.32.15.47.5.78.64a2.45,2.45,0,0,0,0,.27.77.77,0,0,0-.37.34c-.09.17-.17.17-.25.17l-.26-.06a2.53,2.53,0,0,1-.12-.23c-.16-.18-.21-.18-.25-.18a2.28,2.28,0,0,1,0-.26h-.26a1.4,1.4,0,0,1-.35.38c-.08.58-.33,1.75-.33,1.75l.17.16-.06.14c-1-.2-1-.2-1.25,0a1.37,1.37,0,0,0,.3.45l0,.13-.14,0c-.3-.2-.57-.45-.88-.64-2.09.93-2.65,1.17-2.59.23h-.27a.78.78,0,0,1-.47.13,1.84,1.84,0,0,0-.31,0l-.29,0v.25a.28.28,0,0,1-.3.15l-.25-.06a.86.86,0,0,0-.27-.33H166c0-.08,0-.16,0-.24a2.38,2.38,0,0,1,.05-.26h.53a2.56,2.56,0,0,0,.77.24,1.72,1.72,0,0,0,.32-1.2.31.31,0,0,0-.25-.08c-.52.12-.52.12-.66.31s-.14.06-.16.06h0l-.1-.24.17-.2a1.6,1.6,0,0,0,.06-.32l-.26,0c-.14-1-.14-1-.27-1.08-.54.57-.54.57-.73.58l-.15.21c0,.14,0,.17,0,.19a1.76,1.76,0,0,1-.44.26c-.17.44.3.78.2,1.21,0,.07,0,.11,0,.16l-.09.3c0,.15.12.34.18.48s0,.26,0,.35h-.2l-.26,0h-.43c-.59-.1-.59-.1-1.81.74-.23-.11-.27-.11-.32-.11h-.39a1.28,1.28,0,0,0,0,.27l.25.15-.06.46c-.45,0-.54.05-1.17.56a.41.41,0,0,1-.25.07h-.26a1.46,1.46,0,0,0-.33.85,2.43,2.43,0,0,0-.8.07,2.42,2.42,0,0,0-.1.45l-.52,0-.15-.08H158c-.17-.09-.16-.14-.15-.19l-.23-.14a.78.78,0,0,0-.22.46l.26.11-.19.29.05.15a1.29,1.29,0,0,0,0,.19c-.36,0-.71-.09-1.07-.09l-.14-.22c-.76.16-.76.16-1,.35.07.22.11.22.16.22a1.38,1.38,0,0,0,.4.32h.39c.46.44.46.44.54.59a2,2,0,0,1,0,1c.17.2.39.33.56.53a10.93,10.93,0,0,1-.75,2.1,5.06,5.06,0,0,1-.58.25h-.21c-.38-.18-.88-.1-1.17-.5-.61-.08-1-.09-1.48-.11s-.58-.1-.74-.23h-.07l-.18.19a1.5,1.5,0,0,1-.84.16l-.11.16c.38.58-.21,1.18,0,1.76-.06.31-.12.63-.17.94-.65,1.09-.65,1.09-.5,1.43a.74.74,0,0,1,0,.37l0,.16c-.22.29-.22.29-.24.77a1.31,1.31,0,0,0,.44.07c.31-.07.42-.09.7.23a2.28,2.28,0,0,0,.52-.1l.58.36a2.3,2.3,0,0,1,.2.49l.25-.05-.15,0c1.45-.45,2.6-1.66,4.22-1.64a.72.72,0,0,0,.3-.57,2.3,2.3,0,0,0-.33-.44c0-.16,0-.16.53-1,.29-.5,2.31-.9,2.32-.91a.68.68,0,0,0,.21-.49.78.78,0,0,0,0-.16c0-.69,0-1.29,1-1h.2a1.3,1.3,0,0,0,.83.3h.49a1,1,0,0,1,.38-.66h.33c.25,0,.43,0,.91-.46.93.13.87,1.22,1.54,1.6a1.09,1.09,0,0,1,.33.41c2.27,1.58,3.4,2.71,3.35,3.38a12.31,12.31,0,0,1-2.63.39,1.22,1.22,0,0,0-.12.19c.44.22.7.69,1.19.85s.73,0,1.06,0c0-.2,0-.41,0-.62.72-.27,1.11-.94,1.67-1.39,0-.31,0-.37,0-.43h-.52c-.16-.08-.16-.14-.16-.2a.79.79,0,0,1,.68-.23,1.23,1.23,0,0,1,.64.39,4.44,4.44,0,0,0,0-.77c-.48-.39-1.18-.51-1.49-1.13a2,2,0,0,1-1.33-.67c.12-.27.12-.27-.68-.89a.22.22,0,0,0-.19-.09,1.9,1.9,0,0,0-.15-.53,3.5,3.5,0,0,0-.56,0c0-.14,0-.28,0-.41l.15-.15c.16-.14.16-.16.16-.19a1.44,1.44,0,0,1-.1-.5c.54-.17.6,0,.76.44,1.18.15,1.48,1.6,2.63,1.8a.75.75,0,0,1,0,.16c.48.54,1.3.64,1.68,1.31-.33.9-.33.9,0,1.16,0,.42,0,.89.69.94a1,1,0,0,1,.25.73h-.41l-.14-.21-.15.2c.38.6.38.6.81.73l.1-.21a1.71,1.71,0,0,1,.59.52,1.28,1.28,0,0,0,0,.55,1.7,1.7,0,0,0,.49.09l.27,0a4.67,4.67,0,0,0,.3-.43,1.79,1.79,0,0,1,0-.21c0-.07,0-.17-.06-.25l.21-.15a2,2,0,0,1,.47.21H176l.2-.18v-.47a2.91,2.91,0,0,0,.51,0,1,1,0,0,0-.59-.51,1.4,1.4,0,0,1-.16.5c-.38-.08-.43-.23-.71-1a1.46,1.46,0,0,1-.68-.37,2.13,2.13,0,0,0,0-.33l.29-.07a2,2,0,0,0,.45.26h.51a.87.87,0,0,0,0-.48c.31-.25.31-.25,1.7.24,0,.07,0,.18,0,.25l.18.08.13.29-.26.1c0,.51.7.66.57,1.22a2.28,2.28,0,0,0,0,.26.69.69,0,0,0,0,.21,2.43,2.43,0,0,0,.26.44l.07.09.08,0,.06.09.11.08.08.07a1.83,1.83,0,0,1,.08.25l-.08.1,0,.08,0,.11a1.94,1.94,0,0,0,.09.48l.09.09.07.06.18-.26.05-.22c0-.1,0-.23,0-.33s.1-.25.15-.25l.08,0,.08.06.07.08.08.07.28.26.08.1.07.09.09,0h.08a1.17,1.17,0,0,1,.41.1l.26,0,.08,0,.08-.06,0-.08v-.09a.78.78,0,0,1,0-.43l0-.09.12-.08a1.42,1.42,0,0,1,.53.1l.24.23.29.24.07.08.08.07.08,0,.12.05,1.09,0a2.29,2.29,0,0,1,0-.25,1.39,1.39,0,0,0,0-.15,2,2,0,0,0,0-.25l.22-.06.07,0h.12a1.28,1.28,0,0,1,.51.28l.26,0,.07,0,0-.08.07-.07.08,0,.16.21,0,.08a2.54,2.54,0,0,1,0,.55,1.1,1.1,0,0,0,0,.92l0,.09.12.22a2.76,2.76,0,0,1-.08.27l-.07.06,0,.08,0,.3-.05.09c-.28.47-.28.47-.46.56l-.07.07-.08.08,0,.09v.08a2.73,2.73,0,0,1-.39,1l-.08.09-.07.06h-.09c-.11,0-.11,0-.43.07h-.1l-.09,0-.08,0-.08.07a.57.57,0,0,1-.25-.08.77.77,0,0,0-.16-.15h-.11a3.28,3.28,0,0,1-.71-.12h-.19l-.09.06a1.58,1.58,0,0,0,.83.27.23.23,0,0,1,.07.19v.11c.05.08.13.15.18.24a1,1,0,0,1,0,.24v.2c0,.5.41.79.61,1.19s.33.47.54.61l.25,0c.32,0,.32-.3.49-.45l.11.16c.26.4.67.66.93,1.06l.77,1.63c0,.12,0,.15,0,.18a1,1,0,0,0,.07.79c.17.25.51.16.7.35s.88,1.53.88,1.55c.25.54-.35,1.36.4,1.7a3.31,3.31,0,0,1,1.07,1.31c.11.36.18.41.3.51.37.28.37.28,1.39,2.86,0,.58,0,1.11-.08,1.64a1,1,0,0,0,1.63.61c.56-.67.56-.67.79-.71h1a1.14,1.14,0,0,1,.16.14h.11l.23-.36c.55-.9,1.76-.53,2.4-1.25.15-.23.16-.23.69-.19l.08-.08c0-.43,0-.45.16-.61.12,0,.14,0,.47-.19s.18-.13,1.42-.07a2.59,2.59,0,0,1,.22-1,4.65,4.65,0,0,1,.73,0,5.23,5.23,0,0,1,.3-.83c0-.62.06-.65.06-.05,0,0,0,0,.14,0h.15l.13,0c0-.11.05-.24.07-.34a1.08,1.08,0,0,1,.08-.19v0c0-.25.2-.63.38-.65h.06c.08.08.1.2.22.23.12-.5,0-1,.15-1.51,0-.06,0-.08.25-.08a.65.65,0,0,0,.27-.11l0,0a1.62,1.62,0,0,0-.11-.5c-.06-.09-.17-.06-.25-.1l-.25-.15c-.08-.17,0-.35-.09-.52-.17-.38-.42-.42-.55-.41-.39,0,0-.56-.15-.81l-.29-.18h-.27c0,.44,0,.44,0,.56,0,.32,0,.33,0,0l-.07.08c-.14-.16-.11-.38-.18-.56s-.11,0-.21-.21c0-.33,0-.62-.06-.92a.82.82,0,0,0-.2-.25c-.46.15-.46.15-.55,1.5a2.26,2.26,0,0,1-.52,0h-.24l-.38-.17h-.17a6.54,6.54,0,0,0-.54.57.81.81,0,0,1-.66-.83l.15-.07a.64.64,0,0,1,.31-.17h.13c.87.42.84-.12.84-.13l-.08-.09a.59.59,0,0,0-.22,0l-.21,0h-.23c-.42-.12-.85-.13-1.27-.26h-.24c0-.3,0-.6-.05-.89s-.16-.25-1.14-.61a6.38,6.38,0,0,1-.61-2.31c.07-.61.88-.24.89-.24s.07,0,.59.59a2.7,2.7,0,0,1,.64,1c.19.36.62.42.87.7.44.5.56.63,1.7.76h.31c.14-.1.33,0,.48-.13a.55.55,0,0,1,.21,0c.26,0,.26,0,.54.29l0,0c.17.29.11.71.51.85h.74c.43-.14.55.32.85.44h.66l.28.14h1.06l.76-.18h.67s1.1.95,1.17,1.75h.15a2.75,2.75,0,0,1,.21.39h.23c.15,0,.22,0,.66.34-1,.05-.5.59-.49.59.41.29.33,1.06,1,1.07.32-.4.32-.4.41-.44s.06-.21.09-.31l.15-.07c.45.32.47,2,.47,2v.5c-.27,2,.93,3.79.76,5.77,0,.06,0,.12,0,.18-.2,1.1.25,2.13.31,3.21,0,.08.09.19.12.27l.15,0c.7-.59.7-.59,1.6-4.53,0-.34.05-.68.07-1,0-1,0-1,.2-1.21,1,.05,1.73-3.16,1.74-3.2a4.49,4.49,0,0,0,.33-.65l.1,0h0c.16-.15.16-.15.17-1.19a.33.33,0,0,1,.32-.15l.1.1.11,0c.1-.23.29-.41.31-.67a1.76,1.76,0,0,1,.31,0l0-.55.14,0a8.24,8.24,0,0,1,.43,2.22,5.35,5.35,0,0,1,.25.74v.21c0,.21,0,.21,0,.49v.06h.14c.4.78-.28,1.61.12,2.38l.13,0a1.33,1.33,0,0,1,.24-.4.47.47,0,0,0,0-.22,1.09,1.09,0,0,0,0-.18s0-.11,0-.16c.49.47.23,2.48-.25,6.15a1,1,0,0,1,0,.25c-.17.86,0,1.74-.13,2.6,0,.15,0,.17,0,.18-.08.47-.11,1-.19,1.42s-.17.73-.25,1a8.23,8.23,0,0,0-.14,2h0a2.06,2.06,0,0,0,.15-.67c.07-.42.53-2.34.54-2.36s0-.19.06-.25a.68.68,0,0,1,0-.14,1.93,1.93,0,0,1,.05-.2l0-.16c0-.17.06-.29.09-.41a9.62,9.62,0,0,1,0-2.49,1.2,1.2,0,0,0,0-.23.35.35,0,0,0,0-.34c0-.3.09-.6.13-.9s.44-2.31.45-2.33c.16.3,0,.63.09.94l0,0,.06-.13c.14.59.14.59-.2,3.78a19.26,19.26,0,0,0,1-4.42l.06-.66a12.17,12.17,0,0,0,0-2.71,26.26,26.26,0,0,1,.05-4.32c.09,0,.09.06.1.13v.16c0,.36,0,.69,0,1s0,.91,0,1.37c0,.1.08.09.1.08A10.62,10.62,0,0,0,220.94,52.2ZM194.09,10a3.09,3.09,0,0,1-.69-.42l-.17-.14a2.6,2.6,0,0,0,.47.24c.16.1.35.12.49.25C194.12,10,194.11,10,194.09,10Z"/><path class="cls-2" d="M152.23,2.1l.09,0h0l.55-.16.35-.09h0l-.49.14-.26.08h0l.14,0h0l-.12,0-.31.09.05,0,.09,0Zm.23-.07h0l-.1,0Z"/><path class="cls-2" d="M137.19,9.27l.12-.08h0Z"/><polygon class="cls-2" points="136.31 9.89 136.14 10.01 135.89 10.19 136.71 9.6 136.31 9.89"/><polygon class="cls-2" points="136.95 9.44 136.71 9.6 136.87 9.5 136.95 9.44"/><path class="cls-2" d="M138.35,8.51v0l-.44.3-.53.35-.08,0,.27-.17.37-.24Z"/><path class="cls-2" d="M140.8,7l-.51.3-.86.51L139.2,8l.54-.33.71-.41.14-.08.86-.51Z"/><path class="cls-2" d="M217.3,67.44l-.06.21a1.66,1.66,0,0,0,0,.22l-.06.24,0,.06h0a1.15,1.15,0,0,0,.06-.17c0-.06,0-.1,0-.15s0-.18.05-.27Z"/><path class="cls-2" d="M155.42,21.6c0-.18.11-.36.15-.54s.05-.18.07-.28a.37.37,0,0,0,.41-.21.29.29,0,0,0-.06-.33c-.1-.12.07-.22,0-.33a.37.37,0,0,0-.1-.11s-.1,0-.14,0l-.08-.09h-.06a1.52,1.52,0,0,0-.35.09c-.05,0-.05.1-.1.13L155,20l-.11-.08s0-.14-.08-.17-.06,0-.35,0a4.8,4.8,0,0,0-.23.67h0c-.09,0-.17.07-.26.06s-.19.05-.29.08,0,0-.16-.1l-.15,0c-.1.32-.21.64-.31,1a2,2,0,0,0,.44,0c0,.15-.09.29-.13.44-.33,0-.33,0-.51.24l0,0c-.06.09,0,.21-.09.3s-.13,0-.17.1l0,.07s-.06.17,0,.24.23.17.36.08a.33.33,0,0,1,.42,0,.93.93,0,0,0,.35-.18s0,0,.07-.16.12-.07.16-.12l1.13,0c0-.07,0-.14.05-.2s-.06-.19,0-.3.12,0,.16-.08S155.36,21.87,155.42,21.6Z"/><path class="cls-2" d="M150.72,12h.18c.2,0,.4,0,.6,0h.2c.18,0,.18,0,.16.18,0,0,0,.22.31.19s.29.06.43,0,.16-.06.49-.35a2.9,2.9,0,0,1,.33-.2c.11,0,.25,0,.36-.08a.94.94,0,0,1,.49-.24,2.75,2.75,0,0,1,.89,0l.24-.42c0-.07.06-.14,0-.21s-.1-.09-.31-.12a5,5,0,0,0,.46-.67h-.44L155,10c-.28.08-.5.29-.79.35-.1,0-.18-.06-.26-.09a1.28,1.28,0,0,0-.3,0c-.3,0-.55.2-.85.23l-.34,0,.15-.21.15-.2c0-.06,0-.14,0-.21l-.21.05-.16.2a1,1,0,0,0-1.33.46,2.45,2.45,0,0,0,.39-.08h.2l.11.28c0,.14-.13.17-.19.26a1.6,1.6,0,0,0-.88,0c-.06.1-.13.23-.2.33l.22,0,.36,0v.05l-.3.43Z"/><path class="cls-2" d="M156.14,17.47l.19-.18h0a.48.48,0,0,0,.2,0l0-.13c0-.05.1-.07.13-.12l0,0c0-.07.07-.13.1-.19v0l-.24.07c-.09,0-.16.12-.26.17l-.12,0h0l-.08.12a1.64,1.64,0,0,0-.26.2.36.36,0,0,0-.07.17l.09.07C156.11,17.51,156.11,17.51,156.14,17.47Z"/><polygon class="cls-2" points="146.64 4.21 146.64 4.27 147.07 4.11 147.36 4.02 147.95 3.74 147.95 3.69 147.91 3.68 147.19 3.97 146.64 4.21"/><path class="cls-3" d="M120,28.64l11.21,18.81a2,2,0,0,0,1.87.93,1.91,1.91,0,0,0,1.33-.5,1.84,1.84,0,0,0,.54-1.42V10.22a57.25,57.25,0,0,0-4.3,3.78V38.57l-8.38-14.06Q121.1,26.52,120,28.64Z"/><path class="cls-3" d="M131.27,61.43a2.46,2.46,0,0,0,.17-.83,2,2,0,0,0-.68-1.52,2.15,2.15,0,0,0-1.53-.64,2.06,2.06,0,0,0-1.22.38,1.74,1.74,0,0,0-.69,1l-6,19.28q1.28,2.28,2.76,4.42Z"/><path class="cls-3" d="M143.15,60.67a2,2,0,0,0-2.21-2.19,1.91,1.91,0,0,0-2.14,2.19V97.94q2.1,1.4,4.35,2.59Z"/><path class="cls-3" d="M202.8,5.48q0,2.22-2.13,2.22h-9.74V46a2.38,2.38,0,0,1-.56,1.71,2.1,2.1,0,0,1-1.6.59c-1.43,0-2.14-.74-2.14-2.23V7.7h-9.77c-1.42,0-2.13-.75-2.13-2.26s.71-2.23,2.13-2.23h23.81C202.09,3.21,202.8,4,202.8,5.48Z"/><path class="cls-3" d="M165.94,48.17H146.62a1.8,1.8,0,0,1-1.47-.6,2.59,2.59,0,0,1-.49-1.7V5.44a2.24,2.24,0,0,1,.57-1.66,2.19,2.19,0,0,1,1.62-.57h19.09a2.09,2.09,0,0,1,1.59.57,2.32,2.32,0,0,1,.54,1.66,2.42,2.42,0,0,1-.56,1.7,2,2,0,0,1-1.57.6H149V23h13.28a1.9,1.9,0,0,1,2.13,2.12,2.08,2.08,0,0,1-.54,1.56,2.17,2.17,0,0,1-1.59.53H149v16.5h16.95a2.06,2.06,0,0,1,1.59.58,2.39,2.39,0,0,1,.54,1.68,2.34,2.34,0,0,1-.54,1.65A2.06,2.06,0,0,1,165.94,48.17Z"/><path class="cls-3" d="M177.11,99.63a2.35,2.35,0,0,1,.55,1.68,2.28,2.28,0,0,1-.55,1.66,2,2,0,0,1-1.56.57H151.67a1.74,1.74,0,0,1-1.41-.62,2.45,2.45,0,0,1-.51-1.61,3.25,3.25,0,0,1,.47-1.51l20.31-36.69H152.72a2,2,0,0,1-1.55-.61,2.38,2.38,0,0,1-.56-1.69,2.3,2.3,0,0,1,.56-1.65,2.14,2.14,0,0,1,1.62-.58h21.77a1.66,1.66,0,0,1,1.37.65,2.47,2.47,0,0,1,.51,1.58,3.4,3.4,0,0,1-.53,1.61L155.39,99.05h20.16A2,2,0,0,1,177.11,99.63Z"/><path class="cls-3" d="M189.73,60.67v40.78a2.22,2.22,0,0,1-.58,1.64,2.18,2.18,0,0,1-1.63.58,2.08,2.08,0,0,1-1.58-.58,2.25,2.25,0,0,1-.56-1.64V60.67a1.91,1.91,0,0,1,2.14-2.19A1.94,1.94,0,0,1,189.73,60.67Z"/></g></g></svg>