<svg id="print" xmlns="http://www.w3.org/2000/svg" width="34" height="34" viewBox="0 0 34 34">
  <path id="Path_134" data-name="Path 134" d="M47.833,27.667A2.833,2.833,0,1,0,45,24.833,2.837,2.837,0,0,0,47.833,27.667Zm0-4.533a1.7,1.7,0,1,1-1.7,1.7A1.7,1.7,0,0,1,47.833,23.133Z" transform="translate(-19.5 -9.533)" fill="#32424e"/>
  <path id="Path_135" data-name="Path 135" d="M31.167,43h-13.6a.567.567,0,1,0,0,1.133h13.6a.567.567,0,0,0,0-1.133Z" transform="translate(-7.367 -18.633)" fill="#32424e"/>
  <path id="Path_136" data-name="Path 136" d="M31.167,48h-13.6a.567.567,0,1,0,0,1.133h13.6a.567.567,0,1,0,0-1.133Z" transform="translate(-7.367 -20.8)" fill="#32424e"/>
  <path id="Path_137" data-name="Path 137" d="M28.9,9.633V0H5.1V9.633H0V28.9H3.4v1.7H5.1V34H28.9V30.6h1.7V28.9H34V9.633ZM6.233,1.133H27.767v8.5H6.233ZM5.1,10.767H32.867v9.067H1.133V10.767Zm-.567,18.7V25.5a.567.567,0,1,0-1.133,0v2.267H1.133v-6.8H5.1v8.5Zm23.233,3.4H6.233v-11.9H27.767v11.9Zm2.833-5.1V25.5a.567.567,0,1,0-1.133,0v3.967H28.9v-8.5h3.967v6.8Z" fill="#32424e"/>
</svg>
