<svg xmlns="http://www.w3.org/2000/svg" width="63.508" height="60.463" viewBox="0 0 63.508 60.463">
    <defs>
        <style>
            .cls-1{fill:#8ca0b3}
        </style>
    </defs>
    <g id="bill" transform="translate(.001 -.084)">
        <path id="Path_79" d="M78.485 12.47h.083a1.03 1.03 0 0 0 .142-.011 2.3 2.3 0 0 1 2.253 2.3 1.029 1.029 0 0 0 2.058 0A4.363 4.363 0 0 0 79.6 10.5v-.984a1.029 1.029 0 0 0-2.058 0v1.035a4.356 4.356 0 0 0 1.125 8.564 2.3 2.3 0 1 1-2.3 2.3 1.029 1.029 0 0 0-2.058 0 4.363 4.363 0 0 0 3.231 4.208v1.127a1.029 1.029 0 1 0 2.058 0v-1.08a4.356 4.356 0 0 0-.932-8.611 2.3 2.3 0 0 1-.18-4.588zm0 0" class="cls-1" data-name="Path 79" transform="translate(-29.824 -3.373)"/>
        <path id="Path_80" d="M48.9.084a14.763 14.763 0 0 0-13.755 9.66H9.607a1.076 1.076 0 0 0-1.029 1.076l-.243 36.094H1.056a1.012 1.012 0 0 0-1.056.98v4.58a8.082 8.082 0 0 0 7.717 8.049v.023h31.767v-.03c.257.01.363.03.526.03h.022a8.082 8.082 0 0 0 8.068-8.081V29.307c.257.014.53.022.8.022a14.622 14.622 0 0 0 0-29.245zM8.108 58.489H8.1a6.052 6.052 0 0 1-6.044-6.025v-3.492H31.9v3.478a8.072 8.072 0 0 0 2.382 5.719c.108.108.242.191.355.32zm37.935-6.025a6.024 6.024 0 0 1-6.012 6.025h-.02a6.069 6.069 0 0 1-6.058-6.038v-4.557a.95.95 0 0 0-.982-.981H10.393l.236-35.113h23.944a15.46 15.46 0 0 0-.282 2.858 14.509 14.509 0 0 0 1.242 5.888h-9.718a1.029 1.029 0 0 0 0 2.058H36.65a14.52 14.52 0 0 0 9.394 6.444zM48.9 27.271a12.55 12.55 0 1 1 12.55-12.55 12.55 12.55 0 0 1-12.55 12.55zm0 0" class="cls-1" data-name="Path 80"/>
        <path id="Path_81" d="M29.882 45.707a3.19 3.19 0 1 0 3.294 3.193 3.246 3.246 0 0 0-3.294-3.193zm0 4.32a1.135 1.135 0 1 1 1.236-1.127 1.188 1.188 0 0 1-1.236 1.126zm0 0" class="cls-1" data-name="Path 81" transform="translate(-10.672 -18.311)"/>
        <path id="Path_82" d="M41.4 50.336a1.029 1.029 0 0 0 1.029 1.029H56.15a1.029 1.029 0 1 0 0-2.058H42.433a1.029 1.029 0 0 0-1.033 1.029zm0 0" class="cls-1" data-name="Path 82" transform="translate(-16.618 -19.756)"/>
        <path id="Path_83" d="M29.882 30.766a3.191 3.191 0 1 0 3.294 3.189 3.246 3.246 0 0 0-3.294-3.189zm0 4.32a1.136 1.136 0 1 1 1.236-1.131 1.188 1.188 0 0 1-1.236 1.131zm0 0" class="cls-1" data-name="Path 83" transform="translate(-10.672 -12.314)"/>
        <path id="Path_84" d="M29.882 60.646a3.19 3.19 0 1 0 3.294 3.189 3.246 3.246 0 0 0-3.294-3.189zm0 4.32a1.135 1.135 0 1 1 1.236-1.131 1.187 1.187 0 0 1-1.236 1.13zm0 0" class="cls-1" data-name="Path 84" transform="translate(-10.672 -24.307)"/>
        <path id="Path_85" d="M56.15 64.346H42.433a1.029 1.029 0 0 0 0 2.058H56.15a1.029 1.029 0 0 0 0-2.058zm0 0" class="cls-1" data-name="Path 85" transform="translate(-16.618 -25.792)"/>
    </g>
</svg>
