<svg xmlns="http://www.w3.org/2000/svg" xmlns:xlink="http://www.w3.org/1999/xlink" viewBox="0 0 69 69"><defs><style>.cls-1{fill:#dbb127;}.cls-2{fill:url(#Sfumatura_senza_nome_21);}.cls-3{fill:url(#Sfumatura_senza_nome_21-2);}.cls-4{fill:url(#Sfumatura_senza_nome_21-3);}.cls-5{fill:url(#Sfumatura_senza_nome_21-4);}.cls-6{fill:url(#Sfumatura_senza_nome_21-5);}.cls-7{fill:url(#Sfumatura_senza_nome_21-6);}.cls-8{fill:url(#Sfumatura_senza_nome_21-7);}.cls-9{fill:url(#Sfumatura_senza_nome_21-8);}.cls-10{fill:url(#Sfumatura_senza_nome_21-9);}.cls-11{fill:url(#Sfumatura_senza_nome_21-10);}.cls-12{fill:url(#Sfumatura_senza_nome_21-11);}.cls-13{fill:url(#Sfumatura_senza_nome_21-12);}.cls-14{fill:url(#Sfumatura_senza_nome_21-13);}</style><radialGradient id="Sfumatura_senza_nome_21" cx="34.5" cy="31.77" r="8.74" gradientUnits="userSpaceOnUse"><stop offset="0" stop-color="#fff"/><stop offset="1" stop-color="#dbb127"/></radialGradient><radialGradient id="Sfumatura_senza_nome_21-2" cx="34.46" cy="17.08" r="5.34" xlink:href="#Sfumatura_senza_nome_21"/><radialGradient id="Sfumatura_senza_nome_21-3" cx="15.49" cy="56.2" r="1.76" gradientTransform="translate(0 -9.33) scale(1 0.99)" xlink:href="#Sfumatura_senza_nome_21"/><radialGradient id="Sfumatura_senza_nome_21-4" cx="19.04" cy="57.37" r="2.58" gradientTransform="translate(0 -9.33) scale(1 0.99)" xlink:href="#Sfumatura_senza_nome_21"/><radialGradient id="Sfumatura_senza_nome_21-5" cx="23.37" cy="58.31" r="1.93" gradientTransform="translate(0 -9.33) scale(1 0.99)" xlink:href="#Sfumatura_senza_nome_21"/><radialGradient id="Sfumatura_senza_nome_21-6" cx="27.1" cy="59.07" r="1.94" gradientTransform="translate(0 -9.33) scale(1 0.99)" xlink:href="#Sfumatura_senza_nome_21"/><radialGradient id="Sfumatura_senza_nome_21-7" cx="31.05" cy="59.47" r="1.94" gradientTransform="translate(0 -9.33) scale(1 0.99)" xlink:href="#Sfumatura_senza_nome_21"/><radialGradient id="Sfumatura_senza_nome_21-8" cx="34.14" cy="59.58" r="1.51" gradientTransform="translate(0 -9.33) scale(1 0.99)" xlink:href="#Sfumatura_senza_nome_21"/><radialGradient id="Sfumatura_senza_nome_21-9" cx="37.36" cy="59.53" r="1.99" gradientTransform="translate(0 -9.33) scale(1 0.99)" xlink:href="#Sfumatura_senza_nome_21"/><radialGradient id="Sfumatura_senza_nome_21-10" cx="41.14" cy="59.28" r="1.84" gradientTransform="translate(0 -9.33) scale(1 0.99)" xlink:href="#Sfumatura_senza_nome_21"/><radialGradient id="Sfumatura_senza_nome_21-11" cx="46" cy="58.48" r="1.87" gradientTransform="translate(0 -9.33) scale(1 0.99)" xlink:href="#Sfumatura_senza_nome_21"/><radialGradient id="Sfumatura_senza_nome_21-12" cx="50.1" cy="57.74" r="2.06" gradientTransform="translate(0 -9.33) scale(1 0.99)" xlink:href="#Sfumatura_senza_nome_21"/><radialGradient id="Sfumatura_senza_nome_21-13" cx="52.42" cy="56.35" r="2.06" gradientTransform="translate(0 -9.33) scale(1 0.99)" xlink:href="#Sfumatura_senza_nome_21"/></defs><g id="Layer_2" data-name="Layer 2"><g id="Layer_1-2" data-name="Layer 1"><rect width="69" height="69" rx="34.5"/><path d="M53.83,42.72a.1.1,0,0,1-.09,0,.1.1,0,0,1,0-.12l.15-.32.28-.58a19.79,19.79,0,0,0,1.5-3.94.41.41,0,0,1,.46-.34h1.33c.29,0,.59,0,.88,0a2.65,2.65,0,0,1,.87.22.55.55,0,0,1,.36.72,2.85,2.85,0,0,1-.89,1.49,17,17,0,0,1-4.56,2.81l-.13,0-.12,0Z"/><path class="cls-1" d="M56.12,37.49h1.32l.89,0a2.74,2.74,0,0,1,.83.21.44.44,0,0,1,.29.59,2.71,2.71,0,0,1-.86,1.44,17.18,17.18,0,0,1-4.52,2.78,1.28,1.28,0,0,1-.24.08c.16-.34.29-.62.43-.9a20,20,0,0,0,1.51-4c0-.19.13-.26.35-.26m0-.22a.51.51,0,0,0-.57.42,19.58,19.58,0,0,1-1.49,3.92l-.28.58-.16.32a.23.23,0,0,0,0,.24.22.22,0,0,0,.18.08h.06l.12,0,.15,0a17.15,17.15,0,0,0,4.58-2.82,2.88,2.88,0,0,0,.93-1.56.67.67,0,0,0-.43-.85,3.06,3.06,0,0,0-.9-.23H56.12Z"/><path d="M14.59,42.72h-.06l-.64-.37c-.48-.26-1-.54-1.44-.83a5.73,5.73,0,0,1-2.39-2.4,6,6,0,0,1-.27-.68.51.51,0,0,1,0-.42.61.61,0,0,1,.44-.28c.55-.12,1.14-.22,1.81-.3h0a4.21,4.21,0,0,1,.51,0,.77.77,0,0,1,.4.08c.17.09.2.32.22.52s0,.12,0,.17a19.35,19.35,0,0,0,1.48,4.13.64.64,0,0,1,0,.17s0,0,0,.07a.12.12,0,0,1,0,.12l-.09.06A.07.07,0,0,1,14.59,42.72Z"/><path class="cls-1" d="M12.6,37.49a.66.66,0,0,1,.34.07c.17.09.15.4.19.62a19.11,19.11,0,0,0,1.49,4.15,1.41,1.41,0,0,1,.06.22l-.09.06c-.7-.4-1.4-.78-2.08-1.2a5.77,5.77,0,0,1-2.35-2.35,5.46,5.46,0,0,1-.26-.67c-.1-.27,0-.48.38-.55.59-.12,1.19-.22,1.79-.3a4.75,4.75,0,0,1,.53,0m0-.23h0a4.36,4.36,0,0,0-.52.05h0c-.67.09-1.26.19-1.81.31a.71.71,0,0,0-.52.33.66.66,0,0,0,0,.52c.09.24.17.47.27.68a5.88,5.88,0,0,0,2.44,2.46c.47.29,1,.56,1.44.83l.64.37.12,0a.28.28,0,0,0,.12,0l0,0,0,0a.23.23,0,0,0,.1-.25l0-.06a.56.56,0,0,0-.06-.2,19.06,19.06,0,0,1-1.46-4.1l0-.16a.72.72,0,0,0-.28-.62,1,1,0,0,0-.45-.09Z"/><path d="M47,51.72,45.92,52.8a28.13,28.13,0,0,1-5.23,3.92c-2,1.19-4,2.31-6,3.47a.36.36,0,0,1-.4,0,77.16,77.16,0,0,1-9.38-5.6,30.27,30.27,0,0,1-3.55-2.94.44.44,0,0,1-.1-.15A56.25,56.25,0,0,0,47,51.66Z"/><path class="cls-1" d="M34.49,60.69a.85.85,0,0,1-.4-.1A77,77,0,0,1,24.66,55a31.18,31.18,0,0,1-3.6-3,1,1,0,0,1-.2-.27l-.39-.82.89.21a56,56,0,0,0,25.51.14l.39-.09.23.7-.53.54c-.25.24-.49.49-.73.73a28.4,28.4,0,0,1-5.32,4c-1.34.81-2.72,1.6-4.06,2.36l-1.94,1.12A.84.84,0,0,1,34.49,60.69ZM22.68,52.28c.81.71,1.64,1.37,2.48,2a77.25,77.25,0,0,0,9.32,5.56l1.94-1.11c1.33-.77,2.71-1.55,4-2.36a27,27,0,0,0,5.15-3.86l.11-.1A57,57,0,0,1,22.68,52.28Z"/><path d="M55.36,14.59c.07.49.15,1,.21,1.43.12,1,.25,2,.36,3,.07.72.13,1.45.18,2.18.09,1.22.19,2.45.23,3.68s0,2.72,0,4.07c0,.91,0,1.83-.12,2.73-.13,1.36-.29,2.72-.49,4.07a23,23,0,0,1-2.24,7,.47.47,0,0,1-.21.21,27.11,27.11,0,0,1-4.47,1.45c-1,.24-2,.46-3,.65-.81.15-1.63.26-2.45.36-1.07.12-2.15.23-3.23.32-.69.06-1.39.08-2.08.09-1.26,0-2.52.06-3.78,0s-2.78-.08-4.17-.17c-1.21-.08-2.41-.19-3.61-.33s-2.38-.31-3.56-.54c-1.41-.27-2.81-.57-4.2-.94a23.59,23.59,0,0,1-4.28-1.56.53.53,0,0,1-.23-.24,20.19,20.19,0,0,1-1.1-3.32c-.18-.86-.33-1.73-.43-2.6-.15-1.25-.28-2.5-.33-3.76-.07-1.85-.09-3.7-.08-5.55,0-1.31.09-2.63.15-3.94,0-.74.07-1.49.13-2.23.08-1,.18-2,.28-2.94.09-.76.2-1.52.3-2.28,0-.24.09-.47.13-.71s.09-.17.21-.16c.93,0,1.87,0,2.8,0,.76,0,1.53-.08,2.29-.15s1.56-.15,2.34-.26,1.61-.28,2.42-.44a26.53,26.53,0,0,0,7.39-2.93c1.22-.67,2.4-1.41,3.59-2.12a.24.24,0,0,1,.3,0,39.72,39.72,0,0,0,7.79,4.11,24.87,24.87,0,0,0,4.63,1.37,29.79,29.79,0,0,0,3,.38c.94.08,1.89.09,2.84.08.73,0,1.46-.1,2.2-.15Z"/><path class="cls-1" d="M35.16,46.39h-.88c-1.35,0-2.76-.08-4.19-.17-1.22-.08-2.44-.19-3.63-.34-1.42-.17-2.56-.34-3.59-.54-1.54-.29-2.92-.6-4.23-.94a23.81,23.81,0,0,1-4.36-1.6.84.84,0,0,1-.44-.47A20.33,20.33,0,0,1,12.71,39c-.2-1-.34-1.84-.44-2.65-.13-1.14-.28-2.48-.33-3.79-.06-1.71-.09-3.54-.08-5.57,0-1,.05-2,.1-3,0-.34,0-.67,0-1,0-.76.07-1.5.13-2.24.08-.92.17-1.89.29-3,.07-.66.16-1.33.25-2l0-.32c0-.13,0-.26.07-.39a1.91,1.91,0,0,0,.06-.33.6.6,0,0,1,.64-.53h.75c.67,0,1.37,0,2,0s1.56-.09,2.26-.15,1.53-.15,2.31-.27,1.51-.25,2.4-.43a26.36,26.36,0,0,0,7.27-2.88c.89-.49,1.77-1,2.62-1.54l1-.58a.66.66,0,0,1,.77,0,38.61,38.61,0,0,0,7.7,4.06,25.16,25.16,0,0,0,4.54,1.35c1,.17,1.94.3,3,.38.81.06,1.69.09,2.8.07a14.32,14.32,0,0,0,1.47-.09l.71-.05h.69l.12.82c0,.33.1.66.14,1l0,.26c.12.9.23,1.84.33,2.77s.14,1.55.19,2.2l.05.79c.07,1,.15,1.93.18,2.91,0,1.17,0,2.43,0,4.09,0,.76,0,1.77-.12,2.76-.12,1.27-.28,2.61-.49,4.09A23.82,23.82,0,0,1,53.92,43a.88.88,0,0,1-.44.41A27.84,27.84,0,0,1,49,44.92c-1.17.27-2.13.48-3,.65-.72.13-1.51.25-2.48.36s-2.14.23-3.24.33c-.62.05-1.27.07-2.11.09h-.49Q36.39,46.39,35.16,46.39ZM14.65,42l0,0a22.68,22.68,0,0,0,4.19,1.53c1.29.34,2.66.64,4.17.93,1,.2,2.14.37,3.53.53,1.18.15,2.38.26,3.58.33,1.42.09,2.82.15,4.15.17,1.1,0,2.21,0,3.28,0h.49c.83,0,1.46,0,2-.1,1.1-.09,2.18-.2,3.22-.32s1.72-.22,2.42-.35c.9-.17,1.85-.37,3-.64a28.9,28.9,0,0,0,4.4-1.43,22.92,22.92,0,0,0,2.19-6.92c.21-1.47.37-2.8.49-4,.09-1,.11-1.94.11-2.69,0-1.64,0-2.89,0-4.05,0-1-.1-1.93-.17-2.88l0-.79c0-.64-.11-1.4-.19-2.17s-.21-1.85-.33-2.75l0-.26c0-.33-.09-.65-.14-1V15l-.57.05c-.5,0-1,.08-1.54.09-1.13,0-2.05,0-2.88-.08-1-.08-2.06-.22-3-.39a25.68,25.68,0,0,1-4.71-1.39,40.6,40.6,0,0,1-7.79-4.1l-.86.53c-.86.52-1.76,1.06-2.66,1.55a27.1,27.1,0,0,1-7.52,3c-.9.18-1.66.32-2.44.44s-1.61.2-2.36.27-1.52.14-2.32.15-1.41,0-2.09,0h-.54l0,.15-.06.34,0,.32c-.09.64-.18,1.3-.25,1.94-.12,1.07-.21,2-.28,2.94-.06.72-.1,1.46-.13,2.21,0,.34,0,.68-.05,1-.05,1-.1,1.95-.11,2.91,0,2,0,3.83.09,5.54,0,1.28.19,2.59.32,3.72.09.78.23,1.62.43,2.56A18.77,18.77,0,0,0,14.65,42Z"/><path d="M34.3,53.4h-.79c-1.23,0-2.52-.09-3.8-.21s-2.47-.26-4-.49a49.51,49.51,0,0,1-6.62-1.48A56,56,0,0,1,8.19,46.69c-.36-.2-.38-.25-.29-.64l1.73-7.51,0-.13,0-.09a.13.13,0,0,1,.11-.08h0a.12.12,0,0,1,.1.09,4.22,4.22,0,0,0,1.64,2.39,14.36,14.36,0,0,0,3.8,2.16,33.25,33.25,0,0,0,4.8,1.52,46,46,0,0,0,4.65.88c1,.14,2.05.26,3.43.39,1,.1,2.08.16,3.05.21.75,0,1.58.07,2.52.09h.46L36,46h.9c1,0,2.07-.09,3.38-.19s2.3-.19,3.37-.35c1.42-.21,2.66-.44,3.78-.71,1.77-.42,3.11-.79,4.36-1.2a20.5,20.5,0,0,0,6.69-3.66,4.34,4.34,0,0,0,.37-.35,1.94,1.94,0,0,0,.59-1.19.12.12,0,0,1,.11-.1h0a.12.12,0,0,1,.11.09l0,.25.09.51.31,1.59c.24,1.2.48,2.4.7,3.59.08.44.14.89.21,1.32,0,.23.06.47.1.71a.34.34,0,0,1-.2.38A55.81,55.81,0,0,1,53.73,50a49.1,49.1,0,0,1-6.21,1.89c-1.58.36-3,.64-4.29.85s-2.63.35-3.62.44c-1.28.11-2.57.16-3.71.21C35.28,53.39,34.77,53.4,34.3,53.4Z"/><path class="cls-1" d="M59.57,38.35c0,.26.09.51.14.76q.51,2.6,1,5.18c.12.67.2,1.35.31,2a.22.22,0,0,1-.14.26,56.22,56.22,0,0,1-7.2,3.28,48.5,48.5,0,0,1-6.19,1.89c-1.42.32-2.85.61-4.29.85-1.19.2-2.41.33-3.61.43s-2.47.17-3.71.22c-.53,0-1.06,0-1.6,0l-.78,0c-1.26,0-2.53-.09-3.79-.2s-2.66-.3-4-.49a51,51,0,0,1-6.59-1.48,54.93,54.93,0,0,1-10.9-4.51c-.31-.17-.31-.17-.23-.52.58-2.5,1.15-5,1.73-7.5a1.89,1.89,0,0,1,.06-.21,4.35,4.35,0,0,0,1.67,2.45A14.57,14.57,0,0,0,15.31,43a32.4,32.4,0,0,0,4.81,1.53,46.66,46.66,0,0,0,4.66.89c1.14.16,2.29.28,3.44.38s2,.16,3.06.22c.84,0,1.68.07,2.52.08s1.47,0,2.21,0h.9c1.13,0,2.26-.11,3.39-.2s2.26-.18,3.38-.35c1.27-.19,2.54-.41,3.78-.71,1.47-.35,2.94-.73,4.37-1.2A20.22,20.22,0,0,0,58.56,40a2.55,2.55,0,0,0,.38-.35,2.06,2.06,0,0,0,.63-1.26m0-.23h0a.24.24,0,0,0-.21.22,1.81,1.81,0,0,1-.57,1.11,2.87,2.87,0,0,1-.35.34,20.31,20.31,0,0,1-6.66,3.64c-1.24.41-2.58.78-4.35,1.2-1.12.26-2.35.5-3.76.71-1.07.16-2.11.25-3.36.35s-2.39.16-3.39.19H36l-1.75,0H33.8c-.95,0-1.75,0-2.51-.09-1-.06-2-.12-3.05-.21-1.38-.13-2.44-.25-3.43-.39-1.57-.22-3.13-.52-4.63-.88a33.09,33.09,0,0,1-4.79-1.52,14.13,14.13,0,0,1-3.77-2.14A4.16,4.16,0,0,1,10,38.31a.22.22,0,0,0-.21-.18h0a.22.22,0,0,0-.22.16l0,.09a.74.74,0,0,0,0,.14l-.91,3.93L7.79,46c-.1.46-.06.56.34.78a56.5,56.5,0,0,0,10.94,4.53A48.13,48.13,0,0,0,25.7,52.8c1.52.23,2.79.39,4,.5s2.58.16,3.8.2l.79,0c.48,0,1,0,1.61,0,1.15,0,2.44-.11,3.72-.22,1-.09,2.31-.21,3.63-.43s2.72-.5,4.3-.86a49.21,49.21,0,0,0,6.22-1.89A56.75,56.75,0,0,0,61,46.78a.44.44,0,0,0,.25-.5c0-.23-.07-.47-.1-.71-.06-.43-.12-.88-.21-1.32-.22-1.2-.46-2.42-.7-3.6-.1-.53-.2-1-.31-1.58l-.09-.52-.05-.24a.22.22,0,0,0-.22-.19Z"/><path class="cls-2" d="M40.44,42.61H28.57v-.75l1.5-.23c.48-.08,1-.14,1.45-.26a1.13,1.13,0,0,0,.79-.9,6.62,6.62,0,0,0,.17-1.4q0-7.39,0-14.8a4.64,4.64,0,0,0-.13-1.05A1.61,1.61,0,0,0,30.86,22c-.71-.07-1.43-.17-2.15-.25-.11,0-.16-.06-.16-.17s0-.38,0-.59l.24,0H40.23c.16,0,.22,0,.22.21,0,.55,0,.55-.56.61s-1.15.13-1.72.21a1.61,1.61,0,0,0-1.35,1.4A13.83,13.83,0,0,0,36.7,25c0,4.56,0,9.12,0,13.69a5.58,5.58,0,0,0,.18,1.86,1.51,1.51,0,0,0,1.26,1c.71.12,1.43.2,2.14.29.12,0,.16,0,.16.17S40.44,42.39,40.44,42.61Z"/><path class="cls-3" d="M34.42,14l2.2,2.91a2,2,0,0,0,.94.77,1.86,1.86,0,0,0,1.51-.12c.69-.36,1.38-.72,2.08-1.07l.21-.1c-.11.43-.22.83-.33,1.22-.21.77-.44,1.53-.64,2.3a.22.22,0,0,1-.25.19H28.67c-.16,0-.22-.05-.26-.21-.27-1.12-.55-2.24-.83-3.35a1.39,1.39,0,0,1,0-.15l.79.41,1.46.76a1.79,1.79,0,0,0,2.32-.54c.7-.94,1.41-1.87,2.11-2.8Z"/><path class="cls-4" d="M15.31,47.77a1.66,1.66,0,0,0-.09.28.4.4,0,0,0,0,.15.24.24,0,0,0,.06.11.82.82,0,0,0,.16.14l0,.13-1.18-.43.05-.13a.66.66,0,0,0,.27,0,.25.25,0,0,0,.13-.12,1.53,1.53,0,0,0,.13-.3l.89-2.4a1.42,1.42,0,0,0,.09-.28.27.27,0,0,0,0-.15.24.24,0,0,0-.06-.11,1.16,1.16,0,0,0-.15-.13l0-.14,1.17.43-.05.14h-.2l-.11,0a.25.25,0,0,0-.1.12c0,.06-.07.15-.12.28Z"/><path class="cls-5" d="M21.61,46.44a.6.6,0,0,0-.2,0,.22.22,0,0,0-.11,0,.41.41,0,0,0-.09.12,2.28,2.28,0,0,0-.1.29l-.72,2.45a2.2,2.2,0,0,0-.07.28.35.35,0,0,0,0,.15.34.34,0,0,0,.06.12l.17.12,0,.14-1.19-.35,0-.14a.59.59,0,0,0,.25,0,.27.27,0,0,0,.13-.13,2.91,2.91,0,0,0,.12-.32l.32-1.09c.08-.28.17-.57.27-.86s.16-.48.2-.59h-.05l-1.95,2.48-.33-.1-.21-3.15-.05,0-.16.64c-.08.3-.17.61-.26.93l-.3,1a2.2,2.2,0,0,0-.07.28.38.38,0,0,0,0,.15.24.24,0,0,0,.06.11.92.92,0,0,0,.17.13l0,.14-1-.31,0-.13a.58.58,0,0,0,.27,0,.26.26,0,0,0,.12-.13,2.52,2.52,0,0,0,.11-.31l.72-2.45a2.25,2.25,0,0,0,.07-.29.24.24,0,0,0,0-.15.24.24,0,0,0-.06-.11.76.76,0,0,0-.17-.12l.05-.14,1,.3.2,3.05L20.69,46l1,.28Z"/><path class="cls-6" d="M22.7,49.86a2.06,2.06,0,0,0,0,.28.4.4,0,0,0,0,.17.34.34,0,0,0,.09.12l.19.1,0,.14-1.28-.25,0-.15a.56.56,0,0,0,.27-.05.4.4,0,0,0,.11-.14,2.09,2.09,0,0,0,.08-.32l.52-2.5a2.69,2.69,0,0,0,0-.29.37.37,0,0,0,0-.16.3.3,0,0,0-.07-.1l-.17-.1,0-.14,1.45.29a1.73,1.73,0,0,1,1,.46.93.93,0,0,1,.17.86,1.42,1.42,0,0,1-.21.52,1,1,0,0,1-.38.33,1.2,1.2,0,0,1-.5.13,2.69,2.69,0,0,1-.56,0l-.5-.12Zm.25-1.2.33.07a1.63,1.63,0,0,0,.57,0,.64.64,0,0,0,.38-.22,1.1,1.1,0,0,0,.22-.5,1.07,1.07,0,0,0,0-.43.66.66,0,0,0-.13-.31.71.71,0,0,0-.25-.2,1.2,1.2,0,0,0-.35-.11l-.43-.08Z"/><path class="cls-7" d="M28.75,47.52l-.12.88-.29,0a1.72,1.72,0,0,0-.05-.26.68.68,0,0,0-.08-.19.34.34,0,0,0-.09-.14.47.47,0,0,0-.14-.08l-.19,0-.93-.12-.21,1.53.63.09a.66.66,0,0,0,.21,0,.36.36,0,0,0,.14-.11,1.54,1.54,0,0,0,.13-.26l.28,0-.16,1.13-.27,0a.9.9,0,0,0-.06-.28.3.3,0,0,0-.1-.14.57.57,0,0,0-.2-.07l-.63-.08L26.39,51l.91.12h.24a.36.36,0,0,0,.17-.07.44.44,0,0,0,.13-.14,1.22,1.22,0,0,0,.12-.19l.13-.29.29,0-.19,1-2.73-.36,0-.15a.63.63,0,0,0,.26-.07.28.28,0,0,0,.1-.15,2.67,2.67,0,0,0,.06-.32l.34-2.53a2.27,2.27,0,0,0,0-.3.33.33,0,0,0,0-.15.34.34,0,0,0-.08-.09.88.88,0,0,0-.18-.1l0-.14Z"/><path class="cls-8" d="M30.35,49.94l-.06,1a1.56,1.56,0,0,0,0,.31.33.33,0,0,0,0,.15.2.2,0,0,0,.08.08.71.71,0,0,0,.19.08v.15l-1.25-.08v-.15a.65.65,0,0,0,.25-.08.35.35,0,0,0,.09-.16,1.83,1.83,0,0,0,0-.33l.17-2.55a2.71,2.71,0,0,0,0-.29.54.54,0,0,0,0-.15.34.34,0,0,0-.08-.09l-.19-.08v-.14l1.47.09a1.71,1.71,0,0,1,1,.32.89.89,0,0,1,.29.8,1.09,1.09,0,0,1-.27.67,1.44,1.44,0,0,1-.7.4v0a.86.86,0,0,1,.3.23,2.71,2.71,0,0,1,.26.45l.23.5q.11.21.18.33a.57.57,0,0,0,.16.18.45.45,0,0,0,.22.1v.15l-.82-.06a2.89,2.89,0,0,1-.19-.35l-.18-.37-.23-.51a2.91,2.91,0,0,0-.17-.35.69.69,0,0,0-.13-.15A.33.33,0,0,0,30.9,50l-.22,0Zm.13-2-.11,1.76.34,0a2.72,2.72,0,0,0,.42,0,.79.79,0,0,0,.3-.12.73.73,0,0,0,.24-.28,1.14,1.14,0,0,0,.11-.45,1,1,0,0,0-.07-.47.6.6,0,0,0-.27-.3,1.2,1.2,0,0,0-.52-.13Z"/><path class="cls-9" d="M34.41,51.11a2.19,2.19,0,0,0,0,.29.39.39,0,0,0,0,.14.2.2,0,0,0,.09.09.66.66,0,0,0,.2.07v.15H33.5v-.15a.67.67,0,0,0,.25-.1.34.34,0,0,0,.08-.16,2.38,2.38,0,0,0,0-.33l0-2.55a2.28,2.28,0,0,0,0-.3.38.38,0,0,0,0-.14.2.2,0,0,0-.09-.09L33.53,48v-.14h1.25V48a.5.5,0,0,0-.19.07.18.18,0,0,0-.09.08.38.38,0,0,0,0,.14,2.11,2.11,0,0,0,0,.3Z"/><path class="cls-10" d="M37.85,51.76v-.14a1,1,0,0,0,.22-.08.32.32,0,0,0,.1-.1.43.43,0,0,0,0-.17,2.07,2.07,0,0,0,0-.22,1.86,1.86,0,0,0-.08-.26L38,50.42l-1.38.06-.09.29a3,3,0,0,0-.08.34,1.5,1.5,0,0,0,0,.2.33.33,0,0,0,.11.26.57.57,0,0,0,.28.1v.14l-1.27.06v-.15a.45.45,0,0,0,.28-.2A2,2,0,0,0,36,51l1.08-3.33.47,0,1.17,3.24a2.78,2.78,0,0,0,.14.35.54.54,0,0,0,.14.18.56.56,0,0,0,.22.09v.15Zm-1.21-1.54,1.24-.06-.65-1.87Z"/><path class="cls-11" d="M40.91,51.24l.77-.09.21,0a.3.3,0,0,0,.14-.06.32.32,0,0,0,.1-.1.53.53,0,0,0,.08-.15c0-.06,0-.14.06-.23s0-.23,0-.41l.3,0,.07,1.18-2.65.3,0-.14a.82.82,0,0,0,.24-.13.42.42,0,0,0,.06-.18,2.14,2.14,0,0,0,0-.32L40,48.3A2.35,2.35,0,0,0,40,48a.37.37,0,0,0-.07-.14.26.26,0,0,0-.1-.07l-.2,0v-.14l1.24-.14,0,.14-.18.08-.08.09a.39.39,0,0,0,0,.15,2,2,0,0,0,0,.31Z"/><path class="cls-12" d="M46,50a1.68,1.68,0,0,0,.07.27.36.36,0,0,0,.1.15.24.24,0,0,0,.12.07l.23,0,0,.14-1.28.27,0-.14a.79.79,0,0,0,.22-.15.27.27,0,0,0,0-.18,1.6,1.6,0,0,0,0-.32L45,47.6a2.49,2.49,0,0,0-.08-.29.32.32,0,0,0-.08-.13.21.21,0,0,0-.1-.06.55.55,0,0,0-.21,0l0-.14,1.45-.31a1.65,1.65,0,0,1,1.06,0,1,1,0,0,1,.5.72,1.18,1.18,0,0,1,0,.56,1,1,0,0,1-.21.46,1.3,1.3,0,0,1-.41.31,2.21,2.21,0,0,1-.53.18,4,4,0,0,1-.51.09Zm-.26-1.2.34-.07a1.55,1.55,0,0,0,.53-.19.63.63,0,0,0,.26-.36,1.07,1.07,0,0,0,0-.54,1.3,1.3,0,0,0-.16-.41.71.71,0,0,0-.24-.22.8.8,0,0,0-.31-.09l-.37,0-.43.11Z"/><path class="cls-13" d="M50.59,49.64l0-.14a.7.7,0,0,0,.2-.12.25.25,0,0,0,.07-.12.28.28,0,0,0,0-.18,1,1,0,0,0-.08-.2,2,2,0,0,0-.14-.23l-.2-.34-1.34.37,0,.3c0,.16,0,.27,0,.35a1.18,1.18,0,0,0,0,.2.36.36,0,0,0,.15.23.68.68,0,0,0,.3,0l0,.14-1.22.33,0-.13a.47.47,0,0,0,.22-.27,1.86,1.86,0,0,0,.11-.52l.31-3.47.45-.13,1.87,2.9a2,2,0,0,0,.21.31.6.6,0,0,0,.18.15.53.53,0,0,0,.23,0l0,.14Zm-1.53-1.23,1.2-.33L49.2,46.39Z"/><path class="cls-14" d="M52.72,47.2,51.45,46l-.35-.3a.62.62,0,0,0-.2-.12.52.52,0,0,0-.21,0l0-.14L51.84,45l0,.14c-.17.08-.23.18-.18.31a.38.38,0,0,0,.1.17,2.3,2.3,0,0,0,.23.24l.94.87.21-1.17a2,2,0,0,0,0-.37.64.64,0,0,0,0-.25.19.19,0,0,0-.12-.14.33.33,0,0,0-.2,0l-.05-.13,1.07-.37.05.13a.75.75,0,0,0-.17.19,1.28,1.28,0,0,0-.1.26c0,.11-.07.28-.12.52L53.24,47l.32.9a1.22,1.22,0,0,0,.11.25.4.4,0,0,0,.11.14.22.22,0,0,0,.14.05h.22l0,.14-1.28.44,0-.14a1.06,1.06,0,0,0,.18-.13.35.35,0,0,0,.07-.12.54.54,0,0,0,0-.18,2.75,2.75,0,0,0-.07-.27Z"/></g></g></svg>