<svg xmlns="http://www.w3.org/2000/svg" width="500" height="180.586" viewBox="0 0 500 180.586">
  <g id="Group_621" data-name="Group 621" transform="translate(-2577.649 280.734)">
    <g id="Group_620" data-name="Group 620" transform="translate(2577.649 -280.734)">
      <g id="Group_618" data-name="Group 618" transform="translate(0 0)">
        <g id="_2571180745264" data-name=" 2571180745264" transform="translate(0 0)">
          <g id="Group_566" data-name="Group 566" transform="translate(0 0)">
            <path id="Path_1547" data-name="Path 1547" d="M99.119,162.747a66.526,66.526,0,0,1,7.19,1.114c7.9,2.126,13.805,2.126,21.974-.169,8.035-2.262,9.992-4.793,12.389-12.928.844-2.666,1.958-3.78,5.063-2.734.439.3.709,1.823.844,2.33,1.823,7.7,5.063,22.649-2.262,27.578-2.667,1.789-6.751,2.362-10.566,1.654s-12.962-5.266-17.89-7.223-8.743-3.039-13.1-5.637a32.137,32.137,0,0,0-3.949-2.364l.27-1.587Zm73.52-65.35a10.126,10.126,0,0,1,9.586,2.565c2.126,2.193,3.106,5.165,3.51,9.181.271,3.679-.27,8.372-1.687,11.039a16.068,16.068,0,0,1-1.283,2.025,11.254,11.254,0,0,1-5.637,3.51C169.669,127.3,164.74,121.4,163.9,113.8c-.573-6.988,1.283-14.346,8.743-16.371Zm-106.2,21.94c.979,1.417-.27,1.114,3.106,2.362a25.5,25.5,0,0,0,4.354,1.013c2.667.405,2.531-.236,3.51-2.093a25.9,25.9,0,0,1,2.262-3.072c3.95-5.029,6.043-8.372,14.381-7.764,7.055.54,11.982,1.587,17.62,4.523,5.5,2.835,10.566,7.291,13.806,8.472,0-1.789.136-2.329-.844-3.443-1.823-2.025-5.5-4.321-6.48-5.4,3.679-.371,7.055-1.012,10.97-.607,7.325.709,16.912,3.307,22.245,7.764a12.407,12.407,0,0,1,2.97,2.97c3.376,4.219,2.667,11.984-.844,15.832a10.553,10.553,0,0,1-1.417,1.35c-5.2,3.983-13.1,3.071-20.422,2.059-10.565-1.486-17.755-4.557-25.215-10.633-2.8-2.329-11.409-7.832-14.785-9.182a9.03,9.03,0,0,0-5.2-.709c-5.063.878-3.1,4.625-12.523,5.232-4.354.3-6.886-.371-8.608-2.97,0-.472.98-5.569,1.114-5.738Zm49.587-17.418c-.27-3.544.844-4.86,2.262-6.582,1.553-1.788,1.958-3.274,3.241-5.232,4.219-6.177,9.147,5.165,9.586-2.8a14.624,14.624,0,0,0-.27-4.22c-.27-3.138-3.511-3.038-8.035-4.388,4.793-1.181,10.971-.776,14.651,1.654,10.431,6.887,4.658,31.258-11.848,29.435-5.064-.608-9.013-2.8-9.588-7.9Zm5.064-25.924c1.823-1.079,5.907-1.721,8.3-2.43,8.035-2.195,19.714-5.468,23.8,2.97,2.667,5.266,1.114,13.063-.844,18.025a55.74,55.74,0,0,1-5.907,10.092c-1.114,1.35-1.114,1.553-3.24,1.823,0-1.417.979-4.321,1.283-5.805a27.612,27.612,0,0,0,.979-6.043C146.31,76.3,135.879,77.311,121.094,75.995ZM74.478,70.526C75.9,69.514,78.427,66.611,79.845,66a18.063,18.063,0,0,1,5.063,2.97c.271,2.667-2.532,4.625-5.366,4.625C76.874,73.6,75.187,72.418,74.478,70.526Zm39.292-1.957c0-.068.134-.136.134-.169,1.417-1.317,1.958-2.195,3.106-2.565,2.532-.71,3.51-1.08,6.042-.946C122.478,71.471,118.528,70.357,113.77,68.569Zm11.409.168c4.658-6.042,3.949-1.552,4.927-9.789C132.065,59.59,135.3,65.294,125.179,68.737ZM71.1,58.239c4.219-1.248,4.793,4.76,1.282,5.7C68.571,65.025,67.591,59.253,71.1,58.239ZM51.659,100a3.482,3.482,0,0,1,2.531-1.553c1.688,1.35,2.531,6.582,2.97,9.013l1.283,8c.136,1.486.136,1.486,1.283,2.025-.136-3.376-1.114-7.663.843-10.127,1.553.068,2.4,1.587,3.241,3.039,2.532,4.455,1.687,10.734.27,15.358.27.709-.136.372,1.823,1.25a17.146,17.146,0,0,1,2.262,1.08c6.042,3.038,9.586,2.97,14.515-.236a8.711,8.711,0,0,1,9.721,0c3.106,1.89,8.879,7.122,12.389,9.856,2.8,2.126,7.594,3.983,10.836,5.4,7.055,2.9,13.232,3.274,20.692,5.164,1.553,7.46-2.97,10.094-9.857,12.288-6.211,2.024-14.785,1.248-21.7,1.248l3.51-8.067c-2.126,1.485-2.8,3.071-7.055,4.388-8.878,2.6-20.151-2.667-29.03-4.76-.134-3.984-2.532-10.261-3.646-13.873-.709-2.025-4.084-12.287-4.793-13.165l-.709,2.126c-.27,1.114.709,2.431,1.283,3.443a44.32,44.32,0,0,1,4.219,11.275c.98,3.679,2.97,14.954.574,17.553-1.958,2.195-4.793,2.195-8.3,1.891-3.949-.405-4.658-1.419-7.325-2.97-4.084-2.566-8.878,4.758-16.068-1.25-1.957-1.553-3.949-3.038-5.772-4.624-8.608-7.6-3.376-13.942-11.848-19.106-4.22-2.5-6.346-8.473-7.46-13.233-1.823-6.953-1.687-10.8.439-17.452,3.376-10.025,9.856-17.08,16.472-24.911,5.637-6.515,4.22-9.08,7.055-13.57a58.879,58.879,0,0,0,3.815-6.515c3.95-8.37,12.523-11.746,19.174-5.232.573.472.843.709,1.417,1.25.439.472.844.878,1.283,1.35C64.959,59.893,73.4,73.835,76.2,78.223c1.688,2.667,7.325,10.094,9.283,11.139a55.478,55.478,0,0,1-4.354-6.244c-.979-1.655-2.8-5.267-3.106-7.6,9.586-.844,9.283-3.443,12.523-5,.98.472.574.608,1.419,1.114-1.553,2.364-.98,2.5-3.95,3.612-.844.372-1.823.642-2.8,1.012-.439.136-.844.3-1.417.474l-1.114.64c.979.709,1.687.472,3.376.405v2.364c1.552-.474,4.658-4.084,5.772-5.4,4.793-5.5,11.984-8.608,18.869-4.389.709.474,2.531,1.722,2.8,2.431-2.97.136-9.147,1.417-11.679,2.9-.844.54-.135.169-.574.54,2.533-.236,15.089-1.417,17.047-.843a3.641,3.641,0,0,1,2.667,2.97c-3.106.3-22.11,1.079-24.371,1.957-3.24,1.182,1.417,6.482,2.532,7.291,3.51,2.9,3.949-.776,7.19-.4,1.687.877,2.532,3.375,3.646,5.029a5.025,5.025,0,0,0,2.126,2.362c3.376,2.059,4.084,4.152,2.8,8.844-1.957,6.279-15.763,4.557-20.151,3.275a31.335,31.335,0,0,1-6.043-2.566,53.51,53.51,0,0,1-5.063-3.376V102.9c-.136,1.012,0,1.317-.439,1.823.134,2.329-.979,4.691-1.688,6.244-2.126-1.012-4.793-8.236-5.772-10.633a27.983,27.983,0,0,0-1.553-3.679c-1.114,2.262-2.8,7.359-5.772,7.46-1.553-2.262-2.262-6.346-2.667-9.654-.27-2.431-.709-9.79-1.114-11.275-1.114.136-.844-.136-.979,1.181-.136,2.734-1.114,9.553-2.97,10.9-3.646-2.97-3.815-8.945-2.4-14.346a47.616,47.616,0,0,1,4.22-9.789A13.921,13.921,0,0,0,64.182,68.3c0-3.071-7.764-14.818-15.763-11.1-1.823.776-4.354,2.8-4.659,4.455a16.322,16.322,0,0,1,5.2-1.957c-.439,3.51-5.5,5.232-5.5,16.2,0,3.307,2.4,18.4,2.262,18.869.27-3.038-.574-7.9-.844-10.97-.573-6.178-.439-15.731,3.95-20.22,2.8-2.8,5.063-4.862,7.325-1.587-.844,1.012-1.823,1.788-2.97,3.138-6.043,7.427-4.793,21.3-2.97,30.178.27,1.013.709,3.781,1.417,4.557Zm12.828-43.95c-.71-.371-.439-.371-1.114-.945-.271-.371-.709-.607-.844-.945-1.553-2.329,3.646-4.793,6.043-5.1a7.1,7.1,0,0,1,5.907,1.789,42.15,42.15,0,0,1,3.949,3.746c.979,1.114.439.136,1.823,2.126,5.063,6.819,6.346,9.182,16.338,10.5-6.211,1.079-9.013,1.417-14.212-2.431a34.584,34.584,0,0,1-4.523-4.624c-.573-.608-.979-1.013-1.552-1.587-1.419-1.789-4.355-5.232-6.887-5.334-1.957-.067-3.51.3-4.523,1.317,0,1.114.709.945-.439,1.553ZM49.971,34.205c3.679-4.455,17.047-8.675,25.08-6.514,5.063,1.35,6.616,4.287,9.283,6.886,2.126,2.025,4.658,3.746,6.751,5.5a5.872,5.872,0,0,0,2.262,1.587l-6.887-9.89c-.709-.946-1.687-2.33-2.4-3.139,3.1-.067,7.595,2.667,9.147,4.084,3.51,3.038,3.646,3.679,6.211,6.953,4.929,6.245,10.566,5.942,15.224,11.342,3.95,4.692,7.19.169,10.127,2.8,1.417,1.35.844,3.443.136,5.1-.71,1.587-2.127,2.329-3.376,3.207-8.439,5.976-5.368-8.236-13.671-9.789,2.666,2.565,6.211,5.4,4.083,11.342-2.126,6.279-4.658,3.984-7.055,3.747l-2.97-.236c-.709-.169-.27-.136-.573-.372a31.113,31.113,0,0,0,2.531-5.874,5.92,5.92,0,0,0-1.823-6.043c-.135,3.747.27,5.874-2.8,7.359a10.116,10.116,0,0,1-8.169-.169c-10.127-5-11.849-20.456-20.861-19.275a13.479,13.479,0,0,0-9.147,6.11c-.71,1.08-.98,2.126-1.688,3.275-3.106-1.114-6.042-7.056-15.224-.642a12.784,12.784,0,0,0-4.658,6.11c-2.262,5.468-1.114,2.734-3.815,7.055-4.929,8.372-.709,4.76-7.764,13.873-.98,1.35-8.3,11.274-9.283,12.051-1.958-5.874-.844-12.523,1.823-18.093,1.553-3.139,2.126-3.038,2.8-4.219-1.553-6.346,2.531-13.3,4.523-12.389,1.417,1.317,1.417,1.654,3.949,1.114a8.529,8.529,0,0,0,4.084-1.587,8.537,8.537,0,0,0,2.4-3.207,18.682,18.682,0,0,0,1.823-3.679l-.439.371c-1.823,2.195-3.106,3.848-6.48,5.232-8.608,3.443-11.141-3.038-9.857-6.042,1.553-3.443,9.452-2.059,11.984-6.346-1.417-.642-2.97,3.139-7.19,2.835.709-2.8,1.688-6.582,2.531-9.384.98-2.836,2.667-5.7,6.346-5.334V31.64c1.114-.844,1.823-2.9,4.793-3.309,5.5-.776,5.773,5.334,7.9,7.663A7.213,7.213,0,0,0,55,38.425c-.844-3.915-4.22.169-5.063-4.084Zm72.979,7.764a20.375,20.375,0,0,1-.709,7.663c-.979,2.195-3.511,3.443-5.637,1.587a15.936,15.936,0,0,1-2.262-2.262L102.934,38.29c-.709-.607-1.688-1.35-2.4-2.025-.979-.776-1.687-1.181-2.666-1.89l-10.3-7.122c.135-1.013.439-.945.98-1.587a19.01,19.01,0,0,1,4.219-3.139,43.665,43.665,0,0,1,6.751-3.038c4.929-1.722,9.856-3.039,15.088-4.523,2.667-.71,5.064-1.891,8.169-1.655,5.063.405,9.013,4.017,10.97,8.473.574,1.35,2.127,6.177,1.419,7.594-.439.945-1.114.844-1.958,1.789.27.405.574.709.979,1.317,1.283.236,4.794-.541,6.617-.541,2.532,0,4.084.372,5.636,1.587,3.646,3.207.574,6.819-2.262,8.541a20.81,20.81,0,0,1-10.7,3.545,13.987,13.987,0,0,1-8.3-2.33,20.252,20.252,0,0,0-2.262-1.35ZM10.409,85.38c0,3.51,1.553,4.86-1.282,7.189l-3.78,5.21s-9.458,19.506,3.138,36.039a6.9,6.9,0,0,1,1.283,2.126l2.8,3.545c1.958,2.059,3.106,2.667,4.354,6.278.844,3.039.574,2.8,2.531,5.874a45.024,45.024,0,0,0,8.3,8.844c3.815,3.275,9.586,6.279,14.515,6.651s1.553-.946,7.594,1.079c1.114.405,2.262.709,3.24,1.013a44.341,44.341,0,0,0,7.056,1.417,39.563,39.563,0,0,0,7.594-.709l6.211-2.5c2.127-.844,4.22-1.317,6.482-2.059,2.532-.878,3.815-.541,5.772,1.485,3.106,3.072,11.68,6.988,16.338,9.317a51.583,51.583,0,0,0,5.637,2.836c.574.236.844.405,1.417.642l4.523,1.89c9.722,3.984,24.371,8.169,34.937,3.915,1.553-.607,1.417-.642,2.4-1.89,1.823-2.431,3.813-4.793,4.522-8.135,2.4-10.194-4.658-18.194-.573-21.468.979-.844,1.823-.844,2.8-1.35A12.655,12.655,0,0,0,164,145.667a19.953,19.953,0,0,0,1.417-7.427c0-3.983,0-7.223-1.114-10.734.439.372,1.553,1.587,2.126,2.195a21.412,21.412,0,0,0,7.765,5,19.291,19.291,0,0,0,14.21-1.08c7.19-3.848,11.275-11.814,11.139-22.819-.134-9.248-3.646-18.261-11.984-22.244a17.474,17.474,0,0,0-18.025,1.721c-2.532,1.958-4.523,4.929-5.368,5.4V66.544c-2.8,0-7.764.3-10.3,0-.709-.136-2.4-1.182-3.51-1.553l-3.106-.642c-.27-.067-.439-.067-.709-.136l-.27-.168c-1.283,0-1.419-.236-2.533-.236-.979-.068-2.126.067-2.97,0-8.439-.946-3.375-8.946-4.793-11.747a12.908,12.908,0,0,1,3.106-1.417c4.22-1.722,5.2-1.789,9.452-4.557,3.51-2.33,7.055-6.751,5.063-12.692-2.262-6.718-4.659-6.11-10.127-8.541a4.372,4.372,0,0,1-2.4-2.329c-.844-2.431,2.126-11.342-7.764-14.954-3.68-1.317-8.608-1.012-12.692-.3-4.929.843-5.907,1.417-11.984,2.262-5.2.642-10.7,2.059-14.38,4.321-.98.642-1.823,1.317-2.8,1.89l-6.48,2.9c-3.376,1.248-3.106-.372-8.169.472a14.287,14.287,0,0,1-2.4,0c-3.815.169-9.992,1.654-13.806,2.667-4.219,1.114-6.75,2.362-10.429,3.612-3.241,1.113-2.533,1.654-5.064.134A16.951,16.951,0,0,0,36.1,22.7a13.673,13.673,0,0,0-7.46,1.89c-1.823,1.248-3.646,2.565-4.659,4.76-.979,2.667-1.823,7.055-2.8,8.608a2.753,2.753,0,0,1-1.417,1.012c-3.646,1.891-5.5,10.566-3.511,13.706,1.114,1.721,1.688,2.8.27,5.164a14.287,14.287,0,0,0-1.417,5.5c-.27,2.193.709,2.262-.439,3.915-.573,1.012-1.282,1.789-1.823,2.8a19.753,19.753,0,0,0-2.8,9.013c0,1.08-.136,1.012-.136,2.126s.136,1.08.136,2.059c.134,1.35-.136,1.08.439,2.127Z" transform="translate(-1.939 -6.661)" fill-rule="evenodd"/>
          </g>
          <g id="Group_567" data-name="Group 567" transform="translate(144.302 57.351)">
            <path id="Path_1548" data-name="Path 1548" d="M177.834,78.621h20.422c.439,2.025,0,24.743.136,29,0,5.267.979,8,6.48,7.933,3.815,0,9.586-3.038,9.856-4.455V87.363h-7.594V78.587H228v37.839l8.033.068-.134,8.843-21.131-.134v-5.029a34.7,34.7,0,0,0-3.106,1.89,22.3,22.3,0,0,1-9.992,3.848c-6.211.709-10.97-1.114-13.806-4.624-3.1-3.848-2.667-9.655-2.667-15.6V87.363l-7.325-.134V78.553Zm60.862-21.6h20.861V116.5h7.055v8.843l-27.882-.067V116.5h7.764V65.827l-7.764-.067V56.984Zm30.583,0h21V116.46l7.055.068v8.844H269.312v-8.844l7.764-.068v-50.6h-7.764V57.017Zm-127.9,71.7c.709-1.079,0-.3,1.282-.945v-3.746a4.678,4.678,0,0,1,1.417.945,22.382,22.382,0,0,0,9.283,3.51l2.262.236a15.724,15.724,0,0,0,2.4-.236c8.878-.236,16.472-8,18.734-16.472,1.114-4.22.98-4.692,1.283-8.911,0-1.182.27-.878,0-2.195a15.369,15.369,0,0,1,0-2.5c-.135-2.195-1.114-6.988-1.958-8.439h6.616v17.856c0,7.19,0,10.633,3.106,14.954A14.961,14.961,0,0,0,193.969,128a24.344,24.344,0,0,0,15.089-1.553,19.7,19.7,0,0,1,3.24-1.485c0,3.307-.709,3.038,2.531,3.038h85.064V113.962h-7.055V54.52H266.781V68.325h7.764v45.6H262.291V54.486H235.962v10.8c0,3.139-.574,3.072,2.4,3.038h5.366v45.6h-13.1V77.979c0-2.836.98-2.126-9.856-2.126H204.839v14.11h7.46v20.151c-2.262,1.486-4.354,2.972-8.169,2.836-2.127-.067-2.532-.709-2.97-2.565-.27-1.722-.135-27.984-.135-32.912,0-1.35.27-1.655-1.114-1.655H180.6c-1.114,0-4.927-.472-5.366.372-.136.3,0,9.891,0,11.139-.98-1.114-.98-2.667-5.368-7.122-6.346-6.279-18.025-7.527-25.215-2.059-.709.472-1.283,1.079-1.958,1.485V54.486H122.272l.271.168c.27.068.439.068.709.135l3.1.642c1.114.371,2.8,1.417,3.511,1.553,2.531.3,7.46,0,10.3,0V86.115c.844-.472,2.8-3.443,5.368-5.4a17.477,17.477,0,0,1,18.025-1.722c8.3,3.984,11.848,13,11.984,22.245.136,11.039-3.949,18.971-11.139,22.819a19.5,19.5,0,0,1-14.212,1.08,21.705,21.705,0,0,1-7.764-5c-.573-.608-1.687-1.823-2.126-2.195,1.114,3.51,1.114,6.751,1.114,10.734Z" transform="translate(-122.272 -54.486)" fill="#e8002c" fill-rule="evenodd"/>
          </g>
          <g id="Group_568" data-name="Group 568" transform="translate(63.39 103.086)">
            <path id="Path_1549" data-name="Path 1549" d="M55.914,102.214c-.134.169-1.114,5.266-1.114,5.738,1.688,2.6,4.22,3.275,8.608,2.97,9.452-.607,7.46-4.321,12.523-5.232a9.021,9.021,0,0,1,5.2.71c3.376,1.349,11.984,6.886,14.785,9.181,7.46,6.043,14.651,9.147,25.215,10.633,7.326,1.012,15.224,1.89,20.422-2.059.27-.169,1.114-1.08,1.417-1.35,3.511-3.848,4.22-11.612.844-15.832a12.407,12.407,0,0,0-2.97-2.97c-5.368-4.456-14.92-7.055-22.245-7.764-3.949-.405-7.325.236-10.97.607.979,1.08,4.658,3.376,6.48,5.4.98,1.114.844,1.655.844,3.443-3.24-1.181-8.3-5.636-13.806-8.472-5.637-2.9-10.565-3.982-17.62-4.523-8.3-.607-10.431,2.734-14.381,7.764a29.1,29.1,0,0,0-2.262,3.072c-.979,1.823-.843,2.5-3.51,2.093a25.617,25.617,0,0,1-4.354-1.012c-3.376-1.25-2.127-.946-3.106-2.364Z" transform="translate(-54.8 -92.624)" fill="#e8002c" fill-rule="evenodd"/>
          </g>
          <g id="Group_569" data-name="Group 569" transform="translate(199.831 81.52)">
            <path id="Path_1550" data-name="Path 1550" d="M168.611,83.281l7.325.136v18.328c0,5.941-.439,11.747,2.667,15.6,2.8,3.51,7.595,5.333,13.806,4.624a22.3,22.3,0,0,0,9.992-3.848,27.23,27.23,0,0,1,3.1-1.89v5.029l21.132.135.134-8.844-8.033-.067V74.64H197.877v8.777h7.595v23.73c-.27,1.417-6.041,4.456-9.856,4.456-5.5.067-6.482-2.667-6.482-7.933-.134-4.287.271-26.971-.134-29H168.577v8.675Z" transform="translate(-168.577 -74.64)" fill-rule="evenodd"/>
          </g>
          <g id="Group_570" data-name="Group 570" transform="translate(16.875 21.576)">
            <path id="Path_1551" data-name="Path 1551" d="M55.337,42.571c.843-6.886,6.886-14.346,14.785-11.984,3.51,1.08,4.523,2.364,6.616,4.084L81.8,39.938a16.9,16.9,0,0,1,2.262,4.557l-1.283.844c-.979-.776-3.1-3.848-5.366-6.042-11.139-10.363-18.3.371-22.111,3.274ZM48.586,31.6c1.283.54,2.262-.068,3.51.877a4,4,0,0,1,1.419,3.275c-8.169-.136-8.3-5.029-10.3-8-1.417-2.059-3.51-3.072-6.346-1.182A7.689,7.689,0,0,0,34.915,29c-.574,1.25-.574,2.565-1.958,2.5l.27-4.287c-2.4.3-3.815,2.734-4.523,5.029A77.616,77.616,0,0,0,26.746,39.9c2.4-.607,6.346-5.266,7.055-1.248a12.225,12.225,0,0,1-4.793,3.207c-1.419.472-5.5,1.317-6.346,1.823-2.8,1.417-1.823,8.844,6.616,6.177,3.51-1.181,7.19-4.388,8.169-8,.709-2.565-.136-4.929.439-7.764.27-1.182.573-2.127.844-3.207,1.417-5,3.24-2.8,4.658.4a19.656,19.656,0,0,1,1.823,5l-.573.608c-3.106-.472-3.241,2.362-4.523,4.86-.98,2.059-2.262,4.76-3.376,6.718-2.262,3.848-3.511,5.637-8.608,6.177-2.531.236-2.531-.776-3.815-1.35a14.68,14.68,0,0,0-2.8,5.165c-.844,2.97-.27,4.017.134,6.751-2.531,2.9-3.1,3.138-4.658,8.236a29.284,29.284,0,0,0-.98,5.232l.271,6.177c.843-.642,9.012-11.511,10.3-13.232,3.376-4.523,1.553-5.029,6.211-12.051,3.95-5.874,2.97-8.946,8.3-12.625,8.608-5.941,11.848-1.317,14.92.169,1.687-2.195.843-2.565,4.354-5.738,3.679-3.511,10.565-4.692,14.076-.3L78.8,46.959c2.8,4.287,5.2,8.135,9.722,10.5,2.262,1.182,5.772,1.553,8.169,0,2.262-1.552,1.282-5.4,1.552-8.439a9.384,9.384,0,0,1,4.084,5.874c.271,2.364-1.417,5.874-2.26,7.663a14.914,14.914,0,0,0,3.24.472c1.114.236,1.957.844,2.8.169,1.823-1.317,4.084-6.819.844-11.106a13.885,13.885,0,0,0-4.354-3.511,3.989,3.989,0,0,1,.709-1.417c3.646,1.013,5.5,1.587,7.325,4.321,1.687,2.734,1.823,5.806,4.354,7.527,1.553-.067,3.511-1.587,4.523-2.362a5.081,5.081,0,0,0,2.262-5.1c-2.126-2.126-3.51-.64-6.346-.843-2.667-.236-3.679-1.891-4.929-3.072-6.042-5.941-6.886-3.071-13.805-9.789C94.426,35.651,90.476,28.293,84,26.808a18.392,18.392,0,0,0,2.126,3.138L92.6,39.2c-3.511.169-5.064-1.823-8.169-4.321L80.08,31.027a23.2,23.2,0,0,1-1.958-2.262C73.193,23.6,65.43,24.208,58.814,25.728c-4.793,1.114-6.346,2.059-9.992,4.624-.574.472-.709.372-.27,1.25Z" transform="translate(-16.011 -24.653)" fill="#a9aaae" fill-rule="evenodd"/>
          </g>
          <g id="Group_571" data-name="Group 571" transform="translate(291.275 59.882)">
            <path id="Path_1552" data-name="Path 1552" d="M244.831,65.441H252.6v50.6l-7.764.067v8.844h28.051v-8.844l-7.055-.067V56.6h-21Z" transform="translate(-244.831 -56.597)" fill-rule="evenodd"/>
          </g>
          <g id="Group_572" data-name="Group 572" transform="translate(260.726 59.882)">
            <path id="Path_1553" data-name="Path 1553" d="M219.357,65.373l7.73.067v50.667h-7.73v8.776l27.882.067v-8.844h-7.055V56.6H219.357Z" transform="translate(-219.357 -56.597)" fill-rule="evenodd"/>
          </g>
          <g id="Group_573" data-name="Group 573" transform="translate(10.054 44.676)">
            <path id="Path_1554" data-name="Path 1554" d="M50.124,138.145c0-6.415,4.927-11.039,4.523-8.3L53.095,132.1a11.85,11.85,0,0,0-1.688,7.224c0,.945.136.945-.134,1.485-1.419.372-1.114-1.181-1.114-2.666ZM42.664,51.6c.439-.237.134.067.709-.405,1.283-1.08,2.126-2.364,5.368-2.836a10.486,10.486,0,0,1,7.189,1.789c5.907,3.781,6.887,9.249,8.169,10.566,0-5.1.439-3.443-2.532-7.933-4.523-6.988-10.3-12.389-18.464-6.043l-.844.777c-1.687,2.734-.709.168-3.376,5.468-1.823,3.679-1.957,3.274-3.376,5.569a55.308,55.308,0,0,0-2.531,6.279c-1.417,3.78-2.4,4.321-2.97,5.805L23.389,78.3a73.4,73.4,0,0,0-6.211,8.135c-3.106,4.929-7.6,13.637-6.751,21.232.439,4.287,2.8,12.692,5.2,16.135,2.8,3.917,6.886,2.364,9.451,12.051.844,2.836,2.4,7.663,5.064,9.013.134.777,1.282,1.486,1.957,2.025,4.084,2.97,5.2,5.4,10.3,5.7,2.4-.3,5.772-2.126,8.439-1.721,1.417.168,2.262,1.181,3.24,1.721,3.376,1.958,9.722,2.5,11.984.541a2.877,2.877,0,0,0,1.114-2.262c.709-3.072.134-2.364,0-5.334a54.274,54.274,0,0,0-3.511-16.371c-.979-2.5-2.126-4.321-3.24-6.65-1.114-2.127-2.126-4.389-3.106-6.751-3.813-9.62-8.033-17.857-9.992-29.6-.979-5.266-1.552-13.064-.709-18.43.98-6.414,2.97-8.912,6.616-13.1-1.552-1.013-3.24.169-4.219,1.35-1.958,2.195-1.283.709-2.8,3.612-4.927,9.181.136,26.7-.843,34.4l-.98.067A190.4,190.4,0,0,1,41.145,73.3c-.979-8.439.136-12.759,4.354-19.106-2.262.54-3.376,1.789-5.5,2.6a10.63,10.63,0,0,1,2.667-5.1ZM25.752,102.3c-.573-.878.271-1.486.844-2.33,1.553-2.26.439-1.89,2.126-1.89C28.858,99.258,27.035,102.363,25.752,102.3ZM24.2,100.169c-.71-.843,0-1.315.573-2.262.136-.4.439-.945.574-1.248.979-1.013,1.114-.236,1.282-.236.136.709-1.282,3.848-2.4,3.746Zm-4.355,1.553c-.134-1.553,3.376-5.805,4.929-7.291.709-.642,0-.472,1.283-.472.134.945-.574,1.587-1.114,2.262l-1.553,1.89c-2.4,2.97-1.823,3.848-3.51,3.612Zm-3.679-.371c-.709-2.127,7.19-11.106,9.013-12.592.844-.642.979-1.114,1.687-.472,0,1.013-.709,1.25-1.282,1.722a64.136,64.136,0,0,0-6.751,8.3C17.144,100.878,17.415,101.588,16.165,101.351Zm-.27-4.389c-.27-1.317,1.114-3.038,1.823-4.016a37.822,37.822,0,0,1,5.063-6.279c2.262-2.025,2.531-2.262,3.241-1.114-.439.844-.844.608-1.553,1.35a35.642,35.642,0,0,0-2.531,2.835,6.247,6.247,0,0,0-1.114,1.419,16.876,16.876,0,0,0-2.4,3.038C16.6,97.1,17.313,97.267,15.9,97Zm23.932,28.219a3.136,3.136,0,0,1,.574-2.43c1.417-2.329,2.531-1.25,1.687,0a4.569,4.569,0,0,0-.709.945C40.808,124.709,41.247,125.182,39.828,125.182Zm2.533,5.334-.98-.067c-.439-1.419,1.417-3.917,2.4-5.1l.979-1.417H46.04c.27,1.317-1.114,1.789-1.958,2.97a11.927,11.927,0,0,0-1.687,3.612Zm3.813,15.359c-1.687-3.072.439-12.051,3.241-16.3.709-1.08,1.823-3.207,3.1-3.039.136,1.553-2.126,3.072-3.815,7.055a22.338,22.338,0,0,0-1.823,8.71c0,1.35.71,4.152-.709,3.544Zm-2.97-8.71c-.573-2.025,2.262-7.7,3.376-9.62,1.283-1.958,1.283-2.059,2.262-1.823.136.945-.844,1.957-1.417,2.9a24.5,24.5,0,0,0-2.97,7.527c-.27,1.248,0,1.08-1.283,1.012Z" transform="translate(-10.323 -43.916)" fill="#a9aaae" fill-rule="evenodd"/>
          </g>
          <g id="Group_574" data-name="Group 574" transform="translate(9.125 43.838)">
            <path id="Path_1555" data-name="Path 1555" d="M100.54,92l.844-.878c1.957-.372,2.97.372,2.8,2.329l-.709.878c-1.958.3-2.97-.405-2.97-2.329Zm-4.793,1.485c-1.823.608-1.958.541-3.106-.709-.134-1.485.439-2.734,2.127-2.126C96.051,91.06,96.186,92.308,95.747,93.489Zm4.793-5.569c.136,3.307-3.106,2.565-3.511,1.012a1.64,1.64,0,0,1,1.283-2.059c1.114-.236,1.688.472,2.262,1.08ZM90.11,73.372c-.573.844-1.283,1.08-1.958,2.059-1.417,2.126-1.823.642-1.552-.169a8.09,8.09,0,0,1,1.823-2.195c.439-.472.573-.945,1.282-.843.844.067.709.642.439,1.114ZM42.785,51.735a10.216,10.216,0,0,0-2.667,5.1c2.126-.844,3.24-2.059,5.5-2.6C41.4,60.578,40.253,64.9,41.265,73.338A190.488,190.488,0,0,0,44.506,94.1l.98-.067c.979-7.7-4.084-25.215.843-34.4,1.553-2.9.844-1.417,2.8-3.612.979-1.181,2.666-2.362,4.219-1.35-3.646,4.22-5.637,6.718-6.616,13.1-.844,5.4-.27,13.165.709,18.43,1.958,11.747,6.212,19.983,9.992,29.6a72.963,72.963,0,0,0,3.106,6.75c1.114,2.33,2.262,4.153,3.24,6.651a54.3,54.3,0,0,1,3.511,16.371c.134,2.97.709,2.262,0,5.333a2.875,2.875,0,0,1-1.114,2.262c-2.262,1.958-8.608,1.417-11.984-.54-.979-.541-1.823-1.553-3.24-1.722-2.667-.405-6.043,1.417-8.439,1.722-5.064-.3-6.212-2.734-10.3-5.7-.709-.541-1.823-1.25-1.957-2.025-2.667-1.35-4.22-6.178-5.064-9.013-2.531-9.654-6.616-8.135-9.451-12.051-2.4-3.443-4.793-11.848-5.2-16.135-.844-7.6,3.679-16.3,6.75-21.233a72.329,72.329,0,0,1,6.212-8.134l6.616-7.663c.573-1.486,1.553-2.025,2.97-5.807a52.874,52.874,0,0,1,2.532-6.278c1.417-2.33,1.553-1.891,3.376-5.57,2.667-5.266,1.687-2.734,3.376-5.468l.844-.776c8.169-6.346,13.941-.945,18.464,6.042,2.97,4.523,2.531,2.836,2.531,7.933C62.936,59.43,61.957,54,56.05,50.182a10.388,10.388,0,0,0-7.19-1.789c-3.24.472-4.084,1.789-5.366,2.835-.574.473-.27.169-.709.405Zm18.734,69.4c-.134.136-.27.136-.439.3-.979-2.8-4.523-9.957-6.042-13.805-.98-2.566-5.2-12.592-4.929-14.887C49.4,91.971,49,89.2,48.692,88.19c-1.823-8.911-3.106-22.785,2.97-30.178,1.114-1.35,2.126-2.126,2.97-3.139-2.262-3.274-4.523-1.181-7.325,1.587-4.355,4.523-4.523,14.043-3.95,20.22.27,3.072,1.114,7.933.844,10.971.136-.472-2.262-15.528-2.262-18.869,0-10.971,5.063-12.692,5.5-16.2a16.049,16.049,0,0,0-5.2,1.958c.271-1.654,2.8-3.679,4.659-4.456,8.033-3.746,15.763,8,15.763,11.106.709.608.709,1.013,1.114,2.059a21.633,21.633,0,0,0,.979,2.329C68.134,74.417,68,77.557,73.772,85.22c.439.642.979,1.181,1.417,1.823.844,1.08,6.616,6.346,6.616,6.413a39.819,39.819,0,0,1-.134,4.152c.439-.54.27-.843.439-1.823V93.659a53.748,53.748,0,0,0,5.063,3.376A34.543,34.543,0,0,0,93.216,99.6c4.354,1.317,18.161,3.039,20.151-3.274,1.283-4.692.574-6.751-2.8-8.844a5.2,5.2,0,0,1-2.126-2.362c-1.114-1.655-1.958-4.153-3.646-5.031-3.241-.371-3.68,3.309-7.19.405-1.114-.844-5.772-6.11-2.532-7.291,2.262-.878,21.265-1.654,24.371-1.958a3.693,3.693,0,0,0-2.667-2.97c-1.957-.607-14.514.608-17.047.844.439-.372-.27,0,.574-.54,2.532-1.486,8.742-2.8,11.679-2.9-.27-.709-2.126-1.958-2.8-2.431-6.886-4.219-14.076-1.114-18.869,4.389-1.114,1.316-4.22,4.927-5.772,5.4V70.671c-1.688.067-2.4.3-3.376-.405l1.114-.642c.573-.168.979-.371,1.417-.472.979-.371,1.957-.642,2.8-1.012,2.97-1.114,2.4-1.25,3.95-3.612-.844-.541-.439-.642-1.419-1.114-3.24,1.553-2.97,4.152-12.523,5,.27,2.329,2.127,5.941,3.106,7.594a58.75,58.75,0,0,0,4.354,6.245c-1.958-1.08-7.594-8.472-9.283-11.139-2.8-4.388-11.275-18.33-14.21-21.873-.439-.474-.844-.878-1.283-1.35-.574-.541-.844-.777-1.417-1.25C51.156,40.122,42.548,43.5,38.6,51.869a58.882,58.882,0,0,1-3.815,6.515c-2.8,4.523-1.417,7.055-7.055,13.57-6.616,7.831-13.1,14.886-16.472,24.911-2.126,6.65-2.262,10.5-.439,17.452,1.114,4.76,3.24,10.734,7.46,13.232,8.439,5.165,3.24,11.511,11.848,19.106,1.823,1.587,3.815,3.072,5.772,4.625,7.19,5.974,11.984-1.317,16.068,1.248,2.667,1.553,3.376,2.566,7.325,2.97,3.511.3,6.346.3,8.3-1.89,2.4-2.6.439-13.873-.574-17.553A45.286,45.286,0,0,0,62.8,124.781c-.574-1.012-1.553-2.329-1.283-3.443Z" transform="translate(-9.549 -43.218)" fill="#a9aaae" fill-rule="evenodd"/>
          </g>
          <g id="Group_575" data-name="Group 575" transform="translate(15.7 20.358)">
            <path id="Path_1556" data-name="Path 1556" d="M38.756,36.731c0-2.025,1.114-6.278,1.957-7.46.574.237.844.642,1.283,1.317a26.924,26.924,0,0,1,2.262,5.4c-4.523.608-3.815,4.929-6.043,7.764,1.114-4.927.574-2.6.574-6.988ZM48.747,31.8c-.439-.878-.27-.777.27-1.25,3.679-2.565,5.2-3.51,9.992-4.624,6.616-1.553,14.38-2.127,19.308,3.038a28.909,28.909,0,0,0,1.958,2.262l4.354,3.848c3.1,2.5,4.658,4.523,8.169,4.321l-6.482-9.249a18.393,18.393,0,0,1-2.126-3.138c6.48,1.485,10.431,8.843,12.692,11.037,6.886,6.718,7.764,3.848,13.805,9.789,1.283,1.181,2.262,2.836,4.929,3.072,2.8.168,4.22-1.317,6.346.843a5.081,5.081,0,0,1-2.262,5.1c-.979.776-2.97,2.329-4.523,2.362-2.532-1.721-2.667-4.793-4.354-7.527-1.823-2.734-3.679-3.307-7.325-4.321a4.3,4.3,0,0,0-.709,1.417,13.516,13.516,0,0,1,4.354,3.511c3.24,4.287.979,9.789-.844,11.106-.844.642-1.687.067-2.8-.169a17.4,17.4,0,0,1-3.24-.472c.843-1.789,2.531-5.266,2.26-7.663a9.384,9.384,0,0,0-4.084-5.874c-.27,3.039.71,6.887-1.552,8.439-2.4,1.553-5.907,1.182-8.169,0-4.523-2.362-6.887-6.211-9.722-10.5l-4.354-5.874c-3.511-4.388-10.431-3.207-14.076.3-3.511,3.207-2.667,3.544-4.354,5.738-3.106-1.486-6.346-6.11-14.92-.169-5.368,3.679-4.354,6.751-8.3,12.625-4.658,6.988-2.8,7.527-6.211,12.051-1.283,1.721-9.452,12.59-10.3,13.232l-.271-6.177a33.312,33.312,0,0,1,.98-5.232c1.553-5.1,2.126-5.334,4.658-8.236-.439-2.734-.979-3.781-.134-6.751a15.565,15.565,0,0,1,2.8-5.165c1.283.608,1.283,1.587,3.815,1.35,5.063-.54,6.346-2.329,8.608-6.177,1.114-1.958,2.4-4.624,3.376-6.718,1.282-2.5,1.417-5.333,4.523-4.86l.573-.608a21.625,21.625,0,0,0-1.823-5c-1.417-3.207-3.24-5.4-4.658-.4-.271,1.079-.574,2.024-.844,3.207-.574,2.835.27,5.232-.439,7.764-.979,3.612-4.659,6.819-8.169,8-8.439,2.667-9.452-4.76-6.616-6.177.843-.541,4.927-1.35,6.346-1.823A12.225,12.225,0,0,0,34,38.858c-.709-4.017-4.659.642-7.055,1.248.27-2.059,1.417-5.468,1.957-7.663.709-2.329,2.127-4.76,4.523-5.029l-.27,4.287c1.417.067,1.417-1.248,1.958-2.5a8.18,8.18,0,0,1,1.957-2.431c2.8-1.89,4.929-.877,6.346,1.182,1.958,2.97,2.127,7.9,10.3,8a4.053,4.053,0,0,0-1.419-3.275c-1.282-.945-2.262-.371-3.51-.877Zm-1.417-.946c.843,4.287,4.219.169,5.063,4.084a7.267,7.267,0,0,1-5.368-2.43c-2.126-2.33-2.4-8.439-7.9-7.663-2.97.405-3.646,2.5-4.793,3.309V26.436c-3.646-.372-5.366,2.5-6.346,5.333-.843,2.8-1.823,6.582-2.531,9.385,4.22.3,5.773-3.511,7.19-2.836-2.531,4.287-10.431,2.9-11.984,6.346-1.283,3.039,1.283,9.486,9.857,6.043,3.375-1.35,4.658-3.039,6.48-5.232l.439-.372a20.7,20.7,0,0,1-1.823,3.679,8.527,8.527,0,0,1-2.4,3.207,7.886,7.886,0,0,1-4.084,1.587c-2.531.541-2.531.169-3.949-1.113-1.958-.878-6.043,6.042-4.523,12.388-.709,1.181-1.283,1.08-2.8,4.22-2.667,5.569-3.815,12.219-1.823,18.092.979-.776,8.3-10.667,9.283-12.051,7.055-9.147,2.8-5.5,7.764-13.873,2.667-4.321,1.553-1.587,3.815-7.055a12.393,12.393,0,0,1,4.658-6.11c9.147-6.413,12.118-.472,15.224.642.709-1.114.979-2.195,1.688-3.274a13.475,13.475,0,0,1,9.147-6.11c9.012-1.181,10.7,14.279,20.861,19.275a10.111,10.111,0,0,0,8.169.168c3.1-1.485,2.666-3.612,2.8-7.358a5.853,5.853,0,0,1,1.823,6.043,33.436,33.436,0,0,1-2.531,5.872c.27.236-.136.169.573.372l2.97.236c2.4.236,4.929,2.565,7.055-3.746,2.127-5.942-1.417-8.777-4.083-11.342,8.3,1.553,5.2,15.763,13.671,9.789,1.282-.878,2.666-1.587,3.376-3.207.709-1.655,1.282-3.747-.136-5.1-2.97-2.6-6.211,1.891-10.127-2.8-4.658-5.4-10.3-5.1-15.224-11.342-2.531-3.274-2.666-3.915-6.211-6.954-1.553-1.417-6.043-4.152-9.147-4.084.709.844,1.687,2.195,2.4,3.139l6.887,9.891A6.729,6.729,0,0,1,88.478,36.6c-2.127-1.789-4.659-3.511-6.751-5.5-2.667-2.6-4.22-5.5-9.283-6.887-8.033-2.126-21.4,2.059-25.08,6.515Z" transform="translate(-15.031 -23.637)" fill="#a9aaae" fill-rule="evenodd"/>
          </g>
          <g id="Group_576" data-name="Group 576" transform="translate(55.501 61.773)">
            <path id="Path_1557" data-name="Path 1557" d="M73.968,94.595a39.82,39.82,0,0,0,.134-4.152c0-.067-5.772-5.333-6.616-6.413-.439-.642-.979-1.181-1.417-1.823-5.772-7.663-5.637-10.8-9.013-19.646a16.381,16.381,0,0,1-.979-2.329c-.439-1.08-.439-1.485-1.114-2.059a15.675,15.675,0,0,1-1.687,2.835,47.653,47.653,0,0,0-4.22,9.79c-1.417,5.4-1.282,11.376,2.4,14.346,1.823-1.35,2.8-8.169,2.97-10.9.134-1.317-.136-1.08.979-1.181.439,1.485.844,8.843,1.114,11.274.439,3.309,1.114,7.427,2.667,9.655,2.97-.135,4.658-5.232,5.772-7.46a27.984,27.984,0,0,1,1.553,3.679c.979,2.362,3.646,9.62,5.772,10.633C72.989,99.287,74.1,96.925,73.968,94.595Z" transform="translate(-48.221 -58.173)" fill="#fefefd" fill-rule="evenodd"/>
          </g>
          <g id="Group_577" data-name="Group 577" transform="translate(96.877 140.965)">
            <path id="Path_1558" data-name="Path 1558" d="M119.349,148.412l7.46-3.307a11.358,11.358,0,0,1,1.282-.642c1.419-.642,2.4.169.98,1.012-1.823,1.08-9.586,4.456-10.7,4.456v-.945l.979-.541Zm-36.625-7.46a38.1,38.1,0,0,1,3.949,2.364c4.354,2.6,8.169,3.679,13.1,5.637s14.076,6.514,17.89,7.223,7.9.135,10.566-1.654c7.325-4.929,4.084-19.881,2.262-27.578-.136-.472-.439-2.025-.844-2.33-3.1-1.079-4.219.068-5.063,2.734-2.4,8.135-4.354,10.667-12.389,12.928-8.169,2.33-14.076,2.33-21.974.169a52.878,52.878,0,0,0-7.19-1.114l-.27,1.587Z" transform="translate(-82.724 -124.211)" fill="#a9aaae" fill-rule="evenodd"/>
          </g>
          <g id="Group_578" data-name="Group 578" transform="translate(119.155 64.401)">
            <path id="Path_1559" data-name="Path 1559" d="M101.3,65.3c14.785,1.317,25.215.3,24.371,18.633a29.772,29.772,0,0,1-.979,6.043c-.27,1.485-1.283,4.388-1.283,5.805,2.126-.3,2.126-.472,3.24-1.823a55.738,55.738,0,0,0,5.907-10.092c1.958-5,3.511-12.759.844-18.025-4.084-8.439-15.763-5.165-23.8-2.97C107.209,63.576,103.125,64.218,101.3,65.3Z" transform="translate(-101.302 -60.365)" fill="#a9aaae" fill-rule="evenodd"/>
          </g>
          <g id="Group_579" data-name="Group 579" transform="translate(161.902 90.396)">
            <path id="Path_1560" data-name="Path 1560" d="M139.568,96.727a18.923,18.923,0,0,1,.439-4.321c.71-3.747,3.106-7.663,7.055-7.663,3.511,0,4.794-.067,7.19,2.835,2.262,2.6,1.958,7.123,1.958,10.5,0,4.86-2.8,10.126-7.19,10.126-3.679,0-5.2-.371-7.594-3.78a15.525,15.525,0,0,1-1.823-7.7Zm6.212-14.346c-7.46,2.024-9.283,9.384-8.743,16.371.844,7.594,5.773,13.535,13.233,11.915a11.039,11.039,0,0,0,5.636-3.51c.271-.372.98-1.486,1.283-2.025,1.417-2.667,1.958-7.359,1.687-11.039-.438-4.017-1.417-6.988-3.51-9.181a10.186,10.186,0,0,0-9.586-2.566Z" transform="translate(-136.949 -82.042)" fill="#e8002c" fill-rule="evenodd"/>
          </g>
          <g id="Group_580" data-name="Group 580" transform="translate(49.686 91.748)">
            <path id="Path_1561" data-name="Path 1561" d="M43.406,84.756c-.27,2.329,3.949,12.321,4.929,14.886,1.553,3.848,5.063,11.039,6.042,13.806.136-.168.271-.168.439-.3l.709-2.126.271-.541c1.417-4.624,2.262-10.9-.271-15.358-.843-1.419-1.687-2.972-3.24-3.039-1.957,2.5-.979,6.751-.844,10.127-1.113-.541-1.113-.541-1.282-2.025l-1.283-8c-.439-2.431-1.282-7.663-2.97-9.013a3.414,3.414,0,0,0-2.531,1.553Z" transform="translate(-43.372 -83.169)" fill="#fefefd" fill-rule="evenodd"/>
          </g>
          <g id="Group_581" data-name="Group 581" transform="translate(60.305 42.256)">
            <path id="Path_1562" data-name="Path 1562" d="M54.435,49.026c1.114-.607.439-.4.439-1.552.98-1.013,2.531-1.35,4.523-1.317,2.531.134,5.5,3.544,6.887,5.333.573.608.979,1.013,1.552,1.587A32.663,32.663,0,0,0,72.359,57.7c5.2,3.848,8.035,3.51,14.212,2.43-9.992-1.316-11.275-3.679-16.338-10.5a9.423,9.423,0,0,0-1.823-2.126,42.316,42.316,0,0,0-3.949-3.747,7.213,7.213,0,0,0-5.907-1.789c-2.4.3-7.6,2.8-6.043,5.1.136.371.573.608.844.945.709.608.439.608,1.114.945Z" transform="translate(-52.227 -41.899)" fill="#bdbec1" fill-rule="evenodd"/>
          </g>
          <g id="Group_582" data-name="Group 582" transform="translate(61.804 119.056)">
            <path id="Path_1563" data-name="Path 1563" d="M68.128,130.481c0-.844-.27-.371-.27-1.181,0-.878.27-.3.27-1.181a8.241,8.241,0,0,1,4.523-.878c3.679.54,4.219,3.781-.136,4.321a6.73,6.73,0,0,1-4.354-1.08Zm10.431-9.62c3.376-.777,7.189,1.114,5.2,3.038a4.321,4.321,0,0,1-1.958,1.114C76.431,126.43,73.494,121.975,78.558,120.861Zm7.595,8c-.27-1.248-.573-1.958.574-2.667a7.557,7.557,0,0,1,6.75-.4c4.22,1.721-.134,5.266-5.063,4.016-.439-.134-.844-.3-1.283-.472C86.018,128.692,87.4,128.963,86.153,128.861ZM53.477,106.515c.709.878,4.084,11.139,4.793,13.165,1.114,3.612,3.511,9.89,3.646,13.873,8.879,2.093,20.152,7.358,29.03,4.76,4.22-1.317,4.929-2.9,7.055-4.389l-3.51,8.068c6.886,0,15.494.776,21.7-1.25,6.887-2.193,11.41-4.793,9.857-12.287-7.46-1.89-13.671-2.262-20.692-5.164-3.241-1.419-8.035-3.275-10.836-5.4-3.51-2.734-9.283-7.933-12.389-9.857a8.716,8.716,0,0,0-9.721,0c-4.929,3.208-8.439,3.275-14.515.236a23.04,23.04,0,0,0-2.262-1.079c-1.958-.878-1.553-.541-1.823-1.25l-.27.541Z" transform="translate(-53.477 -105.941)" fill="#a9aaae" fill-rule="evenodd"/>
          </g>
          <g id="Group_583" data-name="Group 583" transform="translate(105.94 20.827)">
            <path id="Path_1564" data-name="Path 1564" d="M105.32,38.544c-.135-.608.134-.068-.135-.472a22.228,22.228,0,0,1-2.4-2.667c-1.823-2.9-2.262-4.557-3.511-7.7-.573-1.553-.709-2.836-1.823-3.679-1.114.371-6.48,3.746-7.055,6.042a2.171,2.171,0,0,0,1.114,2.6l9.586,7.7C102.517,39.961,103.5,38.645,105.32,38.544Z" transform="translate(-90.282 -24.029)" fill-rule="evenodd"/>
          </g>
          <g id="Group_584" data-name="Group 584" transform="translate(85.635 6.687)">
            <path id="Path_1565" data-name="Path 1565" d="M108.693,40.893c-1.823.134-2.8,1.417-4.22,1.823l-9.586-7.7c-.709-.541-1.553-1.181-1.114-2.6.574-2.329,5.907-5.7,7.055-6.042,1.114.843,1.283,2.126,1.823,3.679,1.283,3.139,1.688,4.793,3.511,7.7a22.231,22.231,0,0,0,2.4,2.667C108.827,40.824,108.557,40.285,108.693,40.893Zm0,0c.709.3,1.553.945,2.262,1.35a14.477,14.477,0,0,0,8.3,2.329,21.012,21.012,0,0,0,10.7-3.545c2.8-1.721,5.907-5.333,2.262-8.539-1.552-1.25-3.1-1.587-5.636-1.587-1.823,0-5.368.776-6.617.54-.439-.608-.709-.878-.979-1.317.844-.945,1.553-.843,1.958-1.789.709-1.417-.844-6.244-1.419-7.594-1.957-4.456-5.907-8.068-10.97-8.472-3.1-.236-5.5.945-8.169,1.654-5.2,1.485-10.126,2.8-15.088,4.523a39.5,39.5,0,0,0-6.751,3.038,19.01,19.01,0,0,0-4.219,3.139c-.574.642-.844.608-.98,1.587l10.3,7.122c.979.709,1.687,1.114,2.666,1.891.709.642,1.688,1.417,2.4,2.025l11.409,10.667a16,16,0,0,0,2.262,2.262c2.126,1.823,4.659.607,5.637-1.587a20.316,20.316,0,0,0,.709-7.663Z" transform="translate(-73.35 -12.237)" fill="#a9aaae" fill-rule="evenodd"/>
          </g>
          <g id="Group_585" data-name="Group 585" transform="translate(56.201 27.064)">
            <path id="Path_1566" data-name="Path 1566" d="M50.762,38.52c.574-2.734,3.106-5.5,4.793-6.751,2.532-1.823,5.773-1.89,9.013-.64,2.667,1.012,6.211,4.522,8.033,6.582a9.436,9.436,0,0,0,1.419,1.417,8.174,8.174,0,0,1,1.957,3.544,49.7,49.7,0,0,0-4.793-5.266,14.168,14.168,0,0,0-6.211-3.78,11.536,11.536,0,0,0-8.439.54c-3.241,1.553-3.68,2.8-5.773,4.388ZM48.805,41.66c3.813-2.9,10.97-13.637,22.11-3.274,2.262,2.193,4.354,5.266,5.368,6.042l1.282-.844A16.9,16.9,0,0,0,75.3,39.026l-5.063-5.266c-2.126-1.721-3.106-3.038-6.616-4.084-7.9-2.362-13.942,5.1-14.785,11.984Z" transform="translate(-48.805 -29.23)" fill="#a8a9ad" fill-rule="evenodd"/>
          </g>
          <g id="Group_586" data-name="Group 586" transform="translate(114.017 71.463)">
            <path id="Path_1567" data-name="Path 1567" d="M112.99,88.328c-.134.776.135.608.271,1.485,0,.709-.271.844-.271,1.419-2.26.945-3.1-1.958-1.113-3.376Zm-7.764-1.553.27.54c0,.068.135.068.135.136.574,1.08.27,1.586,0,2.565l-.979.405c-1.689-.642-1.823-2.362-.709-3.679l1.282.067Zm3.815-.642c-.439-1.587-.979-2.565.844-3.51a2.014,2.014,0,0,1,1.553,2.565C111,86.538,110.155,86.369,109.041,86.133Zm-5.2-19.275c4.523,1.35,7.764,1.25,8.035,4.389a13.454,13.454,0,0,1,.27,4.219c-.439,7.933-5.368-3.376-9.586,2.8-1.283,1.957-1.688,3.443-3.241,5.232-1.417,1.721-2.532,3.038-2.262,6.582.574,5.1,4.523,7.291,9.588,7.9,16.472,1.823,22.244-22.548,11.848-29.434-3.68-2.431-9.857-2.836-14.651-1.655Z" transform="translate(-97.017 -66.254)" fill="#a9aaae" fill-rule="evenodd"/>
          </g>
          <g id="Group_587" data-name="Group 587" transform="translate(72.539 59.342)">
            <path id="Path_1568" data-name="Path 1568" d="M62.429,60.669c.709,1.891,2.4,3.072,5.063,3.072,2.8,0,5.637-1.958,5.366-4.625a18.555,18.555,0,0,0-5.063-2.97C66.378,56.754,63.846,59.657,62.429,60.669Z" transform="translate(-62.429 -56.146)" fill="#fefefd" fill-rule="evenodd"/>
          </g>
          <g id="Group_588" data-name="Group 588" transform="translate(58.158 28.082)">
            <path id="Path_1569" data-name="Path 1569" d="M50.437,38.351c2.127-1.587,2.531-2.835,5.773-4.388a11.542,11.542,0,0,1,8.439-.541A14.7,14.7,0,0,1,70.859,37.2a54.189,54.189,0,0,1,4.793,5.266A8.523,8.523,0,0,0,73.7,38.926a11.238,11.238,0,0,1-1.419-1.419c-1.823-2.059-5.366-5.569-8.033-6.582-3.24-1.248-6.482-1.181-9.013.642-1.687,1.25-4.219,4.017-4.793,6.751Z" transform="translate(-50.437 -30.078)" fill-rule="evenodd"/>
          </g>
          <g id="Group_589" data-name="Group 589" transform="translate(94.275 138.295)">
            <path id="Path_1570" data-name="Path 1570" d="M80.793,125.665c1.283.135-.134-.169.98.472a9.712,9.712,0,0,0,1.282.472c4.929,1.25,9.283-2.329,5.064-4.016a7.547,7.547,0,0,0-6.751.4C80.253,123.707,80.523,124.417,80.793,125.665Z" transform="translate(-80.554 -121.984)" fill="#fefefd" fill-rule="evenodd"/>
          </g>
          <g id="Group_590" data-name="Group 590" transform="translate(38.85 25.958)">
            <path id="Path_1571" data-name="Path 1571" d="M34.91,35.8c0,4.389.573,2.059-.574,6.988,2.262-2.835,1.553-7.19,6.043-7.764a25.837,25.837,0,0,0-2.262-5.4c-.439-.642-.709-1.08-1.283-1.317-.843,1.182-1.957,5.468-1.957,7.46Z" transform="translate(-34.336 -28.307)" fill-rule="evenodd"/>
          </g>
          <g id="Group_591" data-name="Group 591" transform="translate(111.831 58.201)">
            <path id="Path_1572" data-name="Path 1572" d="M95.194,58.9c4.793,1.788,8.742,2.9,9.282-3.68-2.531-.134-3.51.236-6.042.946-1.114.371-1.688,1.248-3.106,2.565C95.328,58.8,95.194,58.867,95.194,58.9Z" transform="translate(-95.194 -55.194)" fill="#fefefd" fill-rule="evenodd"/>
          </g>
          <g id="Group_592" data-name="Group 592" transform="translate(84.267 133.811)">
            <path id="Path_1573" data-name="Path 1573" d="M74.827,118.41c-5.064,1.114-2.127,5.569,3.24,4.152a4.464,4.464,0,0,0,1.958-1.114C81.983,119.558,78.2,117.668,74.827,118.41Z" transform="translate(-72.208 -118.245)" fill="#fefefd" fill-rule="evenodd"/>
          </g>
          <g id="Group_593" data-name="Group 593" transform="translate(66.959 51.408)">
            <path id="Path_1574" data-name="Path 1574" d="M59.947,49.7c-3.511,1.013-2.533,6.751,1.282,5.7C64.74,54.46,64.2,48.452,59.947,49.7Z" transform="translate(-57.776 -49.53)" fill="#fefefd" fill-rule="evenodd"/>
          </g>
          <g id="Group_594" data-name="Group 594" transform="translate(76.185 140.27)">
            <path id="Path_1575" data-name="Path 1575" d="M65.739,124.562c0,.878-.27.3-.27,1.181,0,.844.27.371.27,1.181A7,7,0,0,0,70.093,128c4.354-.541,3.815-3.781.135-4.321a8.619,8.619,0,0,0-4.523.878Z" transform="translate(-65.469 -123.631)" fill="#fefefd" fill-rule="evenodd"/>
          </g>
          <g id="Group_595" data-name="Group 595" transform="translate(45.305 127.351)">
            <path id="Path_1576" data-name="Path 1576" d="M40.319,132.176c1.419.607.709-2.195.709-3.545a22.2,22.2,0,0,1,1.823-8.709c1.688-3.984,3.95-5.5,3.815-7.055-1.282-.169-2.4,1.957-3.1,3.038-2.8,4.287-4.929,13.232-3.241,16.3Z" transform="translate(-39.719 -112.858)" fill-rule="evenodd"/>
          </g>
          <g id="Group_596" data-name="Group 596" transform="translate(15.852 88.742)">
            <path id="Path_1577" data-name="Path 1577" d="M15.2,94.032c1.283.236.979-.474,2.667-3.039a67.06,67.06,0,0,1,6.751-8.3c.573-.472,1.282-.709,1.282-1.722-.709-.642-.843-.169-1.687.472C22.393,82.926,14.494,91.871,15.2,94.032Z" transform="translate(-15.158 -80.662)" fill-rule="evenodd"/>
          </g>
          <g id="Group_597" data-name="Group 597" transform="translate(15.585 85.616)">
            <path id="Path_1578" data-name="Path 1578" d="M14.977,90.162c1.417.3.709.135,2.531-2.8a18.138,18.138,0,0,1,2.4-3.038A7.317,7.317,0,0,1,21.02,82.9a26.65,26.65,0,0,1,2.531-2.835c.709-.777,1.114-.541,1.553-1.35-.71-1.114-.98-.878-3.241,1.114A39.3,39.3,0,0,0,16.8,86.111c-.709,1.013-2.126,2.734-1.823,4.017Z" transform="translate(-14.935 -78.056)" fill-rule="evenodd"/>
          </g>
          <g id="Group_598" data-name="Group 598" transform="translate(123.24 52.287)">
            <path id="Path_1579" data-name="Path 1579" d="M104.708,60.052c10.126-3.443,6.886-9.147,4.927-9.789C108.657,58.5,109.366,54.01,104.708,60.052Z" transform="translate(-104.708 -50.263)" fill="#aaabaf" fill-rule="evenodd"/>
          </g>
          <g id="Group_599" data-name="Group 599" transform="translate(42.893 126.425)">
            <path id="Path_1580" data-name="Path 1580" d="M37.749,123.62c1.283.068.98.236,1.283-1.012A24.5,24.5,0,0,1,42,115.08c.573-.945,1.553-1.958,1.417-2.9-.979-.236-.979-.135-2.262,1.823-1.114,1.89-3.949,7.595-3.376,9.62Z" transform="translate(-37.707 -112.086)" fill-rule="evenodd"/>
          </g>
          <g id="Group_600" data-name="Group 600" transform="translate(132.523 160.952)">
            <path id="Path_1581" data-name="Path 1581" d="M113.428,145.092l-.979.541v.945c1.114,0,8.878-3.376,10.7-4.456,1.417-.844.439-1.654-.98-1.012a11.392,11.392,0,0,0-1.282.64l-7.46,3.309Z" transform="translate(-112.449 -140.878)" fill-rule="evenodd"/>
          </g>
          <g id="Group_601" data-name="Group 601" transform="translate(49.822 129.798)">
            <path id="Path_1582" data-name="Path 1582" d="M43.519,124.006c0,1.485-.271,3.038,1.114,2.666.27-.54.134-.54.134-1.485a11.788,11.788,0,0,1,1.688-7.224l1.552-2.262c.439-2.734-4.522,1.89-4.522,8.3Z" transform="translate(-43.485 -114.899)" fill-rule="evenodd"/>
          </g>
          <g id="Group_602" data-name="Group 602" transform="translate(19.538 94.698)">
            <path id="Path_1583" data-name="Path 1583" d="M18.269,93.413c1.688.236,1.114-.642,3.511-3.612l1.553-1.89c.573-.642,1.282-1.317,1.114-2.262-1.283,0-.574-.169-1.283.472-1.553,1.486-5.063,5.738-4.929,7.291Z" transform="translate(-18.232 -85.629)" fill-rule="evenodd"/>
          </g>
          <g id="Group_603" data-name="Group 603" transform="translate(100.117 91.667)">
            <path id="Path_1584" data-name="Path 1584" d="M85.426,84.06c0,1.89.979,2.6,2.97,2.329l.709-.878c.135-1.957-.844-2.667-2.8-2.329l-.844.878Z" transform="translate(-85.426 -83.101)" fill="#fefefd" fill-rule="evenodd"/>
          </g>
          <g id="Group_604" data-name="Group 604" transform="translate(41.02 124.727)">
            <path id="Path_1585" data-name="Path 1585" d="M37.217,117.252A11.533,11.533,0,0,1,38.9,113.64c.844-1.181,2.262-1.654,1.958-2.97H39.579l-.979,1.417c-.98,1.182-2.8,3.68-2.4,5.1l.979.067Z" transform="translate(-36.146 -110.67)" fill-rule="evenodd"/>
          </g>
          <g id="Group_605" data-name="Group 605" transform="translate(96.514 87.414)">
            <path id="Path_1586" data-name="Path 1586" d="M86.024,80.682c-.574-.608-1.114-1.317-2.262-1.08a1.654,1.654,0,0,0-1.283,2.059c.439,1.553,3.68,2.329,3.511-1.012Z" transform="translate(-82.421 -79.555)" fill="#fefefd" fill-rule="evenodd"/>
          </g>
          <g id="Group_606" data-name="Group 606" transform="translate(92.233 91.118)">
            <path id="Path_1587" data-name="Path 1587" d="M81.976,85.636c.439-1.181.27-2.43-.979-2.835-1.688-.608-2.262.642-2.127,2.126C79.984,86.177,80.153,86.244,81.976,85.636Z" transform="translate(-78.851 -82.644)" fill="#fefefd" fill-rule="evenodd"/>
          </g>
          <g id="Group_607" data-name="Group 607" transform="translate(125.611 87.832)">
            <path id="Path_1588" data-name="Path 1588" d="M107.115,83.414c1.114.236,1.958.405,2.4-.945A2.028,2.028,0,0,0,107.96,79.9C106.137,80.849,106.676,81.794,107.115,83.414Z" transform="translate(-106.685 -79.904)" fill="#fefefd" fill-rule="evenodd"/>
          </g>
          <g id="Group_608" data-name="Group 608" transform="translate(120.258 91.883)">
            <path id="Path_1589" data-name="Path 1589" d="M104.629,86.589c.27-.945.574-1.485,0-2.565,0-.067-.134-.067-.134-.136l-.271-.54-1.282-.067c-1.114,1.316-.98,3.038.709,3.679l.979-.405Z" transform="translate(-102.221 -83.282)" fill="#fefefd" fill-rule="evenodd"/>
          </g>
          <g id="Group_609" data-name="Group 609" transform="translate(86.097 72.89)">
            <path id="Path_1590" data-name="Path 1590" d="M77.358,68.58c.27-.473.439-1.08-.439-1.114-.709-.136-.843.372-1.282.844A7.516,7.516,0,0,0,73.814,70.5c-.271.844.134,2.33,1.552.169.71-1.012,1.419-1.248,1.958-2.059Z" transform="translate(-73.735 -67.443)" fill="#fefefd" fill-rule="evenodd"/>
          </g>
          <g id="Group_610" data-name="Group 610" transform="translate(127.781 93.064)">
            <path id="Path_1591" data-name="Path 1591" d="M110.7,87.643c0-.608.271-.71.271-1.419-.136-.877-.439-.709-.271-1.485l-1.113-.473C107.633,85.684,108.477,88.588,110.7,87.643Z" transform="translate(-108.494 -84.267)" fill="#fefefd" fill-rule="evenodd"/>
          </g>
          <g id="Group_611" data-name="Group 611" transform="translate(25.292 98.847)">
            <path id="Path_1592" data-name="Path 1592" d="M23.221,93.332c1.283.067,3.106-3.038,2.97-4.22-1.687,0-.573-.371-2.126,1.891C23.492,91.846,22.648,92.42,23.221,93.332Z" transform="translate(-23.03 -89.089)" fill-rule="evenodd"/>
          </g>
          <g id="Group_612" data-name="Group 612" transform="translate(23.599 96.898)">
            <path id="Path_1593" data-name="Path 1593" d="M21.95,91.495c1.113.136,2.531-3.038,2.4-3.746-.134,0-.27-.777-1.283.236-.134.3-.438.844-.573,1.248-.574.946-1.283,1.419-.574,2.262Z" transform="translate(-21.618 -87.464)" fill-rule="evenodd"/>
          </g>
          <g id="Group_613" data-name="Group 613" transform="translate(39.472 122.174)">
            <path id="Path_1594" data-name="Path 1594" d="M34.941,112.344c1.419,0,.98-.472,1.553-1.486a3.807,3.807,0,0,1,.709-.945c.844-1.25-.27-2.329-1.687,0A3.138,3.138,0,0,0,34.941,112.344Z" transform="translate(-34.855 -108.542)" fill-rule="evenodd"/>
          </g>
        </g>
        <g id="Group_617" data-name="Group 617" transform="translate(319.736 75.589)">
          <g id="Group_614" data-name="Group 614">
            <path id="Path_1595" data-name="Path 1595" d="M269.569,71.549h21.257v5.266a17.465,17.465,0,0,1,13.9-6.121c6.5,0,11.719,2.278,15.657,6.786s5.931,10.913,5.931,19.169c0,8.3-1.992,14.709-5.931,19.263a19.515,19.515,0,0,1-15.515,6.833c-5.883,0-10.533-1.992-14-6.026V128.2h5.74v11.481h-27V128.2h5.742V83.031h-5.742Zm21.209,31.173a9.888,9.888,0,0,0,3.511,4.983,9.323,9.323,0,0,0,5.647,1.8,9.471,9.471,0,0,0,7.5-3.274c1.9-2.183,2.847-5.266,2.847-9.205s-.948-7.021-2.847-9.2a9.472,9.472,0,0,0-7.5-3.275,9.368,9.368,0,0,0-5.742,1.756,9.129,9.129,0,0,0-3.369,5.172Z" transform="translate(-268.365 -69.495)"/>
            <path id="Path_1596" data-name="Path 1596" d="M298.012,141.082h-29.4V127.2h5.742V84.43h-5.737l-.056-13.881h23.66v3.572a18.907,18.907,0,0,1,12.7-4.427c6.816,0,12.389,2.421,16.56,7.2,4.132,4.73,6.228,11.444,6.228,19.959s-2.094,15.273-6.223,20.048a20.753,20.753,0,0,1-16.423,7.247,19.177,19.177,0,0,1-12.8-4.342v7.4h5.74Zm-27-2.4h24.6V129.6h-5.741V113.682l2.109,2.456c3.24,3.773,7.521,5.607,13.087,5.607,6.1,0,10.876-2.1,14.607-6.418s5.64-10.543,5.64-18.478c0-7.918-1.9-14.1-5.635-18.38-3.7-4.231-8.659-6.376-14.754-6.376a16.366,16.366,0,0,0-12.993,5.7l-2.108,2.45v-7.3H270.973l.037,9.084h5.746V129.6h-5.742Zm29.121-27.778a10.5,10.5,0,0,1-6.358-2.036,11.07,11.07,0,0,1-3.937-5.568l-.064-.187.091-11.751a10.342,10.342,0,0,1,3.815-5.826,10.5,10.5,0,0,1,6.453-1.988,10.643,10.643,0,0,1,8.4,3.686c2.085,2.4,3.142,5.759,3.142,9.992s-1.056,7.594-3.142,9.992A10.639,10.639,0,0,1,300.136,110.905Zm-7.958-8.182a8.664,8.664,0,0,0,3.021,4.214,8.152,8.152,0,0,0,4.937,1.57,8.236,8.236,0,0,0,6.591-2.861c1.695-1.948,2.553-4.78,2.553-8.418s-.859-6.47-2.553-8.417a9.037,9.037,0,0,0-11.623-1.34,7.84,7.84,0,0,0-2.88,4.371Z" transform="translate(-268.565 -69.694)" fill="#e8002c"/>
          </g>
          <g id="Group_615" data-name="Group 615" transform="translate(61.106)">
            <path id="Path_1597" data-name="Path 1597" d="M320.57,96.7c0-8.208,1.992-14.613,5.93-19.169a19.52,19.52,0,0,1,15.515-6.833c5.885,0,10.534,1.994,13.9,5.931V71.549h15.515v38.765h5.742v11.577H355.917v-4.84c-3.511,3.843-8.162,5.742-14,5.694a19.482,19.482,0,0,1-15.467-6.833c-3.938-4.553-5.932-10.959-5.932-19.263Zm15.941.332c0,3.939.949,7.022,2.847,9.205a9.985,9.985,0,0,0,13.048,1.518,9.909,9.909,0,0,0,3.511-4.839V91.24c-1.566-4.46-4.6-6.69-9.158-6.69a9.344,9.344,0,0,0-7.4,3.275c-1.9,2.183-2.847,5.218-2.847,9.156Z" transform="translate(-319.322 -69.495)"/>
            <path id="Path_1598" data-name="Path 1598" d="M342.332,124.145c-6.833.006-12.385-2.388-16.587-7.248-4.129-4.776-6.224-11.522-6.224-20.048V94l.127.124c.415-7.17,2.475-12.942,6.143-17.184a20.755,20.755,0,0,1,16.423-7.248,19.1,19.1,0,0,1,12.7,4.252v-3.4h17.914v38.765h5.742V123.29H354.918v-3.267A19.466,19.466,0,0,1,342.332,124.145ZM321.969,98.991c.315,6.918,2.193,12.406,5.592,16.335,3.723,4.309,8.727,6.419,14.77,6.419,5.423,0,9.642-1.738,12.9-5.305l2.084-2.281v6.731h18.859v-9.179h-5.742V72.947H357.316v7.123L355.205,77.6c-3.129-3.656-7.5-5.511-12.991-5.511-6.1,0-10.874,2.1-14.607,6.418s-5.639,10.513-5.639,18.385Zm24.99,11.914a10.536,10.536,0,0,1-8.306-3.686c-2.085-2.4-3.142-5.757-3.142-9.992v-.048c0-4.2,1.056-7.546,3.142-9.944a10.538,10.538,0,0,1,8.306-3.686c5.083,0,8.544,2.521,10.289,7.493l.068.193v12.081l-.067.191a11.109,11.109,0,0,1-3.932,5.41A10.486,10.486,0,0,1,346.959,110.905Zm0-24.958a8.129,8.129,0,0,0-6.5,2.862c-1.717,1.975-2.553,4.713-2.553,8.369v.048c0,3.638.859,6.471,2.553,8.418a8.788,8.788,0,0,0,11.433,1.338,8.709,8.709,0,0,0,3.022-4.081V91.648C353.51,87.813,350.9,85.948,346.959,85.948Z" transform="translate(-319.521 -69.694)" fill="#e8002c"/>
          </g>
          <g id="Group_616" data-name="Group 616" transform="translate(116.943 0.855)">
            <path id="Path_1599" data-name="Path 1599" d="M367.083,82.889V71.407h26.9V82.889h-4.46l8.066,25.242,8.161-25.242H401.2V71.407h26.808V82.889h-7.023l-14.947,42.275a25.358,25.358,0,0,1-6.4,10.724c-2.705,2.515-6.406,3.747-11.15,3.747a40.5,40.5,0,0,1-12.432-2.135l2.42-11.862a24.337,24.337,0,0,0,8.161,1.756,6.327,6.327,0,0,0,5.978-3.89l.523-1.756h-5.267l-13.807-38.86Z" transform="translate(-365.884 -70.208)"/>
            <path id="Path_1600" data-name="Path 1600" d="M388.682,141.035a41.954,41.954,0,0,1-12.8-2.192l-1.023-.331,2.915-14.28,1.309.481a23.334,23.334,0,0,0,7.747,1.682,5.094,5.094,0,0,0,4.852-3.11l.041-.138h-4.505L373.41,84.288h-7.327V70.407h29.3V84.288h-4.017l6.431,20.125L404.3,84.288H400.2V70.407H429.4V84.288H422.03l-14.664,41.475a26.629,26.629,0,0,1-6.719,11.2C397.743,139.665,393.717,141.035,388.682,141.035Zm-11.041-4.158a38.677,38.677,0,0,0,11.041,1.759c4.472,0,7.852-1.121,10.333-3.427a24.319,24.319,0,0,0,6.085-10.228l15.235-43.092h6.671V72.805H402.6v9.084h5l-9.814,30.36-9.7-30.36h4.9V72.805h-24.5v9.084H375.1l13.807,38.86h6.028l-1.034,3.439a7.482,7.482,0,0,1-7.017,4.6h-.008a23.762,23.762,0,0,1-7.31-1.37Z" transform="translate(-366.083 -70.407)" fill="#e8002c"/>
          </g>
        </g>
      </g>
    </g>
  </g>
</svg>
