<?xml version="1.0" encoding="UTF-8"?>
<!DOCTYPE svg PUBLIC "-//W3C//DTD SVG 1.1//EN" "http://www.w3.org/Graphics/SVG/1.1/DTD/svg11.dtd">
<!-- Creator: CorelDRAW 2017 -->
<svg xmlns="http://www.w3.org/2000/svg" xml:space="preserve" width="146.8mm" height="57.8373mm" version="1.1" style="shape-rendering:geometricPrecision; text-rendering:geometricPrecision; image-rendering:optimizeQuality; fill-rule:evenodd; clip-rule:evenodd"
viewBox="0 0 13578 5349"
 xmlns:xlink="http://www.w3.org/1999/xlink">
 <defs>
  <style type="text/css">
   <![CDATA[
    .fil0 {fill:black}
    .fil6 {fill:#A8A9AD}
    .fil3 {fill:#A9AAAE}
    .fil7 {fill:#AAABAF}
    .fil5 {fill:#BDBEC1}
    .fil2 {fill:#E7002C}
    .fil1 {fill:#E8002C}
    .fil4 {fill:#FEFEFD}
   ]]>
  </style>
 </defs>
 <g id="Livello_x0020_1">
  <metadata id="CorelCorpID_0Corel-Layer"/>
  <g id="_2571180745264">
   <path class="fil0" d="M6922 4623c67,9 146,16 213,33 234,63 409,63 651,-5 238,-67 296,-142 367,-383 25,-79 58,-112 150,-81 13,9 21,54 25,69 54,228 150,671 -67,817 -79,53 -200,70 -313,49 -113,-21 -384,-156 -530,-214 -146,-58 -259,-90 -388,-167 -33,-21 -83,-56 -117,-70l8 -47zm2178 -1936c117,-30 225,16 284,76 63,65 92,153 104,272 8,109 -8,248 -50,327 -8,16 -29,49 -38,60 -50,49 -92,86 -167,104 -221,47 -367,-128 -392,-353 -17,-207 38,-425 259,-485zm-3146 650c29,42 -8,33 92,70 46,14 79,23 129,30 79,12 75,-7 104,-62 21,-39 42,-56 67,-91 117,-149 179,-248 426,-230 209,16 355,47 522,134 163,84 313,216 409,251 0,-53 4,-69 -25,-102 -54,-60 -163,-128 -192,-160 109,-11 209,-30 325,-18 217,21 501,98 659,230 46,37 50,39 88,88 100,125 79,355 -25,469 -8,9 -33,35 -42,40 -154,118 -388,91 -605,61 -313,-44 -526,-135 -747,-315 -83,-69 -338,-232 -438,-272 -46,-19 -100,-32 -154,-21 -150,26 -92,137 -371,155 -129,9 -204,-11 -255,-88 0,-14 29,-165 33,-170zm-1819 -583l-38 153c-4,21 -8,60 -8,79l-8 91c-4,69 8,199 13,271 4,28 13,58 17,86l21 93c-88,-5 -129,-26 -142,-114 -8,-60 -4,-648 -4,-740l188 0 -38 81zm3288 67c-8,-105 25,-144 67,-195 46,-53 58,-97 96,-155 125,-183 271,153 284,-83 4,-44 0,-84 -8,-125 -8,-93 -104,-90 -238,-130 142,-35 325,-23 434,49 309,204 138,926 -351,872 -150,-18 -267,-83 -284,-234zm150 -768c54,-32 175,-51 246,-72 238,-65 584,-162 705,88 79,156 33,387 -25,534 -50,116 -108,202 -175,299 -33,40 -33,46 -96,54 0,-42 29,-128 38,-172 17,-61 25,-114 29,-179 25,-543 -284,-513 -722,-552zm-1381 -162c42,-30 117,-116 159,-134 38,9 129,67 150,88 8,79 -75,137 -159,137 -79,0 -129,-35 -150,-91zm1164 -58c0,-2 4,-4 4,-5 42,-39 58,-65 92,-76 75,-21 104,-32 179,-28 -17,195 -134,162 -275,109zm338 5c138,-179 117,-46 146,-290 58,19 154,188 -146,290zm-1602 -311c125,-37 142,141 38,169 -113,32 -142,-139 -38,-169zm-576 1237c21,-23 38,-44 75,-46 50,40 75,195 88,267l38 237c4,44 4,44 38,60 -4,-100 -33,-227 25,-300 46,2 71,47 96,90 75,132 50,318 8,455 8,21 -4,11 54,37 21,9 46,19 67,32 179,90 284,88 430,-7 100,-61 192,-56 288,0 92,56 263,211 367,292 83,63 225,118 321,160 209,86 392,97 613,153 46,221 -88,299 -292,364 -184,60 -438,37 -643,37l104 -239c-63,44 -83,91 -209,130 -263,77 -597,-79 -860,-141 -4,-118 -75,-304 -108,-411 -21,-60 -121,-364 -142,-390l-21 63c-8,33 21,72 38,102 54,91 100,228 125,334 29,109 88,443 17,520 -58,65 -142,65 -246,56 -117,-12 -138,-42 -217,-88 -121,-76 -263,141 -476,-37 -58,-46 -117,-90 -171,-137 -255,-225 -100,-413 -351,-566 -125,-74 -188,-251 -221,-392 -54,-206 -50,-320 13,-517 100,-297 292,-506 488,-738 167,-193 125,-269 209,-402 42,-65 75,-116 113,-193 117,-248 371,-348 568,-155 17,14 25,21 42,37 13,14 25,26 38,40 88,105 338,518 421,648 50,79 217,299 275,330 -54,-76 -75,-91 -129,-185 -29,-49 -83,-156 -92,-225 284,-25 275,-102 371,-148 29,14 17,18 42,33 -46,70 -29,74 -117,107 -25,11 -54,19 -83,30 -13,4 -25,9 -42,14l-33 19c29,21 50,14 100,12l0 70c46,-14 138,-121 171,-160 142,-163 355,-255 559,-130 21,14 75,51 83,72 -88,4 -271,42 -346,86 -25,16 -4,5 -17,16 75,-7 447,-42 505,-25 42,11 75,49 79,88 -92,9 -655,32 -722,58 -96,35 42,192 75,216 104,86 117,-23 213,-12 50,26 75,100 108,149 21,35 29,51 63,70 100,61 121,123 83,262 -58,186 -467,135 -597,97 -67,-21 -121,-44 -179,-76 -79,-42 -104,-72 -150,-100 0,23 0,42 0,63 -4,30 0,39 -13,54 4,69 -29,139 -50,185 -63,-30 -142,-244 -171,-315 -13,-30 -29,-84 -46,-109 -33,67 -83,218 -171,221 -46,-67 -67,-188 -79,-286 -8,-72 -21,-290 -33,-334 -33,4 -25,-4 -29,35 -4,81 -33,283 -88,323 -108,-88 -113,-265 -71,-425 21,-81 83,-220 125,-290 21,-28 38,-56 50,-84 0,-91 -230,-439 -467,-329 -54,23 -129,83 -138,132 38,-26 100,-46 154,-58 -13,104 -163,155 -163,480 0,98 71,545 67,559 8,-90 -17,-234 -25,-325 -17,-183 -13,-466 117,-599 83,-83 150,-144 217,-47 -25,30 -54,53 -88,93 -179,220 -142,631 -88,894 8,30 21,112 42,135zm380 -1302c-21,-11 -13,-11 -33,-28 -8,-11 -21,-18 -25,-28 -46,-69 108,-142 179,-151 79,-11 129,16 175,53 46,37 79,72 117,111 29,33 13,4 54,63 150,202 188,272 484,311 -184,32 -267,42 -421,-72 -38,-28 -104,-100 -134,-137 -17,-18 -29,-30 -46,-47 -42,-53 -129,-155 -204,-158 -58,-2 -104,9 -134,39 0,33 21,28 -13,46zm-430 -647c109,-132 505,-257 743,-193 150,40 196,127 275,204 63,60 138,111 200,163 25,23 38,37 67,47l-204 -293c-21,-28 -50,-69 -71,-93 92,-2 225,79 271,121 104,90 108,109 184,206 146,185 313,176 451,336 117,139 213,5 300,83 42,40 25,102 4,151 -21,47 -63,69 -100,95 -250,177 -159,-244 -405,-290 79,76 184,160 121,336 -63,186 -138,118 -209,111l-88 -7c-21,-5 -8,-4 -17,-11 21,-28 63,-134 75,-174 21,-77 -13,-144 -54,-179 -4,111 8,174 -83,218 -75,35 -171,28 -242,-5 -300,-148 -351,-606 -618,-571 -117,16 -213,93 -271,181 -21,32 -29,63 -50,97 -92,-33 -179,-209 -451,-19 -58,39 -108,102 -138,181 -67,162 -33,81 -113,209 -146,248 -21,141 -230,411 -29,40 -246,334 -275,357 -58,-174 -25,-371 54,-536 46,-93 63,-90 83,-125 -46,-188 75,-394 134,-367 42,39 42,49 117,33 54,-11 83,-18 121,-47 38,-32 46,-49 71,-95 17,-26 46,-81 54,-109l-13 11c-54,65 -92,114 -192,155 -255,102 -330,-90 -292,-179 46,-102 280,-61 355,-188 -42,-19 -88,93 -213,84 21,-83 50,-195 75,-278 29,-84 79,-169 188,-158l0 51c33,-25 54,-86 142,-98 163,-23 171,158 234,227 42,42 79,67 159,72 -25,-116 -125,5 -150,-121zm2162 230c8,54 0,174 -21,227 -29,65 -104,102 -167,47 -21,-16 -50,-46 -67,-67l-338 -316c-21,-18 -50,-40 -71,-60 -29,-23 -50,-35 -79,-56l-305 -211c4,-30 13,-28 29,-47 46,-44 67,-58 125,-93 58,-33 134,-67 200,-90 146,-51 292,-90 447,-134 79,-21 150,-56 242,-49 150,12 267,119 325,251 17,40 63,183 42,225 -13,28 -33,25 -58,53 8,12 17,21 29,39 38,7 142,-16 196,-16 75,0 121,11 167,47 108,95 17,202 -67,253 -88,54 -188,102 -317,105 -92,2 -175,-21 -246,-69 -21,-12 -46,-32 -67,-40zm-3334 1286c0,104 46,144 -38,213l0 -132 -271 -2 0 -525 -300 213c-121,90 -92,19 -96,315l-179 0 0 260 184 2c0,153 0,306 0,459 0,288 -63,622 242,676 188,33 284,-23 401,-44 13,12 33,47 38,63l83 105c58,61 92,79 129,186 25,90 17,83 75,174 71,104 154,183 246,262 113,97 284,186 430,197 146,11 46,-28 225,32 33,12 67,21 96,30 67,18 138,35 209,42 33,5 188,-11 225,-21l184 -74c63,-25 125,-39 192,-61 75,-26 113,-16 171,44 92,91 346,207 484,276 58,30 100,58 167,84 17,7 25,12 42,19l134 56c288,118 722,242 1035,116 46,-18 42,-19 71,-56 54,-72 113,-142 134,-241 71,-302 -138,-539 -17,-636 29,-25 54,-25 83,-40 79,-42 142,-121 171,-206 29,-65 38,-134 42,-220 0,-118 0,-214 -33,-318 13,11 46,47 63,65 58,58 142,118 230,148 138,46 309,28 421,-32 213,-114 334,-350 330,-676 -4,-274 -108,-541 -355,-659 -167,-83 -384,-65 -534,51 -75,58 -134,146 -159,160l0 -863c-83,0 -230,9 -305,0 -21,-4 -71,-35 -104,-46l-92 -19c-8,-2 -13,-2 -21,-4l-8 -5c-38,0 -42,-7 -75,-7 -29,-2 -63,2 -88,0 -250,-28 -100,-265 -142,-348 38,-25 50,-25 92,-42 125,-51 154,-53 280,-135 104,-69 209,-200 150,-376 -67,-199 -138,-181 -300,-253 -29,-16 -58,-32 -71,-69 -25,-72 63,-336 -230,-443 -109,-39 -255,-30 -376,-9 -146,25 -175,42 -355,67 -154,19 -317,61 -426,128 -29,19 -54,39 -83,56l-192 86c-100,37 -92,-11 -242,14 -25,4 -46,0 -71,0 -113,5 -296,49 -409,79 -125,33 -200,70 -309,107 -96,33 -75,49 -150,4 -83,-49 -163,-84 -267,-84 -79,0 -154,14 -221,56 -54,37 -108,76 -138,141 -29,79 -54,209 -83,255 -17,19 -17,19 -42,30 -108,56 -163,313 -104,406 33,51 50,83 8,153 -25,42 -38,112 -42,163 -8,65 21,67 -13,116 -17,30 -38,53 -54,83 -46,81 -79,169 -83,267 0,32 -4,30 -4,63 0,33 4,32 4,61 4,40 -4,32 13,63z"/>
   <path class="fil1" d="M9964 2413l605 0c13,60 0,733 4,859 0,156 29,237 192,235 113,0 284,-90 292,-132l0 -703 -225 0 0 -260 618 0 0 1121 238 2 -4 262 -626 -4 0 -149c-33,16 -58,35 -92,56 -92,60 -175,98 -296,114 -184,21 -325,-33 -409,-137 -92,-114 -79,-286 -79,-462 0,-181 0,-360 0,-543l-217 -4 0 -257zm1803 -640l618 0 0 1762 209 0 0 262 -826 -2 0 -260 230 0 0 -1501 -230 -2 0 -260zm906 0l622 0 0 1761 209 2 0 262 -830 0 0 -262 230 -2 0 -1499 -230 0 0 -262zm-3789 2124c21,-32 0,-9 38,-28l0 -111c25,12 25,14 42,28 67,47 192,98 275,104l67 7c29,2 38,-5 71,-7 263,-7 488,-237 555,-488 33,-125 29,-139 38,-264 0,-35 8,-26 0,-65 -4,-26 0,-46 0,-74 -4,-65 -33,-207 -58,-250l196 0c0,176 0,351 0,529 0,213 0,315 92,443 58,77 150,132 242,155 134,35 325,14 447,-46 29,-14 67,-37 96,-44 0,98 -21,90 75,90l2520 0 0 -416 -209 0 0 -1761 -772 0 0 409 230 0 0 1351 -363 0 0 -1761 -780 0c0,107 0,213 0,320 0,93 -17,91 71,90 54,0 108,0 159,0l0 1351 -388 0 0 -1065c0,-84 29,-63 -292,-63 -159,0 -317,0 -472,0l0 418 221 0 0 597c-67,44 -129,88 -242,84 -63,-2 -75,-21 -88,-76 -8,-51 -4,-829 -4,-975 0,-40 8,-49 -33,-49l-572 0c-33,0 -146,-14 -159,11 -4,9 0,293 0,330 -29,-33 -29,-79 -159,-211 -188,-186 -534,-223 -747,-61 -21,14 -38,32 -58,44l0 -745 -605 0 8 5c8,2 13,2 21,4l92 19c33,11 83,42 104,46 75,9 221,0 305,0l0 863c25,-14 83,-102 159,-160 150,-116 367,-134 534,-51 246,118 351,385 355,659 4,327 -117,562 -330,676 -113,60 -284,77 -421,32 -88,-30 -171,-90 -230,-148 -17,-18 -50,-54 -63,-65 33,104 33,200 33,318z"/>
   <path class="fil0" d="M980 2687c117,-30 225,14 284,74 213,216 121,889 -313,754 -142,-44 -209,-195 -225,-339 -21,-204 33,-431 255,-488zm-897 -652l255 0 0 1499 -255 2 0 262 647 0 0 -218c29,19 54,56 88,83 13,12 29,30 42,40 17,12 38,25 54,35 196,125 476,100 634,-44 179,-167 225,-376 225,-624 0,-307 -150,-548 -359,-647 -117,-56 -288,-67 -413,-14 -71,28 -109,62 -154,100l-117 125 0 -861 -647 0 0 262z"/>
   <path class="fil1" d="M5954 3337c-4,5 -33,156 -33,170 50,77 125,97 255,88 280,-18 221,-128 371,-155 54,-11 108,2 154,21 100,40 355,204 438,272 221,179 434,271 747,315 217,30 451,56 605,-61 8,-5 33,-32 42,-40 104,-114 125,-344 25,-469 -38,-49 -42,-51 -88,-88 -159,-132 -442,-209 -659,-230 -117,-12 -217,7 -325,18 29,32 138,100 192,160 29,33 25,49 25,102 -96,-35 -246,-167 -409,-251 -167,-86 -313,-118 -522,-134 -246,-18 -309,81 -426,230 -25,35 -46,53 -67,91 -29,54 -25,74 -104,62 -50,-7 -83,-16 -129,-30 -100,-37 -63,-28 -92,-70z"/>
   <path class="fil2" d="M3358 3527c-38,72 -83,100 -125,137 -17,16 -29,25 -46,37 -242,176 -701,170 -956,14 -71,-46 -125,-95 -175,-163 -142,-188 -167,-462 -92,-684 54,-163 163,-290 300,-381 225,-142 555,-158 801,-9 75,47 125,93 179,162 17,21 21,28 38,53 83,139 113,306 117,471l-1089 2c17,118 4,174 67,271 92,139 300,204 484,141 71,-25 167,-93 200,-141l296 91zm-3276 -1754l647 0 0 861 117 -125c46,-39 83,-72 154,-100 125,-53 296,-42 413,14 209,98 359,339 359,647 0,248 -46,457 -225,624 -159,144 -438,169 -634,44 -17,-11 -38,-23 -54,-35 -13,-11 -29,-28 -42,-40 -33,-26 -58,-63 -88,-83l0 218 -647 0 0 -262 255 -2 0 -1499 -255 0 0 -262zm4190 2056c-4,-16 -25,-51 -38,-63 -117,21 -213,77 -401,44 -305,-54 -242,-388 -242,-676 0,-153 0,-306 0,-459l-184 -2 0 -260 179 0c4,-295 -25,-225 96,-315l300 -213 0 525 271 2 0 132c83,-69 38,-109 38,-213l-234 0 0 -590c-25,7 -46,26 -67,42l-405 292c-25,16 -46,32 -71,47l0 209c-38,0 -79,0 -117,0 -92,0 -71,-42 -71,286l-71 -83c-88,-86 -171,-149 -288,-190 -246,-88 -609,-51 -810,119 -8,9 -13,14 -21,21 -54,44 -92,86 -134,142 -79,104 -150,285 -150,413l-8 0c0,-128 -38,-283 -96,-385 -13,-26 -25,-53 -42,-76 -125,-177 -321,-302 -568,-285 -83,7 -163,32 -230,70 -13,9 -25,12 -38,23l-71 54 0 -745 -801 0c0,473 -29,411 92,409 54,0 109,0 167,0l0 1351c-67,0 -129,0 -196,0 -75,-2 -63,-23 -63,139 0,65 0,130 0,195 0,98 -17,83 117,83l601 0c100,0 83,19 83,-118 42,11 121,116 338,132 29,2 21,7 50,7 29,0 25,-5 54,-7 46,-2 67,-5 104,-16 83,-21 154,-54 221,-107 71,-60 134,-125 179,-211 46,-97 96,-237 96,-383l8 0c0,153 50,307 134,420 204,264 522,344 851,306 225,-28 338,-86 488,-213 33,-30 138,-160 146,-200l-430 -139c-29,42 -104,102 -150,128 -88,46 -121,58 -225,46 -100,-11 -213,-81 -250,-169 -8,-19 -13,-35 -17,-53 -4,-21 -4,-46 -13,-63l1085 0c0,-105 0,-172 -17,-264 -21,-137 -46,-162 -58,-223l117 0 0 736c0,132 46,271 154,341 159,104 467,72 601,2z"/>
   <path class="fil0" d="M9964 2670l217 4c0,183 0,362 0,543 0,176 -13,348 79,462 83,104 225,158 409,137 121,-16 204,-54 296,-114 33,-21 58,-40 92,-56l0 149 626 4 4 -262 -238 -2 0 -1121 -618 0 0 260 225 0 0 703c-8,42 -179,132 -292,132 -163,2 -192,-79 -192,-235 -4,-127 8,-799 -4,-859l-605 0 0 257z"/>
   <path class="fil3" d="M5708 1169c25,-204 204,-425 438,-355 104,32 134,70 196,121l150 156c21,26 54,91 67,135l-38 25c-29,-23 -92,-114 -159,-179 -330,-307 -542,11 -655,97zm-200 -325c38,16 67,-2 104,26 29,25 38,47 42,97 -242,-4 -246,-149 -305,-237 -42,-61 -104,-91 -188,-35 -25,19 -42,44 -58,72 -17,37 -17,76 -58,74l8 -127c-71,9 -113,81 -134,149 -17,65 -50,165 -58,227 71,-18 188,-156 209,-37 -38,35 -79,76 -142,95 -42,14 -163,39 -188,54 -83,42 -54,262 196,183 104,-35 213,-130 242,-237 21,-76 -4,-146 13,-230 8,-35 17,-63 25,-95 42,-148 96,-83 138,12 17,33 50,109 54,148l-17 18c-92,-14 -96,70 -134,144 -29,61 -67,141 -100,199 -67,114 -104,167 -255,183 -75,7 -75,-23 -113,-40 -33,40 -63,88 -83,153 -25,88 -8,119 4,200 -75,86 -92,93 -138,244 -13,47 -25,104 -29,155l8 183c25,-19 267,-341 305,-392 100,-134 46,-149 184,-357 117,-174 88,-265 246,-374 255,-176 351,-39 442,5 50,-65 25,-76 129,-170 109,-104 313,-139 417,-9l129 174c83,127 154,241 288,311 67,35 171,46 242,0 67,-46 38,-160 46,-250 38,18 113,102 121,174 8,70 -42,174 -67,227 25,11 63,9 96,14 33,7 58,25 83,5 54,-39 121,-202 25,-329 -25,-32 -88,-88 -129,-104 4,-18 13,-30 21,-42 108,30 163,47 217,128 50,81 54,172 129,223 46,-2 104,-47 134,-70 46,-32 75,-79 67,-151 -63,-63 -104,-19 -188,-25 -79,-7 -109,-56 -146,-91 -179,-176 -204,-91 -409,-290 -67,-65 -184,-283 -376,-327 13,30 42,65 63,93l192 274c-104,5 -150,-54 -242,-128l-129 -114c-25,-23 -38,-44 -58,-67 -146,-153 -376,-135 -572,-90 -142,33 -188,61 -296,137 -17,14 -21,11 -8,37z"/>
   <path class="fil0" d="M2315 2977c8,-204 117,-369 355,-367 54,2 104,12 146,33 46,25 71,46 100,81 67,86 75,130 96,255l-697 -2zm1043 550l-296 -91c-33,47 -129,116 -200,141 -184,63 -392,-2 -484,-141 -63,-97 -50,-153 -67,-271l1089 -2c-4,-165 -33,-332 -117,-471 -17,-25 -21,-32 -38,-53 -54,-69 -104,-114 -179,-162 -246,-149 -576,-134 -801,9 -138,91 -246,218 -300,381 -75,221 -50,496 92,684 50,69 104,118 175,163 255,156 714,162 956,-14 17,-12 29,-21 46,-37 42,-37 88,-65 125,-137z"/>
   <polygon class="fil0" points="12672,2035 12902,2035 12902,3534 12672,3536 12672,3798 13503,3798 13503,3536 13294,3534 13294,1773 12672,1773 "/>
   <polygon class="fil0" points="11767,2033 11996,2035 11996,3536 11767,3536 11767,3796 12593,3798 12593,3536 12384,3536 12384,1773 11767,1773 "/>
   <path class="fil3" d="M5520 4114c0,-190 146,-327 134,-246l-46 67c-42,67 -54,137 -50,214 0,28 4,28 -4,44 -42,11 -33,-35 -33,-79zm-221 -2564c13,-7 4,2 21,-12 38,-32 63,-70 159,-84 83,-12 154,16 213,53 175,112 204,274 242,313 0,-151 13,-102 -75,-235 -134,-207 -305,-367 -547,-179l-25 23c-50,81 -21,5 -100,162 -54,109 -58,97 -100,165 -29,53 -50,121 -75,186 -42,112 -71,128 -88,172l-196 227c-63,77 -125,146 -184,241 -92,146 -225,404 -200,629 13,127 83,376 154,478 83,116 204,70 280,357 25,84 71,227 150,267 4,23 38,44 58,60 121,88 154,160 305,169 71,-9 171,-63 250,-51 42,5 67,35 96,51 100,58 288,74 355,16 33,-30 29,-46 33,-67 21,-91 4,-70 0,-158 -8,-176 -50,-339 -104,-485 -29,-74 -63,-128 -96,-197 -33,-63 -63,-130 -92,-200 -113,-285 -238,-529 -296,-877 -29,-156 -46,-387 -21,-546 29,-190 88,-264 196,-388 -46,-30 -96,5 -125,40 -58,65 -38,21 -83,107 -146,272 4,791 -25,1019l-29 2c-42,-186 -75,-415 -96,-615 -29,-250 4,-378 129,-566 -67,16 -100,53 -163,77 17,-69 42,-111 79,-151zm-501 1502c-17,-26 8,-44 25,-69 46,-67 13,-56 63,-56 4,35 -50,127 -88,125zm-46 -63c-21,-25 0,-39 17,-67 4,-12 13,-28 17,-37 29,-30 33,-7 38,-7 4,21 -38,114 -71,111zm-129 46c-4,-46 100,-172 146,-216 21,-19 0,-14 38,-14 4,28 -17,47 -33,67l-46 56c-71,88 -54,114 -104,107zm-109 -11c-21,-63 213,-329 267,-373 25,-19 29,-33 50,-14 0,30 -21,37 -38,51 -54,49 -159,185 -200,246 -50,76 -42,97 -79,90zm-8 -130c-8,-39 33,-90 54,-119 33,-53 104,-144 150,-186 67,-60 75,-67 96,-33 -13,25 -25,18 -46,40 -29,32 -46,46 -75,84 -13,12 -25,28 -33,42 -29,32 -50,54 -71,90 -54,86 -33,91 -75,83zm709 836c-8,-26 4,-46 17,-72 42,-69 75,-37 50,0 -8,11 -13,12 -21,28 -17,30 -4,44 -46,44zm75 158l-29 -2c-13,-42 42,-116 71,-151l29 -42 38 0c8,39 -33,53 -58,88 -17,26 -42,69 -50,107zm113 455c-50,-91 13,-357 96,-483 21,-32 54,-95 92,-90 4,46 -63,91 -113,209 -33,76 -54,167 -54,258 0,40 21,123 -21,105zm-88 -258c-17,-60 67,-228 100,-285 38,-58 38,-61 67,-54 4,28 -25,58 -42,86 -46,84 -67,130 -88,223 -8,37 0,32 -38,30z"/>
   <path class="fil3" d="M7009 2743l25 -26c58,-11 88,11 83,69l-21 26c-58,9 -88,-12 -88,-69zm-142 44c-54,18 -58,16 -92,-21 -4,-44 13,-81 63,-63 38,12 42,49 29,84zm142 -165c4,98 -92,76 -104,30 -8,-32 13,-56 38,-61 33,-7 50,14 67,32zm-309 -431c-17,25 -38,32 -58,61 -42,63 -54,19 -46,-5 13,-25 33,-46 54,-65 13,-14 17,-28 38,-25 25,2 21,19 13,33zm-1402 -641c-38,40 -63,83 -79,151 63,-25 96,-61 163,-77 -125,188 -159,316 -129,566 21,200 54,429 96,615l29 -2c29,-228 -121,-747 25,-1019 46,-86 25,-42 83,-107 29,-35 79,-70 125,-40 -108,125 -167,199 -196,388 -25,160 -8,390 21,546 58,348 184,592 296,877 29,70 58,137 92,200 33,69 67,123 96,197 54,146 96,309 104,485 4,88 21,67 0,158 -4,21 0,37 -33,67 -67,58 -255,42 -355,-16 -29,-16 -54,-46 -96,-51 -79,-12 -179,42 -250,51 -150,-9 -184,-81 -305,-169 -21,-16 -54,-37 -58,-60 -79,-40 -125,-183 -150,-267 -75,-286 -196,-241 -280,-357 -71,-102 -142,-351 -154,-478 -25,-225 109,-483 200,-629 58,-95 121,-163 184,-241l196 -227c17,-44 46,-60 88,-172 25,-65 46,-134 75,-186 42,-69 46,-56 100,-165 79,-156 50,-81 100,-162l25 -23c242,-188 413,-28 547,179 88,134 75,84 75,235 -38,-39 -67,-200 -242,-313 -58,-37 -129,-65 -213,-53 -96,14 -121,53 -159,84 -17,14 -8,5 -21,12zm555 2056c-4,4 -8,4 -13,9 -29,-83 -134,-295 -179,-409 -29,-76 -154,-373 -146,-441 -21,-23 -33,-105 -42,-135 -54,-264 -92,-675 88,-894 33,-40 63,-63 88,-93 -67,-97 -134,-35 -217,47 -129,134 -134,416 -117,599 8,91 33,235 25,325 4,-14 -67,-460 -67,-559 0,-325 150,-376 163,-480 -54,12 -117,32 -154,58 8,-49 83,-109 138,-132 238,-111 467,237 467,329 21,18 21,30 33,61 8,23 17,44 29,69 100,262 96,355 267,582 13,19 29,35 42,54 25,32 196,188 196,190 4,47 -4,84 -4,123 13,-16 8,-25 13,-54 0,-21 0,-40 0,-63 46,28 71,58 150,100 58,32 113,54 179,76 129,39 538,90 597,-97 38,-139 17,-200 -83,-262 -33,-19 -42,-35 -63,-70 -33,-49 -58,-123 -108,-149 -96,-11 -109,98 -213,12 -33,-25 -171,-181 -75,-216 67,-26 630,-49 722,-58 -4,-39 -38,-77 -79,-88 -58,-18 -430,18 -505,25 13,-11 -8,0 17,-16 75,-44 259,-83 346,-86 -8,-21 -63,-58 -83,-72 -204,-125 -417,-33 -559,130 -33,39 -125,146 -171,160l0 -70c-50,2 -71,9 -100,-12l33 -19c17,-5 29,-11 42,-14 29,-11 58,-19 83,-30 88,-33 71,-37 117,-107 -25,-16 -13,-19 -42,-33 -96,46 -88,123 -371,148 8,69 63,176 92,225 54,93 75,109 129,185 -58,-32 -225,-251 -275,-330 -83,-130 -334,-543 -421,-648 -13,-14 -25,-26 -38,-40 -17,-16 -25,-23 -42,-37 -196,-193 -451,-93 -568,155 -38,77 -71,128 -113,193 -83,134 -42,209 -209,402 -196,232 -388,441 -488,738 -63,197 -67,311 -13,517 33,141 96,318 221,392 250,153 96,341 351,566 54,47 113,91 171,137 213,177 355,-39 476,37 79,46 100,76 217,88 104,9 188,9 246,-56 71,-77 13,-411 -17,-520 -25,-105 -71,-242 -125,-334 -17,-30 -46,-69 -38,-102z"/>
   <path class="fil3" d="M5211 990c0,-60 33,-186 58,-221 17,7 25,19 38,39 21,37 58,119 67,160 -134,18 -113,146 -179,230 33,-146 17,-77 17,-207zm296 -146c-13,-26 -8,-23 8,-37 109,-76 154,-104 296,-137 196,-46 426,-63 572,90 21,23 33,44 58,67l129 114c92,74 138,134 242,128l-192 -274c-21,-28 -50,-63 -63,-93 192,44 309,262 376,327 204,199 230,114 409,290 38,35 67,84 146,91 83,5 125,-39 188,25 8,72 -21,119 -67,151 -29,23 -88,69 -134,70 -75,-51 -79,-142 -129,-223 -54,-81 -109,-98 -217,-128 -8,12 -17,25 -21,42 42,16 104,72 129,104 96,127 29,290 -25,329 -25,19 -50,2 -83,-5 -33,-5 -71,-4 -96,-14 25,-53 75,-156 67,-227 -8,-72 -83,-156 -121,-174 -8,90 21,204 -46,250 -71,46 -175,35 -242,0 -134,-70 -204,-184 -288,-311l-129 -174c-104,-130 -309,-95 -417,9 -104,95 -79,105 -129,170 -92,-44 -188,-181 -442,-5 -159,109 -129,200 -246,374 -138,207 -83,223 -184,357 -38,51 -280,373 -305,392l-8 -183c4,-51 17,-107 29,-155 46,-151 63,-158 138,-244 -13,-81 -29,-112 -4,-200 21,-65 50,-112 83,-153 38,18 38,47 113,40 150,-16 188,-69 255,-183 33,-58 71,-137 100,-199 38,-74 42,-158 134,-144l17 -18c-4,-39 -38,-114 -54,-148 -42,-95 -96,-160 -138,-12 -8,32 -17,60 -25,95 -17,84 8,155 -13,230 -29,107 -138,202 -242,237 -250,79 -280,-141 -196,-183 25,-16 146,-40 188,-54 63,-19 104,-60 142,-95 -21,-119 -138,19 -209,37 8,-61 42,-162 58,-227 21,-69 63,-141 134,-149l-8 127c42,2 42,-37 58,-74 17,-28 33,-53 58,-72 83,-56 146,-26 188,35 58,88 63,234 305,237 -4,-49 -13,-72 -42,-97 -38,-28 -67,-11 -104,-26zm-42 -28c25,127 125,5 150,121 -79,-5 -117,-30 -159,-72 -63,-69 -71,-250 -234,-227 -88,12 -108,74 -142,98l0 -51c-108,-11 -159,74 -188,158 -25,83 -54,195 -75,278 125,9 171,-104 213,-84 -75,127 -309,86 -355,188 -38,90 38,281 292,179 100,-40 138,-90 192,-155l13 -11c-8,28 -38,83 -54,109 -25,46 -33,63 -71,95 -38,30 -67,37 -121,47 -75,16 -75,5 -117,-33 -58,-26 -179,179 -134,367 -21,35 -38,32 -83,125 -79,165 -113,362 -54,536 29,-23 246,-316 275,-357 209,-271 83,-163 230,-411 79,-128 46,-47 113,-209 29,-79 79,-142 138,-181 271,-190 359,-14 451,19 21,-33 29,-65 50,-97 58,-88 154,-165 271,-181 267,-35 317,423 618,571 71,33 167,40 242,5 92,-44 79,-107 83,-218 42,35 75,102 54,179 -13,40 -54,146 -75,174 8,7 -4,5 17,11l88 7c71,7 146,76 209,-111 63,-176 -42,-260 -121,-336 246,46 154,467 405,290 38,-26 79,-47 100,-95 21,-49 38,-111 -4,-151 -88,-77 -184,56 -300,-83 -138,-160 -305,-151 -451,-336 -75,-97 -79,-116 -184,-206 -46,-42 -179,-123 -271,-121 21,25 50,65 71,93l204 293c-29,-11 -42,-25 -67,-47 -63,-53 -138,-104 -200,-163 -79,-77 -125,-163 -275,-204 -238,-63 -634,61 -743,193z"/>
   <path class="fil4" d="M6450 2908c0,-39 8,-76 4,-123 0,-2 -171,-158 -196,-190 -13,-19 -29,-35 -42,-54 -171,-227 -167,-320 -267,-582 -13,-25 -21,-46 -29,-69 -13,-32 -13,-44 -33,-61 -13,28 -29,56 -50,84 -42,70 -104,209 -125,290 -42,160 -38,337 71,425 54,-40 83,-242 88,-323 4,-39 -4,-32 29,-35 13,44 25,262 33,334 13,98 33,220 79,286 88,-4 138,-155 171,-221 17,25 33,79 46,109 29,70 108,285 171,315 21,-46 54,-116 50,-185z"/>
   <path class="fil3" d="M7998 4892l221 -98c13,-7 21,-12 38,-19 42,-19 71,5 29,30 -54,32 -284,132 -317,132l0 -28 29 -16zm-1085 -221c33,14 83,49 117,70 129,77 242,109 388,167 146,58 417,193 530,214 113,21 234,4 313,-49 217,-146 121,-589 67,-817 -4,-14 -13,-60 -25,-69 -92,-32 -125,2 -150,81 -71,241 -129,316 -367,383 -242,69 -417,69 -651,5 -67,-18 -146,-25 -213,-33l-8 47z"/>
   <path class="fil3" d="M7573 2053c438,39 747,9 722,552 -4,65 -13,118 -29,179 -8,44 -38,130 -38,172 63,-9 63,-14 96,-54 67,-97 125,-183 175,-299 58,-148 104,-378 25,-534 -121,-250 -467,-153 -705,-88 -71,21 -192,40 -246,72z"/>
   <path class="fil1" d="M8917 3112c0,-40 4,-97 13,-128 21,-111 92,-227 209,-227 104,0 142,-2 213,84 67,77 58,211 58,311 0,144 -83,300 -213,300 -109,0 -154,-11 -225,-112 -33,-51 -54,-142 -54,-228zm184 -425c-221,60 -275,278 -259,485 25,225 171,401 392,353 75,-18 117,-54 167,-104 8,-11 29,-44 38,-60 42,-79 58,-218 50,-327 -13,-119 -42,-207 -104,-272 -58,-60 -167,-105 -284,-76z"/>
   <path class="fil1" d="M1076 3453c-100,0 -167,-18 -221,-107 -42,-69 -58,-156 -58,-234 0,-33 8,-32 8,-63 0,-33 0,-37 4,-63 8,-40 21,-81 38,-111 104,-185 451,-190 451,209 0,33 -4,107 -13,134 -8,40 -17,81 -33,112 -29,53 -100,123 -175,123zm-96 -766c-221,58 -275,285 -255,488 17,144 83,295 225,339 434,135 526,-538 313,-754 -58,-60 -167,-104 -284,-74z"/>
   <path class="fil4" d="M5516 2764c-8,69 117,365 146,441 46,114 150,327 179,409 4,-5 8,-5 13,-9l21 -63 8 -16c42,-137 67,-323 -8,-455 -25,-42 -50,-88 -96,-90 -58,74 -29,200 -25,300 -33,-16 -33,-16 -38,-60l-38 -237c-13,-72 -38,-227 -88,-267 -38,2 -54,23 -75,46z"/>
   <path class="fil5" d="M5895 1462c33,-18 13,-12 13,-46 29,-30 75,-40 134,-39 75,4 163,105 204,158 17,18 29,30 46,47 29,37 96,109 134,137 154,114 238,104 421,72 -296,-39 -334,-109 -484,-311 -42,-60 -25,-30 -54,-63 -38,-39 -71,-74 -117,-111 -46,-37 -96,-63 -175,-53 -71,9 -225,83 -179,151 4,11 17,18 25,28 21,18 13,18 33,28z"/>
   <path class="fil1" d="M2640 2687c125,0 192,32 250,132 17,30 21,56 33,84l-522 0c17,-60 29,-91 63,-135 4,-11 0,-5 8,-16 33,-39 104,-65 167,-65zm-325 290l697 2c-21,-125 -29,-169 -96,-255 -29,-35 -54,-56 -100,-81 -42,-21 -92,-32 -146,-33 -238,-2 -346,163 -355,367z"/>
   <path class="fil3" d="M6308 4253c0,-25 -8,-11 -8,-35 0,-26 8,-9 8,-35 38,-16 79,-33 134,-26 109,16 125,112 -4,128 -54,7 -92,-12 -129,-32zm309 -285c100,-23 213,33 154,90 -17,16 -33,26 -58,33 -159,42 -246,-90 -96,-123zm225 237c-8,-37 -17,-58 17,-79 63,-35 134,-40 200,-12 125,51 -4,156 -150,119 -13,-4 -25,-9 -38,-14 -33,-19 8,-11 -29,-14zm-968 -662c21,26 121,330 142,390 33,107 104,293 108,411 263,62 597,218 860,141 125,-39 146,-86 209,-130l-104 239c204,0 459,23 643,-37 204,-65 338,-142 292,-364 -221,-56 -405,-67 -613,-153 -96,-42 -238,-97 -321,-160 -104,-81 -275,-235 -367,-292 -96,-56 -188,-61 -288,0 -146,95 -250,97 -430,7 -21,-12 -46,-23 -67,-32 -58,-26 -46,-16 -54,-37l-8 16z"/>
   <path class="fil0" d="M7627 1046c-4,-18 4,-2 -4,-14 -13,-16 -42,-37 -71,-79 -54,-86 -67,-135 -104,-228 -17,-46 -21,-84 -54,-109 -33,11 -192,111 -209,179 -13,42 13,62 33,77l284 228c42,-12 71,-51 125,-54z"/>
   <path class="fil3" d="M7627 1046c-54,4 -83,42 -125,54l-284 -228c-21,-16 -46,-35 -33,-77 17,-69 175,-169 209,-179 33,25 38,63 54,109 38,93 50,142 104,228 29,42 58,63 71,79 8,12 0,-4 4,14zm0 0c21,9 46,28 67,40 71,47 154,70 246,69 129,-4 230,-51 317,-105 83,-51 175,-158 67,-253 -46,-37 -92,-47 -167,-47 -54,0 -159,23 -196,16 -13,-18 -21,-26 -29,-39 25,-28 46,-25 58,-53 21,-42 -25,-185 -42,-225 -58,-132 -175,-239 -325,-251 -92,-7 -163,28 -242,49 -154,44 -300,83 -447,134 -67,23 -142,56 -200,90 -58,35 -79,49 -125,93 -17,19 -25,18 -29,47l305 211c29,21 50,33 79,56 21,19 50,42 71,60l338 316c17,21 46,51 67,67 63,54 138,18 167,-47 21,-53 29,-172 21,-227z"/>
   <path class="fil2" d="M4109 3434l0 12c-54,-5 -50,-47 -50,-134l0 -562 75 4 38 -81 -188 0c0,91 -4,680 4,740 13,88 54,109 142,114l-21 -93z"/>
   <path class="fil6" d="M5766 1076c17,-81 92,-163 142,-200 75,-54 171,-56 267,-19 79,30 184,134 238,195 13,19 25,25 42,42 25,26 46,61 58,105 -25,-28 -58,-77 -142,-156 -46,-47 -104,-88 -184,-112 -83,-26 -175,-21 -250,16 -96,46 -109,83 -171,130zm-58 93c113,-86 325,-404 655,-97 67,65 129,156 159,179l38 -25c-13,-44 -46,-109 -67,-135l-150 -156c-63,-51 -92,-90 -196,-121 -234,-70 -413,151 -438,355z"/>
   <path class="fil3" d="M7894 2770c-4,23 4,18 8,44 0,21 -8,25 -8,42 -67,28 -92,-58 -33,-100l33 14zm-230 -46l8 16c0,2 4,2 4,4 17,32 8,47 0,76l-29 12c-50,-19 -54,-70 -21,-109l38 2zm113 -19c-13,-47 -29,-76 25,-104 33,9 54,33 46,76 -13,40 -38,35 -71,28zm-154 -571c134,40 230,37 238,130 8,40 13,81 8,125 -13,235 -159,-100 -284,83 -38,58 -50,102 -96,155 -42,51 -75,90 -67,195 17,151 134,216 284,234 488,54 659,-668 351,-872 -109,-72 -292,-84 -434,-49z"/>
   <path class="fil4" d="M6192 1891c21,56 71,91 150,91 83,0 167,-58 159,-137 -21,-21 -113,-79 -150,-88 -42,18 -117,104 -159,134z"/>
   <path class="fil0" d="M5766 1076c63,-47 75,-84 171,-130 75,-37 167,-42 250,-16 79,25 138,65 184,112 83,79 117,128 142,156 -13,-44 -33,-79 -58,-105 -17,-18 -29,-23 -42,-42 -54,-61 -159,-165 -238,-195 -96,-37 -192,-35 -267,19 -50,37 -125,119 -142,200z"/>
   <path class="fil4" d="M6843 4205c38,4 -4,-5 29,14 13,5 25,11 38,14 146,37 275,-69 150,-119 -67,-28 -138,-23 -200,12 -33,21 -25,42 -17,79z"/>
   <path class="fil0" d="M5211 990c0,130 17,61 -17,207 67,-84 46,-213 179,-230 -8,-40 -46,-123 -67,-160 -13,-19 -21,-32 -38,-39 -25,35 -58,162 -58,221z"/>
   <path class="fil4" d="M7356 1833c142,53 259,86 275,-109 -75,-4 -104,7 -179,28 -33,11 -50,37 -92,76 0,2 -4,4 -4,5z"/>
   <path class="fil4" d="M6617 3968c-150,33 -63,165 96,123 25,-7 42,-18 58,-33 58,-56 -54,-112 -154,-90z"/>
   <path class="fil4" d="M6091 1527c-104,30 -75,200 38,169 104,-28 88,-206 -38,-169z"/>
   <path class="fil4" d="M6308 4182c0,26 -8,9 -8,35 0,25 8,11 8,35 38,19 75,39 129,32 129,-16 113,-112 4,-128 -54,-7 -96,11 -134,26z"/>
   <path class="fil0" d="M5403 4344c42,18 21,-65 21,-105 0,-91 21,-183 54,-258 50,-118 117,-163 113,-209 -38,-5 -71,58 -92,90 -83,127 -146,392 -96,483z"/>
   <path class="fil0" d="M4514 3024c38,7 29,-14 79,-90 42,-61 146,-197 200,-246 17,-14 38,-21 38,-51 -21,-19 -25,-5 -50,14 -54,44 -288,309 -267,373z"/>
   <path class="fil0" d="M4506 2894c42,9 21,4 75,-83 21,-35 42,-58 71,-90 8,-14 21,-30 33,-42 29,-39 46,-53 75,-84 21,-23 33,-16 46,-40 -21,-33 -29,-26 -96,33 -46,42 -117,134 -150,186 -21,30 -63,81 -54,119z"/>
   <path class="fil7" d="M7694 1838c300,-102 204,-271 146,-290 -29,244 -8,111 -146,290z"/>
   <path class="fil0" d="M5315 4086c38,2 29,7 38,-30 21,-93 42,-139 88,-223 17,-28 46,-58 42,-86 -29,-7 -29,-4 -67,54 -33,56 -117,225 -100,285z"/>
   <path class="fil0" d="M7998 4892l-29 16 0 28c33,0 263,-100 317,-132 42,-25 13,-49 -29,-30 -17,7 -25,12 -38,19l-221 98z"/>
   <path class="fil0" d="M5520 4114c0,44 -8,90 33,79 8,-16 4,-16 4,-44 -4,-77 8,-148 50,-214l46 -67c13,-81 -134,56 -134,246z"/>
   <path class="fil0" d="M4623 3035c50,7 33,-19 104,-107l46 -56c17,-19 38,-39 33,-67 -38,0 -17,-5 -38,14 -46,44 -150,170 -146,216z"/>
   <path class="fil4" d="M7009 2743c0,56 29,77 88,69l21 -26c4,-58 -25,-79 -83,-69l-25 26z"/>
   <path class="fil0" d="M5290 3889c8,-39 33,-81 50,-107 25,-35 67,-49 58,-88l-38 0 -29 42c-29,35 -83,109 -71,151l29 2z"/>
   <path class="fil4" d="M7009 2622c-17,-18 -33,-39 -67,-32 -25,5 -46,30 -38,61 13,46 109,69 104,-30z"/>
   <path class="fil4" d="M6868 2787c13,-35 8,-72 -29,-84 -50,-18 -67,19 -63,63 33,37 38,39 92,21z"/>
   <path class="fil4" d="M7777 2705c33,7 58,12 71,-28 8,-42 -13,-67 -46,-76 -54,28 -38,56 -25,104z"/>
   <path class="fil4" d="M7677 2819c8,-28 17,-44 0,-76 0,-2 -4,-2 -4,-4l-8 -16 -38 -2c-33,39 -29,90 21,109l29 -12z"/>
   <path class="fil4" d="M6701 2192c8,-14 13,-32 -13,-33 -21,-4 -25,11 -38,25 -21,19 -42,40 -54,65 -8,25 4,69 46,5 21,-30 42,-37 58,-61z"/>
   <path class="fil4" d="M7894 2856c0,-18 8,-21 8,-42 -4,-26 -13,-21 -8,-44l-33 -14c-58,42 -33,128 33,100z"/>
   <path class="fil0" d="M4798 3053c38,2 92,-90 88,-125 -50,0 -17,-11 -63,56 -17,25 -42,42 -25,69z"/>
   <path class="fil0" d="M4752 2989c33,4 75,-90 71,-111 -4,0 -8,-23 -38,7 -4,9 -13,25 -17,37 -17,28 -38,42 -17,67z"/>
   <path class="fil0" d="M5215 3731c42,0 29,-14 46,-44 8,-16 13,-18 21,-28 25,-37 -8,-69 -50,0 -13,26 -25,46 -17,72z"/>
  </g>
 </g>
</svg>
