<svg xmlns="http://www.w3.org/2000/svg" width="102.071" height="16.812" viewBox="0 0 102.071 16.812">
  <g id="Stanleybet_logo_international" transform="translate(-22.244 -20.684)">
    <g id="Group_178" data-name="Group 178" transform="translate(22.244 20.683)">
      <g id="Group_177" data-name="Group 177">
        <g id="Group_176" data-name="Group 176">
          <path id="Path_160" data-name="Path 160" d="M179.125,109.964a8.383,8.383,0,0,0-4.191-7.264L173.5,117.889A8.425,8.425,0,0,0,179.125,109.964Z" transform="translate(-162.329 -101.55)" fill="#ed1b34"/>
          <path id="Path_161" data-name="Path 161" d="M111,95.4a8.414,8.414,0,0,0-6.744,13.425c.52-.189,1.134-.425,1.8-.693,2.616-1.119,5.672-2.474,5.972-3.561.315-1.087-.41-.993-1.8-.772s-3.955.961-3.845-1.292c.11-2.348.693-3.12,6.87-3.388v1.087s-5.184.063-5.168,1.78c.016,1.528,3.356-.236,4.585.362,1.229.615,1.008,2.411-1.008,3.955-1.513,1.166-5.026,2.269-7.2,2.8a8.4,8.4,0,0,0,6.523,3.1,8.206,8.206,0,0,0,2.159-.3l1.465-15.678A8.373,8.373,0,0,0,111,95.4Z" transform="translate(-102.6 -95.4)" fill="#ed1b34"/>
          <g id="Group_175" data-name="Group 175" transform="translate(18.467 2.773)">
            <path id="Path_162" data-name="Path 162" d="M583.79,117.608l1.024-3.577L582.435,114,579,124.068h2.033l.756-1.024s.583,1.1,3.009,1.1a4.775,4.775,0,0,0,4.932-4.128C590.045,117.214,587.115,115.481,583.79,117.608Zm.551,5.168c-1.749,0-2.08-.835-2.08-.835l1.008-2.868a3.462,3.462,0,0,1,2.427-.835c.882,0,1.828.394,1.623,1.654A3.219,3.219,0,0,1,584.341,122.776Z" transform="translate(-522.403 -113.842)" fill="#ed1b34"/>
            <path id="Path_163" data-name="Path 163" d="M228.545,115.757l2.206-.693s-1.213-2.08-4.916-2.064c-3.86.032-4.632,2.017-4.632,2.915s.693,1.875,3.34,2.757c2.553.835,2.757,1.119,2.757,1.954s-1.2,1.15-2.174,1.1c-2.111-.095-2.537-.9-2.883-1.481l-2.442.567s.425,2.458,5.4,2.537c3.939.063,4.948-1.875,5.011-2.82.032-.583.079-2.19-4.475-3.577,0,0-2.048-.378-1.749-1.5.221-.867,1.576-1.071,2.348-.945A3.014,3.014,0,0,1,228.545,115.757Z" transform="translate(-219.8 -112.999)" fill="#ed1b34"/>
            <path id="Path_164" data-name="Path 164" d="M294.057,117.2h2.6l-.741,2.253h1.528l-.551,1.481h-1.5l-1.134,3.482s-.5,1.056.567.993c1.071-.047,1.245-.032,1.245-.032l-.425,1.339a4.2,4.2,0,0,1-1.844.221c-1.5,0-2.663-.709-2.111-2.458s1.15-3.529,1.15-3.529H291.3l.5-1.481H293.4Z" transform="translate(-280.034 -116.538)" fill="#ed1b34"/>
            <path id="Path_165" data-name="Path 165" d="M714.073,117.2h2.6l-.741,2.253h1.528l-.551,1.481h-1.5l-1.134,3.482s-.5,1.056.567.993c1.071-.047,1.245-.032,1.245-.032l-.425,1.339a4.2,4.2,0,0,1-1.844.221c-1.5,0-2.663-.709-2.111-2.458s1.15-3.529,1.15-3.529H711.3l.5-1.481H713.4Z" transform="translate(-633.857 -116.538)" fill="#ed1b34"/>
            <path id="Path_166" data-name="Path 166" d="M383.126,131.362l-2.426,7.311h2.505l1.749-5.058a4.38,4.38,0,0,1,2.631-.961s1.576-.236.615,2.1l-1.308,3.923h2.584l1.544-4.774s.93-2.363-2.474-2.553a5.138,5.138,0,0,0-3.183.914l.126-.882h-2.363Z" transform="translate(-355.348 -128.447)" fill="#ed1b34"/>
            <path id="Path_167" data-name="Path 167" d="M446.688,113.7,443.3,123.8h2.631l3.309-10.053Z" transform="translate(-408.084 -113.59)" fill="#ed1b34"/>
            <path id="Path_168" data-name="Path 168" d="M523.388,137.44l-1.339-5.94h2.442l.772,4.884,3.009-4.884H531s-4.932,7.232-5.783,8.335a3.3,3.3,0,0,1-2.962,1.465H520l.567-1.481s.362-.016.52,0c.5.016,1.78.11,2.316-.867A3.089,3.089,0,0,0,523.388,137.44Z" transform="translate(-472.699 -128.585)" fill="#ed1b34"/>
            <path id="Path_169" data-name="Path 169" d="M330.44,130.557a7.839,7.839,0,0,0-4.1,1.2l1.45.93a4.063,4.063,0,0,1,2.521-.8c1.339,0,1.749.882,1.229,1.56,0,0-6.318-.268-6.6,2.6-.268,2.694,4.459,2.1,5.42,1.4v.536l2.3.032.079-.93,1.119-3.514C333.875,133.55,335.041,130.368,330.44,130.557Zm-3.073,5.657c-.5-1.623,3.687-1.576,3.687-1.576C330.6,137.363,327.636,137.064,327.368,136.213Z" transform="translate(-308.366 -127.783)" fill="#ed1b34"/>
            <path id="Path_170" data-name="Path 170" d="M478.132,130.7c-4.365-.016-5.278,3.435-5.121,4.884.142,1.355.977,2.694,4.286,2.694,2.9,0,3.908-1.481,3.908-1.481l-1.781-.819a3.1,3.1,0,0,1-2.269.867,1.5,1.5,0,0,1-1.607-2.1h6.413C481.961,134.765,483.033,130.731,478.132,130.7Zm1.623,2.9h-3.986a2.338,2.338,0,0,1,2.379-1.576C480.086,132.023,479.755,133.6,479.755,133.6Z" transform="translate(-433.1 -127.911)" fill="#ed1b34"/>
            <path id="Path_171" data-name="Path 171" d="M656.032,130.7c-4.365-.016-5.278,3.435-5.121,4.884.142,1.355.977,2.694,4.286,2.694,2.884,0,3.908-1.481,3.908-1.481l-1.8-.819a3.1,3.1,0,0,1-2.269.867,1.5,1.5,0,0,1-1.607-2.1h6.413C659.861,134.765,660.933,130.731,656.032,130.7Zm1.623,2.9h-3.986a2.338,2.338,0,0,1,2.379-1.576C658,132.023,657.655,133.6,657.655,133.6Z" transform="translate(-582.97 -127.911)" fill="#ed1b34"/>
          </g>
        </g>
      </g>
    </g>
  </g>
</svg>
