<svg xmlns="http://www.w3.org/2000/svg" viewBox="0 0 60.25 60.25"><defs><style>.cls-1{fill:#ec6626;}.cls-2{fill:#fff;}.cls-3{fill:#c6c6c6;}</style></defs><g id="Livello_2" data-name="Livello 2"><g id="Livello_1-2" data-name="Livello 1"><rect class="cls-1" width="60.25" height="60.25" rx="5.13"/><path class="cls-2" d="M43.66,28a11.05,11.05,0,0,0,6.92-4.69,13.92,13.92,0,0,0,2.46-8,11.25,11.25,0,0,0-3.75-8.67A13.28,13.28,0,0,0,39.68,3.1H16.11l-2.35,12h0l12.67,9.61,1.87-9.61h6.22c2.69,0,4.45,1.64,4.45,4.22a5.45,5.45,0,0,1-5.39,5.39H11.77l-2,10.08L7.67,45.07,5.21,57.15H34.75q7.92,0,12.66-5.28a18.23,18.23,0,0,0,4.81-12.54C52.1,33.93,49.52,29.48,43.66,28ZM32.17,45H22.44l2.11-10.31h8.68c2.81,0,4.8,1.76,4.8,4.45A6,6,0,0,1,32.17,45Z"/><polygon class="cls-3" points="28.31 15.06 13.77 15.06 13.77 15.06 26.43 24.67 28.31 15.06"/></g></g></svg>