<svg xmlns="http://www.w3.org/2000/svg" width="144.213" height="34" viewBox="0 0 144.213 34">
  <g id="logoGray" transform="translate(-1673 -232)">
    <path id="Path_6" data-name="Path 6" d="M88.255,272a5.214,5.214,0,0,0,3.289-2.254,6.8,6.8,0,0,0,1.183-3.806,5.367,5.367,0,0,0-1.774-4.139,6.411,6.411,0,0,0-4.583-1.663H75.062l-1.16,5.691h0l6.075,4.583.924-4.583h2.994a1.932,1.932,0,0,1,2.107,2,2.619,2.619,0,0,1-2.587,2.587H72.969l-.979,4.8-1,4.915L69.814,285.9H83.931a7.777,7.777,0,0,0,6.061-2.513,8.752,8.752,0,0,0,2.291-6.023A5.152,5.152,0,0,0,88.255,272Zm-5.544,8.13H78.019l1-4.915h4.139a2.129,2.129,0,0,1,2.328,2.143A2.767,2.767,0,0,1,82.712,280.135Z" transform="translate(1603.186 -27.107)"/>
    <path id="Path_7" data-name="Path 7" d="M263.35,295.722a3.757,3.757,0,0,0,2.674.974,4.5,4.5,0,0,0,4.437-4.333,3.405,3.405,0,0,0-1.037-2.55,3.594,3.594,0,0,0-2.654-1.016,4.254,4.254,0,0,0-3.11,1.327,4.2,4.2,0,0,0-1.327,3.068A3.313,3.313,0,0,0,263.35,295.722Z" transform="translate(1471.154 -46.759)"/>
    <path id="Path_8" data-name="Path 8" d="M145.682,285.9l5.248-25.758h10.828a8.508,8.508,0,0,1,6.208,2.328,7.666,7.666,0,0,1,2.439,5.876,10.287,10.287,0,0,1-10.273,10.089h-5.913L152.7,285.9Zm9.83-13.821h4.841a3.2,3.2,0,0,0,3.03-3.178,2.381,2.381,0,0,0-2.513-2.4h-4.213Z" transform="translate(1551.155 -27.107)" fill="#040505" opacity="0.7"/>
    <path id="Path_9" data-name="Path 9" d="M231.192,266.467a15.355,15.355,0,0,1,5.655-5.432,15.65,15.65,0,0,1,7.871-2.07,13.879,13.879,0,0,1,9.608,3.4,11.008,11.008,0,0,1,3.807,8.647,14.019,14.019,0,0,1-4.435,10.2,15.155,15.155,0,0,1-11.087,4.4,14.047,14.047,0,0,1-9.682-3.363,11.1,11.1,0,0,1-3.769-8.648A13.488,13.488,0,0,1,231.192,266.467Zm7.021,11.124a6.7,6.7,0,0,0,4.768,1.737,8.022,8.022,0,0,0,7.909-7.723,6.071,6.071,0,0,0-1.848-4.546,6.407,6.407,0,0,0-4.73-1.811,7.584,7.584,0,0,0-5.544,2.365,7.485,7.485,0,0,0-2.365,5.47A5.906,5.906,0,0,0,238.214,277.591Z" transform="translate(1493.905 -26.3)" fill="#040505" opacity="0.7"/>
    <path id="Path_10" data-name="Path 10" d="M324,285.9l5.248-25.758h7.021L331.023,285.9Z" transform="translate(1428.862 -27.107)" fill="#040505" opacity="0.7"/>
    <path id="Path_11" data-name="Path 11" d="M363.514,283.641l5.469-26.793,13.278,18.57,3.573-17.535h6.727l-6.73,32.965-13.4-17.887-2.189,10.68Z" transform="translate(1401.764 -24.848)" fill="#040505" opacity="0.7"/>
    <path id="Path_12" data-name="Path 12" d="M469.489,320.7l-1.372,6.732h7.022l1.372-6.732Z" transform="translate(1330.026 -68.636)"/>
    <path id="Path_13" data-name="Path 13" d="M459.884,260.142l-1.293,6.356h6.947l-2.419,11.87h7.022l2.419-11.87h6.8l1.294-6.356Z" transform="translate(1336.559 -27.107)" fill="#040505" opacity="0.7"/>
    <g id="Path_14" data-name="Path 14" transform="translate(1462.236 -55.07)" stroke-miterlimit="10">
      <path d="M 276.5156860351563 315.0181579589844 C 275.8680725097656 315.0181579589844 275.3306884765625 314.5129699707031 275.2922668457031 313.8680725097656 L 274.9315185546875 307.7649230957031 L 274.5567321777344 301.4273681640625 C 274.5367736816406 301.0871276855469 274.6536560058594 300.7643737792969 274.8858032226563 300.5182189941406 C 275.1170959472656 300.27294921875 275.4422302246094 300.1322937011719 275.7778930664063 300.1322937011719 C 276.0115966796875 300.1322937011719 276.2401428222656 300.1999816894531 276.4388427734375 300.3280029296875 L 281.7743530273438 303.7689514160156 L 286.9122619628906 307.0816650390625 C 287.3353271484375 307.3548583984375 287.5458984375 307.8501892089844 287.4491271972656 308.3438720703125 C 287.3523864746094 308.8374633789063 286.9704895019531 309.216552734375 286.4762268066406 309.3096923828125 L 281.4584350585938 310.2562866210938 C 281.1773986816406 310.3093566894531 280.921142578125 310.458984375 280.7370300292969 310.6775817871094 L 277.4466857910156 314.5829772949219 C 277.21337890625 314.8596496582031 276.8741149902344 315.0181579589844 276.5156860351563 315.0181579589844 Z" stroke="none"/>
      <path d="M 276.5156860351563 314.2352294921875 C 276.6353454589844 314.2352294921875 276.7568359375 314.1865539550781 276.8479309082031 314.0785217285156 L 280.1382141113281 310.1731872558594 C 280.4391784667969 309.8158874511719 280.8541870117188 309.5736389160156 281.3132934570313 309.4869384765625 L 286.3312683105469 308.5403137207031 C 286.7211303710938 308.4668579101563 286.8213500976563 307.9549255371094 286.4880065917969 307.7396850585938 L 281.3500366210938 304.4269104003906 L 276.0147399902344 300.9861145019531 C 275.93896484375 300.9372863769531 275.8573303222656 300.9152221679688 275.7778930664063 300.9152221679688 C 275.5404663085938 300.9152221679688 275.322509765625 301.1123046875 275.3382873535156 301.3811340332031 L 275.7130737304688 307.7187194824219 L 276.0737915039063 313.8215026855469 C 276.0889892578125 314.0763549804688 276.2994384765625 314.2352294921875 276.5156860351563 314.2352294921875 M 276.5156860351563 315.8010864257813 C 275.4544677734375 315.8010864257813 274.5737609863281 314.9724731445313 274.5107116699219 313.9146728515625 L 274.1499633789063 307.8110961914063 L 273.7751770019531 301.4735717773438 C 273.742919921875 300.923583984375 273.9401245117188 300.3798522949219 274.3162231445313 299.9810485839844 C 274.6947937011719 299.5796203613281 275.2275695800781 299.349365234375 275.7778930664063 299.349365234375 C 276.1623840332031 299.349365234375 276.5376281738281 299.4602355957031 276.8630065917969 299.6699523925781 L 282.1986999511719 303.1109924316406 L 287.3365173339844 306.4236755371094 C 288.0307312011719 306.8719177246094 288.3761596679688 307.6845397949219 288.2174377441406 308.4944458007813 C 288.0586853027344 309.3042907714844 287.4321594238281 309.9263000488281 286.6212158203125 310.0791015625 L 281.6035766601563 311.025634765625 C 281.4993286132813 311.0453186035156 281.4041137695313 311.1008605957031 281.3358154296875 311.1819458007813 L 278.04541015625 315.0874328613281 C 277.6627807617188 315.5411682128906 277.1053771972656 315.8010864257813 276.5156860351563 315.8010864257813 Z" stroke="none" fill="#fff"/>
    </g>
    <path id="Path_15" data-name="Path 15" d="M106.077,278.254h-2.994l-.924,4.582H105.6a2.619,2.619,0,0,0,2.587-2.587A1.932,1.932,0,0,0,106.077,278.254Z" transform="translate(1581.002 -39.528)" fill="none"/>
    <path id="Path_16" data-name="Path 16" d="M286.984,307.741l-5.138-3.313-5.335-3.441a.433.433,0,0,0-.45-.014l5.069,8.78a2.029,2.029,0,0,1,.68-.265l5.018-.947A.439.439,0,0,0,286.984,307.741Z" transform="translate(1461.74 -55.071)" fill="#4e4f4f"/>
    <path id="Path_17" data-name="Path 17" d="M101.063,308.131H96.925l-1,4.915h4.693a2.767,2.767,0,0,0,2.772-2.771A2.129,2.129,0,0,0,101.063,308.131Z" transform="translate(1585.277 -60.018)" fill="none"/>
    <path id="Path_18" data-name="Path 18" d="M89.825,278.254h-7l6.075,4.582Z" transform="translate(1594.262 -39.529)" fill="#4e4f4f" opacity="0.7"/>
  </g>
</svg>
