<svg xmlns="http://www.w3.org/2000/svg" width="95.531" height="36.998" viewBox="0 0 95.531 36.998">
  <g id="paysafe" transform="translate(-1363.469 -387)">
    <text id="Overview" transform="translate(1363.5 404)" fill="#32424e" font-size="16" font-family="Roboto-Regular, Roboto"><tspan x="0" y="0">ricarica</tspan></text>
    <g id="Paysafecard_logo" transform="translate(1363.469 407.81)">
      <path id="path2491" d="M123.8,46.449q-.016-.5-.47-.514h-1.62a.57.57,0,0,0-.591.63v2.914a.585.585,0,0,0,.654.629h1.485a.488.488,0,0,0,.384-.174.418.418,0,0,0,.158-.341Zm-4.761-.414a2.6,2.6,0,0,1,.488-1.662,2.091,2.091,0,0,1,.622-.4,1.846,1.846,0,0,1,.759-.174h2.974q1.968.017,2,2.154v4.386a1.812,1.812,0,0,1-.591,1.312,1.9,1.9,0,0,1-1.36.594h-2.812v3.162h-2.08V46.036" transform="translate(-106.591 -39.219)" fill="#008ac9"/>
      <path id="path2493" d="M202.564,49.684a.334.334,0,0,0,.166.291.546.546,0,0,0,.378.132h1.6c.361,0,.548-.14.559-.423v-.6c0-.326-.19-.49-.574-.49h-1.582a.7.7,0,0,0-.432.1.678.678,0,0,0-.111.456Zm2.7-3.287c.011-.32-.176-.472-.56-.462h-4.189V43.8h4.717a1.847,1.847,0,0,1,2.095,2v4.47a2.074,2.074,0,0,1-.521,1.4,1.759,1.759,0,0,1-1.359.577H202.6q-2.082-.018-2.113-1.9V48.615a1.806,1.806,0,0,1,2.014-2.008h2.767V46.4" transform="translate(-179.519 -39.219)" fill="#008ac9"/>
      <path id="path2495" d="M286.252,53.269a.673.673,0,0,0,.424-.176.447.447,0,0,0,.167-.342v-.507H284.18a2.161,2.161,0,0,1-.832-.133,1.921,1.921,0,0,1-.657-.442,2.139,2.139,0,0,1-.448-.707,2.23,2.23,0,0,1-.142-.856V43.8h2.079V49.43c0,.451.184.677.558.677h1.468a.647.647,0,0,0,.453-.174.442.442,0,0,0,.184-.354V43.8h2.063v9.307a2.617,2.617,0,0,1-.529,1.658,1.788,1.788,0,0,1-1.421.643H282.1V53.269h4.151" transform="translate(-252.602 -39.219)" fill="#008ac9"/>
      <path id="path2497" d="M362.8,50.108h3.706c.339-.012.515-.148.526-.408v-.192a.424.424,0,0,0-.049-.184c-.083-.161-.184-.241-.305-.241h-1.838a2.051,2.051,0,0,1-1.4-.561,1.61,1.61,0,0,1-.61-1.23V45.7q.032-1.865,2.028-1.9h4.3v2.137h-3.642c-.427,0-.643.131-.643.393v.207q0,.407.659.407h1.832a1.72,1.72,0,0,1,1.251.563,1.9,1.9,0,0,1,.543,1.311v1.559a2.068,2.068,0,0,1-.6,1.311,1.678,1.678,0,0,1-.579.444,2.375,2.375,0,0,1-.823.115H362.8V50.108" transform="translate(-324.866 -39.219)" fill="#008ac9"/>
      <path id="path2499" d="M439.808,49.684a.332.332,0,0,0,.169.291.541.541,0,0,0,.375.132h1.6c.361,0,.547-.14.558-.423v-.6c0-.326-.193-.49-.575-.49h-1.583a.7.7,0,0,0-.431.1.677.677,0,0,0-.113.456Zm2.7-3.287c.009-.32-.177-.472-.562-.462H437.76V43.8h4.718a1.844,1.844,0,0,1,2.092,2v4.47a2.08,2.08,0,0,1-.52,1.4,1.751,1.751,0,0,1-1.358.577h-2.854q-2.08-.018-2.11-1.9V48.615a1.8,1.8,0,0,1,2.013-2.008h2.768V46.4" transform="translate(-391.957 -39.219)" fill="#008ac9"/>
      <path id="path2501" d="M519.326,15.672a1.768,1.768,0,0,1,.642-1.387,2.394,2.394,0,0,1,1.592-.544h1.321V15.8h-.8c-.44.01-.664.221-.673.627v.452h1.473v2.139h-1.473V25.33h-2.081V15.672" transform="translate(-465.022 -12.303)" fill="#008ac9"/>
      <path id="path2503" d="M569.782,46.358v-.05a.332.332,0,0,0-.134-.273.609.609,0,0,0-.358-.1h-1.448a.638.638,0,0,0-.451.159.452.452,0,0,0-.217.388v.858Zm-2.575,3.021v.133a.578.578,0,0,0,.135.405.3.3,0,0,0,.27.19h4.273v2.137h-4.543a3.14,3.14,0,0,1-.966-.116,1.753,1.753,0,0,1-.669-.4,1.781,1.781,0,0,1-.463-.693,3.08,3.08,0,0,1-.128-.983l-.018-4.277a1.8,1.8,0,0,1,2.024-1.972h2.8a1.811,1.811,0,0,1,1.972,2.045v1.689l-4.692,1.845" transform="translate(-506.008 -39.219)" fill="#008ac9"/>
      <path id="path2505" d="M651.266,51.773a4.325,4.325,0,0,1-.863-.082,1.842,1.842,0,0,1-.824-.385,1.982,1.982,0,0,1-.591-.835,2.9,2.9,0,0,1-.17-1.032V45.45a2.6,2.6,0,0,1,.1-.858,1.791,1.791,0,0,1,.439-.726,1.909,1.909,0,0,1,.784-.5,3.657,3.657,0,0,1,.889-.1h3.188v.5H651.1a2.192,2.192,0,0,0-1.3.339,1.506,1.506,0,0,0-.488,1.271v3.991a2.644,2.644,0,0,0,.128.817,1.438,1.438,0,0,0,1.114,1.008,3.416,3.416,0,0,0,.736.075h2.971v.5h-3" transform="translate(-580.972 -38.747)" fill="#008ac9"/>
      <path id="path2507" d="M724.993,46.6h-4.18a1.593,1.593,0,0,0-1.175.464,1.718,1.718,0,0,0-.437,1.245v1.273a2.675,2.675,0,0,0,.079.675,1.047,1.047,0,0,0,.391.569,1.833,1.833,0,0,0,1.2.447H723.4a1.454,1.454,0,0,0,1.591-1.676Zm.5,2.873a5.163,5.163,0,0,1-.066.851,1.922,1.922,0,0,1-.416.777,2.094,2.094,0,0,1-1.624.673H720.9a2.195,2.195,0,0,1-1.575-.577,2.041,2.041,0,0,1-.624-1.583V48.327a1.988,1.988,0,0,1,2.167-2.227h4.14v-.563a1.951,1.951,0,0,0-.4-1.219,1.256,1.256,0,0,0-.6-.456,3.069,3.069,0,0,0-.777-.09h-4.517v-.5H723a6.414,6.414,0,0,1,1.066.082,1.233,1.233,0,0,1,.453.19,1.466,1.466,0,0,1,.41.387,2.658,2.658,0,0,1,.563,1.71v3.832" transform="translate(-643.549 -38.747)" fill="#008ac9"/>
      <path id="path2509" d="M809.419,43.771q-1.738.032-1.709,1.9v6.1h-.5v-6.1q-.035-2.4,2.287-2.4h.553v.5h-.634" transform="translate(-722.805 -38.747)" fill="#008ac9"/>
      <path id="path2511" d="M854.165,20.19h-3.94a3.008,3.008,0,0,0-.767.092,1.355,1.355,0,0,0-.689.437,1.477,1.477,0,0,0-.393.644,2.164,2.164,0,0,0-.095.777V26.03a1.432,1.432,0,0,0,.567,1.323,2.258,2.258,0,0,0,.624.247,2.982,2.982,0,0,0,.768.091h1.723a2.587,2.587,0,0,0,1.574-.447,1.68,1.68,0,0,0,.627-1.453Zm.5,5.636a2.187,2.187,0,0,1-2.556,2.366H850.26a5.1,5.1,0,0,1-1.047-.1,1.987,1.987,0,0,1-.914-.577,1.928,1.928,0,0,1-.418-.826,3.146,3.146,0,0,1-.1-.933V22.126a2.177,2.177,0,0,1,2.473-2.436h3.91V16.934h.5v8.892" transform="translate(-759.132 -15.163)" fill="#008ac9"/>
      <path id="path2513" d="M2.8,4.259A2.558,2.558,0,0,1,3.29,4.1a3.16,3.16,0,0,1,6.185,0,2.278,2.278,0,0,1,1.155.559,4.543,4.543,0,0,0-.032-.79,4.237,4.237,0,0,0-8.455.2,6,6,0,0,0-.01.611A2.689,2.689,0,0,1,2.8,4.259" transform="translate(-1.907)" fill="#e3001b"/>
      <path id="path2515" d="M6.95,43.8H1.87a1.848,1.848,0,0,0-.759.174,2.1,2.1,0,0,0-.623.4A2.608,2.608,0,0,0,0,46.036v3.971a2.6,2.6,0,0,0,.488,1.661,2.074,2.074,0,0,0,.623.4,1.886,1.886,0,0,0,.759.172H6.95q1.968-.018,2-2.155V45.952q-.031-2.138-2-2.154" transform="translate(0 -39.219)" fill="#e3001b"/>
    </g>
  </g>
</svg>
