<svg xmlns="http://www.w3.org/2000/svg" width="73.998" height="73.275" viewBox="0 0 73.998 73.275">
    <defs>
        <style>
            .cls-1{fill:#8ca0b3}
        </style>
    </defs>
    <g id="receipt" transform="translate(0 -.498)">
        <path id="Path_23" d="M74 5.431A4.938 4.938 0 0 0 69.065.5H4.933A4.923 4.923 0 0 0 3.7 10.189v59.885l3.7-3.7 7.4 7.4 7.4-7.4 7.4 7.4 7.4-7.4 7.4 7.4 7.4-7.4 7.4 7.4 7.4-7.4 3.7 3.7V10.189A4.928 4.928 0 0 0 74 5.431zm-6.168 58.688L66.6 62.886l-7.4 7.4-7.4-7.4-7.4 7.4-7.4-7.4-7.4 7.4-7.4-7.4-7.4 7.4-7.4-7.4-1.233 1.233V6.665h61.665v57.454zM70.3 7.566V4.2H3.7v3.366a2.466 2.466 0 0 1 1.233-4.6h64.132a2.466 2.466 0 0 1 1.233 4.6z" class="cls-1" data-name="Path 23"/>
        <path id="Path_24" d="M67.331 68.5h-18.5a1.233 1.233 0 1 0 0 2.467h18.5a1.233 1.233 0 0 0 0-2.467z" class="cls-1" data-name="Path 24" transform="translate(-13.066 -18.665)"/>
        <path id="Path_25" d="M81.955 68.859a1.269 1.269 0 0 0-.358.876 1.233 1.233 0 1 0 2.467 0 1.269 1.269 0 0 0-.358-.876 1.291 1.291 0 0 0-1.751 0z" class="cls-1" data-name="Path 25" transform="translate(-22.398 -18.671)"/>
        <path id="Path_26" d="M75.831 44.7h-18.5a1.233 1.233 0 0 0 0 2.467h18.5a1.233 1.233 0 0 0 0-2.467z" class="cls-1" data-name="Path 26" transform="translate(-15.399 -12.133)"/>
        <path id="Path_27" d="M78.164 56.6H65.831a1.233 1.233 0 0 0 0 2.467h12.333a1.233 1.233 0 1 0 0-2.467z" class="cls-1" data-name="Path 27" transform="translate(-17.732 -15.399)"/>
        <path id="Path_28" d="M47.6 57.829a1.233 1.233 0 0 0 1.233 1.233H51.3a1.233 1.233 0 0 0 0-2.467h-2.468a1.233 1.233 0 0 0-1.232 1.234z" class="cls-1" data-name="Path 28" transform="translate(-13.066 -15.399)"/>
        <path id="Path_29" d="M68.564 34.03a1.233 1.233 0 0 0-1.233-1.23h-18.5a1.233 1.233 0 1 0 0 2.467h18.5a1.233 1.233 0 0 0 1.233-1.237z" class="cls-1" data-name="Path 29" transform="translate(-13.066 -8.866)"/>
        <path id="Path_30" d="M81.955 33.16a1.269 1.269 0 0 0-.358.876 1.221 1.221 0 0 0 1.233 1.233 1.274 1.274 0 0 0 .876-.358 1.238 1.238 0 0 0-1.751-1.751z" class="cls-1" data-name="Path 30" transform="translate(-22.398 -8.872)"/>
        <path id="Path_31" d="M51.407 46.811a1.251 1.251 0 0 0 0-1.751 1.291 1.291 0 0 0-1.751 0 1.251 1.251 0 0 0 0 1.751 1.251 1.251 0 0 0 1.751 0z" class="cls-1" data-name="Path 31" transform="translate(-13.532 -12.138)"/>
        <path id="Path_32" d="M59.907 58.711a1.274 1.274 0 0 0 .358-.876 1.249 1.249 0 0 0-.358-.876 1.233 1.233 0 1 0 0 1.751z" class="cls-1" data-name="Path 32" transform="translate(-15.866 -15.405)"/>
        <path id="Path_33" d="M26.1 35.388V34.03a1.233 1.233 0 1 0-2.467 0v1.362a6.149 6.149 0 0 0-3.475 2.057 4.24 4.24 0 0 0-.979 3.21 4.5 4.5 0 0 0 1.706 3.072l2.749 2.139v6.707a3.7 3.7 0 0 1-2.468-3.477 1.233 1.233 0 0 0-2.467 0 6.178 6.178 0 0 0 4.933 6.042v1.083a1.233 1.233 0 0 0 2.467 0v-1.084a6.156 6.156 0 0 0 3.477-2.057 4.248 4.248 0 0 0 .978-3.213 4.5 4.5 0 0 0-1.706-3.071L26.1 44.665v-6.707a3.7 3.7 0 0 1 2.467 3.473 1.233 1.233 0 0 0 2.467 0 6.178 6.178 0 0 0-4.934-6.043zm1.234 13.362a2.025 2.025 0 0 1 .767 1.379 1.8 1.8 0 0 1-.408 1.363A3.685 3.685 0 0 1 26.1 52.57v-4.782zM22.4 41.785a2.026 2.026 0 0 1-.767-1.381 1.8 1.8 0 0 1 .408-1.362 3.685 3.685 0 0 1 1.593-1.079v4.782z" class="cls-1" data-name="Path 33" transform="translate(-5.133 -8.866)"/>
        <circle id="Ellipse_1" cx="1.233" cy="1.233" r="1.233" class="cls-1" data-name="Ellipse 1" transform="translate(48.099 12.831)"/>
        <circle id="Ellipse_2" cx="1.233" cy="1.233" r="1.233" class="cls-1" data-name="Ellipse 2" transform="translate(43.166 12.831)"/>
        <circle id="Ellipse_3" cx="1.233" cy="1.233" r="1.233" class="cls-1" data-name="Ellipse 3" transform="translate(53.032 12.831)"/>
        <circle id="Ellipse_4" cx="1.233" cy="1.233" r="1.233" class="cls-1" data-name="Ellipse 4" transform="translate(38.232 12.831)"/>
        <circle id="Ellipse_5" cx="1.233" cy="1.233" r="1.233" class="cls-1" data-name="Ellipse 5" transform="translate(57.965 12.831)"/>
        <circle id="Ellipse_6" cx="1.233" cy="1.233" r="1.233" class="cls-1" data-name="Ellipse 6" transform="translate(23.433 12.831)"/>
        <circle id="Ellipse_7" cx="1.233" cy="1.233" r="1.233" class="cls-1" data-name="Ellipse 7" transform="translate(28.366 12.831)"/>
        <circle id="Ellipse_8" cx="1.233" cy="1.233" r="1.233" class="cls-1" data-name="Ellipse 8" transform="translate(33.299 12.831)"/>
        <circle id="Ellipse_9" cx="1.233" cy="1.233" r="1.233" class="cls-1" data-name="Ellipse 9" transform="translate(62.898 12.831)"/>
        <circle id="Ellipse_10" cx="1.233" cy="1.233" r="1.233" class="cls-1" data-name="Ellipse 10" transform="translate(18.5 12.831)"/>
        <circle id="Ellipse_11" cx="1.233" cy="1.233" r="1.233" class="cls-1" data-name="Ellipse 11" transform="translate(13.566 12.831)"/>
        <circle id="Ellipse_12" cx="1.233" cy="1.233" r="1.233" class="cls-1" data-name="Ellipse 12" transform="translate(8.633 12.831)"/>
    </g>
</svg>
